<?xml version="1.0" encoding="utf-8" standalone="no"?>
<!DOCTYPE svg PUBLIC "-//W3C//DTD SVG 1.1//EN"
  "http://www.w3.org/Graphics/SVG/1.1/DTD/svg11.dtd">
<!-- Created with matplotlib (https://matplotlib.org/) -->
<svg height="432pt" version="1.1" viewBox="0 0 720 432" width="720pt" xmlns="http://www.w3.org/2000/svg" xmlns:xlink="http://www.w3.org/1999/xlink">
 <metadata>
  <rdf:RDF xmlns:cc="http://creativecommons.org/ns#" xmlns:dc="http://purl.org/dc/elements/1.1/" xmlns:rdf="http://www.w3.org/1999/02/22-rdf-syntax-ns#">
   <cc:Work>
    <dc:type rdf:resource="http://purl.org/dc/dcmitype/StillImage"/>
    <dc:date>2020-10-14T12:12:14.524479</dc:date>
    <dc:format>image/svg+xml</dc:format>
    <dc:creator>
     <cc:Agent>
      <dc:title>Matplotlib v3.3.1, https://matplotlib.org/</dc:title>
     </cc:Agent>
    </dc:creator>
   </cc:Work>
  </rdf:RDF>
 </metadata>
 <defs>
  <style type="text/css">*{stroke-linecap:butt;stroke-linejoin:round;}</style>
 </defs>
 <g id="figure_1">
  <g id="patch_1">
   <path d="M 0 432 
L 720 432 
L 720 0 
L 0 0 
z
" style="fill:#ffffff;"/>
  </g>
  <g id="axes_1">
   <g id="patch_2">
    <path d="M 47.72 390.04 
L 709.2 390.04 
L 709.2 28.464 
L 47.72 28.464 
z
" style="fill:#ffffff;"/>
   </g>
   <g id="matplotlib.axis_1">
    <g id="xtick_1">
     <g id="line2d_1">
      <defs>
       <path d="M 0 0 
L 0 3.5 
" id="mc3b193d8bf" style="stroke:#000000;stroke-width:0.8;"/>
      </defs>
      <g>
       <use style="stroke:#000000;stroke-width:0.8;" x="77.787273" xlink:href="#mc3b193d8bf" y="390.04"/>
      </g>
     </g>
     <g id="text_1">
      <!-- 0 -->
      <g transform="translate(74.606023 404.638438)scale(0.1 -0.1)">
       <defs>
        <path d="M 31.78125 66.40625 
Q 24.171875 66.40625 20.328125 58.90625 
Q 16.5 51.421875 16.5 36.375 
Q 16.5 21.390625 20.328125 13.890625 
Q 24.171875 6.390625 31.78125 6.390625 
Q 39.453125 6.390625 43.28125 13.890625 
Q 47.125 21.390625 47.125 36.375 
Q 47.125 51.421875 43.28125 58.90625 
Q 39.453125 66.40625 31.78125 66.40625 
z
M 31.78125 74.21875 
Q 44.046875 74.21875 50.515625 64.515625 
Q 56.984375 54.828125 56.984375 36.375 
Q 56.984375 17.96875 50.515625 8.265625 
Q 44.046875 -1.421875 31.78125 -1.421875 
Q 19.53125 -1.421875 13.0625 8.265625 
Q 6.59375 17.96875 6.59375 36.375 
Q 6.59375 54.828125 13.0625 64.515625 
Q 19.53125 74.21875 31.78125 74.21875 
z
" id="DejaVuSans-48"/>
       </defs>
       <use xlink:href="#DejaVuSans-48"/>
      </g>
     </g>
    </g>
    <g id="xtick_2">
     <g id="line2d_2">
      <g>
       <use style="stroke:#000000;stroke-width:0.8;" x="198.297384" xlink:href="#mc3b193d8bf" y="390.04"/>
      </g>
     </g>
     <g id="text_2">
      <!-- 100 -->
      <g transform="translate(188.753634 404.638438)scale(0.1 -0.1)">
       <defs>
        <path d="M 12.40625 8.296875 
L 28.515625 8.296875 
L 28.515625 63.921875 
L 10.984375 60.40625 
L 10.984375 69.390625 
L 28.421875 72.90625 
L 38.28125 72.90625 
L 38.28125 8.296875 
L 54.390625 8.296875 
L 54.390625 0 
L 12.40625 0 
z
" id="DejaVuSans-49"/>
       </defs>
       <use xlink:href="#DejaVuSans-49"/>
       <use x="63.623047" xlink:href="#DejaVuSans-48"/>
       <use x="127.246094" xlink:href="#DejaVuSans-48"/>
      </g>
     </g>
    </g>
    <g id="xtick_3">
     <g id="line2d_3">
      <g>
       <use style="stroke:#000000;stroke-width:0.8;" x="318.807495" xlink:href="#mc3b193d8bf" y="390.04"/>
      </g>
     </g>
     <g id="text_3">
      <!-- 200 -->
      <g transform="translate(309.263745 404.638438)scale(0.1 -0.1)">
       <defs>
        <path d="M 19.1875 8.296875 
L 53.609375 8.296875 
L 53.609375 0 
L 7.328125 0 
L 7.328125 8.296875 
Q 12.9375 14.109375 22.625 23.890625 
Q 32.328125 33.6875 34.8125 36.53125 
Q 39.546875 41.84375 41.421875 45.53125 
Q 43.3125 49.21875 43.3125 52.78125 
Q 43.3125 58.59375 39.234375 62.25 
Q 35.15625 65.921875 28.609375 65.921875 
Q 23.96875 65.921875 18.8125 64.3125 
Q 13.671875 62.703125 7.8125 59.421875 
L 7.8125 69.390625 
Q 13.765625 71.78125 18.9375 73 
Q 24.125 74.21875 28.421875 74.21875 
Q 39.75 74.21875 46.484375 68.546875 
Q 53.21875 62.890625 53.21875 53.421875 
Q 53.21875 48.921875 51.53125 44.890625 
Q 49.859375 40.875 45.40625 35.40625 
Q 44.1875 33.984375 37.640625 27.21875 
Q 31.109375 20.453125 19.1875 8.296875 
z
" id="DejaVuSans-50"/>
       </defs>
       <use xlink:href="#DejaVuSans-50"/>
       <use x="63.623047" xlink:href="#DejaVuSans-48"/>
       <use x="127.246094" xlink:href="#DejaVuSans-48"/>
      </g>
     </g>
    </g>
    <g id="xtick_4">
     <g id="line2d_4">
      <g>
       <use style="stroke:#000000;stroke-width:0.8;" x="439.317606" xlink:href="#mc3b193d8bf" y="390.04"/>
      </g>
     </g>
     <g id="text_4">
      <!-- 300 -->
      <g transform="translate(429.773856 404.638438)scale(0.1 -0.1)">
       <defs>
        <path d="M 40.578125 39.3125 
Q 47.65625 37.796875 51.625 33 
Q 55.609375 28.21875 55.609375 21.1875 
Q 55.609375 10.40625 48.1875 4.484375 
Q 40.765625 -1.421875 27.09375 -1.421875 
Q 22.515625 -1.421875 17.65625 -0.515625 
Q 12.796875 0.390625 7.625 2.203125 
L 7.625 11.71875 
Q 11.71875 9.328125 16.59375 8.109375 
Q 21.484375 6.890625 26.8125 6.890625 
Q 36.078125 6.890625 40.9375 10.546875 
Q 45.796875 14.203125 45.796875 21.1875 
Q 45.796875 27.640625 41.28125 31.265625 
Q 36.765625 34.90625 28.71875 34.90625 
L 20.21875 34.90625 
L 20.21875 43.015625 
L 29.109375 43.015625 
Q 36.375 43.015625 40.234375 45.921875 
Q 44.09375 48.828125 44.09375 54.296875 
Q 44.09375 59.90625 40.109375 62.90625 
Q 36.140625 65.921875 28.71875 65.921875 
Q 24.65625 65.921875 20.015625 65.03125 
Q 15.375 64.15625 9.8125 62.3125 
L 9.8125 71.09375 
Q 15.4375 72.65625 20.34375 73.4375 
Q 25.25 74.21875 29.59375 74.21875 
Q 40.828125 74.21875 47.359375 69.109375 
Q 53.90625 64.015625 53.90625 55.328125 
Q 53.90625 49.265625 50.4375 45.09375 
Q 46.96875 40.921875 40.578125 39.3125 
z
" id="DejaVuSans-51"/>
       </defs>
       <use xlink:href="#DejaVuSans-51"/>
       <use x="63.623047" xlink:href="#DejaVuSans-48"/>
       <use x="127.246094" xlink:href="#DejaVuSans-48"/>
      </g>
     </g>
    </g>
    <g id="xtick_5">
     <g id="line2d_5">
      <g>
       <use style="stroke:#000000;stroke-width:0.8;" x="559.827717" xlink:href="#mc3b193d8bf" y="390.04"/>
      </g>
     </g>
     <g id="text_5">
      <!-- 400 -->
      <g transform="translate(550.283967 404.638438)scale(0.1 -0.1)">
       <defs>
        <path d="M 37.796875 64.3125 
L 12.890625 25.390625 
L 37.796875 25.390625 
z
M 35.203125 72.90625 
L 47.609375 72.90625 
L 47.609375 25.390625 
L 58.015625 25.390625 
L 58.015625 17.1875 
L 47.609375 17.1875 
L 47.609375 0 
L 37.796875 0 
L 37.796875 17.1875 
L 4.890625 17.1875 
L 4.890625 26.703125 
z
" id="DejaVuSans-52"/>
       </defs>
       <use xlink:href="#DejaVuSans-52"/>
       <use x="63.623047" xlink:href="#DejaVuSans-48"/>
       <use x="127.246094" xlink:href="#DejaVuSans-48"/>
      </g>
     </g>
    </g>
    <g id="xtick_6">
     <g id="line2d_6">
      <g>
       <use style="stroke:#000000;stroke-width:0.8;" x="680.337828" xlink:href="#mc3b193d8bf" y="390.04"/>
      </g>
     </g>
     <g id="text_6">
      <!-- 500 -->
      <g transform="translate(670.794078 404.638438)scale(0.1 -0.1)">
       <defs>
        <path d="M 10.796875 72.90625 
L 49.515625 72.90625 
L 49.515625 64.59375 
L 19.828125 64.59375 
L 19.828125 46.734375 
Q 21.96875 47.46875 24.109375 47.828125 
Q 26.265625 48.1875 28.421875 48.1875 
Q 40.625 48.1875 47.75 41.5 
Q 54.890625 34.8125 54.890625 23.390625 
Q 54.890625 11.625 47.5625 5.09375 
Q 40.234375 -1.421875 26.90625 -1.421875 
Q 22.3125 -1.421875 17.546875 -0.640625 
Q 12.796875 0.140625 7.71875 1.703125 
L 7.71875 11.625 
Q 12.109375 9.234375 16.796875 8.0625 
Q 21.484375 6.890625 26.703125 6.890625 
Q 35.15625 6.890625 40.078125 11.328125 
Q 45.015625 15.765625 45.015625 23.390625 
Q 45.015625 31 40.078125 35.4375 
Q 35.15625 39.890625 26.703125 39.890625 
Q 22.75 39.890625 18.8125 39.015625 
Q 14.890625 38.140625 10.796875 36.28125 
z
" id="DejaVuSans-53"/>
       </defs>
       <use xlink:href="#DejaVuSans-53"/>
       <use x="63.623047" xlink:href="#DejaVuSans-48"/>
       <use x="127.246094" xlink:href="#DejaVuSans-48"/>
      </g>
     </g>
    </g>
    <g id="text_7">
     <!-- MC iterations -->
     <g transform="translate(345.338125 418.316562)scale(0.1 -0.1)">
      <defs>
       <path d="M 9.8125 72.90625 
L 24.515625 72.90625 
L 43.109375 23.296875 
L 61.8125 72.90625 
L 76.515625 72.90625 
L 76.515625 0 
L 66.890625 0 
L 66.890625 64.015625 
L 48.09375 14.015625 
L 38.1875 14.015625 
L 19.390625 64.015625 
L 19.390625 0 
L 9.8125 0 
z
" id="DejaVuSans-77"/>
       <path d="M 64.40625 67.28125 
L 64.40625 56.890625 
Q 59.421875 61.53125 53.78125 63.8125 
Q 48.140625 66.109375 41.796875 66.109375 
Q 29.296875 66.109375 22.65625 58.46875 
Q 16.015625 50.828125 16.015625 36.375 
Q 16.015625 21.96875 22.65625 14.328125 
Q 29.296875 6.6875 41.796875 6.6875 
Q 48.140625 6.6875 53.78125 8.984375 
Q 59.421875 11.28125 64.40625 15.921875 
L 64.40625 5.609375 
Q 59.234375 2.09375 53.4375 0.328125 
Q 47.65625 -1.421875 41.21875 -1.421875 
Q 24.65625 -1.421875 15.125 8.703125 
Q 5.609375 18.84375 5.609375 36.375 
Q 5.609375 53.953125 15.125 64.078125 
Q 24.65625 74.21875 41.21875 74.21875 
Q 47.75 74.21875 53.53125 72.484375 
Q 59.328125 70.75 64.40625 67.28125 
z
" id="DejaVuSans-67"/>
       <path id="DejaVuSans-32"/>
       <path d="M 9.421875 54.6875 
L 18.40625 54.6875 
L 18.40625 0 
L 9.421875 0 
z
M 9.421875 75.984375 
L 18.40625 75.984375 
L 18.40625 64.59375 
L 9.421875 64.59375 
z
" id="DejaVuSans-105"/>
       <path d="M 18.3125 70.21875 
L 18.3125 54.6875 
L 36.8125 54.6875 
L 36.8125 47.703125 
L 18.3125 47.703125 
L 18.3125 18.015625 
Q 18.3125 11.328125 20.140625 9.421875 
Q 21.96875 7.515625 27.59375 7.515625 
L 36.8125 7.515625 
L 36.8125 0 
L 27.59375 0 
Q 17.1875 0 13.234375 3.875 
Q 9.28125 7.765625 9.28125 18.015625 
L 9.28125 47.703125 
L 2.6875 47.703125 
L 2.6875 54.6875 
L 9.28125 54.6875 
L 9.28125 70.21875 
z
" id="DejaVuSans-116"/>
       <path d="M 56.203125 29.59375 
L 56.203125 25.203125 
L 14.890625 25.203125 
Q 15.484375 15.921875 20.484375 11.0625 
Q 25.484375 6.203125 34.421875 6.203125 
Q 39.59375 6.203125 44.453125 7.46875 
Q 49.3125 8.734375 54.109375 11.28125 
L 54.109375 2.78125 
Q 49.265625 0.734375 44.1875 -0.34375 
Q 39.109375 -1.421875 33.890625 -1.421875 
Q 20.796875 -1.421875 13.15625 6.1875 
Q 5.515625 13.8125 5.515625 26.8125 
Q 5.515625 40.234375 12.765625 48.109375 
Q 20.015625 56 32.328125 56 
Q 43.359375 56 49.78125 48.890625 
Q 56.203125 41.796875 56.203125 29.59375 
z
M 47.21875 32.234375 
Q 47.125 39.59375 43.09375 43.984375 
Q 39.0625 48.390625 32.421875 48.390625 
Q 24.90625 48.390625 20.390625 44.140625 
Q 15.875 39.890625 15.1875 32.171875 
z
" id="DejaVuSans-101"/>
       <path d="M 41.109375 46.296875 
Q 39.59375 47.171875 37.8125 47.578125 
Q 36.03125 48 33.890625 48 
Q 26.265625 48 22.1875 43.046875 
Q 18.109375 38.09375 18.109375 28.8125 
L 18.109375 0 
L 9.078125 0 
L 9.078125 54.6875 
L 18.109375 54.6875 
L 18.109375 46.1875 
Q 20.953125 51.171875 25.484375 53.578125 
Q 30.03125 56 36.53125 56 
Q 37.453125 56 38.578125 55.875 
Q 39.703125 55.765625 41.0625 55.515625 
z
" id="DejaVuSans-114"/>
       <path d="M 34.28125 27.484375 
Q 23.390625 27.484375 19.1875 25 
Q 14.984375 22.515625 14.984375 16.5 
Q 14.984375 11.71875 18.140625 8.90625 
Q 21.296875 6.109375 26.703125 6.109375 
Q 34.1875 6.109375 38.703125 11.40625 
Q 43.21875 16.703125 43.21875 25.484375 
L 43.21875 27.484375 
z
M 52.203125 31.203125 
L 52.203125 0 
L 43.21875 0 
L 43.21875 8.296875 
Q 40.140625 3.328125 35.546875 0.953125 
Q 30.953125 -1.421875 24.3125 -1.421875 
Q 15.921875 -1.421875 10.953125 3.296875 
Q 6 8.015625 6 15.921875 
Q 6 25.140625 12.171875 29.828125 
Q 18.359375 34.515625 30.609375 34.515625 
L 43.21875 34.515625 
L 43.21875 35.40625 
Q 43.21875 41.609375 39.140625 45 
Q 35.0625 48.390625 27.6875 48.390625 
Q 23 48.390625 18.546875 47.265625 
Q 14.109375 46.140625 10.015625 43.890625 
L 10.015625 52.203125 
Q 14.9375 54.109375 19.578125 55.046875 
Q 24.21875 56 28.609375 56 
Q 40.484375 56 46.34375 49.84375 
Q 52.203125 43.703125 52.203125 31.203125 
z
" id="DejaVuSans-97"/>
       <path d="M 30.609375 48.390625 
Q 23.390625 48.390625 19.1875 42.75 
Q 14.984375 37.109375 14.984375 27.296875 
Q 14.984375 17.484375 19.15625 11.84375 
Q 23.34375 6.203125 30.609375 6.203125 
Q 37.796875 6.203125 41.984375 11.859375 
Q 46.1875 17.53125 46.1875 27.296875 
Q 46.1875 37.015625 41.984375 42.703125 
Q 37.796875 48.390625 30.609375 48.390625 
z
M 30.609375 56 
Q 42.328125 56 49.015625 48.375 
Q 55.71875 40.765625 55.71875 27.296875 
Q 55.71875 13.875 49.015625 6.21875 
Q 42.328125 -1.421875 30.609375 -1.421875 
Q 18.84375 -1.421875 12.171875 6.21875 
Q 5.515625 13.875 5.515625 27.296875 
Q 5.515625 40.765625 12.171875 48.375 
Q 18.84375 56 30.609375 56 
z
" id="DejaVuSans-111"/>
       <path d="M 54.890625 33.015625 
L 54.890625 0 
L 45.90625 0 
L 45.90625 32.71875 
Q 45.90625 40.484375 42.875 44.328125 
Q 39.84375 48.1875 33.796875 48.1875 
Q 26.515625 48.1875 22.3125 43.546875 
Q 18.109375 38.921875 18.109375 30.90625 
L 18.109375 0 
L 9.078125 0 
L 9.078125 54.6875 
L 18.109375 54.6875 
L 18.109375 46.1875 
Q 21.34375 51.125 25.703125 53.5625 
Q 30.078125 56 35.796875 56 
Q 45.21875 56 50.046875 50.171875 
Q 54.890625 44.34375 54.890625 33.015625 
z
" id="DejaVuSans-110"/>
       <path d="M 44.28125 53.078125 
L 44.28125 44.578125 
Q 40.484375 46.53125 36.375 47.5 
Q 32.28125 48.484375 27.875 48.484375 
Q 21.1875 48.484375 17.84375 46.4375 
Q 14.5 44.390625 14.5 40.28125 
Q 14.5 37.15625 16.890625 35.375 
Q 19.28125 33.59375 26.515625 31.984375 
L 29.59375 31.296875 
Q 39.15625 29.25 43.1875 25.515625 
Q 47.21875 21.78125 47.21875 15.09375 
Q 47.21875 7.46875 41.1875 3.015625 
Q 35.15625 -1.421875 24.609375 -1.421875 
Q 20.21875 -1.421875 15.453125 -0.5625 
Q 10.6875 0.296875 5.421875 2 
L 5.421875 11.28125 
Q 10.40625 8.6875 15.234375 7.390625 
Q 20.0625 6.109375 24.8125 6.109375 
Q 31.15625 6.109375 34.5625 8.28125 
Q 37.984375 10.453125 37.984375 14.40625 
Q 37.984375 18.0625 35.515625 20.015625 
Q 33.0625 21.96875 24.703125 23.78125 
L 21.578125 24.515625 
Q 13.234375 26.265625 9.515625 29.90625 
Q 5.8125 33.546875 5.8125 39.890625 
Q 5.8125 47.609375 11.28125 51.796875 
Q 16.75 56 26.8125 56 
Q 31.78125 56 36.171875 55.265625 
Q 40.578125 54.546875 44.28125 53.078125 
z
" id="DejaVuSans-115"/>
      </defs>
      <use xlink:href="#DejaVuSans-77"/>
      <use x="86.279297" xlink:href="#DejaVuSans-67"/>
      <use x="156.103516" xlink:href="#DejaVuSans-32"/>
      <use x="187.890625" xlink:href="#DejaVuSans-105"/>
      <use x="215.673828" xlink:href="#DejaVuSans-116"/>
      <use x="254.882812" xlink:href="#DejaVuSans-101"/>
      <use x="316.40625" xlink:href="#DejaVuSans-114"/>
      <use x="357.519531" xlink:href="#DejaVuSans-97"/>
      <use x="418.798828" xlink:href="#DejaVuSans-116"/>
      <use x="458.007812" xlink:href="#DejaVuSans-105"/>
      <use x="485.791016" xlink:href="#DejaVuSans-111"/>
      <use x="546.972656" xlink:href="#DejaVuSans-110"/>
      <use x="610.351562" xlink:href="#DejaVuSans-115"/>
     </g>
    </g>
   </g>
   <g id="matplotlib.axis_2">
    <g id="ytick_1">
     <g id="line2d_7">
      <defs>
       <path d="M 0 0 
L -3.5 0 
" id="m6da8787c81" style="stroke:#000000;stroke-width:0.8;"/>
      </defs>
      <g>
       <use style="stroke:#000000;stroke-width:0.8;" x="47.72" xlink:href="#m6da8787c81" y="390.04"/>
      </g>
     </g>
     <g id="text_8">
      <!-- 2.5 -->
      <g transform="translate(24.816875 393.839219)scale(0.1 -0.1)">
       <defs>
        <path d="M 10.6875 12.40625 
L 21 12.40625 
L 21 0 
L 10.6875 0 
z
" id="DejaVuSans-46"/>
       </defs>
       <use xlink:href="#DejaVuSans-50"/>
       <use x="63.623047" xlink:href="#DejaVuSans-46"/>
       <use x="95.410156" xlink:href="#DejaVuSans-53"/>
      </g>
     </g>
    </g>
    <g id="ytick_2">
     <g id="line2d_8">
      <g>
       <use style="stroke:#000000;stroke-width:0.8;" x="47.72" xlink:href="#m6da8787c81" y="344.843"/>
      </g>
     </g>
     <g id="text_9">
      <!-- 3.0 -->
      <g transform="translate(24.816875 348.642219)scale(0.1 -0.1)">
       <use xlink:href="#DejaVuSans-51"/>
       <use x="63.623047" xlink:href="#DejaVuSans-46"/>
       <use x="95.410156" xlink:href="#DejaVuSans-48"/>
      </g>
     </g>
    </g>
    <g id="ytick_3">
     <g id="line2d_9">
      <g>
       <use style="stroke:#000000;stroke-width:0.8;" x="47.72" xlink:href="#m6da8787c81" y="299.646"/>
      </g>
     </g>
     <g id="text_10">
      <!-- 3.5 -->
      <g transform="translate(24.816875 303.445219)scale(0.1 -0.1)">
       <use xlink:href="#DejaVuSans-51"/>
       <use x="63.623047" xlink:href="#DejaVuSans-46"/>
       <use x="95.410156" xlink:href="#DejaVuSans-53"/>
      </g>
     </g>
    </g>
    <g id="ytick_4">
     <g id="line2d_10">
      <g>
       <use style="stroke:#000000;stroke-width:0.8;" x="47.72" xlink:href="#m6da8787c81" y="254.449"/>
      </g>
     </g>
     <g id="text_11">
      <!-- 4.0 -->
      <g transform="translate(24.816875 258.248219)scale(0.1 -0.1)">
       <use xlink:href="#DejaVuSans-52"/>
       <use x="63.623047" xlink:href="#DejaVuSans-46"/>
       <use x="95.410156" xlink:href="#DejaVuSans-48"/>
      </g>
     </g>
    </g>
    <g id="ytick_5">
     <g id="line2d_11">
      <g>
       <use style="stroke:#000000;stroke-width:0.8;" x="47.72" xlink:href="#m6da8787c81" y="209.252"/>
      </g>
     </g>
     <g id="text_12">
      <!-- 4.5 -->
      <g transform="translate(24.816875 213.051219)scale(0.1 -0.1)">
       <use xlink:href="#DejaVuSans-52"/>
       <use x="63.623047" xlink:href="#DejaVuSans-46"/>
       <use x="95.410156" xlink:href="#DejaVuSans-53"/>
      </g>
     </g>
    </g>
    <g id="ytick_6">
     <g id="line2d_12">
      <g>
       <use style="stroke:#000000;stroke-width:0.8;" x="47.72" xlink:href="#m6da8787c81" y="164.055"/>
      </g>
     </g>
     <g id="text_13">
      <!-- 5.0 -->
      <g transform="translate(24.816875 167.854219)scale(0.1 -0.1)">
       <use xlink:href="#DejaVuSans-53"/>
       <use x="63.623047" xlink:href="#DejaVuSans-46"/>
       <use x="95.410156" xlink:href="#DejaVuSans-48"/>
      </g>
     </g>
    </g>
    <g id="ytick_7">
     <g id="line2d_13">
      <g>
       <use style="stroke:#000000;stroke-width:0.8;" x="47.72" xlink:href="#m6da8787c81" y="118.858"/>
      </g>
     </g>
     <g id="text_14">
      <!-- 5.5 -->
      <g transform="translate(24.816875 122.657219)scale(0.1 -0.1)">
       <use xlink:href="#DejaVuSans-53"/>
       <use x="63.623047" xlink:href="#DejaVuSans-46"/>
       <use x="95.410156" xlink:href="#DejaVuSans-53"/>
      </g>
     </g>
    </g>
    <g id="ytick_8">
     <g id="line2d_14">
      <g>
       <use style="stroke:#000000;stroke-width:0.8;" x="47.72" xlink:href="#m6da8787c81" y="73.661"/>
      </g>
     </g>
     <g id="text_15">
      <!-- 6.0 -->
      <g transform="translate(24.816875 77.460219)scale(0.1 -0.1)">
       <defs>
        <path d="M 33.015625 40.375 
Q 26.375 40.375 22.484375 35.828125 
Q 18.609375 31.296875 18.609375 23.390625 
Q 18.609375 15.53125 22.484375 10.953125 
Q 26.375 6.390625 33.015625 6.390625 
Q 39.65625 6.390625 43.53125 10.953125 
Q 47.40625 15.53125 47.40625 23.390625 
Q 47.40625 31.296875 43.53125 35.828125 
Q 39.65625 40.375 33.015625 40.375 
z
M 52.59375 71.296875 
L 52.59375 62.3125 
Q 48.875 64.0625 45.09375 64.984375 
Q 41.3125 65.921875 37.59375 65.921875 
Q 27.828125 65.921875 22.671875 59.328125 
Q 17.53125 52.734375 16.796875 39.40625 
Q 19.671875 43.65625 24.015625 45.921875 
Q 28.375 48.1875 33.59375 48.1875 
Q 44.578125 48.1875 50.953125 41.515625 
Q 57.328125 34.859375 57.328125 23.390625 
Q 57.328125 12.15625 50.6875 5.359375 
Q 44.046875 -1.421875 33.015625 -1.421875 
Q 20.359375 -1.421875 13.671875 8.265625 
Q 6.984375 17.96875 6.984375 36.375 
Q 6.984375 53.65625 15.1875 63.9375 
Q 23.390625 74.21875 37.203125 74.21875 
Q 40.921875 74.21875 44.703125 73.484375 
Q 48.484375 72.75 52.59375 71.296875 
z
" id="DejaVuSans-54"/>
       </defs>
       <use xlink:href="#DejaVuSans-54"/>
       <use x="63.623047" xlink:href="#DejaVuSans-46"/>
       <use x="95.410156" xlink:href="#DejaVuSans-48"/>
      </g>
     </g>
    </g>
    <g id="ytick_9">
     <g id="line2d_15">
      <g>
       <use style="stroke:#000000;stroke-width:0.8;" x="47.72" xlink:href="#m6da8787c81" y="28.464"/>
      </g>
     </g>
     <g id="text_16">
      <!-- 6.5 -->
      <g transform="translate(24.816875 32.263219)scale(0.1 -0.1)">
       <use xlink:href="#DejaVuSans-54"/>
       <use x="63.623047" xlink:href="#DejaVuSans-46"/>
       <use x="95.410156" xlink:href="#DejaVuSans-53"/>
      </g>
     </g>
    </g>
    <g id="text_17">
     <!-- ANEES -->
     <g transform="translate(18.737188 225.905906)rotate(-90)scale(0.1 -0.1)">
      <defs>
       <path d="M 34.1875 63.1875 
L 20.796875 26.90625 
L 47.609375 26.90625 
z
M 28.609375 72.90625 
L 39.796875 72.90625 
L 67.578125 0 
L 57.328125 0 
L 50.6875 18.703125 
L 17.828125 18.703125 
L 11.1875 0 
L 0.78125 0 
z
" id="DejaVuSans-65"/>
       <path d="M 9.8125 72.90625 
L 23.09375 72.90625 
L 55.421875 11.921875 
L 55.421875 72.90625 
L 64.984375 72.90625 
L 64.984375 0 
L 51.703125 0 
L 19.390625 60.984375 
L 19.390625 0 
L 9.8125 0 
z
" id="DejaVuSans-78"/>
       <path d="M 9.8125 72.90625 
L 55.90625 72.90625 
L 55.90625 64.59375 
L 19.671875 64.59375 
L 19.671875 43.015625 
L 54.390625 43.015625 
L 54.390625 34.71875 
L 19.671875 34.71875 
L 19.671875 8.296875 
L 56.78125 8.296875 
L 56.78125 0 
L 9.8125 0 
z
" id="DejaVuSans-69"/>
       <path d="M 53.515625 70.515625 
L 53.515625 60.890625 
Q 47.90625 63.578125 42.921875 64.890625 
Q 37.9375 66.21875 33.296875 66.21875 
Q 25.25 66.21875 20.875 63.09375 
Q 16.5 59.96875 16.5 54.203125 
Q 16.5 49.359375 19.40625 46.890625 
Q 22.3125 44.4375 30.421875 42.921875 
L 36.375 41.703125 
Q 47.40625 39.59375 52.65625 34.296875 
Q 57.90625 29 57.90625 20.125 
Q 57.90625 9.515625 50.796875 4.046875 
Q 43.703125 -1.421875 29.984375 -1.421875 
Q 24.8125 -1.421875 18.96875 -0.25 
Q 13.140625 0.921875 6.890625 3.21875 
L 6.890625 13.375 
Q 12.890625 10.015625 18.65625 8.296875 
Q 24.421875 6.59375 29.984375 6.59375 
Q 38.421875 6.59375 43.015625 9.90625 
Q 47.609375 13.234375 47.609375 19.390625 
Q 47.609375 24.75 44.3125 27.78125 
Q 41.015625 30.8125 33.5 32.328125 
L 27.484375 33.5 
Q 16.453125 35.6875 11.515625 40.375 
Q 6.59375 45.0625 6.59375 53.421875 
Q 6.59375 63.09375 13.40625 68.65625 
Q 20.21875 74.21875 32.171875 74.21875 
Q 37.3125 74.21875 42.625 73.28125 
Q 47.953125 72.359375 53.515625 70.515625 
z
" id="DejaVuSans-83"/>
      </defs>
      <use xlink:href="#DejaVuSans-65"/>
      <use x="68.408203" xlink:href="#DejaVuSans-78"/>
      <use x="143.212891" xlink:href="#DejaVuSans-69"/>
      <use x="206.396484" xlink:href="#DejaVuSans-69"/>
      <use x="269.580078" xlink:href="#DejaVuSans-83"/>
     </g>
    </g>
   </g>
   <g id="line2d_16">
    <path clip-path="url(#pa903774fba)" d="M 77.787273 357.709805 
L 78.992374 329.317719 
L 80.197475 316.242562 
L 81.402576 308.304609 
L 82.607677 302.826273 
L 83.812778 298.750605 
L 85.017879 295.564442 
L 86.222981 292.984363 
L 87.428082 290.839294 
L 88.633183 289.019013 
L 89.838284 287.448857 
L 92.248486 284.862753 
L 94.658688 282.805634 
L 97.068891 281.1184 
L 99.479093 279.701838 
L 101.889295 278.490425 
L 105.504598 276.962617 
L 109.119902 275.694492 
L 113.940306 274.296453 
L 118.760711 273.143367 
L 124.786216 271.950894 
L 132.016823 270.783189 
L 140.452531 269.678285 
L 150.093339 268.654858 
L 162.144351 267.626072 
L 176.605564 266.644775 
L 193.476979 265.737586 
L 213.963698 264.868282 
L 239.270822 264.029282 
L 270.603451 263.226598 
L 309.166686 262.470191 
L 357.370731 261.752924 
L 418.830887 261.067836 
L 498.367561 260.413905 
L 602.006256 259.79563 
L 679.132727 259.44295 
L 679.132727 259.44295 
" style="fill:none;stroke:#000000;stroke-linecap:square;stroke-width:1.5;"/>
   </g>
   <g id="line2d_17">
    <path clip-path="url(#pa903774fba)" d="M 77.787273 134.095862 
L 78.992374 171.026316 
L 80.197475 186.951071 
L 81.402576 196.314472 
L 82.607677 202.648283 
L 83.812778 207.294353 
L 85.017879 210.887989 
L 86.222981 213.773695 
L 87.428082 216.156487 
L 88.633183 218.166956 
L 89.838284 219.892725 
L 91.043385 221.395059 
L 93.453587 223.895195 
L 95.863789 225.904917 
L 98.273992 227.565822 
L 100.684194 228.968223 
L 103.094396 230.172784 
L 106.709699 231.698222 
L 110.325003 232.969159 
L 115.145407 234.374725 
L 119.965812 235.537074 
L 125.991317 236.741618 
L 133.221924 237.923214 
L 141.657632 239.042796 
L 151.298441 240.08086 
L 163.349452 241.125096 
L 176.605564 242.046924 
L 193.476979 242.983887 
L 213.963698 243.879516 
L 238.065721 244.70549 
L 268.193248 245.509014 
L 305.551383 246.274962 
L 352.550326 247.007112 
L 412.805382 247.710018 
L 489.931853 248.373865 
L 589.955245 249.000017 
L 679.132727 249.420803 
L 679.132727 249.420803 
" style="fill:none;stroke:#000000;stroke-linecap:square;stroke-width:1.5;"/>
   </g>
   <g id="line2d_18">
    <path clip-path="url(#pa903774fba)" d="M 77.787273 79.020181 
L 78.992374 191.660609 
L 81.402576 168.118545 
L 82.607677 169.067344 
L 83.812778 168.334573 
L 85.017879 166.673367 
L 86.222981 184.572546 
L 87.428082 183.220442 
L 88.633183 177.767594 
L 89.838284 183.465801 
L 91.043385 194.016597 
L 92.248486 184.694763 
L 93.453587 188.058971 
L 94.658688 176.639366 
L 95.863789 176.204462 
L 97.068891 178.200499 
L 98.273992 158.691383 
L 99.479093 160.550792 
L 100.684194 168.512108 
L 103.094396 169.859149 
L 104.299497 168.681505 
L 105.504598 170.879235 
L 106.709699 173.582361 
L 107.914801 170.435342 
L 109.119902 167.89805 
L 110.325003 173.962295 
L 111.530104 175.723355 
L 112.735205 168.877615 
L 113.940306 165.597622 
L 115.145407 155.963577 
L 116.350508 158.487503 
L 117.555609 156.994874 
L 118.760711 161.910915 
L 119.965812 155.449182 
L 121.170913 152.674613 
L 122.376014 153.965811 
L 123.581115 149.495586 
L 124.786216 149.319506 
L 125.991317 152.474643 
L 127.196418 153.001418 
L 128.401519 157.323079 
L 129.606621 158.588668 
L 130.811722 156.43777 
L 132.016823 156.217335 
L 133.221924 150.100368 
L 134.427025 150.357184 
L 135.632126 152.058342 
L 136.837227 151.32583 
L 138.042328 148.020222 
L 139.247429 149.552717 
L 140.452531 154.349614 
L 141.657632 155.13734 
L 142.862733 157.575534 
L 144.067834 156.823546 
L 145.272935 157.811128 
L 146.478036 155.381171 
L 147.683137 156.932278 
L 148.888238 153.835789 
L 150.093339 153.329198 
L 151.298441 151.930794 
L 152.503542 151.532867 
L 153.708643 151.378434 
L 154.913744 148.08696 
L 156.118845 149.145491 
L 157.323946 151.161509 
L 158.529047 151.237102 
L 159.734148 148.094727 
L 160.939249 147.952196 
L 162.144351 148.463827 
L 163.349452 150.134865 
L 164.554553 149.64561 
L 165.759654 148.383202 
L 166.964755 150.324923 
L 168.169856 150.47728 
L 169.374957 152.060075 
L 171.785159 150.979165 
L 172.990261 150.125224 
L 174.195362 148.476597 
L 175.400463 149.962052 
L 176.605564 150.49044 
L 177.810665 153.31022 
L 179.015766 152.294543 
L 180.220867 154.072867 
L 181.425968 155.086798 
L 182.631069 156.859933 
L 183.836171 155.710838 
L 185.041272 156.940537 
L 186.246373 154.636089 
L 187.451474 152.011121 
L 188.656575 153.881095 
L 189.861676 153.21606 
L 192.271878 155.522909 
L 193.476979 156.389539 
L 194.682081 157.925667 
L 195.887182 158.513595 
L 197.092283 160.27321 
L 198.297384 160.50774 
L 199.502485 161.560763 
L 200.707586 159.179141 
L 201.912687 158.487668 
L 204.322889 158.621959 
L 205.527991 159.402151 
L 206.733092 156.904876 
L 207.938193 156.074337 
L 209.143294 156.347096 
L 210.348395 157.488027 
L 211.553496 156.980625 
L 212.758597 159.028314 
L 213.963698 158.810609 
L 216.373901 159.272166 
L 218.784103 160.199074 
L 219.989204 157.309447 
L 221.194305 157.710249 
L 222.399406 157.524836 
L 223.604507 156.561732 
L 224.809608 156.210208 
L 226.014709 156.365105 
L 228.424912 158.300248 
L 229.630013 158.228997 
L 230.835114 159.481724 
L 232.040215 160.983858 
L 233.245316 161.109707 
L 234.450417 160.600452 
L 235.655518 160.932229 
L 236.860619 160.509603 
L 239.270822 161.935329 
L 240.475923 163.821439 
L 241.681024 164.824451 
L 242.886125 165.5255 
L 244.091226 162.571568 
L 245.296327 161.530397 
L 247.706529 161.216274 
L 248.911631 159.326652 
L 250.116732 158.377922 
L 251.321833 159.281671 
L 252.526934 160.641191 
L 253.732035 161.743596 
L 254.937136 161.663959 
L 256.142237 160.511524 
L 258.552439 159.922088 
L 259.757541 159.907713 
L 260.962642 160.324547 
L 262.167743 161.41762 
L 264.577945 162.175815 
L 265.783046 161.860352 
L 266.988147 162.506798 
L 268.193248 161.686522 
L 269.398349 161.342437 
L 270.603451 161.802311 
L 271.808552 161.243966 
L 273.013653 161.52764 
L 274.218754 162.52577 
L 276.628956 162.68696 
L 277.834057 162.756484 
L 279.039158 162.673252 
L 280.244259 162.335949 
L 281.449361 162.752793 
L 282.654462 162.067485 
L 283.859563 163.440893 
L 285.064664 162.986907 
L 286.269765 162.085208 
L 287.474866 163.027996 
L 288.679967 162.823972 
L 289.885068 163.235937 
L 291.090169 163.044858 
L 292.295271 163.049873 
L 293.500372 161.064954 
L 294.705473 161.658088 
L 295.910574 162.566694 
L 297.115675 163.009977 
L 298.320776 163.32749 
L 299.525877 161.058104 
L 300.730978 161.229353 
L 303.141181 161.15891 
L 304.346282 161.265765 
L 305.551383 161.537382 
L 306.756484 160.929933 
L 307.961585 161.023077 
L 309.166686 160.618676 
L 311.576888 161.725841 
L 312.781989 161.114836 
L 313.987091 161.440067 
L 315.192192 160.451866 
L 316.397293 160.444583 
L 318.807495 160.640097 
L 320.012596 161.321183 
L 321.217697 161.230607 
L 322.422798 159.508336 
L 323.627899 159.07268 
L 324.833001 159.193904 
L 326.038102 159.017219 
L 327.243203 159.203461 
L 328.448304 159.14937 
L 329.653405 159.386976 
L 330.858506 159.288682 
L 332.063607 160.290638 
L 333.268708 161.040572 
L 334.473809 161.267861 
L 335.678911 161.614804 
L 336.884012 161.821867 
L 338.089113 161.715693 
L 339.294214 161.284535 
L 340.499315 161.351495 
L 341.704416 161.656329 
L 342.909517 162.098321 
L 344.114618 160.367253 
L 345.319719 160.505912 
L 346.524821 160.783237 
L 347.729922 159.495654 
L 348.935023 158.522221 
L 350.140124 158.712999 
L 351.345225 158.779317 
L 352.550326 159.093352 
L 353.755427 159.204964 
L 354.960528 158.959168 
L 356.165629 158.591474 
L 357.370731 159.239046 
L 358.575832 159.233011 
L 359.780933 157.945109 
L 360.986034 158.460762 
L 362.191135 158.253835 
L 363.396236 158.951875 
L 364.601337 158.699198 
L 367.011539 156.30279 
L 368.216641 156.21334 
L 369.421742 155.443905 
L 370.626843 155.402796 
L 373.037045 154.95755 
L 374.242146 153.617109 
L 375.447247 154.141274 
L 376.652348 154.484831 
L 379.062551 154.906063 
L 380.267652 154.626368 
L 381.472753 154.637334 
L 382.677854 155.335991 
L 383.882955 155.13143 
L 385.088056 155.247688 
L 386.293157 154.929223 
L 387.498258 154.443877 
L 388.703359 153.562345 
L 389.908461 154.421153 
L 391.113562 154.832038 
L 392.318663 154.439936 
L 393.523764 155.036463 
L 394.728865 154.672794 
L 395.933966 154.146611 
L 397.139067 152.794027 
L 398.344168 153.333283 
L 399.549269 154.01128 
L 400.754371 153.869166 
L 401.959472 154.312664 
L 403.164573 155.136871 
L 405.574775 154.933397 
L 406.779876 154.549875 
L 407.984977 154.867802 
L 409.190078 153.862063 
L 410.395179 154.38413 
L 411.600281 153.673926 
L 412.805382 153.882357 
L 414.010483 153.299684 
L 415.215584 153.194369 
L 416.420685 152.437528 
L 417.625786 153.065095 
L 418.830887 153.293357 
L 420.035988 152.842177 
L 421.241089 151.639617 
L 422.446191 151.121831 
L 424.856393 151.219226 
L 426.061494 151.930447 
L 428.471696 152.244092 
L 429.676797 151.228743 
L 430.881898 152.030745 
L 432.086999 151.679671 
L 433.292101 150.465351 
L 434.497202 150.294644 
L 435.702303 149.547479 
L 436.907404 149.490769 
L 438.112505 149.223469 
L 439.317606 149.366892 
L 440.522707 149.6617 
L 441.727808 149.41194 
L 442.932909 149.720824 
L 444.138011 149.386345 
L 445.343112 149.474384 
L 446.548213 148.731583 
L 447.753314 148.405777 
L 448.958415 149.166117 
L 450.163516 149.298155 
L 451.368617 148.860109 
L 452.573718 149.16535 
L 453.778819 148.649064 
L 454.983921 149.040753 
L 456.189022 149.216847 
L 457.394123 148.144403 
L 458.599224 148.722784 
L 461.009426 147.972653 
L 464.624729 148.824515 
L 467.034932 149.372768 
L 468.240033 149.838078 
L 469.445134 150.167961 
L 470.650235 150.24735 
L 473.060437 150.8313 
L 474.265538 150.777844 
L 475.470639 151.112911 
L 477.880842 151.981824 
L 479.085943 152.244301 
L 480.291044 152.247959 
L 481.496145 152.778134 
L 482.701246 152.800074 
L 483.906347 152.539187 
L 485.111448 153.015306 
L 486.316549 153.183188 
L 487.521651 152.924165 
L 489.931853 152.695103 
L 491.136954 153.059318 
L 492.342055 153.069552 
L 493.547156 153.449798 
L 494.752257 153.453378 
L 497.162459 153.888742 
L 500.777763 153.734158 
L 501.982864 154.030844 
L 503.187965 153.761878 
L 504.393066 154.122176 
L 505.598167 153.898091 
L 506.803268 153.946965 
L 508.008369 153.191567 
L 509.213471 152.920251 
L 510.418572 152.855583 
L 511.623673 153.021057 
L 514.033875 152.768417 
L 517.649178 153.884412 
L 518.854279 152.815428 
L 520.059381 152.680977 
L 521.264482 152.794059 
L 522.469583 151.804586 
L 524.879785 151.698156 
L 526.084886 151.971626 
L 527.289987 151.884573 
L 528.495088 151.988118 
L 530.905291 151.472752 
L 532.110392 150.876838 
L 533.315493 150.646651 
L 535.725695 150.900479 
L 536.930796 150.283898 
L 538.135897 150.266467 
L 539.340998 150.612815 
L 540.546099 150.333718 
L 541.751201 150.464158 
L 546.571605 149.85031 
L 547.776706 150.252769 
L 548.981807 150.258705 
L 550.186908 150.615391 
L 551.392009 150.201429 
L 552.597111 150.359169 
L 553.802212 150.053354 
L 555.007313 149.920016 
L 556.212414 149.951972 
L 557.417515 150.461072 
L 558.622616 149.959923 
L 559.827717 149.611518 
L 561.032818 149.791422 
L 562.237919 149.277766 
L 564.648122 148.647586 
L 567.058324 149.501691 
L 568.263425 149.152239 
L 569.468526 149.328413 
L 570.673627 149.326037 
L 571.878728 148.846326 
L 573.083829 149.296227 
L 575.494032 147.340392 
L 576.699133 147.707322 
L 577.904234 147.378551 
L 580.314436 147.618817 
L 581.519537 147.639651 
L 583.929739 148.425615 
L 585.134841 148.476679 
L 587.545043 147.734091 
L 588.750144 147.653332 
L 589.955245 147.9926 
L 591.160346 147.590789 
L 592.365447 147.645345 
L 593.570548 147.97306 
L 594.775649 147.988623 
L 597.185852 148.374934 
L 598.390953 148.707205 
L 599.596054 148.769216 
L 600.801155 149.062248 
L 602.006256 149.523031 
L 603.211357 149.454615 
L 604.416458 149.53016 
L 608.031762 150.388452 
L 611.647065 149.33915 
L 615.262368 149.652409 
L 616.467469 149.783999 
L 617.672571 150.185735 
L 618.877672 149.873623 
L 620.082773 149.929893 
L 621.287874 149.512224 
L 622.492975 149.288872 
L 623.698076 149.275267 
L 624.903177 148.830092 
L 626.108278 149.239908 
L 627.313379 149.479791 
L 629.723582 149.260077 
L 630.928683 149.543497 
L 632.133784 148.808269 
L 633.338885 149.078151 
L 634.543986 149.232216 
L 636.954188 148.364378 
L 638.159289 147.561798 
L 640.569492 147.036503 
L 641.774593 147.576071 
L 642.979694 147.363232 
L 644.184795 147.482004 
L 645.389896 147.300232 
L 649.005199 147.771427 
L 650.210301 147.342934 
L 651.415402 147.198878 
L 652.620503 147.241711 
L 653.825604 147.477141 
L 655.030705 147.498613 
L 656.235806 148.010669 
L 657.440907 148.375246 
L 659.851109 147.756969 
L 661.056211 148.069972 
L 662.261312 148.064872 
L 663.466413 147.856546 
L 664.671514 148.076452 
L 667.081716 148.007391 
L 668.286817 148.251018 
L 669.491918 147.737116 
L 671.902121 148.026867 
L 673.107222 148.277657 
L 674.312323 147.925092 
L 675.517424 148.110721 
L 676.722525 148.479802 
L 677.927626 148.276033 
L 679.132727 148.329065 
L 679.132727 148.329065 
" style="fill:none;stroke:#0000ff;stroke-linecap:square;stroke-width:1.5;"/>
   </g>
   <g id="line2d_19">
    <path clip-path="url(#pa903774fba)" d="M 77.787273 216.232237 
L 78.992374 299.410751 
L 80.197475 305.105059 
L 81.402576 308.449385 
L 82.607677 304.371122 
L 83.812778 304.182415 
L 85.017879 299.374123 
L 86.222981 306.826387 
L 87.428082 304.013862 
L 89.838284 309.039582 
L 91.043385 316.382194 
L 92.248486 311.6431 
L 93.453587 312.920379 
L 94.658688 308.001281 
L 95.863789 305.366552 
L 97.068891 304.481824 
L 98.273992 289.091466 
L 99.479093 287.230911 
L 100.684194 291.109276 
L 101.889295 289.54316 
L 103.094396 289.224373 
L 105.504598 289.034974 
L 106.709699 290.580542 
L 107.914801 289.672431 
L 109.119902 287.719223 
L 110.325003 292.220603 
L 111.530104 293.355017 
L 112.735205 288.937502 
L 113.940306 288.750041 
L 115.145407 280.369031 
L 116.350508 282.805006 
L 117.555609 282.021858 
L 118.760711 284.551169 
L 119.965812 280.78382 
L 121.170913 278.999897 
L 122.376014 279.307811 
L 123.581115 277.27878 
L 124.786216 277.474981 
L 125.991317 279.572773 
L 127.196418 280.400757 
L 128.401519 283.912335 
L 129.606621 283.943434 
L 130.811722 282.469519 
L 132.016823 282.295766 
L 133.221924 278.760915 
L 134.427025 279.203452 
L 135.632126 280.135366 
L 136.837227 279.827407 
L 138.042328 276.272024 
L 139.247429 277.438485 
L 140.452531 280.609728 
L 141.657632 281.223622 
L 142.862733 283.469142 
L 144.067834 283.164065 
L 145.272935 283.897355 
L 146.478036 282.583633 
L 147.683137 283.890563 
L 148.888238 281.208473 
L 150.093339 281.626904 
L 151.298441 281.108529 
L 152.503542 281.2681 
L 153.708643 281.756306 
L 154.913744 278.665564 
L 156.118845 279.146616 
L 157.323946 280.770033 
L 158.529047 280.595732 
L 159.734148 277.855013 
L 160.939249 277.147909 
L 162.144351 277.234086 
L 163.349452 278.161166 
L 164.554553 277.501827 
L 165.759654 276.235551 
L 166.964755 277.535993 
L 168.169856 277.916808 
L 169.374957 278.846584 
L 170.580058 278.369845 
L 171.785159 278.13419 
L 172.990261 277.241964 
L 174.195362 275.01033 
L 175.400463 276.030999 
L 176.605564 275.79837 
L 177.810665 277.685599 
L 179.015766 276.955067 
L 180.220867 278.093333 
L 181.425968 278.709975 
L 182.631069 279.603647 
L 183.836171 278.644412 
L 185.041272 279.40993 
L 186.246373 278.264796 
L 187.451474 276.679755 
L 188.656575 278.246124 
L 189.861676 278.076168 
L 191.066777 278.775908 
L 192.271878 279.34062 
L 193.476979 279.684343 
L 194.682081 280.525064 
L 195.887182 280.909574 
L 197.092283 282.129136 
L 198.297384 282.529315 
L 199.502485 283.107029 
L 200.707586 282.114739 
L 201.912687 281.306982 
L 203.117788 281.32728 
L 204.322889 280.908539 
L 205.527991 281.847405 
L 206.733092 280.488695 
L 207.938193 279.5366 
L 209.143294 279.562659 
L 210.348395 280.107656 
L 211.553496 279.382922 
L 212.758597 280.817613 
L 213.963698 280.735147 
L 215.168799 281.109913 
L 216.373901 280.877464 
L 218.784103 281.522934 
L 219.989204 280.007582 
L 221.194305 280.606879 
L 222.399406 280.224158 
L 223.604507 279.656116 
L 224.809608 279.483343 
L 226.014709 279.470133 
L 227.219811 279.829551 
L 228.424912 280.712603 
L 229.630013 280.56471 
L 230.835114 281.225438 
L 232.040215 282.233515 
L 233.245316 282.492964 
L 234.450417 281.789474 
L 235.655518 281.968931 
L 236.860619 281.602934 
L 238.065721 282.257427 
L 239.270822 282.39126 
L 240.475923 283.727275 
L 241.681024 284.547445 
L 242.886125 284.978358 
L 244.091226 282.492895 
L 245.296327 281.891464 
L 246.501428 281.587502 
L 247.706529 281.510779 
L 248.911631 280.942637 
L 250.116732 280.604187 
L 251.321833 280.921412 
L 252.526934 281.987253 
L 253.732035 282.818633 
L 254.937136 282.499843 
L 256.142237 281.886749 
L 257.347338 281.769489 
L 258.552439 281.23142 
L 259.757541 281.332889 
L 260.962642 281.604552 
L 262.167743 282.352 
L 263.372844 282.74371 
L 264.577945 282.801049 
L 265.783046 282.741303 
L 266.988147 283.115582 
L 268.193248 282.375759 
L 269.398349 281.989492 
L 270.603451 282.575455 
L 271.808552 282.068421 
L 273.013653 282.232596 
L 274.218754 283.049765 
L 275.423855 282.892998 
L 276.628956 282.960311 
L 277.834057 282.80876 
L 279.039158 282.90237 
L 280.244259 282.795937 
L 281.449361 283.258874 
L 282.654462 282.600873 
L 283.859563 283.596251 
L 285.064664 283.272353 
L 286.269765 282.572454 
L 287.474866 283.121854 
L 288.679967 283.180374 
L 291.090169 283.517063 
L 292.295271 283.219068 
L 293.500372 282.036423 
L 294.705473 282.77592 
L 295.910574 283.197959 
L 298.320776 283.769335 
L 299.525877 282.545404 
L 300.730978 282.766306 
L 301.936079 282.438488 
L 303.141181 282.281878 
L 305.551383 282.760446 
L 306.756484 282.509564 
L 307.961585 282.599027 
L 309.166686 282.575003 
L 311.576888 283.609905 
L 312.781989 283.320995 
L 313.987091 283.735356 
L 315.192192 283.221649 
L 316.397293 282.966386 
L 317.602394 282.55109 
L 318.807495 282.76061 
L 320.012596 283.356621 
L 321.217697 283.028891 
L 322.422798 281.713348 
L 323.627899 281.664143 
L 324.833001 281.92613 
L 326.038102 281.786546 
L 327.243203 281.844903 
L 328.448304 281.623457 
L 329.653405 281.846988 
L 330.858506 281.951742 
L 333.268708 283.004068 
L 334.473809 283.069206 
L 336.884012 283.535195 
L 338.089113 283.549851 
L 339.294214 283.067364 
L 341.704416 283.368243 
L 342.909517 283.934331 
L 344.114618 282.621982 
L 345.319719 282.677996 
L 346.524821 283.156533 
L 348.935023 281.520714 
L 350.140124 281.787496 
L 351.345225 281.624601 
L 352.550326 281.834014 
L 353.755427 281.758341 
L 354.960528 281.83664 
L 356.165629 281.478456 
L 357.370731 281.955002 
L 358.575832 281.957983 
L 359.780933 281.14862 
L 360.986034 281.396305 
L 362.191135 281.301176 
L 363.396236 281.614414 
L 364.601337 281.289368 
L 365.806438 280.614658 
L 367.011539 279.789327 
L 368.216641 279.625785 
L 369.421742 279.063129 
L 370.626843 278.82016 
L 373.037045 278.674224 
L 374.242146 277.960491 
L 376.652348 278.544996 
L 377.857449 278.780065 
L 381.472753 279.016657 
L 382.677854 279.608148 
L 385.088056 279.492666 
L 386.293157 279.233225 
L 387.498258 278.842287 
L 388.703359 278.247099 
L 389.908461 278.848847 
L 391.113562 279.115919 
L 392.318663 278.742027 
L 393.523764 278.921201 
L 394.728865 278.506322 
L 395.933966 278.331607 
L 397.139067 277.263736 
L 399.549269 278.077733 
L 400.754371 278.080045 
L 401.959472 278.375634 
L 403.164573 278.983848 
L 405.574775 278.608186 
L 406.779876 278.390281 
L 407.984977 278.617239 
L 409.190078 277.94898 
L 410.395179 278.195384 
L 411.600281 277.7762 
L 412.805382 277.784153 
L 415.215584 277.270453 
L 416.420685 276.533554 
L 417.625786 277.018189 
L 418.830887 277.130787 
L 420.035988 276.805212 
L 421.241089 275.951273 
L 422.446191 275.546598 
L 423.651292 275.469388 
L 424.856393 275.529185 
L 426.061494 275.905626 
L 427.266595 276.144928 
L 428.471696 276.203287 
L 429.676797 275.817712 
L 430.881898 276.264733 
L 432.086999 275.983744 
L 433.292101 275.560554 
L 434.497202 275.617191 
L 435.702303 275.228752 
L 436.907404 275.283812 
L 438.112505 274.986509 
L 439.317606 275.096675 
L 440.522707 275.474149 
L 441.727808 275.278184 
L 442.932909 275.449412 
L 444.138011 275.147616 
L 445.343112 275.129582 
L 446.548213 274.632963 
L 447.753314 274.394816 
L 448.958415 274.873519 
L 450.163516 275.045169 
L 451.368617 274.582615 
L 452.573718 274.792624 
L 453.778819 274.528605 
L 456.189022 274.943732 
L 457.394123 274.362078 
L 458.599224 274.786121 
L 461.009426 274.38955 
L 464.624729 274.755311 
L 469.445134 275.79955 
L 470.650235 275.852872 
L 473.060437 276.22174 
L 474.265538 276.161613 
L 475.470639 276.379067 
L 477.880842 277.054031 
L 479.085943 277.200943 
L 480.291044 277.085064 
L 481.496145 277.48882 
L 483.906347 277.437993 
L 485.111448 277.797841 
L 486.316549 277.920945 
L 487.521651 277.820423 
L 488.726752 277.997882 
L 489.931853 277.882264 
L 497.162459 278.739157 
L 500.777763 278.552579 
L 501.982864 278.782076 
L 503.187965 278.668786 
L 504.393066 278.811096 
L 505.598167 278.536621 
L 506.803268 278.68828 
L 509.213471 278.221841 
L 510.418572 278.250735 
L 511.623673 278.42262 
L 512.828774 278.395329 
L 514.033875 278.233543 
L 516.444077 278.855641 
L 517.649178 278.963992 
L 518.854279 278.483242 
L 521.264482 278.56501 
L 522.469583 277.889251 
L 523.674684 277.820612 
L 526.084886 278.032501 
L 527.289987 277.959421 
L 528.495088 278.13188 
L 530.905291 277.819807 
L 532.110392 277.473985 
L 533.315493 277.261207 
L 535.725695 277.344617 
L 536.930796 276.769448 
L 538.135897 276.667223 
L 539.340998 276.87072 
L 540.546099 276.559932 
L 541.751201 276.730873 
L 542.956302 276.598881 
L 545.366504 276.526999 
L 546.571605 276.406181 
L 547.776706 276.667805 
L 548.981807 276.642086 
L 550.186908 276.85449 
L 551.392009 276.48591 
L 552.597111 276.568161 
L 555.007313 276.097889 
L 556.212414 276.04857 
L 557.417515 276.384176 
L 561.032818 276.243701 
L 562.237919 275.780595 
L 563.443021 275.470414 
L 564.648122 275.281994 
L 567.058324 275.806226 
L 568.263425 275.707145 
L 569.468526 275.885104 
L 570.673627 275.779151 
L 571.878728 275.439765 
L 573.083829 275.80202 
L 575.494032 274.388882 
L 576.699133 274.57919 
L 577.904234 274.255986 
L 582.724638 274.859109 
L 583.929739 275.162055 
L 585.134841 275.220394 
L 586.339942 275.134263 
L 587.545043 274.638083 
L 588.750144 274.616609 
L 589.955245 274.911061 
L 591.160346 274.673964 
L 592.365447 274.715818 
L 593.570548 274.955702 
L 594.775649 274.79993 
L 598.390953 275.332329 
L 599.596054 275.300966 
L 602.006256 275.854384 
L 603.211357 275.772522 
L 606.826661 276.028186 
L 608.031762 276.274217 
L 610.441964 275.963739 
L 611.647065 275.404507 
L 614.057267 275.453315 
L 617.672571 275.968285 
L 620.082773 275.937121 
L 621.287874 275.578063 
L 622.492975 275.364518 
L 623.698076 275.367409 
L 624.903177 274.970819 
L 627.313379 275.413555 
L 629.723582 275.124615 
L 630.928683 275.275822 
L 632.133784 274.934328 
L 634.543986 275.101792 
L 635.749087 274.767946 
L 636.954188 274.287279 
L 638.159289 273.560454 
L 640.569492 273.293558 
L 641.774593 273.674189 
L 642.979694 273.521203 
L 644.184795 273.613817 
L 645.389896 273.562585 
L 649.005199 273.94195 
L 650.210301 273.712795 
L 652.620503 273.7083 
L 653.825604 273.855013 
L 655.030705 273.815742 
L 657.440907 274.461464 
L 658.646008 274.317012 
L 659.851109 274.01998 
L 661.056211 274.246554 
L 662.261312 274.262398 
L 663.466413 274.023535 
L 664.671514 274.188268 
L 667.081716 274.040255 
L 668.286817 274.239246 
L 669.491918 273.923948 
L 671.902121 274.0809 
L 673.107222 274.200506 
L 674.312323 273.817509 
L 676.722525 274.293836 
L 679.132727 274.26532 
L 679.132727 274.26532 
" style="fill:none;stroke:#ff0000;stroke-linecap:square;stroke-width:1.5;"/>
   </g>
   <g id="line2d_20">
    <path clip-path="url(#pa903774fba)" d="M 77.787273 228.913187 
L 78.992374 308.034051 
L 80.197475 305.341795 
L 81.402576 313.98735 
L 82.607677 309.427712 
L 83.812778 310.462955 
L 85.017879 302.78304 
L 86.222981 312.158516 
L 87.428082 309.555574 
L 88.633183 308.28716 
L 89.838284 308.17227 
L 91.043385 316.423007 
L 92.248486 311.222319 
L 93.453587 312.553358 
L 94.658688 307.048177 
L 95.863789 303.181924 
L 97.068891 302.125354 
L 98.273992 286.781602 
L 99.479093 286.280935 
L 100.684194 289.878722 
L 101.889295 288.150209 
L 103.094396 286.839292 
L 104.299497 286.783183 
L 105.504598 285.191419 
L 106.709699 286.562748 
L 107.914801 285.556284 
L 109.119902 283.272868 
L 110.325003 287.893233 
L 111.530104 288.351721 
L 112.735205 283.912526 
L 113.940306 284.181339 
L 115.145407 275.519882 
L 116.350508 278.238456 
L 117.555609 277.160878 
L 118.760711 279.5007 
L 119.965812 276.378424 
L 121.170913 273.91849 
L 122.376014 274.409017 
L 123.581115 272.73564 
L 124.786216 272.865858 
L 125.991317 274.803539 
L 127.196418 275.881438 
L 128.401519 279.402211 
L 129.606621 279.552135 
L 130.811722 278.237147 
L 132.016823 278.635821 
L 133.221924 274.874733 
L 134.427025 275.329615 
L 135.632126 276.425335 
L 136.837227 276.570896 
L 138.042328 272.125104 
L 139.247429 273.417734 
L 140.452531 276.717797 
L 141.657632 276.812671 
L 142.862733 278.781529 
L 144.067834 278.052432 
L 145.272935 278.546725 
L 146.478036 277.143207 
L 147.683137 278.676292 
L 148.888238 275.378385 
L 150.093339 275.658902 
L 151.298441 275.039158 
L 152.503542 275.407448 
L 153.708643 276.125023 
L 154.913744 273.415889 
L 156.118845 273.956848 
L 157.323946 275.499236 
L 158.529047 275.482152 
L 159.734148 272.74236 
L 160.939249 271.931724 
L 162.144351 271.940009 
L 163.349452 273.113819 
L 164.554553 272.778628 
L 165.759654 271.474366 
L 166.964755 272.576447 
L 168.169856 272.900717 
L 169.374957 273.878815 
L 171.785159 273.361079 
L 172.990261 272.719418 
L 174.195362 270.714187 
L 175.400463 271.788319 
L 176.605564 271.650522 
L 177.810665 273.348795 
L 179.015766 273.012089 
L 180.220867 274.064389 
L 182.631069 275.468015 
L 183.836171 274.848498 
L 185.041272 276.033648 
L 187.451474 273.310537 
L 188.656575 274.727836 
L 189.861676 274.614854 
L 191.066777 275.586626 
L 193.476979 276.293441 
L 194.682081 277.109679 
L 195.887182 277.374114 
L 197.092283 278.582023 
L 198.297384 279.050944 
L 199.502485 279.775099 
L 200.707586 278.761027 
L 201.912687 277.98416 
L 203.117788 278.270839 
L 204.322889 277.803491 
L 205.527991 278.582273 
L 206.733092 277.239392 
L 207.938193 276.095107 
L 209.143294 276.129847 
L 210.348395 276.47319 
L 211.553496 275.903562 
L 212.758597 277.295855 
L 213.963698 276.93512 
L 215.168799 277.26346 
L 216.373901 276.707872 
L 217.579002 276.858384 
L 218.784103 277.192231 
L 219.989204 275.732513 
L 221.194305 276.249287 
L 222.399406 276.086656 
L 224.809608 275.374866 
L 226.014709 275.386228 
L 227.219811 275.758554 
L 228.424912 276.622287 
L 229.630013 276.483177 
L 230.835114 277.289984 
L 232.040215 278.338526 
L 233.245316 278.549326 
L 234.450417 277.808217 
L 235.655518 277.920355 
L 236.860619 277.597079 
L 238.065721 278.285744 
L 239.270822 278.239166 
L 240.475923 279.527772 
L 241.681024 280.314741 
L 242.886125 280.648966 
L 244.091226 278.204085 
L 245.296327 277.501723 
L 246.501428 277.142103 
L 247.706529 276.932148 
L 248.911631 276.217637 
L 250.116732 275.87138 
L 251.321833 276.119914 
L 252.526934 277.176872 
L 253.732035 278.018635 
L 254.937136 277.85638 
L 256.142237 277.326754 
L 257.347338 277.271794 
L 258.552439 276.634367 
L 260.962642 277.052007 
L 262.167743 277.835851 
L 263.372844 278.280539 
L 265.783046 278.002333 
L 266.988147 278.375966 
L 269.398349 277.363913 
L 270.603451 277.942992 
L 271.808552 277.174914 
L 273.013653 277.396069 
L 274.218754 278.129533 
L 275.423855 277.963623 
L 276.628956 278.038718 
L 277.834057 277.899473 
L 281.449361 278.402894 
L 282.654462 277.757538 
L 283.859563 278.780369 
L 285.064664 278.464052 
L 286.269765 277.915575 
L 287.474866 278.562627 
L 288.679967 278.622782 
L 289.885068 279.042611 
L 291.090169 279.217373 
L 292.295271 279.055305 
L 293.500372 278.117041 
L 294.705473 278.730878 
L 295.910574 279.198579 
L 297.115675 279.402268 
L 298.320776 279.739651 
L 299.525877 278.475184 
L 300.730978 278.754987 
L 301.936079 278.478464 
L 303.141181 278.37502 
L 305.551383 278.940272 
L 306.756484 278.693014 
L 309.166686 278.711678 
L 311.576888 279.798603 
L 312.781989 279.435626 
L 313.987091 279.905985 
L 315.192192 279.488526 
L 316.397293 279.382616 
L 317.602394 279.06834 
L 318.807495 279.312348 
L 320.012596 279.830516 
L 321.217697 279.49671 
L 322.422798 278.236125 
L 323.627899 278.189267 
L 324.833001 278.467896 
L 327.243203 278.511277 
L 328.448304 278.190393 
L 329.653405 278.489492 
L 330.858506 278.554416 
L 333.268708 279.571844 
L 334.473809 279.635648 
L 336.884012 280.063534 
L 338.089113 280.13892 
L 339.294214 279.678204 
L 341.704416 279.917758 
L 342.909517 280.555523 
L 344.114618 279.336072 
L 345.319719 279.393905 
L 346.524821 279.851584 
L 347.729922 279.188472 
L 348.935023 278.126782 
L 350.140124 278.409327 
L 351.345225 278.140104 
L 352.550326 278.453394 
L 353.755427 278.336271 
L 354.960528 278.483361 
L 356.165629 278.214501 
L 357.370731 278.689888 
L 358.575832 278.663967 
L 359.780933 277.932667 
L 360.986034 278.157635 
L 362.191135 278.054903 
L 363.396236 278.332105 
L 364.601337 277.973057 
L 367.011539 276.575245 
L 368.216641 276.376249 
L 369.421742 275.823753 
L 370.626843 275.56571 
L 373.037045 275.550236 
L 374.242146 274.974844 
L 375.447247 275.328184 
L 377.857449 275.713761 
L 379.062551 275.698764 
L 380.267652 275.801348 
L 381.472753 275.732674 
L 382.677854 276.356915 
L 383.882955 276.489909 
L 386.293157 276.222447 
L 388.703359 275.165721 
L 389.908461 275.731208 
L 391.113562 276.01661 
L 392.318663 275.728361 
L 393.523764 275.957071 
L 394.728865 275.596224 
L 395.933966 275.534817 
L 397.139067 274.527121 
L 399.549269 275.250604 
L 400.754371 275.253339 
L 401.959472 275.534631 
L 403.164573 276.118871 
L 404.369674 275.830501 
L 405.574775 275.77474 
L 406.779876 275.592937 
L 407.984977 275.855051 
L 409.190078 275.282129 
L 410.395179 275.554014 
L 411.600281 275.124297 
L 412.805382 275.205583 
L 414.010483 274.803811 
L 415.215584 274.687583 
L 416.420685 274.045114 
L 417.625786 274.542271 
L 418.830887 274.6285 
L 420.035988 274.323551 
L 421.241089 273.59704 
L 422.446191 273.143785 
L 424.856393 273.154787 
L 426.061494 273.527094 
L 427.266595 273.717955 
L 428.471696 273.74325 
L 429.676797 273.405194 
L 430.881898 273.901138 
L 433.292101 273.376216 
L 434.497202 273.466746 
L 435.702303 273.132908 
L 436.907404 273.156946 
L 438.112505 272.86472 
L 439.317606 272.950748 
L 440.522707 273.292163 
L 441.727808 273.043052 
L 442.932909 273.191523 
L 444.138011 272.868395 
L 445.343112 272.736151 
L 446.548213 272.228582 
L 447.753314 272.032851 
L 448.958415 272.538663 
L 450.163516 272.667549 
L 451.368617 272.253764 
L 452.573718 272.504463 
L 453.778819 272.26022 
L 456.189022 272.625677 
L 457.394123 272.085553 
L 458.599224 272.466181 
L 459.804325 272.412646 
L 461.009426 272.24521 
L 464.624729 272.537671 
L 468.240033 273.243989 
L 469.445134 273.560274 
L 473.060437 274.026249 
L 474.265538 273.94622 
L 479.085943 274.989736 
L 480.291044 274.907686 
L 481.496145 275.275915 
L 483.906347 275.262845 
L 485.111448 275.59329 
L 486.316549 275.718572 
L 487.521651 275.662721 
L 488.726752 275.815008 
L 489.931853 275.627072 
L 492.342055 275.815141 
L 493.547156 276.095972 
L 497.162459 276.474018 
L 499.572662 276.238093 
L 500.777763 276.303235 
L 501.982864 276.525853 
L 503.187965 276.38298 
L 504.393066 276.545191 
L 505.598167 276.262422 
L 506.803268 276.510137 
L 509.213471 276.125712 
L 510.418572 276.174003 
L 511.623673 276.347478 
L 514.033875 276.132299 
L 516.444077 276.743204 
L 517.649178 276.769688 
L 518.854279 276.373328 
L 520.059381 276.441497 
L 521.264482 276.379132 
L 522.469583 275.76566 
L 523.674684 275.701413 
L 526.084886 275.966219 
L 527.289987 275.90013 
L 528.495088 276.077948 
L 530.905291 275.809341 
L 532.110392 275.42315 
L 533.315493 275.199428 
L 535.725695 275.313166 
L 536.930796 274.729685 
L 538.135897 274.565371 
L 539.340998 274.770188 
L 540.546099 274.518531 
L 541.751201 274.624418 
L 542.956302 274.474006 
L 545.366504 274.331834 
L 546.571605 274.214838 
L 547.776706 274.445368 
L 548.981807 274.375061 
L 550.186908 274.547968 
L 551.392009 274.182654 
L 552.597111 274.306755 
L 555.007313 273.975582 
L 556.212414 273.905722 
L 557.417515 274.209096 
L 559.827717 274.0041 
L 561.032818 274.164167 
L 562.237919 273.787987 
L 564.648122 273.378814 
L 567.058324 273.881586 
L 568.263425 273.78834 
L 569.468526 273.944472 
L 570.673627 273.830202 
L 571.878728 273.509534 
L 573.083829 273.877674 
L 575.494032 272.570732 
L 576.699133 272.69065 
L 577.904234 272.397022 
L 581.519537 272.698727 
L 583.929739 273.267861 
L 585.134841 273.306191 
L 586.339942 273.210735 
L 587.545043 272.649467 
L 588.750144 272.673045 
L 589.955245 272.956669 
L 591.160346 272.740098 
L 592.365447 272.803217 
L 593.570548 273.041495 
L 594.775649 272.917006 
L 598.390953 273.448 
L 599.596054 273.462309 
L 602.006256 274.017516 
L 603.211357 273.948814 
L 605.621559 274.138759 
L 606.826661 274.159606 
L 608.031762 274.387672 
L 609.236863 274.308896 
L 610.441964 274.084407 
L 611.647065 273.483084 
L 614.057267 273.50145 
L 615.262368 273.715801 
L 616.467469 273.803367 
L 617.672571 274.128566 
L 620.082773 274.112491 
L 621.287874 273.711201 
L 622.492975 273.531919 
L 623.698076 273.511673 
L 624.903177 273.153059 
L 627.313379 273.585137 
L 629.723582 273.27187 
L 630.928683 273.418838 
L 632.133784 273.128885 
L 634.543986 273.274917 
L 635.749087 272.993235 
L 636.954188 272.505034 
L 638.159289 271.688388 
L 640.569492 271.555263 
L 641.774593 271.945433 
L 642.979694 271.790453 
L 644.184795 271.852461 
L 645.389896 271.794491 
L 649.005199 272.101788 
L 650.210301 271.944759 
L 655.030705 272.094954 
L 657.440907 272.745652 
L 658.646008 272.617059 
L 659.851109 272.335193 
L 661.056211 272.56292 
L 662.261312 272.640468 
L 663.466413 272.399303 
L 664.671514 272.513627 
L 665.876615 272.371523 
L 667.081716 272.349054 
L 668.286817 272.536667 
L 669.491918 272.25029 
L 673.107222 272.476764 
L 674.312323 272.048581 
L 676.722525 272.475841 
L 679.132727 272.485389 
L 679.132727 272.485389 
" style="fill:none;stroke:#008000;stroke-linecap:square;stroke-width:1.5;"/>
   </g>
   <g id="patch_3">
    <path d="M 47.72 390.04 
L 47.72 28.464 
" style="fill:none;stroke:#000000;stroke-linecap:square;stroke-linejoin:miter;stroke-width:0.8;"/>
   </g>
   <g id="patch_4">
    <path d="M 709.2 390.04 
L 709.2 28.464 
" style="fill:none;stroke:#000000;stroke-linecap:square;stroke-linejoin:miter;stroke-width:0.8;"/>
   </g>
   <g id="patch_5">
    <path d="M 47.72 390.04 
L 709.2 390.04 
" style="fill:none;stroke:#000000;stroke-linecap:square;stroke-linejoin:miter;stroke-width:0.8;"/>
   </g>
   <g id="patch_6">
    <path d="M 47.72 28.464 
L 709.2 28.464 
" style="fill:none;stroke:#000000;stroke-linecap:square;stroke-linejoin:miter;stroke-width:0.8;"/>
   </g>
   <g id="text_18">
    <!-- Average ANEES with parameters $\sigma_{process}=$0.05,  $\sigma_{AIS}=$10, $\sigma_{Radar}=$1 -->
    <g transform="translate(174.46 22.464)scale(0.12 -0.12)">
     <defs>
      <path d="M 2.984375 54.6875 
L 12.5 54.6875 
L 29.59375 8.796875 
L 46.6875 54.6875 
L 56.203125 54.6875 
L 35.6875 0 
L 23.484375 0 
z
" id="DejaVuSans-118"/>
      <path d="M 45.40625 27.984375 
Q 45.40625 37.75 41.375 43.109375 
Q 37.359375 48.484375 30.078125 48.484375 
Q 22.859375 48.484375 18.828125 43.109375 
Q 14.796875 37.75 14.796875 27.984375 
Q 14.796875 18.265625 18.828125 12.890625 
Q 22.859375 7.515625 30.078125 7.515625 
Q 37.359375 7.515625 41.375 12.890625 
Q 45.40625 18.265625 45.40625 27.984375 
z
M 54.390625 6.78125 
Q 54.390625 -7.171875 48.1875 -13.984375 
Q 42 -20.796875 29.203125 -20.796875 
Q 24.46875 -20.796875 20.265625 -20.09375 
Q 16.0625 -19.390625 12.109375 -17.921875 
L 12.109375 -9.1875 
Q 16.0625 -11.328125 19.921875 -12.34375 
Q 23.78125 -13.375 27.78125 -13.375 
Q 36.625 -13.375 41.015625 -8.765625 
Q 45.40625 -4.15625 45.40625 5.171875 
L 45.40625 9.625 
Q 42.625 4.78125 38.28125 2.390625 
Q 33.9375 0 27.875 0 
Q 17.828125 0 11.671875 7.65625 
Q 5.515625 15.328125 5.515625 27.984375 
Q 5.515625 40.671875 11.671875 48.328125 
Q 17.828125 56 27.875 56 
Q 33.9375 56 38.28125 53.609375 
Q 42.625 51.21875 45.40625 46.390625 
L 45.40625 54.6875 
L 54.390625 54.6875 
z
" id="DejaVuSans-103"/>
      <path d="M 4.203125 54.6875 
L 13.1875 54.6875 
L 24.421875 12.015625 
L 35.59375 54.6875 
L 46.1875 54.6875 
L 57.421875 12.015625 
L 68.609375 54.6875 
L 77.59375 54.6875 
L 63.28125 0 
L 52.6875 0 
L 40.921875 44.828125 
L 29.109375 0 
L 18.5 0 
z
" id="DejaVuSans-119"/>
      <path d="M 54.890625 33.015625 
L 54.890625 0 
L 45.90625 0 
L 45.90625 32.71875 
Q 45.90625 40.484375 42.875 44.328125 
Q 39.84375 48.1875 33.796875 48.1875 
Q 26.515625 48.1875 22.3125 43.546875 
Q 18.109375 38.921875 18.109375 30.90625 
L 18.109375 0 
L 9.078125 0 
L 9.078125 75.984375 
L 18.109375 75.984375 
L 18.109375 46.1875 
Q 21.34375 51.125 25.703125 53.5625 
Q 30.078125 56 35.796875 56 
Q 45.21875 56 50.046875 50.171875 
Q 54.890625 44.34375 54.890625 33.015625 
z
" id="DejaVuSans-104"/>
      <path d="M 18.109375 8.203125 
L 18.109375 -20.796875 
L 9.078125 -20.796875 
L 9.078125 54.6875 
L 18.109375 54.6875 
L 18.109375 46.390625 
Q 20.953125 51.265625 25.265625 53.625 
Q 29.59375 56 35.59375 56 
Q 45.5625 56 51.78125 48.09375 
Q 58.015625 40.1875 58.015625 27.296875 
Q 58.015625 14.40625 51.78125 6.484375 
Q 45.5625 -1.421875 35.59375 -1.421875 
Q 29.59375 -1.421875 25.265625 0.953125 
Q 20.953125 3.328125 18.109375 8.203125 
z
M 48.6875 27.296875 
Q 48.6875 37.203125 44.609375 42.84375 
Q 40.53125 48.484375 33.40625 48.484375 
Q 26.265625 48.484375 22.1875 42.84375 
Q 18.109375 37.203125 18.109375 27.296875 
Q 18.109375 17.390625 22.1875 11.75 
Q 26.265625 6.109375 33.40625 6.109375 
Q 40.53125 6.109375 44.609375 11.75 
Q 48.6875 17.390625 48.6875 27.296875 
z
" id="DejaVuSans-112"/>
      <path d="M 52 44.1875 
Q 55.375 50.25 60.0625 53.125 
Q 64.75 56 71.09375 56 
Q 79.640625 56 84.28125 50.015625 
Q 88.921875 44.046875 88.921875 33.015625 
L 88.921875 0 
L 79.890625 0 
L 79.890625 32.71875 
Q 79.890625 40.578125 77.09375 44.375 
Q 74.3125 48.1875 68.609375 48.1875 
Q 61.625 48.1875 57.5625 43.546875 
Q 53.515625 38.921875 53.515625 30.90625 
L 53.515625 0 
L 44.484375 0 
L 44.484375 32.71875 
Q 44.484375 40.625 41.703125 44.40625 
Q 38.921875 48.1875 33.109375 48.1875 
Q 26.21875 48.1875 22.15625 43.53125 
Q 18.109375 38.875 18.109375 30.90625 
L 18.109375 0 
L 9.078125 0 
L 9.078125 54.6875 
L 18.109375 54.6875 
L 18.109375 46.1875 
Q 21.1875 51.21875 25.484375 53.609375 
Q 29.78125 56 35.6875 56 
Q 41.65625 56 45.828125 52.96875 
Q 50 49.953125 52 44.1875 
z
" id="DejaVuSans-109"/>
      <path d="M 34.671875 47.5625 
Q 27.25 47.5625 22.21875 42.1875 
Q 16.890625 36.578125 15.140625 27.296875 
Q 13.1875 17.484375 16.3125 11.8125 
Q 19.390625 6.203125 26.65625 6.203125 
Q 33.84375 6.203125 39.109375 11.859375 
Q 44.4375 17.53125 46.34375 27.296875 
Q 48.046875 36.234375 45.015625 42.1875 
Q 42.1875 47.5625 34.671875 47.5625 
z
M 36.078125 54.734375 
L 65.921875 54.6875 
L 64.15625 45.703125 
L 54.109375 45.703125 
Q 57.90625 38.09375 55.859375 27.296875 
Q 53.21875 13.875 45.0625 6.25 
Q 36.859375 -1.421875 25.140625 -1.421875 
Q 13.375 -1.421875 8.203125 6.25 
Q 3.03125 13.875 5.671875 27.296875 
Q 8.25 40.765625 16.40625 48.390625 
Q 23.1875 54.734375 36.078125 54.734375 
z
" id="DejaVuSans-Oblique-963"/>
      <path d="M 49.609375 33.6875 
Q 49.609375 40.875 46.484375 44.671875 
Q 43.359375 48.484375 37.5 48.484375 
Q 33.5 48.484375 29.859375 46.4375 
Q 26.21875 44.390625 23.390625 40.484375 
Q 20.609375 36.625 18.9375 31.15625 
Q 17.28125 25.6875 17.28125 20.3125 
Q 17.28125 13.484375 20.40625 9.796875 
Q 23.53125 6.109375 29.296875 6.109375 
Q 33.546875 6.109375 37.1875 8.109375 
Q 40.828125 10.109375 43.40625 13.921875 
Q 46.1875 17.921875 47.890625 23.34375 
Q 49.609375 28.765625 49.609375 33.6875 
z
M 21.78125 46.390625 
Q 25.390625 51.125 30.296875 53.5625 
Q 35.203125 56 41.21875 56 
Q 49.609375 56 54.25 50.5 
Q 58.890625 45.015625 58.890625 35.109375 
Q 58.890625 27 56 19.65625 
Q 53.125 12.3125 47.703125 6.5 
Q 44.09375 2.640625 39.546875 0.609375 
Q 35.015625 -1.421875 29.984375 -1.421875 
Q 24.171875 -1.421875 20.21875 1 
Q 16.265625 3.421875 14.3125 8.203125 
L 8.6875 -20.796875 
L -0.296875 -20.796875 
L 14.40625 54.6875 
L 23.390625 54.6875 
z
" id="DejaVuSans-Oblique-112"/>
      <path d="M 44.578125 46.390625 
Q 43.21875 47.125 41.453125 47.515625 
Q 39.703125 47.90625 37.703125 47.90625 
Q 30.515625 47.90625 25.140625 42.453125 
Q 19.78125 37.015625 18.015625 27.875 
L 12.5 0 
L 3.515625 0 
L 14.203125 54.6875 
L 23.1875 54.6875 
L 21.484375 46.1875 
Q 25.046875 50.921875 30 53.453125 
Q 34.96875 56 40.578125 56 
Q 42.046875 56 43.453125 55.828125 
Q 44.875 55.671875 46.296875 55.28125 
z
" id="DejaVuSans-Oblique-114"/>
      <path d="M 25.390625 -1.421875 
Q 15.765625 -1.421875 10.171875 4.515625 
Q 4.59375 10.453125 4.59375 20.703125 
Q 4.59375 26.65625 6.515625 32.828125 
Q 8.453125 39.015625 11.53125 43.21875 
Q 16.359375 49.75 22.3125 52.875 
Q 28.265625 56 35.796875 56 
Q 45.125 56 50.859375 50.1875 
Q 56.59375 44.390625 56.59375 35.015625 
Q 56.59375 28.515625 54.6875 22.0625 
Q 52.78125 15.625 49.703125 11.375 
Q 44.921875 4.828125 38.96875 1.703125 
Q 33.015625 -1.421875 25.390625 -1.421875 
z
M 13.921875 21 
Q 13.921875 13.578125 17.015625 9.890625 
Q 20.125 6.203125 26.421875 6.203125 
Q 35.453125 6.203125 41.375 14.078125 
Q 47.3125 21.96875 47.3125 34.078125 
Q 47.3125 41.15625 44.140625 44.765625 
Q 40.96875 48.390625 34.8125 48.390625 
Q 29.734375 48.390625 25.78125 46.015625 
Q 21.828125 43.65625 18.703125 38.8125 
Q 16.40625 35.203125 15.15625 30.5625 
Q 13.921875 25.921875 13.921875 21 
z
" id="DejaVuSans-Oblique-111"/>
      <path d="M 53.609375 52.59375 
L 51.8125 43.703125 
Q 48.578125 46.046875 44.9375 47.21875 
Q 41.3125 48.390625 37.40625 48.390625 
Q 33.109375 48.390625 29.21875 46.875 
Q 25.34375 45.359375 22.703125 42.578125 
Q 18.5 38.328125 16.203125 32.609375 
Q 13.921875 26.90625 13.921875 20.796875 
Q 13.921875 13.421875 17.609375 9.8125 
Q 21.296875 6.203125 28.8125 6.203125 
Q 32.515625 6.203125 36.6875 7.328125 
Q 40.875 8.453125 45.40625 10.6875 
L 43.703125 1.8125 
Q 39.796875 0.203125 35.671875 -0.609375 
Q 31.546875 -1.421875 27.203125 -1.421875 
Q 16.3125 -1.421875 10.453125 4.015625 
Q 4.59375 9.46875 4.59375 19.578125 
Q 4.59375 28.078125 7.640625 35.234375 
Q 10.6875 42.390625 16.703125 48.09375 
Q 20.796875 52 26.3125 54 
Q 31.84375 56 38.375 56 
Q 42.1875 56 45.9375 55.140625 
Q 49.703125 54.296875 53.609375 52.59375 
z
" id="DejaVuSans-Oblique-99"/>
      <path d="M 48.09375 32.234375 
Q 48.25 33.015625 48.3125 33.84375 
Q 48.390625 34.671875 48.390625 35.5 
Q 48.390625 41.453125 44.890625 44.921875 
Q 41.40625 48.390625 35.40625 48.390625 
Q 28.71875 48.390625 23.578125 44.15625 
Q 18.453125 39.9375 15.828125 32.171875 
z
M 55.90625 25.203125 
L 14.109375 25.203125 
Q 13.8125 23.34375 13.71875 22.265625 
Q 13.625 21.1875 13.625 20.40625 
Q 13.625 13.625 17.796875 9.90625 
Q 21.96875 6.203125 29.59375 6.203125 
Q 35.453125 6.203125 40.671875 7.515625 
Q 45.90625 8.84375 50.390625 11.375 
L 48.6875 2.484375 
Q 43.84375 0.53125 38.6875 -0.4375 
Q 33.546875 -1.421875 28.21875 -1.421875 
Q 16.84375 -1.421875 10.71875 4.015625 
Q 4.59375 9.46875 4.59375 19.484375 
Q 4.59375 28.03125 7.640625 35.375 
Q 10.6875 42.71875 16.609375 48.484375 
Q 20.40625 52.09375 25.65625 54.046875 
Q 30.90625 56 36.8125 56 
Q 46.09375 56 51.578125 50.4375 
Q 57.078125 44.875 57.078125 35.5 
Q 57.078125 33.25 56.78125 30.6875 
Q 56.5 28.125 55.90625 25.203125 
z
" id="DejaVuSans-Oblique-101"/>
      <path d="M 50 53.078125 
L 48.296875 44.578125 
Q 44.734375 46.53125 40.765625 47.5 
Q 36.8125 48.484375 32.625 48.484375 
Q 25.53125 48.484375 21.453125 46.0625 
Q 17.390625 43.65625 17.390625 39.5 
Q 17.390625 34.671875 26.859375 32.078125 
Q 27.59375 31.890625 27.9375 31.78125 
L 30.8125 30.90625 
Q 39.796875 28.421875 42.796875 25.6875 
Q 45.796875 22.953125 45.796875 18.21875 
Q 45.796875 9.515625 38.890625 4.046875 
Q 31.984375 -1.421875 20.796875 -1.421875 
Q 16.453125 -1.421875 11.671875 -0.578125 
Q 6.890625 0.25 1.125 2 
L 2.875 11.28125 
Q 7.8125 8.734375 12.59375 7.421875 
Q 17.390625 6.109375 21.78125 6.109375 
Q 28.375 6.109375 32.5 8.9375 
Q 36.625 11.765625 36.625 16.109375 
Q 36.625 20.796875 25.78125 23.6875 
L 24.859375 23.921875 
L 21.78125 24.703125 
Q 14.9375 26.515625 11.765625 29.46875 
Q 8.59375 32.421875 8.59375 37.015625 
Q 8.59375 45.75 15.15625 50.875 
Q 21.734375 56 33.015625 56 
Q 37.453125 56 41.671875 55.265625 
Q 45.90625 54.546875 50 53.078125 
z
" id="DejaVuSans-Oblique-115"/>
      <path d="M 10.59375 45.40625 
L 73.1875 45.40625 
L 73.1875 37.203125 
L 10.59375 37.203125 
z
M 10.59375 25.484375 
L 73.1875 25.484375 
L 73.1875 17.1875 
L 10.59375 17.1875 
z
" id="DejaVuSans-61"/>
      <path d="M 11.71875 12.40625 
L 22.015625 12.40625 
L 22.015625 4 
L 14.015625 -11.625 
L 7.71875 -11.625 
L 11.71875 4 
z
" id="DejaVuSans-44"/>
      <path d="M 36.8125 72.90625 
L 48 72.90625 
L 61.53125 0 
L 51.21875 0 
L 48.1875 18.703125 
L 15.375 18.703125 
L 5.078125 0 
L -5.328125 0 
z
M 40.375 63.1875 
L 19.921875 26.90625 
L 46.6875 26.90625 
z
" id="DejaVuSans-Oblique-65"/>
      <path d="M 16.890625 72.90625 
L 26.8125 72.90625 
L 12.59375 0 
L 2.6875 0 
z
" id="DejaVuSans-Oblique-73"/>
      <path d="M 60.296875 70.515625 
L 58.40625 60.890625 
Q 53.46875 63.53125 48.609375 64.875 
Q 43.75 66.21875 39.203125 66.21875 
Q 30.375 66.21875 25.140625 62.359375 
Q 19.921875 58.5 19.921875 52.09375 
Q 19.921875 48.578125 21.84375 46.703125 
Q 23.78125 44.828125 31.78125 42.671875 
L 37.703125 41.21875 
Q 47.703125 38.625 51.609375 34.640625 
Q 55.515625 30.671875 55.515625 23.484375 
Q 55.515625 12.453125 46.84375 5.515625 
Q 38.1875 -1.421875 24.03125 -1.421875 
Q 18.21875 -1.421875 12.359375 -0.265625 
Q 6.5 0.875 0.59375 3.21875 
L 2.59375 13.375 
Q 8.015625 10.015625 13.453125 8.296875 
Q 18.890625 6.59375 24.3125 6.59375 
Q 33.546875 6.59375 39.109375 10.6875 
Q 44.671875 14.796875 44.671875 21.390625 
Q 44.671875 25.78125 42.453125 28.046875 
Q 40.234375 30.328125 32.90625 32.171875 
L 27 33.6875 
Q 16.890625 36.328125 13.203125 39.765625 
Q 9.515625 43.21875 9.515625 49.421875 
Q 9.515625 60.296875 17.890625 67.25 
Q 26.265625 74.21875 39.703125 74.21875 
Q 44.921875 74.21875 50.046875 73.28125 
Q 55.171875 72.359375 60.296875 70.515625 
z
" id="DejaVuSans-Oblique-83"/>
      <path d="M 25.203125 64.796875 
L 20.21875 38.921875 
L 32.90625 38.921875 
Q 40.375 38.921875 44.984375 43.046875 
Q 49.609375 47.171875 49.609375 53.8125 
Q 49.609375 59.125 46.5 61.953125 
Q 43.40625 64.796875 37.59375 64.796875 
z
M 43.3125 35.015625 
Q 46.4375 34.28125 48.515625 31.390625 
Q 50.59375 28.515625 53.328125 19.921875 
L 59.515625 0 
L 49.125 0 
L 43.40625 18.703125 
Q 41.21875 25.921875 38.328125 28.359375 
Q 35.453125 30.8125 29.5 30.8125 
L 18.609375 30.8125 
L 12.59375 0 
L 2.6875 0 
L 16.890625 72.90625 
L 39.109375 72.90625 
Q 49.21875 72.90625 54.609375 68.328125 
Q 60.015625 63.765625 60.015625 55.171875 
Q 60.015625 47.5625 55.421875 41.984375 
Q 50.828125 36.421875 43.3125 35.015625 
z
" id="DejaVuSans-Oblique-82"/>
      <path d="M 53.71875 31.203125 
L 47.609375 0 
L 38.625 0 
L 40.28125 8.296875 
Q 36.328125 3.421875 31.265625 1 
Q 26.21875 -1.421875 20.015625 -1.421875 
Q 13.03125 -1.421875 8.5625 2.84375 
Q 4.109375 7.125 4.109375 13.8125 
Q 4.109375 23.390625 11.75 28.953125 
Q 19.390625 34.515625 32.8125 34.515625 
L 45.3125 34.515625 
L 45.796875 36.921875 
Q 45.90625 37.3125 45.953125 37.765625 
Q 46 38.234375 46 39.203125 
Q 46 43.5625 42.453125 45.96875 
Q 38.921875 48.390625 32.515625 48.390625 
Q 28.125 48.390625 23.5 47.265625 
Q 18.890625 46.140625 14.015625 43.890625 
L 15.578125 52.203125 
Q 20.65625 54.109375 25.515625 55.046875 
Q 30.375 56 34.90625 56 
Q 44.578125 56 49.625 51.796875 
Q 54.6875 47.609375 54.6875 39.59375 
Q 54.6875 37.984375 54.4375 35.8125 
Q 54.203125 33.640625 53.71875 31.203125 
z
M 44 27.484375 
L 35.015625 27.484375 
Q 23.96875 27.484375 18.671875 24.53125 
Q 13.375 21.578125 13.375 15.375 
Q 13.375 11.078125 16.078125 8.640625 
Q 18.796875 6.203125 23.578125 6.203125 
Q 30.90625 6.203125 36.375 11.453125 
Q 41.84375 16.703125 43.609375 25.484375 
z
" id="DejaVuSans-Oblique-97"/>
      <path d="M 41.796875 8.203125 
Q 38.1875 3.46875 33.25 1.015625 
Q 28.328125 -1.421875 22.3125 -1.421875 
Q 14.109375 -1.421875 9.34375 4.171875 
Q 4.59375 9.765625 4.59375 19.484375 
Q 4.59375 27.59375 7.46875 34.9375 
Q 10.359375 42.28125 15.828125 48.09375 
Q 19.4375 51.953125 23.96875 53.96875 
Q 28.515625 56 33.5 56 
Q 38.765625 56 42.796875 53.453125 
Q 46.828125 50.921875 49.03125 46.1875 
L 54.890625 75.984375 
L 63.921875 75.984375 
L 49.125 0 
L 40.09375 0 
z
M 13.921875 21.09375 
Q 13.921875 14.015625 17.109375 10.0625 
Q 20.3125 6.109375 25.984375 6.109375 
Q 30.171875 6.109375 33.765625 8.125 
Q 37.359375 10.15625 40.09375 14.109375 
Q 42.96875 18.21875 44.625 23.578125 
Q 46.296875 28.953125 46.296875 34.1875 
Q 46.296875 40.96875 43.09375 44.765625 
Q 39.890625 48.578125 34.28125 48.578125 
Q 30.03125 48.578125 26.359375 46.578125 
Q 22.703125 44.578125 20.125 40.828125 
Q 17.28125 36.765625 15.59375 31.390625 
Q 13.921875 26.03125 13.921875 21.09375 
z
" id="DejaVuSans-Oblique-100"/>
     </defs>
     <use transform="translate(0 0.015625)" xlink:href="#DejaVuSans-65"/>
     <use transform="translate(68.408203 0.015625)" xlink:href="#DejaVuSans-118"/>
     <use transform="translate(127.587891 0.015625)" xlink:href="#DejaVuSans-101"/>
     <use transform="translate(189.111328 0.015625)" xlink:href="#DejaVuSans-114"/>
     <use transform="translate(230.224609 0.015625)" xlink:href="#DejaVuSans-97"/>
     <use transform="translate(291.503906 0.015625)" xlink:href="#DejaVuSans-103"/>
     <use transform="translate(354.980469 0.015625)" xlink:href="#DejaVuSans-101"/>
     <use transform="translate(416.503906 0.015625)" xlink:href="#DejaVuSans-32"/>
     <use transform="translate(448.291016 0.015625)" xlink:href="#DejaVuSans-65"/>
     <use transform="translate(516.699219 0.015625)" xlink:href="#DejaVuSans-78"/>
     <use transform="translate(591.503906 0.015625)" xlink:href="#DejaVuSans-69"/>
     <use transform="translate(654.6875 0.015625)" xlink:href="#DejaVuSans-69"/>
     <use transform="translate(717.871094 0.015625)" xlink:href="#DejaVuSans-83"/>
     <use transform="translate(781.347656 0.015625)" xlink:href="#DejaVuSans-32"/>
     <use transform="translate(813.134766 0.015625)" xlink:href="#DejaVuSans-119"/>
     <use transform="translate(894.921875 0.015625)" xlink:href="#DejaVuSans-105"/>
     <use transform="translate(922.705078 0.015625)" xlink:href="#DejaVuSans-116"/>
     <use transform="translate(961.914062 0.015625)" xlink:href="#DejaVuSans-104"/>
     <use transform="translate(1025.292969 0.015625)" xlink:href="#DejaVuSans-32"/>
     <use transform="translate(1057.080078 0.015625)" xlink:href="#DejaVuSans-112"/>
     <use transform="translate(1120.556641 0.015625)" xlink:href="#DejaVuSans-97"/>
     <use transform="translate(1181.835938 0.015625)" xlink:href="#DejaVuSans-114"/>
     <use transform="translate(1222.949219 0.015625)" xlink:href="#DejaVuSans-97"/>
     <use transform="translate(1284.228516 0.015625)" xlink:href="#DejaVuSans-109"/>
     <use transform="translate(1381.640625 0.015625)" xlink:href="#DejaVuSans-101"/>
     <use transform="translate(1443.164062 0.015625)" xlink:href="#DejaVuSans-116"/>
     <use transform="translate(1482.373047 0.015625)" xlink:href="#DejaVuSans-101"/>
     <use transform="translate(1543.896484 0.015625)" xlink:href="#DejaVuSans-114"/>
     <use transform="translate(1585.009766 0.015625)" xlink:href="#DejaVuSans-115"/>
     <use transform="translate(1637.109375 0.015625)" xlink:href="#DejaVuSans-32"/>
     <use transform="translate(1668.896484 0.015625)" xlink:href="#DejaVuSans-Oblique-963"/>
     <use transform="translate(1732.275391 -16.390625)scale(0.7)" xlink:href="#DejaVuSans-Oblique-112"/>
     <use transform="translate(1776.708984 -16.390625)scale(0.7)" xlink:href="#DejaVuSans-Oblique-114"/>
     <use transform="translate(1805.488281 -16.390625)scale(0.7)" xlink:href="#DejaVuSans-Oblique-111"/>
     <use transform="translate(1848.31543 -16.390625)scale(0.7)" xlink:href="#DejaVuSans-Oblique-99"/>
     <use transform="translate(1886.801758 -16.390625)scale(0.7)" xlink:href="#DejaVuSans-Oblique-101"/>
     <use transform="translate(1929.868164 -16.390625)scale(0.7)" xlink:href="#DejaVuSans-Oblique-115"/>
     <use transform="translate(1966.337891 -16.390625)scale(0.7)" xlink:href="#DejaVuSans-Oblique-115"/>
     <use transform="translate(2025.024414 0.015625)" xlink:href="#DejaVuSans-61"/>
     <use transform="translate(2128.295898 0.015625)" xlink:href="#DejaVuSans-48"/>
     <use transform="translate(2191.918945 0.015625)" xlink:href="#DejaVuSans-46"/>
     <use transform="translate(2223.706055 0.015625)" xlink:href="#DejaVuSans-48"/>
     <use transform="translate(2287.329102 0.015625)" xlink:href="#DejaVuSans-53"/>
     <use transform="translate(2350.952148 0.015625)" xlink:href="#DejaVuSans-44"/>
     <use transform="translate(2382.739258 0.015625)" xlink:href="#DejaVuSans-32"/>
     <use transform="translate(2414.526367 0.015625)" xlink:href="#DejaVuSans-32"/>
     <use transform="translate(2446.313477 0.015625)" xlink:href="#DejaVuSans-Oblique-963"/>
     <use transform="translate(2509.692383 -16.390625)scale(0.7)" xlink:href="#DejaVuSans-Oblique-65"/>
     <use transform="translate(2557.578125 -16.390625)scale(0.7)" xlink:href="#DejaVuSans-Oblique-73"/>
     <use transform="translate(2578.222656 -16.390625)scale(0.7)" xlink:href="#DejaVuSans-Oblique-83"/>
     <use transform="translate(2644.873047 0.015625)" xlink:href="#DejaVuSans-61"/>
     <use transform="translate(2748.144531 0.015625)" xlink:href="#DejaVuSans-49"/>
     <use transform="translate(2811.767578 0.015625)" xlink:href="#DejaVuSans-48"/>
     <use transform="translate(2875.390625 0.015625)" xlink:href="#DejaVuSans-44"/>
     <use transform="translate(2907.177734 0.015625)" xlink:href="#DejaVuSans-32"/>
     <use transform="translate(2938.964844 0.015625)" xlink:href="#DejaVuSans-Oblique-963"/>
     <use transform="translate(3002.34375 -16.390625)scale(0.7)" xlink:href="#DejaVuSans-Oblique-82"/>
     <use transform="translate(3050.981445 -16.390625)scale(0.7)" xlink:href="#DejaVuSans-Oblique-97"/>
     <use transform="translate(3093.876953 -16.390625)scale(0.7)" xlink:href="#DejaVuSans-Oblique-100"/>
     <use transform="translate(3138.310547 -16.390625)scale(0.7)" xlink:href="#DejaVuSans-Oblique-97"/>
     <use transform="translate(3181.206055 -16.390625)scale(0.7)" xlink:href="#DejaVuSans-Oblique-114"/>
     <use transform="translate(3232.202148 0.015625)" xlink:href="#DejaVuSans-61"/>
     <use transform="translate(3335.473633 0.015625)" xlink:href="#DejaVuSans-49"/>
    </g>
   </g>
   <g id="legend_1">
    <g id="patch_7">
     <path d="M 566.607813 95.1765 
L 702.2 95.1765 
Q 704.2 95.1765 704.2 93.1765 
L 704.2 35.464 
Q 704.2 33.464 702.2 33.464 
L 566.607813 33.464 
Q 564.607813 33.464 564.607813 35.464 
L 564.607813 93.1765 
Q 564.607813 95.1765 566.607813 95.1765 
z
" style="fill:#ffffff;opacity:0.8;stroke:#cccccc;stroke-linejoin:miter;"/>
    </g>
    <g id="line2d_21">
     <path d="M 568.607813 41.562438 
L 588.607813 41.562438 
" style="fill:none;stroke:#000000;stroke-linecap:square;stroke-width:1.5;"/>
    </g>
    <g id="line2d_22"/>
    <g id="text_19">
     <!-- Confidence Intervals -->
     <g transform="translate(596.607813 45.062438)scale(0.1 -0.1)">
      <defs>
       <path d="M 37.109375 75.984375 
L 37.109375 68.5 
L 28.515625 68.5 
Q 23.6875 68.5 21.796875 66.546875 
Q 19.921875 64.59375 19.921875 59.515625 
L 19.921875 54.6875 
L 34.71875 54.6875 
L 34.71875 47.703125 
L 19.921875 47.703125 
L 19.921875 0 
L 10.890625 0 
L 10.890625 47.703125 
L 2.296875 47.703125 
L 2.296875 54.6875 
L 10.890625 54.6875 
L 10.890625 58.5 
Q 10.890625 67.625 15.140625 71.796875 
Q 19.390625 75.984375 28.609375 75.984375 
z
" id="DejaVuSans-102"/>
       <path d="M 45.40625 46.390625 
L 45.40625 75.984375 
L 54.390625 75.984375 
L 54.390625 0 
L 45.40625 0 
L 45.40625 8.203125 
Q 42.578125 3.328125 38.25 0.953125 
Q 33.9375 -1.421875 27.875 -1.421875 
Q 17.96875 -1.421875 11.734375 6.484375 
Q 5.515625 14.40625 5.515625 27.296875 
Q 5.515625 40.1875 11.734375 48.09375 
Q 17.96875 56 27.875 56 
Q 33.9375 56 38.25 53.625 
Q 42.578125 51.265625 45.40625 46.390625 
z
M 14.796875 27.296875 
Q 14.796875 17.390625 18.875 11.75 
Q 22.953125 6.109375 30.078125 6.109375 
Q 37.203125 6.109375 41.296875 11.75 
Q 45.40625 17.390625 45.40625 27.296875 
Q 45.40625 37.203125 41.296875 42.84375 
Q 37.203125 48.484375 30.078125 48.484375 
Q 22.953125 48.484375 18.875 42.84375 
Q 14.796875 37.203125 14.796875 27.296875 
z
" id="DejaVuSans-100"/>
       <path d="M 48.78125 52.59375 
L 48.78125 44.1875 
Q 44.96875 46.296875 41.140625 47.34375 
Q 37.3125 48.390625 33.40625 48.390625 
Q 24.65625 48.390625 19.8125 42.84375 
Q 14.984375 37.3125 14.984375 27.296875 
Q 14.984375 17.28125 19.8125 11.734375 
Q 24.65625 6.203125 33.40625 6.203125 
Q 37.3125 6.203125 41.140625 7.25 
Q 44.96875 8.296875 48.78125 10.40625 
L 48.78125 2.09375 
Q 45.015625 0.34375 40.984375 -0.53125 
Q 36.96875 -1.421875 32.421875 -1.421875 
Q 20.0625 -1.421875 12.78125 6.34375 
Q 5.515625 14.109375 5.515625 27.296875 
Q 5.515625 40.671875 12.859375 48.328125 
Q 20.21875 56 33.015625 56 
Q 37.15625 56 41.109375 55.140625 
Q 45.0625 54.296875 48.78125 52.59375 
z
" id="DejaVuSans-99"/>
       <path d="M 9.8125 72.90625 
L 19.671875 72.90625 
L 19.671875 0 
L 9.8125 0 
z
" id="DejaVuSans-73"/>
       <path d="M 9.421875 75.984375 
L 18.40625 75.984375 
L 18.40625 0 
L 9.421875 0 
z
" id="DejaVuSans-108"/>
      </defs>
      <use xlink:href="#DejaVuSans-67"/>
      <use x="69.824219" xlink:href="#DejaVuSans-111"/>
      <use x="131.005859" xlink:href="#DejaVuSans-110"/>
      <use x="194.384766" xlink:href="#DejaVuSans-102"/>
      <use x="229.589844" xlink:href="#DejaVuSans-105"/>
      <use x="257.373047" xlink:href="#DejaVuSans-100"/>
      <use x="320.849609" xlink:href="#DejaVuSans-101"/>
      <use x="382.373047" xlink:href="#DejaVuSans-110"/>
      <use x="445.751953" xlink:href="#DejaVuSans-99"/>
      <use x="500.732422" xlink:href="#DejaVuSans-101"/>
      <use x="562.255859" xlink:href="#DejaVuSans-32"/>
      <use x="594.042969" xlink:href="#DejaVuSans-73"/>
      <use x="623.535156" xlink:href="#DejaVuSans-110"/>
      <use x="686.914062" xlink:href="#DejaVuSans-116"/>
      <use x="726.123047" xlink:href="#DejaVuSans-101"/>
      <use x="787.646484" xlink:href="#DejaVuSans-114"/>
      <use x="828.759766" xlink:href="#DejaVuSans-118"/>
      <use x="887.939453" xlink:href="#DejaVuSans-97"/>
      <use x="949.21875" xlink:href="#DejaVuSans-108"/>
      <use x="977.001953" xlink:href="#DejaVuSans-115"/>
     </g>
    </g>
    <g id="line2d_23">
     <path d="M 568.607813 56.240563 
L 588.607813 56.240563 
" style="fill:none;stroke:#0000ff;stroke-linecap:square;stroke-width:1.5;"/>
    </g>
    <g id="line2d_24"/>
    <g id="text_20">
     <!-- Independent -->
     <g transform="translate(596.607813 59.740563)scale(0.1 -0.1)">
      <use xlink:href="#DejaVuSans-73"/>
      <use x="29.492188" xlink:href="#DejaVuSans-110"/>
      <use x="92.871094" xlink:href="#DejaVuSans-100"/>
      <use x="156.347656" xlink:href="#DejaVuSans-101"/>
      <use x="217.871094" xlink:href="#DejaVuSans-112"/>
      <use x="281.347656" xlink:href="#DejaVuSans-101"/>
      <use x="342.871094" xlink:href="#DejaVuSans-110"/>
      <use x="406.25" xlink:href="#DejaVuSans-100"/>
      <use x="469.726562" xlink:href="#DejaVuSans-101"/>
      <use x="531.25" xlink:href="#DejaVuSans-110"/>
      <use x="594.628906" xlink:href="#DejaVuSans-116"/>
     </g>
    </g>
    <g id="line2d_25">
     <path d="M 568.607813 70.918688 
L 588.607813 70.918688 
" style="fill:none;stroke:#ff0000;stroke-linecap:square;stroke-width:1.5;"/>
    </g>
    <g id="line2d_26"/>
    <g id="text_21">
     <!-- Dependent -->
     <g transform="translate(596.607813 74.418688)scale(0.1 -0.1)">
      <defs>
       <path d="M 19.671875 64.796875 
L 19.671875 8.109375 
L 31.59375 8.109375 
Q 46.6875 8.109375 53.6875 14.9375 
Q 60.6875 21.78125 60.6875 36.53125 
Q 60.6875 51.171875 53.6875 57.984375 
Q 46.6875 64.796875 31.59375 64.796875 
z
M 9.8125 72.90625 
L 30.078125 72.90625 
Q 51.265625 72.90625 61.171875 64.09375 
Q 71.09375 55.28125 71.09375 36.53125 
Q 71.09375 17.671875 61.125 8.828125 
Q 51.171875 0 30.078125 0 
L 9.8125 0 
z
" id="DejaVuSans-68"/>
      </defs>
      <use xlink:href="#DejaVuSans-68"/>
      <use x="77.001953" xlink:href="#DejaVuSans-101"/>
      <use x="138.525391" xlink:href="#DejaVuSans-112"/>
      <use x="202.001953" xlink:href="#DejaVuSans-101"/>
      <use x="263.525391" xlink:href="#DejaVuSans-110"/>
      <use x="326.904297" xlink:href="#DejaVuSans-100"/>
      <use x="390.380859" xlink:href="#DejaVuSans-101"/>
      <use x="451.904297" xlink:href="#DejaVuSans-110"/>
      <use x="515.283203" xlink:href="#DejaVuSans-116"/>
     </g>
    </g>
    <g id="line2d_27">
     <path d="M 568.607813 85.596813 
L 588.607813 85.596813 
" style="fill:none;stroke:#008000;stroke-linecap:square;stroke-width:1.5;"/>
    </g>
    <g id="line2d_28"/>
    <g id="text_22">
     <!-- AIS as measurement -->
     <g transform="translate(596.607813 89.096813)scale(0.1 -0.1)">
      <defs>
       <path d="M 8.5 21.578125 
L 8.5 54.6875 
L 17.484375 54.6875 
L 17.484375 21.921875 
Q 17.484375 14.15625 20.5 10.265625 
Q 23.53125 6.390625 29.59375 6.390625 
Q 36.859375 6.390625 41.078125 11.03125 
Q 45.3125 15.671875 45.3125 23.6875 
L 45.3125 54.6875 
L 54.296875 54.6875 
L 54.296875 0 
L 45.3125 0 
L 45.3125 8.40625 
Q 42.046875 3.421875 37.71875 1 
Q 33.40625 -1.421875 27.6875 -1.421875 
Q 18.265625 -1.421875 13.375 4.4375 
Q 8.5 10.296875 8.5 21.578125 
z
M 31.109375 56 
z
" id="DejaVuSans-117"/>
      </defs>
      <use xlink:href="#DejaVuSans-65"/>
      <use x="68.408203" xlink:href="#DejaVuSans-73"/>
      <use x="97.900391" xlink:href="#DejaVuSans-83"/>
      <use x="161.376953" xlink:href="#DejaVuSans-32"/>
      <use x="193.164062" xlink:href="#DejaVuSans-97"/>
      <use x="254.443359" xlink:href="#DejaVuSans-115"/>
      <use x="306.542969" xlink:href="#DejaVuSans-32"/>
      <use x="338.330078" xlink:href="#DejaVuSans-109"/>
      <use x="435.742188" xlink:href="#DejaVuSans-101"/>
      <use x="497.265625" xlink:href="#DejaVuSans-97"/>
      <use x="558.544922" xlink:href="#DejaVuSans-115"/>
      <use x="610.644531" xlink:href="#DejaVuSans-117"/>
      <use x="674.023438" xlink:href="#DejaVuSans-114"/>
      <use x="712.886719" xlink:href="#DejaVuSans-101"/>
      <use x="774.410156" xlink:href="#DejaVuSans-109"/>
      <use x="871.822266" xlink:href="#DejaVuSans-101"/>
      <use x="933.345703" xlink:href="#DejaVuSans-110"/>
      <use x="996.724609" xlink:href="#DejaVuSans-116"/>
     </g>
    </g>
   </g>
  </g>
 </g>
 <defs>
  <clipPath id="pa903774fba">
   <rect height="361.576" width="661.48" x="47.72" y="28.464"/>
  </clipPath>
 </defs>
</svg>
