<?xml version="1.0" encoding="utf-8" standalone="no"?>
<!DOCTYPE svg PUBLIC "-//W3C//DTD SVG 1.1//EN"
  "http://www.w3.org/Graphics/SVG/1.1/DTD/svg11.dtd">
<!-- Created with matplotlib (https://matplotlib.org/) -->
<svg height="432pt" version="1.1" viewBox="0 0 720 432" width="720pt" xmlns="http://www.w3.org/2000/svg" xmlns:xlink="http://www.w3.org/1999/xlink">
 <metadata>
  <rdf:RDF xmlns:cc="http://creativecommons.org/ns#" xmlns:dc="http://purl.org/dc/elements/1.1/" xmlns:rdf="http://www.w3.org/1999/02/22-rdf-syntax-ns#">
   <cc:Work>
    <dc:type rdf:resource="http://purl.org/dc/dcmitype/StillImage"/>
    <dc:date>2020-10-14T12:17:38.269089</dc:date>
    <dc:format>image/svg+xml</dc:format>
    <dc:creator>
     <cc:Agent>
      <dc:title>Matplotlib v3.3.1, https://matplotlib.org/</dc:title>
     </cc:Agent>
    </dc:creator>
   </cc:Work>
  </rdf:RDF>
 </metadata>
 <defs>
  <style type="text/css">*{stroke-linecap:butt;stroke-linejoin:round;}</style>
 </defs>
 <g id="figure_1">
  <g id="patch_1">
   <path d="M 0 432 
L 720 432 
L 720 0 
L 0 0 
z
" style="fill:#ffffff;"/>
  </g>
  <g id="axes_1">
   <g id="patch_2">
    <path d="M 47.72 390.04 
L 709.2 390.04 
L 709.2 28.464 
L 47.72 28.464 
z
" style="fill:#ffffff;"/>
   </g>
   <g id="matplotlib.axis_1">
    <g id="xtick_1">
     <g id="line2d_1">
      <defs>
       <path d="M 0 0 
L 0 3.5 
" id="mffcfe0451b" style="stroke:#000000;stroke-width:0.8;"/>
      </defs>
      <g>
       <use style="stroke:#000000;stroke-width:0.8;" x="77.787273" xlink:href="#mffcfe0451b" y="390.04"/>
      </g>
     </g>
     <g id="text_1">
      <!-- 0 -->
      <g transform="translate(74.606023 404.638438)scale(0.1 -0.1)">
       <defs>
        <path d="M 31.78125 66.40625 
Q 24.171875 66.40625 20.328125 58.90625 
Q 16.5 51.421875 16.5 36.375 
Q 16.5 21.390625 20.328125 13.890625 
Q 24.171875 6.390625 31.78125 6.390625 
Q 39.453125 6.390625 43.28125 13.890625 
Q 47.125 21.390625 47.125 36.375 
Q 47.125 51.421875 43.28125 58.90625 
Q 39.453125 66.40625 31.78125 66.40625 
z
M 31.78125 74.21875 
Q 44.046875 74.21875 50.515625 64.515625 
Q 56.984375 54.828125 56.984375 36.375 
Q 56.984375 17.96875 50.515625 8.265625 
Q 44.046875 -1.421875 31.78125 -1.421875 
Q 19.53125 -1.421875 13.0625 8.265625 
Q 6.59375 17.96875 6.59375 36.375 
Q 6.59375 54.828125 13.0625 64.515625 
Q 19.53125 74.21875 31.78125 74.21875 
z
" id="DejaVuSans-48"/>
       </defs>
       <use xlink:href="#DejaVuSans-48"/>
      </g>
     </g>
    </g>
    <g id="xtick_2">
     <g id="line2d_2">
      <g>
       <use style="stroke:#000000;stroke-width:0.8;" x="198.297384" xlink:href="#mffcfe0451b" y="390.04"/>
      </g>
     </g>
     <g id="text_2">
      <!-- 100 -->
      <g transform="translate(188.753634 404.638438)scale(0.1 -0.1)">
       <defs>
        <path d="M 12.40625 8.296875 
L 28.515625 8.296875 
L 28.515625 63.921875 
L 10.984375 60.40625 
L 10.984375 69.390625 
L 28.421875 72.90625 
L 38.28125 72.90625 
L 38.28125 8.296875 
L 54.390625 8.296875 
L 54.390625 0 
L 12.40625 0 
z
" id="DejaVuSans-49"/>
       </defs>
       <use xlink:href="#DejaVuSans-49"/>
       <use x="63.623047" xlink:href="#DejaVuSans-48"/>
       <use x="127.246094" xlink:href="#DejaVuSans-48"/>
      </g>
     </g>
    </g>
    <g id="xtick_3">
     <g id="line2d_3">
      <g>
       <use style="stroke:#000000;stroke-width:0.8;" x="318.807495" xlink:href="#mffcfe0451b" y="390.04"/>
      </g>
     </g>
     <g id="text_3">
      <!-- 200 -->
      <g transform="translate(309.263745 404.638438)scale(0.1 -0.1)">
       <defs>
        <path d="M 19.1875 8.296875 
L 53.609375 8.296875 
L 53.609375 0 
L 7.328125 0 
L 7.328125 8.296875 
Q 12.9375 14.109375 22.625 23.890625 
Q 32.328125 33.6875 34.8125 36.53125 
Q 39.546875 41.84375 41.421875 45.53125 
Q 43.3125 49.21875 43.3125 52.78125 
Q 43.3125 58.59375 39.234375 62.25 
Q 35.15625 65.921875 28.609375 65.921875 
Q 23.96875 65.921875 18.8125 64.3125 
Q 13.671875 62.703125 7.8125 59.421875 
L 7.8125 69.390625 
Q 13.765625 71.78125 18.9375 73 
Q 24.125 74.21875 28.421875 74.21875 
Q 39.75 74.21875 46.484375 68.546875 
Q 53.21875 62.890625 53.21875 53.421875 
Q 53.21875 48.921875 51.53125 44.890625 
Q 49.859375 40.875 45.40625 35.40625 
Q 44.1875 33.984375 37.640625 27.21875 
Q 31.109375 20.453125 19.1875 8.296875 
z
" id="DejaVuSans-50"/>
       </defs>
       <use xlink:href="#DejaVuSans-50"/>
       <use x="63.623047" xlink:href="#DejaVuSans-48"/>
       <use x="127.246094" xlink:href="#DejaVuSans-48"/>
      </g>
     </g>
    </g>
    <g id="xtick_4">
     <g id="line2d_4">
      <g>
       <use style="stroke:#000000;stroke-width:0.8;" x="439.317606" xlink:href="#mffcfe0451b" y="390.04"/>
      </g>
     </g>
     <g id="text_4">
      <!-- 300 -->
      <g transform="translate(429.773856 404.638438)scale(0.1 -0.1)">
       <defs>
        <path d="M 40.578125 39.3125 
Q 47.65625 37.796875 51.625 33 
Q 55.609375 28.21875 55.609375 21.1875 
Q 55.609375 10.40625 48.1875 4.484375 
Q 40.765625 -1.421875 27.09375 -1.421875 
Q 22.515625 -1.421875 17.65625 -0.515625 
Q 12.796875 0.390625 7.625 2.203125 
L 7.625 11.71875 
Q 11.71875 9.328125 16.59375 8.109375 
Q 21.484375 6.890625 26.8125 6.890625 
Q 36.078125 6.890625 40.9375 10.546875 
Q 45.796875 14.203125 45.796875 21.1875 
Q 45.796875 27.640625 41.28125 31.265625 
Q 36.765625 34.90625 28.71875 34.90625 
L 20.21875 34.90625 
L 20.21875 43.015625 
L 29.109375 43.015625 
Q 36.375 43.015625 40.234375 45.921875 
Q 44.09375 48.828125 44.09375 54.296875 
Q 44.09375 59.90625 40.109375 62.90625 
Q 36.140625 65.921875 28.71875 65.921875 
Q 24.65625 65.921875 20.015625 65.03125 
Q 15.375 64.15625 9.8125 62.3125 
L 9.8125 71.09375 
Q 15.4375 72.65625 20.34375 73.4375 
Q 25.25 74.21875 29.59375 74.21875 
Q 40.828125 74.21875 47.359375 69.109375 
Q 53.90625 64.015625 53.90625 55.328125 
Q 53.90625 49.265625 50.4375 45.09375 
Q 46.96875 40.921875 40.578125 39.3125 
z
" id="DejaVuSans-51"/>
       </defs>
       <use xlink:href="#DejaVuSans-51"/>
       <use x="63.623047" xlink:href="#DejaVuSans-48"/>
       <use x="127.246094" xlink:href="#DejaVuSans-48"/>
      </g>
     </g>
    </g>
    <g id="xtick_5">
     <g id="line2d_5">
      <g>
       <use style="stroke:#000000;stroke-width:0.8;" x="559.827717" xlink:href="#mffcfe0451b" y="390.04"/>
      </g>
     </g>
     <g id="text_5">
      <!-- 400 -->
      <g transform="translate(550.283967 404.638438)scale(0.1 -0.1)">
       <defs>
        <path d="M 37.796875 64.3125 
L 12.890625 25.390625 
L 37.796875 25.390625 
z
M 35.203125 72.90625 
L 47.609375 72.90625 
L 47.609375 25.390625 
L 58.015625 25.390625 
L 58.015625 17.1875 
L 47.609375 17.1875 
L 47.609375 0 
L 37.796875 0 
L 37.796875 17.1875 
L 4.890625 17.1875 
L 4.890625 26.703125 
z
" id="DejaVuSans-52"/>
       </defs>
       <use xlink:href="#DejaVuSans-52"/>
       <use x="63.623047" xlink:href="#DejaVuSans-48"/>
       <use x="127.246094" xlink:href="#DejaVuSans-48"/>
      </g>
     </g>
    </g>
    <g id="xtick_6">
     <g id="line2d_6">
      <g>
       <use style="stroke:#000000;stroke-width:0.8;" x="680.337828" xlink:href="#mffcfe0451b" y="390.04"/>
      </g>
     </g>
     <g id="text_6">
      <!-- 500 -->
      <g transform="translate(670.794078 404.638438)scale(0.1 -0.1)">
       <defs>
        <path d="M 10.796875 72.90625 
L 49.515625 72.90625 
L 49.515625 64.59375 
L 19.828125 64.59375 
L 19.828125 46.734375 
Q 21.96875 47.46875 24.109375 47.828125 
Q 26.265625 48.1875 28.421875 48.1875 
Q 40.625 48.1875 47.75 41.5 
Q 54.890625 34.8125 54.890625 23.390625 
Q 54.890625 11.625 47.5625 5.09375 
Q 40.234375 -1.421875 26.90625 -1.421875 
Q 22.3125 -1.421875 17.546875 -0.640625 
Q 12.796875 0.140625 7.71875 1.703125 
L 7.71875 11.625 
Q 12.109375 9.234375 16.796875 8.0625 
Q 21.484375 6.890625 26.703125 6.890625 
Q 35.15625 6.890625 40.078125 11.328125 
Q 45.015625 15.765625 45.015625 23.390625 
Q 45.015625 31 40.078125 35.4375 
Q 35.15625 39.890625 26.703125 39.890625 
Q 22.75 39.890625 18.8125 39.015625 
Q 14.890625 38.140625 10.796875 36.28125 
z
" id="DejaVuSans-53"/>
       </defs>
       <use xlink:href="#DejaVuSans-53"/>
       <use x="63.623047" xlink:href="#DejaVuSans-48"/>
       <use x="127.246094" xlink:href="#DejaVuSans-48"/>
      </g>
     </g>
    </g>
    <g id="text_7">
     <!-- MC iterations -->
     <g transform="translate(345.338125 418.316562)scale(0.1 -0.1)">
      <defs>
       <path d="M 9.8125 72.90625 
L 24.515625 72.90625 
L 43.109375 23.296875 
L 61.8125 72.90625 
L 76.515625 72.90625 
L 76.515625 0 
L 66.890625 0 
L 66.890625 64.015625 
L 48.09375 14.015625 
L 38.1875 14.015625 
L 19.390625 64.015625 
L 19.390625 0 
L 9.8125 0 
z
" id="DejaVuSans-77"/>
       <path d="M 64.40625 67.28125 
L 64.40625 56.890625 
Q 59.421875 61.53125 53.78125 63.8125 
Q 48.140625 66.109375 41.796875 66.109375 
Q 29.296875 66.109375 22.65625 58.46875 
Q 16.015625 50.828125 16.015625 36.375 
Q 16.015625 21.96875 22.65625 14.328125 
Q 29.296875 6.6875 41.796875 6.6875 
Q 48.140625 6.6875 53.78125 8.984375 
Q 59.421875 11.28125 64.40625 15.921875 
L 64.40625 5.609375 
Q 59.234375 2.09375 53.4375 0.328125 
Q 47.65625 -1.421875 41.21875 -1.421875 
Q 24.65625 -1.421875 15.125 8.703125 
Q 5.609375 18.84375 5.609375 36.375 
Q 5.609375 53.953125 15.125 64.078125 
Q 24.65625 74.21875 41.21875 74.21875 
Q 47.75 74.21875 53.53125 72.484375 
Q 59.328125 70.75 64.40625 67.28125 
z
" id="DejaVuSans-67"/>
       <path id="DejaVuSans-32"/>
       <path d="M 9.421875 54.6875 
L 18.40625 54.6875 
L 18.40625 0 
L 9.421875 0 
z
M 9.421875 75.984375 
L 18.40625 75.984375 
L 18.40625 64.59375 
L 9.421875 64.59375 
z
" id="DejaVuSans-105"/>
       <path d="M 18.3125 70.21875 
L 18.3125 54.6875 
L 36.8125 54.6875 
L 36.8125 47.703125 
L 18.3125 47.703125 
L 18.3125 18.015625 
Q 18.3125 11.328125 20.140625 9.421875 
Q 21.96875 7.515625 27.59375 7.515625 
L 36.8125 7.515625 
L 36.8125 0 
L 27.59375 0 
Q 17.1875 0 13.234375 3.875 
Q 9.28125 7.765625 9.28125 18.015625 
L 9.28125 47.703125 
L 2.6875 47.703125 
L 2.6875 54.6875 
L 9.28125 54.6875 
L 9.28125 70.21875 
z
" id="DejaVuSans-116"/>
       <path d="M 56.203125 29.59375 
L 56.203125 25.203125 
L 14.890625 25.203125 
Q 15.484375 15.921875 20.484375 11.0625 
Q 25.484375 6.203125 34.421875 6.203125 
Q 39.59375 6.203125 44.453125 7.46875 
Q 49.3125 8.734375 54.109375 11.28125 
L 54.109375 2.78125 
Q 49.265625 0.734375 44.1875 -0.34375 
Q 39.109375 -1.421875 33.890625 -1.421875 
Q 20.796875 -1.421875 13.15625 6.1875 
Q 5.515625 13.8125 5.515625 26.8125 
Q 5.515625 40.234375 12.765625 48.109375 
Q 20.015625 56 32.328125 56 
Q 43.359375 56 49.78125 48.890625 
Q 56.203125 41.796875 56.203125 29.59375 
z
M 47.21875 32.234375 
Q 47.125 39.59375 43.09375 43.984375 
Q 39.0625 48.390625 32.421875 48.390625 
Q 24.90625 48.390625 20.390625 44.140625 
Q 15.875 39.890625 15.1875 32.171875 
z
" id="DejaVuSans-101"/>
       <path d="M 41.109375 46.296875 
Q 39.59375 47.171875 37.8125 47.578125 
Q 36.03125 48 33.890625 48 
Q 26.265625 48 22.1875 43.046875 
Q 18.109375 38.09375 18.109375 28.8125 
L 18.109375 0 
L 9.078125 0 
L 9.078125 54.6875 
L 18.109375 54.6875 
L 18.109375 46.1875 
Q 20.953125 51.171875 25.484375 53.578125 
Q 30.03125 56 36.53125 56 
Q 37.453125 56 38.578125 55.875 
Q 39.703125 55.765625 41.0625 55.515625 
z
" id="DejaVuSans-114"/>
       <path d="M 34.28125 27.484375 
Q 23.390625 27.484375 19.1875 25 
Q 14.984375 22.515625 14.984375 16.5 
Q 14.984375 11.71875 18.140625 8.90625 
Q 21.296875 6.109375 26.703125 6.109375 
Q 34.1875 6.109375 38.703125 11.40625 
Q 43.21875 16.703125 43.21875 25.484375 
L 43.21875 27.484375 
z
M 52.203125 31.203125 
L 52.203125 0 
L 43.21875 0 
L 43.21875 8.296875 
Q 40.140625 3.328125 35.546875 0.953125 
Q 30.953125 -1.421875 24.3125 -1.421875 
Q 15.921875 -1.421875 10.953125 3.296875 
Q 6 8.015625 6 15.921875 
Q 6 25.140625 12.171875 29.828125 
Q 18.359375 34.515625 30.609375 34.515625 
L 43.21875 34.515625 
L 43.21875 35.40625 
Q 43.21875 41.609375 39.140625 45 
Q 35.0625 48.390625 27.6875 48.390625 
Q 23 48.390625 18.546875 47.265625 
Q 14.109375 46.140625 10.015625 43.890625 
L 10.015625 52.203125 
Q 14.9375 54.109375 19.578125 55.046875 
Q 24.21875 56 28.609375 56 
Q 40.484375 56 46.34375 49.84375 
Q 52.203125 43.703125 52.203125 31.203125 
z
" id="DejaVuSans-97"/>
       <path d="M 30.609375 48.390625 
Q 23.390625 48.390625 19.1875 42.75 
Q 14.984375 37.109375 14.984375 27.296875 
Q 14.984375 17.484375 19.15625 11.84375 
Q 23.34375 6.203125 30.609375 6.203125 
Q 37.796875 6.203125 41.984375 11.859375 
Q 46.1875 17.53125 46.1875 27.296875 
Q 46.1875 37.015625 41.984375 42.703125 
Q 37.796875 48.390625 30.609375 48.390625 
z
M 30.609375 56 
Q 42.328125 56 49.015625 48.375 
Q 55.71875 40.765625 55.71875 27.296875 
Q 55.71875 13.875 49.015625 6.21875 
Q 42.328125 -1.421875 30.609375 -1.421875 
Q 18.84375 -1.421875 12.171875 6.21875 
Q 5.515625 13.875 5.515625 27.296875 
Q 5.515625 40.765625 12.171875 48.375 
Q 18.84375 56 30.609375 56 
z
" id="DejaVuSans-111"/>
       <path d="M 54.890625 33.015625 
L 54.890625 0 
L 45.90625 0 
L 45.90625 32.71875 
Q 45.90625 40.484375 42.875 44.328125 
Q 39.84375 48.1875 33.796875 48.1875 
Q 26.515625 48.1875 22.3125 43.546875 
Q 18.109375 38.921875 18.109375 30.90625 
L 18.109375 0 
L 9.078125 0 
L 9.078125 54.6875 
L 18.109375 54.6875 
L 18.109375 46.1875 
Q 21.34375 51.125 25.703125 53.5625 
Q 30.078125 56 35.796875 56 
Q 45.21875 56 50.046875 50.171875 
Q 54.890625 44.34375 54.890625 33.015625 
z
" id="DejaVuSans-110"/>
       <path d="M 44.28125 53.078125 
L 44.28125 44.578125 
Q 40.484375 46.53125 36.375 47.5 
Q 32.28125 48.484375 27.875 48.484375 
Q 21.1875 48.484375 17.84375 46.4375 
Q 14.5 44.390625 14.5 40.28125 
Q 14.5 37.15625 16.890625 35.375 
Q 19.28125 33.59375 26.515625 31.984375 
L 29.59375 31.296875 
Q 39.15625 29.25 43.1875 25.515625 
Q 47.21875 21.78125 47.21875 15.09375 
Q 47.21875 7.46875 41.1875 3.015625 
Q 35.15625 -1.421875 24.609375 -1.421875 
Q 20.21875 -1.421875 15.453125 -0.5625 
Q 10.6875 0.296875 5.421875 2 
L 5.421875 11.28125 
Q 10.40625 8.6875 15.234375 7.390625 
Q 20.0625 6.109375 24.8125 6.109375 
Q 31.15625 6.109375 34.5625 8.28125 
Q 37.984375 10.453125 37.984375 14.40625 
Q 37.984375 18.0625 35.515625 20.015625 
Q 33.0625 21.96875 24.703125 23.78125 
L 21.578125 24.515625 
Q 13.234375 26.265625 9.515625 29.90625 
Q 5.8125 33.546875 5.8125 39.890625 
Q 5.8125 47.609375 11.28125 51.796875 
Q 16.75 56 26.8125 56 
Q 31.78125 56 36.171875 55.265625 
Q 40.578125 54.546875 44.28125 53.078125 
z
" id="DejaVuSans-115"/>
      </defs>
      <use xlink:href="#DejaVuSans-77"/>
      <use x="86.279297" xlink:href="#DejaVuSans-67"/>
      <use x="156.103516" xlink:href="#DejaVuSans-32"/>
      <use x="187.890625" xlink:href="#DejaVuSans-105"/>
      <use x="215.673828" xlink:href="#DejaVuSans-116"/>
      <use x="254.882812" xlink:href="#DejaVuSans-101"/>
      <use x="316.40625" xlink:href="#DejaVuSans-114"/>
      <use x="357.519531" xlink:href="#DejaVuSans-97"/>
      <use x="418.798828" xlink:href="#DejaVuSans-116"/>
      <use x="458.007812" xlink:href="#DejaVuSans-105"/>
      <use x="485.791016" xlink:href="#DejaVuSans-111"/>
      <use x="546.972656" xlink:href="#DejaVuSans-110"/>
      <use x="610.351562" xlink:href="#DejaVuSans-115"/>
     </g>
    </g>
   </g>
   <g id="matplotlib.axis_2">
    <g id="ytick_1">
     <g id="line2d_7">
      <defs>
       <path d="M 0 0 
L -3.5 0 
" id="m0193b24a7d" style="stroke:#000000;stroke-width:0.8;"/>
      </defs>
      <g>
       <use style="stroke:#000000;stroke-width:0.8;" x="47.72" xlink:href="#m0193b24a7d" y="390.04"/>
      </g>
     </g>
     <g id="text_8">
      <!-- 2.5 -->
      <g transform="translate(24.816875 393.839219)scale(0.1 -0.1)">
       <defs>
        <path d="M 10.6875 12.40625 
L 21 12.40625 
L 21 0 
L 10.6875 0 
z
" id="DejaVuSans-46"/>
       </defs>
       <use xlink:href="#DejaVuSans-50"/>
       <use x="63.623047" xlink:href="#DejaVuSans-46"/>
       <use x="95.410156" xlink:href="#DejaVuSans-53"/>
      </g>
     </g>
    </g>
    <g id="ytick_2">
     <g id="line2d_8">
      <g>
       <use style="stroke:#000000;stroke-width:0.8;" x="47.72" xlink:href="#m0193b24a7d" y="344.843"/>
      </g>
     </g>
     <g id="text_9">
      <!-- 3.0 -->
      <g transform="translate(24.816875 348.642219)scale(0.1 -0.1)">
       <use xlink:href="#DejaVuSans-51"/>
       <use x="63.623047" xlink:href="#DejaVuSans-46"/>
       <use x="95.410156" xlink:href="#DejaVuSans-48"/>
      </g>
     </g>
    </g>
    <g id="ytick_3">
     <g id="line2d_9">
      <g>
       <use style="stroke:#000000;stroke-width:0.8;" x="47.72" xlink:href="#m0193b24a7d" y="299.646"/>
      </g>
     </g>
     <g id="text_10">
      <!-- 3.5 -->
      <g transform="translate(24.816875 303.445219)scale(0.1 -0.1)">
       <use xlink:href="#DejaVuSans-51"/>
       <use x="63.623047" xlink:href="#DejaVuSans-46"/>
       <use x="95.410156" xlink:href="#DejaVuSans-53"/>
      </g>
     </g>
    </g>
    <g id="ytick_4">
     <g id="line2d_10">
      <g>
       <use style="stroke:#000000;stroke-width:0.8;" x="47.72" xlink:href="#m0193b24a7d" y="254.449"/>
      </g>
     </g>
     <g id="text_11">
      <!-- 4.0 -->
      <g transform="translate(24.816875 258.248219)scale(0.1 -0.1)">
       <use xlink:href="#DejaVuSans-52"/>
       <use x="63.623047" xlink:href="#DejaVuSans-46"/>
       <use x="95.410156" xlink:href="#DejaVuSans-48"/>
      </g>
     </g>
    </g>
    <g id="ytick_5">
     <g id="line2d_11">
      <g>
       <use style="stroke:#000000;stroke-width:0.8;" x="47.72" xlink:href="#m0193b24a7d" y="209.252"/>
      </g>
     </g>
     <g id="text_12">
      <!-- 4.5 -->
      <g transform="translate(24.816875 213.051219)scale(0.1 -0.1)">
       <use xlink:href="#DejaVuSans-52"/>
       <use x="63.623047" xlink:href="#DejaVuSans-46"/>
       <use x="95.410156" xlink:href="#DejaVuSans-53"/>
      </g>
     </g>
    </g>
    <g id="ytick_6">
     <g id="line2d_12">
      <g>
       <use style="stroke:#000000;stroke-width:0.8;" x="47.72" xlink:href="#m0193b24a7d" y="164.055"/>
      </g>
     </g>
     <g id="text_13">
      <!-- 5.0 -->
      <g transform="translate(24.816875 167.854219)scale(0.1 -0.1)">
       <use xlink:href="#DejaVuSans-53"/>
       <use x="63.623047" xlink:href="#DejaVuSans-46"/>
       <use x="95.410156" xlink:href="#DejaVuSans-48"/>
      </g>
     </g>
    </g>
    <g id="ytick_7">
     <g id="line2d_13">
      <g>
       <use style="stroke:#000000;stroke-width:0.8;" x="47.72" xlink:href="#m0193b24a7d" y="118.858"/>
      </g>
     </g>
     <g id="text_14">
      <!-- 5.5 -->
      <g transform="translate(24.816875 122.657219)scale(0.1 -0.1)">
       <use xlink:href="#DejaVuSans-53"/>
       <use x="63.623047" xlink:href="#DejaVuSans-46"/>
       <use x="95.410156" xlink:href="#DejaVuSans-53"/>
      </g>
     </g>
    </g>
    <g id="ytick_8">
     <g id="line2d_14">
      <g>
       <use style="stroke:#000000;stroke-width:0.8;" x="47.72" xlink:href="#m0193b24a7d" y="73.661"/>
      </g>
     </g>
     <g id="text_15">
      <!-- 6.0 -->
      <g transform="translate(24.816875 77.460219)scale(0.1 -0.1)">
       <defs>
        <path d="M 33.015625 40.375 
Q 26.375 40.375 22.484375 35.828125 
Q 18.609375 31.296875 18.609375 23.390625 
Q 18.609375 15.53125 22.484375 10.953125 
Q 26.375 6.390625 33.015625 6.390625 
Q 39.65625 6.390625 43.53125 10.953125 
Q 47.40625 15.53125 47.40625 23.390625 
Q 47.40625 31.296875 43.53125 35.828125 
Q 39.65625 40.375 33.015625 40.375 
z
M 52.59375 71.296875 
L 52.59375 62.3125 
Q 48.875 64.0625 45.09375 64.984375 
Q 41.3125 65.921875 37.59375 65.921875 
Q 27.828125 65.921875 22.671875 59.328125 
Q 17.53125 52.734375 16.796875 39.40625 
Q 19.671875 43.65625 24.015625 45.921875 
Q 28.375 48.1875 33.59375 48.1875 
Q 44.578125 48.1875 50.953125 41.515625 
Q 57.328125 34.859375 57.328125 23.390625 
Q 57.328125 12.15625 50.6875 5.359375 
Q 44.046875 -1.421875 33.015625 -1.421875 
Q 20.359375 -1.421875 13.671875 8.265625 
Q 6.984375 17.96875 6.984375 36.375 
Q 6.984375 53.65625 15.1875 63.9375 
Q 23.390625 74.21875 37.203125 74.21875 
Q 40.921875 74.21875 44.703125 73.484375 
Q 48.484375 72.75 52.59375 71.296875 
z
" id="DejaVuSans-54"/>
       </defs>
       <use xlink:href="#DejaVuSans-54"/>
       <use x="63.623047" xlink:href="#DejaVuSans-46"/>
       <use x="95.410156" xlink:href="#DejaVuSans-48"/>
      </g>
     </g>
    </g>
    <g id="ytick_9">
     <g id="line2d_15">
      <g>
       <use style="stroke:#000000;stroke-width:0.8;" x="47.72" xlink:href="#m0193b24a7d" y="28.464"/>
      </g>
     </g>
     <g id="text_16">
      <!-- 6.5 -->
      <g transform="translate(24.816875 32.263219)scale(0.1 -0.1)">
       <use xlink:href="#DejaVuSans-54"/>
       <use x="63.623047" xlink:href="#DejaVuSans-46"/>
       <use x="95.410156" xlink:href="#DejaVuSans-53"/>
      </g>
     </g>
    </g>
    <g id="text_17">
     <!-- ANEES -->
     <g transform="translate(18.737188 225.905906)rotate(-90)scale(0.1 -0.1)">
      <defs>
       <path d="M 34.1875 63.1875 
L 20.796875 26.90625 
L 47.609375 26.90625 
z
M 28.609375 72.90625 
L 39.796875 72.90625 
L 67.578125 0 
L 57.328125 0 
L 50.6875 18.703125 
L 17.828125 18.703125 
L 11.1875 0 
L 0.78125 0 
z
" id="DejaVuSans-65"/>
       <path d="M 9.8125 72.90625 
L 23.09375 72.90625 
L 55.421875 11.921875 
L 55.421875 72.90625 
L 64.984375 72.90625 
L 64.984375 0 
L 51.703125 0 
L 19.390625 60.984375 
L 19.390625 0 
L 9.8125 0 
z
" id="DejaVuSans-78"/>
       <path d="M 9.8125 72.90625 
L 55.90625 72.90625 
L 55.90625 64.59375 
L 19.671875 64.59375 
L 19.671875 43.015625 
L 54.390625 43.015625 
L 54.390625 34.71875 
L 19.671875 34.71875 
L 19.671875 8.296875 
L 56.78125 8.296875 
L 56.78125 0 
L 9.8125 0 
z
" id="DejaVuSans-69"/>
       <path d="M 53.515625 70.515625 
L 53.515625 60.890625 
Q 47.90625 63.578125 42.921875 64.890625 
Q 37.9375 66.21875 33.296875 66.21875 
Q 25.25 66.21875 20.875 63.09375 
Q 16.5 59.96875 16.5 54.203125 
Q 16.5 49.359375 19.40625 46.890625 
Q 22.3125 44.4375 30.421875 42.921875 
L 36.375 41.703125 
Q 47.40625 39.59375 52.65625 34.296875 
Q 57.90625 29 57.90625 20.125 
Q 57.90625 9.515625 50.796875 4.046875 
Q 43.703125 -1.421875 29.984375 -1.421875 
Q 24.8125 -1.421875 18.96875 -0.25 
Q 13.140625 0.921875 6.890625 3.21875 
L 6.890625 13.375 
Q 12.890625 10.015625 18.65625 8.296875 
Q 24.421875 6.59375 29.984375 6.59375 
Q 38.421875 6.59375 43.015625 9.90625 
Q 47.609375 13.234375 47.609375 19.390625 
Q 47.609375 24.75 44.3125 27.78125 
Q 41.015625 30.8125 33.5 32.328125 
L 27.484375 33.5 
Q 16.453125 35.6875 11.515625 40.375 
Q 6.59375 45.0625 6.59375 53.421875 
Q 6.59375 63.09375 13.40625 68.65625 
Q 20.21875 74.21875 32.171875 74.21875 
Q 37.3125 74.21875 42.625 73.28125 
Q 47.953125 72.359375 53.515625 70.515625 
z
" id="DejaVuSans-83"/>
      </defs>
      <use xlink:href="#DejaVuSans-65"/>
      <use x="68.408203" xlink:href="#DejaVuSans-78"/>
      <use x="143.212891" xlink:href="#DejaVuSans-69"/>
      <use x="206.396484" xlink:href="#DejaVuSans-69"/>
      <use x="269.580078" xlink:href="#DejaVuSans-83"/>
     </g>
    </g>
   </g>
   <g id="line2d_16">
    <path clip-path="url(#p246a524928)" d="M 77.787273 357.709805 
L 78.992374 329.317719 
L 80.197475 316.242562 
L 81.402576 308.304609 
L 82.607677 302.826273 
L 83.812778 298.750605 
L 85.017879 295.564442 
L 86.222981 292.984363 
L 87.428082 290.839294 
L 88.633183 289.019013 
L 89.838284 287.448857 
L 92.248486 284.862753 
L 94.658688 282.805634 
L 97.068891 281.1184 
L 99.479093 279.701838 
L 101.889295 278.490425 
L 105.504598 276.962617 
L 109.119902 275.694492 
L 113.940306 274.296453 
L 118.760711 273.143367 
L 124.786216 271.950894 
L 132.016823 270.783189 
L 140.452531 269.678285 
L 150.093339 268.654858 
L 162.144351 267.626072 
L 176.605564 266.644775 
L 193.476979 265.737586 
L 213.963698 264.868282 
L 239.270822 264.029282 
L 270.603451 263.226598 
L 309.166686 262.470191 
L 357.370731 261.752924 
L 418.830887 261.067836 
L 498.367561 260.413905 
L 602.006256 259.79563 
L 679.132727 259.44295 
L 679.132727 259.44295 
" style="fill:none;stroke:#000000;stroke-linecap:square;stroke-width:1.5;"/>
   </g>
   <g id="line2d_17">
    <path clip-path="url(#p246a524928)" d="M 77.787273 134.095862 
L 78.992374 171.026316 
L 80.197475 186.951071 
L 81.402576 196.314472 
L 82.607677 202.648283 
L 83.812778 207.294353 
L 85.017879 210.887989 
L 86.222981 213.773695 
L 87.428082 216.156487 
L 88.633183 218.166956 
L 89.838284 219.892725 
L 91.043385 221.395059 
L 93.453587 223.895195 
L 95.863789 225.904917 
L 98.273992 227.565822 
L 100.684194 228.968223 
L 103.094396 230.172784 
L 106.709699 231.698222 
L 110.325003 232.969159 
L 115.145407 234.374725 
L 119.965812 235.537074 
L 125.991317 236.741618 
L 133.221924 237.923214 
L 141.657632 239.042796 
L 151.298441 240.08086 
L 163.349452 241.125096 
L 176.605564 242.046924 
L 193.476979 242.983887 
L 213.963698 243.879516 
L 238.065721 244.70549 
L 268.193248 245.509014 
L 305.551383 246.274962 
L 352.550326 247.007112 
L 412.805382 247.710018 
L 489.931853 248.373865 
L 589.955245 249.000017 
L 679.132727 249.420803 
L 679.132727 249.420803 
" style="fill:none;stroke:#000000;stroke-linecap:square;stroke-width:1.5;"/>
   </g>
   <g id="line2d_18">
    <path clip-path="url(#p246a524928)" d="M 77.787273 133.720669 
L 78.992374 179.234988 
L 80.197475 141.946922 
L 81.402576 150.366414 
L 82.607677 138.917421 
L 83.812778 138.371354 
L 85.017879 125.681334 
L 86.222981 135.731264 
L 87.428082 128.368656 
L 88.633183 126.329726 
L 89.838284 126.593649 
L 91.043385 137.015337 
L 92.248486 125.257656 
L 93.453587 128.110951 
L 94.658688 123.009561 
L 95.863789 118.830196 
L 97.068891 122.518834 
L 98.273992 107.732741 
L 99.479093 106.449394 
L 100.684194 115.038999 
L 101.889295 115.532076 
L 103.094396 113.394148 
L 104.299497 113.764941 
L 105.504598 115.826349 
L 106.709699 118.517638 
L 107.914801 113.773209 
L 109.119902 111.253964 
L 110.325003 115.80325 
L 111.530104 114.291173 
L 112.735205 113.664865 
L 113.940306 111.797657 
L 115.145407 107.474987 
L 116.350508 108.997769 
L 117.555609 106.738041 
L 118.760711 109.427886 
L 119.965812 104.86679 
L 121.170913 100.868962 
L 122.376014 98.619426 
L 123.581115 98.118631 
L 124.786216 96.943604 
L 125.991317 100.362194 
L 127.196418 102.608113 
L 128.401519 106.766033 
L 129.606621 108.395461 
L 130.811722 107.412389 
L 132.016823 108.817211 
L 133.221924 106.039124 
L 134.427025 104.894691 
L 135.632126 107.069849 
L 136.837227 106.186112 
L 138.042328 100.253157 
L 139.247429 102.061449 
L 140.452531 106.61429 
L 141.657632 104.360532 
L 142.862733 105.193841 
L 144.067834 105.695358 
L 145.272935 105.282684 
L 146.478036 102.130282 
L 147.683137 102.693891 
L 148.888238 95.035762 
L 150.093339 93.78743 
L 151.298441 93.169762 
L 152.503542 94.497997 
L 153.708643 95.001417 
L 154.913744 91.658605 
L 156.118845 94.183208 
L 157.323946 95.100105 
L 158.529047 95.145324 
L 159.734148 94.504601 
L 162.144351 95.545679 
L 163.349452 97.717543 
L 164.554553 97.348152 
L 165.759654 96.098624 
L 166.964755 98.351839 
L 168.169856 98.382913 
L 169.374957 100.405161 
L 171.785159 100.378138 
L 172.990261 99.203587 
L 174.195362 98.512112 
L 175.400463 99.404748 
L 176.605564 99.3714 
L 177.810665 101.428843 
L 179.015766 101.013513 
L 180.220867 101.729335 
L 181.425968 101.745926 
L 182.631069 103.732756 
L 183.836171 103.553256 
L 185.041272 104.97843 
L 186.246373 103.782909 
L 187.451474 101.658962 
L 188.656575 102.9395 
L 189.861676 103.145127 
L 193.476979 105.95351 
L 194.682081 107.522446 
L 195.887182 108.395036 
L 197.092283 109.57994 
L 199.502485 110.134179 
L 200.707586 107.096429 
L 201.912687 106.043018 
L 203.117788 107.262674 
L 204.322889 107.489834 
L 205.527991 108.075677 
L 207.938193 106.178327 
L 209.143294 106.799124 
L 210.348395 107.249968 
L 211.553496 107.023374 
L 212.758597 108.579309 
L 213.963698 108.04734 
L 215.168799 108.464411 
L 216.373901 108.642976 
L 217.579002 109.249045 
L 218.784103 111.037086 
L 219.989204 109.921941 
L 221.194305 109.972036 
L 223.604507 109.761803 
L 224.809608 109.975285 
L 226.014709 109.362471 
L 227.219811 110.728549 
L 228.424912 110.909019 
L 229.630013 110.196436 
L 232.040215 112.308475 
L 233.245316 112.813245 
L 234.450417 112.762297 
L 236.860619 112.09013 
L 238.065721 112.350544 
L 239.270822 111.988928 
L 240.475923 113.389967 
L 241.681024 114.411281 
L 242.886125 113.590927 
L 244.091226 111.562596 
L 245.296327 110.194651 
L 246.501428 110.15846 
L 247.706529 109.527574 
L 250.116732 107.395824 
L 251.321833 107.855305 
L 252.526934 109.078656 
L 253.732035 109.46823 
L 254.937136 109.565767 
L 256.142237 108.580709 
L 257.347338 108.74846 
L 258.552439 108.029957 
L 259.757541 107.925076 
L 262.167743 109.121507 
L 263.372844 108.953165 
L 264.577945 109.29988 
L 265.783046 109.06606 
L 266.988147 109.648138 
L 268.193248 109.510302 
L 269.398349 109.947924 
L 270.603451 110.20317 
L 271.808552 109.31184 
L 273.013653 109.398635 
L 274.218754 109.839874 
L 276.628956 109.352248 
L 277.834057 109.741173 
L 279.039158 109.526074 
L 280.244259 108.821501 
L 282.654462 108.671177 
L 283.859563 110.065716 
L 285.064664 110.094891 
L 286.269765 109.890351 
L 287.474866 110.861835 
L 288.679967 111.003381 
L 289.885068 111.470923 
L 291.090169 111.257906 
L 292.295271 111.66811 
L 293.500372 110.974753 
L 294.705473 111.597421 
L 295.910574 112.488094 
L 297.115675 111.985217 
L 298.320776 112.577767 
L 299.525877 111.511028 
L 301.936079 111.78275 
L 303.141181 111.505277 
L 304.346282 111.74972 
L 305.551383 111.764963 
L 306.756484 111.135963 
L 307.961585 110.97864 
L 309.166686 110.941498 
L 311.576888 111.287402 
L 312.781989 110.926797 
L 313.987091 111.274337 
L 315.192192 110.749972 
L 316.397293 110.87235 
L 317.602394 110.686494 
L 318.807495 110.793804 
L 321.217697 111.841611 
L 322.422798 110.297647 
L 323.627899 110.290973 
L 324.833001 110.685091 
L 328.448304 110.339612 
L 330.858506 110.912017 
L 333.268708 112.566758 
L 334.473809 112.759951 
L 335.678911 113.070791 
L 336.884012 113.497415 
L 339.294214 113.359974 
L 340.499315 113.851659 
L 341.704416 113.882654 
L 342.909517 114.494952 
L 344.114618 113.865608 
L 345.319719 114.187605 
L 346.524821 114.325687 
L 347.729922 113.277409 
L 348.935023 113.01492 
L 350.140124 113.507737 
L 351.345225 112.821575 
L 352.550326 112.534117 
L 353.755427 112.904693 
L 354.960528 113.085504 
L 356.165629 112.639765 
L 357.370731 112.636745 
L 358.575832 112.39977 
L 359.780933 111.164674 
L 360.986034 111.769383 
L 362.191135 111.655968 
L 363.396236 111.944784 
L 364.601337 112.419002 
L 365.806438 111.819693 
L 367.011539 110.582107 
L 368.216641 110.313984 
L 369.421742 109.416705 
L 370.626843 108.818369 
L 373.037045 109.128586 
L 374.242146 108.795116 
L 375.447247 109.209996 
L 376.652348 109.275821 
L 377.857449 109.482517 
L 379.062551 109.536892 
L 380.267652 109.039199 
L 381.472753 108.837631 
L 382.677854 109.260766 
L 385.088056 109.057279 
L 386.293157 109.18851 
L 387.498258 108.49578 
L 388.703359 107.427051 
L 389.908461 108.164706 
L 392.318663 108.18981 
L 393.523764 108.604961 
L 395.933966 108.559409 
L 397.139067 108.026522 
L 399.549269 108.645544 
L 400.754371 108.335593 
L 401.959472 108.643982 
L 403.164573 109.135155 
L 404.369674 109.221117 
L 405.574775 109.56222 
L 406.779876 109.739125 
L 407.984977 110.053037 
L 409.190078 109.326743 
L 410.395179 109.479556 
L 411.600281 108.691068 
L 412.805382 108.776304 
L 414.010483 108.180157 
L 415.215584 108.305827 
L 416.420685 107.993333 
L 417.625786 108.421536 
L 418.830887 108.19899 
L 420.035988 108.140304 
L 421.241089 107.312032 
L 422.446191 106.946076 
L 423.651292 107.085068 
L 424.856393 106.856783 
L 426.061494 107.453462 
L 427.266595 107.513885 
L 428.471696 107.453922 
L 429.676797 106.881378 
L 430.881898 107.342276 
L 433.292101 106.513334 
L 434.497202 106.641135 
L 436.907404 105.662574 
L 438.112505 105.537069 
L 439.317606 105.83875 
L 440.522707 105.834165 
L 441.727808 105.604358 
L 442.932909 105.745962 
L 444.138011 105.37475 
L 445.343112 105.18523 
L 446.548213 104.751472 
L 447.753314 104.527005 
L 448.958415 105.055243 
L 450.163516 105.400987 
L 451.368617 105.146618 
L 452.573718 105.158135 
L 454.983921 105.977522 
L 456.189022 106.036048 
L 457.394123 105.441874 
L 458.599224 106.045172 
L 459.804325 106.090342 
L 462.214527 106.018559 
L 463.419628 106.158558 
L 464.624729 106.434833 
L 465.829831 106.941052 
L 467.034932 107.059698 
L 468.240033 107.434762 
L 471.855336 107.677446 
L 473.060437 107.754054 
L 474.265538 107.135417 
L 477.880842 107.706185 
L 481.496145 108.809684 
L 483.906347 108.898752 
L 486.316549 109.120563 
L 489.931853 108.912135 
L 492.342055 109.477981 
L 493.547156 109.890612 
L 497.162459 110.000092 
L 498.367561 109.74735 
L 500.777763 109.512891 
L 501.982864 109.598568 
L 503.187965 109.353674 
L 504.393066 109.636119 
L 505.598167 109.38142 
L 506.803268 109.42419 
L 508.008369 108.653241 
L 509.213471 108.592388 
L 510.418572 108.350042 
L 511.623673 108.737454 
L 512.828774 108.527111 
L 514.033875 108.531452 
L 515.238976 108.872747 
L 516.444077 108.954543 
L 517.649178 109.273589 
L 518.854279 109.024893 
L 520.059381 108.998806 
L 521.264482 109.08952 
L 522.469583 108.256702 
L 523.674684 108.117963 
L 524.879785 108.112929 
L 526.084886 108.587661 
L 529.700189 108.71852 
L 533.315493 108.47073 
L 534.520594 108.615759 
L 535.725695 108.612937 
L 536.930796 107.929722 
L 541.751201 107.331729 
L 546.571605 107.324853 
L 547.776706 107.586942 
L 548.981807 107.259889 
L 550.186908 107.553897 
L 551.392009 107.352417 
L 552.597111 107.49921 
L 553.802212 107.373736 
L 556.212414 107.453799 
L 557.417515 107.633265 
L 558.622616 107.384163 
L 559.827717 107.26846 
L 561.032818 107.471949 
L 562.237919 107.414863 
L 563.443021 107.179434 
L 567.058324 108.010642 
L 568.263425 107.699782 
L 570.673627 107.883066 
L 571.878728 107.62903 
L 573.083829 107.984834 
L 575.494032 106.987458 
L 576.699133 107.269679 
L 577.904234 107.056911 
L 579.109335 107.404184 
L 585.134841 107.707376 
L 586.339942 107.416621 
L 587.545043 107.010445 
L 588.750144 107.04946 
L 589.955245 107.285982 
L 591.160346 107.026254 
L 593.570548 107.494527 
L 594.775649 107.270263 
L 597.185852 107.55723 
L 598.390953 107.938574 
L 602.006256 108.729 
L 603.211357 108.644935 
L 604.416458 108.423538 
L 605.621559 108.437016 
L 608.031762 108.968936 
L 609.236863 108.916917 
L 610.441964 108.724269 
L 611.647065 108.308892 
L 612.852166 108.220666 
L 614.057267 108.652482 
L 615.262368 108.508916 
L 616.467469 108.659469 
L 617.672571 109.079713 
L 621.287874 108.235494 
L 622.492975 108.432039 
L 623.698076 108.257645 
L 624.903177 107.783615 
L 628.518481 108.5624 
L 630.928683 108.051258 
L 632.133784 107.638189 
L 634.543986 107.862807 
L 635.749087 107.726515 
L 636.954188 107.351812 
L 638.159289 106.817613 
L 639.364391 106.513527 
L 640.569492 106.369399 
L 641.774593 106.751979 
L 642.979694 106.67744 
L 644.184795 106.778327 
L 645.389896 106.625242 
L 649.005199 106.829907 
L 655.030705 106.289225 
L 656.235806 106.560057 
L 657.440907 106.945444 
L 658.646008 106.617045 
L 659.851109 106.407083 
L 662.261312 106.645342 
L 664.671514 106.577498 
L 667.081716 106.107417 
L 668.286817 106.421347 
L 669.491918 106.198418 
L 670.697019 106.218314 
L 671.902121 106.015776 
L 673.107222 106.263004 
L 674.312323 105.918947 
L 675.517424 105.941642 
L 676.722525 106.186434 
L 677.927626 105.976791 
L 679.132727 106.107568 
L 679.132727 106.107568 
" style="fill:none;stroke:#0000ff;stroke-linecap:square;stroke-width:1.5;"/>
   </g>
   <g id="line2d_19">
    <path clip-path="url(#p246a524928)" d="M 77.787273 273.65973 
L 78.992374 314.421735 
L 80.197475 290.886188 
L 81.402576 300.588909 
L 82.607677 294.116416 
L 83.812778 290.918017 
L 85.017879 281.271946 
L 86.222981 287.327092 
L 87.428082 283.022957 
L 88.633183 284.4979 
L 89.838284 284.588185 
L 91.043385 291.381863 
L 92.248486 285.289624 
L 93.453587 287.874151 
L 95.863789 280.811039 
L 97.068891 282.212132 
L 98.273992 270.230993 
L 99.479093 268.53902 
L 100.684194 273.057038 
L 101.889295 273.521968 
L 103.094396 272.404485 
L 104.299497 273.133164 
L 105.504598 273.457075 
L 106.709699 274.931956 
L 107.914801 272.216498 
L 109.119902 270.612796 
L 110.325003 273.661077 
L 111.530104 272.824273 
L 112.735205 273.114215 
L 113.940306 272.262923 
L 115.145407 267.894514 
L 116.350508 269.140322 
L 117.555609 267.833445 
L 118.760711 269.813597 
L 119.965812 266.94158 
L 121.170913 263.400354 
L 122.376014 262.244777 
L 123.581115 261.57786 
L 124.786216 261.301272 
L 125.991317 263.472863 
L 127.196418 264.903736 
L 128.401519 267.635215 
L 129.606621 268.229683 
L 130.811722 267.411288 
L 132.016823 268.308778 
L 133.221924 266.547105 
L 134.427025 265.927901 
L 135.632126 267.189806 
L 136.837227 266.364659 
L 138.042328 262.320398 
L 139.247429 263.700107 
L 140.452531 266.721656 
L 141.657632 265.446256 
L 142.862733 266.326926 
L 144.067834 266.538983 
L 145.272935 266.44854 
L 146.478036 263.961824 
L 147.683137 264.380148 
L 148.888238 258.950482 
L 151.298441 257.92173 
L 152.503542 258.861331 
L 153.708643 259.323701 
L 154.913744 256.66703 
L 156.118845 258.213217 
L 157.323946 258.808655 
L 158.529047 258.880521 
L 159.734148 258.331341 
L 160.939249 258.581327 
L 162.144351 258.512482 
L 163.349452 259.970877 
L 164.554553 259.790152 
L 165.759654 258.755181 
L 166.964755 260.210854 
L 168.169856 260.304691 
L 169.374957 261.535922 
L 171.785159 261.487499 
L 174.195362 259.213335 
L 175.400463 259.903345 
L 176.605564 259.749679 
L 177.810665 261.090122 
L 179.015766 260.588792 
L 180.220867 261.046235 
L 181.425968 261.147143 
L 182.631069 262.522275 
L 183.836171 262.451343 
L 185.041272 263.323419 
L 186.246373 262.430035 
L 187.451474 260.844943 
L 188.656575 261.877923 
L 189.861676 262.210241 
L 193.476979 264.16005 
L 194.682081 265.090421 
L 195.887182 265.546076 
L 197.092283 266.507663 
L 198.297384 266.740752 
L 199.502485 267.087276 
L 200.707586 265.30605 
L 201.912687 264.475036 
L 203.117788 265.312213 
L 204.322889 265.307055 
L 205.527991 265.791165 
L 206.733092 264.949924 
L 207.938193 263.883337 
L 209.143294 264.186494 
L 210.348395 264.336502 
L 211.553496 264.072153 
L 212.758597 265.271202 
L 213.963698 264.819645 
L 215.168799 265.231006 
L 216.373901 265.243969 
L 217.579002 265.588411 
L 218.784103 266.753693 
L 219.989204 266.117662 
L 221.194305 266.134467 
L 223.604507 265.850161 
L 224.809608 266.187877 
L 226.014709 265.931989 
L 227.219811 266.841096 
L 228.424912 267.152512 
L 229.630013 266.706811 
L 232.040215 268.28876 
L 233.245316 268.501224 
L 236.860619 267.866979 
L 238.065721 268.182697 
L 239.270822 267.692903 
L 240.475923 268.709481 
L 241.681024 269.377692 
L 242.886125 268.871627 
L 244.091226 267.259848 
L 245.296327 266.334975 
L 246.501428 266.31136 
L 247.706529 265.969215 
L 250.116732 264.852565 
L 251.321833 264.991011 
L 252.526934 265.881026 
L 253.732035 266.224118 
L 254.937136 266.206282 
L 256.142237 265.45874 
L 257.347338 265.489792 
L 258.552439 264.961609 
L 259.757541 265.003047 
L 262.167743 265.783489 
L 264.577945 265.822057 
L 265.783046 265.624073 
L 266.988147 266.058333 
L 268.193248 266.034913 
L 270.603451 266.379193 
L 271.808552 265.692419 
L 273.013653 265.821288 
L 274.218754 266.250161 
L 276.628956 265.867468 
L 277.834057 266.012214 
L 279.039158 266.019668 
L 280.244259 265.623088 
L 281.449361 265.743474 
L 282.654462 265.622886 
L 283.859563 266.546956 
L 286.269765 266.274471 
L 287.474866 266.928601 
L 289.885068 267.442083 
L 291.090169 267.396195 
L 292.295271 267.66657 
L 293.500372 267.233357 
L 295.910574 268.084712 
L 297.115675 267.831551 
L 298.320776 268.156258 
L 299.525877 267.52515 
L 300.730978 267.632324 
L 301.936079 267.621142 
L 303.141181 267.433819 
L 305.551383 267.664517 
L 306.756484 267.31518 
L 307.961585 267.231607 
L 310.371787 267.521306 
L 311.576888 267.734932 
L 312.781989 267.425953 
L 313.987091 267.762372 
L 315.192192 267.471623 
L 316.397293 267.482519 
L 317.602394 267.343198 
L 318.807495 267.477882 
L 321.217697 268.278713 
L 322.422798 267.238174 
L 323.627899 267.311591 
L 324.833001 267.653531 
L 327.243203 267.569196 
L 328.448304 267.368186 
L 330.858506 267.75249 
L 333.268708 268.791484 
L 334.473809 268.826836 
L 336.884012 269.225348 
L 339.294214 269.055856 
L 340.499315 269.384292 
L 341.704416 269.37225 
L 342.909517 269.822637 
L 344.114618 269.209998 
L 346.524821 269.68726 
L 347.729922 268.971196 
L 348.935023 268.618131 
L 350.140124 268.974143 
L 351.345225 268.54388 
L 352.550326 268.435849 
L 354.960528 268.773608 
L 356.165629 268.347112 
L 357.370731 268.372541 
L 358.575832 268.164897 
L 359.780933 267.381038 
L 360.986034 267.708079 
L 362.191135 267.601994 
L 363.396236 267.739484 
L 364.601337 268.009815 
L 365.806438 267.5767 
L 367.011539 266.736252 
L 368.216641 266.535667 
L 370.626843 265.535768 
L 373.037045 265.813426 
L 374.242146 265.630312 
L 377.857449 266.119499 
L 379.062551 266.173335 
L 380.267652 265.931449 
L 381.472753 265.81891 
L 382.677854 266.185967 
L 386.293157 266.123495 
L 387.498258 265.609705 
L 388.703359 264.858262 
L 389.908461 265.389202 
L 395.933966 265.541264 
L 397.139067 265.099528 
L 399.549269 265.548676 
L 400.754371 265.380968 
L 401.959472 265.601752 
L 403.164573 265.955838 
L 404.369674 265.883853 
L 407.984977 266.369022 
L 409.190078 265.990089 
L 410.395179 266.085375 
L 411.600281 265.551154 
L 412.805382 265.528677 
L 414.010483 265.135837 
L 415.215584 265.222649 
L 416.420685 264.835029 
L 417.625786 265.174301 
L 420.035988 264.96858 
L 421.241089 264.345608 
L 422.446191 264.135945 
L 423.651292 264.243524 
L 424.856393 264.10251 
L 426.061494 264.453052 
L 427.266595 264.546448 
L 428.471696 264.50884 
L 429.676797 264.218882 
L 430.881898 264.531878 
L 433.292101 263.992186 
L 434.497202 264.13079 
L 436.907404 263.576409 
L 438.112505 263.508695 
L 439.317606 263.763278 
L 440.522707 263.837915 
L 441.727808 263.673725 
L 442.932909 263.779071 
L 444.138011 263.533204 
L 445.343112 263.436493 
L 446.548213 263.128629 
L 447.753314 263.00295 
L 448.958415 263.385163 
L 450.163516 263.638631 
L 451.368617 263.471085 
L 452.573718 263.442533 
L 454.983921 263.991305 
L 456.189022 264.044918 
L 457.394123 263.69732 
L 458.599224 264.048874 
L 464.624729 264.242773 
L 465.829831 264.585935 
L 467.034932 264.685476 
L 468.240033 264.926917 
L 470.650235 265.065925 
L 473.060437 265.260278 
L 474.265538 264.845581 
L 480.291044 265.627176 
L 481.496145 265.957956 
L 482.701246 265.944338 
L 486.316549 266.219136 
L 487.521651 266.133886 
L 488.726752 266.198121 
L 489.931853 266.053342 
L 491.136954 266.183237 
L 494.752257 266.913559 
L 495.957358 266.870905 
L 497.162459 266.940343 
L 498.367561 266.705601 
L 500.777763 266.513375 
L 501.982864 266.598656 
L 503.187965 266.445506 
L 504.393066 266.630817 
L 505.598167 266.408332 
L 506.803268 266.485461 
L 508.008369 266.130414 
L 510.418572 265.92819 
L 511.623673 266.169485 
L 514.033875 265.956538 
L 515.238976 266.226635 
L 517.649178 266.472179 
L 518.854279 266.355385 
L 521.264482 266.434626 
L 522.469583 265.932215 
L 523.674684 265.739294 
L 524.879785 265.755858 
L 526.084886 266.014976 
L 527.289987 266.023726 
L 528.495088 266.186753 
L 530.905291 266.060614 
L 533.315493 265.835658 
L 535.725695 265.932324 
L 536.930796 265.444313 
L 540.546099 265.013386 
L 545.366504 265.024874 
L 546.571605 265.004323 
L 547.776706 265.191108 
L 548.981807 264.95927 
L 550.186908 265.153655 
L 551.392009 264.986233 
L 552.597111 265.069398 
L 555.007313 264.87242 
L 556.212414 264.915044 
L 557.417515 265.091705 
L 559.827717 264.936015 
L 561.032818 265.077391 
L 563.443021 264.839577 
L 567.058324 265.366893 
L 568.263425 265.231595 
L 570.673627 265.287658 
L 571.878728 265.166526 
L 573.083829 265.431713 
L 575.494032 264.825816 
L 576.699133 264.94428 
L 577.904234 264.758136 
L 579.109335 264.981027 
L 582.724638 265.210435 
L 583.929739 265.314348 
L 585.134841 265.282884 
L 586.339942 265.127309 
L 587.545043 264.77721 
L 588.750144 264.814731 
L 589.955245 264.976455 
L 591.160346 264.783409 
L 593.570548 265.144476 
L 594.775649 264.977832 
L 599.596054 265.597759 
L 602.006256 266.035147 
L 605.621559 265.861732 
L 606.826661 265.941172 
L 608.031762 266.175267 
L 609.236863 266.191599 
L 610.441964 266.005065 
L 611.647065 265.599615 
L 612.852166 265.524831 
L 614.057267 265.835769 
L 615.262368 265.834959 
L 616.467469 265.961662 
L 617.672571 266.255761 
L 620.082773 266.083679 
L 621.287874 265.802065 
L 622.492975 265.910928 
L 623.698076 265.771377 
L 624.903177 265.423807 
L 628.518481 265.885259 
L 632.133784 265.249751 
L 634.543986 265.349039 
L 635.749087 265.190232 
L 636.954188 264.871962 
L 638.159289 264.384996 
L 640.569492 264.118539 
L 641.774593 264.373554 
L 642.979694 264.304026 
L 644.184795 264.380179 
L 645.389896 264.303686 
L 649.005199 264.482735 
L 650.210301 264.412905 
L 652.620503 264.451159 
L 655.030705 264.32721 
L 657.440907 264.791801 
L 659.851109 264.406715 
L 662.261312 264.592326 
L 667.081716 264.26255 
L 668.286817 264.454931 
L 669.491918 264.359019 
L 670.697019 264.375078 
L 671.902121 264.245538 
L 673.107222 264.416388 
L 674.312323 264.175756 
L 675.517424 264.217962 
L 676.722525 264.394298 
L 677.927626 264.301447 
L 679.132727 264.380809 
L 679.132727 264.380809 
" style="fill:none;stroke:#ff0000;stroke-linecap:square;stroke-width:1.5;"/>
   </g>
   <g id="line2d_20">
    <path clip-path="url(#p246a524928)" d="M 77.787273 266.395557 
L 78.992374 306.669071 
L 80.197475 272.616427 
L 81.402576 290.369207 
L 82.607677 286.737923 
L 83.812778 286.072557 
L 85.017879 276.48467 
L 86.222981 282.877986 
L 87.428082 279.809615 
L 88.633183 281.50909 
L 89.838284 279.75647 
L 91.043385 285.609718 
L 92.248486 278.590811 
L 93.453587 281.116732 
L 95.863789 272.352543 
L 97.068891 273.739656 
L 98.273992 261.497289 
L 99.479093 260.268573 
L 100.684194 264.682053 
L 101.889295 265.396579 
L 103.094396 262.83749 
L 104.299497 263.690995 
L 105.504598 263.638253 
L 106.709699 265.445215 
L 107.914801 263.049806 
L 109.119902 262.917398 
L 110.325003 265.475806 
L 111.530104 264.484343 
L 112.735205 265.443354 
L 113.940306 265.341997 
L 115.145407 261.877258 
L 116.350508 262.673569 
L 117.555609 261.213687 
L 118.760711 263.353838 
L 119.965812 261.413088 
L 121.170913 257.410278 
L 122.376014 256.275349 
L 123.581115 255.366251 
L 124.786216 254.776208 
L 127.196418 258.398474 
L 128.401519 260.922606 
L 129.606621 261.386983 
L 130.811722 260.782311 
L 132.016823 262.313154 
L 133.221924 260.569978 
L 134.427025 260.382786 
L 135.632126 261.919008 
L 136.837227 261.415341 
L 138.042328 257.535937 
L 139.247429 259.36923 
L 140.452531 262.460946 
L 141.657632 261.100398 
L 142.862733 261.601696 
L 145.272935 261.861848 
L 146.478036 259.810438 
L 147.683137 260.000741 
L 148.888238 254.593766 
L 150.093339 254.354498 
L 151.298441 253.992425 
L 152.503542 255.112736 
L 153.708643 255.781679 
L 154.913744 253.36255 
L 156.118845 255.100698 
L 157.323946 256.038153 
L 158.529047 256.233777 
L 159.734148 255.826655 
L 160.939249 256.09066 
L 162.144351 256.201782 
L 163.349452 257.46417 
L 164.554553 257.517953 
L 165.759654 256.594209 
L 166.964755 257.97303 
L 168.169856 258.340027 
L 169.374957 259.358365 
L 170.580058 259.422265 
L 171.785159 259.255361 
L 174.195362 257.416216 
L 175.400463 258.055397 
L 176.605564 258.000537 
L 177.810665 259.179283 
L 179.015766 258.794974 
L 180.220867 258.95169 
L 181.425968 258.897481 
L 182.631069 259.85741 
L 183.836171 259.74911 
L 185.041272 260.881907 
L 186.246373 260.014027 
L 187.451474 258.909728 
L 188.656575 259.824991 
L 189.861676 260.450006 
L 191.066777 261.3123 
L 192.271878 261.656213 
L 193.476979 262.34573 
L 194.682081 263.23837 
L 195.887182 263.343695 
L 197.092283 264.188827 
L 198.297384 264.403164 
L 199.502485 264.792458 
L 200.707586 263.46374 
L 201.912687 262.74973 
L 203.117788 263.625752 
L 204.322889 263.438317 
L 205.527991 263.823912 
L 207.938193 261.822059 
L 209.143294 262.009415 
L 210.348395 261.854397 
L 211.553496 261.518434 
L 212.758597 262.570103 
L 213.963698 262.11159 
L 215.168799 262.641192 
L 216.373901 262.199956 
L 217.579002 262.534271 
L 218.784103 263.811238 
L 219.989204 263.248594 
L 223.604507 263.345224 
L 224.809608 263.531634 
L 226.014709 263.350118 
L 227.219811 264.114534 
L 228.424912 264.412437 
L 229.630013 263.918288 
L 232.040215 265.577615 
L 233.245316 265.758617 
L 234.450417 265.619124 
L 235.655518 265.361175 
L 236.860619 265.349451 
L 238.065721 265.489942 
L 239.270822 264.795316 
L 240.475923 265.811423 
L 241.681024 266.440172 
L 242.886125 266.056244 
L 244.091226 264.662611 
L 245.296327 263.5529 
L 246.501428 263.361838 
L 250.116732 261.990136 
L 251.321833 261.841829 
L 252.526934 262.734008 
L 253.732035 263.009174 
L 254.937136 263.168318 
L 256.142237 262.51463 
L 257.347338 262.580718 
L 258.552439 261.961779 
L 259.757541 262.026184 
L 262.167743 262.860039 
L 263.372844 262.848077 
L 264.577945 262.72167 
L 265.783046 262.720018 
L 268.193248 263.208398 
L 269.398349 263.311291 
L 270.603451 263.538246 
L 271.808552 262.872782 
L 273.013653 262.917003 
L 274.218754 263.406809 
L 276.628956 262.936053 
L 277.834057 262.929086 
L 279.039158 263.055277 
L 280.244259 262.863888 
L 281.449361 262.996958 
L 282.654462 262.980057 
L 283.859563 263.863394 
L 285.064664 263.818555 
L 286.269765 263.647441 
L 287.474866 264.353787 
L 289.885068 265.031357 
L 291.090169 264.866411 
L 292.295271 265.133415 
L 293.500372 264.927877 
L 294.705473 265.182434 
L 295.910574 265.636227 
L 297.115675 265.237075 
L 298.320776 265.482044 
L 299.525877 264.817884 
L 300.730978 264.901007 
L 303.141181 264.696659 
L 305.551383 264.857841 
L 306.756484 264.525396 
L 307.961585 264.452785 
L 310.371787 264.855502 
L 311.576888 265.266864 
L 312.781989 264.922961 
L 313.987091 265.332483 
L 315.192192 265.05191 
L 316.397293 265.088014 
L 317.602394 264.957431 
L 318.807495 265.200163 
L 321.217697 266.013276 
L 322.422798 265.20749 
L 323.627899 265.341517 
L 324.833001 265.784178 
L 327.243203 265.937892 
L 328.448304 265.80683 
L 329.653405 266.099484 
L 330.858506 266.175777 
L 333.268708 267.117647 
L 334.473809 267.073988 
L 338.089113 267.461309 
L 339.294214 267.308687 
L 340.499315 267.676088 
L 341.704416 267.551229 
L 342.909517 268.103038 
L 344.114618 267.518033 
L 346.524821 267.869019 
L 347.729922 267.261922 
L 348.935023 266.823809 
L 350.140124 267.142128 
L 351.345225 266.639763 
L 353.755427 266.717995 
L 354.960528 266.954536 
L 356.165629 266.567838 
L 357.370731 266.598707 
L 358.575832 266.409456 
L 359.780933 265.788648 
L 360.986034 266.121108 
L 362.191135 266.049613 
L 363.396236 266.189117 
L 364.601337 266.458754 
L 365.806438 266.128288 
L 367.011539 265.415405 
L 368.216641 265.219682 
L 370.626843 264.377786 
L 373.037045 264.750385 
L 374.242146 264.598773 
L 377.857449 265.017926 
L 379.062551 265.004828 
L 380.267652 264.682347 
L 381.472753 264.5245 
L 382.677854 264.91264 
L 386.293157 264.90446 
L 387.498258 264.387708 
L 388.703359 263.728802 
L 389.908461 264.137243 
L 392.318663 264.268889 
L 393.523764 264.434802 
L 395.933966 264.535792 
L 397.139067 264.104059 
L 399.549269 264.380238 
L 400.754371 264.150602 
L 401.959472 264.28226 
L 403.164573 264.575518 
L 404.369674 264.494795 
L 405.574775 264.743788 
L 407.984977 264.949228 
L 409.190078 264.637417 
L 410.395179 264.61828 
L 411.600281 264.14732 
L 412.805382 264.040888 
L 414.010483 263.7732 
L 415.215584 263.875395 
L 416.420685 263.533668 
L 417.625786 263.842342 
L 420.035988 263.629314 
L 421.241089 263.120635 
L 422.446191 262.900438 
L 423.651292 262.948539 
L 424.856393 262.821336 
L 426.061494 263.119682 
L 427.266595 263.264123 
L 428.471696 263.232254 
L 429.676797 263.068431 
L 430.881898 263.298565 
L 433.292101 263.016047 
L 434.497202 263.159383 
L 436.907404 262.707458 
L 438.112505 262.633341 
L 439.317606 262.845551 
L 440.522707 262.887981 
L 441.727808 262.749228 
L 442.932909 262.889506 
L 447.753314 262.366227 
L 448.958415 262.72113 
L 450.163516 262.944311 
L 452.573718 262.864536 
L 454.983921 263.417926 
L 456.189022 263.389961 
L 457.394123 263.090306 
L 458.599224 263.38289 
L 461.009426 263.499814 
L 462.214527 263.387013 
L 464.624729 263.510683 
L 465.829831 263.812182 
L 470.650235 264.261176 
L 471.855336 264.468697 
L 473.060437 264.480582 
L 474.265538 264.14121 
L 475.470639 264.313266 
L 477.880842 264.488262 
L 481.496145 265.119698 
L 482.701246 265.168664 
L 483.906347 265.404364 
L 485.111448 265.469562 
L 487.521651 265.441585 
L 488.726752 265.53339 
L 489.931853 265.369768 
L 491.136954 265.422889 
L 493.547156 266.010041 
L 494.752257 266.202716 
L 495.957358 266.100878 
L 497.162459 266.175199 
L 498.367561 265.858049 
L 500.777763 265.650395 
L 501.982864 265.718554 
L 503.187965 265.564245 
L 504.393066 265.745469 
L 505.598167 265.525881 
L 506.803268 265.685818 
L 508.008369 265.420369 
L 510.418572 265.32602 
L 511.623673 265.588634 
L 514.033875 265.440485 
L 515.238976 265.706913 
L 517.649178 265.851423 
L 518.854279 265.749494 
L 521.264482 265.778092 
L 522.469583 265.434116 
L 523.674684 265.219317 
L 524.879785 265.204181 
L 526.084886 265.444462 
L 532.110392 265.409875 
L 533.315493 265.24873 
L 535.725695 265.355226 
L 536.930796 264.93841 
L 539.340998 264.620025 
L 542.956302 264.440078 
L 546.571605 264.50895 
L 547.776706 264.625498 
L 548.981807 264.405727 
L 550.186908 264.59647 
L 551.392009 264.45702 
L 552.597111 264.575807 
L 555.007313 264.379056 
L 561.032818 264.62982 
L 563.443021 264.411323 
L 564.648122 264.637189 
L 567.058324 264.920311 
L 568.263425 264.776667 
L 571.878728 264.801463 
L 573.083829 265.042001 
L 575.494032 264.689057 
L 576.699133 264.77594 
L 577.904234 264.626823 
L 579.109335 264.83714 
L 585.134841 265.242878 
L 586.339942 265.066248 
L 587.545043 264.683585 
L 589.955245 264.863191 
L 591.160346 264.700604 
L 593.570548 265.012258 
L 594.775649 264.943943 
L 598.390953 265.371451 
L 602.006256 265.942622 
L 605.621559 265.764393 
L 606.826661 265.811829 
L 608.031762 265.985927 
L 609.236863 266.032785 
L 610.441964 265.868888 
L 611.647065 265.453162 
L 612.852166 265.369862 
L 614.057267 265.641103 
L 616.467469 265.818576 
L 617.672571 266.140368 
L 620.082773 266.057184 
L 621.287874 265.854055 
L 622.492975 265.986741 
L 623.698076 265.875995 
L 624.903177 265.572105 
L 628.518481 265.929426 
L 632.133784 265.277949 
L 635.749087 265.244445 
L 636.954188 264.986014 
L 638.159289 264.453208 
L 640.569492 264.33985 
L 641.774593 264.590676 
L 642.979694 264.469309 
L 644.184795 264.555829 
L 645.389896 264.488825 
L 649.005199 264.615722 
L 650.210301 264.529321 
L 652.620503 264.641086 
L 655.030705 264.445668 
L 656.235806 264.590403 
L 657.440907 264.885948 
L 659.851109 264.514947 
L 663.466413 264.691856 
L 664.671514 264.692 
L 665.876615 264.471157 
L 667.081716 264.445547 
L 668.286817 264.571721 
L 669.491918 264.50045 
L 670.697019 264.545743 
L 671.902121 264.330553 
L 673.107222 264.489892 
L 674.312323 264.185831 
L 679.132727 264.330307 
L 679.132727 264.330307 
" style="fill:none;stroke:#008000;stroke-linecap:square;stroke-width:1.5;"/>
   </g>
   <g id="patch_3">
    <path d="M 47.72 390.04 
L 47.72 28.464 
" style="fill:none;stroke:#000000;stroke-linecap:square;stroke-linejoin:miter;stroke-width:0.8;"/>
   </g>
   <g id="patch_4">
    <path d="M 709.2 390.04 
L 709.2 28.464 
" style="fill:none;stroke:#000000;stroke-linecap:square;stroke-linejoin:miter;stroke-width:0.8;"/>
   </g>
   <g id="patch_5">
    <path d="M 47.72 390.04 
L 709.2 390.04 
" style="fill:none;stroke:#000000;stroke-linecap:square;stroke-linejoin:miter;stroke-width:0.8;"/>
   </g>
   <g id="patch_6">
    <path d="M 47.72 28.464 
L 709.2 28.464 
" style="fill:none;stroke:#000000;stroke-linecap:square;stroke-linejoin:miter;stroke-width:0.8;"/>
   </g>
   <g id="text_18">
    <!-- Average ANEES with parameters $\sigma_{process}=$3,  $\sigma_{AIS}=$10, $\sigma_{Radar}=$5 -->
    <g transform="translate(184 22.464)scale(0.12 -0.12)">
     <defs>
      <path d="M 2.984375 54.6875 
L 12.5 54.6875 
L 29.59375 8.796875 
L 46.6875 54.6875 
L 56.203125 54.6875 
L 35.6875 0 
L 23.484375 0 
z
" id="DejaVuSans-118"/>
      <path d="M 45.40625 27.984375 
Q 45.40625 37.75 41.375 43.109375 
Q 37.359375 48.484375 30.078125 48.484375 
Q 22.859375 48.484375 18.828125 43.109375 
Q 14.796875 37.75 14.796875 27.984375 
Q 14.796875 18.265625 18.828125 12.890625 
Q 22.859375 7.515625 30.078125 7.515625 
Q 37.359375 7.515625 41.375 12.890625 
Q 45.40625 18.265625 45.40625 27.984375 
z
M 54.390625 6.78125 
Q 54.390625 -7.171875 48.1875 -13.984375 
Q 42 -20.796875 29.203125 -20.796875 
Q 24.46875 -20.796875 20.265625 -20.09375 
Q 16.0625 -19.390625 12.109375 -17.921875 
L 12.109375 -9.1875 
Q 16.0625 -11.328125 19.921875 -12.34375 
Q 23.78125 -13.375 27.78125 -13.375 
Q 36.625 -13.375 41.015625 -8.765625 
Q 45.40625 -4.15625 45.40625 5.171875 
L 45.40625 9.625 
Q 42.625 4.78125 38.28125 2.390625 
Q 33.9375 0 27.875 0 
Q 17.828125 0 11.671875 7.65625 
Q 5.515625 15.328125 5.515625 27.984375 
Q 5.515625 40.671875 11.671875 48.328125 
Q 17.828125 56 27.875 56 
Q 33.9375 56 38.28125 53.609375 
Q 42.625 51.21875 45.40625 46.390625 
L 45.40625 54.6875 
L 54.390625 54.6875 
z
" id="DejaVuSans-103"/>
      <path d="M 4.203125 54.6875 
L 13.1875 54.6875 
L 24.421875 12.015625 
L 35.59375 54.6875 
L 46.1875 54.6875 
L 57.421875 12.015625 
L 68.609375 54.6875 
L 77.59375 54.6875 
L 63.28125 0 
L 52.6875 0 
L 40.921875 44.828125 
L 29.109375 0 
L 18.5 0 
z
" id="DejaVuSans-119"/>
      <path d="M 54.890625 33.015625 
L 54.890625 0 
L 45.90625 0 
L 45.90625 32.71875 
Q 45.90625 40.484375 42.875 44.328125 
Q 39.84375 48.1875 33.796875 48.1875 
Q 26.515625 48.1875 22.3125 43.546875 
Q 18.109375 38.921875 18.109375 30.90625 
L 18.109375 0 
L 9.078125 0 
L 9.078125 75.984375 
L 18.109375 75.984375 
L 18.109375 46.1875 
Q 21.34375 51.125 25.703125 53.5625 
Q 30.078125 56 35.796875 56 
Q 45.21875 56 50.046875 50.171875 
Q 54.890625 44.34375 54.890625 33.015625 
z
" id="DejaVuSans-104"/>
      <path d="M 18.109375 8.203125 
L 18.109375 -20.796875 
L 9.078125 -20.796875 
L 9.078125 54.6875 
L 18.109375 54.6875 
L 18.109375 46.390625 
Q 20.953125 51.265625 25.265625 53.625 
Q 29.59375 56 35.59375 56 
Q 45.5625 56 51.78125 48.09375 
Q 58.015625 40.1875 58.015625 27.296875 
Q 58.015625 14.40625 51.78125 6.484375 
Q 45.5625 -1.421875 35.59375 -1.421875 
Q 29.59375 -1.421875 25.265625 0.953125 
Q 20.953125 3.328125 18.109375 8.203125 
z
M 48.6875 27.296875 
Q 48.6875 37.203125 44.609375 42.84375 
Q 40.53125 48.484375 33.40625 48.484375 
Q 26.265625 48.484375 22.1875 42.84375 
Q 18.109375 37.203125 18.109375 27.296875 
Q 18.109375 17.390625 22.1875 11.75 
Q 26.265625 6.109375 33.40625 6.109375 
Q 40.53125 6.109375 44.609375 11.75 
Q 48.6875 17.390625 48.6875 27.296875 
z
" id="DejaVuSans-112"/>
      <path d="M 52 44.1875 
Q 55.375 50.25 60.0625 53.125 
Q 64.75 56 71.09375 56 
Q 79.640625 56 84.28125 50.015625 
Q 88.921875 44.046875 88.921875 33.015625 
L 88.921875 0 
L 79.890625 0 
L 79.890625 32.71875 
Q 79.890625 40.578125 77.09375 44.375 
Q 74.3125 48.1875 68.609375 48.1875 
Q 61.625 48.1875 57.5625 43.546875 
Q 53.515625 38.921875 53.515625 30.90625 
L 53.515625 0 
L 44.484375 0 
L 44.484375 32.71875 
Q 44.484375 40.625 41.703125 44.40625 
Q 38.921875 48.1875 33.109375 48.1875 
Q 26.21875 48.1875 22.15625 43.53125 
Q 18.109375 38.875 18.109375 30.90625 
L 18.109375 0 
L 9.078125 0 
L 9.078125 54.6875 
L 18.109375 54.6875 
L 18.109375 46.1875 
Q 21.1875 51.21875 25.484375 53.609375 
Q 29.78125 56 35.6875 56 
Q 41.65625 56 45.828125 52.96875 
Q 50 49.953125 52 44.1875 
z
" id="DejaVuSans-109"/>
      <path d="M 34.671875 47.5625 
Q 27.25 47.5625 22.21875 42.1875 
Q 16.890625 36.578125 15.140625 27.296875 
Q 13.1875 17.484375 16.3125 11.8125 
Q 19.390625 6.203125 26.65625 6.203125 
Q 33.84375 6.203125 39.109375 11.859375 
Q 44.4375 17.53125 46.34375 27.296875 
Q 48.046875 36.234375 45.015625 42.1875 
Q 42.1875 47.5625 34.671875 47.5625 
z
M 36.078125 54.734375 
L 65.921875 54.6875 
L 64.15625 45.703125 
L 54.109375 45.703125 
Q 57.90625 38.09375 55.859375 27.296875 
Q 53.21875 13.875 45.0625 6.25 
Q 36.859375 -1.421875 25.140625 -1.421875 
Q 13.375 -1.421875 8.203125 6.25 
Q 3.03125 13.875 5.671875 27.296875 
Q 8.25 40.765625 16.40625 48.390625 
Q 23.1875 54.734375 36.078125 54.734375 
z
" id="DejaVuSans-Oblique-963"/>
      <path d="M 49.609375 33.6875 
Q 49.609375 40.875 46.484375 44.671875 
Q 43.359375 48.484375 37.5 48.484375 
Q 33.5 48.484375 29.859375 46.4375 
Q 26.21875 44.390625 23.390625 40.484375 
Q 20.609375 36.625 18.9375 31.15625 
Q 17.28125 25.6875 17.28125 20.3125 
Q 17.28125 13.484375 20.40625 9.796875 
Q 23.53125 6.109375 29.296875 6.109375 
Q 33.546875 6.109375 37.1875 8.109375 
Q 40.828125 10.109375 43.40625 13.921875 
Q 46.1875 17.921875 47.890625 23.34375 
Q 49.609375 28.765625 49.609375 33.6875 
z
M 21.78125 46.390625 
Q 25.390625 51.125 30.296875 53.5625 
Q 35.203125 56 41.21875 56 
Q 49.609375 56 54.25 50.5 
Q 58.890625 45.015625 58.890625 35.109375 
Q 58.890625 27 56 19.65625 
Q 53.125 12.3125 47.703125 6.5 
Q 44.09375 2.640625 39.546875 0.609375 
Q 35.015625 -1.421875 29.984375 -1.421875 
Q 24.171875 -1.421875 20.21875 1 
Q 16.265625 3.421875 14.3125 8.203125 
L 8.6875 -20.796875 
L -0.296875 -20.796875 
L 14.40625 54.6875 
L 23.390625 54.6875 
z
" id="DejaVuSans-Oblique-112"/>
      <path d="M 44.578125 46.390625 
Q 43.21875 47.125 41.453125 47.515625 
Q 39.703125 47.90625 37.703125 47.90625 
Q 30.515625 47.90625 25.140625 42.453125 
Q 19.78125 37.015625 18.015625 27.875 
L 12.5 0 
L 3.515625 0 
L 14.203125 54.6875 
L 23.1875 54.6875 
L 21.484375 46.1875 
Q 25.046875 50.921875 30 53.453125 
Q 34.96875 56 40.578125 56 
Q 42.046875 56 43.453125 55.828125 
Q 44.875 55.671875 46.296875 55.28125 
z
" id="DejaVuSans-Oblique-114"/>
      <path d="M 25.390625 -1.421875 
Q 15.765625 -1.421875 10.171875 4.515625 
Q 4.59375 10.453125 4.59375 20.703125 
Q 4.59375 26.65625 6.515625 32.828125 
Q 8.453125 39.015625 11.53125 43.21875 
Q 16.359375 49.75 22.3125 52.875 
Q 28.265625 56 35.796875 56 
Q 45.125 56 50.859375 50.1875 
Q 56.59375 44.390625 56.59375 35.015625 
Q 56.59375 28.515625 54.6875 22.0625 
Q 52.78125 15.625 49.703125 11.375 
Q 44.921875 4.828125 38.96875 1.703125 
Q 33.015625 -1.421875 25.390625 -1.421875 
z
M 13.921875 21 
Q 13.921875 13.578125 17.015625 9.890625 
Q 20.125 6.203125 26.421875 6.203125 
Q 35.453125 6.203125 41.375 14.078125 
Q 47.3125 21.96875 47.3125 34.078125 
Q 47.3125 41.15625 44.140625 44.765625 
Q 40.96875 48.390625 34.8125 48.390625 
Q 29.734375 48.390625 25.78125 46.015625 
Q 21.828125 43.65625 18.703125 38.8125 
Q 16.40625 35.203125 15.15625 30.5625 
Q 13.921875 25.921875 13.921875 21 
z
" id="DejaVuSans-Oblique-111"/>
      <path d="M 53.609375 52.59375 
L 51.8125 43.703125 
Q 48.578125 46.046875 44.9375 47.21875 
Q 41.3125 48.390625 37.40625 48.390625 
Q 33.109375 48.390625 29.21875 46.875 
Q 25.34375 45.359375 22.703125 42.578125 
Q 18.5 38.328125 16.203125 32.609375 
Q 13.921875 26.90625 13.921875 20.796875 
Q 13.921875 13.421875 17.609375 9.8125 
Q 21.296875 6.203125 28.8125 6.203125 
Q 32.515625 6.203125 36.6875 7.328125 
Q 40.875 8.453125 45.40625 10.6875 
L 43.703125 1.8125 
Q 39.796875 0.203125 35.671875 -0.609375 
Q 31.546875 -1.421875 27.203125 -1.421875 
Q 16.3125 -1.421875 10.453125 4.015625 
Q 4.59375 9.46875 4.59375 19.578125 
Q 4.59375 28.078125 7.640625 35.234375 
Q 10.6875 42.390625 16.703125 48.09375 
Q 20.796875 52 26.3125 54 
Q 31.84375 56 38.375 56 
Q 42.1875 56 45.9375 55.140625 
Q 49.703125 54.296875 53.609375 52.59375 
z
" id="DejaVuSans-Oblique-99"/>
      <path d="M 48.09375 32.234375 
Q 48.25 33.015625 48.3125 33.84375 
Q 48.390625 34.671875 48.390625 35.5 
Q 48.390625 41.453125 44.890625 44.921875 
Q 41.40625 48.390625 35.40625 48.390625 
Q 28.71875 48.390625 23.578125 44.15625 
Q 18.453125 39.9375 15.828125 32.171875 
z
M 55.90625 25.203125 
L 14.109375 25.203125 
Q 13.8125 23.34375 13.71875 22.265625 
Q 13.625 21.1875 13.625 20.40625 
Q 13.625 13.625 17.796875 9.90625 
Q 21.96875 6.203125 29.59375 6.203125 
Q 35.453125 6.203125 40.671875 7.515625 
Q 45.90625 8.84375 50.390625 11.375 
L 48.6875 2.484375 
Q 43.84375 0.53125 38.6875 -0.4375 
Q 33.546875 -1.421875 28.21875 -1.421875 
Q 16.84375 -1.421875 10.71875 4.015625 
Q 4.59375 9.46875 4.59375 19.484375 
Q 4.59375 28.03125 7.640625 35.375 
Q 10.6875 42.71875 16.609375 48.484375 
Q 20.40625 52.09375 25.65625 54.046875 
Q 30.90625 56 36.8125 56 
Q 46.09375 56 51.578125 50.4375 
Q 57.078125 44.875 57.078125 35.5 
Q 57.078125 33.25 56.78125 30.6875 
Q 56.5 28.125 55.90625 25.203125 
z
" id="DejaVuSans-Oblique-101"/>
      <path d="M 50 53.078125 
L 48.296875 44.578125 
Q 44.734375 46.53125 40.765625 47.5 
Q 36.8125 48.484375 32.625 48.484375 
Q 25.53125 48.484375 21.453125 46.0625 
Q 17.390625 43.65625 17.390625 39.5 
Q 17.390625 34.671875 26.859375 32.078125 
Q 27.59375 31.890625 27.9375 31.78125 
L 30.8125 30.90625 
Q 39.796875 28.421875 42.796875 25.6875 
Q 45.796875 22.953125 45.796875 18.21875 
Q 45.796875 9.515625 38.890625 4.046875 
Q 31.984375 -1.421875 20.796875 -1.421875 
Q 16.453125 -1.421875 11.671875 -0.578125 
Q 6.890625 0.25 1.125 2 
L 2.875 11.28125 
Q 7.8125 8.734375 12.59375 7.421875 
Q 17.390625 6.109375 21.78125 6.109375 
Q 28.375 6.109375 32.5 8.9375 
Q 36.625 11.765625 36.625 16.109375 
Q 36.625 20.796875 25.78125 23.6875 
L 24.859375 23.921875 
L 21.78125 24.703125 
Q 14.9375 26.515625 11.765625 29.46875 
Q 8.59375 32.421875 8.59375 37.015625 
Q 8.59375 45.75 15.15625 50.875 
Q 21.734375 56 33.015625 56 
Q 37.453125 56 41.671875 55.265625 
Q 45.90625 54.546875 50 53.078125 
z
" id="DejaVuSans-Oblique-115"/>
      <path d="M 10.59375 45.40625 
L 73.1875 45.40625 
L 73.1875 37.203125 
L 10.59375 37.203125 
z
M 10.59375 25.484375 
L 73.1875 25.484375 
L 73.1875 17.1875 
L 10.59375 17.1875 
z
" id="DejaVuSans-61"/>
      <path d="M 11.71875 12.40625 
L 22.015625 12.40625 
L 22.015625 4 
L 14.015625 -11.625 
L 7.71875 -11.625 
L 11.71875 4 
z
" id="DejaVuSans-44"/>
      <path d="M 36.8125 72.90625 
L 48 72.90625 
L 61.53125 0 
L 51.21875 0 
L 48.1875 18.703125 
L 15.375 18.703125 
L 5.078125 0 
L -5.328125 0 
z
M 40.375 63.1875 
L 19.921875 26.90625 
L 46.6875 26.90625 
z
" id="DejaVuSans-Oblique-65"/>
      <path d="M 16.890625 72.90625 
L 26.8125 72.90625 
L 12.59375 0 
L 2.6875 0 
z
" id="DejaVuSans-Oblique-73"/>
      <path d="M 60.296875 70.515625 
L 58.40625 60.890625 
Q 53.46875 63.53125 48.609375 64.875 
Q 43.75 66.21875 39.203125 66.21875 
Q 30.375 66.21875 25.140625 62.359375 
Q 19.921875 58.5 19.921875 52.09375 
Q 19.921875 48.578125 21.84375 46.703125 
Q 23.78125 44.828125 31.78125 42.671875 
L 37.703125 41.21875 
Q 47.703125 38.625 51.609375 34.640625 
Q 55.515625 30.671875 55.515625 23.484375 
Q 55.515625 12.453125 46.84375 5.515625 
Q 38.1875 -1.421875 24.03125 -1.421875 
Q 18.21875 -1.421875 12.359375 -0.265625 
Q 6.5 0.875 0.59375 3.21875 
L 2.59375 13.375 
Q 8.015625 10.015625 13.453125 8.296875 
Q 18.890625 6.59375 24.3125 6.59375 
Q 33.546875 6.59375 39.109375 10.6875 
Q 44.671875 14.796875 44.671875 21.390625 
Q 44.671875 25.78125 42.453125 28.046875 
Q 40.234375 30.328125 32.90625 32.171875 
L 27 33.6875 
Q 16.890625 36.328125 13.203125 39.765625 
Q 9.515625 43.21875 9.515625 49.421875 
Q 9.515625 60.296875 17.890625 67.25 
Q 26.265625 74.21875 39.703125 74.21875 
Q 44.921875 74.21875 50.046875 73.28125 
Q 55.171875 72.359375 60.296875 70.515625 
z
" id="DejaVuSans-Oblique-83"/>
      <path d="M 25.203125 64.796875 
L 20.21875 38.921875 
L 32.90625 38.921875 
Q 40.375 38.921875 44.984375 43.046875 
Q 49.609375 47.171875 49.609375 53.8125 
Q 49.609375 59.125 46.5 61.953125 
Q 43.40625 64.796875 37.59375 64.796875 
z
M 43.3125 35.015625 
Q 46.4375 34.28125 48.515625 31.390625 
Q 50.59375 28.515625 53.328125 19.921875 
L 59.515625 0 
L 49.125 0 
L 43.40625 18.703125 
Q 41.21875 25.921875 38.328125 28.359375 
Q 35.453125 30.8125 29.5 30.8125 
L 18.609375 30.8125 
L 12.59375 0 
L 2.6875 0 
L 16.890625 72.90625 
L 39.109375 72.90625 
Q 49.21875 72.90625 54.609375 68.328125 
Q 60.015625 63.765625 60.015625 55.171875 
Q 60.015625 47.5625 55.421875 41.984375 
Q 50.828125 36.421875 43.3125 35.015625 
z
" id="DejaVuSans-Oblique-82"/>
      <path d="M 53.71875 31.203125 
L 47.609375 0 
L 38.625 0 
L 40.28125 8.296875 
Q 36.328125 3.421875 31.265625 1 
Q 26.21875 -1.421875 20.015625 -1.421875 
Q 13.03125 -1.421875 8.5625 2.84375 
Q 4.109375 7.125 4.109375 13.8125 
Q 4.109375 23.390625 11.75 28.953125 
Q 19.390625 34.515625 32.8125 34.515625 
L 45.3125 34.515625 
L 45.796875 36.921875 
Q 45.90625 37.3125 45.953125 37.765625 
Q 46 38.234375 46 39.203125 
Q 46 43.5625 42.453125 45.96875 
Q 38.921875 48.390625 32.515625 48.390625 
Q 28.125 48.390625 23.5 47.265625 
Q 18.890625 46.140625 14.015625 43.890625 
L 15.578125 52.203125 
Q 20.65625 54.109375 25.515625 55.046875 
Q 30.375 56 34.90625 56 
Q 44.578125 56 49.625 51.796875 
Q 54.6875 47.609375 54.6875 39.59375 
Q 54.6875 37.984375 54.4375 35.8125 
Q 54.203125 33.640625 53.71875 31.203125 
z
M 44 27.484375 
L 35.015625 27.484375 
Q 23.96875 27.484375 18.671875 24.53125 
Q 13.375 21.578125 13.375 15.375 
Q 13.375 11.078125 16.078125 8.640625 
Q 18.796875 6.203125 23.578125 6.203125 
Q 30.90625 6.203125 36.375 11.453125 
Q 41.84375 16.703125 43.609375 25.484375 
z
" id="DejaVuSans-Oblique-97"/>
      <path d="M 41.796875 8.203125 
Q 38.1875 3.46875 33.25 1.015625 
Q 28.328125 -1.421875 22.3125 -1.421875 
Q 14.109375 -1.421875 9.34375 4.171875 
Q 4.59375 9.765625 4.59375 19.484375 
Q 4.59375 27.59375 7.46875 34.9375 
Q 10.359375 42.28125 15.828125 48.09375 
Q 19.4375 51.953125 23.96875 53.96875 
Q 28.515625 56 33.5 56 
Q 38.765625 56 42.796875 53.453125 
Q 46.828125 50.921875 49.03125 46.1875 
L 54.890625 75.984375 
L 63.921875 75.984375 
L 49.125 0 
L 40.09375 0 
z
M 13.921875 21.09375 
Q 13.921875 14.015625 17.109375 10.0625 
Q 20.3125 6.109375 25.984375 6.109375 
Q 30.171875 6.109375 33.765625 8.125 
Q 37.359375 10.15625 40.09375 14.109375 
Q 42.96875 18.21875 44.625 23.578125 
Q 46.296875 28.953125 46.296875 34.1875 
Q 46.296875 40.96875 43.09375 44.765625 
Q 39.890625 48.578125 34.28125 48.578125 
Q 30.03125 48.578125 26.359375 46.578125 
Q 22.703125 44.578125 20.125 40.828125 
Q 17.28125 36.765625 15.59375 31.390625 
Q 13.921875 26.03125 13.921875 21.09375 
z
" id="DejaVuSans-Oblique-100"/>
     </defs>
     <use transform="translate(0 0.015625)" xlink:href="#DejaVuSans-65"/>
     <use transform="translate(68.408203 0.015625)" xlink:href="#DejaVuSans-118"/>
     <use transform="translate(127.587891 0.015625)" xlink:href="#DejaVuSans-101"/>
     <use transform="translate(189.111328 0.015625)" xlink:href="#DejaVuSans-114"/>
     <use transform="translate(230.224609 0.015625)" xlink:href="#DejaVuSans-97"/>
     <use transform="translate(291.503906 0.015625)" xlink:href="#DejaVuSans-103"/>
     <use transform="translate(354.980469 0.015625)" xlink:href="#DejaVuSans-101"/>
     <use transform="translate(416.503906 0.015625)" xlink:href="#DejaVuSans-32"/>
     <use transform="translate(448.291016 0.015625)" xlink:href="#DejaVuSans-65"/>
     <use transform="translate(516.699219 0.015625)" xlink:href="#DejaVuSans-78"/>
     <use transform="translate(591.503906 0.015625)" xlink:href="#DejaVuSans-69"/>
     <use transform="translate(654.6875 0.015625)" xlink:href="#DejaVuSans-69"/>
     <use transform="translate(717.871094 0.015625)" xlink:href="#DejaVuSans-83"/>
     <use transform="translate(781.347656 0.015625)" xlink:href="#DejaVuSans-32"/>
     <use transform="translate(813.134766 0.015625)" xlink:href="#DejaVuSans-119"/>
     <use transform="translate(894.921875 0.015625)" xlink:href="#DejaVuSans-105"/>
     <use transform="translate(922.705078 0.015625)" xlink:href="#DejaVuSans-116"/>
     <use transform="translate(961.914062 0.015625)" xlink:href="#DejaVuSans-104"/>
     <use transform="translate(1025.292969 0.015625)" xlink:href="#DejaVuSans-32"/>
     <use transform="translate(1057.080078 0.015625)" xlink:href="#DejaVuSans-112"/>
     <use transform="translate(1120.556641 0.015625)" xlink:href="#DejaVuSans-97"/>
     <use transform="translate(1181.835938 0.015625)" xlink:href="#DejaVuSans-114"/>
     <use transform="translate(1222.949219 0.015625)" xlink:href="#DejaVuSans-97"/>
     <use transform="translate(1284.228516 0.015625)" xlink:href="#DejaVuSans-109"/>
     <use transform="translate(1381.640625 0.015625)" xlink:href="#DejaVuSans-101"/>
     <use transform="translate(1443.164062 0.015625)" xlink:href="#DejaVuSans-116"/>
     <use transform="translate(1482.373047 0.015625)" xlink:href="#DejaVuSans-101"/>
     <use transform="translate(1543.896484 0.015625)" xlink:href="#DejaVuSans-114"/>
     <use transform="translate(1585.009766 0.015625)" xlink:href="#DejaVuSans-115"/>
     <use transform="translate(1637.109375 0.015625)" xlink:href="#DejaVuSans-32"/>
     <use transform="translate(1668.896484 0.015625)" xlink:href="#DejaVuSans-Oblique-963"/>
     <use transform="translate(1732.275391 -16.390625)scale(0.7)" xlink:href="#DejaVuSans-Oblique-112"/>
     <use transform="translate(1776.708984 -16.390625)scale(0.7)" xlink:href="#DejaVuSans-Oblique-114"/>
     <use transform="translate(1805.488281 -16.390625)scale(0.7)" xlink:href="#DejaVuSans-Oblique-111"/>
     <use transform="translate(1848.31543 -16.390625)scale(0.7)" xlink:href="#DejaVuSans-Oblique-99"/>
     <use transform="translate(1886.801758 -16.390625)scale(0.7)" xlink:href="#DejaVuSans-Oblique-101"/>
     <use transform="translate(1929.868164 -16.390625)scale(0.7)" xlink:href="#DejaVuSans-Oblique-115"/>
     <use transform="translate(1966.337891 -16.390625)scale(0.7)" xlink:href="#DejaVuSans-Oblique-115"/>
     <use transform="translate(2025.024414 0.015625)" xlink:href="#DejaVuSans-61"/>
     <use transform="translate(2128.295898 0.015625)" xlink:href="#DejaVuSans-51"/>
     <use transform="translate(2191.918945 0.015625)" xlink:href="#DejaVuSans-44"/>
     <use transform="translate(2223.706055 0.015625)" xlink:href="#DejaVuSans-32"/>
     <use transform="translate(2255.493164 0.015625)" xlink:href="#DejaVuSans-32"/>
     <use transform="translate(2287.280273 0.015625)" xlink:href="#DejaVuSans-Oblique-963"/>
     <use transform="translate(2350.65918 -16.390625)scale(0.7)" xlink:href="#DejaVuSans-Oblique-65"/>
     <use transform="translate(2398.544922 -16.390625)scale(0.7)" xlink:href="#DejaVuSans-Oblique-73"/>
     <use transform="translate(2419.189453 -16.390625)scale(0.7)" xlink:href="#DejaVuSans-Oblique-83"/>
     <use transform="translate(2485.839844 0.015625)" xlink:href="#DejaVuSans-61"/>
     <use transform="translate(2589.111328 0.015625)" xlink:href="#DejaVuSans-49"/>
     <use transform="translate(2652.734375 0.015625)" xlink:href="#DejaVuSans-48"/>
     <use transform="translate(2716.357422 0.015625)" xlink:href="#DejaVuSans-44"/>
     <use transform="translate(2748.144531 0.015625)" xlink:href="#DejaVuSans-32"/>
     <use transform="translate(2779.931641 0.015625)" xlink:href="#DejaVuSans-Oblique-963"/>
     <use transform="translate(2843.310547 -16.390625)scale(0.7)" xlink:href="#DejaVuSans-Oblique-82"/>
     <use transform="translate(2891.948242 -16.390625)scale(0.7)" xlink:href="#DejaVuSans-Oblique-97"/>
     <use transform="translate(2934.84375 -16.390625)scale(0.7)" xlink:href="#DejaVuSans-Oblique-100"/>
     <use transform="translate(2979.277344 -16.390625)scale(0.7)" xlink:href="#DejaVuSans-Oblique-97"/>
     <use transform="translate(3022.172852 -16.390625)scale(0.7)" xlink:href="#DejaVuSans-Oblique-114"/>
     <use transform="translate(3073.168945 0.015625)" xlink:href="#DejaVuSans-61"/>
     <use transform="translate(3176.44043 0.015625)" xlink:href="#DejaVuSans-53"/>
    </g>
   </g>
   <g id="legend_1">
    <g id="patch_7">
     <path d="M 566.607813 95.1765 
L 702.2 95.1765 
Q 704.2 95.1765 704.2 93.1765 
L 704.2 35.464 
Q 704.2 33.464 702.2 33.464 
L 566.607813 33.464 
Q 564.607813 33.464 564.607813 35.464 
L 564.607813 93.1765 
Q 564.607813 95.1765 566.607813 95.1765 
z
" style="fill:#ffffff;opacity:0.8;stroke:#cccccc;stroke-linejoin:miter;"/>
    </g>
    <g id="line2d_21">
     <path d="M 568.607813 41.562438 
L 588.607813 41.562438 
" style="fill:none;stroke:#000000;stroke-linecap:square;stroke-width:1.5;"/>
    </g>
    <g id="line2d_22"/>
    <g id="text_19">
     <!-- Confidence Intervals -->
     <g transform="translate(596.607813 45.062438)scale(0.1 -0.1)">
      <defs>
       <path d="M 37.109375 75.984375 
L 37.109375 68.5 
L 28.515625 68.5 
Q 23.6875 68.5 21.796875 66.546875 
Q 19.921875 64.59375 19.921875 59.515625 
L 19.921875 54.6875 
L 34.71875 54.6875 
L 34.71875 47.703125 
L 19.921875 47.703125 
L 19.921875 0 
L 10.890625 0 
L 10.890625 47.703125 
L 2.296875 47.703125 
L 2.296875 54.6875 
L 10.890625 54.6875 
L 10.890625 58.5 
Q 10.890625 67.625 15.140625 71.796875 
Q 19.390625 75.984375 28.609375 75.984375 
z
" id="DejaVuSans-102"/>
       <path d="M 45.40625 46.390625 
L 45.40625 75.984375 
L 54.390625 75.984375 
L 54.390625 0 
L 45.40625 0 
L 45.40625 8.203125 
Q 42.578125 3.328125 38.25 0.953125 
Q 33.9375 -1.421875 27.875 -1.421875 
Q 17.96875 -1.421875 11.734375 6.484375 
Q 5.515625 14.40625 5.515625 27.296875 
Q 5.515625 40.1875 11.734375 48.09375 
Q 17.96875 56 27.875 56 
Q 33.9375 56 38.25 53.625 
Q 42.578125 51.265625 45.40625 46.390625 
z
M 14.796875 27.296875 
Q 14.796875 17.390625 18.875 11.75 
Q 22.953125 6.109375 30.078125 6.109375 
Q 37.203125 6.109375 41.296875 11.75 
Q 45.40625 17.390625 45.40625 27.296875 
Q 45.40625 37.203125 41.296875 42.84375 
Q 37.203125 48.484375 30.078125 48.484375 
Q 22.953125 48.484375 18.875 42.84375 
Q 14.796875 37.203125 14.796875 27.296875 
z
" id="DejaVuSans-100"/>
       <path d="M 48.78125 52.59375 
L 48.78125 44.1875 
Q 44.96875 46.296875 41.140625 47.34375 
Q 37.3125 48.390625 33.40625 48.390625 
Q 24.65625 48.390625 19.8125 42.84375 
Q 14.984375 37.3125 14.984375 27.296875 
Q 14.984375 17.28125 19.8125 11.734375 
Q 24.65625 6.203125 33.40625 6.203125 
Q 37.3125 6.203125 41.140625 7.25 
Q 44.96875 8.296875 48.78125 10.40625 
L 48.78125 2.09375 
Q 45.015625 0.34375 40.984375 -0.53125 
Q 36.96875 -1.421875 32.421875 -1.421875 
Q 20.0625 -1.421875 12.78125 6.34375 
Q 5.515625 14.109375 5.515625 27.296875 
Q 5.515625 40.671875 12.859375 48.328125 
Q 20.21875 56 33.015625 56 
Q 37.15625 56 41.109375 55.140625 
Q 45.0625 54.296875 48.78125 52.59375 
z
" id="DejaVuSans-99"/>
       <path d="M 9.8125 72.90625 
L 19.671875 72.90625 
L 19.671875 0 
L 9.8125 0 
z
" id="DejaVuSans-73"/>
       <path d="M 9.421875 75.984375 
L 18.40625 75.984375 
L 18.40625 0 
L 9.421875 0 
z
" id="DejaVuSans-108"/>
      </defs>
      <use xlink:href="#DejaVuSans-67"/>
      <use x="69.824219" xlink:href="#DejaVuSans-111"/>
      <use x="131.005859" xlink:href="#DejaVuSans-110"/>
      <use x="194.384766" xlink:href="#DejaVuSans-102"/>
      <use x="229.589844" xlink:href="#DejaVuSans-105"/>
      <use x="257.373047" xlink:href="#DejaVuSans-100"/>
      <use x="320.849609" xlink:href="#DejaVuSans-101"/>
      <use x="382.373047" xlink:href="#DejaVuSans-110"/>
      <use x="445.751953" xlink:href="#DejaVuSans-99"/>
      <use x="500.732422" xlink:href="#DejaVuSans-101"/>
      <use x="562.255859" xlink:href="#DejaVuSans-32"/>
      <use x="594.042969" xlink:href="#DejaVuSans-73"/>
      <use x="623.535156" xlink:href="#DejaVuSans-110"/>
      <use x="686.914062" xlink:href="#DejaVuSans-116"/>
      <use x="726.123047" xlink:href="#DejaVuSans-101"/>
      <use x="787.646484" xlink:href="#DejaVuSans-114"/>
      <use x="828.759766" xlink:href="#DejaVuSans-118"/>
      <use x="887.939453" xlink:href="#DejaVuSans-97"/>
      <use x="949.21875" xlink:href="#DejaVuSans-108"/>
      <use x="977.001953" xlink:href="#DejaVuSans-115"/>
     </g>
    </g>
    <g id="line2d_23">
     <path d="M 568.607813 56.240563 
L 588.607813 56.240563 
" style="fill:none;stroke:#0000ff;stroke-linecap:square;stroke-width:1.5;"/>
    </g>
    <g id="line2d_24"/>
    <g id="text_20">
     <!-- Independent -->
     <g transform="translate(596.607813 59.740563)scale(0.1 -0.1)">
      <use xlink:href="#DejaVuSans-73"/>
      <use x="29.492188" xlink:href="#DejaVuSans-110"/>
      <use x="92.871094" xlink:href="#DejaVuSans-100"/>
      <use x="156.347656" xlink:href="#DejaVuSans-101"/>
      <use x="217.871094" xlink:href="#DejaVuSans-112"/>
      <use x="281.347656" xlink:href="#DejaVuSans-101"/>
      <use x="342.871094" xlink:href="#DejaVuSans-110"/>
      <use x="406.25" xlink:href="#DejaVuSans-100"/>
      <use x="469.726562" xlink:href="#DejaVuSans-101"/>
      <use x="531.25" xlink:href="#DejaVuSans-110"/>
      <use x="594.628906" xlink:href="#DejaVuSans-116"/>
     </g>
    </g>
    <g id="line2d_25">
     <path d="M 568.607813 70.918688 
L 588.607813 70.918688 
" style="fill:none;stroke:#ff0000;stroke-linecap:square;stroke-width:1.5;"/>
    </g>
    <g id="line2d_26"/>
    <g id="text_21">
     <!-- Dependent -->
     <g transform="translate(596.607813 74.418688)scale(0.1 -0.1)">
      <defs>
       <path d="M 19.671875 64.796875 
L 19.671875 8.109375 
L 31.59375 8.109375 
Q 46.6875 8.109375 53.6875 14.9375 
Q 60.6875 21.78125 60.6875 36.53125 
Q 60.6875 51.171875 53.6875 57.984375 
Q 46.6875 64.796875 31.59375 64.796875 
z
M 9.8125 72.90625 
L 30.078125 72.90625 
Q 51.265625 72.90625 61.171875 64.09375 
Q 71.09375 55.28125 71.09375 36.53125 
Q 71.09375 17.671875 61.125 8.828125 
Q 51.171875 0 30.078125 0 
L 9.8125 0 
z
" id="DejaVuSans-68"/>
      </defs>
      <use xlink:href="#DejaVuSans-68"/>
      <use x="77.001953" xlink:href="#DejaVuSans-101"/>
      <use x="138.525391" xlink:href="#DejaVuSans-112"/>
      <use x="202.001953" xlink:href="#DejaVuSans-101"/>
      <use x="263.525391" xlink:href="#DejaVuSans-110"/>
      <use x="326.904297" xlink:href="#DejaVuSans-100"/>
      <use x="390.380859" xlink:href="#DejaVuSans-101"/>
      <use x="451.904297" xlink:href="#DejaVuSans-110"/>
      <use x="515.283203" xlink:href="#DejaVuSans-116"/>
     </g>
    </g>
    <g id="line2d_27">
     <path d="M 568.607813 85.596813 
L 588.607813 85.596813 
" style="fill:none;stroke:#008000;stroke-linecap:square;stroke-width:1.5;"/>
    </g>
    <g id="line2d_28"/>
    <g id="text_22">
     <!-- AIS as measurement -->
     <g transform="translate(596.607813 89.096813)scale(0.1 -0.1)">
      <defs>
       <path d="M 8.5 21.578125 
L 8.5 54.6875 
L 17.484375 54.6875 
L 17.484375 21.921875 
Q 17.484375 14.15625 20.5 10.265625 
Q 23.53125 6.390625 29.59375 6.390625 
Q 36.859375 6.390625 41.078125 11.03125 
Q 45.3125 15.671875 45.3125 23.6875 
L 45.3125 54.6875 
L 54.296875 54.6875 
L 54.296875 0 
L 45.3125 0 
L 45.3125 8.40625 
Q 42.046875 3.421875 37.71875 1 
Q 33.40625 -1.421875 27.6875 -1.421875 
Q 18.265625 -1.421875 13.375 4.4375 
Q 8.5 10.296875 8.5 21.578125 
z
M 31.109375 56 
z
" id="DejaVuSans-117"/>
      </defs>
      <use xlink:href="#DejaVuSans-65"/>
      <use x="68.408203" xlink:href="#DejaVuSans-73"/>
      <use x="97.900391" xlink:href="#DejaVuSans-83"/>
      <use x="161.376953" xlink:href="#DejaVuSans-32"/>
      <use x="193.164062" xlink:href="#DejaVuSans-97"/>
      <use x="254.443359" xlink:href="#DejaVuSans-115"/>
      <use x="306.542969" xlink:href="#DejaVuSans-32"/>
      <use x="338.330078" xlink:href="#DejaVuSans-109"/>
      <use x="435.742188" xlink:href="#DejaVuSans-101"/>
      <use x="497.265625" xlink:href="#DejaVuSans-97"/>
      <use x="558.544922" xlink:href="#DejaVuSans-115"/>
      <use x="610.644531" xlink:href="#DejaVuSans-117"/>
      <use x="674.023438" xlink:href="#DejaVuSans-114"/>
      <use x="712.886719" xlink:href="#DejaVuSans-101"/>
      <use x="774.410156" xlink:href="#DejaVuSans-109"/>
      <use x="871.822266" xlink:href="#DejaVuSans-101"/>
      <use x="933.345703" xlink:href="#DejaVuSans-110"/>
      <use x="996.724609" xlink:href="#DejaVuSans-116"/>
     </g>
    </g>
   </g>
  </g>
 </g>
 <defs>
  <clipPath id="p246a524928">
   <rect height="361.576" width="661.48" x="47.72" y="28.464"/>
  </clipPath>
 </defs>
</svg>
