<?xml version="1.0" encoding="utf-8" standalone="no"?>
<!DOCTYPE svg PUBLIC "-//W3C//DTD SVG 1.1//EN"
  "http://www.w3.org/Graphics/SVG/1.1/DTD/svg11.dtd">
<!-- Created with matplotlib (https://matplotlib.org/) -->
<svg height="432pt" version="1.1" viewBox="0 0 720 432" width="720pt" xmlns="http://www.w3.org/2000/svg" xmlns:xlink="http://www.w3.org/1999/xlink">
 <metadata>
  <rdf:RDF xmlns:cc="http://creativecommons.org/ns#" xmlns:dc="http://purl.org/dc/elements/1.1/" xmlns:rdf="http://www.w3.org/1999/02/22-rdf-syntax-ns#">
   <cc:Work>
    <dc:type rdf:resource="http://purl.org/dc/dcmitype/StillImage"/>
    <dc:date>2020-10-14T12:14:35.229235</dc:date>
    <dc:format>image/svg+xml</dc:format>
    <dc:creator>
     <cc:Agent>
      <dc:title>Matplotlib v3.3.1, https://matplotlib.org/</dc:title>
     </cc:Agent>
    </dc:creator>
   </cc:Work>
  </rdf:RDF>
 </metadata>
 <defs>
  <style type="text/css">*{stroke-linecap:butt;stroke-linejoin:round;}</style>
 </defs>
 <g id="figure_1">
  <g id="patch_1">
   <path d="M 0 432 
L 720 432 
L 720 0 
L 0 0 
z
" style="fill:#ffffff;"/>
  </g>
  <g id="axes_1">
   <g id="patch_2">
    <path d="M 47.72 390.04 
L 709.2 390.04 
L 709.2 28.464 
L 47.72 28.464 
z
" style="fill:#ffffff;"/>
   </g>
   <g id="matplotlib.axis_1">
    <g id="xtick_1">
     <g id="line2d_1">
      <defs>
       <path d="M 0 0 
L 0 3.5 
" id="m4412b1fbd6" style="stroke:#000000;stroke-width:0.8;"/>
      </defs>
      <g>
       <use style="stroke:#000000;stroke-width:0.8;" x="77.787273" xlink:href="#m4412b1fbd6" y="390.04"/>
      </g>
     </g>
     <g id="text_1">
      <!-- 0 -->
      <g transform="translate(74.606023 404.638438)scale(0.1 -0.1)">
       <defs>
        <path d="M 31.78125 66.40625 
Q 24.171875 66.40625 20.328125 58.90625 
Q 16.5 51.421875 16.5 36.375 
Q 16.5 21.390625 20.328125 13.890625 
Q 24.171875 6.390625 31.78125 6.390625 
Q 39.453125 6.390625 43.28125 13.890625 
Q 47.125 21.390625 47.125 36.375 
Q 47.125 51.421875 43.28125 58.90625 
Q 39.453125 66.40625 31.78125 66.40625 
z
M 31.78125 74.21875 
Q 44.046875 74.21875 50.515625 64.515625 
Q 56.984375 54.828125 56.984375 36.375 
Q 56.984375 17.96875 50.515625 8.265625 
Q 44.046875 -1.421875 31.78125 -1.421875 
Q 19.53125 -1.421875 13.0625 8.265625 
Q 6.59375 17.96875 6.59375 36.375 
Q 6.59375 54.828125 13.0625 64.515625 
Q 19.53125 74.21875 31.78125 74.21875 
z
" id="DejaVuSans-48"/>
       </defs>
       <use xlink:href="#DejaVuSans-48"/>
      </g>
     </g>
    </g>
    <g id="xtick_2">
     <g id="line2d_2">
      <g>
       <use style="stroke:#000000;stroke-width:0.8;" x="198.297384" xlink:href="#m4412b1fbd6" y="390.04"/>
      </g>
     </g>
     <g id="text_2">
      <!-- 100 -->
      <g transform="translate(188.753634 404.638438)scale(0.1 -0.1)">
       <defs>
        <path d="M 12.40625 8.296875 
L 28.515625 8.296875 
L 28.515625 63.921875 
L 10.984375 60.40625 
L 10.984375 69.390625 
L 28.421875 72.90625 
L 38.28125 72.90625 
L 38.28125 8.296875 
L 54.390625 8.296875 
L 54.390625 0 
L 12.40625 0 
z
" id="DejaVuSans-49"/>
       </defs>
       <use xlink:href="#DejaVuSans-49"/>
       <use x="63.623047" xlink:href="#DejaVuSans-48"/>
       <use x="127.246094" xlink:href="#DejaVuSans-48"/>
      </g>
     </g>
    </g>
    <g id="xtick_3">
     <g id="line2d_3">
      <g>
       <use style="stroke:#000000;stroke-width:0.8;" x="318.807495" xlink:href="#m4412b1fbd6" y="390.04"/>
      </g>
     </g>
     <g id="text_3">
      <!-- 200 -->
      <g transform="translate(309.263745 404.638438)scale(0.1 -0.1)">
       <defs>
        <path d="M 19.1875 8.296875 
L 53.609375 8.296875 
L 53.609375 0 
L 7.328125 0 
L 7.328125 8.296875 
Q 12.9375 14.109375 22.625 23.890625 
Q 32.328125 33.6875 34.8125 36.53125 
Q 39.546875 41.84375 41.421875 45.53125 
Q 43.3125 49.21875 43.3125 52.78125 
Q 43.3125 58.59375 39.234375 62.25 
Q 35.15625 65.921875 28.609375 65.921875 
Q 23.96875 65.921875 18.8125 64.3125 
Q 13.671875 62.703125 7.8125 59.421875 
L 7.8125 69.390625 
Q 13.765625 71.78125 18.9375 73 
Q 24.125 74.21875 28.421875 74.21875 
Q 39.75 74.21875 46.484375 68.546875 
Q 53.21875 62.890625 53.21875 53.421875 
Q 53.21875 48.921875 51.53125 44.890625 
Q 49.859375 40.875 45.40625 35.40625 
Q 44.1875 33.984375 37.640625 27.21875 
Q 31.109375 20.453125 19.1875 8.296875 
z
" id="DejaVuSans-50"/>
       </defs>
       <use xlink:href="#DejaVuSans-50"/>
       <use x="63.623047" xlink:href="#DejaVuSans-48"/>
       <use x="127.246094" xlink:href="#DejaVuSans-48"/>
      </g>
     </g>
    </g>
    <g id="xtick_4">
     <g id="line2d_4">
      <g>
       <use style="stroke:#000000;stroke-width:0.8;" x="439.317606" xlink:href="#m4412b1fbd6" y="390.04"/>
      </g>
     </g>
     <g id="text_4">
      <!-- 300 -->
      <g transform="translate(429.773856 404.638438)scale(0.1 -0.1)">
       <defs>
        <path d="M 40.578125 39.3125 
Q 47.65625 37.796875 51.625 33 
Q 55.609375 28.21875 55.609375 21.1875 
Q 55.609375 10.40625 48.1875 4.484375 
Q 40.765625 -1.421875 27.09375 -1.421875 
Q 22.515625 -1.421875 17.65625 -0.515625 
Q 12.796875 0.390625 7.625 2.203125 
L 7.625 11.71875 
Q 11.71875 9.328125 16.59375 8.109375 
Q 21.484375 6.890625 26.8125 6.890625 
Q 36.078125 6.890625 40.9375 10.546875 
Q 45.796875 14.203125 45.796875 21.1875 
Q 45.796875 27.640625 41.28125 31.265625 
Q 36.765625 34.90625 28.71875 34.90625 
L 20.21875 34.90625 
L 20.21875 43.015625 
L 29.109375 43.015625 
Q 36.375 43.015625 40.234375 45.921875 
Q 44.09375 48.828125 44.09375 54.296875 
Q 44.09375 59.90625 40.109375 62.90625 
Q 36.140625 65.921875 28.71875 65.921875 
Q 24.65625 65.921875 20.015625 65.03125 
Q 15.375 64.15625 9.8125 62.3125 
L 9.8125 71.09375 
Q 15.4375 72.65625 20.34375 73.4375 
Q 25.25 74.21875 29.59375 74.21875 
Q 40.828125 74.21875 47.359375 69.109375 
Q 53.90625 64.015625 53.90625 55.328125 
Q 53.90625 49.265625 50.4375 45.09375 
Q 46.96875 40.921875 40.578125 39.3125 
z
" id="DejaVuSans-51"/>
       </defs>
       <use xlink:href="#DejaVuSans-51"/>
       <use x="63.623047" xlink:href="#DejaVuSans-48"/>
       <use x="127.246094" xlink:href="#DejaVuSans-48"/>
      </g>
     </g>
    </g>
    <g id="xtick_5">
     <g id="line2d_5">
      <g>
       <use style="stroke:#000000;stroke-width:0.8;" x="559.827717" xlink:href="#m4412b1fbd6" y="390.04"/>
      </g>
     </g>
     <g id="text_5">
      <!-- 400 -->
      <g transform="translate(550.283967 404.638438)scale(0.1 -0.1)">
       <defs>
        <path d="M 37.796875 64.3125 
L 12.890625 25.390625 
L 37.796875 25.390625 
z
M 35.203125 72.90625 
L 47.609375 72.90625 
L 47.609375 25.390625 
L 58.015625 25.390625 
L 58.015625 17.1875 
L 47.609375 17.1875 
L 47.609375 0 
L 37.796875 0 
L 37.796875 17.1875 
L 4.890625 17.1875 
L 4.890625 26.703125 
z
" id="DejaVuSans-52"/>
       </defs>
       <use xlink:href="#DejaVuSans-52"/>
       <use x="63.623047" xlink:href="#DejaVuSans-48"/>
       <use x="127.246094" xlink:href="#DejaVuSans-48"/>
      </g>
     </g>
    </g>
    <g id="xtick_6">
     <g id="line2d_6">
      <g>
       <use style="stroke:#000000;stroke-width:0.8;" x="680.337828" xlink:href="#m4412b1fbd6" y="390.04"/>
      </g>
     </g>
     <g id="text_6">
      <!-- 500 -->
      <g transform="translate(670.794078 404.638438)scale(0.1 -0.1)">
       <defs>
        <path d="M 10.796875 72.90625 
L 49.515625 72.90625 
L 49.515625 64.59375 
L 19.828125 64.59375 
L 19.828125 46.734375 
Q 21.96875 47.46875 24.109375 47.828125 
Q 26.265625 48.1875 28.421875 48.1875 
Q 40.625 48.1875 47.75 41.5 
Q 54.890625 34.8125 54.890625 23.390625 
Q 54.890625 11.625 47.5625 5.09375 
Q 40.234375 -1.421875 26.90625 -1.421875 
Q 22.3125 -1.421875 17.546875 -0.640625 
Q 12.796875 0.140625 7.71875 1.703125 
L 7.71875 11.625 
Q 12.109375 9.234375 16.796875 8.0625 
Q 21.484375 6.890625 26.703125 6.890625 
Q 35.15625 6.890625 40.078125 11.328125 
Q 45.015625 15.765625 45.015625 23.390625 
Q 45.015625 31 40.078125 35.4375 
Q 35.15625 39.890625 26.703125 39.890625 
Q 22.75 39.890625 18.8125 39.015625 
Q 14.890625 38.140625 10.796875 36.28125 
z
" id="DejaVuSans-53"/>
       </defs>
       <use xlink:href="#DejaVuSans-53"/>
       <use x="63.623047" xlink:href="#DejaVuSans-48"/>
       <use x="127.246094" xlink:href="#DejaVuSans-48"/>
      </g>
     </g>
    </g>
    <g id="text_7">
     <!-- MC iterations -->
     <g transform="translate(345.338125 418.316562)scale(0.1 -0.1)">
      <defs>
       <path d="M 9.8125 72.90625 
L 24.515625 72.90625 
L 43.109375 23.296875 
L 61.8125 72.90625 
L 76.515625 72.90625 
L 76.515625 0 
L 66.890625 0 
L 66.890625 64.015625 
L 48.09375 14.015625 
L 38.1875 14.015625 
L 19.390625 64.015625 
L 19.390625 0 
L 9.8125 0 
z
" id="DejaVuSans-77"/>
       <path d="M 64.40625 67.28125 
L 64.40625 56.890625 
Q 59.421875 61.53125 53.78125 63.8125 
Q 48.140625 66.109375 41.796875 66.109375 
Q 29.296875 66.109375 22.65625 58.46875 
Q 16.015625 50.828125 16.015625 36.375 
Q 16.015625 21.96875 22.65625 14.328125 
Q 29.296875 6.6875 41.796875 6.6875 
Q 48.140625 6.6875 53.78125 8.984375 
Q 59.421875 11.28125 64.40625 15.921875 
L 64.40625 5.609375 
Q 59.234375 2.09375 53.4375 0.328125 
Q 47.65625 -1.421875 41.21875 -1.421875 
Q 24.65625 -1.421875 15.125 8.703125 
Q 5.609375 18.84375 5.609375 36.375 
Q 5.609375 53.953125 15.125 64.078125 
Q 24.65625 74.21875 41.21875 74.21875 
Q 47.75 74.21875 53.53125 72.484375 
Q 59.328125 70.75 64.40625 67.28125 
z
" id="DejaVuSans-67"/>
       <path id="DejaVuSans-32"/>
       <path d="M 9.421875 54.6875 
L 18.40625 54.6875 
L 18.40625 0 
L 9.421875 0 
z
M 9.421875 75.984375 
L 18.40625 75.984375 
L 18.40625 64.59375 
L 9.421875 64.59375 
z
" id="DejaVuSans-105"/>
       <path d="M 18.3125 70.21875 
L 18.3125 54.6875 
L 36.8125 54.6875 
L 36.8125 47.703125 
L 18.3125 47.703125 
L 18.3125 18.015625 
Q 18.3125 11.328125 20.140625 9.421875 
Q 21.96875 7.515625 27.59375 7.515625 
L 36.8125 7.515625 
L 36.8125 0 
L 27.59375 0 
Q 17.1875 0 13.234375 3.875 
Q 9.28125 7.765625 9.28125 18.015625 
L 9.28125 47.703125 
L 2.6875 47.703125 
L 2.6875 54.6875 
L 9.28125 54.6875 
L 9.28125 70.21875 
z
" id="DejaVuSans-116"/>
       <path d="M 56.203125 29.59375 
L 56.203125 25.203125 
L 14.890625 25.203125 
Q 15.484375 15.921875 20.484375 11.0625 
Q 25.484375 6.203125 34.421875 6.203125 
Q 39.59375 6.203125 44.453125 7.46875 
Q 49.3125 8.734375 54.109375 11.28125 
L 54.109375 2.78125 
Q 49.265625 0.734375 44.1875 -0.34375 
Q 39.109375 -1.421875 33.890625 -1.421875 
Q 20.796875 -1.421875 13.15625 6.1875 
Q 5.515625 13.8125 5.515625 26.8125 
Q 5.515625 40.234375 12.765625 48.109375 
Q 20.015625 56 32.328125 56 
Q 43.359375 56 49.78125 48.890625 
Q 56.203125 41.796875 56.203125 29.59375 
z
M 47.21875 32.234375 
Q 47.125 39.59375 43.09375 43.984375 
Q 39.0625 48.390625 32.421875 48.390625 
Q 24.90625 48.390625 20.390625 44.140625 
Q 15.875 39.890625 15.1875 32.171875 
z
" id="DejaVuSans-101"/>
       <path d="M 41.109375 46.296875 
Q 39.59375 47.171875 37.8125 47.578125 
Q 36.03125 48 33.890625 48 
Q 26.265625 48 22.1875 43.046875 
Q 18.109375 38.09375 18.109375 28.8125 
L 18.109375 0 
L 9.078125 0 
L 9.078125 54.6875 
L 18.109375 54.6875 
L 18.109375 46.1875 
Q 20.953125 51.171875 25.484375 53.578125 
Q 30.03125 56 36.53125 56 
Q 37.453125 56 38.578125 55.875 
Q 39.703125 55.765625 41.0625 55.515625 
z
" id="DejaVuSans-114"/>
       <path d="M 34.28125 27.484375 
Q 23.390625 27.484375 19.1875 25 
Q 14.984375 22.515625 14.984375 16.5 
Q 14.984375 11.71875 18.140625 8.90625 
Q 21.296875 6.109375 26.703125 6.109375 
Q 34.1875 6.109375 38.703125 11.40625 
Q 43.21875 16.703125 43.21875 25.484375 
L 43.21875 27.484375 
z
M 52.203125 31.203125 
L 52.203125 0 
L 43.21875 0 
L 43.21875 8.296875 
Q 40.140625 3.328125 35.546875 0.953125 
Q 30.953125 -1.421875 24.3125 -1.421875 
Q 15.921875 -1.421875 10.953125 3.296875 
Q 6 8.015625 6 15.921875 
Q 6 25.140625 12.171875 29.828125 
Q 18.359375 34.515625 30.609375 34.515625 
L 43.21875 34.515625 
L 43.21875 35.40625 
Q 43.21875 41.609375 39.140625 45 
Q 35.0625 48.390625 27.6875 48.390625 
Q 23 48.390625 18.546875 47.265625 
Q 14.109375 46.140625 10.015625 43.890625 
L 10.015625 52.203125 
Q 14.9375 54.109375 19.578125 55.046875 
Q 24.21875 56 28.609375 56 
Q 40.484375 56 46.34375 49.84375 
Q 52.203125 43.703125 52.203125 31.203125 
z
" id="DejaVuSans-97"/>
       <path d="M 30.609375 48.390625 
Q 23.390625 48.390625 19.1875 42.75 
Q 14.984375 37.109375 14.984375 27.296875 
Q 14.984375 17.484375 19.15625 11.84375 
Q 23.34375 6.203125 30.609375 6.203125 
Q 37.796875 6.203125 41.984375 11.859375 
Q 46.1875 17.53125 46.1875 27.296875 
Q 46.1875 37.015625 41.984375 42.703125 
Q 37.796875 48.390625 30.609375 48.390625 
z
M 30.609375 56 
Q 42.328125 56 49.015625 48.375 
Q 55.71875 40.765625 55.71875 27.296875 
Q 55.71875 13.875 49.015625 6.21875 
Q 42.328125 -1.421875 30.609375 -1.421875 
Q 18.84375 -1.421875 12.171875 6.21875 
Q 5.515625 13.875 5.515625 27.296875 
Q 5.515625 40.765625 12.171875 48.375 
Q 18.84375 56 30.609375 56 
z
" id="DejaVuSans-111"/>
       <path d="M 54.890625 33.015625 
L 54.890625 0 
L 45.90625 0 
L 45.90625 32.71875 
Q 45.90625 40.484375 42.875 44.328125 
Q 39.84375 48.1875 33.796875 48.1875 
Q 26.515625 48.1875 22.3125 43.546875 
Q 18.109375 38.921875 18.109375 30.90625 
L 18.109375 0 
L 9.078125 0 
L 9.078125 54.6875 
L 18.109375 54.6875 
L 18.109375 46.1875 
Q 21.34375 51.125 25.703125 53.5625 
Q 30.078125 56 35.796875 56 
Q 45.21875 56 50.046875 50.171875 
Q 54.890625 44.34375 54.890625 33.015625 
z
" id="DejaVuSans-110"/>
       <path d="M 44.28125 53.078125 
L 44.28125 44.578125 
Q 40.484375 46.53125 36.375 47.5 
Q 32.28125 48.484375 27.875 48.484375 
Q 21.1875 48.484375 17.84375 46.4375 
Q 14.5 44.390625 14.5 40.28125 
Q 14.5 37.15625 16.890625 35.375 
Q 19.28125 33.59375 26.515625 31.984375 
L 29.59375 31.296875 
Q 39.15625 29.25 43.1875 25.515625 
Q 47.21875 21.78125 47.21875 15.09375 
Q 47.21875 7.46875 41.1875 3.015625 
Q 35.15625 -1.421875 24.609375 -1.421875 
Q 20.21875 -1.421875 15.453125 -0.5625 
Q 10.6875 0.296875 5.421875 2 
L 5.421875 11.28125 
Q 10.40625 8.6875 15.234375 7.390625 
Q 20.0625 6.109375 24.8125 6.109375 
Q 31.15625 6.109375 34.5625 8.28125 
Q 37.984375 10.453125 37.984375 14.40625 
Q 37.984375 18.0625 35.515625 20.015625 
Q 33.0625 21.96875 24.703125 23.78125 
L 21.578125 24.515625 
Q 13.234375 26.265625 9.515625 29.90625 
Q 5.8125 33.546875 5.8125 39.890625 
Q 5.8125 47.609375 11.28125 51.796875 
Q 16.75 56 26.8125 56 
Q 31.78125 56 36.171875 55.265625 
Q 40.578125 54.546875 44.28125 53.078125 
z
" id="DejaVuSans-115"/>
      </defs>
      <use xlink:href="#DejaVuSans-77"/>
      <use x="86.279297" xlink:href="#DejaVuSans-67"/>
      <use x="156.103516" xlink:href="#DejaVuSans-32"/>
      <use x="187.890625" xlink:href="#DejaVuSans-105"/>
      <use x="215.673828" xlink:href="#DejaVuSans-116"/>
      <use x="254.882812" xlink:href="#DejaVuSans-101"/>
      <use x="316.40625" xlink:href="#DejaVuSans-114"/>
      <use x="357.519531" xlink:href="#DejaVuSans-97"/>
      <use x="418.798828" xlink:href="#DejaVuSans-116"/>
      <use x="458.007812" xlink:href="#DejaVuSans-105"/>
      <use x="485.791016" xlink:href="#DejaVuSans-111"/>
      <use x="546.972656" xlink:href="#DejaVuSans-110"/>
      <use x="610.351562" xlink:href="#DejaVuSans-115"/>
     </g>
    </g>
   </g>
   <g id="matplotlib.axis_2">
    <g id="ytick_1">
     <g id="line2d_7">
      <defs>
       <path d="M 0 0 
L -3.5 0 
" id="m54f39955f5" style="stroke:#000000;stroke-width:0.8;"/>
      </defs>
      <g>
       <use style="stroke:#000000;stroke-width:0.8;" x="47.72" xlink:href="#m54f39955f5" y="390.04"/>
      </g>
     </g>
     <g id="text_8">
      <!-- 2.5 -->
      <g transform="translate(24.816875 393.839219)scale(0.1 -0.1)">
       <defs>
        <path d="M 10.6875 12.40625 
L 21 12.40625 
L 21 0 
L 10.6875 0 
z
" id="DejaVuSans-46"/>
       </defs>
       <use xlink:href="#DejaVuSans-50"/>
       <use x="63.623047" xlink:href="#DejaVuSans-46"/>
       <use x="95.410156" xlink:href="#DejaVuSans-53"/>
      </g>
     </g>
    </g>
    <g id="ytick_2">
     <g id="line2d_8">
      <g>
       <use style="stroke:#000000;stroke-width:0.8;" x="47.72" xlink:href="#m54f39955f5" y="344.843"/>
      </g>
     </g>
     <g id="text_9">
      <!-- 3.0 -->
      <g transform="translate(24.816875 348.642219)scale(0.1 -0.1)">
       <use xlink:href="#DejaVuSans-51"/>
       <use x="63.623047" xlink:href="#DejaVuSans-46"/>
       <use x="95.410156" xlink:href="#DejaVuSans-48"/>
      </g>
     </g>
    </g>
    <g id="ytick_3">
     <g id="line2d_9">
      <g>
       <use style="stroke:#000000;stroke-width:0.8;" x="47.72" xlink:href="#m54f39955f5" y="299.646"/>
      </g>
     </g>
     <g id="text_10">
      <!-- 3.5 -->
      <g transform="translate(24.816875 303.445219)scale(0.1 -0.1)">
       <use xlink:href="#DejaVuSans-51"/>
       <use x="63.623047" xlink:href="#DejaVuSans-46"/>
       <use x="95.410156" xlink:href="#DejaVuSans-53"/>
      </g>
     </g>
    </g>
    <g id="ytick_4">
     <g id="line2d_10">
      <g>
       <use style="stroke:#000000;stroke-width:0.8;" x="47.72" xlink:href="#m54f39955f5" y="254.449"/>
      </g>
     </g>
     <g id="text_11">
      <!-- 4.0 -->
      <g transform="translate(24.816875 258.248219)scale(0.1 -0.1)">
       <use xlink:href="#DejaVuSans-52"/>
       <use x="63.623047" xlink:href="#DejaVuSans-46"/>
       <use x="95.410156" xlink:href="#DejaVuSans-48"/>
      </g>
     </g>
    </g>
    <g id="ytick_5">
     <g id="line2d_11">
      <g>
       <use style="stroke:#000000;stroke-width:0.8;" x="47.72" xlink:href="#m54f39955f5" y="209.252"/>
      </g>
     </g>
     <g id="text_12">
      <!-- 4.5 -->
      <g transform="translate(24.816875 213.051219)scale(0.1 -0.1)">
       <use xlink:href="#DejaVuSans-52"/>
       <use x="63.623047" xlink:href="#DejaVuSans-46"/>
       <use x="95.410156" xlink:href="#DejaVuSans-53"/>
      </g>
     </g>
    </g>
    <g id="ytick_6">
     <g id="line2d_12">
      <g>
       <use style="stroke:#000000;stroke-width:0.8;" x="47.72" xlink:href="#m54f39955f5" y="164.055"/>
      </g>
     </g>
     <g id="text_13">
      <!-- 5.0 -->
      <g transform="translate(24.816875 167.854219)scale(0.1 -0.1)">
       <use xlink:href="#DejaVuSans-53"/>
       <use x="63.623047" xlink:href="#DejaVuSans-46"/>
       <use x="95.410156" xlink:href="#DejaVuSans-48"/>
      </g>
     </g>
    </g>
    <g id="ytick_7">
     <g id="line2d_13">
      <g>
       <use style="stroke:#000000;stroke-width:0.8;" x="47.72" xlink:href="#m54f39955f5" y="118.858"/>
      </g>
     </g>
     <g id="text_14">
      <!-- 5.5 -->
      <g transform="translate(24.816875 122.657219)scale(0.1 -0.1)">
       <use xlink:href="#DejaVuSans-53"/>
       <use x="63.623047" xlink:href="#DejaVuSans-46"/>
       <use x="95.410156" xlink:href="#DejaVuSans-53"/>
      </g>
     </g>
    </g>
    <g id="ytick_8">
     <g id="line2d_14">
      <g>
       <use style="stroke:#000000;stroke-width:0.8;" x="47.72" xlink:href="#m54f39955f5" y="73.661"/>
      </g>
     </g>
     <g id="text_15">
      <!-- 6.0 -->
      <g transform="translate(24.816875 77.460219)scale(0.1 -0.1)">
       <defs>
        <path d="M 33.015625 40.375 
Q 26.375 40.375 22.484375 35.828125 
Q 18.609375 31.296875 18.609375 23.390625 
Q 18.609375 15.53125 22.484375 10.953125 
Q 26.375 6.390625 33.015625 6.390625 
Q 39.65625 6.390625 43.53125 10.953125 
Q 47.40625 15.53125 47.40625 23.390625 
Q 47.40625 31.296875 43.53125 35.828125 
Q 39.65625 40.375 33.015625 40.375 
z
M 52.59375 71.296875 
L 52.59375 62.3125 
Q 48.875 64.0625 45.09375 64.984375 
Q 41.3125 65.921875 37.59375 65.921875 
Q 27.828125 65.921875 22.671875 59.328125 
Q 17.53125 52.734375 16.796875 39.40625 
Q 19.671875 43.65625 24.015625 45.921875 
Q 28.375 48.1875 33.59375 48.1875 
Q 44.578125 48.1875 50.953125 41.515625 
Q 57.328125 34.859375 57.328125 23.390625 
Q 57.328125 12.15625 50.6875 5.359375 
Q 44.046875 -1.421875 33.015625 -1.421875 
Q 20.359375 -1.421875 13.671875 8.265625 
Q 6.984375 17.96875 6.984375 36.375 
Q 6.984375 53.65625 15.1875 63.9375 
Q 23.390625 74.21875 37.203125 74.21875 
Q 40.921875 74.21875 44.703125 73.484375 
Q 48.484375 72.75 52.59375 71.296875 
z
" id="DejaVuSans-54"/>
       </defs>
       <use xlink:href="#DejaVuSans-54"/>
       <use x="63.623047" xlink:href="#DejaVuSans-46"/>
       <use x="95.410156" xlink:href="#DejaVuSans-48"/>
      </g>
     </g>
    </g>
    <g id="ytick_9">
     <g id="line2d_15">
      <g>
       <use style="stroke:#000000;stroke-width:0.8;" x="47.72" xlink:href="#m54f39955f5" y="28.464"/>
      </g>
     </g>
     <g id="text_16">
      <!-- 6.5 -->
      <g transform="translate(24.816875 32.263219)scale(0.1 -0.1)">
       <use xlink:href="#DejaVuSans-54"/>
       <use x="63.623047" xlink:href="#DejaVuSans-46"/>
       <use x="95.410156" xlink:href="#DejaVuSans-53"/>
      </g>
     </g>
    </g>
    <g id="text_17">
     <!-- ANEES -->
     <g transform="translate(18.737188 225.905906)rotate(-90)scale(0.1 -0.1)">
      <defs>
       <path d="M 34.1875 63.1875 
L 20.796875 26.90625 
L 47.609375 26.90625 
z
M 28.609375 72.90625 
L 39.796875 72.90625 
L 67.578125 0 
L 57.328125 0 
L 50.6875 18.703125 
L 17.828125 18.703125 
L 11.1875 0 
L 0.78125 0 
z
" id="DejaVuSans-65"/>
       <path d="M 9.8125 72.90625 
L 23.09375 72.90625 
L 55.421875 11.921875 
L 55.421875 72.90625 
L 64.984375 72.90625 
L 64.984375 0 
L 51.703125 0 
L 19.390625 60.984375 
L 19.390625 0 
L 9.8125 0 
z
" id="DejaVuSans-78"/>
       <path d="M 9.8125 72.90625 
L 55.90625 72.90625 
L 55.90625 64.59375 
L 19.671875 64.59375 
L 19.671875 43.015625 
L 54.390625 43.015625 
L 54.390625 34.71875 
L 19.671875 34.71875 
L 19.671875 8.296875 
L 56.78125 8.296875 
L 56.78125 0 
L 9.8125 0 
z
" id="DejaVuSans-69"/>
       <path d="M 53.515625 70.515625 
L 53.515625 60.890625 
Q 47.90625 63.578125 42.921875 64.890625 
Q 37.9375 66.21875 33.296875 66.21875 
Q 25.25 66.21875 20.875 63.09375 
Q 16.5 59.96875 16.5 54.203125 
Q 16.5 49.359375 19.40625 46.890625 
Q 22.3125 44.4375 30.421875 42.921875 
L 36.375 41.703125 
Q 47.40625 39.59375 52.65625 34.296875 
Q 57.90625 29 57.90625 20.125 
Q 57.90625 9.515625 50.796875 4.046875 
Q 43.703125 -1.421875 29.984375 -1.421875 
Q 24.8125 -1.421875 18.96875 -0.25 
Q 13.140625 0.921875 6.890625 3.21875 
L 6.890625 13.375 
Q 12.890625 10.015625 18.65625 8.296875 
Q 24.421875 6.59375 29.984375 6.59375 
Q 38.421875 6.59375 43.015625 9.90625 
Q 47.609375 13.234375 47.609375 19.390625 
Q 47.609375 24.75 44.3125 27.78125 
Q 41.015625 30.8125 33.5 32.328125 
L 27.484375 33.5 
Q 16.453125 35.6875 11.515625 40.375 
Q 6.59375 45.0625 6.59375 53.421875 
Q 6.59375 63.09375 13.40625 68.65625 
Q 20.21875 74.21875 32.171875 74.21875 
Q 37.3125 74.21875 42.625 73.28125 
Q 47.953125 72.359375 53.515625 70.515625 
z
" id="DejaVuSans-83"/>
      </defs>
      <use xlink:href="#DejaVuSans-65"/>
      <use x="68.408203" xlink:href="#DejaVuSans-78"/>
      <use x="143.212891" xlink:href="#DejaVuSans-69"/>
      <use x="206.396484" xlink:href="#DejaVuSans-69"/>
      <use x="269.580078" xlink:href="#DejaVuSans-83"/>
     </g>
    </g>
   </g>
   <g id="line2d_16">
    <path clip-path="url(#pe01457faee)" d="M 77.787273 357.709805 
L 78.992374 329.317719 
L 80.197475 316.242562 
L 81.402576 308.304609 
L 82.607677 302.826273 
L 83.812778 298.750605 
L 85.017879 295.564442 
L 86.222981 292.984363 
L 87.428082 290.839294 
L 88.633183 289.019013 
L 89.838284 287.448857 
L 92.248486 284.862753 
L 94.658688 282.805634 
L 97.068891 281.1184 
L 99.479093 279.701838 
L 101.889295 278.490425 
L 105.504598 276.962617 
L 109.119902 275.694492 
L 113.940306 274.296453 
L 118.760711 273.143367 
L 124.786216 271.950894 
L 132.016823 270.783189 
L 140.452531 269.678285 
L 150.093339 268.654858 
L 162.144351 267.626072 
L 176.605564 266.644775 
L 193.476979 265.737586 
L 213.963698 264.868282 
L 239.270822 264.029282 
L 270.603451 263.226598 
L 309.166686 262.470191 
L 357.370731 261.752924 
L 418.830887 261.067836 
L 498.367561 260.413905 
L 602.006256 259.79563 
L 679.132727 259.44295 
L 679.132727 259.44295 
" style="fill:none;stroke:#000000;stroke-linecap:square;stroke-width:1.5;"/>
   </g>
   <g id="line2d_17">
    <path clip-path="url(#pe01457faee)" d="M 77.787273 134.095862 
L 78.992374 171.026316 
L 80.197475 186.951071 
L 81.402576 196.314472 
L 82.607677 202.648283 
L 83.812778 207.294353 
L 85.017879 210.887989 
L 86.222981 213.773695 
L 87.428082 216.156487 
L 88.633183 218.166956 
L 89.838284 219.892725 
L 91.043385 221.395059 
L 93.453587 223.895195 
L 95.863789 225.904917 
L 98.273992 227.565822 
L 100.684194 228.968223 
L 103.094396 230.172784 
L 106.709699 231.698222 
L 110.325003 232.969159 
L 115.145407 234.374725 
L 119.965812 235.537074 
L 125.991317 236.741618 
L 133.221924 237.923214 
L 141.657632 239.042796 
L 151.298441 240.08086 
L 163.349452 241.125096 
L 176.605564 242.046924 
L 193.476979 242.983887 
L 213.963698 243.879516 
L 238.065721 244.70549 
L 268.193248 245.509014 
L 305.551383 246.274962 
L 352.550326 247.007112 
L 412.805382 247.710018 
L 489.931853 248.373865 
L 589.955245 249.000017 
L 679.132727 249.420803 
L 679.132727 249.420803 
" style="fill:none;stroke:#000000;stroke-linecap:square;stroke-width:1.5;"/>
   </g>
   <g id="line2d_18">
    <path clip-path="url(#pe01457faee)" d="M 77.787273 125.139829 
L 78.992374 192.032294 
L 80.197475 165.678297 
L 81.402576 165.143989 
L 82.607677 158.743333 
L 83.812778 157.222417 
L 85.017879 149.237242 
L 86.222981 163.327571 
L 87.428082 154.56676 
L 88.633183 151.96632 
L 89.838284 154.157226 
L 91.043385 162.766168 
L 92.248486 152.846883 
L 93.453587 155.574517 
L 94.658688 148.260978 
L 95.863789 145.971778 
L 97.068891 149.208695 
L 98.273992 133.079051 
L 99.479093 131.599418 
L 100.684194 138.781545 
L 101.889295 138.602297 
L 103.094396 137.296122 
L 104.299497 137.114652 
L 105.504598 138.569146 
L 106.709699 142.021946 
L 109.119902 134.671371 
L 110.325003 139.684596 
L 111.530104 139.078692 
L 112.735205 136.738803 
L 113.940306 135.173772 
L 115.145407 129.001836 
L 116.350508 131.449231 
L 117.555609 128.124037 
L 118.760711 131.78408 
L 119.965812 126.28574 
L 121.170913 122.108923 
L 122.376014 120.28446 
L 123.581115 118.846102 
L 124.786216 118.162144 
L 125.991317 120.535227 
L 127.196418 122.035243 
L 128.401519 126.302509 
L 129.606621 127.393713 
L 130.811722 125.458231 
L 132.016823 126.047868 
L 133.221924 122.617445 
L 134.427025 121.52656 
L 135.632126 123.392036 
L 136.837227 122.727499 
L 138.042328 117.68845 
L 139.247429 118.493766 
L 140.452531 123.01275 
L 141.657632 121.280426 
L 142.862733 123.17948 
L 145.272935 123.020097 
L 146.478036 120.357772 
L 147.683137 121.617408 
L 148.888238 115.416043 
L 150.093339 114.61861 
L 151.298441 114.12206 
L 152.503542 114.939036 
L 153.708643 115.258177 
L 154.913744 111.832588 
L 156.118845 114.2823 
L 157.323946 115.870858 
L 158.529047 115.958118 
L 159.734148 114.435577 
L 160.939249 114.441867 
L 162.144351 114.81541 
L 163.349452 117.13341 
L 164.554553 115.932878 
L 165.759654 114.518885 
L 166.964755 116.620791 
L 168.169856 116.690142 
L 169.374957 118.568035 
L 171.785159 118.661807 
L 172.990261 117.752373 
L 174.195362 117.027828 
L 175.400463 118.037152 
L 176.605564 117.633148 
L 177.810665 120.066287 
L 179.015766 119.776708 
L 180.220867 120.973174 
L 181.425968 121.509937 
L 182.631069 123.184576 
L 183.836171 122.955718 
L 185.041272 124.580977 
L 186.246373 123.211104 
L 187.451474 121.365135 
L 188.656575 122.803933 
L 189.861676 122.480738 
L 191.066777 123.710598 
L 193.476979 125.077136 
L 194.682081 126.535171 
L 195.887182 127.308246 
L 197.092283 128.79329 
L 198.297384 128.415149 
L 199.502485 128.913165 
L 200.707586 126.403492 
L 201.912687 125.403381 
L 203.117788 126.315847 
L 204.322889 126.688811 
L 205.527991 127.436933 
L 206.733092 126.141013 
L 207.938193 125.202235 
L 209.143294 125.837567 
L 210.348395 126.635641 
L 211.553496 126.187698 
L 212.758597 128.025237 
L 213.963698 127.853687 
L 215.168799 128.178123 
L 216.373901 128.628572 
L 217.579002 129.329511 
L 218.784103 130.351202 
L 219.989204 128.993935 
L 221.194305 128.996669 
L 222.399406 128.748459 
L 223.604507 128.671125 
L 224.809608 128.759316 
L 226.014709 128.156876 
L 227.219811 129.256318 
L 228.424912 129.659283 
L 229.630013 129.17241 
L 232.040215 131.39845 
L 233.245316 132.245348 
L 235.655518 131.805025 
L 236.860619 131.399012 
L 238.065721 131.854049 
L 239.270822 131.887926 
L 240.475923 133.3764 
L 241.681024 134.4337 
L 242.886125 134.2726 
L 244.091226 132.281034 
L 245.296327 131.220249 
L 246.501428 131.032525 
L 247.706529 130.441812 
L 248.911631 129.261381 
L 250.116732 128.41323 
L 251.321833 128.976422 
L 252.526934 130.288695 
L 253.732035 130.910484 
L 254.937136 130.938286 
L 256.142237 130.130565 
L 257.347338 130.117058 
L 258.552439 129.6552 
L 259.757541 129.595307 
L 262.167743 130.865104 
L 263.372844 130.924864 
L 264.577945 131.304211 
L 265.783046 130.987855 
L 266.988147 131.625113 
L 268.193248 131.038026 
L 269.398349 131.158624 
L 270.603451 131.432813 
L 271.808552 130.507548 
L 273.013653 130.901177 
L 274.218754 131.428501 
L 275.423855 131.266798 
L 276.628956 131.268634 
L 277.834057 131.456624 
L 279.039158 131.220683 
L 280.244259 130.692808 
L 281.449361 130.774084 
L 282.654462 130.320828 
L 283.859563 131.774896 
L 285.064664 131.696962 
L 286.269765 131.215275 
L 287.474866 132.153565 
L 288.679967 132.228227 
L 289.885068 132.770416 
L 291.090169 132.740014 
L 292.295271 132.979331 
L 293.500372 131.881138 
L 295.910574 133.420752 
L 297.115675 133.368838 
L 298.320776 133.932699 
L 299.525877 132.736797 
L 300.730978 132.854375 
L 301.936079 132.777786 
L 303.141181 132.413846 
L 305.551383 132.665677 
L 306.756484 132.005734 
L 307.961585 132.125362 
L 309.166686 132.087782 
L 311.576888 132.856144 
L 312.781989 132.486816 
L 313.987091 132.892717 
L 315.192192 132.250274 
L 316.397293 132.379876 
L 317.602394 132.356512 
L 318.807495 132.521479 
L 320.012596 133.187591 
L 321.217697 133.454712 
L 322.422798 131.691189 
L 323.627899 131.535102 
L 324.833001 131.810347 
L 328.448304 131.462456 
L 330.858506 132.042609 
L 332.063607 133.008778 
L 333.268708 133.716279 
L 334.473809 133.974773 
L 335.678911 134.419078 
L 336.884012 134.739009 
L 339.294214 134.171444 
L 340.499315 134.544815 
L 341.704416 134.649361 
L 342.909517 135.374869 
L 344.114618 134.704461 
L 346.524821 135.083362 
L 347.729922 133.695871 
L 348.935023 133.22758 
L 350.140124 133.616458 
L 351.345225 133.098736 
L 352.550326 132.917133 
L 354.960528 133.388966 
L 356.165629 133.147544 
L 357.370731 133.395121 
L 358.575832 133.048629 
L 359.780933 131.650459 
L 360.986034 132.102545 
L 362.191135 131.907555 
L 364.601337 132.361009 
L 365.806438 131.59483 
L 367.011539 130.330324 
L 368.216641 130.154465 
L 369.421742 129.406046 
L 370.626843 128.865988 
L 373.037045 129.038174 
L 374.242146 128.495539 
L 375.447247 128.981248 
L 377.857449 129.501305 
L 379.062551 129.71923 
L 380.267652 129.394587 
L 381.472753 129.242472 
L 382.677854 129.693669 
L 385.088056 129.422993 
L 386.293157 129.424415 
L 387.498258 128.851382 
L 388.703359 127.844329 
L 389.908461 128.643224 
L 391.113562 128.748649 
L 392.318663 128.521424 
L 393.523764 128.911358 
L 394.728865 128.582978 
L 395.933966 128.471236 
L 397.139067 127.796204 
L 399.549269 128.553372 
L 400.754371 128.27812 
L 401.959472 128.698353 
L 403.164573 129.297026 
L 404.369674 129.206449 
L 405.574775 129.436093 
L 406.779876 129.429101 
L 407.984977 129.759248 
L 409.190078 128.913999 
L 410.395179 129.210553 
L 411.600281 128.390245 
L 412.805382 128.509127 
L 414.010483 127.992187 
L 415.215584 128.064554 
L 416.420685 127.631773 
L 417.625786 128.035118 
L 418.830887 128.042663 
L 420.035988 127.826252 
L 421.241089 126.870704 
L 422.446191 126.510232 
L 423.651292 126.722292 
L 424.856393 126.629677 
L 426.061494 127.275532 
L 427.266595 127.432852 
L 428.471696 127.394715 
L 429.676797 126.782182 
L 430.881898 127.312853 
L 432.086999 126.895884 
L 433.292101 126.302423 
L 434.497202 126.347535 
L 436.907404 125.426975 
L 438.112505 125.263804 
L 440.522707 125.696036 
L 441.727808 125.486634 
L 442.932909 125.659965 
L 444.138011 125.25723 
L 445.343112 125.184813 
L 447.753314 124.295734 
L 448.958415 124.889907 
L 450.163516 125.170056 
L 451.368617 124.622895 
L 453.778819 124.927091 
L 454.983921 125.213856 
L 456.189022 125.285749 
L 457.394123 124.483258 
L 458.599224 125.05744 
L 462.214527 124.87826 
L 463.419628 124.958669 
L 469.445134 126.309149 
L 473.060437 126.741188 
L 474.265538 126.322994 
L 475.470639 126.465081 
L 480.291044 127.425959 
L 481.496145 127.912975 
L 483.906347 127.882761 
L 486.316549 128.30658 
L 487.521651 128.191976 
L 488.726752 128.201406 
L 489.931853 128.071684 
L 492.342055 128.493512 
L 493.547156 128.870083 
L 495.957358 129.022833 
L 497.162459 129.065 
L 500.777763 128.720502 
L 501.982864 128.858164 
L 503.187965 128.621194 
L 504.393066 128.938431 
L 505.598167 128.586572 
L 506.803268 128.614666 
L 508.008369 127.834221 
L 510.418572 127.286777 
L 511.623673 127.625392 
L 514.033875 127.476985 
L 515.238976 127.844814 
L 516.444077 128.030482 
L 517.649178 128.372413 
L 518.854279 127.988747 
L 521.264482 128.12946 
L 522.469583 127.250298 
L 524.879785 127.215643 
L 526.084886 127.656817 
L 527.289987 127.663689 
L 528.495088 127.853945 
L 529.700189 127.689582 
L 530.905291 127.676322 
L 532.110392 127.428433 
L 533.315493 127.352454 
L 534.520594 127.529965 
L 535.725695 127.474395 
L 536.930796 126.779785 
L 538.135897 126.637372 
L 539.340998 126.6069 
L 540.546099 126.355361 
L 541.751201 126.403111 
L 544.161403 126.184225 
L 545.366504 126.194958 
L 546.571605 126.061486 
L 547.776706 126.293756 
L 548.981807 126.068658 
L 550.186908 126.356348 
L 551.392009 126.083012 
L 552.597111 126.214689 
L 555.007313 126.021972 
L 556.212414 126.073784 
L 557.417515 126.407852 
L 558.622616 126.076074 
L 559.827717 125.893466 
L 561.032818 126.064736 
L 564.648122 125.660272 
L 567.058324 126.22225 
L 568.263425 125.991844 
L 570.673627 126.081491 
L 571.878728 125.682059 
L 573.083829 126.153876 
L 575.494032 124.896779 
L 576.699133 125.209329 
L 577.904234 125.023405 
L 579.109335 125.29327 
L 582.724638 125.594624 
L 583.929739 125.790402 
L 585.134841 125.719923 
L 587.545043 124.968487 
L 588.750144 124.960637 
L 589.955245 125.221167 
L 591.160346 124.91546 
L 593.570548 125.317265 
L 594.775649 125.097882 
L 597.185852 125.251757 
L 598.390953 125.654926 
L 599.596054 125.821023 
L 602.006256 126.428258 
L 604.416458 126.238312 
L 606.826661 126.496742 
L 608.031762 126.835046 
L 610.441964 126.529874 
L 611.647065 126.131671 
L 612.852166 126.112771 
L 614.057267 126.421798 
L 615.262368 126.317251 
L 616.467469 126.501252 
L 617.672571 126.887219 
L 618.877672 126.582483 
L 620.082773 126.462637 
L 621.287874 126.044638 
L 622.492975 126.072632 
L 623.698076 125.971252 
L 624.903177 125.56697 
L 627.313379 126.07667 
L 628.518481 126.159701 
L 629.723582 125.908827 
L 630.928683 125.808044 
L 632.133784 125.343234 
L 634.543986 125.599085 
L 635.749087 125.381374 
L 636.954188 124.932198 
L 638.159289 124.354327 
L 639.364391 123.9777 
L 640.569492 123.83564 
L 641.774593 124.280831 
L 642.979694 124.179742 
L 644.184795 124.299496 
L 645.389896 124.184565 
L 649.005199 124.396765 
L 651.415402 124.290653 
L 655.030705 124.099176 
L 657.440907 124.829921 
L 659.851109 124.179724 
L 661.056211 124.370239 
L 662.261312 124.446122 
L 663.466413 124.236841 
L 664.671514 124.347688 
L 667.081716 124.121927 
L 668.286817 124.413888 
L 669.491918 124.091245 
L 671.902121 124.105119 
L 673.107222 124.370124 
L 674.312323 123.96626 
L 675.517424 124.122679 
L 676.722525 124.41571 
L 677.927626 124.254353 
L 679.132727 124.372287 
L 679.132727 124.372287 
" style="fill:none;stroke:#0000ff;stroke-linecap:square;stroke-width:1.5;"/>
   </g>
   <g id="line2d_19">
    <path clip-path="url(#pe01457faee)" d="M 77.787273 244.547501 
L 78.992374 303.873687 
L 80.197475 294.11092 
L 81.402576 303.816017 
L 82.607677 297.357854 
L 83.812778 295.943996 
L 85.017879 289.659364 
L 86.222981 295.280135 
L 87.428082 290.874509 
L 88.633183 293.389823 
L 89.838284 294.978151 
L 91.043385 299.79173 
L 92.248486 295.189525 
L 93.453587 295.947868 
L 94.658688 290.885383 
L 95.863789 287.264187 
L 97.068891 288.104731 
L 98.273992 273.308345 
L 99.479093 269.497904 
L 100.684194 272.49094 
L 103.094396 270.549462 
L 104.299497 271.612988 
L 105.504598 271.368974 
L 106.709699 273.636997 
L 107.914801 272.575024 
L 109.119902 270.624423 
L 110.325003 274.120507 
L 111.530104 274.006811 
L 112.735205 272.879802 
L 113.940306 272.849871 
L 115.145407 267.479628 
L 116.350508 269.342153 
L 117.555609 267.141284 
L 118.760711 269.465026 
L 119.965812 266.136551 
L 121.170913 262.396453 
L 123.581115 259.857635 
L 124.786216 260.335434 
L 125.991317 261.755885 
L 127.196418 262.513869 
L 128.401519 265.57592 
L 129.606621 265.451598 
L 130.811722 264.102454 
L 132.016823 264.614384 
L 133.221924 262.926096 
L 134.427025 262.271927 
L 135.632126 263.258965 
L 136.837227 262.74521 
L 138.042328 259.030525 
L 139.247429 259.605183 
L 140.452531 262.555057 
L 141.657632 261.882694 
L 142.862733 263.826801 
L 144.067834 263.596403 
L 145.272935 263.559417 
L 146.478036 261.815831 
L 147.683137 262.912545 
L 148.888238 258.316644 
L 150.093339 258.354621 
L 151.298441 258.142724 
L 152.503542 259.048465 
L 153.708643 259.487766 
L 154.913744 256.456409 
L 156.118845 258.0297 
L 157.323946 259.403225 
L 158.529047 259.587843 
L 159.734148 258.474752 
L 162.144351 257.608616 
L 163.349452 259.175646 
L 164.554553 258.089889 
L 165.759654 256.662969 
L 166.964755 257.985221 
L 168.169856 258.116645 
L 169.374957 259.183576 
L 171.785159 259.506737 
L 172.990261 258.591502 
L 174.195362 257.268201 
L 175.400463 257.905615 
L 176.605564 257.164808 
L 177.810665 258.748266 
L 179.015766 258.377086 
L 180.220867 259.079715 
L 181.425968 259.42637 
L 182.631069 260.362314 
L 183.836171 260.107044 
L 185.041272 260.996067 
L 186.246373 260.428392 
L 187.451474 259.324612 
L 188.656575 260.58983 
L 189.861676 260.676446 
L 191.066777 261.467412 
L 193.476979 262.04186 
L 194.682081 262.869357 
L 195.887182 263.245382 
L 197.092283 264.408828 
L 198.297384 264.186369 
L 199.502485 264.533363 
L 200.707586 263.563725 
L 201.912687 262.807267 
L 203.117788 263.414315 
L 204.322889 263.326865 
L 205.527991 264.045826 
L 206.733092 263.046286 
L 207.938193 261.799795 
L 210.348395 262.489451 
L 211.553496 261.870856 
L 212.758597 263.193585 
L 213.963698 263.307779 
L 215.168799 263.750946 
L 216.373901 263.835584 
L 217.579002 264.365721 
L 218.784103 265.023777 
L 219.989204 264.27054 
L 221.194305 264.402541 
L 222.399406 264.03006 
L 223.604507 264.076951 
L 224.809608 264.32299 
L 226.014709 263.873287 
L 228.424912 264.823089 
L 229.630013 264.362566 
L 233.245316 266.452293 
L 234.450417 265.94403 
L 236.860619 265.595719 
L 238.065721 265.990311 
L 239.270822 265.718761 
L 240.475923 266.848812 
L 241.681024 267.594729 
L 242.886125 267.528161 
L 244.091226 265.939773 
L 245.296327 265.392928 
L 246.501428 265.121242 
L 248.911631 264.293389 
L 250.116732 263.959097 
L 251.321833 264.01582 
L 252.526934 265.005375 
L 253.732035 265.608183 
L 254.937136 265.491293 
L 256.142237 265.0085 
L 257.347338 264.931428 
L 258.552439 264.522957 
L 259.757541 264.735082 
L 263.372844 265.729698 
L 265.783046 265.696256 
L 266.988147 266.133578 
L 268.193248 265.605188 
L 269.398349 265.529811 
L 270.603451 265.876286 
L 271.808552 265.173979 
L 273.013653 265.432021 
L 274.218754 266.01715 
L 275.423855 265.72539 
L 276.628956 265.76005 
L 280.244259 265.413865 
L 281.449361 265.77482 
L 282.654462 265.257859 
L 283.859563 266.276967 
L 285.064664 266.100197 
L 286.269765 265.714148 
L 287.474866 266.278918 
L 289.885068 266.812175 
L 291.090169 266.890659 
L 292.295271 266.857001 
L 293.500372 266.190121 
L 294.705473 266.806239 
L 295.910574 267.120839 
L 297.115675 267.150866 
L 298.320776 267.485307 
L 299.525877 266.96826 
L 300.730978 267.127147 
L 303.141181 266.425879 
L 304.346282 266.485644 
L 305.551383 266.720297 
L 306.756484 266.425062 
L 309.166686 266.718967 
L 311.576888 267.443281 
L 312.781989 267.234219 
L 313.987091 267.75148 
L 315.192192 267.306286 
L 316.397293 267.256558 
L 317.602394 267.00753 
L 318.807495 267.266739 
L 320.012596 267.837851 
L 321.217697 267.920205 
L 322.422798 266.699786 
L 323.627899 266.775651 
L 324.833001 267.091432 
L 327.243203 266.861985 
L 328.448304 266.656471 
L 330.858506 267.086529 
L 332.063607 267.661582 
L 333.268708 268.10098 
L 334.473809 268.1368 
L 336.884012 268.593003 
L 338.089113 268.464557 
L 339.294214 268.116839 
L 340.499315 268.375894 
L 341.704416 268.415723 
L 342.909517 269.0846 
L 344.114618 268.510562 
L 345.319719 268.634789 
L 346.524821 269.007661 
L 347.729922 267.958421 
L 348.935023 267.394559 
L 350.140124 267.720267 
L 351.345225 267.259594 
L 353.755427 267.235497 
L 354.960528 267.559348 
L 356.165629 267.357307 
L 357.370731 267.554041 
L 358.575832 267.191666 
L 359.780933 266.324146 
L 360.986034 266.431756 
L 362.191135 266.243309 
L 364.601337 266.279055 
L 365.806438 265.845868 
L 367.011539 265.061399 
L 368.216641 264.936386 
L 369.421742 264.528727 
L 370.626843 263.963925 
L 373.037045 264.209419 
L 374.242146 263.911752 
L 377.857449 264.661193 
L 380.267652 264.928907 
L 381.472753 264.808377 
L 382.677854 265.201663 
L 386.293157 265.010174 
L 387.498258 264.665391 
L 388.703359 263.903736 
L 389.908461 264.456201 
L 391.113562 264.544434 
L 392.318663 264.317961 
L 393.523764 264.345141 
L 394.728865 264.026658 
L 395.933966 264.015832 
L 397.139067 263.432698 
L 399.549269 263.922331 
L 400.754371 263.767462 
L 403.164573 264.462508 
L 404.369674 264.175266 
L 407.984977 264.590089 
L 409.190078 264.141732 
L 410.395179 264.258838 
L 411.600281 263.691251 
L 412.805382 263.644481 
L 414.010483 263.438275 
L 415.215584 263.473687 
L 416.420685 262.94481 
L 417.625786 263.258374 
L 418.830887 263.208218 
L 420.035988 263.017995 
L 421.241089 262.422127 
L 422.446191 262.204252 
L 424.856393 262.240041 
L 426.061494 262.616453 
L 427.266595 262.826493 
L 428.471696 262.815355 
L 429.676797 262.601242 
L 430.881898 262.906145 
L 433.292101 262.373737 
L 434.497202 262.47248 
L 438.112505 261.836792 
L 440.522707 262.351015 
L 441.727808 262.215501 
L 442.932909 262.360023 
L 444.138011 262.064094 
L 445.343112 261.963544 
L 447.753314 261.371842 
L 448.958415 261.773611 
L 450.163516 262.045614 
L 451.368617 261.540608 
L 456.189022 261.945022 
L 457.394123 261.517652 
L 458.599224 261.869022 
L 461.009426 261.810399 
L 463.419628 261.632062 
L 464.624729 261.785746 
L 465.829831 262.117439 
L 467.034932 262.14049 
L 469.445134 262.573852 
L 473.060437 262.975515 
L 474.265538 262.696951 
L 475.470639 262.739237 
L 479.085943 263.299403 
L 480.291044 263.32095 
L 481.496145 263.681496 
L 483.906347 263.801483 
L 486.316549 264.118319 
L 487.521651 264.098238 
L 488.726752 264.230614 
L 489.931853 264.138067 
L 491.136954 264.207525 
L 495.957358 264.879865 
L 497.162459 264.916157 
L 500.777763 264.60636 
L 501.982864 264.745345 
L 503.187965 264.631117 
L 504.393066 264.794719 
L 505.598167 264.461409 
L 506.803268 264.583792 
L 510.418572 263.915642 
L 511.623673 264.155676 
L 512.828774 264.168349 
L 514.033875 264.045487 
L 515.238976 264.362819 
L 517.649178 264.662483 
L 518.854279 264.525785 
L 520.059381 264.692562 
L 521.264482 264.74633 
L 522.469583 264.182976 
L 523.674684 264.07343 
L 524.879785 264.171225 
L 526.084886 264.40455 
L 527.289987 264.392688 
L 528.495088 264.596306 
L 535.725695 264.34337 
L 536.930796 263.732293 
L 540.546099 263.294014 
L 541.751201 263.379144 
L 542.956302 263.266066 
L 545.366504 263.337232 
L 546.571605 263.269516 
L 547.776706 263.405452 
L 548.981807 263.241356 
L 550.186908 263.431203 
L 551.392009 263.216092 
L 552.597111 263.267156 
L 555.007313 262.938686 
L 556.212414 262.951293 
L 557.417515 263.191646 
L 559.827717 262.978806 
L 561.032818 263.094134 
L 563.443021 262.679704 
L 564.648122 262.675305 
L 567.058324 262.965587 
L 570.673627 262.90637 
L 571.878728 262.705111 
L 573.083829 263.075833 
L 575.494032 262.367713 
L 576.699133 262.490175 
L 577.904234 262.305489 
L 579.109335 262.501723 
L 582.724638 262.707532 
L 583.929739 262.873379 
L 585.134841 262.823343 
L 586.339942 262.638958 
L 587.545043 262.17078 
L 588.750144 262.195399 
L 589.955245 262.388474 
L 591.160346 262.183252 
L 593.570548 262.472507 
L 594.775649 262.240513 
L 597.185852 262.350873 
L 598.390953 262.652267 
L 599.596054 262.714273 
L 602.006256 263.173188 
L 603.211357 263.05086 
L 606.826661 263.037257 
L 608.031762 263.284703 
L 609.236863 263.335486 
L 610.441964 263.149285 
L 611.647065 262.724983 
L 612.852166 262.677089 
L 614.057267 262.876469 
L 616.467469 263.07489 
L 617.672571 263.366854 
L 620.082773 263.239001 
L 621.287874 262.981621 
L 623.698076 262.893644 
L 624.903177 262.554054 
L 627.313379 262.895115 
L 628.518481 262.873861 
L 629.723582 262.593366 
L 630.928683 262.473114 
L 632.133784 262.234547 
L 634.543986 262.313188 
L 635.749087 262.097194 
L 636.954188 261.691634 
L 638.159289 261.153736 
L 640.569492 260.869782 
L 641.774593 261.151764 
L 642.979694 261.032007 
L 644.184795 261.143604 
L 646.594997 261.125717 
L 647.800098 261.303034 
L 653.825604 261.506731 
L 655.030705 261.381659 
L 657.440907 261.89348 
L 659.851109 261.411411 
L 662.261312 261.591433 
L 663.466413 261.364185 
L 664.671514 261.462548 
L 667.081716 261.362492 
L 668.286817 261.542659 
L 669.491918 261.417939 
L 671.902121 261.469681 
L 673.107222 261.617734 
L 674.312323 261.27039 
L 676.722525 261.692254 
L 679.132727 261.739683 
L 679.132727 261.739683 
" style="fill:none;stroke:#ff0000;stroke-linecap:square;stroke-width:1.5;"/>
   </g>
   <g id="line2d_20">
    <path clip-path="url(#pe01457faee)" d="M 77.787273 244.641838 
L 78.992374 302.759129 
L 80.197475 284.32559 
L 81.402576 299.615863 
L 82.607677 293.868508 
L 83.812778 295.29956 
L 85.017879 288.119285 
L 86.222981 294.732055 
L 87.428082 290.749559 
L 88.633183 292.081494 
L 89.838284 292.107807 
L 91.043385 296.944477 
L 92.248486 290.902458 
L 93.453587 292.053451 
L 94.658688 286.458705 
L 95.863789 282.029434 
L 97.068891 282.607486 
L 98.273992 268.443031 
L 99.479093 265.297101 
L 100.684194 268.360661 
L 101.889295 267.518506 
L 103.094396 265.352816 
L 104.299497 267.200481 
L 105.504598 266.385651 
L 106.709699 268.749059 
L 107.914801 267.978094 
L 109.119902 266.25626 
L 110.325003 269.535231 
L 111.530104 269.079816 
L 112.735205 268.126541 
L 113.940306 268.376028 
L 115.145407 263.610022 
L 116.350508 265.20448 
L 117.555609 262.745428 
L 118.760711 264.800048 
L 119.965812 262.168037 
L 121.170913 258.054987 
L 123.581115 255.650745 
L 124.786216 255.88592 
L 127.196418 258.352548 
L 128.401519 261.334263 
L 129.606621 261.055781 
L 130.811722 259.906978 
L 132.016823 261.116073 
L 133.221924 259.284709 
L 134.427025 258.819132 
L 135.632126 259.933863 
L 136.837227 259.697306 
L 138.042328 255.416205 
L 139.247429 256.396392 
L 140.452531 259.530847 
L 141.657632 258.539727 
L 142.862733 260.154643 
L 144.067834 259.974389 
L 145.272935 260.060543 
L 146.478036 258.580024 
L 147.683137 259.582464 
L 148.888238 254.579327 
L 150.093339 254.671507 
L 151.298441 254.625811 
L 152.503542 255.767362 
L 153.708643 256.399879 
L 154.913744 253.775507 
L 156.118845 255.586781 
L 157.323946 257.074929 
L 158.529047 257.382352 
L 159.734148 256.344668 
L 160.939249 255.960281 
L 162.144351 255.794105 
L 163.349452 257.35303 
L 164.554553 256.620198 
L 165.759654 255.288775 
L 166.964755 256.530314 
L 168.169856 256.799927 
L 169.374957 257.800269 
L 170.580058 258.13587 
L 171.785159 258.197885 
L 172.990261 257.391664 
L 174.195362 256.121869 
L 175.400463 256.74689 
L 176.605564 256.151384 
L 177.810665 257.61007 
L 179.015766 257.34095 
L 180.220867 257.902518 
L 181.425968 258.251481 
L 182.631069 258.984107 
L 183.836171 258.79242 
L 185.041272 259.931301 
L 186.246373 259.320044 
L 187.451474 258.510288 
L 188.656575 259.683731 
L 189.861676 259.916514 
L 191.066777 260.873362 
L 193.476979 261.267527 
L 194.682081 262.056082 
L 195.887182 262.267955 
L 197.092283 263.316189 
L 198.297384 263.135522 
L 199.502485 263.549485 
L 201.912687 261.920819 
L 203.117788 262.625201 
L 204.322889 262.445521 
L 205.527991 263.050722 
L 207.938193 260.777951 
L 210.348395 261.16918 
L 211.553496 260.625046 
L 212.758597 261.850276 
L 213.963698 261.843351 
L 215.168799 262.356037 
L 216.373901 262.090128 
L 217.579002 262.58965 
L 218.784103 263.302734 
L 219.989204 262.454543 
L 221.194305 262.593994 
L 222.399406 262.424779 
L 224.809608 262.701029 
L 226.014709 262.285057 
L 228.424912 263.170076 
L 229.630013 262.706049 
L 232.040215 264.364176 
L 233.245316 264.956252 
L 234.450417 264.49704 
L 236.860619 264.203505 
L 238.065721 264.50265 
L 239.270822 264.040453 
L 240.475923 265.175037 
L 241.681024 265.911472 
L 242.886125 265.793943 
L 244.091226 264.311822 
L 245.296327 263.647741 
L 246.501428 263.309697 
L 247.706529 262.798081 
L 250.116732 262.098416 
L 251.321833 262.032601 
L 252.526934 262.980024 
L 253.732035 263.531529 
L 254.937136 263.520052 
L 256.142237 263.124022 
L 257.347338 263.1081 
L 258.552439 262.582752 
L 259.757541 262.812826 
L 262.167743 263.683213 
L 263.372844 263.891254 
L 265.783046 263.861788 
L 266.988147 264.251089 
L 268.193248 263.998374 
L 269.398349 263.921906 
L 270.603451 264.26316 
L 271.808552 263.525461 
L 273.013653 263.671429 
L 274.218754 264.252615 
L 275.423855 263.906282 
L 276.628956 263.93954 
L 277.834057 263.844253 
L 280.244259 263.841438 
L 281.449361 264.12639 
L 282.654462 263.701735 
L 283.859563 264.729745 
L 285.064664 264.620725 
L 286.269765 264.258612 
L 287.474866 264.921977 
L 289.885068 265.544994 
L 292.295271 265.532806 
L 293.500372 265.055042 
L 294.705473 265.568166 
L 295.910574 265.925899 
L 297.115675 265.798181 
L 298.320776 266.140282 
L 299.525877 265.54753 
L 300.730978 265.733004 
L 303.141181 265.083286 
L 304.346282 265.153045 
L 305.551383 265.360562 
L 306.756484 265.078246 
L 307.961585 265.15523 
L 310.371787 265.70411 
L 311.576888 266.170395 
L 312.781989 265.93107 
L 313.987091 266.416098 
L 315.192192 265.966977 
L 316.397293 265.978228 
L 317.602394 265.716781 
L 318.807495 266.063208 
L 320.012596 266.594562 
L 321.217697 266.705588 
L 322.422798 265.630768 
L 323.627899 265.786481 
L 324.833001 266.157302 
L 327.243203 266.122559 
L 328.448304 265.927268 
L 330.858506 266.373912 
L 333.268708 267.373207 
L 334.473809 267.357927 
L 336.884012 267.741006 
L 338.089113 267.703545 
L 339.294214 267.383998 
L 340.499315 267.705241 
L 341.704416 267.658823 
L 342.909517 268.399058 
L 344.114618 267.856519 
L 345.319719 267.968691 
L 346.524821 268.310783 
L 347.729922 267.357266 
L 348.935023 266.646801 
L 350.140124 266.921238 
L 351.345225 266.38151 
L 353.755427 266.372413 
L 354.960528 266.715938 
L 356.165629 266.560896 
L 357.370731 266.753839 
L 358.575832 266.434128 
L 359.780933 265.681475 
L 360.986034 265.849173 
L 362.191135 265.659766 
L 364.601337 265.719913 
L 365.806438 265.371143 
L 367.011539 264.675293 
L 368.216641 264.539205 
L 369.421742 264.142466 
L 370.626843 263.617241 
L 373.037045 263.995412 
L 374.242146 263.738016 
L 376.652348 264.259133 
L 380.267652 264.505675 
L 381.472753 264.337009 
L 382.677854 264.742987 
L 383.882955 264.772893 
L 386.293157 264.603612 
L 387.498258 264.242958 
L 388.703359 263.56017 
L 389.908461 264.050293 
L 391.113562 264.136897 
L 392.318663 264.030553 
L 393.523764 264.097121 
L 394.728865 263.849546 
L 395.933966 263.884838 
L 397.139067 263.308589 
L 399.549269 263.729492 
L 400.754371 263.549278 
L 403.164573 264.176668 
L 404.369674 263.906535 
L 405.574775 264.108729 
L 406.779876 264.182379 
L 407.984977 264.376189 
L 409.190078 264.008874 
L 410.395179 264.075535 
L 411.600281 263.535158 
L 412.805382 263.497561 
L 414.010483 263.314287 
L 415.215584 263.375102 
L 416.420685 262.933078 
L 417.625786 263.271966 
L 418.830887 263.209765 
L 420.035988 263.02027 
L 421.241089 262.507147 
L 422.446191 262.25813 
L 424.856393 262.261224 
L 426.061494 262.612166 
L 427.266595 262.836324 
L 428.471696 262.838303 
L 429.676797 262.704046 
L 430.881898 263.005966 
L 433.292101 262.663652 
L 434.497202 262.773781 
L 438.112505 262.141597 
L 440.522707 262.573394 
L 441.727808 262.409134 
L 442.932909 262.570392 
L 444.138011 262.299529 
L 445.343112 262.188621 
L 447.753314 261.654905 
L 448.958415 262.033651 
L 450.163516 262.293796 
L 451.368617 261.886997 
L 456.189022 262.282268 
L 457.394123 261.929529 
L 458.599224 262.243722 
L 461.009426 262.281085 
L 463.419628 262.064204 
L 464.624729 262.184082 
L 465.829831 262.491173 
L 467.034932 262.537912 
L 469.445134 262.969098 
L 473.060437 263.401987 
L 474.265538 263.127865 
L 476.675741 263.35204 
L 479.085943 263.708317 
L 480.291044 263.75163 
L 481.496145 264.041826 
L 482.701246 264.088954 
L 486.316549 264.482713 
L 488.726752 264.651748 
L 489.931853 264.519517 
L 491.136954 264.525005 
L 494.752257 265.185514 
L 497.162459 265.235802 
L 499.572662 264.927913 
L 500.777763 264.873484 
L 501.982864 264.997615 
L 503.187965 264.871939 
L 504.393066 265.04361 
L 505.598167 264.708285 
L 506.803268 264.888154 
L 509.213471 264.448742 
L 510.418572 264.380134 
L 511.623673 264.643102 
L 512.828774 264.65342 
L 514.033875 264.543153 
L 515.238976 264.852365 
L 516.444077 265.015638 
L 517.649178 265.041402 
L 518.854279 264.935927 
L 520.059381 265.073386 
L 521.264482 265.08905 
L 522.469583 264.625442 
L 523.674684 264.519438 
L 524.879785 264.611374 
L 526.084886 264.850278 
L 527.289987 264.81671 
L 528.495088 264.977879 
L 535.725695 264.838854 
L 536.930796 264.267265 
L 538.135897 264.072297 
L 539.340998 264.032479 
L 540.546099 263.855238 
L 541.751201 263.900959 
L 542.956302 263.811382 
L 545.366504 263.886817 
L 546.571605 263.852278 
L 547.776706 263.956497 
L 548.981807 263.756062 
L 550.186908 263.925509 
L 551.392009 263.745473 
L 552.597111 263.852574 
L 556.212414 263.577696 
L 557.417515 263.79519 
L 562.237919 263.60489 
L 563.443021 263.422794 
L 565.853223 263.60989 
L 567.058324 263.706516 
L 570.673627 263.603042 
L 571.878728 263.470144 
L 573.083829 263.814059 
L 575.494032 263.252034 
L 576.699133 263.347065 
L 577.904234 263.186905 
L 579.109335 263.376502 
L 585.134841 263.706819 
L 586.339942 263.497009 
L 587.545043 263.000676 
L 589.955245 263.212871 
L 591.160346 263.02714 
L 593.570548 263.317678 
L 594.775649 263.133226 
L 597.185852 263.2426 
L 598.390953 263.524292 
L 599.596054 263.627469 
L 602.006256 264.056091 
L 603.211357 263.930153 
L 605.621559 263.894441 
L 606.826661 263.856342 
L 608.031762 264.076363 
L 609.236863 264.160772 
L 610.441964 264.022231 
L 611.647065 263.559573 
L 612.852166 263.509867 
L 615.262368 263.784857 
L 616.467469 263.916055 
L 617.672571 264.222466 
L 620.082773 264.107281 
L 621.287874 263.864239 
L 623.698076 263.808164 
L 624.903177 263.508653 
L 627.313379 263.821299 
L 628.518481 263.75912 
L 629.723582 263.470219 
L 633.338885 263.098198 
L 634.543986 263.15025 
L 635.749087 262.991752 
L 636.954188 262.619897 
L 638.159289 262.042336 
L 640.569492 261.894993 
L 641.774593 262.184762 
L 642.979694 262.020646 
L 644.184795 262.12472 
L 646.594997 262.099774 
L 647.800098 262.254704 
L 650.210301 262.224353 
L 652.620503 262.407864 
L 655.030705 262.276529 
L 657.440907 262.792946 
L 659.851109 262.33487 
L 662.261312 262.542169 
L 663.466413 262.33765 
L 664.671514 262.403043 
L 667.081716 262.276759 
L 668.286817 262.417532 
L 669.491918 262.322804 
L 673.107222 262.449876 
L 674.312323 262.057007 
L 676.722525 262.411172 
L 679.132727 262.475282 
L 679.132727 262.475282 
" style="fill:none;stroke:#008000;stroke-linecap:square;stroke-width:1.5;"/>
   </g>
   <g id="patch_3">
    <path d="M 47.72 390.04 
L 47.72 28.464 
" style="fill:none;stroke:#000000;stroke-linecap:square;stroke-linejoin:miter;stroke-width:0.8;"/>
   </g>
   <g id="patch_4">
    <path d="M 709.2 390.04 
L 709.2 28.464 
" style="fill:none;stroke:#000000;stroke-linecap:square;stroke-linejoin:miter;stroke-width:0.8;"/>
   </g>
   <g id="patch_5">
    <path d="M 47.72 390.04 
L 709.2 390.04 
" style="fill:none;stroke:#000000;stroke-linecap:square;stroke-linejoin:miter;stroke-width:0.8;"/>
   </g>
   <g id="patch_6">
    <path d="M 47.72 28.464 
L 709.2 28.464 
" style="fill:none;stroke:#000000;stroke-linecap:square;stroke-linejoin:miter;stroke-width:0.8;"/>
   </g>
   <g id="text_18">
    <!-- Average ANEES with parameters $\sigma_{process}=$0.5,  $\sigma_{AIS}=$10, $\sigma_{Radar}=$1 -->
    <g transform="translate(178.3 22.464)scale(0.12 -0.12)">
     <defs>
      <path d="M 2.984375 54.6875 
L 12.5 54.6875 
L 29.59375 8.796875 
L 46.6875 54.6875 
L 56.203125 54.6875 
L 35.6875 0 
L 23.484375 0 
z
" id="DejaVuSans-118"/>
      <path d="M 45.40625 27.984375 
Q 45.40625 37.75 41.375 43.109375 
Q 37.359375 48.484375 30.078125 48.484375 
Q 22.859375 48.484375 18.828125 43.109375 
Q 14.796875 37.75 14.796875 27.984375 
Q 14.796875 18.265625 18.828125 12.890625 
Q 22.859375 7.515625 30.078125 7.515625 
Q 37.359375 7.515625 41.375 12.890625 
Q 45.40625 18.265625 45.40625 27.984375 
z
M 54.390625 6.78125 
Q 54.390625 -7.171875 48.1875 -13.984375 
Q 42 -20.796875 29.203125 -20.796875 
Q 24.46875 -20.796875 20.265625 -20.09375 
Q 16.0625 -19.390625 12.109375 -17.921875 
L 12.109375 -9.1875 
Q 16.0625 -11.328125 19.921875 -12.34375 
Q 23.78125 -13.375 27.78125 -13.375 
Q 36.625 -13.375 41.015625 -8.765625 
Q 45.40625 -4.15625 45.40625 5.171875 
L 45.40625 9.625 
Q 42.625 4.78125 38.28125 2.390625 
Q 33.9375 0 27.875 0 
Q 17.828125 0 11.671875 7.65625 
Q 5.515625 15.328125 5.515625 27.984375 
Q 5.515625 40.671875 11.671875 48.328125 
Q 17.828125 56 27.875 56 
Q 33.9375 56 38.28125 53.609375 
Q 42.625 51.21875 45.40625 46.390625 
L 45.40625 54.6875 
L 54.390625 54.6875 
z
" id="DejaVuSans-103"/>
      <path d="M 4.203125 54.6875 
L 13.1875 54.6875 
L 24.421875 12.015625 
L 35.59375 54.6875 
L 46.1875 54.6875 
L 57.421875 12.015625 
L 68.609375 54.6875 
L 77.59375 54.6875 
L 63.28125 0 
L 52.6875 0 
L 40.921875 44.828125 
L 29.109375 0 
L 18.5 0 
z
" id="DejaVuSans-119"/>
      <path d="M 54.890625 33.015625 
L 54.890625 0 
L 45.90625 0 
L 45.90625 32.71875 
Q 45.90625 40.484375 42.875 44.328125 
Q 39.84375 48.1875 33.796875 48.1875 
Q 26.515625 48.1875 22.3125 43.546875 
Q 18.109375 38.921875 18.109375 30.90625 
L 18.109375 0 
L 9.078125 0 
L 9.078125 75.984375 
L 18.109375 75.984375 
L 18.109375 46.1875 
Q 21.34375 51.125 25.703125 53.5625 
Q 30.078125 56 35.796875 56 
Q 45.21875 56 50.046875 50.171875 
Q 54.890625 44.34375 54.890625 33.015625 
z
" id="DejaVuSans-104"/>
      <path d="M 18.109375 8.203125 
L 18.109375 -20.796875 
L 9.078125 -20.796875 
L 9.078125 54.6875 
L 18.109375 54.6875 
L 18.109375 46.390625 
Q 20.953125 51.265625 25.265625 53.625 
Q 29.59375 56 35.59375 56 
Q 45.5625 56 51.78125 48.09375 
Q 58.015625 40.1875 58.015625 27.296875 
Q 58.015625 14.40625 51.78125 6.484375 
Q 45.5625 -1.421875 35.59375 -1.421875 
Q 29.59375 -1.421875 25.265625 0.953125 
Q 20.953125 3.328125 18.109375 8.203125 
z
M 48.6875 27.296875 
Q 48.6875 37.203125 44.609375 42.84375 
Q 40.53125 48.484375 33.40625 48.484375 
Q 26.265625 48.484375 22.1875 42.84375 
Q 18.109375 37.203125 18.109375 27.296875 
Q 18.109375 17.390625 22.1875 11.75 
Q 26.265625 6.109375 33.40625 6.109375 
Q 40.53125 6.109375 44.609375 11.75 
Q 48.6875 17.390625 48.6875 27.296875 
z
" id="DejaVuSans-112"/>
      <path d="M 52 44.1875 
Q 55.375 50.25 60.0625 53.125 
Q 64.75 56 71.09375 56 
Q 79.640625 56 84.28125 50.015625 
Q 88.921875 44.046875 88.921875 33.015625 
L 88.921875 0 
L 79.890625 0 
L 79.890625 32.71875 
Q 79.890625 40.578125 77.09375 44.375 
Q 74.3125 48.1875 68.609375 48.1875 
Q 61.625 48.1875 57.5625 43.546875 
Q 53.515625 38.921875 53.515625 30.90625 
L 53.515625 0 
L 44.484375 0 
L 44.484375 32.71875 
Q 44.484375 40.625 41.703125 44.40625 
Q 38.921875 48.1875 33.109375 48.1875 
Q 26.21875 48.1875 22.15625 43.53125 
Q 18.109375 38.875 18.109375 30.90625 
L 18.109375 0 
L 9.078125 0 
L 9.078125 54.6875 
L 18.109375 54.6875 
L 18.109375 46.1875 
Q 21.1875 51.21875 25.484375 53.609375 
Q 29.78125 56 35.6875 56 
Q 41.65625 56 45.828125 52.96875 
Q 50 49.953125 52 44.1875 
z
" id="DejaVuSans-109"/>
      <path d="M 34.671875 47.5625 
Q 27.25 47.5625 22.21875 42.1875 
Q 16.890625 36.578125 15.140625 27.296875 
Q 13.1875 17.484375 16.3125 11.8125 
Q 19.390625 6.203125 26.65625 6.203125 
Q 33.84375 6.203125 39.109375 11.859375 
Q 44.4375 17.53125 46.34375 27.296875 
Q 48.046875 36.234375 45.015625 42.1875 
Q 42.1875 47.5625 34.671875 47.5625 
z
M 36.078125 54.734375 
L 65.921875 54.6875 
L 64.15625 45.703125 
L 54.109375 45.703125 
Q 57.90625 38.09375 55.859375 27.296875 
Q 53.21875 13.875 45.0625 6.25 
Q 36.859375 -1.421875 25.140625 -1.421875 
Q 13.375 -1.421875 8.203125 6.25 
Q 3.03125 13.875 5.671875 27.296875 
Q 8.25 40.765625 16.40625 48.390625 
Q 23.1875 54.734375 36.078125 54.734375 
z
" id="DejaVuSans-Oblique-963"/>
      <path d="M 49.609375 33.6875 
Q 49.609375 40.875 46.484375 44.671875 
Q 43.359375 48.484375 37.5 48.484375 
Q 33.5 48.484375 29.859375 46.4375 
Q 26.21875 44.390625 23.390625 40.484375 
Q 20.609375 36.625 18.9375 31.15625 
Q 17.28125 25.6875 17.28125 20.3125 
Q 17.28125 13.484375 20.40625 9.796875 
Q 23.53125 6.109375 29.296875 6.109375 
Q 33.546875 6.109375 37.1875 8.109375 
Q 40.828125 10.109375 43.40625 13.921875 
Q 46.1875 17.921875 47.890625 23.34375 
Q 49.609375 28.765625 49.609375 33.6875 
z
M 21.78125 46.390625 
Q 25.390625 51.125 30.296875 53.5625 
Q 35.203125 56 41.21875 56 
Q 49.609375 56 54.25 50.5 
Q 58.890625 45.015625 58.890625 35.109375 
Q 58.890625 27 56 19.65625 
Q 53.125 12.3125 47.703125 6.5 
Q 44.09375 2.640625 39.546875 0.609375 
Q 35.015625 -1.421875 29.984375 -1.421875 
Q 24.171875 -1.421875 20.21875 1 
Q 16.265625 3.421875 14.3125 8.203125 
L 8.6875 -20.796875 
L -0.296875 -20.796875 
L 14.40625 54.6875 
L 23.390625 54.6875 
z
" id="DejaVuSans-Oblique-112"/>
      <path d="M 44.578125 46.390625 
Q 43.21875 47.125 41.453125 47.515625 
Q 39.703125 47.90625 37.703125 47.90625 
Q 30.515625 47.90625 25.140625 42.453125 
Q 19.78125 37.015625 18.015625 27.875 
L 12.5 0 
L 3.515625 0 
L 14.203125 54.6875 
L 23.1875 54.6875 
L 21.484375 46.1875 
Q 25.046875 50.921875 30 53.453125 
Q 34.96875 56 40.578125 56 
Q 42.046875 56 43.453125 55.828125 
Q 44.875 55.671875 46.296875 55.28125 
z
" id="DejaVuSans-Oblique-114"/>
      <path d="M 25.390625 -1.421875 
Q 15.765625 -1.421875 10.171875 4.515625 
Q 4.59375 10.453125 4.59375 20.703125 
Q 4.59375 26.65625 6.515625 32.828125 
Q 8.453125 39.015625 11.53125 43.21875 
Q 16.359375 49.75 22.3125 52.875 
Q 28.265625 56 35.796875 56 
Q 45.125 56 50.859375 50.1875 
Q 56.59375 44.390625 56.59375 35.015625 
Q 56.59375 28.515625 54.6875 22.0625 
Q 52.78125 15.625 49.703125 11.375 
Q 44.921875 4.828125 38.96875 1.703125 
Q 33.015625 -1.421875 25.390625 -1.421875 
z
M 13.921875 21 
Q 13.921875 13.578125 17.015625 9.890625 
Q 20.125 6.203125 26.421875 6.203125 
Q 35.453125 6.203125 41.375 14.078125 
Q 47.3125 21.96875 47.3125 34.078125 
Q 47.3125 41.15625 44.140625 44.765625 
Q 40.96875 48.390625 34.8125 48.390625 
Q 29.734375 48.390625 25.78125 46.015625 
Q 21.828125 43.65625 18.703125 38.8125 
Q 16.40625 35.203125 15.15625 30.5625 
Q 13.921875 25.921875 13.921875 21 
z
" id="DejaVuSans-Oblique-111"/>
      <path d="M 53.609375 52.59375 
L 51.8125 43.703125 
Q 48.578125 46.046875 44.9375 47.21875 
Q 41.3125 48.390625 37.40625 48.390625 
Q 33.109375 48.390625 29.21875 46.875 
Q 25.34375 45.359375 22.703125 42.578125 
Q 18.5 38.328125 16.203125 32.609375 
Q 13.921875 26.90625 13.921875 20.796875 
Q 13.921875 13.421875 17.609375 9.8125 
Q 21.296875 6.203125 28.8125 6.203125 
Q 32.515625 6.203125 36.6875 7.328125 
Q 40.875 8.453125 45.40625 10.6875 
L 43.703125 1.8125 
Q 39.796875 0.203125 35.671875 -0.609375 
Q 31.546875 -1.421875 27.203125 -1.421875 
Q 16.3125 -1.421875 10.453125 4.015625 
Q 4.59375 9.46875 4.59375 19.578125 
Q 4.59375 28.078125 7.640625 35.234375 
Q 10.6875 42.390625 16.703125 48.09375 
Q 20.796875 52 26.3125 54 
Q 31.84375 56 38.375 56 
Q 42.1875 56 45.9375 55.140625 
Q 49.703125 54.296875 53.609375 52.59375 
z
" id="DejaVuSans-Oblique-99"/>
      <path d="M 48.09375 32.234375 
Q 48.25 33.015625 48.3125 33.84375 
Q 48.390625 34.671875 48.390625 35.5 
Q 48.390625 41.453125 44.890625 44.921875 
Q 41.40625 48.390625 35.40625 48.390625 
Q 28.71875 48.390625 23.578125 44.15625 
Q 18.453125 39.9375 15.828125 32.171875 
z
M 55.90625 25.203125 
L 14.109375 25.203125 
Q 13.8125 23.34375 13.71875 22.265625 
Q 13.625 21.1875 13.625 20.40625 
Q 13.625 13.625 17.796875 9.90625 
Q 21.96875 6.203125 29.59375 6.203125 
Q 35.453125 6.203125 40.671875 7.515625 
Q 45.90625 8.84375 50.390625 11.375 
L 48.6875 2.484375 
Q 43.84375 0.53125 38.6875 -0.4375 
Q 33.546875 -1.421875 28.21875 -1.421875 
Q 16.84375 -1.421875 10.71875 4.015625 
Q 4.59375 9.46875 4.59375 19.484375 
Q 4.59375 28.03125 7.640625 35.375 
Q 10.6875 42.71875 16.609375 48.484375 
Q 20.40625 52.09375 25.65625 54.046875 
Q 30.90625 56 36.8125 56 
Q 46.09375 56 51.578125 50.4375 
Q 57.078125 44.875 57.078125 35.5 
Q 57.078125 33.25 56.78125 30.6875 
Q 56.5 28.125 55.90625 25.203125 
z
" id="DejaVuSans-Oblique-101"/>
      <path d="M 50 53.078125 
L 48.296875 44.578125 
Q 44.734375 46.53125 40.765625 47.5 
Q 36.8125 48.484375 32.625 48.484375 
Q 25.53125 48.484375 21.453125 46.0625 
Q 17.390625 43.65625 17.390625 39.5 
Q 17.390625 34.671875 26.859375 32.078125 
Q 27.59375 31.890625 27.9375 31.78125 
L 30.8125 30.90625 
Q 39.796875 28.421875 42.796875 25.6875 
Q 45.796875 22.953125 45.796875 18.21875 
Q 45.796875 9.515625 38.890625 4.046875 
Q 31.984375 -1.421875 20.796875 -1.421875 
Q 16.453125 -1.421875 11.671875 -0.578125 
Q 6.890625 0.25 1.125 2 
L 2.875 11.28125 
Q 7.8125 8.734375 12.59375 7.421875 
Q 17.390625 6.109375 21.78125 6.109375 
Q 28.375 6.109375 32.5 8.9375 
Q 36.625 11.765625 36.625 16.109375 
Q 36.625 20.796875 25.78125 23.6875 
L 24.859375 23.921875 
L 21.78125 24.703125 
Q 14.9375 26.515625 11.765625 29.46875 
Q 8.59375 32.421875 8.59375 37.015625 
Q 8.59375 45.75 15.15625 50.875 
Q 21.734375 56 33.015625 56 
Q 37.453125 56 41.671875 55.265625 
Q 45.90625 54.546875 50 53.078125 
z
" id="DejaVuSans-Oblique-115"/>
      <path d="M 10.59375 45.40625 
L 73.1875 45.40625 
L 73.1875 37.203125 
L 10.59375 37.203125 
z
M 10.59375 25.484375 
L 73.1875 25.484375 
L 73.1875 17.1875 
L 10.59375 17.1875 
z
" id="DejaVuSans-61"/>
      <path d="M 11.71875 12.40625 
L 22.015625 12.40625 
L 22.015625 4 
L 14.015625 -11.625 
L 7.71875 -11.625 
L 11.71875 4 
z
" id="DejaVuSans-44"/>
      <path d="M 36.8125 72.90625 
L 48 72.90625 
L 61.53125 0 
L 51.21875 0 
L 48.1875 18.703125 
L 15.375 18.703125 
L 5.078125 0 
L -5.328125 0 
z
M 40.375 63.1875 
L 19.921875 26.90625 
L 46.6875 26.90625 
z
" id="DejaVuSans-Oblique-65"/>
      <path d="M 16.890625 72.90625 
L 26.8125 72.90625 
L 12.59375 0 
L 2.6875 0 
z
" id="DejaVuSans-Oblique-73"/>
      <path d="M 60.296875 70.515625 
L 58.40625 60.890625 
Q 53.46875 63.53125 48.609375 64.875 
Q 43.75 66.21875 39.203125 66.21875 
Q 30.375 66.21875 25.140625 62.359375 
Q 19.921875 58.5 19.921875 52.09375 
Q 19.921875 48.578125 21.84375 46.703125 
Q 23.78125 44.828125 31.78125 42.671875 
L 37.703125 41.21875 
Q 47.703125 38.625 51.609375 34.640625 
Q 55.515625 30.671875 55.515625 23.484375 
Q 55.515625 12.453125 46.84375 5.515625 
Q 38.1875 -1.421875 24.03125 -1.421875 
Q 18.21875 -1.421875 12.359375 -0.265625 
Q 6.5 0.875 0.59375 3.21875 
L 2.59375 13.375 
Q 8.015625 10.015625 13.453125 8.296875 
Q 18.890625 6.59375 24.3125 6.59375 
Q 33.546875 6.59375 39.109375 10.6875 
Q 44.671875 14.796875 44.671875 21.390625 
Q 44.671875 25.78125 42.453125 28.046875 
Q 40.234375 30.328125 32.90625 32.171875 
L 27 33.6875 
Q 16.890625 36.328125 13.203125 39.765625 
Q 9.515625 43.21875 9.515625 49.421875 
Q 9.515625 60.296875 17.890625 67.25 
Q 26.265625 74.21875 39.703125 74.21875 
Q 44.921875 74.21875 50.046875 73.28125 
Q 55.171875 72.359375 60.296875 70.515625 
z
" id="DejaVuSans-Oblique-83"/>
      <path d="M 25.203125 64.796875 
L 20.21875 38.921875 
L 32.90625 38.921875 
Q 40.375 38.921875 44.984375 43.046875 
Q 49.609375 47.171875 49.609375 53.8125 
Q 49.609375 59.125 46.5 61.953125 
Q 43.40625 64.796875 37.59375 64.796875 
z
M 43.3125 35.015625 
Q 46.4375 34.28125 48.515625 31.390625 
Q 50.59375 28.515625 53.328125 19.921875 
L 59.515625 0 
L 49.125 0 
L 43.40625 18.703125 
Q 41.21875 25.921875 38.328125 28.359375 
Q 35.453125 30.8125 29.5 30.8125 
L 18.609375 30.8125 
L 12.59375 0 
L 2.6875 0 
L 16.890625 72.90625 
L 39.109375 72.90625 
Q 49.21875 72.90625 54.609375 68.328125 
Q 60.015625 63.765625 60.015625 55.171875 
Q 60.015625 47.5625 55.421875 41.984375 
Q 50.828125 36.421875 43.3125 35.015625 
z
" id="DejaVuSans-Oblique-82"/>
      <path d="M 53.71875 31.203125 
L 47.609375 0 
L 38.625 0 
L 40.28125 8.296875 
Q 36.328125 3.421875 31.265625 1 
Q 26.21875 -1.421875 20.015625 -1.421875 
Q 13.03125 -1.421875 8.5625 2.84375 
Q 4.109375 7.125 4.109375 13.8125 
Q 4.109375 23.390625 11.75 28.953125 
Q 19.390625 34.515625 32.8125 34.515625 
L 45.3125 34.515625 
L 45.796875 36.921875 
Q 45.90625 37.3125 45.953125 37.765625 
Q 46 38.234375 46 39.203125 
Q 46 43.5625 42.453125 45.96875 
Q 38.921875 48.390625 32.515625 48.390625 
Q 28.125 48.390625 23.5 47.265625 
Q 18.890625 46.140625 14.015625 43.890625 
L 15.578125 52.203125 
Q 20.65625 54.109375 25.515625 55.046875 
Q 30.375 56 34.90625 56 
Q 44.578125 56 49.625 51.796875 
Q 54.6875 47.609375 54.6875 39.59375 
Q 54.6875 37.984375 54.4375 35.8125 
Q 54.203125 33.640625 53.71875 31.203125 
z
M 44 27.484375 
L 35.015625 27.484375 
Q 23.96875 27.484375 18.671875 24.53125 
Q 13.375 21.578125 13.375 15.375 
Q 13.375 11.078125 16.078125 8.640625 
Q 18.796875 6.203125 23.578125 6.203125 
Q 30.90625 6.203125 36.375 11.453125 
Q 41.84375 16.703125 43.609375 25.484375 
z
" id="DejaVuSans-Oblique-97"/>
      <path d="M 41.796875 8.203125 
Q 38.1875 3.46875 33.25 1.015625 
Q 28.328125 -1.421875 22.3125 -1.421875 
Q 14.109375 -1.421875 9.34375 4.171875 
Q 4.59375 9.765625 4.59375 19.484375 
Q 4.59375 27.59375 7.46875 34.9375 
Q 10.359375 42.28125 15.828125 48.09375 
Q 19.4375 51.953125 23.96875 53.96875 
Q 28.515625 56 33.5 56 
Q 38.765625 56 42.796875 53.453125 
Q 46.828125 50.921875 49.03125 46.1875 
L 54.890625 75.984375 
L 63.921875 75.984375 
L 49.125 0 
L 40.09375 0 
z
M 13.921875 21.09375 
Q 13.921875 14.015625 17.109375 10.0625 
Q 20.3125 6.109375 25.984375 6.109375 
Q 30.171875 6.109375 33.765625 8.125 
Q 37.359375 10.15625 40.09375 14.109375 
Q 42.96875 18.21875 44.625 23.578125 
Q 46.296875 28.953125 46.296875 34.1875 
Q 46.296875 40.96875 43.09375 44.765625 
Q 39.890625 48.578125 34.28125 48.578125 
Q 30.03125 48.578125 26.359375 46.578125 
Q 22.703125 44.578125 20.125 40.828125 
Q 17.28125 36.765625 15.59375 31.390625 
Q 13.921875 26.03125 13.921875 21.09375 
z
" id="DejaVuSans-Oblique-100"/>
     </defs>
     <use transform="translate(0 0.015625)" xlink:href="#DejaVuSans-65"/>
     <use transform="translate(68.408203 0.015625)" xlink:href="#DejaVuSans-118"/>
     <use transform="translate(127.587891 0.015625)" xlink:href="#DejaVuSans-101"/>
     <use transform="translate(189.111328 0.015625)" xlink:href="#DejaVuSans-114"/>
     <use transform="translate(230.224609 0.015625)" xlink:href="#DejaVuSans-97"/>
     <use transform="translate(291.503906 0.015625)" xlink:href="#DejaVuSans-103"/>
     <use transform="translate(354.980469 0.015625)" xlink:href="#DejaVuSans-101"/>
     <use transform="translate(416.503906 0.015625)" xlink:href="#DejaVuSans-32"/>
     <use transform="translate(448.291016 0.015625)" xlink:href="#DejaVuSans-65"/>
     <use transform="translate(516.699219 0.015625)" xlink:href="#DejaVuSans-78"/>
     <use transform="translate(591.503906 0.015625)" xlink:href="#DejaVuSans-69"/>
     <use transform="translate(654.6875 0.015625)" xlink:href="#DejaVuSans-69"/>
     <use transform="translate(717.871094 0.015625)" xlink:href="#DejaVuSans-83"/>
     <use transform="translate(781.347656 0.015625)" xlink:href="#DejaVuSans-32"/>
     <use transform="translate(813.134766 0.015625)" xlink:href="#DejaVuSans-119"/>
     <use transform="translate(894.921875 0.015625)" xlink:href="#DejaVuSans-105"/>
     <use transform="translate(922.705078 0.015625)" xlink:href="#DejaVuSans-116"/>
     <use transform="translate(961.914062 0.015625)" xlink:href="#DejaVuSans-104"/>
     <use transform="translate(1025.292969 0.015625)" xlink:href="#DejaVuSans-32"/>
     <use transform="translate(1057.080078 0.015625)" xlink:href="#DejaVuSans-112"/>
     <use transform="translate(1120.556641 0.015625)" xlink:href="#DejaVuSans-97"/>
     <use transform="translate(1181.835938 0.015625)" xlink:href="#DejaVuSans-114"/>
     <use transform="translate(1222.949219 0.015625)" xlink:href="#DejaVuSans-97"/>
     <use transform="translate(1284.228516 0.015625)" xlink:href="#DejaVuSans-109"/>
     <use transform="translate(1381.640625 0.015625)" xlink:href="#DejaVuSans-101"/>
     <use transform="translate(1443.164062 0.015625)" xlink:href="#DejaVuSans-116"/>
     <use transform="translate(1482.373047 0.015625)" xlink:href="#DejaVuSans-101"/>
     <use transform="translate(1543.896484 0.015625)" xlink:href="#DejaVuSans-114"/>
     <use transform="translate(1585.009766 0.015625)" xlink:href="#DejaVuSans-115"/>
     <use transform="translate(1637.109375 0.015625)" xlink:href="#DejaVuSans-32"/>
     <use transform="translate(1668.896484 0.015625)" xlink:href="#DejaVuSans-Oblique-963"/>
     <use transform="translate(1732.275391 -16.390625)scale(0.7)" xlink:href="#DejaVuSans-Oblique-112"/>
     <use transform="translate(1776.708984 -16.390625)scale(0.7)" xlink:href="#DejaVuSans-Oblique-114"/>
     <use transform="translate(1805.488281 -16.390625)scale(0.7)" xlink:href="#DejaVuSans-Oblique-111"/>
     <use transform="translate(1848.31543 -16.390625)scale(0.7)" xlink:href="#DejaVuSans-Oblique-99"/>
     <use transform="translate(1886.801758 -16.390625)scale(0.7)" xlink:href="#DejaVuSans-Oblique-101"/>
     <use transform="translate(1929.868164 -16.390625)scale(0.7)" xlink:href="#DejaVuSans-Oblique-115"/>
     <use transform="translate(1966.337891 -16.390625)scale(0.7)" xlink:href="#DejaVuSans-Oblique-115"/>
     <use transform="translate(2025.024414 0.015625)" xlink:href="#DejaVuSans-61"/>
     <use transform="translate(2128.295898 0.015625)" xlink:href="#DejaVuSans-48"/>
     <use transform="translate(2191.918945 0.015625)" xlink:href="#DejaVuSans-46"/>
     <use transform="translate(2223.706055 0.015625)" xlink:href="#DejaVuSans-53"/>
     <use transform="translate(2287.329102 0.015625)" xlink:href="#DejaVuSans-44"/>
     <use transform="translate(2319.116211 0.015625)" xlink:href="#DejaVuSans-32"/>
     <use transform="translate(2350.90332 0.015625)" xlink:href="#DejaVuSans-32"/>
     <use transform="translate(2382.69043 0.015625)" xlink:href="#DejaVuSans-Oblique-963"/>
     <use transform="translate(2446.069336 -16.390625)scale(0.7)" xlink:href="#DejaVuSans-Oblique-65"/>
     <use transform="translate(2493.955078 -16.390625)scale(0.7)" xlink:href="#DejaVuSans-Oblique-73"/>
     <use transform="translate(2514.599609 -16.390625)scale(0.7)" xlink:href="#DejaVuSans-Oblique-83"/>
     <use transform="translate(2581.25 0.015625)" xlink:href="#DejaVuSans-61"/>
     <use transform="translate(2684.521484 0.015625)" xlink:href="#DejaVuSans-49"/>
     <use transform="translate(2748.144531 0.015625)" xlink:href="#DejaVuSans-48"/>
     <use transform="translate(2811.767578 0.015625)" xlink:href="#DejaVuSans-44"/>
     <use transform="translate(2843.554688 0.015625)" xlink:href="#DejaVuSans-32"/>
     <use transform="translate(2875.341797 0.015625)" xlink:href="#DejaVuSans-Oblique-963"/>
     <use transform="translate(2938.720703 -16.390625)scale(0.7)" xlink:href="#DejaVuSans-Oblique-82"/>
     <use transform="translate(2987.358398 -16.390625)scale(0.7)" xlink:href="#DejaVuSans-Oblique-97"/>
     <use transform="translate(3030.253906 -16.390625)scale(0.7)" xlink:href="#DejaVuSans-Oblique-100"/>
     <use transform="translate(3074.6875 -16.390625)scale(0.7)" xlink:href="#DejaVuSans-Oblique-97"/>
     <use transform="translate(3117.583008 -16.390625)scale(0.7)" xlink:href="#DejaVuSans-Oblique-114"/>
     <use transform="translate(3168.579102 0.015625)" xlink:href="#DejaVuSans-61"/>
     <use transform="translate(3271.850586 0.015625)" xlink:href="#DejaVuSans-49"/>
    </g>
   </g>
   <g id="legend_1">
    <g id="patch_7">
     <path d="M 566.607813 95.1765 
L 702.2 95.1765 
Q 704.2 95.1765 704.2 93.1765 
L 704.2 35.464 
Q 704.2 33.464 702.2 33.464 
L 566.607813 33.464 
Q 564.607813 33.464 564.607813 35.464 
L 564.607813 93.1765 
Q 564.607813 95.1765 566.607813 95.1765 
z
" style="fill:#ffffff;opacity:0.8;stroke:#cccccc;stroke-linejoin:miter;"/>
    </g>
    <g id="line2d_21">
     <path d="M 568.607813 41.562438 
L 588.607813 41.562438 
" style="fill:none;stroke:#000000;stroke-linecap:square;stroke-width:1.5;"/>
    </g>
    <g id="line2d_22"/>
    <g id="text_19">
     <!-- Confidence Intervals -->
     <g transform="translate(596.607813 45.062438)scale(0.1 -0.1)">
      <defs>
       <path d="M 37.109375 75.984375 
L 37.109375 68.5 
L 28.515625 68.5 
Q 23.6875 68.5 21.796875 66.546875 
Q 19.921875 64.59375 19.921875 59.515625 
L 19.921875 54.6875 
L 34.71875 54.6875 
L 34.71875 47.703125 
L 19.921875 47.703125 
L 19.921875 0 
L 10.890625 0 
L 10.890625 47.703125 
L 2.296875 47.703125 
L 2.296875 54.6875 
L 10.890625 54.6875 
L 10.890625 58.5 
Q 10.890625 67.625 15.140625 71.796875 
Q 19.390625 75.984375 28.609375 75.984375 
z
" id="DejaVuSans-102"/>
       <path d="M 45.40625 46.390625 
L 45.40625 75.984375 
L 54.390625 75.984375 
L 54.390625 0 
L 45.40625 0 
L 45.40625 8.203125 
Q 42.578125 3.328125 38.25 0.953125 
Q 33.9375 -1.421875 27.875 -1.421875 
Q 17.96875 -1.421875 11.734375 6.484375 
Q 5.515625 14.40625 5.515625 27.296875 
Q 5.515625 40.1875 11.734375 48.09375 
Q 17.96875 56 27.875 56 
Q 33.9375 56 38.25 53.625 
Q 42.578125 51.265625 45.40625 46.390625 
z
M 14.796875 27.296875 
Q 14.796875 17.390625 18.875 11.75 
Q 22.953125 6.109375 30.078125 6.109375 
Q 37.203125 6.109375 41.296875 11.75 
Q 45.40625 17.390625 45.40625 27.296875 
Q 45.40625 37.203125 41.296875 42.84375 
Q 37.203125 48.484375 30.078125 48.484375 
Q 22.953125 48.484375 18.875 42.84375 
Q 14.796875 37.203125 14.796875 27.296875 
z
" id="DejaVuSans-100"/>
       <path d="M 48.78125 52.59375 
L 48.78125 44.1875 
Q 44.96875 46.296875 41.140625 47.34375 
Q 37.3125 48.390625 33.40625 48.390625 
Q 24.65625 48.390625 19.8125 42.84375 
Q 14.984375 37.3125 14.984375 27.296875 
Q 14.984375 17.28125 19.8125 11.734375 
Q 24.65625 6.203125 33.40625 6.203125 
Q 37.3125 6.203125 41.140625 7.25 
Q 44.96875 8.296875 48.78125 10.40625 
L 48.78125 2.09375 
Q 45.015625 0.34375 40.984375 -0.53125 
Q 36.96875 -1.421875 32.421875 -1.421875 
Q 20.0625 -1.421875 12.78125 6.34375 
Q 5.515625 14.109375 5.515625 27.296875 
Q 5.515625 40.671875 12.859375 48.328125 
Q 20.21875 56 33.015625 56 
Q 37.15625 56 41.109375 55.140625 
Q 45.0625 54.296875 48.78125 52.59375 
z
" id="DejaVuSans-99"/>
       <path d="M 9.8125 72.90625 
L 19.671875 72.90625 
L 19.671875 0 
L 9.8125 0 
z
" id="DejaVuSans-73"/>
       <path d="M 9.421875 75.984375 
L 18.40625 75.984375 
L 18.40625 0 
L 9.421875 0 
z
" id="DejaVuSans-108"/>
      </defs>
      <use xlink:href="#DejaVuSans-67"/>
      <use x="69.824219" xlink:href="#DejaVuSans-111"/>
      <use x="131.005859" xlink:href="#DejaVuSans-110"/>
      <use x="194.384766" xlink:href="#DejaVuSans-102"/>
      <use x="229.589844" xlink:href="#DejaVuSans-105"/>
      <use x="257.373047" xlink:href="#DejaVuSans-100"/>
      <use x="320.849609" xlink:href="#DejaVuSans-101"/>
      <use x="382.373047" xlink:href="#DejaVuSans-110"/>
      <use x="445.751953" xlink:href="#DejaVuSans-99"/>
      <use x="500.732422" xlink:href="#DejaVuSans-101"/>
      <use x="562.255859" xlink:href="#DejaVuSans-32"/>
      <use x="594.042969" xlink:href="#DejaVuSans-73"/>
      <use x="623.535156" xlink:href="#DejaVuSans-110"/>
      <use x="686.914062" xlink:href="#DejaVuSans-116"/>
      <use x="726.123047" xlink:href="#DejaVuSans-101"/>
      <use x="787.646484" xlink:href="#DejaVuSans-114"/>
      <use x="828.759766" xlink:href="#DejaVuSans-118"/>
      <use x="887.939453" xlink:href="#DejaVuSans-97"/>
      <use x="949.21875" xlink:href="#DejaVuSans-108"/>
      <use x="977.001953" xlink:href="#DejaVuSans-115"/>
     </g>
    </g>
    <g id="line2d_23">
     <path d="M 568.607813 56.240563 
L 588.607813 56.240563 
" style="fill:none;stroke:#0000ff;stroke-linecap:square;stroke-width:1.5;"/>
    </g>
    <g id="line2d_24"/>
    <g id="text_20">
     <!-- Independent -->
     <g transform="translate(596.607813 59.740563)scale(0.1 -0.1)">
      <use xlink:href="#DejaVuSans-73"/>
      <use x="29.492188" xlink:href="#DejaVuSans-110"/>
      <use x="92.871094" xlink:href="#DejaVuSans-100"/>
      <use x="156.347656" xlink:href="#DejaVuSans-101"/>
      <use x="217.871094" xlink:href="#DejaVuSans-112"/>
      <use x="281.347656" xlink:href="#DejaVuSans-101"/>
      <use x="342.871094" xlink:href="#DejaVuSans-110"/>
      <use x="406.25" xlink:href="#DejaVuSans-100"/>
      <use x="469.726562" xlink:href="#DejaVuSans-101"/>
      <use x="531.25" xlink:href="#DejaVuSans-110"/>
      <use x="594.628906" xlink:href="#DejaVuSans-116"/>
     </g>
    </g>
    <g id="line2d_25">
     <path d="M 568.607813 70.918688 
L 588.607813 70.918688 
" style="fill:none;stroke:#ff0000;stroke-linecap:square;stroke-width:1.5;"/>
    </g>
    <g id="line2d_26"/>
    <g id="text_21">
     <!-- Dependent -->
     <g transform="translate(596.607813 74.418688)scale(0.1 -0.1)">
      <defs>
       <path d="M 19.671875 64.796875 
L 19.671875 8.109375 
L 31.59375 8.109375 
Q 46.6875 8.109375 53.6875 14.9375 
Q 60.6875 21.78125 60.6875 36.53125 
Q 60.6875 51.171875 53.6875 57.984375 
Q 46.6875 64.796875 31.59375 64.796875 
z
M 9.8125 72.90625 
L 30.078125 72.90625 
Q 51.265625 72.90625 61.171875 64.09375 
Q 71.09375 55.28125 71.09375 36.53125 
Q 71.09375 17.671875 61.125 8.828125 
Q 51.171875 0 30.078125 0 
L 9.8125 0 
z
" id="DejaVuSans-68"/>
      </defs>
      <use xlink:href="#DejaVuSans-68"/>
      <use x="77.001953" xlink:href="#DejaVuSans-101"/>
      <use x="138.525391" xlink:href="#DejaVuSans-112"/>
      <use x="202.001953" xlink:href="#DejaVuSans-101"/>
      <use x="263.525391" xlink:href="#DejaVuSans-110"/>
      <use x="326.904297" xlink:href="#DejaVuSans-100"/>
      <use x="390.380859" xlink:href="#DejaVuSans-101"/>
      <use x="451.904297" xlink:href="#DejaVuSans-110"/>
      <use x="515.283203" xlink:href="#DejaVuSans-116"/>
     </g>
    </g>
    <g id="line2d_27">
     <path d="M 568.607813 85.596813 
L 588.607813 85.596813 
" style="fill:none;stroke:#008000;stroke-linecap:square;stroke-width:1.5;"/>
    </g>
    <g id="line2d_28"/>
    <g id="text_22">
     <!-- AIS as measurement -->
     <g transform="translate(596.607813 89.096813)scale(0.1 -0.1)">
      <defs>
       <path d="M 8.5 21.578125 
L 8.5 54.6875 
L 17.484375 54.6875 
L 17.484375 21.921875 
Q 17.484375 14.15625 20.5 10.265625 
Q 23.53125 6.390625 29.59375 6.390625 
Q 36.859375 6.390625 41.078125 11.03125 
Q 45.3125 15.671875 45.3125 23.6875 
L 45.3125 54.6875 
L 54.296875 54.6875 
L 54.296875 0 
L 45.3125 0 
L 45.3125 8.40625 
Q 42.046875 3.421875 37.71875 1 
Q 33.40625 -1.421875 27.6875 -1.421875 
Q 18.265625 -1.421875 13.375 4.4375 
Q 8.5 10.296875 8.5 21.578125 
z
M 31.109375 56 
z
" id="DejaVuSans-117"/>
      </defs>
      <use xlink:href="#DejaVuSans-65"/>
      <use x="68.408203" xlink:href="#DejaVuSans-73"/>
      <use x="97.900391" xlink:href="#DejaVuSans-83"/>
      <use x="161.376953" xlink:href="#DejaVuSans-32"/>
      <use x="193.164062" xlink:href="#DejaVuSans-97"/>
      <use x="254.443359" xlink:href="#DejaVuSans-115"/>
      <use x="306.542969" xlink:href="#DejaVuSans-32"/>
      <use x="338.330078" xlink:href="#DejaVuSans-109"/>
      <use x="435.742188" xlink:href="#DejaVuSans-101"/>
      <use x="497.265625" xlink:href="#DejaVuSans-97"/>
      <use x="558.544922" xlink:href="#DejaVuSans-115"/>
      <use x="610.644531" xlink:href="#DejaVuSans-117"/>
      <use x="674.023438" xlink:href="#DejaVuSans-114"/>
      <use x="712.886719" xlink:href="#DejaVuSans-101"/>
      <use x="774.410156" xlink:href="#DejaVuSans-109"/>
      <use x="871.822266" xlink:href="#DejaVuSans-101"/>
      <use x="933.345703" xlink:href="#DejaVuSans-110"/>
      <use x="996.724609" xlink:href="#DejaVuSans-116"/>
     </g>
    </g>
   </g>
  </g>
 </g>
 <defs>
  <clipPath id="pe01457faee">
   <rect height="361.576" width="661.48" x="47.72" y="28.464"/>
  </clipPath>
 </defs>
</svg>
