<?xml version="1.0" encoding="utf-8" standalone="no"?>
<!DOCTYPE svg PUBLIC "-//W3C//DTD SVG 1.1//EN"
  "http://www.w3.org/Graphics/SVG/1.1/DTD/svg11.dtd">
<!-- Created with matplotlib (https://matplotlib.org/) -->
<svg height="432pt" version="1.1" viewBox="0 0 720 432" width="720pt" xmlns="http://www.w3.org/2000/svg" xmlns:xlink="http://www.w3.org/1999/xlink">
 <metadata>
  <rdf:RDF xmlns:cc="http://creativecommons.org/ns#" xmlns:dc="http://purl.org/dc/elements/1.1/" xmlns:rdf="http://www.w3.org/1999/02/22-rdf-syntax-ns#">
   <cc:Work>
    <dc:type rdf:resource="http://purl.org/dc/dcmitype/StillImage"/>
    <dc:date>2020-10-14T12:13:47.916567</dc:date>
    <dc:format>image/svg+xml</dc:format>
    <dc:creator>
     <cc:Agent>
      <dc:title>Matplotlib v3.3.1, https://matplotlib.org/</dc:title>
     </cc:Agent>
    </dc:creator>
   </cc:Work>
  </rdf:RDF>
 </metadata>
 <defs>
  <style type="text/css">*{stroke-linecap:butt;stroke-linejoin:round;}</style>
 </defs>
 <g id="figure_1">
  <g id="patch_1">
   <path d="M 0 432 
L 720 432 
L 720 0 
L 0 0 
z
" style="fill:#ffffff;"/>
  </g>
  <g id="axes_1">
   <g id="patch_2">
    <path d="M 47.72 390.04 
L 709.2 390.04 
L 709.2 28.464 
L 47.72 28.464 
z
" style="fill:#ffffff;"/>
   </g>
   <g id="matplotlib.axis_1">
    <g id="xtick_1">
     <g id="line2d_1">
      <defs>
       <path d="M 0 0 
L 0 3.5 
" id="m03d1047367" style="stroke:#000000;stroke-width:0.8;"/>
      </defs>
      <g>
       <use style="stroke:#000000;stroke-width:0.8;" x="77.787273" xlink:href="#m03d1047367" y="390.04"/>
      </g>
     </g>
     <g id="text_1">
      <!-- 0 -->
      <g transform="translate(74.606023 404.638438)scale(0.1 -0.1)">
       <defs>
        <path d="M 31.78125 66.40625 
Q 24.171875 66.40625 20.328125 58.90625 
Q 16.5 51.421875 16.5 36.375 
Q 16.5 21.390625 20.328125 13.890625 
Q 24.171875 6.390625 31.78125 6.390625 
Q 39.453125 6.390625 43.28125 13.890625 
Q 47.125 21.390625 47.125 36.375 
Q 47.125 51.421875 43.28125 58.90625 
Q 39.453125 66.40625 31.78125 66.40625 
z
M 31.78125 74.21875 
Q 44.046875 74.21875 50.515625 64.515625 
Q 56.984375 54.828125 56.984375 36.375 
Q 56.984375 17.96875 50.515625 8.265625 
Q 44.046875 -1.421875 31.78125 -1.421875 
Q 19.53125 -1.421875 13.0625 8.265625 
Q 6.59375 17.96875 6.59375 36.375 
Q 6.59375 54.828125 13.0625 64.515625 
Q 19.53125 74.21875 31.78125 74.21875 
z
" id="DejaVuSans-48"/>
       </defs>
       <use xlink:href="#DejaVuSans-48"/>
      </g>
     </g>
    </g>
    <g id="xtick_2">
     <g id="line2d_2">
      <g>
       <use style="stroke:#000000;stroke-width:0.8;" x="198.297384" xlink:href="#m03d1047367" y="390.04"/>
      </g>
     </g>
     <g id="text_2">
      <!-- 100 -->
      <g transform="translate(188.753634 404.638438)scale(0.1 -0.1)">
       <defs>
        <path d="M 12.40625 8.296875 
L 28.515625 8.296875 
L 28.515625 63.921875 
L 10.984375 60.40625 
L 10.984375 69.390625 
L 28.421875 72.90625 
L 38.28125 72.90625 
L 38.28125 8.296875 
L 54.390625 8.296875 
L 54.390625 0 
L 12.40625 0 
z
" id="DejaVuSans-49"/>
       </defs>
       <use xlink:href="#DejaVuSans-49"/>
       <use x="63.623047" xlink:href="#DejaVuSans-48"/>
       <use x="127.246094" xlink:href="#DejaVuSans-48"/>
      </g>
     </g>
    </g>
    <g id="xtick_3">
     <g id="line2d_3">
      <g>
       <use style="stroke:#000000;stroke-width:0.8;" x="318.807495" xlink:href="#m03d1047367" y="390.04"/>
      </g>
     </g>
     <g id="text_3">
      <!-- 200 -->
      <g transform="translate(309.263745 404.638438)scale(0.1 -0.1)">
       <defs>
        <path d="M 19.1875 8.296875 
L 53.609375 8.296875 
L 53.609375 0 
L 7.328125 0 
L 7.328125 8.296875 
Q 12.9375 14.109375 22.625 23.890625 
Q 32.328125 33.6875 34.8125 36.53125 
Q 39.546875 41.84375 41.421875 45.53125 
Q 43.3125 49.21875 43.3125 52.78125 
Q 43.3125 58.59375 39.234375 62.25 
Q 35.15625 65.921875 28.609375 65.921875 
Q 23.96875 65.921875 18.8125 64.3125 
Q 13.671875 62.703125 7.8125 59.421875 
L 7.8125 69.390625 
Q 13.765625 71.78125 18.9375 73 
Q 24.125 74.21875 28.421875 74.21875 
Q 39.75 74.21875 46.484375 68.546875 
Q 53.21875 62.890625 53.21875 53.421875 
Q 53.21875 48.921875 51.53125 44.890625 
Q 49.859375 40.875 45.40625 35.40625 
Q 44.1875 33.984375 37.640625 27.21875 
Q 31.109375 20.453125 19.1875 8.296875 
z
" id="DejaVuSans-50"/>
       </defs>
       <use xlink:href="#DejaVuSans-50"/>
       <use x="63.623047" xlink:href="#DejaVuSans-48"/>
       <use x="127.246094" xlink:href="#DejaVuSans-48"/>
      </g>
     </g>
    </g>
    <g id="xtick_4">
     <g id="line2d_4">
      <g>
       <use style="stroke:#000000;stroke-width:0.8;" x="439.317606" xlink:href="#m03d1047367" y="390.04"/>
      </g>
     </g>
     <g id="text_4">
      <!-- 300 -->
      <g transform="translate(429.773856 404.638438)scale(0.1 -0.1)">
       <defs>
        <path d="M 40.578125 39.3125 
Q 47.65625 37.796875 51.625 33 
Q 55.609375 28.21875 55.609375 21.1875 
Q 55.609375 10.40625 48.1875 4.484375 
Q 40.765625 -1.421875 27.09375 -1.421875 
Q 22.515625 -1.421875 17.65625 -0.515625 
Q 12.796875 0.390625 7.625 2.203125 
L 7.625 11.71875 
Q 11.71875 9.328125 16.59375 8.109375 
Q 21.484375 6.890625 26.8125 6.890625 
Q 36.078125 6.890625 40.9375 10.546875 
Q 45.796875 14.203125 45.796875 21.1875 
Q 45.796875 27.640625 41.28125 31.265625 
Q 36.765625 34.90625 28.71875 34.90625 
L 20.21875 34.90625 
L 20.21875 43.015625 
L 29.109375 43.015625 
Q 36.375 43.015625 40.234375 45.921875 
Q 44.09375 48.828125 44.09375 54.296875 
Q 44.09375 59.90625 40.109375 62.90625 
Q 36.140625 65.921875 28.71875 65.921875 
Q 24.65625 65.921875 20.015625 65.03125 
Q 15.375 64.15625 9.8125 62.3125 
L 9.8125 71.09375 
Q 15.4375 72.65625 20.34375 73.4375 
Q 25.25 74.21875 29.59375 74.21875 
Q 40.828125 74.21875 47.359375 69.109375 
Q 53.90625 64.015625 53.90625 55.328125 
Q 53.90625 49.265625 50.4375 45.09375 
Q 46.96875 40.921875 40.578125 39.3125 
z
" id="DejaVuSans-51"/>
       </defs>
       <use xlink:href="#DejaVuSans-51"/>
       <use x="63.623047" xlink:href="#DejaVuSans-48"/>
       <use x="127.246094" xlink:href="#DejaVuSans-48"/>
      </g>
     </g>
    </g>
    <g id="xtick_5">
     <g id="line2d_5">
      <g>
       <use style="stroke:#000000;stroke-width:0.8;" x="559.827717" xlink:href="#m03d1047367" y="390.04"/>
      </g>
     </g>
     <g id="text_5">
      <!-- 400 -->
      <g transform="translate(550.283967 404.638438)scale(0.1 -0.1)">
       <defs>
        <path d="M 37.796875 64.3125 
L 12.890625 25.390625 
L 37.796875 25.390625 
z
M 35.203125 72.90625 
L 47.609375 72.90625 
L 47.609375 25.390625 
L 58.015625 25.390625 
L 58.015625 17.1875 
L 47.609375 17.1875 
L 47.609375 0 
L 37.796875 0 
L 37.796875 17.1875 
L 4.890625 17.1875 
L 4.890625 26.703125 
z
" id="DejaVuSans-52"/>
       </defs>
       <use xlink:href="#DejaVuSans-52"/>
       <use x="63.623047" xlink:href="#DejaVuSans-48"/>
       <use x="127.246094" xlink:href="#DejaVuSans-48"/>
      </g>
     </g>
    </g>
    <g id="xtick_6">
     <g id="line2d_6">
      <g>
       <use style="stroke:#000000;stroke-width:0.8;" x="680.337828" xlink:href="#m03d1047367" y="390.04"/>
      </g>
     </g>
     <g id="text_6">
      <!-- 500 -->
      <g transform="translate(670.794078 404.638438)scale(0.1 -0.1)">
       <defs>
        <path d="M 10.796875 72.90625 
L 49.515625 72.90625 
L 49.515625 64.59375 
L 19.828125 64.59375 
L 19.828125 46.734375 
Q 21.96875 47.46875 24.109375 47.828125 
Q 26.265625 48.1875 28.421875 48.1875 
Q 40.625 48.1875 47.75 41.5 
Q 54.890625 34.8125 54.890625 23.390625 
Q 54.890625 11.625 47.5625 5.09375 
Q 40.234375 -1.421875 26.90625 -1.421875 
Q 22.3125 -1.421875 17.546875 -0.640625 
Q 12.796875 0.140625 7.71875 1.703125 
L 7.71875 11.625 
Q 12.109375 9.234375 16.796875 8.0625 
Q 21.484375 6.890625 26.703125 6.890625 
Q 35.15625 6.890625 40.078125 11.328125 
Q 45.015625 15.765625 45.015625 23.390625 
Q 45.015625 31 40.078125 35.4375 
Q 35.15625 39.890625 26.703125 39.890625 
Q 22.75 39.890625 18.8125 39.015625 
Q 14.890625 38.140625 10.796875 36.28125 
z
" id="DejaVuSans-53"/>
       </defs>
       <use xlink:href="#DejaVuSans-53"/>
       <use x="63.623047" xlink:href="#DejaVuSans-48"/>
       <use x="127.246094" xlink:href="#DejaVuSans-48"/>
      </g>
     </g>
    </g>
    <g id="text_7">
     <!-- MC iterations -->
     <g transform="translate(345.338125 418.316562)scale(0.1 -0.1)">
      <defs>
       <path d="M 9.8125 72.90625 
L 24.515625 72.90625 
L 43.109375 23.296875 
L 61.8125 72.90625 
L 76.515625 72.90625 
L 76.515625 0 
L 66.890625 0 
L 66.890625 64.015625 
L 48.09375 14.015625 
L 38.1875 14.015625 
L 19.390625 64.015625 
L 19.390625 0 
L 9.8125 0 
z
" id="DejaVuSans-77"/>
       <path d="M 64.40625 67.28125 
L 64.40625 56.890625 
Q 59.421875 61.53125 53.78125 63.8125 
Q 48.140625 66.109375 41.796875 66.109375 
Q 29.296875 66.109375 22.65625 58.46875 
Q 16.015625 50.828125 16.015625 36.375 
Q 16.015625 21.96875 22.65625 14.328125 
Q 29.296875 6.6875 41.796875 6.6875 
Q 48.140625 6.6875 53.78125 8.984375 
Q 59.421875 11.28125 64.40625 15.921875 
L 64.40625 5.609375 
Q 59.234375 2.09375 53.4375 0.328125 
Q 47.65625 -1.421875 41.21875 -1.421875 
Q 24.65625 -1.421875 15.125 8.703125 
Q 5.609375 18.84375 5.609375 36.375 
Q 5.609375 53.953125 15.125 64.078125 
Q 24.65625 74.21875 41.21875 74.21875 
Q 47.75 74.21875 53.53125 72.484375 
Q 59.328125 70.75 64.40625 67.28125 
z
" id="DejaVuSans-67"/>
       <path id="DejaVuSans-32"/>
       <path d="M 9.421875 54.6875 
L 18.40625 54.6875 
L 18.40625 0 
L 9.421875 0 
z
M 9.421875 75.984375 
L 18.40625 75.984375 
L 18.40625 64.59375 
L 9.421875 64.59375 
z
" id="DejaVuSans-105"/>
       <path d="M 18.3125 70.21875 
L 18.3125 54.6875 
L 36.8125 54.6875 
L 36.8125 47.703125 
L 18.3125 47.703125 
L 18.3125 18.015625 
Q 18.3125 11.328125 20.140625 9.421875 
Q 21.96875 7.515625 27.59375 7.515625 
L 36.8125 7.515625 
L 36.8125 0 
L 27.59375 0 
Q 17.1875 0 13.234375 3.875 
Q 9.28125 7.765625 9.28125 18.015625 
L 9.28125 47.703125 
L 2.6875 47.703125 
L 2.6875 54.6875 
L 9.28125 54.6875 
L 9.28125 70.21875 
z
" id="DejaVuSans-116"/>
       <path d="M 56.203125 29.59375 
L 56.203125 25.203125 
L 14.890625 25.203125 
Q 15.484375 15.921875 20.484375 11.0625 
Q 25.484375 6.203125 34.421875 6.203125 
Q 39.59375 6.203125 44.453125 7.46875 
Q 49.3125 8.734375 54.109375 11.28125 
L 54.109375 2.78125 
Q 49.265625 0.734375 44.1875 -0.34375 
Q 39.109375 -1.421875 33.890625 -1.421875 
Q 20.796875 -1.421875 13.15625 6.1875 
Q 5.515625 13.8125 5.515625 26.8125 
Q 5.515625 40.234375 12.765625 48.109375 
Q 20.015625 56 32.328125 56 
Q 43.359375 56 49.78125 48.890625 
Q 56.203125 41.796875 56.203125 29.59375 
z
M 47.21875 32.234375 
Q 47.125 39.59375 43.09375 43.984375 
Q 39.0625 48.390625 32.421875 48.390625 
Q 24.90625 48.390625 20.390625 44.140625 
Q 15.875 39.890625 15.1875 32.171875 
z
" id="DejaVuSans-101"/>
       <path d="M 41.109375 46.296875 
Q 39.59375 47.171875 37.8125 47.578125 
Q 36.03125 48 33.890625 48 
Q 26.265625 48 22.1875 43.046875 
Q 18.109375 38.09375 18.109375 28.8125 
L 18.109375 0 
L 9.078125 0 
L 9.078125 54.6875 
L 18.109375 54.6875 
L 18.109375 46.1875 
Q 20.953125 51.171875 25.484375 53.578125 
Q 30.03125 56 36.53125 56 
Q 37.453125 56 38.578125 55.875 
Q 39.703125 55.765625 41.0625 55.515625 
z
" id="DejaVuSans-114"/>
       <path d="M 34.28125 27.484375 
Q 23.390625 27.484375 19.1875 25 
Q 14.984375 22.515625 14.984375 16.5 
Q 14.984375 11.71875 18.140625 8.90625 
Q 21.296875 6.109375 26.703125 6.109375 
Q 34.1875 6.109375 38.703125 11.40625 
Q 43.21875 16.703125 43.21875 25.484375 
L 43.21875 27.484375 
z
M 52.203125 31.203125 
L 52.203125 0 
L 43.21875 0 
L 43.21875 8.296875 
Q 40.140625 3.328125 35.546875 0.953125 
Q 30.953125 -1.421875 24.3125 -1.421875 
Q 15.921875 -1.421875 10.953125 3.296875 
Q 6 8.015625 6 15.921875 
Q 6 25.140625 12.171875 29.828125 
Q 18.359375 34.515625 30.609375 34.515625 
L 43.21875 34.515625 
L 43.21875 35.40625 
Q 43.21875 41.609375 39.140625 45 
Q 35.0625 48.390625 27.6875 48.390625 
Q 23 48.390625 18.546875 47.265625 
Q 14.109375 46.140625 10.015625 43.890625 
L 10.015625 52.203125 
Q 14.9375 54.109375 19.578125 55.046875 
Q 24.21875 56 28.609375 56 
Q 40.484375 56 46.34375 49.84375 
Q 52.203125 43.703125 52.203125 31.203125 
z
" id="DejaVuSans-97"/>
       <path d="M 30.609375 48.390625 
Q 23.390625 48.390625 19.1875 42.75 
Q 14.984375 37.109375 14.984375 27.296875 
Q 14.984375 17.484375 19.15625 11.84375 
Q 23.34375 6.203125 30.609375 6.203125 
Q 37.796875 6.203125 41.984375 11.859375 
Q 46.1875 17.53125 46.1875 27.296875 
Q 46.1875 37.015625 41.984375 42.703125 
Q 37.796875 48.390625 30.609375 48.390625 
z
M 30.609375 56 
Q 42.328125 56 49.015625 48.375 
Q 55.71875 40.765625 55.71875 27.296875 
Q 55.71875 13.875 49.015625 6.21875 
Q 42.328125 -1.421875 30.609375 -1.421875 
Q 18.84375 -1.421875 12.171875 6.21875 
Q 5.515625 13.875 5.515625 27.296875 
Q 5.515625 40.765625 12.171875 48.375 
Q 18.84375 56 30.609375 56 
z
" id="DejaVuSans-111"/>
       <path d="M 54.890625 33.015625 
L 54.890625 0 
L 45.90625 0 
L 45.90625 32.71875 
Q 45.90625 40.484375 42.875 44.328125 
Q 39.84375 48.1875 33.796875 48.1875 
Q 26.515625 48.1875 22.3125 43.546875 
Q 18.109375 38.921875 18.109375 30.90625 
L 18.109375 0 
L 9.078125 0 
L 9.078125 54.6875 
L 18.109375 54.6875 
L 18.109375 46.1875 
Q 21.34375 51.125 25.703125 53.5625 
Q 30.078125 56 35.796875 56 
Q 45.21875 56 50.046875 50.171875 
Q 54.890625 44.34375 54.890625 33.015625 
z
" id="DejaVuSans-110"/>
       <path d="M 44.28125 53.078125 
L 44.28125 44.578125 
Q 40.484375 46.53125 36.375 47.5 
Q 32.28125 48.484375 27.875 48.484375 
Q 21.1875 48.484375 17.84375 46.4375 
Q 14.5 44.390625 14.5 40.28125 
Q 14.5 37.15625 16.890625 35.375 
Q 19.28125 33.59375 26.515625 31.984375 
L 29.59375 31.296875 
Q 39.15625 29.25 43.1875 25.515625 
Q 47.21875 21.78125 47.21875 15.09375 
Q 47.21875 7.46875 41.1875 3.015625 
Q 35.15625 -1.421875 24.609375 -1.421875 
Q 20.21875 -1.421875 15.453125 -0.5625 
Q 10.6875 0.296875 5.421875 2 
L 5.421875 11.28125 
Q 10.40625 8.6875 15.234375 7.390625 
Q 20.0625 6.109375 24.8125 6.109375 
Q 31.15625 6.109375 34.5625 8.28125 
Q 37.984375 10.453125 37.984375 14.40625 
Q 37.984375 18.0625 35.515625 20.015625 
Q 33.0625 21.96875 24.703125 23.78125 
L 21.578125 24.515625 
Q 13.234375 26.265625 9.515625 29.90625 
Q 5.8125 33.546875 5.8125 39.890625 
Q 5.8125 47.609375 11.28125 51.796875 
Q 16.75 56 26.8125 56 
Q 31.78125 56 36.171875 55.265625 
Q 40.578125 54.546875 44.28125 53.078125 
z
" id="DejaVuSans-115"/>
      </defs>
      <use xlink:href="#DejaVuSans-77"/>
      <use x="86.279297" xlink:href="#DejaVuSans-67"/>
      <use x="156.103516" xlink:href="#DejaVuSans-32"/>
      <use x="187.890625" xlink:href="#DejaVuSans-105"/>
      <use x="215.673828" xlink:href="#DejaVuSans-116"/>
      <use x="254.882812" xlink:href="#DejaVuSans-101"/>
      <use x="316.40625" xlink:href="#DejaVuSans-114"/>
      <use x="357.519531" xlink:href="#DejaVuSans-97"/>
      <use x="418.798828" xlink:href="#DejaVuSans-116"/>
      <use x="458.007812" xlink:href="#DejaVuSans-105"/>
      <use x="485.791016" xlink:href="#DejaVuSans-111"/>
      <use x="546.972656" xlink:href="#DejaVuSans-110"/>
      <use x="610.351562" xlink:href="#DejaVuSans-115"/>
     </g>
    </g>
   </g>
   <g id="matplotlib.axis_2">
    <g id="ytick_1">
     <g id="line2d_7">
      <defs>
       <path d="M 0 0 
L -3.5 0 
" id="m4d4e9978e5" style="stroke:#000000;stroke-width:0.8;"/>
      </defs>
      <g>
       <use style="stroke:#000000;stroke-width:0.8;" x="47.72" xlink:href="#m4d4e9978e5" y="390.04"/>
      </g>
     </g>
     <g id="text_8">
      <!-- 2.5 -->
      <g transform="translate(24.816875 393.839219)scale(0.1 -0.1)">
       <defs>
        <path d="M 10.6875 12.40625 
L 21 12.40625 
L 21 0 
L 10.6875 0 
z
" id="DejaVuSans-46"/>
       </defs>
       <use xlink:href="#DejaVuSans-50"/>
       <use x="63.623047" xlink:href="#DejaVuSans-46"/>
       <use x="95.410156" xlink:href="#DejaVuSans-53"/>
      </g>
     </g>
    </g>
    <g id="ytick_2">
     <g id="line2d_8">
      <g>
       <use style="stroke:#000000;stroke-width:0.8;" x="47.72" xlink:href="#m4d4e9978e5" y="344.843"/>
      </g>
     </g>
     <g id="text_9">
      <!-- 3.0 -->
      <g transform="translate(24.816875 348.642219)scale(0.1 -0.1)">
       <use xlink:href="#DejaVuSans-51"/>
       <use x="63.623047" xlink:href="#DejaVuSans-46"/>
       <use x="95.410156" xlink:href="#DejaVuSans-48"/>
      </g>
     </g>
    </g>
    <g id="ytick_3">
     <g id="line2d_9">
      <g>
       <use style="stroke:#000000;stroke-width:0.8;" x="47.72" xlink:href="#m4d4e9978e5" y="299.646"/>
      </g>
     </g>
     <g id="text_10">
      <!-- 3.5 -->
      <g transform="translate(24.816875 303.445219)scale(0.1 -0.1)">
       <use xlink:href="#DejaVuSans-51"/>
       <use x="63.623047" xlink:href="#DejaVuSans-46"/>
       <use x="95.410156" xlink:href="#DejaVuSans-53"/>
      </g>
     </g>
    </g>
    <g id="ytick_4">
     <g id="line2d_10">
      <g>
       <use style="stroke:#000000;stroke-width:0.8;" x="47.72" xlink:href="#m4d4e9978e5" y="254.449"/>
      </g>
     </g>
     <g id="text_11">
      <!-- 4.0 -->
      <g transform="translate(24.816875 258.248219)scale(0.1 -0.1)">
       <use xlink:href="#DejaVuSans-52"/>
       <use x="63.623047" xlink:href="#DejaVuSans-46"/>
       <use x="95.410156" xlink:href="#DejaVuSans-48"/>
      </g>
     </g>
    </g>
    <g id="ytick_5">
     <g id="line2d_11">
      <g>
       <use style="stroke:#000000;stroke-width:0.8;" x="47.72" xlink:href="#m4d4e9978e5" y="209.252"/>
      </g>
     </g>
     <g id="text_12">
      <!-- 4.5 -->
      <g transform="translate(24.816875 213.051219)scale(0.1 -0.1)">
       <use xlink:href="#DejaVuSans-52"/>
       <use x="63.623047" xlink:href="#DejaVuSans-46"/>
       <use x="95.410156" xlink:href="#DejaVuSans-53"/>
      </g>
     </g>
    </g>
    <g id="ytick_6">
     <g id="line2d_12">
      <g>
       <use style="stroke:#000000;stroke-width:0.8;" x="47.72" xlink:href="#m4d4e9978e5" y="164.055"/>
      </g>
     </g>
     <g id="text_13">
      <!-- 5.0 -->
      <g transform="translate(24.816875 167.854219)scale(0.1 -0.1)">
       <use xlink:href="#DejaVuSans-53"/>
       <use x="63.623047" xlink:href="#DejaVuSans-46"/>
       <use x="95.410156" xlink:href="#DejaVuSans-48"/>
      </g>
     </g>
    </g>
    <g id="ytick_7">
     <g id="line2d_13">
      <g>
       <use style="stroke:#000000;stroke-width:0.8;" x="47.72" xlink:href="#m4d4e9978e5" y="118.858"/>
      </g>
     </g>
     <g id="text_14">
      <!-- 5.5 -->
      <g transform="translate(24.816875 122.657219)scale(0.1 -0.1)">
       <use xlink:href="#DejaVuSans-53"/>
       <use x="63.623047" xlink:href="#DejaVuSans-46"/>
       <use x="95.410156" xlink:href="#DejaVuSans-53"/>
      </g>
     </g>
    </g>
    <g id="ytick_8">
     <g id="line2d_14">
      <g>
       <use style="stroke:#000000;stroke-width:0.8;" x="47.72" xlink:href="#m4d4e9978e5" y="73.661"/>
      </g>
     </g>
     <g id="text_15">
      <!-- 6.0 -->
      <g transform="translate(24.816875 77.460219)scale(0.1 -0.1)">
       <defs>
        <path d="M 33.015625 40.375 
Q 26.375 40.375 22.484375 35.828125 
Q 18.609375 31.296875 18.609375 23.390625 
Q 18.609375 15.53125 22.484375 10.953125 
Q 26.375 6.390625 33.015625 6.390625 
Q 39.65625 6.390625 43.53125 10.953125 
Q 47.40625 15.53125 47.40625 23.390625 
Q 47.40625 31.296875 43.53125 35.828125 
Q 39.65625 40.375 33.015625 40.375 
z
M 52.59375 71.296875 
L 52.59375 62.3125 
Q 48.875 64.0625 45.09375 64.984375 
Q 41.3125 65.921875 37.59375 65.921875 
Q 27.828125 65.921875 22.671875 59.328125 
Q 17.53125 52.734375 16.796875 39.40625 
Q 19.671875 43.65625 24.015625 45.921875 
Q 28.375 48.1875 33.59375 48.1875 
Q 44.578125 48.1875 50.953125 41.515625 
Q 57.328125 34.859375 57.328125 23.390625 
Q 57.328125 12.15625 50.6875 5.359375 
Q 44.046875 -1.421875 33.015625 -1.421875 
Q 20.359375 -1.421875 13.671875 8.265625 
Q 6.984375 17.96875 6.984375 36.375 
Q 6.984375 53.65625 15.1875 63.9375 
Q 23.390625 74.21875 37.203125 74.21875 
Q 40.921875 74.21875 44.703125 73.484375 
Q 48.484375 72.75 52.59375 71.296875 
z
" id="DejaVuSans-54"/>
       </defs>
       <use xlink:href="#DejaVuSans-54"/>
       <use x="63.623047" xlink:href="#DejaVuSans-46"/>
       <use x="95.410156" xlink:href="#DejaVuSans-48"/>
      </g>
     </g>
    </g>
    <g id="ytick_9">
     <g id="line2d_15">
      <g>
       <use style="stroke:#000000;stroke-width:0.8;" x="47.72" xlink:href="#m4d4e9978e5" y="28.464"/>
      </g>
     </g>
     <g id="text_16">
      <!-- 6.5 -->
      <g transform="translate(24.816875 32.263219)scale(0.1 -0.1)">
       <use xlink:href="#DejaVuSans-54"/>
       <use x="63.623047" xlink:href="#DejaVuSans-46"/>
       <use x="95.410156" xlink:href="#DejaVuSans-53"/>
      </g>
     </g>
    </g>
    <g id="text_17">
     <!-- ANEES -->
     <g transform="translate(18.737188 225.905906)rotate(-90)scale(0.1 -0.1)">
      <defs>
       <path d="M 34.1875 63.1875 
L 20.796875 26.90625 
L 47.609375 26.90625 
z
M 28.609375 72.90625 
L 39.796875 72.90625 
L 67.578125 0 
L 57.328125 0 
L 50.6875 18.703125 
L 17.828125 18.703125 
L 11.1875 0 
L 0.78125 0 
z
" id="DejaVuSans-65"/>
       <path d="M 9.8125 72.90625 
L 23.09375 72.90625 
L 55.421875 11.921875 
L 55.421875 72.90625 
L 64.984375 72.90625 
L 64.984375 0 
L 51.703125 0 
L 19.390625 60.984375 
L 19.390625 0 
L 9.8125 0 
z
" id="DejaVuSans-78"/>
       <path d="M 9.8125 72.90625 
L 55.90625 72.90625 
L 55.90625 64.59375 
L 19.671875 64.59375 
L 19.671875 43.015625 
L 54.390625 43.015625 
L 54.390625 34.71875 
L 19.671875 34.71875 
L 19.671875 8.296875 
L 56.78125 8.296875 
L 56.78125 0 
L 9.8125 0 
z
" id="DejaVuSans-69"/>
       <path d="M 53.515625 70.515625 
L 53.515625 60.890625 
Q 47.90625 63.578125 42.921875 64.890625 
Q 37.9375 66.21875 33.296875 66.21875 
Q 25.25 66.21875 20.875 63.09375 
Q 16.5 59.96875 16.5 54.203125 
Q 16.5 49.359375 19.40625 46.890625 
Q 22.3125 44.4375 30.421875 42.921875 
L 36.375 41.703125 
Q 47.40625 39.59375 52.65625 34.296875 
Q 57.90625 29 57.90625 20.125 
Q 57.90625 9.515625 50.796875 4.046875 
Q 43.703125 -1.421875 29.984375 -1.421875 
Q 24.8125 -1.421875 18.96875 -0.25 
Q 13.140625 0.921875 6.890625 3.21875 
L 6.890625 13.375 
Q 12.890625 10.015625 18.65625 8.296875 
Q 24.421875 6.59375 29.984375 6.59375 
Q 38.421875 6.59375 43.015625 9.90625 
Q 47.609375 13.234375 47.609375 19.390625 
Q 47.609375 24.75 44.3125 27.78125 
Q 41.015625 30.8125 33.5 32.328125 
L 27.484375 33.5 
Q 16.453125 35.6875 11.515625 40.375 
Q 6.59375 45.0625 6.59375 53.421875 
Q 6.59375 63.09375 13.40625 68.65625 
Q 20.21875 74.21875 32.171875 74.21875 
Q 37.3125 74.21875 42.625 73.28125 
Q 47.953125 72.359375 53.515625 70.515625 
z
" id="DejaVuSans-83"/>
      </defs>
      <use xlink:href="#DejaVuSans-65"/>
      <use x="68.408203" xlink:href="#DejaVuSans-78"/>
      <use x="143.212891" xlink:href="#DejaVuSans-69"/>
      <use x="206.396484" xlink:href="#DejaVuSans-69"/>
      <use x="269.580078" xlink:href="#DejaVuSans-83"/>
     </g>
    </g>
   </g>
   <g id="line2d_16">
    <path clip-path="url(#p9e8b085524)" d="M 77.787273 357.709805 
L 78.992374 329.317719 
L 80.197475 316.242562 
L 81.402576 308.304609 
L 82.607677 302.826273 
L 83.812778 298.750605 
L 85.017879 295.564442 
L 86.222981 292.984363 
L 87.428082 290.839294 
L 88.633183 289.019013 
L 89.838284 287.448857 
L 92.248486 284.862753 
L 94.658688 282.805634 
L 97.068891 281.1184 
L 99.479093 279.701838 
L 101.889295 278.490425 
L 105.504598 276.962617 
L 109.119902 275.694492 
L 113.940306 274.296453 
L 118.760711 273.143367 
L 124.786216 271.950894 
L 132.016823 270.783189 
L 140.452531 269.678285 
L 150.093339 268.654858 
L 162.144351 267.626072 
L 176.605564 266.644775 
L 193.476979 265.737586 
L 213.963698 264.868282 
L 239.270822 264.029282 
L 270.603451 263.226598 
L 309.166686 262.470191 
L 357.370731 261.752924 
L 418.830887 261.067836 
L 498.367561 260.413905 
L 602.006256 259.79563 
L 679.132727 259.44295 
L 679.132727 259.44295 
" style="fill:none;stroke:#000000;stroke-linecap:square;stroke-width:1.5;"/>
   </g>
   <g id="line2d_17">
    <path clip-path="url(#p9e8b085524)" d="M 77.787273 134.095862 
L 78.992374 171.026316 
L 80.197475 186.951071 
L 81.402576 196.314472 
L 82.607677 202.648283 
L 83.812778 207.294353 
L 85.017879 210.887989 
L 86.222981 213.773695 
L 87.428082 216.156487 
L 88.633183 218.166956 
L 89.838284 219.892725 
L 91.043385 221.395059 
L 93.453587 223.895195 
L 95.863789 225.904917 
L 98.273992 227.565822 
L 100.684194 228.968223 
L 103.094396 230.172784 
L 106.709699 231.698222 
L 110.325003 232.969159 
L 115.145407 234.374725 
L 119.965812 235.537074 
L 125.991317 236.741618 
L 133.221924 237.923214 
L 141.657632 239.042796 
L 151.298441 240.08086 
L 163.349452 241.125096 
L 176.605564 242.046924 
L 193.476979 242.983887 
L 213.963698 243.879516 
L 238.065721 244.70549 
L 268.193248 245.509014 
L 305.551383 246.274962 
L 352.550326 247.007112 
L 412.805382 247.710018 
L 489.931853 248.373865 
L 589.955245 249.000017 
L 679.132727 249.420803 
L 679.132727 249.420803 
" style="fill:none;stroke:#000000;stroke-linecap:square;stroke-width:1.5;"/>
   </g>
   <g id="line2d_18">
    <path clip-path="url(#p9e8b085524)" d="M 77.787273 108.202228 
L 78.992374 223.92822 
L 81.402576 147.579904 
L 82.607677 160.193029 
L 83.812778 141.342114 
L 85.017879 151.510697 
L 86.222981 169.97589 
L 87.428082 167.878149 
L 88.633183 163.805148 
L 89.838284 176.694202 
L 91.043385 191.084984 
L 92.248486 180.405026 
L 93.453587 191.283814 
L 94.658688 175.815316 
L 95.863789 182.503051 
L 97.068891 183.803722 
L 98.273992 169.140371 
L 99.479093 175.764234 
L 100.684194 184.856365 
L 101.889295 192.290413 
L 103.094396 197.250345 
L 104.299497 193.178947 
L 105.504598 198.646503 
L 106.709699 202.446964 
L 107.914801 198.846643 
L 109.119902 196.940355 
L 110.325003 202.030709 
L 111.530104 205.239507 
L 112.735205 196.319155 
L 113.940306 190.185761 
L 115.145407 183.32139 
L 116.350508 181.025805 
L 117.555609 181.071883 
L 118.760711 184.805843 
L 119.965812 179.57317 
L 121.170913 178.667621 
L 122.376014 181.567896 
L 123.581115 175.770511 
L 124.786216 176.070531 
L 125.991317 178.045392 
L 127.196418 176.338177 
L 129.606621 182.274701 
L 130.811722 181.06774 
L 132.016823 183.464627 
L 133.221924 178.277998 
L 134.427025 179.55025 
L 135.632126 181.810668 
L 136.837227 180.585314 
L 138.042328 182.149387 
L 139.247429 184.193888 
L 140.452531 188.450188 
L 141.657632 189.621647 
L 142.862733 190.96635 
L 144.067834 191.336832 
L 145.272935 192.833506 
L 146.478036 188.742326 
L 147.683137 189.926897 
L 148.888238 190.113895 
L 150.093339 187.549956 
L 151.298441 183.571315 
L 152.503542 182.918996 
L 153.708643 180.520892 
L 154.913744 177.649345 
L 156.118845 177.932161 
L 158.529047 180.322023 
L 159.734148 180.228239 
L 163.349452 185.172617 
L 164.554553 184.936374 
L 165.759654 185.116576 
L 166.964755 187.319374 
L 168.169856 187.651953 
L 169.374957 189.003653 
L 170.580058 188.315997 
L 171.785159 188.152227 
L 172.990261 186.046138 
L 174.195362 184.748325 
L 175.400463 186.965833 
L 176.605564 188.386655 
L 177.810665 191.073596 
L 179.015766 189.112334 
L 180.220867 190.850506 
L 181.425968 191.977707 
L 182.631069 194.667709 
L 183.836171 192.165015 
L 185.041272 190.187629 
L 186.246373 186.849829 
L 187.451474 184.108825 
L 188.656575 185.59441 
L 189.861676 185.409293 
L 191.066777 187.206794 
L 194.682081 193.596907 
L 195.887182 194.274294 
L 197.092283 196.044066 
L 198.297384 196.176557 
L 199.502485 196.986047 
L 200.707586 192.813473 
L 201.912687 193.655306 
L 203.117788 194.167344 
L 204.322889 195.032147 
L 205.527991 193.745012 
L 206.733092 191.211135 
L 209.143294 190.045286 
L 210.348395 191.772996 
L 211.553496 192.198694 
L 212.758597 194.009407 
L 213.963698 193.370822 
L 215.168799 193.538393 
L 216.373901 194.689842 
L 218.784103 195.170759 
L 219.989204 191.131584 
L 221.194305 190.545914 
L 222.399406 190.963246 
L 223.604507 189.496231 
L 224.809608 188.649617 
L 226.014709 189.24302 
L 227.219811 191.093923 
L 228.424912 191.633448 
L 229.630013 192.01385 
L 232.040215 194.808298 
L 233.245316 193.212754 
L 234.450417 193.648522 
L 235.655518 194.662399 
L 236.860619 194.508621 
L 238.065721 195.097165 
L 240.475923 197.755522 
L 241.681024 197.688902 
L 242.886125 198.053252 
L 244.091226 195.264446 
L 245.296327 194.069981 
L 246.501428 194.438495 
L 247.706529 194.659605 
L 248.911631 190.604305 
L 250.116732 189.390013 
L 251.321833 190.739598 
L 252.526934 191.086966 
L 253.732035 192.050446 
L 254.937136 191.89254 
L 256.142237 190.139531 
L 257.347338 189.811395 
L 258.552439 190.423827 
L 259.757541 189.894703 
L 260.962642 189.938429 
L 262.167743 191.234529 
L 264.577945 191.700306 
L 265.783046 191.259018 
L 266.988147 191.802217 
L 268.193248 191.503797 
L 270.603451 191.966315 
L 271.808552 192.548124 
L 273.013653 192.474545 
L 275.423855 193.681836 
L 276.628956 193.96136 
L 277.834057 194.463709 
L 281.449361 193.768326 
L 282.654462 193.204637 
L 283.859563 194.50827 
L 285.064664 193.982621 
L 286.269765 193.23235 
L 287.474866 194.329808 
L 288.679967 193.437786 
L 289.885068 193.432902 
L 291.090169 192.795757 
L 292.295271 193.298355 
L 293.500372 191.255145 
L 294.705473 190.907878 
L 295.910574 191.888658 
L 297.115675 192.484479 
L 298.320776 192.644109 
L 299.525877 189.597843 
L 300.730978 189.410229 
L 301.936079 190.183885 
L 303.141181 190.743127 
L 305.551383 190.673329 
L 306.756484 189.860403 
L 307.961585 189.504819 
L 309.166686 187.955646 
L 310.371787 188.07931 
L 311.576888 188.369918 
L 312.781989 187.270437 
L 313.987091 186.999813 
L 315.192192 185.612814 
L 316.397293 185.60936 
L 317.602394 186.556517 
L 318.807495 186.010672 
L 320.012596 186.427031 
L 321.217697 187.156577 
L 322.422798 186.298098 
L 323.627899 185.839752 
L 324.833001 186.017125 
L 326.038102 185.895015 
L 328.448304 187.341938 
L 329.653405 187.2639 
L 330.858506 186.557295 
L 333.268708 187.972801 
L 335.678911 188.445424 
L 336.884012 187.996692 
L 338.089113 187.671322 
L 339.294214 187.712748 
L 340.499315 187.442676 
L 341.704416 187.730555 
L 342.909517 187.132024 
L 344.114618 184.950096 
L 345.319719 184.870388 
L 346.524821 184.323101 
L 347.729922 182.528429 
L 348.935023 182.013708 
L 350.140124 182.159586 
L 351.345225 182.557005 
L 352.550326 182.537982 
L 353.755427 183.000498 
L 354.960528 181.635008 
L 356.165629 180.748685 
L 357.370731 181.365079 
L 358.575832 181.307683 
L 359.780933 180.055171 
L 360.986034 180.966691 
L 362.191135 180.935357 
L 363.396236 181.931997 
L 364.601337 182.29072 
L 365.806438 181.580707 
L 367.011539 180.313952 
L 369.421742 180.016678 
L 370.626843 180.600666 
L 371.831944 180.641689 
L 373.037045 179.785908 
L 374.242146 177.785604 
L 376.652348 178.75566 
L 379.062551 178.934764 
L 380.267652 177.297248 
L 381.472753 177.375684 
L 382.677854 177.704572 
L 383.882955 176.488713 
L 385.088056 177.051884 
L 386.293157 177.075572 
L 387.498258 176.904725 
L 388.703359 176.236751 
L 389.908461 177.155018 
L 391.113562 177.608665 
L 392.318663 177.70969 
L 393.523764 178.782107 
L 394.728865 178.730883 
L 395.933966 178.184085 
L 397.139067 177.014187 
L 399.549269 178.269591 
L 400.754371 178.427895 
L 403.164573 179.478888 
L 404.369674 180.026636 
L 405.574775 179.599 
L 406.779876 179.304815 
L 407.984977 179.537023 
L 409.190078 178.793661 
L 410.395179 179.399459 
L 411.600281 178.541487 
L 412.805382 178.296163 
L 414.010483 177.444287 
L 415.215584 177.443495 
L 416.420685 176.457891 
L 418.830887 176.914068 
L 420.035988 176.732343 
L 421.241089 175.293207 
L 423.651292 175.306373 
L 424.856393 175.42944 
L 426.061494 176.167186 
L 427.266595 175.929227 
L 428.471696 176.176443 
L 429.676797 174.71767 
L 430.881898 175.527102 
L 432.086999 175.601975 
L 433.292101 173.405316 
L 434.497202 172.84388 
L 435.702303 172.084688 
L 436.907404 172.289103 
L 438.112505 172.117749 
L 439.317606 172.463238 
L 441.727808 172.287506 
L 442.932909 172.762912 
L 444.138011 172.864706 
L 445.343112 173.284461 
L 446.548213 172.807747 
L 447.753314 172.623236 
L 448.958415 173.520886 
L 450.163516 173.393076 
L 451.368617 173.766452 
L 452.573718 173.824628 
L 453.778819 172.907617 
L 454.983921 173.605773 
L 456.189022 173.514235 
L 457.394123 172.694523 
L 458.599224 173.30234 
L 461.009426 172.284258 
L 463.419628 173.374594 
L 464.624729 173.891024 
L 465.829831 174.015828 
L 467.034932 174.62343 
L 468.240033 175.083073 
L 469.445134 175.164541 
L 470.650235 175.058933 
L 473.060437 175.754717 
L 474.265538 175.824956 
L 475.470639 176.218503 
L 476.675741 176.880718 
L 477.880842 177.405473 
L 479.085943 177.78194 
L 480.291044 178.321345 
L 481.496145 178.613577 
L 482.701246 178.702318 
L 483.906347 178.616681 
L 485.111448 178.866331 
L 486.316549 178.75617 
L 487.521651 178.347287 
L 488.726752 177.689566 
L 489.931853 177.301255 
L 491.136954 177.962441 
L 492.342055 178.021972 
L 493.547156 178.435956 
L 494.752257 178.352267 
L 497.162459 178.558253 
L 498.367561 178.487881 
L 499.572662 178.298792 
L 500.777763 178.4565 
L 501.982864 178.860697 
L 503.187965 178.335557 
L 504.393066 178.842907 
L 505.598167 179.023008 
L 506.803268 178.667283 
L 508.008369 177.262313 
L 509.213471 177.35614 
L 510.418572 177.305436 
L 511.623673 177.088507 
L 512.828774 176.56057 
L 516.444077 176.981412 
L 517.649178 177.43323 
L 518.854279 175.660767 
L 520.059381 175.257268 
L 521.264482 175.694769 
L 522.469583 175.171665 
L 523.674684 175.02124 
L 524.879785 174.522498 
L 526.084886 174.834883 
L 527.289987 174.929449 
L 528.495088 174.83128 
L 529.700189 174.619296 
L 530.905291 174.169054 
L 532.110392 173.27713 
L 533.315493 173.133279 
L 534.520594 173.489893 
L 538.135897 173.803286 
L 539.340998 174.170325 
L 540.546099 173.924076 
L 542.956302 173.967646 
L 545.366504 173.425717 
L 546.571605 173.301008 
L 547.776706 173.597695 
L 548.981807 173.740303 
L 550.186908 174.251372 
L 551.392009 174.028558 
L 552.597111 174.057096 
L 553.802212 173.760625 
L 556.212414 174.042382 
L 557.417515 174.578715 
L 558.622616 173.73191 
L 559.827717 173.091284 
L 561.032818 173.173254 
L 562.237919 172.814272 
L 564.648122 171.683655 
L 567.058324 172.720923 
L 568.263425 172.227285 
L 570.673627 172.723356 
L 571.878728 172.532216 
L 573.083829 172.841768 
L 575.494032 171.542558 
L 576.699133 171.909662 
L 577.904234 171.818912 
L 580.314436 172.142241 
L 581.519537 172.086182 
L 583.929739 172.674325 
L 585.134841 172.679648 
L 588.750144 171.698597 
L 589.955245 171.941019 
L 591.160346 171.44738 
L 592.365447 171.446446 
L 593.570548 171.762572 
L 595.980751 172.172084 
L 597.185852 172.531378 
L 598.390953 172.75721 
L 599.596054 172.850398 
L 600.801155 173.07922 
L 602.006256 173.592786 
L 603.211357 173.860726 
L 604.416458 173.788679 
L 605.621559 174.161859 
L 606.826661 174.71006 
L 608.031762 175.035583 
L 609.236863 174.522376 
L 610.441964 174.579409 
L 611.647065 174.49224 
L 612.852166 174.691875 
L 614.057267 175.00464 
L 615.262368 174.680542 
L 616.467469 174.736559 
L 617.672571 175.15675 
L 618.877672 174.497837 
L 620.082773 174.802701 
L 621.287874 174.895115 
L 622.492975 174.715807 
L 623.698076 174.69036 
L 624.903177 174.513786 
L 626.108278 174.934884 
L 628.518481 175.262207 
L 629.723582 174.908665 
L 630.928683 175.301446 
L 632.133784 174.349526 
L 634.543986 175.003976 
L 635.749087 174.741014 
L 636.954188 174.865832 
L 638.159289 174.572876 
L 639.364391 174.581359 
L 640.569492 173.987919 
L 641.774593 174.463918 
L 642.979694 174.310456 
L 644.184795 174.531413 
L 645.389896 174.462219 
L 646.594997 174.790143 
L 647.800098 174.716561 
L 649.005199 175.034188 
L 650.210301 174.404216 
L 651.415402 174.175263 
L 655.030705 174.638203 
L 656.235806 175.176246 
L 657.440907 175.356563 
L 658.646008 175.002123 
L 659.851109 175.057176 
L 661.056211 175.429951 
L 662.261312 175.277467 
L 664.671514 175.802814 
L 665.876615 175.687138 
L 668.286817 176.09981 
L 669.491918 175.759092 
L 670.697019 175.776492 
L 671.902121 175.670682 
L 674.312323 176.365517 
L 675.517424 175.837461 
L 676.722525 176.183506 
L 677.927626 175.524956 
L 679.132727 175.761309 
L 679.132727 175.761309 
" style="fill:none;stroke:#0000ff;stroke-linecap:square;stroke-width:1.5;"/>
   </g>
   <g id="line2d_19">
    <path clip-path="url(#p9e8b085524)" d="M 77.787273 293.150267 
L 78.992374 352.16864 
L 80.197475 325.069229 
L 81.402576 304.503638 
L 82.607677 311.388039 
L 83.812778 284.312395 
L 85.017879 288.704185 
L 86.222981 303.397922 
L 87.428082 297.801394 
L 88.633183 294.944264 
L 89.838284 302.327083 
L 91.043385 313.881049 
L 92.248486 307.044469 
L 93.453587 315.076279 
L 94.658688 302.064331 
L 95.863789 306.073833 
L 97.068891 304.649033 
L 98.273992 295.822779 
L 99.479093 301.145077 
L 101.889295 312.680574 
L 103.094396 315.377182 
L 104.299497 310.498742 
L 106.709699 315.51784 
L 109.119902 309.598758 
L 110.325003 313.136189 
L 111.530104 315.464693 
L 112.735205 311.935545 
L 113.940306 310.497239 
L 115.145407 305.794614 
L 116.350508 305.579437 
L 117.555609 304.048067 
L 118.760711 305.482666 
L 119.965812 302.52625 
L 121.170913 303.115163 
L 122.376014 304.518527 
L 123.581115 302.336724 
L 124.786216 302.512126 
L 125.991317 303.213894 
L 127.196418 302.77673 
L 128.401519 305.057596 
L 129.606621 307.021577 
L 130.811722 306.439925 
L 132.016823 308.015362 
L 133.221924 306.103744 
L 134.427025 307.756557 
L 135.632126 309.707563 
L 136.837227 309.933313 
L 138.042328 310.815753 
L 139.247429 311.928783 
L 140.452531 314.938521 
L 141.657632 315.075901 
L 142.862733 315.439543 
L 144.067834 315.379221 
L 145.272935 315.988501 
L 146.478036 312.461971 
L 147.683137 313.605766 
L 148.888238 313.674759 
L 150.093339 312.313119 
L 151.298441 309.173206 
L 152.503542 308.428359 
L 153.708643 307.291668 
L 154.913744 305.046069 
L 156.118845 304.653177 
L 157.323946 305.044915 
L 158.529047 306.064905 
L 159.734148 306.540177 
L 162.144351 308.682817 
L 163.349452 309.955097 
L 164.554553 310.064083 
L 165.759654 310.547796 
L 166.964755 311.908575 
L 168.169856 312.038982 
L 169.374957 312.521331 
L 170.580058 311.595147 
L 171.785159 311.529 
L 172.990261 309.427517 
L 174.195362 307.936852 
L 175.400463 309.392036 
L 176.605564 310.552957 
L 177.810665 312.232197 
L 179.015766 311.432528 
L 180.220867 312.401447 
L 181.425968 313.107037 
L 182.631069 315.135175 
L 183.836171 314.151439 
L 185.041272 312.87713 
L 186.246373 310.513659 
L 187.451474 308.74865 
L 188.656575 309.589828 
L 189.861676 309.637625 
L 192.271878 312.570797 
L 194.682081 315.373109 
L 195.887182 315.686304 
L 197.092283 316.560418 
L 198.297384 316.436981 
L 199.502485 317.298654 
L 200.707586 313.870409 
L 201.912687 314.555389 
L 203.117788 315.597013 
L 204.322889 316.228019 
L 205.527991 314.602283 
L 206.733092 313.457437 
L 207.938193 312.951245 
L 209.143294 312.227613 
L 210.348395 313.309141 
L 211.553496 313.816322 
L 212.758597 314.819167 
L 213.963698 314.043204 
L 215.168799 314.226178 
L 216.373901 314.901837 
L 217.579002 314.967303 
L 218.784103 315.150433 
L 219.989204 313.330421 
L 221.194305 312.486244 
L 222.399406 312.805176 
L 224.809608 311.97369 
L 226.014709 312.495319 
L 227.219811 313.653499 
L 228.424912 314.084396 
L 229.630013 314.375986 
L 232.040215 316.019873 
L 233.245316 314.344544 
L 234.450417 314.628434 
L 235.655518 315.228339 
L 236.860619 314.945641 
L 238.065721 315.456747 
L 240.475923 316.925678 
L 241.681024 316.333959 
L 242.886125 316.263307 
L 244.091226 314.245237 
L 245.296327 313.149075 
L 247.706529 313.289274 
L 248.911631 310.254286 
L 250.116732 309.40597 
L 251.321833 310.269937 
L 252.526934 310.359583 
L 253.732035 310.979081 
L 254.937136 310.951608 
L 256.142237 309.508234 
L 257.347338 309.41716 
L 258.552439 309.822272 
L 259.757541 309.553461 
L 260.962642 309.416565 
L 262.167743 310.371942 
L 263.372844 310.559107 
L 264.577945 310.426183 
L 265.783046 309.905057 
L 266.988147 310.150034 
L 268.193248 310.270947 
L 269.398349 310.278141 
L 270.603451 310.475383 
L 271.808552 310.834108 
L 274.218754 311.293577 
L 275.423855 311.577444 
L 276.628956 311.583659 
L 277.834057 311.823164 
L 281.449361 310.796839 
L 282.654462 310.564767 
L 283.859563 311.491378 
L 286.269765 310.844084 
L 287.474866 311.543626 
L 288.679967 310.930038 
L 289.885068 310.943742 
L 291.090169 310.783561 
L 292.295271 311.308177 
L 293.500372 310.382875 
L 294.705473 309.897406 
L 295.910574 310.532353 
L 298.320776 311.121052 
L 299.525877 309.17304 
L 300.730978 308.802477 
L 303.141181 310.036857 
L 304.346282 310.227515 
L 305.551383 310.15427 
L 306.756484 309.527103 
L 307.961585 309.084879 
L 309.166686 307.816153 
L 310.371787 307.847032 
L 311.576888 307.996704 
L 312.781989 307.116307 
L 313.987091 307.060749 
L 315.192192 306.410027 
L 316.397293 306.419015 
L 317.602394 306.965418 
L 318.807495 306.37061 
L 320.012596 306.657201 
L 321.217697 307.104849 
L 323.627899 306.423177 
L 326.038102 306.639412 
L 328.448304 307.711118 
L 329.653405 307.923049 
L 330.858506 307.298961 
L 332.063607 307.77099 
L 333.268708 308.106482 
L 334.473809 308.211557 
L 335.678911 308.43635 
L 336.884012 307.976775 
L 339.294214 307.913407 
L 340.499315 307.640579 
L 341.704416 307.622196 
L 342.909517 307.025989 
L 344.114618 305.707325 
L 345.319719 305.359987 
L 346.524821 304.82889 
L 347.729922 303.828521 
L 348.935023 303.70868 
L 350.140124 303.967599 
L 351.345225 304.000714 
L 352.550326 303.870694 
L 353.755427 304.243955 
L 354.960528 303.325914 
L 356.165629 302.728976 
L 357.370731 303.079949 
L 358.575832 302.810215 
L 359.780933 302.042672 
L 360.986034 302.677153 
L 362.191135 302.786646 
L 363.396236 303.42196 
L 364.601337 303.681439 
L 365.806438 303.232357 
L 367.011539 302.615361 
L 368.216641 302.322403 
L 369.421742 302.356817 
L 370.626843 302.768866 
L 371.831944 302.97941 
L 373.037045 302.548994 
L 374.242146 301.542036 
L 376.652348 302.269119 
L 377.857449 302.528252 
L 379.062551 302.279771 
L 380.267652 300.606297 
L 381.472753 300.489696 
L 382.677854 300.585903 
L 383.882955 299.69399 
L 385.088056 300.024705 
L 386.293157 300.082603 
L 387.498258 299.821105 
L 388.703359 299.402037 
L 389.908461 300.086789 
L 392.318663 300.671651 
L 393.523764 301.392645 
L 395.933966 301.374889 
L 397.139067 300.957827 
L 398.344168 301.453321 
L 399.549269 301.801868 
L 403.164573 302.42601 
L 404.369674 302.791518 
L 405.574775 302.563274 
L 406.779876 302.190806 
L 407.984977 302.380021 
L 409.190078 301.996054 
L 410.395179 302.351547 
L 412.805382 301.509274 
L 414.010483 300.895942 
L 415.215584 300.972834 
L 416.420685 300.230602 
L 417.625786 300.18795 
L 420.035988 300.396418 
L 421.241089 299.241066 
L 422.446191 299.296813 
L 424.856393 299.597825 
L 426.061494 300.069026 
L 427.266595 299.710609 
L 428.471696 299.738208 
L 429.676797 298.962886 
L 430.881898 299.437699 
L 432.086999 299.502689 
L 433.292101 298.377115 
L 434.497202 298.229409 
L 435.702303 297.920304 
L 436.907404 297.997829 
L 438.112505 297.862773 
L 439.317606 298.156545 
L 440.522707 298.035707 
L 441.727808 298.068068 
L 442.932909 298.3451 
L 444.138011 298.483738 
L 445.343112 298.745813 
L 446.548213 298.593688 
L 447.753314 298.557219 
L 448.958415 299.204349 
L 450.163516 299.014746 
L 451.368617 299.224775 
L 452.573718 299.257936 
L 453.778819 299.039616 
L 454.983921 299.444849 
L 456.189022 299.221854 
L 457.394123 298.761581 
L 458.599224 299.229982 
L 461.009426 299.047973 
L 462.214527 299.507757 
L 464.624729 300.087064 
L 465.829831 300.11703 
L 467.034932 300.578475 
L 468.240033 300.857397 
L 470.650235 300.878529 
L 473.060437 301.307478 
L 474.265538 301.240846 
L 475.470639 301.470071 
L 477.880842 302.309079 
L 481.496145 303.246902 
L 485.111448 303.399478 
L 486.316549 303.328581 
L 487.521651 303.041409 
L 488.726752 302.548826 
L 489.931853 302.203593 
L 491.136954 302.60104 
L 493.547156 303.121643 
L 494.752257 303.041376 
L 497.162459 303.18083 
L 498.367561 303.034539 
L 499.572662 303.028714 
L 500.777763 303.168727 
L 501.982864 303.468969 
L 503.187965 303.055878 
L 504.393066 303.337841 
L 505.598167 303.424525 
L 506.803268 303.303935 
L 508.008369 302.229485 
L 509.213471 302.439174 
L 511.623673 302.024789 
L 512.828774 301.719664 
L 515.238976 301.944817 
L 516.444077 301.897227 
L 517.649178 302.052255 
L 518.854279 301.288054 
L 520.059381 301.115623 
L 521.264482 301.366191 
L 522.469583 301.141799 
L 523.674684 301.083098 
L 524.879785 300.783338 
L 527.289987 301.099942 
L 528.495088 301.120508 
L 529.700189 300.915471 
L 530.905291 300.481191 
L 532.110392 299.798809 
L 533.315493 299.677306 
L 534.520594 299.898889 
L 536.930796 300.032811 
L 539.340998 300.358774 
L 541.751201 300.282599 
L 546.571605 299.417038 
L 550.186908 300.065437 
L 552.597111 299.856867 
L 553.802212 299.771393 
L 557.417515 300.360434 
L 558.622616 299.918692 
L 559.827717 299.630588 
L 561.032818 299.75153 
L 562.237919 299.62576 
L 563.443021 299.188513 
L 564.648122 298.61412 
L 567.058324 299.303523 
L 568.263425 299.04177 
L 569.468526 299.15794 
L 570.673627 299.434058 
L 571.878728 299.381977 
L 573.083829 299.607507 
L 575.494032 299.011665 
L 576.699133 299.18192 
L 577.904234 299.121395 
L 585.134841 299.63527 
L 586.339942 299.433659 
L 588.750144 299.257716 
L 589.955245 299.398076 
L 591.160346 299.234603 
L 592.365447 299.241108 
L 594.775649 299.534992 
L 599.596054 300.066717 
L 600.801155 300.278263 
L 603.211357 300.838575 
L 604.416458 300.852285 
L 605.621559 301.047033 
L 606.826661 301.423453 
L 608.031762 301.661505 
L 609.236863 301.258596 
L 611.647065 301.170325 
L 614.057267 301.532945 
L 615.262368 301.204998 
L 616.467469 301.371982 
L 617.672571 301.686647 
L 618.877672 301.149057 
L 620.082773 301.38196 
L 621.287874 301.46955 
L 624.903177 301.292921 
L 626.108278 301.565584 
L 628.518481 301.806472 
L 629.723582 301.418853 
L 630.928683 301.672369 
L 632.133784 301.185069 
L 634.543986 301.563331 
L 635.749087 301.430921 
L 636.954188 301.591268 
L 638.159289 301.427778 
L 639.364391 301.454505 
L 640.569492 301.038026 
L 641.774593 301.343367 
L 642.979694 301.257872 
L 646.594997 301.605701 
L 647.800098 301.464338 
L 649.005199 301.674568 
L 650.210301 301.423822 
L 651.415402 301.315079 
L 653.825604 301.498897 
L 655.030705 301.485915 
L 656.235806 301.815306 
L 657.440907 301.90552 
L 658.646008 301.726143 
L 659.851109 301.883072 
L 661.056211 302.164846 
L 662.261312 302.109438 
L 664.671514 302.511532 
L 665.876615 302.320609 
L 667.081716 302.448794 
L 668.286817 302.694989 
L 669.491918 302.472738 
L 670.697019 302.47639 
L 671.902121 302.233914 
L 673.107222 302.553871 
L 674.312323 302.726944 
L 675.517424 302.20362 
L 676.722525 302.368143 
L 677.927626 301.809057 
L 679.132727 302.018174 
L 679.132727 302.018174 
" style="fill:none;stroke:#ff0000;stroke-linecap:square;stroke-width:1.5;"/>
   </g>
   <g id="line2d_20">
    <path clip-path="url(#p9e8b085524)" d="M 77.787273 294.390331 
L 78.992374 356.087356 
L 80.197475 326.892316 
L 81.402576 316.161347 
L 82.607677 322.5799 
L 83.812778 294.959029 
L 85.017879 297.497391 
L 86.222981 310.727815 
L 87.428082 306.004282 
L 88.633183 299.789434 
L 89.838284 303.565446 
L 91.043385 315.866775 
L 92.248486 312.406763 
L 93.453587 318.213027 
L 94.658688 307.730122 
L 95.863789 310.253887 
L 97.068891 310.561412 
L 98.273992 300.923175 
L 99.479093 307.166342 
L 100.684194 314.305412 
L 101.889295 319.129579 
L 103.094396 320.567288 
L 104.299497 315.44103 
L 105.504598 317.883507 
L 106.709699 319.470073 
L 107.914801 315.982836 
L 109.119902 314.811723 
L 110.325003 317.288769 
L 111.530104 319.36902 
L 112.735205 315.929037 
L 113.940306 315.032384 
L 115.145407 309.908071 
L 116.350508 310.69843 
L 117.555609 309.368968 
L 118.760711 311.073083 
L 119.965812 308.26337 
L 121.170913 308.633127 
L 122.376014 309.860569 
L 123.581115 307.92692 
L 124.786216 308.483356 
L 125.991317 309.385355 
L 127.196418 308.761604 
L 129.606621 312.871069 
L 130.811722 312.7262 
L 132.016823 313.447111 
L 133.221924 311.28772 
L 134.427025 313.131011 
L 135.632126 315.264695 
L 136.837227 315.453627 
L 138.042328 316.400041 
L 139.247429 317.935543 
L 140.452531 320.692677 
L 141.657632 320.546508 
L 142.862733 320.691758 
L 144.067834 319.783059 
L 145.272935 320.576775 
L 146.478036 316.739244 
L 147.683137 317.574438 
L 148.888238 317.454616 
L 150.093339 316.545698 
L 151.298441 313.506658 
L 152.503542 312.58038 
L 153.708643 312.216768 
L 154.913744 310.653342 
L 156.118845 310.386006 
L 157.323946 310.684214 
L 158.529047 311.729894 
L 159.734148 311.573899 
L 162.144351 312.835215 
L 163.349452 313.79776 
L 164.554553 314.405005 
L 165.759654 315.163248 
L 166.964755 316.568047 
L 168.169856 316.492298 
L 169.374957 316.709373 
L 170.580058 315.279692 
L 171.785159 314.733452 
L 172.990261 312.958093 
L 174.195362 310.742788 
L 175.400463 312.134393 
L 176.605564 313.302795 
L 177.810665 314.867414 
L 179.015766 314.376489 
L 180.220867 315.366492 
L 181.425968 315.679936 
L 182.631069 317.622065 
L 183.836171 316.72901 
L 185.041272 315.232664 
L 186.246373 312.790879 
L 187.451474 310.772991 
L 188.656575 311.389708 
L 189.861676 311.731409 
L 191.066777 313.193982 
L 193.476979 315.490775 
L 194.682081 317.077972 
L 195.887182 317.143348 
L 197.092283 318.195803 
L 198.297384 318.255393 
L 199.502485 319.269632 
L 200.707586 316.172553 
L 201.912687 316.87173 
L 203.117788 317.926714 
L 204.322889 318.464915 
L 206.733092 315.367519 
L 207.938193 314.936094 
L 209.143294 314.259538 
L 210.348395 315.158829 
L 211.553496 315.826967 
L 212.758597 316.941728 
L 213.963698 315.995746 
L 216.373901 316.44006 
L 217.579002 316.253889 
L 218.784103 316.838085 
L 219.989204 315.352218 
L 221.194305 314.413964 
L 222.399406 314.761886 
L 224.809608 314.210778 
L 226.014709 314.923182 
L 227.219811 316.038608 
L 228.424912 316.570815 
L 229.630013 316.933162 
L 232.040215 318.522487 
L 233.245316 317.054407 
L 235.655518 318.124397 
L 236.860619 317.975418 
L 239.270822 319.108543 
L 240.475923 319.910357 
L 241.681024 319.115568 
L 242.886125 319.168164 
L 244.091226 316.824938 
L 245.296327 315.53583 
L 246.501428 315.758113 
L 247.706529 315.778596 
L 248.911631 312.932351 
L 250.116732 312.060447 
L 251.321833 312.793529 
L 252.526934 313.157768 
L 253.732035 313.840288 
L 254.937136 314.112738 
L 256.142237 312.39939 
L 257.347338 312.240512 
L 258.552439 312.425542 
L 260.962642 312.147027 
L 262.167743 313.034038 
L 263.372844 313.299052 
L 264.577945 313.033392 
L 265.783046 312.387318 
L 268.193248 312.756369 
L 269.398349 312.608972 
L 270.603451 312.927754 
L 271.808552 313.05974 
L 275.423855 314.007491 
L 276.628956 313.995494 
L 277.834057 314.122242 
L 282.654462 313.314817 
L 283.859563 314.13816 
L 286.269765 313.343649 
L 287.474866 313.940702 
L 288.679967 313.591336 
L 291.090169 313.608379 
L 292.295271 314.145771 
L 293.500372 313.272278 
L 294.705473 312.73417 
L 295.910574 313.249358 
L 297.115675 313.586981 
L 298.320776 313.755024 
L 299.525877 311.78545 
L 300.730978 311.169874 
L 303.141181 312.372749 
L 304.346282 312.72047 
L 305.551383 312.591809 
L 306.756484 311.944013 
L 307.961585 311.484768 
L 309.166686 310.474567 
L 311.576888 310.823012 
L 312.781989 309.982908 
L 313.987091 310.097559 
L 315.192192 309.579942 
L 316.397293 309.405415 
L 317.602394 310.074876 
L 318.807495 309.472334 
L 320.012596 309.675335 
L 321.217697 310.226903 
L 322.422798 309.892433 
L 323.627899 309.441374 
L 326.038102 309.767237 
L 327.243203 310.302772 
L 328.448304 310.689111 
L 329.653405 310.926563 
L 330.858506 310.195236 
L 332.063607 310.723936 
L 334.473809 311.168235 
L 335.678911 311.384551 
L 336.884012 311.144447 
L 339.294214 311.090969 
L 341.704416 310.734808 
L 342.909517 310.139484 
L 344.114618 308.564839 
L 346.524821 307.822461 
L 347.729922 307.07324 
L 348.935023 307.049703 
L 350.140124 307.313738 
L 352.550326 307.494047 
L 353.755427 307.886395 
L 356.165629 306.338783 
L 357.370731 306.692992 
L 358.575832 306.288504 
L 359.780933 305.661862 
L 360.986034 306.232774 
L 362.191135 306.281077 
L 363.396236 306.902814 
L 364.601337 307.132316 
L 367.011539 305.866684 
L 368.216641 305.508652 
L 369.421742 305.466111 
L 370.626843 305.833984 
L 371.831944 306.005366 
L 373.037045 305.627323 
L 374.242146 304.754616 
L 377.857449 305.691516 
L 379.062551 305.309484 
L 380.267652 303.613936 
L 381.472753 303.516945 
L 382.677854 303.724235 
L 383.882955 303.049977 
L 385.088056 303.430002 
L 386.293157 303.406773 
L 388.703359 302.543567 
L 389.908461 303.14164 
L 392.318663 303.593477 
L 393.523764 304.299864 
L 394.728865 304.344501 
L 395.933966 304.272832 
L 397.139067 303.793958 
L 399.549269 304.604556 
L 400.754371 304.840234 
L 401.959472 304.901157 
L 404.369674 305.35923 
L 405.574775 305.089713 
L 406.779876 304.494392 
L 407.984977 304.806611 
L 409.190078 304.382917 
L 410.395179 304.619311 
L 411.600281 304.422751 
L 414.010483 303.324511 
L 415.215584 303.355568 
L 416.420685 302.572152 
L 417.625786 302.620369 
L 420.035988 302.925116 
L 421.241089 301.734259 
L 422.446191 301.778286 
L 424.856393 302.040809 
L 426.061494 302.427639 
L 427.266595 302.034107 
L 428.471696 302.012347 
L 429.676797 301.37427 
L 430.881898 301.865059 
L 432.086999 301.825192 
L 433.292101 300.817063 
L 434.497202 300.812985 
L 435.702303 300.508721 
L 436.907404 300.545019 
L 438.112505 300.463037 
L 439.317606 300.813947 
L 440.522707 300.662575 
L 441.727808 300.6756 
L 442.932909 300.963301 
L 445.343112 301.397457 
L 446.548213 301.25226 
L 447.753314 301.261489 
L 448.958415 301.829742 
L 450.163516 301.581806 
L 452.573718 301.914527 
L 453.778819 301.732059 
L 454.983921 302.169163 
L 456.189022 301.925947 
L 457.394123 301.488624 
L 458.599224 301.909403 
L 461.009426 301.891298 
L 463.419628 302.664051 
L 464.624729 302.973818 
L 465.829831 302.891043 
L 467.034932 303.315551 
L 468.240033 303.617972 
L 469.445134 303.696071 
L 470.650235 303.608722 
L 471.855336 303.892287 
L 473.060437 304.015306 
L 474.265538 303.893324 
L 475.470639 304.160037 
L 476.675741 304.605844 
L 481.496145 305.825585 
L 483.906347 305.974344 
L 485.111448 306.049807 
L 486.316549 305.966235 
L 487.521651 305.679787 
L 488.726752 305.220372 
L 489.931853 304.921968 
L 492.342055 305.563387 
L 493.547156 305.823162 
L 495.957358 305.769999 
L 497.162459 305.866382 
L 498.367561 305.601913 
L 500.777763 305.623091 
L 501.982864 305.878345 
L 503.187965 305.424062 
L 504.393066 305.763622 
L 506.803268 305.929918 
L 508.008369 304.922356 
L 509.213471 305.213295 
L 510.418572 305.104751 
L 512.828774 304.497598 
L 517.649178 304.758781 
L 518.854279 304.039592 
L 520.059381 303.863558 
L 521.264482 304.080445 
L 524.879785 303.413473 
L 527.289987 303.634445 
L 528.495088 303.641303 
L 529.700189 303.476057 
L 530.905291 302.91322 
L 532.110392 302.161553 
L 533.315493 301.999788 
L 534.520594 302.234929 
L 540.546099 302.66172 
L 541.751201 302.604713 
L 544.161403 301.885964 
L 546.571605 301.604818 
L 548.981807 301.845208 
L 550.186908 302.167654 
L 551.392009 301.998636 
L 552.597111 301.984353 
L 553.802212 301.845299 
L 557.417515 302.473654 
L 559.827717 301.906031 
L 561.032818 302.025157 
L 562.237919 301.959174 
L 563.443021 301.696672 
L 564.648122 301.145748 
L 567.058324 301.823912 
L 568.263425 301.510968 
L 569.468526 301.554956 
L 570.673627 301.84495 
L 571.878728 301.800877 
L 573.083829 302.033879 
L 575.494032 301.399784 
L 576.699133 301.542332 
L 579.109335 301.506362 
L 580.314436 301.632314 
L 581.519537 301.633189 
L 582.724638 301.754087 
L 583.929739 302.014579 
L 585.134841 301.966454 
L 587.545043 301.686738 
L 588.750144 301.653526 
L 589.955245 301.815224 
L 591.160346 301.623153 
L 599.596054 302.398768 
L 604.416458 303.284794 
L 605.621559 303.49253 
L 606.826661 303.873534 
L 608.031762 304.100227 
L 609.236863 303.730457 
L 611.647065 303.336837 
L 614.057267 303.65066 
L 615.262368 303.48281 
L 616.467469 303.648317 
L 617.672571 304.037635 
L 618.877672 303.623363 
L 620.082773 303.875329 
L 624.903177 303.718334 
L 626.108278 303.997529 
L 628.518481 304.1915 
L 629.723582 303.911083 
L 630.928683 304.143196 
L 632.133784 303.583181 
L 634.543986 303.916653 
L 635.749087 303.786529 
L 636.954188 303.925801 
L 638.159289 303.654498 
L 639.364391 303.662904 
L 640.569492 303.226572 
L 641.774593 303.54819 
L 642.979694 303.414479 
L 646.594997 303.821584 
L 647.800098 303.625762 
L 649.005199 303.844119 
L 650.210301 303.646633 
L 651.415402 303.603878 
L 653.825604 303.85588 
L 655.030705 303.935742 
L 656.235806 304.238102 
L 657.440907 304.379776 
L 658.646008 304.216004 
L 659.851109 304.320788 
L 661.056211 304.581027 
L 662.261312 304.639089 
L 664.671514 305.01953 
L 665.876615 304.744616 
L 667.081716 304.87897 
L 668.286817 305.125227 
L 669.491918 304.910157 
L 670.697019 304.886243 
L 671.902121 304.576846 
L 673.107222 304.910598 
L 674.312323 305.064546 
L 675.517424 304.549564 
L 676.722525 304.677938 
L 677.927626 304.142693 
L 679.132727 304.324752 
L 679.132727 304.324752 
" style="fill:none;stroke:#008000;stroke-linecap:square;stroke-width:1.5;"/>
   </g>
   <g id="patch_3">
    <path d="M 47.72 390.04 
L 47.72 28.464 
" style="fill:none;stroke:#000000;stroke-linecap:square;stroke-linejoin:miter;stroke-width:0.8;"/>
   </g>
   <g id="patch_4">
    <path d="M 709.2 390.04 
L 709.2 28.464 
" style="fill:none;stroke:#000000;stroke-linecap:square;stroke-linejoin:miter;stroke-width:0.8;"/>
   </g>
   <g id="patch_5">
    <path d="M 47.72 390.04 
L 709.2 390.04 
" style="fill:none;stroke:#000000;stroke-linecap:square;stroke-linejoin:miter;stroke-width:0.8;"/>
   </g>
   <g id="patch_6">
    <path d="M 47.72 28.464 
L 709.2 28.464 
" style="fill:none;stroke:#000000;stroke-linecap:square;stroke-linejoin:miter;stroke-width:0.8;"/>
   </g>
   <g id="text_18">
    <!-- Average ANEES with parameters $\sigma_{process}=$0.05,  $\sigma_{AIS}=$10, $\sigma_{Radar}=$100 -->
    <g transform="translate(166.84 22.464)scale(0.12 -0.12)">
     <defs>
      <path d="M 2.984375 54.6875 
L 12.5 54.6875 
L 29.59375 8.796875 
L 46.6875 54.6875 
L 56.203125 54.6875 
L 35.6875 0 
L 23.484375 0 
z
" id="DejaVuSans-118"/>
      <path d="M 45.40625 27.984375 
Q 45.40625 37.75 41.375 43.109375 
Q 37.359375 48.484375 30.078125 48.484375 
Q 22.859375 48.484375 18.828125 43.109375 
Q 14.796875 37.75 14.796875 27.984375 
Q 14.796875 18.265625 18.828125 12.890625 
Q 22.859375 7.515625 30.078125 7.515625 
Q 37.359375 7.515625 41.375 12.890625 
Q 45.40625 18.265625 45.40625 27.984375 
z
M 54.390625 6.78125 
Q 54.390625 -7.171875 48.1875 -13.984375 
Q 42 -20.796875 29.203125 -20.796875 
Q 24.46875 -20.796875 20.265625 -20.09375 
Q 16.0625 -19.390625 12.109375 -17.921875 
L 12.109375 -9.1875 
Q 16.0625 -11.328125 19.921875 -12.34375 
Q 23.78125 -13.375 27.78125 -13.375 
Q 36.625 -13.375 41.015625 -8.765625 
Q 45.40625 -4.15625 45.40625 5.171875 
L 45.40625 9.625 
Q 42.625 4.78125 38.28125 2.390625 
Q 33.9375 0 27.875 0 
Q 17.828125 0 11.671875 7.65625 
Q 5.515625 15.328125 5.515625 27.984375 
Q 5.515625 40.671875 11.671875 48.328125 
Q 17.828125 56 27.875 56 
Q 33.9375 56 38.28125 53.609375 
Q 42.625 51.21875 45.40625 46.390625 
L 45.40625 54.6875 
L 54.390625 54.6875 
z
" id="DejaVuSans-103"/>
      <path d="M 4.203125 54.6875 
L 13.1875 54.6875 
L 24.421875 12.015625 
L 35.59375 54.6875 
L 46.1875 54.6875 
L 57.421875 12.015625 
L 68.609375 54.6875 
L 77.59375 54.6875 
L 63.28125 0 
L 52.6875 0 
L 40.921875 44.828125 
L 29.109375 0 
L 18.5 0 
z
" id="DejaVuSans-119"/>
      <path d="M 54.890625 33.015625 
L 54.890625 0 
L 45.90625 0 
L 45.90625 32.71875 
Q 45.90625 40.484375 42.875 44.328125 
Q 39.84375 48.1875 33.796875 48.1875 
Q 26.515625 48.1875 22.3125 43.546875 
Q 18.109375 38.921875 18.109375 30.90625 
L 18.109375 0 
L 9.078125 0 
L 9.078125 75.984375 
L 18.109375 75.984375 
L 18.109375 46.1875 
Q 21.34375 51.125 25.703125 53.5625 
Q 30.078125 56 35.796875 56 
Q 45.21875 56 50.046875 50.171875 
Q 54.890625 44.34375 54.890625 33.015625 
z
" id="DejaVuSans-104"/>
      <path d="M 18.109375 8.203125 
L 18.109375 -20.796875 
L 9.078125 -20.796875 
L 9.078125 54.6875 
L 18.109375 54.6875 
L 18.109375 46.390625 
Q 20.953125 51.265625 25.265625 53.625 
Q 29.59375 56 35.59375 56 
Q 45.5625 56 51.78125 48.09375 
Q 58.015625 40.1875 58.015625 27.296875 
Q 58.015625 14.40625 51.78125 6.484375 
Q 45.5625 -1.421875 35.59375 -1.421875 
Q 29.59375 -1.421875 25.265625 0.953125 
Q 20.953125 3.328125 18.109375 8.203125 
z
M 48.6875 27.296875 
Q 48.6875 37.203125 44.609375 42.84375 
Q 40.53125 48.484375 33.40625 48.484375 
Q 26.265625 48.484375 22.1875 42.84375 
Q 18.109375 37.203125 18.109375 27.296875 
Q 18.109375 17.390625 22.1875 11.75 
Q 26.265625 6.109375 33.40625 6.109375 
Q 40.53125 6.109375 44.609375 11.75 
Q 48.6875 17.390625 48.6875 27.296875 
z
" id="DejaVuSans-112"/>
      <path d="M 52 44.1875 
Q 55.375 50.25 60.0625 53.125 
Q 64.75 56 71.09375 56 
Q 79.640625 56 84.28125 50.015625 
Q 88.921875 44.046875 88.921875 33.015625 
L 88.921875 0 
L 79.890625 0 
L 79.890625 32.71875 
Q 79.890625 40.578125 77.09375 44.375 
Q 74.3125 48.1875 68.609375 48.1875 
Q 61.625 48.1875 57.5625 43.546875 
Q 53.515625 38.921875 53.515625 30.90625 
L 53.515625 0 
L 44.484375 0 
L 44.484375 32.71875 
Q 44.484375 40.625 41.703125 44.40625 
Q 38.921875 48.1875 33.109375 48.1875 
Q 26.21875 48.1875 22.15625 43.53125 
Q 18.109375 38.875 18.109375 30.90625 
L 18.109375 0 
L 9.078125 0 
L 9.078125 54.6875 
L 18.109375 54.6875 
L 18.109375 46.1875 
Q 21.1875 51.21875 25.484375 53.609375 
Q 29.78125 56 35.6875 56 
Q 41.65625 56 45.828125 52.96875 
Q 50 49.953125 52 44.1875 
z
" id="DejaVuSans-109"/>
      <path d="M 34.671875 47.5625 
Q 27.25 47.5625 22.21875 42.1875 
Q 16.890625 36.578125 15.140625 27.296875 
Q 13.1875 17.484375 16.3125 11.8125 
Q 19.390625 6.203125 26.65625 6.203125 
Q 33.84375 6.203125 39.109375 11.859375 
Q 44.4375 17.53125 46.34375 27.296875 
Q 48.046875 36.234375 45.015625 42.1875 
Q 42.1875 47.5625 34.671875 47.5625 
z
M 36.078125 54.734375 
L 65.921875 54.6875 
L 64.15625 45.703125 
L 54.109375 45.703125 
Q 57.90625 38.09375 55.859375 27.296875 
Q 53.21875 13.875 45.0625 6.25 
Q 36.859375 -1.421875 25.140625 -1.421875 
Q 13.375 -1.421875 8.203125 6.25 
Q 3.03125 13.875 5.671875 27.296875 
Q 8.25 40.765625 16.40625 48.390625 
Q 23.1875 54.734375 36.078125 54.734375 
z
" id="DejaVuSans-Oblique-963"/>
      <path d="M 49.609375 33.6875 
Q 49.609375 40.875 46.484375 44.671875 
Q 43.359375 48.484375 37.5 48.484375 
Q 33.5 48.484375 29.859375 46.4375 
Q 26.21875 44.390625 23.390625 40.484375 
Q 20.609375 36.625 18.9375 31.15625 
Q 17.28125 25.6875 17.28125 20.3125 
Q 17.28125 13.484375 20.40625 9.796875 
Q 23.53125 6.109375 29.296875 6.109375 
Q 33.546875 6.109375 37.1875 8.109375 
Q 40.828125 10.109375 43.40625 13.921875 
Q 46.1875 17.921875 47.890625 23.34375 
Q 49.609375 28.765625 49.609375 33.6875 
z
M 21.78125 46.390625 
Q 25.390625 51.125 30.296875 53.5625 
Q 35.203125 56 41.21875 56 
Q 49.609375 56 54.25 50.5 
Q 58.890625 45.015625 58.890625 35.109375 
Q 58.890625 27 56 19.65625 
Q 53.125 12.3125 47.703125 6.5 
Q 44.09375 2.640625 39.546875 0.609375 
Q 35.015625 -1.421875 29.984375 -1.421875 
Q 24.171875 -1.421875 20.21875 1 
Q 16.265625 3.421875 14.3125 8.203125 
L 8.6875 -20.796875 
L -0.296875 -20.796875 
L 14.40625 54.6875 
L 23.390625 54.6875 
z
" id="DejaVuSans-Oblique-112"/>
      <path d="M 44.578125 46.390625 
Q 43.21875 47.125 41.453125 47.515625 
Q 39.703125 47.90625 37.703125 47.90625 
Q 30.515625 47.90625 25.140625 42.453125 
Q 19.78125 37.015625 18.015625 27.875 
L 12.5 0 
L 3.515625 0 
L 14.203125 54.6875 
L 23.1875 54.6875 
L 21.484375 46.1875 
Q 25.046875 50.921875 30 53.453125 
Q 34.96875 56 40.578125 56 
Q 42.046875 56 43.453125 55.828125 
Q 44.875 55.671875 46.296875 55.28125 
z
" id="DejaVuSans-Oblique-114"/>
      <path d="M 25.390625 -1.421875 
Q 15.765625 -1.421875 10.171875 4.515625 
Q 4.59375 10.453125 4.59375 20.703125 
Q 4.59375 26.65625 6.515625 32.828125 
Q 8.453125 39.015625 11.53125 43.21875 
Q 16.359375 49.75 22.3125 52.875 
Q 28.265625 56 35.796875 56 
Q 45.125 56 50.859375 50.1875 
Q 56.59375 44.390625 56.59375 35.015625 
Q 56.59375 28.515625 54.6875 22.0625 
Q 52.78125 15.625 49.703125 11.375 
Q 44.921875 4.828125 38.96875 1.703125 
Q 33.015625 -1.421875 25.390625 -1.421875 
z
M 13.921875 21 
Q 13.921875 13.578125 17.015625 9.890625 
Q 20.125 6.203125 26.421875 6.203125 
Q 35.453125 6.203125 41.375 14.078125 
Q 47.3125 21.96875 47.3125 34.078125 
Q 47.3125 41.15625 44.140625 44.765625 
Q 40.96875 48.390625 34.8125 48.390625 
Q 29.734375 48.390625 25.78125 46.015625 
Q 21.828125 43.65625 18.703125 38.8125 
Q 16.40625 35.203125 15.15625 30.5625 
Q 13.921875 25.921875 13.921875 21 
z
" id="DejaVuSans-Oblique-111"/>
      <path d="M 53.609375 52.59375 
L 51.8125 43.703125 
Q 48.578125 46.046875 44.9375 47.21875 
Q 41.3125 48.390625 37.40625 48.390625 
Q 33.109375 48.390625 29.21875 46.875 
Q 25.34375 45.359375 22.703125 42.578125 
Q 18.5 38.328125 16.203125 32.609375 
Q 13.921875 26.90625 13.921875 20.796875 
Q 13.921875 13.421875 17.609375 9.8125 
Q 21.296875 6.203125 28.8125 6.203125 
Q 32.515625 6.203125 36.6875 7.328125 
Q 40.875 8.453125 45.40625 10.6875 
L 43.703125 1.8125 
Q 39.796875 0.203125 35.671875 -0.609375 
Q 31.546875 -1.421875 27.203125 -1.421875 
Q 16.3125 -1.421875 10.453125 4.015625 
Q 4.59375 9.46875 4.59375 19.578125 
Q 4.59375 28.078125 7.640625 35.234375 
Q 10.6875 42.390625 16.703125 48.09375 
Q 20.796875 52 26.3125 54 
Q 31.84375 56 38.375 56 
Q 42.1875 56 45.9375 55.140625 
Q 49.703125 54.296875 53.609375 52.59375 
z
" id="DejaVuSans-Oblique-99"/>
      <path d="M 48.09375 32.234375 
Q 48.25 33.015625 48.3125 33.84375 
Q 48.390625 34.671875 48.390625 35.5 
Q 48.390625 41.453125 44.890625 44.921875 
Q 41.40625 48.390625 35.40625 48.390625 
Q 28.71875 48.390625 23.578125 44.15625 
Q 18.453125 39.9375 15.828125 32.171875 
z
M 55.90625 25.203125 
L 14.109375 25.203125 
Q 13.8125 23.34375 13.71875 22.265625 
Q 13.625 21.1875 13.625 20.40625 
Q 13.625 13.625 17.796875 9.90625 
Q 21.96875 6.203125 29.59375 6.203125 
Q 35.453125 6.203125 40.671875 7.515625 
Q 45.90625 8.84375 50.390625 11.375 
L 48.6875 2.484375 
Q 43.84375 0.53125 38.6875 -0.4375 
Q 33.546875 -1.421875 28.21875 -1.421875 
Q 16.84375 -1.421875 10.71875 4.015625 
Q 4.59375 9.46875 4.59375 19.484375 
Q 4.59375 28.03125 7.640625 35.375 
Q 10.6875 42.71875 16.609375 48.484375 
Q 20.40625 52.09375 25.65625 54.046875 
Q 30.90625 56 36.8125 56 
Q 46.09375 56 51.578125 50.4375 
Q 57.078125 44.875 57.078125 35.5 
Q 57.078125 33.25 56.78125 30.6875 
Q 56.5 28.125 55.90625 25.203125 
z
" id="DejaVuSans-Oblique-101"/>
      <path d="M 50 53.078125 
L 48.296875 44.578125 
Q 44.734375 46.53125 40.765625 47.5 
Q 36.8125 48.484375 32.625 48.484375 
Q 25.53125 48.484375 21.453125 46.0625 
Q 17.390625 43.65625 17.390625 39.5 
Q 17.390625 34.671875 26.859375 32.078125 
Q 27.59375 31.890625 27.9375 31.78125 
L 30.8125 30.90625 
Q 39.796875 28.421875 42.796875 25.6875 
Q 45.796875 22.953125 45.796875 18.21875 
Q 45.796875 9.515625 38.890625 4.046875 
Q 31.984375 -1.421875 20.796875 -1.421875 
Q 16.453125 -1.421875 11.671875 -0.578125 
Q 6.890625 0.25 1.125 2 
L 2.875 11.28125 
Q 7.8125 8.734375 12.59375 7.421875 
Q 17.390625 6.109375 21.78125 6.109375 
Q 28.375 6.109375 32.5 8.9375 
Q 36.625 11.765625 36.625 16.109375 
Q 36.625 20.796875 25.78125 23.6875 
L 24.859375 23.921875 
L 21.78125 24.703125 
Q 14.9375 26.515625 11.765625 29.46875 
Q 8.59375 32.421875 8.59375 37.015625 
Q 8.59375 45.75 15.15625 50.875 
Q 21.734375 56 33.015625 56 
Q 37.453125 56 41.671875 55.265625 
Q 45.90625 54.546875 50 53.078125 
z
" id="DejaVuSans-Oblique-115"/>
      <path d="M 10.59375 45.40625 
L 73.1875 45.40625 
L 73.1875 37.203125 
L 10.59375 37.203125 
z
M 10.59375 25.484375 
L 73.1875 25.484375 
L 73.1875 17.1875 
L 10.59375 17.1875 
z
" id="DejaVuSans-61"/>
      <path d="M 11.71875 12.40625 
L 22.015625 12.40625 
L 22.015625 4 
L 14.015625 -11.625 
L 7.71875 -11.625 
L 11.71875 4 
z
" id="DejaVuSans-44"/>
      <path d="M 36.8125 72.90625 
L 48 72.90625 
L 61.53125 0 
L 51.21875 0 
L 48.1875 18.703125 
L 15.375 18.703125 
L 5.078125 0 
L -5.328125 0 
z
M 40.375 63.1875 
L 19.921875 26.90625 
L 46.6875 26.90625 
z
" id="DejaVuSans-Oblique-65"/>
      <path d="M 16.890625 72.90625 
L 26.8125 72.90625 
L 12.59375 0 
L 2.6875 0 
z
" id="DejaVuSans-Oblique-73"/>
      <path d="M 60.296875 70.515625 
L 58.40625 60.890625 
Q 53.46875 63.53125 48.609375 64.875 
Q 43.75 66.21875 39.203125 66.21875 
Q 30.375 66.21875 25.140625 62.359375 
Q 19.921875 58.5 19.921875 52.09375 
Q 19.921875 48.578125 21.84375 46.703125 
Q 23.78125 44.828125 31.78125 42.671875 
L 37.703125 41.21875 
Q 47.703125 38.625 51.609375 34.640625 
Q 55.515625 30.671875 55.515625 23.484375 
Q 55.515625 12.453125 46.84375 5.515625 
Q 38.1875 -1.421875 24.03125 -1.421875 
Q 18.21875 -1.421875 12.359375 -0.265625 
Q 6.5 0.875 0.59375 3.21875 
L 2.59375 13.375 
Q 8.015625 10.015625 13.453125 8.296875 
Q 18.890625 6.59375 24.3125 6.59375 
Q 33.546875 6.59375 39.109375 10.6875 
Q 44.671875 14.796875 44.671875 21.390625 
Q 44.671875 25.78125 42.453125 28.046875 
Q 40.234375 30.328125 32.90625 32.171875 
L 27 33.6875 
Q 16.890625 36.328125 13.203125 39.765625 
Q 9.515625 43.21875 9.515625 49.421875 
Q 9.515625 60.296875 17.890625 67.25 
Q 26.265625 74.21875 39.703125 74.21875 
Q 44.921875 74.21875 50.046875 73.28125 
Q 55.171875 72.359375 60.296875 70.515625 
z
" id="DejaVuSans-Oblique-83"/>
      <path d="M 25.203125 64.796875 
L 20.21875 38.921875 
L 32.90625 38.921875 
Q 40.375 38.921875 44.984375 43.046875 
Q 49.609375 47.171875 49.609375 53.8125 
Q 49.609375 59.125 46.5 61.953125 
Q 43.40625 64.796875 37.59375 64.796875 
z
M 43.3125 35.015625 
Q 46.4375 34.28125 48.515625 31.390625 
Q 50.59375 28.515625 53.328125 19.921875 
L 59.515625 0 
L 49.125 0 
L 43.40625 18.703125 
Q 41.21875 25.921875 38.328125 28.359375 
Q 35.453125 30.8125 29.5 30.8125 
L 18.609375 30.8125 
L 12.59375 0 
L 2.6875 0 
L 16.890625 72.90625 
L 39.109375 72.90625 
Q 49.21875 72.90625 54.609375 68.328125 
Q 60.015625 63.765625 60.015625 55.171875 
Q 60.015625 47.5625 55.421875 41.984375 
Q 50.828125 36.421875 43.3125 35.015625 
z
" id="DejaVuSans-Oblique-82"/>
      <path d="M 53.71875 31.203125 
L 47.609375 0 
L 38.625 0 
L 40.28125 8.296875 
Q 36.328125 3.421875 31.265625 1 
Q 26.21875 -1.421875 20.015625 -1.421875 
Q 13.03125 -1.421875 8.5625 2.84375 
Q 4.109375 7.125 4.109375 13.8125 
Q 4.109375 23.390625 11.75 28.953125 
Q 19.390625 34.515625 32.8125 34.515625 
L 45.3125 34.515625 
L 45.796875 36.921875 
Q 45.90625 37.3125 45.953125 37.765625 
Q 46 38.234375 46 39.203125 
Q 46 43.5625 42.453125 45.96875 
Q 38.921875 48.390625 32.515625 48.390625 
Q 28.125 48.390625 23.5 47.265625 
Q 18.890625 46.140625 14.015625 43.890625 
L 15.578125 52.203125 
Q 20.65625 54.109375 25.515625 55.046875 
Q 30.375 56 34.90625 56 
Q 44.578125 56 49.625 51.796875 
Q 54.6875 47.609375 54.6875 39.59375 
Q 54.6875 37.984375 54.4375 35.8125 
Q 54.203125 33.640625 53.71875 31.203125 
z
M 44 27.484375 
L 35.015625 27.484375 
Q 23.96875 27.484375 18.671875 24.53125 
Q 13.375 21.578125 13.375 15.375 
Q 13.375 11.078125 16.078125 8.640625 
Q 18.796875 6.203125 23.578125 6.203125 
Q 30.90625 6.203125 36.375 11.453125 
Q 41.84375 16.703125 43.609375 25.484375 
z
" id="DejaVuSans-Oblique-97"/>
      <path d="M 41.796875 8.203125 
Q 38.1875 3.46875 33.25 1.015625 
Q 28.328125 -1.421875 22.3125 -1.421875 
Q 14.109375 -1.421875 9.34375 4.171875 
Q 4.59375 9.765625 4.59375 19.484375 
Q 4.59375 27.59375 7.46875 34.9375 
Q 10.359375 42.28125 15.828125 48.09375 
Q 19.4375 51.953125 23.96875 53.96875 
Q 28.515625 56 33.5 56 
Q 38.765625 56 42.796875 53.453125 
Q 46.828125 50.921875 49.03125 46.1875 
L 54.890625 75.984375 
L 63.921875 75.984375 
L 49.125 0 
L 40.09375 0 
z
M 13.921875 21.09375 
Q 13.921875 14.015625 17.109375 10.0625 
Q 20.3125 6.109375 25.984375 6.109375 
Q 30.171875 6.109375 33.765625 8.125 
Q 37.359375 10.15625 40.09375 14.109375 
Q 42.96875 18.21875 44.625 23.578125 
Q 46.296875 28.953125 46.296875 34.1875 
Q 46.296875 40.96875 43.09375 44.765625 
Q 39.890625 48.578125 34.28125 48.578125 
Q 30.03125 48.578125 26.359375 46.578125 
Q 22.703125 44.578125 20.125 40.828125 
Q 17.28125 36.765625 15.59375 31.390625 
Q 13.921875 26.03125 13.921875 21.09375 
z
" id="DejaVuSans-Oblique-100"/>
     </defs>
     <use transform="translate(0 0.015625)" xlink:href="#DejaVuSans-65"/>
     <use transform="translate(68.408203 0.015625)" xlink:href="#DejaVuSans-118"/>
     <use transform="translate(127.587891 0.015625)" xlink:href="#DejaVuSans-101"/>
     <use transform="translate(189.111328 0.015625)" xlink:href="#DejaVuSans-114"/>
     <use transform="translate(230.224609 0.015625)" xlink:href="#DejaVuSans-97"/>
     <use transform="translate(291.503906 0.015625)" xlink:href="#DejaVuSans-103"/>
     <use transform="translate(354.980469 0.015625)" xlink:href="#DejaVuSans-101"/>
     <use transform="translate(416.503906 0.015625)" xlink:href="#DejaVuSans-32"/>
     <use transform="translate(448.291016 0.015625)" xlink:href="#DejaVuSans-65"/>
     <use transform="translate(516.699219 0.015625)" xlink:href="#DejaVuSans-78"/>
     <use transform="translate(591.503906 0.015625)" xlink:href="#DejaVuSans-69"/>
     <use transform="translate(654.6875 0.015625)" xlink:href="#DejaVuSans-69"/>
     <use transform="translate(717.871094 0.015625)" xlink:href="#DejaVuSans-83"/>
     <use transform="translate(781.347656 0.015625)" xlink:href="#DejaVuSans-32"/>
     <use transform="translate(813.134766 0.015625)" xlink:href="#DejaVuSans-119"/>
     <use transform="translate(894.921875 0.015625)" xlink:href="#DejaVuSans-105"/>
     <use transform="translate(922.705078 0.015625)" xlink:href="#DejaVuSans-116"/>
     <use transform="translate(961.914062 0.015625)" xlink:href="#DejaVuSans-104"/>
     <use transform="translate(1025.292969 0.015625)" xlink:href="#DejaVuSans-32"/>
     <use transform="translate(1057.080078 0.015625)" xlink:href="#DejaVuSans-112"/>
     <use transform="translate(1120.556641 0.015625)" xlink:href="#DejaVuSans-97"/>
     <use transform="translate(1181.835938 0.015625)" xlink:href="#DejaVuSans-114"/>
     <use transform="translate(1222.949219 0.015625)" xlink:href="#DejaVuSans-97"/>
     <use transform="translate(1284.228516 0.015625)" xlink:href="#DejaVuSans-109"/>
     <use transform="translate(1381.640625 0.015625)" xlink:href="#DejaVuSans-101"/>
     <use transform="translate(1443.164062 0.015625)" xlink:href="#DejaVuSans-116"/>
     <use transform="translate(1482.373047 0.015625)" xlink:href="#DejaVuSans-101"/>
     <use transform="translate(1543.896484 0.015625)" xlink:href="#DejaVuSans-114"/>
     <use transform="translate(1585.009766 0.015625)" xlink:href="#DejaVuSans-115"/>
     <use transform="translate(1637.109375 0.015625)" xlink:href="#DejaVuSans-32"/>
     <use transform="translate(1668.896484 0.015625)" xlink:href="#DejaVuSans-Oblique-963"/>
     <use transform="translate(1732.275391 -16.390625)scale(0.7)" xlink:href="#DejaVuSans-Oblique-112"/>
     <use transform="translate(1776.708984 -16.390625)scale(0.7)" xlink:href="#DejaVuSans-Oblique-114"/>
     <use transform="translate(1805.488281 -16.390625)scale(0.7)" xlink:href="#DejaVuSans-Oblique-111"/>
     <use transform="translate(1848.31543 -16.390625)scale(0.7)" xlink:href="#DejaVuSans-Oblique-99"/>
     <use transform="translate(1886.801758 -16.390625)scale(0.7)" xlink:href="#DejaVuSans-Oblique-101"/>
     <use transform="translate(1929.868164 -16.390625)scale(0.7)" xlink:href="#DejaVuSans-Oblique-115"/>
     <use transform="translate(1966.337891 -16.390625)scale(0.7)" xlink:href="#DejaVuSans-Oblique-115"/>
     <use transform="translate(2025.024414 0.015625)" xlink:href="#DejaVuSans-61"/>
     <use transform="translate(2128.295898 0.015625)" xlink:href="#DejaVuSans-48"/>
     <use transform="translate(2191.918945 0.015625)" xlink:href="#DejaVuSans-46"/>
     <use transform="translate(2223.706055 0.015625)" xlink:href="#DejaVuSans-48"/>
     <use transform="translate(2287.329102 0.015625)" xlink:href="#DejaVuSans-53"/>
     <use transform="translate(2350.952148 0.015625)" xlink:href="#DejaVuSans-44"/>
     <use transform="translate(2382.739258 0.015625)" xlink:href="#DejaVuSans-32"/>
     <use transform="translate(2414.526367 0.015625)" xlink:href="#DejaVuSans-32"/>
     <use transform="translate(2446.313477 0.015625)" xlink:href="#DejaVuSans-Oblique-963"/>
     <use transform="translate(2509.692383 -16.390625)scale(0.7)" xlink:href="#DejaVuSans-Oblique-65"/>
     <use transform="translate(2557.578125 -16.390625)scale(0.7)" xlink:href="#DejaVuSans-Oblique-73"/>
     <use transform="translate(2578.222656 -16.390625)scale(0.7)" xlink:href="#DejaVuSans-Oblique-83"/>
     <use transform="translate(2644.873047 0.015625)" xlink:href="#DejaVuSans-61"/>
     <use transform="translate(2748.144531 0.015625)" xlink:href="#DejaVuSans-49"/>
     <use transform="translate(2811.767578 0.015625)" xlink:href="#DejaVuSans-48"/>
     <use transform="translate(2875.390625 0.015625)" xlink:href="#DejaVuSans-44"/>
     <use transform="translate(2907.177734 0.015625)" xlink:href="#DejaVuSans-32"/>
     <use transform="translate(2938.964844 0.015625)" xlink:href="#DejaVuSans-Oblique-963"/>
     <use transform="translate(3002.34375 -16.390625)scale(0.7)" xlink:href="#DejaVuSans-Oblique-82"/>
     <use transform="translate(3050.981445 -16.390625)scale(0.7)" xlink:href="#DejaVuSans-Oblique-97"/>
     <use transform="translate(3093.876953 -16.390625)scale(0.7)" xlink:href="#DejaVuSans-Oblique-100"/>
     <use transform="translate(3138.310547 -16.390625)scale(0.7)" xlink:href="#DejaVuSans-Oblique-97"/>
     <use transform="translate(3181.206055 -16.390625)scale(0.7)" xlink:href="#DejaVuSans-Oblique-114"/>
     <use transform="translate(3232.202148 0.015625)" xlink:href="#DejaVuSans-61"/>
     <use transform="translate(3335.473633 0.015625)" xlink:href="#DejaVuSans-49"/>
     <use transform="translate(3399.09668 0.015625)" xlink:href="#DejaVuSans-48"/>
     <use transform="translate(3462.719727 0.015625)" xlink:href="#DejaVuSans-48"/>
    </g>
   </g>
   <g id="legend_1">
    <g id="patch_7">
     <path d="M 566.607813 95.1765 
L 702.2 95.1765 
Q 704.2 95.1765 704.2 93.1765 
L 704.2 35.464 
Q 704.2 33.464 702.2 33.464 
L 566.607813 33.464 
Q 564.607813 33.464 564.607813 35.464 
L 564.607813 93.1765 
Q 564.607813 95.1765 566.607813 95.1765 
z
" style="fill:#ffffff;opacity:0.8;stroke:#cccccc;stroke-linejoin:miter;"/>
    </g>
    <g id="line2d_21">
     <path d="M 568.607813 41.562438 
L 588.607813 41.562438 
" style="fill:none;stroke:#000000;stroke-linecap:square;stroke-width:1.5;"/>
    </g>
    <g id="line2d_22"/>
    <g id="text_19">
     <!-- Confidence Intervals -->
     <g transform="translate(596.607813 45.062438)scale(0.1 -0.1)">
      <defs>
       <path d="M 37.109375 75.984375 
L 37.109375 68.5 
L 28.515625 68.5 
Q 23.6875 68.5 21.796875 66.546875 
Q 19.921875 64.59375 19.921875 59.515625 
L 19.921875 54.6875 
L 34.71875 54.6875 
L 34.71875 47.703125 
L 19.921875 47.703125 
L 19.921875 0 
L 10.890625 0 
L 10.890625 47.703125 
L 2.296875 47.703125 
L 2.296875 54.6875 
L 10.890625 54.6875 
L 10.890625 58.5 
Q 10.890625 67.625 15.140625 71.796875 
Q 19.390625 75.984375 28.609375 75.984375 
z
" id="DejaVuSans-102"/>
       <path d="M 45.40625 46.390625 
L 45.40625 75.984375 
L 54.390625 75.984375 
L 54.390625 0 
L 45.40625 0 
L 45.40625 8.203125 
Q 42.578125 3.328125 38.25 0.953125 
Q 33.9375 -1.421875 27.875 -1.421875 
Q 17.96875 -1.421875 11.734375 6.484375 
Q 5.515625 14.40625 5.515625 27.296875 
Q 5.515625 40.1875 11.734375 48.09375 
Q 17.96875 56 27.875 56 
Q 33.9375 56 38.25 53.625 
Q 42.578125 51.265625 45.40625 46.390625 
z
M 14.796875 27.296875 
Q 14.796875 17.390625 18.875 11.75 
Q 22.953125 6.109375 30.078125 6.109375 
Q 37.203125 6.109375 41.296875 11.75 
Q 45.40625 17.390625 45.40625 27.296875 
Q 45.40625 37.203125 41.296875 42.84375 
Q 37.203125 48.484375 30.078125 48.484375 
Q 22.953125 48.484375 18.875 42.84375 
Q 14.796875 37.203125 14.796875 27.296875 
z
" id="DejaVuSans-100"/>
       <path d="M 48.78125 52.59375 
L 48.78125 44.1875 
Q 44.96875 46.296875 41.140625 47.34375 
Q 37.3125 48.390625 33.40625 48.390625 
Q 24.65625 48.390625 19.8125 42.84375 
Q 14.984375 37.3125 14.984375 27.296875 
Q 14.984375 17.28125 19.8125 11.734375 
Q 24.65625 6.203125 33.40625 6.203125 
Q 37.3125 6.203125 41.140625 7.25 
Q 44.96875 8.296875 48.78125 10.40625 
L 48.78125 2.09375 
Q 45.015625 0.34375 40.984375 -0.53125 
Q 36.96875 -1.421875 32.421875 -1.421875 
Q 20.0625 -1.421875 12.78125 6.34375 
Q 5.515625 14.109375 5.515625 27.296875 
Q 5.515625 40.671875 12.859375 48.328125 
Q 20.21875 56 33.015625 56 
Q 37.15625 56 41.109375 55.140625 
Q 45.0625 54.296875 48.78125 52.59375 
z
" id="DejaVuSans-99"/>
       <path d="M 9.8125 72.90625 
L 19.671875 72.90625 
L 19.671875 0 
L 9.8125 0 
z
" id="DejaVuSans-73"/>
       <path d="M 9.421875 75.984375 
L 18.40625 75.984375 
L 18.40625 0 
L 9.421875 0 
z
" id="DejaVuSans-108"/>
      </defs>
      <use xlink:href="#DejaVuSans-67"/>
      <use x="69.824219" xlink:href="#DejaVuSans-111"/>
      <use x="131.005859" xlink:href="#DejaVuSans-110"/>
      <use x="194.384766" xlink:href="#DejaVuSans-102"/>
      <use x="229.589844" xlink:href="#DejaVuSans-105"/>
      <use x="257.373047" xlink:href="#DejaVuSans-100"/>
      <use x="320.849609" xlink:href="#DejaVuSans-101"/>
      <use x="382.373047" xlink:href="#DejaVuSans-110"/>
      <use x="445.751953" xlink:href="#DejaVuSans-99"/>
      <use x="500.732422" xlink:href="#DejaVuSans-101"/>
      <use x="562.255859" xlink:href="#DejaVuSans-32"/>
      <use x="594.042969" xlink:href="#DejaVuSans-73"/>
      <use x="623.535156" xlink:href="#DejaVuSans-110"/>
      <use x="686.914062" xlink:href="#DejaVuSans-116"/>
      <use x="726.123047" xlink:href="#DejaVuSans-101"/>
      <use x="787.646484" xlink:href="#DejaVuSans-114"/>
      <use x="828.759766" xlink:href="#DejaVuSans-118"/>
      <use x="887.939453" xlink:href="#DejaVuSans-97"/>
      <use x="949.21875" xlink:href="#DejaVuSans-108"/>
      <use x="977.001953" xlink:href="#DejaVuSans-115"/>
     </g>
    </g>
    <g id="line2d_23">
     <path d="M 568.607813 56.240563 
L 588.607813 56.240563 
" style="fill:none;stroke:#0000ff;stroke-linecap:square;stroke-width:1.5;"/>
    </g>
    <g id="line2d_24"/>
    <g id="text_20">
     <!-- Independent -->
     <g transform="translate(596.607813 59.740563)scale(0.1 -0.1)">
      <use xlink:href="#DejaVuSans-73"/>
      <use x="29.492188" xlink:href="#DejaVuSans-110"/>
      <use x="92.871094" xlink:href="#DejaVuSans-100"/>
      <use x="156.347656" xlink:href="#DejaVuSans-101"/>
      <use x="217.871094" xlink:href="#DejaVuSans-112"/>
      <use x="281.347656" xlink:href="#DejaVuSans-101"/>
      <use x="342.871094" xlink:href="#DejaVuSans-110"/>
      <use x="406.25" xlink:href="#DejaVuSans-100"/>
      <use x="469.726562" xlink:href="#DejaVuSans-101"/>
      <use x="531.25" xlink:href="#DejaVuSans-110"/>
      <use x="594.628906" xlink:href="#DejaVuSans-116"/>
     </g>
    </g>
    <g id="line2d_25">
     <path d="M 568.607813 70.918688 
L 588.607813 70.918688 
" style="fill:none;stroke:#ff0000;stroke-linecap:square;stroke-width:1.5;"/>
    </g>
    <g id="line2d_26"/>
    <g id="text_21">
     <!-- Dependent -->
     <g transform="translate(596.607813 74.418688)scale(0.1 -0.1)">
      <defs>
       <path d="M 19.671875 64.796875 
L 19.671875 8.109375 
L 31.59375 8.109375 
Q 46.6875 8.109375 53.6875 14.9375 
Q 60.6875 21.78125 60.6875 36.53125 
Q 60.6875 51.171875 53.6875 57.984375 
Q 46.6875 64.796875 31.59375 64.796875 
z
M 9.8125 72.90625 
L 30.078125 72.90625 
Q 51.265625 72.90625 61.171875 64.09375 
Q 71.09375 55.28125 71.09375 36.53125 
Q 71.09375 17.671875 61.125 8.828125 
Q 51.171875 0 30.078125 0 
L 9.8125 0 
z
" id="DejaVuSans-68"/>
      </defs>
      <use xlink:href="#DejaVuSans-68"/>
      <use x="77.001953" xlink:href="#DejaVuSans-101"/>
      <use x="138.525391" xlink:href="#DejaVuSans-112"/>
      <use x="202.001953" xlink:href="#DejaVuSans-101"/>
      <use x="263.525391" xlink:href="#DejaVuSans-110"/>
      <use x="326.904297" xlink:href="#DejaVuSans-100"/>
      <use x="390.380859" xlink:href="#DejaVuSans-101"/>
      <use x="451.904297" xlink:href="#DejaVuSans-110"/>
      <use x="515.283203" xlink:href="#DejaVuSans-116"/>
     </g>
    </g>
    <g id="line2d_27">
     <path d="M 568.607813 85.596813 
L 588.607813 85.596813 
" style="fill:none;stroke:#008000;stroke-linecap:square;stroke-width:1.5;"/>
    </g>
    <g id="line2d_28"/>
    <g id="text_22">
     <!-- AIS as measurement -->
     <g transform="translate(596.607813 89.096813)scale(0.1 -0.1)">
      <defs>
       <path d="M 8.5 21.578125 
L 8.5 54.6875 
L 17.484375 54.6875 
L 17.484375 21.921875 
Q 17.484375 14.15625 20.5 10.265625 
Q 23.53125 6.390625 29.59375 6.390625 
Q 36.859375 6.390625 41.078125 11.03125 
Q 45.3125 15.671875 45.3125 23.6875 
L 45.3125 54.6875 
L 54.296875 54.6875 
L 54.296875 0 
L 45.3125 0 
L 45.3125 8.40625 
Q 42.046875 3.421875 37.71875 1 
Q 33.40625 -1.421875 27.6875 -1.421875 
Q 18.265625 -1.421875 13.375 4.4375 
Q 8.5 10.296875 8.5 21.578125 
z
M 31.109375 56 
z
" id="DejaVuSans-117"/>
      </defs>
      <use xlink:href="#DejaVuSans-65"/>
      <use x="68.408203" xlink:href="#DejaVuSans-73"/>
      <use x="97.900391" xlink:href="#DejaVuSans-83"/>
      <use x="161.376953" xlink:href="#DejaVuSans-32"/>
      <use x="193.164062" xlink:href="#DejaVuSans-97"/>
      <use x="254.443359" xlink:href="#DejaVuSans-115"/>
      <use x="306.542969" xlink:href="#DejaVuSans-32"/>
      <use x="338.330078" xlink:href="#DejaVuSans-109"/>
      <use x="435.742188" xlink:href="#DejaVuSans-101"/>
      <use x="497.265625" xlink:href="#DejaVuSans-97"/>
      <use x="558.544922" xlink:href="#DejaVuSans-115"/>
      <use x="610.644531" xlink:href="#DejaVuSans-117"/>
      <use x="674.023438" xlink:href="#DejaVuSans-114"/>
      <use x="712.886719" xlink:href="#DejaVuSans-101"/>
      <use x="774.410156" xlink:href="#DejaVuSans-109"/>
      <use x="871.822266" xlink:href="#DejaVuSans-101"/>
      <use x="933.345703" xlink:href="#DejaVuSans-110"/>
      <use x="996.724609" xlink:href="#DejaVuSans-116"/>
     </g>
    </g>
   </g>
  </g>
 </g>
 <defs>
  <clipPath id="p9e8b085524">
   <rect height="361.576" width="661.48" x="47.72" y="28.464"/>
  </clipPath>
 </defs>
</svg>
