<?xml version="1.0" encoding="utf-8" standalone="no"?>
<!DOCTYPE svg PUBLIC "-//W3C//DTD SVG 1.1//EN"
  "http://www.w3.org/Graphics/SVG/1.1/DTD/svg11.dtd">
<!-- Created with matplotlib (https://matplotlib.org/) -->
<svg height="432pt" version="1.1" viewBox="0 0 720 432" width="720pt" xmlns="http://www.w3.org/2000/svg" xmlns:xlink="http://www.w3.org/1999/xlink">
 <metadata>
  <rdf:RDF xmlns:cc="http://creativecommons.org/ns#" xmlns:dc="http://purl.org/dc/elements/1.1/" xmlns:rdf="http://www.w3.org/1999/02/22-rdf-syntax-ns#">
   <cc:Work>
    <dc:type rdf:resource="http://purl.org/dc/dcmitype/StillImage"/>
    <dc:date>2020-10-14T12:16:08.402200</dc:date>
    <dc:format>image/svg+xml</dc:format>
    <dc:creator>
     <cc:Agent>
      <dc:title>Matplotlib v3.3.1, https://matplotlib.org/</dc:title>
     </cc:Agent>
    </dc:creator>
   </cc:Work>
  </rdf:RDF>
 </metadata>
 <defs>
  <style type="text/css">*{stroke-linecap:butt;stroke-linejoin:round;}</style>
 </defs>
 <g id="figure_1">
  <g id="patch_1">
   <path d="M 0 432 
L 720 432 
L 720 0 
L 0 0 
z
" style="fill:#ffffff;"/>
  </g>
  <g id="axes_1">
   <g id="patch_2">
    <path d="M 47.72 390.04 
L 709.2 390.04 
L 709.2 28.464 
L 47.72 28.464 
z
" style="fill:#ffffff;"/>
   </g>
   <g id="matplotlib.axis_1">
    <g id="xtick_1">
     <g id="line2d_1">
      <defs>
       <path d="M 0 0 
L 0 3.5 
" id="m0bc32d94f3" style="stroke:#000000;stroke-width:0.8;"/>
      </defs>
      <g>
       <use style="stroke:#000000;stroke-width:0.8;" x="77.787273" xlink:href="#m0bc32d94f3" y="390.04"/>
      </g>
     </g>
     <g id="text_1">
      <!-- 0 -->
      <g transform="translate(74.606023 404.638438)scale(0.1 -0.1)">
       <defs>
        <path d="M 31.78125 66.40625 
Q 24.171875 66.40625 20.328125 58.90625 
Q 16.5 51.421875 16.5 36.375 
Q 16.5 21.390625 20.328125 13.890625 
Q 24.171875 6.390625 31.78125 6.390625 
Q 39.453125 6.390625 43.28125 13.890625 
Q 47.125 21.390625 47.125 36.375 
Q 47.125 51.421875 43.28125 58.90625 
Q 39.453125 66.40625 31.78125 66.40625 
z
M 31.78125 74.21875 
Q 44.046875 74.21875 50.515625 64.515625 
Q 56.984375 54.828125 56.984375 36.375 
Q 56.984375 17.96875 50.515625 8.265625 
Q 44.046875 -1.421875 31.78125 -1.421875 
Q 19.53125 -1.421875 13.0625 8.265625 
Q 6.59375 17.96875 6.59375 36.375 
Q 6.59375 54.828125 13.0625 64.515625 
Q 19.53125 74.21875 31.78125 74.21875 
z
" id="DejaVuSans-48"/>
       </defs>
       <use xlink:href="#DejaVuSans-48"/>
      </g>
     </g>
    </g>
    <g id="xtick_2">
     <g id="line2d_2">
      <g>
       <use style="stroke:#000000;stroke-width:0.8;" x="198.297384" xlink:href="#m0bc32d94f3" y="390.04"/>
      </g>
     </g>
     <g id="text_2">
      <!-- 100 -->
      <g transform="translate(188.753634 404.638438)scale(0.1 -0.1)">
       <defs>
        <path d="M 12.40625 8.296875 
L 28.515625 8.296875 
L 28.515625 63.921875 
L 10.984375 60.40625 
L 10.984375 69.390625 
L 28.421875 72.90625 
L 38.28125 72.90625 
L 38.28125 8.296875 
L 54.390625 8.296875 
L 54.390625 0 
L 12.40625 0 
z
" id="DejaVuSans-49"/>
       </defs>
       <use xlink:href="#DejaVuSans-49"/>
       <use x="63.623047" xlink:href="#DejaVuSans-48"/>
       <use x="127.246094" xlink:href="#DejaVuSans-48"/>
      </g>
     </g>
    </g>
    <g id="xtick_3">
     <g id="line2d_3">
      <g>
       <use style="stroke:#000000;stroke-width:0.8;" x="318.807495" xlink:href="#m0bc32d94f3" y="390.04"/>
      </g>
     </g>
     <g id="text_3">
      <!-- 200 -->
      <g transform="translate(309.263745 404.638438)scale(0.1 -0.1)">
       <defs>
        <path d="M 19.1875 8.296875 
L 53.609375 8.296875 
L 53.609375 0 
L 7.328125 0 
L 7.328125 8.296875 
Q 12.9375 14.109375 22.625 23.890625 
Q 32.328125 33.6875 34.8125 36.53125 
Q 39.546875 41.84375 41.421875 45.53125 
Q 43.3125 49.21875 43.3125 52.78125 
Q 43.3125 58.59375 39.234375 62.25 
Q 35.15625 65.921875 28.609375 65.921875 
Q 23.96875 65.921875 18.8125 64.3125 
Q 13.671875 62.703125 7.8125 59.421875 
L 7.8125 69.390625 
Q 13.765625 71.78125 18.9375 73 
Q 24.125 74.21875 28.421875 74.21875 
Q 39.75 74.21875 46.484375 68.546875 
Q 53.21875 62.890625 53.21875 53.421875 
Q 53.21875 48.921875 51.53125 44.890625 
Q 49.859375 40.875 45.40625 35.40625 
Q 44.1875 33.984375 37.640625 27.21875 
Q 31.109375 20.453125 19.1875 8.296875 
z
" id="DejaVuSans-50"/>
       </defs>
       <use xlink:href="#DejaVuSans-50"/>
       <use x="63.623047" xlink:href="#DejaVuSans-48"/>
       <use x="127.246094" xlink:href="#DejaVuSans-48"/>
      </g>
     </g>
    </g>
    <g id="xtick_4">
     <g id="line2d_4">
      <g>
       <use style="stroke:#000000;stroke-width:0.8;" x="439.317606" xlink:href="#m0bc32d94f3" y="390.04"/>
      </g>
     </g>
     <g id="text_4">
      <!-- 300 -->
      <g transform="translate(429.773856 404.638438)scale(0.1 -0.1)">
       <defs>
        <path d="M 40.578125 39.3125 
Q 47.65625 37.796875 51.625 33 
Q 55.609375 28.21875 55.609375 21.1875 
Q 55.609375 10.40625 48.1875 4.484375 
Q 40.765625 -1.421875 27.09375 -1.421875 
Q 22.515625 -1.421875 17.65625 -0.515625 
Q 12.796875 0.390625 7.625 2.203125 
L 7.625 11.71875 
Q 11.71875 9.328125 16.59375 8.109375 
Q 21.484375 6.890625 26.8125 6.890625 
Q 36.078125 6.890625 40.9375 10.546875 
Q 45.796875 14.203125 45.796875 21.1875 
Q 45.796875 27.640625 41.28125 31.265625 
Q 36.765625 34.90625 28.71875 34.90625 
L 20.21875 34.90625 
L 20.21875 43.015625 
L 29.109375 43.015625 
Q 36.375 43.015625 40.234375 45.921875 
Q 44.09375 48.828125 44.09375 54.296875 
Q 44.09375 59.90625 40.109375 62.90625 
Q 36.140625 65.921875 28.71875 65.921875 
Q 24.65625 65.921875 20.015625 65.03125 
Q 15.375 64.15625 9.8125 62.3125 
L 9.8125 71.09375 
Q 15.4375 72.65625 20.34375 73.4375 
Q 25.25 74.21875 29.59375 74.21875 
Q 40.828125 74.21875 47.359375 69.109375 
Q 53.90625 64.015625 53.90625 55.328125 
Q 53.90625 49.265625 50.4375 45.09375 
Q 46.96875 40.921875 40.578125 39.3125 
z
" id="DejaVuSans-51"/>
       </defs>
       <use xlink:href="#DejaVuSans-51"/>
       <use x="63.623047" xlink:href="#DejaVuSans-48"/>
       <use x="127.246094" xlink:href="#DejaVuSans-48"/>
      </g>
     </g>
    </g>
    <g id="xtick_5">
     <g id="line2d_5">
      <g>
       <use style="stroke:#000000;stroke-width:0.8;" x="559.827717" xlink:href="#m0bc32d94f3" y="390.04"/>
      </g>
     </g>
     <g id="text_5">
      <!-- 400 -->
      <g transform="translate(550.283967 404.638438)scale(0.1 -0.1)">
       <defs>
        <path d="M 37.796875 64.3125 
L 12.890625 25.390625 
L 37.796875 25.390625 
z
M 35.203125 72.90625 
L 47.609375 72.90625 
L 47.609375 25.390625 
L 58.015625 25.390625 
L 58.015625 17.1875 
L 47.609375 17.1875 
L 47.609375 0 
L 37.796875 0 
L 37.796875 17.1875 
L 4.890625 17.1875 
L 4.890625 26.703125 
z
" id="DejaVuSans-52"/>
       </defs>
       <use xlink:href="#DejaVuSans-52"/>
       <use x="63.623047" xlink:href="#DejaVuSans-48"/>
       <use x="127.246094" xlink:href="#DejaVuSans-48"/>
      </g>
     </g>
    </g>
    <g id="xtick_6">
     <g id="line2d_6">
      <g>
       <use style="stroke:#000000;stroke-width:0.8;" x="680.337828" xlink:href="#m0bc32d94f3" y="390.04"/>
      </g>
     </g>
     <g id="text_6">
      <!-- 500 -->
      <g transform="translate(670.794078 404.638438)scale(0.1 -0.1)">
       <defs>
        <path d="M 10.796875 72.90625 
L 49.515625 72.90625 
L 49.515625 64.59375 
L 19.828125 64.59375 
L 19.828125 46.734375 
Q 21.96875 47.46875 24.109375 47.828125 
Q 26.265625 48.1875 28.421875 48.1875 
Q 40.625 48.1875 47.75 41.5 
Q 54.890625 34.8125 54.890625 23.390625 
Q 54.890625 11.625 47.5625 5.09375 
Q 40.234375 -1.421875 26.90625 -1.421875 
Q 22.3125 -1.421875 17.546875 -0.640625 
Q 12.796875 0.140625 7.71875 1.703125 
L 7.71875 11.625 
Q 12.109375 9.234375 16.796875 8.0625 
Q 21.484375 6.890625 26.703125 6.890625 
Q 35.15625 6.890625 40.078125 11.328125 
Q 45.015625 15.765625 45.015625 23.390625 
Q 45.015625 31 40.078125 35.4375 
Q 35.15625 39.890625 26.703125 39.890625 
Q 22.75 39.890625 18.8125 39.015625 
Q 14.890625 38.140625 10.796875 36.28125 
z
" id="DejaVuSans-53"/>
       </defs>
       <use xlink:href="#DejaVuSans-53"/>
       <use x="63.623047" xlink:href="#DejaVuSans-48"/>
       <use x="127.246094" xlink:href="#DejaVuSans-48"/>
      </g>
     </g>
    </g>
    <g id="text_7">
     <!-- MC iterations -->
     <g transform="translate(345.338125 418.316562)scale(0.1 -0.1)">
      <defs>
       <path d="M 9.8125 72.90625 
L 24.515625 72.90625 
L 43.109375 23.296875 
L 61.8125 72.90625 
L 76.515625 72.90625 
L 76.515625 0 
L 66.890625 0 
L 66.890625 64.015625 
L 48.09375 14.015625 
L 38.1875 14.015625 
L 19.390625 64.015625 
L 19.390625 0 
L 9.8125 0 
z
" id="DejaVuSans-77"/>
       <path d="M 64.40625 67.28125 
L 64.40625 56.890625 
Q 59.421875 61.53125 53.78125 63.8125 
Q 48.140625 66.109375 41.796875 66.109375 
Q 29.296875 66.109375 22.65625 58.46875 
Q 16.015625 50.828125 16.015625 36.375 
Q 16.015625 21.96875 22.65625 14.328125 
Q 29.296875 6.6875 41.796875 6.6875 
Q 48.140625 6.6875 53.78125 8.984375 
Q 59.421875 11.28125 64.40625 15.921875 
L 64.40625 5.609375 
Q 59.234375 2.09375 53.4375 0.328125 
Q 47.65625 -1.421875 41.21875 -1.421875 
Q 24.65625 -1.421875 15.125 8.703125 
Q 5.609375 18.84375 5.609375 36.375 
Q 5.609375 53.953125 15.125 64.078125 
Q 24.65625 74.21875 41.21875 74.21875 
Q 47.75 74.21875 53.53125 72.484375 
Q 59.328125 70.75 64.40625 67.28125 
z
" id="DejaVuSans-67"/>
       <path id="DejaVuSans-32"/>
       <path d="M 9.421875 54.6875 
L 18.40625 54.6875 
L 18.40625 0 
L 9.421875 0 
z
M 9.421875 75.984375 
L 18.40625 75.984375 
L 18.40625 64.59375 
L 9.421875 64.59375 
z
" id="DejaVuSans-105"/>
       <path d="M 18.3125 70.21875 
L 18.3125 54.6875 
L 36.8125 54.6875 
L 36.8125 47.703125 
L 18.3125 47.703125 
L 18.3125 18.015625 
Q 18.3125 11.328125 20.140625 9.421875 
Q 21.96875 7.515625 27.59375 7.515625 
L 36.8125 7.515625 
L 36.8125 0 
L 27.59375 0 
Q 17.1875 0 13.234375 3.875 
Q 9.28125 7.765625 9.28125 18.015625 
L 9.28125 47.703125 
L 2.6875 47.703125 
L 2.6875 54.6875 
L 9.28125 54.6875 
L 9.28125 70.21875 
z
" id="DejaVuSans-116"/>
       <path d="M 56.203125 29.59375 
L 56.203125 25.203125 
L 14.890625 25.203125 
Q 15.484375 15.921875 20.484375 11.0625 
Q 25.484375 6.203125 34.421875 6.203125 
Q 39.59375 6.203125 44.453125 7.46875 
Q 49.3125 8.734375 54.109375 11.28125 
L 54.109375 2.78125 
Q 49.265625 0.734375 44.1875 -0.34375 
Q 39.109375 -1.421875 33.890625 -1.421875 
Q 20.796875 -1.421875 13.15625 6.1875 
Q 5.515625 13.8125 5.515625 26.8125 
Q 5.515625 40.234375 12.765625 48.109375 
Q 20.015625 56 32.328125 56 
Q 43.359375 56 49.78125 48.890625 
Q 56.203125 41.796875 56.203125 29.59375 
z
M 47.21875 32.234375 
Q 47.125 39.59375 43.09375 43.984375 
Q 39.0625 48.390625 32.421875 48.390625 
Q 24.90625 48.390625 20.390625 44.140625 
Q 15.875 39.890625 15.1875 32.171875 
z
" id="DejaVuSans-101"/>
       <path d="M 41.109375 46.296875 
Q 39.59375 47.171875 37.8125 47.578125 
Q 36.03125 48 33.890625 48 
Q 26.265625 48 22.1875 43.046875 
Q 18.109375 38.09375 18.109375 28.8125 
L 18.109375 0 
L 9.078125 0 
L 9.078125 54.6875 
L 18.109375 54.6875 
L 18.109375 46.1875 
Q 20.953125 51.171875 25.484375 53.578125 
Q 30.03125 56 36.53125 56 
Q 37.453125 56 38.578125 55.875 
Q 39.703125 55.765625 41.0625 55.515625 
z
" id="DejaVuSans-114"/>
       <path d="M 34.28125 27.484375 
Q 23.390625 27.484375 19.1875 25 
Q 14.984375 22.515625 14.984375 16.5 
Q 14.984375 11.71875 18.140625 8.90625 
Q 21.296875 6.109375 26.703125 6.109375 
Q 34.1875 6.109375 38.703125 11.40625 
Q 43.21875 16.703125 43.21875 25.484375 
L 43.21875 27.484375 
z
M 52.203125 31.203125 
L 52.203125 0 
L 43.21875 0 
L 43.21875 8.296875 
Q 40.140625 3.328125 35.546875 0.953125 
Q 30.953125 -1.421875 24.3125 -1.421875 
Q 15.921875 -1.421875 10.953125 3.296875 
Q 6 8.015625 6 15.921875 
Q 6 25.140625 12.171875 29.828125 
Q 18.359375 34.515625 30.609375 34.515625 
L 43.21875 34.515625 
L 43.21875 35.40625 
Q 43.21875 41.609375 39.140625 45 
Q 35.0625 48.390625 27.6875 48.390625 
Q 23 48.390625 18.546875 47.265625 
Q 14.109375 46.140625 10.015625 43.890625 
L 10.015625 52.203125 
Q 14.9375 54.109375 19.578125 55.046875 
Q 24.21875 56 28.609375 56 
Q 40.484375 56 46.34375 49.84375 
Q 52.203125 43.703125 52.203125 31.203125 
z
" id="DejaVuSans-97"/>
       <path d="M 30.609375 48.390625 
Q 23.390625 48.390625 19.1875 42.75 
Q 14.984375 37.109375 14.984375 27.296875 
Q 14.984375 17.484375 19.15625 11.84375 
Q 23.34375 6.203125 30.609375 6.203125 
Q 37.796875 6.203125 41.984375 11.859375 
Q 46.1875 17.53125 46.1875 27.296875 
Q 46.1875 37.015625 41.984375 42.703125 
Q 37.796875 48.390625 30.609375 48.390625 
z
M 30.609375 56 
Q 42.328125 56 49.015625 48.375 
Q 55.71875 40.765625 55.71875 27.296875 
Q 55.71875 13.875 49.015625 6.21875 
Q 42.328125 -1.421875 30.609375 -1.421875 
Q 18.84375 -1.421875 12.171875 6.21875 
Q 5.515625 13.875 5.515625 27.296875 
Q 5.515625 40.765625 12.171875 48.375 
Q 18.84375 56 30.609375 56 
z
" id="DejaVuSans-111"/>
       <path d="M 54.890625 33.015625 
L 54.890625 0 
L 45.90625 0 
L 45.90625 32.71875 
Q 45.90625 40.484375 42.875 44.328125 
Q 39.84375 48.1875 33.796875 48.1875 
Q 26.515625 48.1875 22.3125 43.546875 
Q 18.109375 38.921875 18.109375 30.90625 
L 18.109375 0 
L 9.078125 0 
L 9.078125 54.6875 
L 18.109375 54.6875 
L 18.109375 46.1875 
Q 21.34375 51.125 25.703125 53.5625 
Q 30.078125 56 35.796875 56 
Q 45.21875 56 50.046875 50.171875 
Q 54.890625 44.34375 54.890625 33.015625 
z
" id="DejaVuSans-110"/>
       <path d="M 44.28125 53.078125 
L 44.28125 44.578125 
Q 40.484375 46.53125 36.375 47.5 
Q 32.28125 48.484375 27.875 48.484375 
Q 21.1875 48.484375 17.84375 46.4375 
Q 14.5 44.390625 14.5 40.28125 
Q 14.5 37.15625 16.890625 35.375 
Q 19.28125 33.59375 26.515625 31.984375 
L 29.59375 31.296875 
Q 39.15625 29.25 43.1875 25.515625 
Q 47.21875 21.78125 47.21875 15.09375 
Q 47.21875 7.46875 41.1875 3.015625 
Q 35.15625 -1.421875 24.609375 -1.421875 
Q 20.21875 -1.421875 15.453125 -0.5625 
Q 10.6875 0.296875 5.421875 2 
L 5.421875 11.28125 
Q 10.40625 8.6875 15.234375 7.390625 
Q 20.0625 6.109375 24.8125 6.109375 
Q 31.15625 6.109375 34.5625 8.28125 
Q 37.984375 10.453125 37.984375 14.40625 
Q 37.984375 18.0625 35.515625 20.015625 
Q 33.0625 21.96875 24.703125 23.78125 
L 21.578125 24.515625 
Q 13.234375 26.265625 9.515625 29.90625 
Q 5.8125 33.546875 5.8125 39.890625 
Q 5.8125 47.609375 11.28125 51.796875 
Q 16.75 56 26.8125 56 
Q 31.78125 56 36.171875 55.265625 
Q 40.578125 54.546875 44.28125 53.078125 
z
" id="DejaVuSans-115"/>
      </defs>
      <use xlink:href="#DejaVuSans-77"/>
      <use x="86.279297" xlink:href="#DejaVuSans-67"/>
      <use x="156.103516" xlink:href="#DejaVuSans-32"/>
      <use x="187.890625" xlink:href="#DejaVuSans-105"/>
      <use x="215.673828" xlink:href="#DejaVuSans-116"/>
      <use x="254.882812" xlink:href="#DejaVuSans-101"/>
      <use x="316.40625" xlink:href="#DejaVuSans-114"/>
      <use x="357.519531" xlink:href="#DejaVuSans-97"/>
      <use x="418.798828" xlink:href="#DejaVuSans-116"/>
      <use x="458.007812" xlink:href="#DejaVuSans-105"/>
      <use x="485.791016" xlink:href="#DejaVuSans-111"/>
      <use x="546.972656" xlink:href="#DejaVuSans-110"/>
      <use x="610.351562" xlink:href="#DejaVuSans-115"/>
     </g>
    </g>
   </g>
   <g id="matplotlib.axis_2">
    <g id="ytick_1">
     <g id="line2d_7">
      <defs>
       <path d="M 0 0 
L -3.5 0 
" id="mbdf961da0b" style="stroke:#000000;stroke-width:0.8;"/>
      </defs>
      <g>
       <use style="stroke:#000000;stroke-width:0.8;" x="47.72" xlink:href="#mbdf961da0b" y="390.04"/>
      </g>
     </g>
     <g id="text_8">
      <!-- 2.5 -->
      <g transform="translate(24.816875 393.839219)scale(0.1 -0.1)">
       <defs>
        <path d="M 10.6875 12.40625 
L 21 12.40625 
L 21 0 
L 10.6875 0 
z
" id="DejaVuSans-46"/>
       </defs>
       <use xlink:href="#DejaVuSans-50"/>
       <use x="63.623047" xlink:href="#DejaVuSans-46"/>
       <use x="95.410156" xlink:href="#DejaVuSans-53"/>
      </g>
     </g>
    </g>
    <g id="ytick_2">
     <g id="line2d_8">
      <g>
       <use style="stroke:#000000;stroke-width:0.8;" x="47.72" xlink:href="#mbdf961da0b" y="344.843"/>
      </g>
     </g>
     <g id="text_9">
      <!-- 3.0 -->
      <g transform="translate(24.816875 348.642219)scale(0.1 -0.1)">
       <use xlink:href="#DejaVuSans-51"/>
       <use x="63.623047" xlink:href="#DejaVuSans-46"/>
       <use x="95.410156" xlink:href="#DejaVuSans-48"/>
      </g>
     </g>
    </g>
    <g id="ytick_3">
     <g id="line2d_9">
      <g>
       <use style="stroke:#000000;stroke-width:0.8;" x="47.72" xlink:href="#mbdf961da0b" y="299.646"/>
      </g>
     </g>
     <g id="text_10">
      <!-- 3.5 -->
      <g transform="translate(24.816875 303.445219)scale(0.1 -0.1)">
       <use xlink:href="#DejaVuSans-51"/>
       <use x="63.623047" xlink:href="#DejaVuSans-46"/>
       <use x="95.410156" xlink:href="#DejaVuSans-53"/>
      </g>
     </g>
    </g>
    <g id="ytick_4">
     <g id="line2d_10">
      <g>
       <use style="stroke:#000000;stroke-width:0.8;" x="47.72" xlink:href="#mbdf961da0b" y="254.449"/>
      </g>
     </g>
     <g id="text_11">
      <!-- 4.0 -->
      <g transform="translate(24.816875 258.248219)scale(0.1 -0.1)">
       <use xlink:href="#DejaVuSans-52"/>
       <use x="63.623047" xlink:href="#DejaVuSans-46"/>
       <use x="95.410156" xlink:href="#DejaVuSans-48"/>
      </g>
     </g>
    </g>
    <g id="ytick_5">
     <g id="line2d_11">
      <g>
       <use style="stroke:#000000;stroke-width:0.8;" x="47.72" xlink:href="#mbdf961da0b" y="209.252"/>
      </g>
     </g>
     <g id="text_12">
      <!-- 4.5 -->
      <g transform="translate(24.816875 213.051219)scale(0.1 -0.1)">
       <use xlink:href="#DejaVuSans-52"/>
       <use x="63.623047" xlink:href="#DejaVuSans-46"/>
       <use x="95.410156" xlink:href="#DejaVuSans-53"/>
      </g>
     </g>
    </g>
    <g id="ytick_6">
     <g id="line2d_12">
      <g>
       <use style="stroke:#000000;stroke-width:0.8;" x="47.72" xlink:href="#mbdf961da0b" y="164.055"/>
      </g>
     </g>
     <g id="text_13">
      <!-- 5.0 -->
      <g transform="translate(24.816875 167.854219)scale(0.1 -0.1)">
       <use xlink:href="#DejaVuSans-53"/>
       <use x="63.623047" xlink:href="#DejaVuSans-46"/>
       <use x="95.410156" xlink:href="#DejaVuSans-48"/>
      </g>
     </g>
    </g>
    <g id="ytick_7">
     <g id="line2d_13">
      <g>
       <use style="stroke:#000000;stroke-width:0.8;" x="47.72" xlink:href="#mbdf961da0b" y="118.858"/>
      </g>
     </g>
     <g id="text_14">
      <!-- 5.5 -->
      <g transform="translate(24.816875 122.657219)scale(0.1 -0.1)">
       <use xlink:href="#DejaVuSans-53"/>
       <use x="63.623047" xlink:href="#DejaVuSans-46"/>
       <use x="95.410156" xlink:href="#DejaVuSans-53"/>
      </g>
     </g>
    </g>
    <g id="ytick_8">
     <g id="line2d_14">
      <g>
       <use style="stroke:#000000;stroke-width:0.8;" x="47.72" xlink:href="#mbdf961da0b" y="73.661"/>
      </g>
     </g>
     <g id="text_15">
      <!-- 6.0 -->
      <g transform="translate(24.816875 77.460219)scale(0.1 -0.1)">
       <defs>
        <path d="M 33.015625 40.375 
Q 26.375 40.375 22.484375 35.828125 
Q 18.609375 31.296875 18.609375 23.390625 
Q 18.609375 15.53125 22.484375 10.953125 
Q 26.375 6.390625 33.015625 6.390625 
Q 39.65625 6.390625 43.53125 10.953125 
Q 47.40625 15.53125 47.40625 23.390625 
Q 47.40625 31.296875 43.53125 35.828125 
Q 39.65625 40.375 33.015625 40.375 
z
M 52.59375 71.296875 
L 52.59375 62.3125 
Q 48.875 64.0625 45.09375 64.984375 
Q 41.3125 65.921875 37.59375 65.921875 
Q 27.828125 65.921875 22.671875 59.328125 
Q 17.53125 52.734375 16.796875 39.40625 
Q 19.671875 43.65625 24.015625 45.921875 
Q 28.375 48.1875 33.59375 48.1875 
Q 44.578125 48.1875 50.953125 41.515625 
Q 57.328125 34.859375 57.328125 23.390625 
Q 57.328125 12.15625 50.6875 5.359375 
Q 44.046875 -1.421875 33.015625 -1.421875 
Q 20.359375 -1.421875 13.671875 8.265625 
Q 6.984375 17.96875 6.984375 36.375 
Q 6.984375 53.65625 15.1875 63.9375 
Q 23.390625 74.21875 37.203125 74.21875 
Q 40.921875 74.21875 44.703125 73.484375 
Q 48.484375 72.75 52.59375 71.296875 
z
" id="DejaVuSans-54"/>
       </defs>
       <use xlink:href="#DejaVuSans-54"/>
       <use x="63.623047" xlink:href="#DejaVuSans-46"/>
       <use x="95.410156" xlink:href="#DejaVuSans-48"/>
      </g>
     </g>
    </g>
    <g id="ytick_9">
     <g id="line2d_15">
      <g>
       <use style="stroke:#000000;stroke-width:0.8;" x="47.72" xlink:href="#mbdf961da0b" y="28.464"/>
      </g>
     </g>
     <g id="text_16">
      <!-- 6.5 -->
      <g transform="translate(24.816875 32.263219)scale(0.1 -0.1)">
       <use xlink:href="#DejaVuSans-54"/>
       <use x="63.623047" xlink:href="#DejaVuSans-46"/>
       <use x="95.410156" xlink:href="#DejaVuSans-53"/>
      </g>
     </g>
    </g>
    <g id="text_17">
     <!-- ANEES -->
     <g transform="translate(18.737188 225.905906)rotate(-90)scale(0.1 -0.1)">
      <defs>
       <path d="M 34.1875 63.1875 
L 20.796875 26.90625 
L 47.609375 26.90625 
z
M 28.609375 72.90625 
L 39.796875 72.90625 
L 67.578125 0 
L 57.328125 0 
L 50.6875 18.703125 
L 17.828125 18.703125 
L 11.1875 0 
L 0.78125 0 
z
" id="DejaVuSans-65"/>
       <path d="M 9.8125 72.90625 
L 23.09375 72.90625 
L 55.421875 11.921875 
L 55.421875 72.90625 
L 64.984375 72.90625 
L 64.984375 0 
L 51.703125 0 
L 19.390625 60.984375 
L 19.390625 0 
L 9.8125 0 
z
" id="DejaVuSans-78"/>
       <path d="M 9.8125 72.90625 
L 55.90625 72.90625 
L 55.90625 64.59375 
L 19.671875 64.59375 
L 19.671875 43.015625 
L 54.390625 43.015625 
L 54.390625 34.71875 
L 19.671875 34.71875 
L 19.671875 8.296875 
L 56.78125 8.296875 
L 56.78125 0 
L 9.8125 0 
z
" id="DejaVuSans-69"/>
       <path d="M 53.515625 70.515625 
L 53.515625 60.890625 
Q 47.90625 63.578125 42.921875 64.890625 
Q 37.9375 66.21875 33.296875 66.21875 
Q 25.25 66.21875 20.875 63.09375 
Q 16.5 59.96875 16.5 54.203125 
Q 16.5 49.359375 19.40625 46.890625 
Q 22.3125 44.4375 30.421875 42.921875 
L 36.375 41.703125 
Q 47.40625 39.59375 52.65625 34.296875 
Q 57.90625 29 57.90625 20.125 
Q 57.90625 9.515625 50.796875 4.046875 
Q 43.703125 -1.421875 29.984375 -1.421875 
Q 24.8125 -1.421875 18.96875 -0.25 
Q 13.140625 0.921875 6.890625 3.21875 
L 6.890625 13.375 
Q 12.890625 10.015625 18.65625 8.296875 
Q 24.421875 6.59375 29.984375 6.59375 
Q 38.421875 6.59375 43.015625 9.90625 
Q 47.609375 13.234375 47.609375 19.390625 
Q 47.609375 24.75 44.3125 27.78125 
Q 41.015625 30.8125 33.5 32.328125 
L 27.484375 33.5 
Q 16.453125 35.6875 11.515625 40.375 
Q 6.59375 45.0625 6.59375 53.421875 
Q 6.59375 63.09375 13.40625 68.65625 
Q 20.21875 74.21875 32.171875 74.21875 
Q 37.3125 74.21875 42.625 73.28125 
Q 47.953125 72.359375 53.515625 70.515625 
z
" id="DejaVuSans-83"/>
      </defs>
      <use xlink:href="#DejaVuSans-65"/>
      <use x="68.408203" xlink:href="#DejaVuSans-78"/>
      <use x="143.212891" xlink:href="#DejaVuSans-69"/>
      <use x="206.396484" xlink:href="#DejaVuSans-69"/>
      <use x="269.580078" xlink:href="#DejaVuSans-83"/>
     </g>
    </g>
   </g>
   <g id="line2d_16">
    <path clip-path="url(#p05e5158fea)" d="M 77.787273 357.709805 
L 78.992374 329.317719 
L 80.197475 316.242562 
L 81.402576 308.304609 
L 82.607677 302.826273 
L 83.812778 298.750605 
L 85.017879 295.564442 
L 86.222981 292.984363 
L 87.428082 290.839294 
L 88.633183 289.019013 
L 89.838284 287.448857 
L 92.248486 284.862753 
L 94.658688 282.805634 
L 97.068891 281.1184 
L 99.479093 279.701838 
L 101.889295 278.490425 
L 105.504598 276.962617 
L 109.119902 275.694492 
L 113.940306 274.296453 
L 118.760711 273.143367 
L 124.786216 271.950894 
L 132.016823 270.783189 
L 140.452531 269.678285 
L 150.093339 268.654858 
L 162.144351 267.626072 
L 176.605564 266.644775 
L 193.476979 265.737586 
L 213.963698 264.868282 
L 239.270822 264.029282 
L 270.603451 263.226598 
L 309.166686 262.470191 
L 357.370731 261.752924 
L 418.830887 261.067836 
L 498.367561 260.413905 
L 602.006256 259.79563 
L 679.132727 259.44295 
L 679.132727 259.44295 
" style="fill:none;stroke:#000000;stroke-linecap:square;stroke-width:1.5;"/>
   </g>
   <g id="line2d_17">
    <path clip-path="url(#p05e5158fea)" d="M 77.787273 134.095862 
L 78.992374 171.026316 
L 80.197475 186.951071 
L 81.402576 196.314472 
L 82.607677 202.648283 
L 83.812778 207.294353 
L 85.017879 210.887989 
L 86.222981 213.773695 
L 87.428082 216.156487 
L 88.633183 218.166956 
L 89.838284 219.892725 
L 91.043385 221.395059 
L 93.453587 223.895195 
L 95.863789 225.904917 
L 98.273992 227.565822 
L 100.684194 228.968223 
L 103.094396 230.172784 
L 106.709699 231.698222 
L 110.325003 232.969159 
L 115.145407 234.374725 
L 119.965812 235.537074 
L 125.991317 236.741618 
L 133.221924 237.923214 
L 141.657632 239.042796 
L 151.298441 240.08086 
L 163.349452 241.125096 
L 176.605564 242.046924 
L 193.476979 242.983887 
L 213.963698 243.879516 
L 238.065721 244.70549 
L 268.193248 245.509014 
L 305.551383 246.274962 
L 352.550326 247.007112 
L 412.805382 247.710018 
L 489.931853 248.373865 
L 589.955245 249.000017 
L 679.132727 249.420803 
L 679.132727 249.420803 
" style="fill:none;stroke:#000000;stroke-linecap:square;stroke-width:1.5;"/>
   </g>
   <g id="line2d_18">
    <path clip-path="url(#p05e5158fea)" d="M 77.787273 105.24899 
L 78.992374 182.025783 
L 80.197475 148.937576 
L 81.402576 122.742296 
L 82.607677 131.942842 
L 83.812778 124.411209 
L 85.017879 122.345093 
L 86.222981 136.122762 
L 87.428082 119.285532 
L 88.633183 118.882268 
L 89.838284 123.747354 
L 91.043385 140.410131 
L 92.248486 129.308074 
L 93.453587 139.001599 
L 94.658688 128.137598 
L 95.863789 132.860897 
L 97.068891 135.149755 
L 98.273992 125.042947 
L 99.479093 130.279255 
L 100.684194 141.543162 
L 101.889295 145.157707 
L 103.094396 145.893834 
L 104.299497 139.941607 
L 105.504598 144.098725 
L 106.709699 145.685396 
L 107.914801 138.428644 
L 109.119902 134.701279 
L 110.325003 140.475551 
L 111.530104 140.19136 
L 112.735205 133.030569 
L 113.940306 129.675059 
L 115.145407 125.492039 
L 116.350508 125.648191 
L 117.555609 126.195136 
L 118.760711 129.037402 
L 119.965812 122.644792 
L 121.170913 122.357212 
L 122.376014 122.548524 
L 123.581115 121.620727 
L 124.786216 120.547624 
L 125.991317 123.619689 
L 127.196418 125.745553 
L 128.401519 130.318706 
L 129.606621 132.438283 
L 130.811722 131.328154 
L 132.016823 132.88662 
L 133.221924 127.99346 
L 134.427025 129.454341 
L 135.632126 132.545311 
L 136.837227 131.491962 
L 138.042328 129.23444 
L 139.247429 131.011581 
L 140.452531 135.381678 
L 141.657632 133.194747 
L 142.862733 133.917116 
L 144.067834 135.019458 
L 145.272935 135.354117 
L 146.478036 130.951804 
L 147.683137 132.780166 
L 148.888238 130.255286 
L 150.093339 128.022279 
L 151.298441 124.935622 
L 152.503542 124.534455 
L 153.708643 122.874121 
L 154.913744 119.965873 
L 156.118845 120.509671 
L 157.323946 120.09679 
L 158.529047 120.115573 
L 159.734148 119.389775 
L 160.939249 121.006937 
L 162.144351 122.327877 
L 163.349452 123.897276 
L 164.554553 123.512838 
L 165.759654 124.113789 
L 166.964755 126.620854 
L 168.169856 126.779944 
L 169.374957 128.621883 
L 170.580058 126.751274 
L 171.785159 126.608733 
L 172.990261 125.344616 
L 174.195362 125.045966 
L 175.400463 126.853869 
L 176.605564 127.430095 
L 177.810665 129.918137 
L 179.015766 129.062661 
L 180.220867 130.796406 
L 181.425968 131.779265 
L 182.631069 134.459054 
L 183.836171 132.412253 
L 185.041272 131.694932 
L 187.451474 125.91021 
L 188.656575 127.396109 
L 189.861676 127.535951 
L 191.066777 128.950498 
L 193.476979 132.945147 
L 194.682081 134.692736 
L 195.887182 135.940076 
L 197.092283 137.474354 
L 199.502485 138.24186 
L 200.707586 132.951369 
L 201.912687 132.707834 
L 204.322889 134.501699 
L 205.527991 134.304055 
L 206.733092 133.744698 
L 207.938193 133.385024 
L 209.143294 133.323139 
L 210.348395 134.82464 
L 211.553496 135.124101 
L 212.758597 136.768447 
L 213.963698 135.078776 
L 215.168799 135.075564 
L 216.373901 136.39406 
L 217.579002 136.542573 
L 218.784103 137.55639 
L 219.989204 135.435339 
L 221.194305 135.133491 
L 222.399406 135.01371 
L 224.809608 133.878323 
L 226.014709 133.656194 
L 227.219811 135.705219 
L 228.424912 136.335259 
L 229.630013 136.265771 
L 232.040215 138.352669 
L 233.245316 137.787673 
L 234.450417 138.575574 
L 235.655518 139.030216 
L 236.860619 138.161932 
L 241.681024 141.8259 
L 242.886125 141.535484 
L 244.091226 139.043157 
L 245.296327 137.720145 
L 246.501428 138.27528 
L 247.706529 138.524107 
L 248.911631 135.450053 
L 250.116732 134.463226 
L 251.321833 135.816532 
L 252.526934 136.277427 
L 254.937136 136.655343 
L 256.142237 135.170981 
L 258.552439 135.167765 
L 259.757541 134.507718 
L 260.962642 134.823298 
L 262.167743 136.066692 
L 263.372844 136.04564 
L 264.577945 136.635926 
L 265.783046 135.648697 
L 266.988147 136.024283 
L 268.193248 135.336031 
L 269.398349 135.921084 
L 270.603451 136.164774 
L 271.808552 136.080075 
L 274.218754 136.305933 
L 275.423855 136.825877 
L 276.628956 136.641248 
L 277.834057 137.335642 
L 279.039158 137.005213 
L 280.244259 135.986838 
L 281.449361 135.287549 
L 282.654462 135.096024 
L 283.859563 136.532073 
L 285.064664 136.454775 
L 286.269765 136.189679 
L 287.474866 137.056425 
L 288.679967 136.207581 
L 291.090169 136.098618 
L 292.295271 136.644902 
L 293.500372 135.422855 
L 294.705473 135.409998 
L 295.910574 136.396459 
L 297.115675 136.529265 
L 298.320776 137.104583 
L 299.525877 135.038965 
L 300.730978 135.122122 
L 301.936079 135.842035 
L 303.141181 135.763107 
L 304.346282 136.217082 
L 305.551383 135.938802 
L 306.756484 134.68859 
L 307.961585 134.305819 
L 309.166686 133.488892 
L 310.371787 133.658841 
L 311.576888 133.668731 
L 312.781989 132.833964 
L 313.987091 132.627031 
L 315.192192 132.060616 
L 316.397293 131.954066 
L 317.602394 132.426002 
L 318.807495 132.014295 
L 320.012596 132.432144 
L 321.217697 133.12508 
L 322.422798 132.204901 
L 323.627899 131.883228 
L 324.833001 131.967276 
L 326.038102 131.690424 
L 329.653405 132.93536 
L 330.858506 132.601387 
L 333.268708 134.217791 
L 334.473809 134.652637 
L 335.678911 134.950536 
L 336.884012 135.113932 
L 338.089113 134.735595 
L 340.499315 134.857651 
L 341.704416 135.0933 
L 342.909517 134.841428 
L 344.114618 133.537886 
L 345.319719 133.724251 
L 346.524821 133.310127 
L 347.729922 132.278153 
L 348.935023 131.963762 
L 350.140124 132.383809 
L 351.345225 132.185142 
L 352.550326 131.483406 
L 353.755427 132.345944 
L 354.960528 131.518984 
L 356.165629 130.964791 
L 357.370731 131.39885 
L 358.575832 131.433955 
L 359.780933 130.164018 
L 360.986034 131.147513 
L 362.191135 131.441554 
L 363.396236 132.262336 
L 364.601337 132.573372 
L 365.806438 131.86814 
L 367.011539 130.638342 
L 368.216641 130.390286 
L 369.421742 129.83724 
L 371.831944 129.840321 
L 373.037045 129.555134 
L 374.242146 128.485794 
L 375.447247 128.972655 
L 377.857449 129.48725 
L 379.062551 129.518742 
L 380.267652 128.24212 
L 381.472753 128.253254 
L 382.677854 128.623832 
L 383.882955 127.663953 
L 386.293157 127.933432 
L 387.498258 127.386699 
L 388.703359 126.685726 
L 389.908461 127.648315 
L 391.113562 127.836516 
L 392.318663 127.826318 
L 393.523764 128.736766 
L 394.728865 128.512903 
L 395.933966 128.502314 
L 397.139067 127.339044 
L 398.344168 127.967134 
L 399.549269 128.445924 
L 400.754371 128.4583 
L 403.164573 129.374588 
L 404.369674 129.763634 
L 405.574775 129.642386 
L 406.779876 129.71608 
L 407.984977 130.09417 
L 409.190078 129.163118 
L 410.395179 129.724437 
L 411.600281 129.020109 
L 412.805382 128.820798 
L 414.010483 127.402799 
L 415.215584 127.405351 
L 416.420685 126.945468 
L 417.625786 127.121561 
L 420.035988 127.179483 
L 421.241089 125.82606 
L 422.446191 125.687458 
L 423.651292 125.83085 
L 424.856393 125.77402 
L 426.061494 126.383523 
L 427.266595 126.174124 
L 428.471696 126.280228 
L 429.676797 125.311148 
L 430.881898 126.0178 
L 432.086999 125.850633 
L 433.292101 124.525637 
L 434.497202 124.217196 
L 435.702303 123.537556 
L 438.112505 123.39461 
L 439.317606 123.791494 
L 441.727808 123.31996 
L 442.932909 123.532607 
L 444.138011 123.452867 
L 445.343112 123.591094 
L 446.548213 123.092508 
L 447.753314 122.845835 
L 448.958415 123.712849 
L 450.163516 123.629828 
L 451.368617 123.841122 
L 453.778819 123.575887 
L 454.983921 124.190358 
L 456.189022 124.126084 
L 457.394123 123.25915 
L 458.599224 123.926981 
L 459.804325 123.6631 
L 461.009426 123.161062 
L 462.214527 123.714242 
L 465.829831 124.757378 
L 468.240033 125.665474 
L 471.855336 125.370916 
L 473.060437 125.630482 
L 474.265538 125.351645 
L 475.470639 125.774487 
L 476.675741 126.32372 
L 477.880842 126.725408 
L 479.085943 126.998845 
L 480.291044 127.463228 
L 481.496145 127.778241 
L 483.906347 127.497465 
L 486.316549 127.828464 
L 488.726752 126.668995 
L 489.931853 126.204355 
L 491.136954 126.828331 
L 492.342055 127.066097 
L 493.547156 127.483496 
L 494.752257 127.240697 
L 495.957358 127.437243 
L 497.162459 127.507958 
L 499.572662 127.259161 
L 500.777763 127.188734 
L 501.982864 127.406073 
L 503.187965 126.966114 
L 504.393066 127.278955 
L 505.598167 127.340864 
L 506.803268 127.006585 
L 508.008369 125.638108 
L 509.213471 125.817555 
L 510.418572 125.602459 
L 511.623673 125.684488 
L 512.828774 125.049444 
L 515.238976 125.614422 
L 516.444077 125.6008 
L 517.649178 125.98954 
L 518.854279 124.973805 
L 520.059381 124.661875 
L 521.264482 124.993564 
L 522.469583 124.176245 
L 524.879785 123.705146 
L 526.084886 124.142775 
L 528.495088 124.346846 
L 529.700189 124.177356 
L 530.905291 123.783345 
L 532.110392 122.944241 
L 533.315493 123.010146 
L 534.520594 123.245862 
L 535.725695 123.142715 
L 536.930796 122.873837 
L 540.546099 122.94069 
L 542.956302 122.936129 
L 544.161403 122.605235 
L 545.366504 122.597884 
L 546.571605 122.465672 
L 547.776706 122.735779 
L 548.981807 122.613996 
L 550.186908 122.992408 
L 551.392009 122.751489 
L 553.802212 122.515912 
L 557.417515 123.046792 
L 558.622616 122.577505 
L 559.827717 121.975587 
L 561.032818 122.179573 
L 562.237919 122.055723 
L 564.648122 121.280379 
L 565.853223 121.646348 
L 567.058324 122.19526 
L 568.263425 121.748093 
L 569.468526 121.959297 
L 570.673627 122.3837 
L 571.878728 122.058732 
L 573.083829 122.440416 
L 574.288931 121.566109 
L 575.494032 120.919099 
L 576.699133 121.309481 
L 577.904234 121.113211 
L 579.109335 121.453064 
L 582.724638 121.852266 
L 583.929739 122.126635 
L 586.339942 122.038746 
L 587.545043 121.712357 
L 588.750144 121.62644 
L 589.955245 122.026374 
L 591.160346 121.568151 
L 592.365447 121.711594 
L 593.570548 122.059193 
L 594.775649 122.038773 
L 595.980751 122.203801 
L 598.390953 122.955434 
L 599.596054 123.063989 
L 600.801155 123.286349 
L 602.006256 123.704251 
L 603.211357 123.935408 
L 604.416458 123.811913 
L 605.621559 124.085832 
L 606.826661 124.566701 
L 608.031762 124.925788 
L 609.236863 124.540976 
L 611.647065 124.271014 
L 612.852166 124.375726 
L 614.057267 124.733413 
L 615.262368 124.079991 
L 616.467469 124.121279 
L 617.672571 124.570314 
L 618.877672 123.924705 
L 620.082773 124.078428 
L 621.287874 123.885232 
L 622.492975 123.927735 
L 623.698076 123.821693 
L 624.903177 123.538785 
L 628.518481 124.282819 
L 629.723582 124.149086 
L 630.928683 124.37326 
L 632.133784 123.715439 
L 634.543986 124.332823 
L 636.954188 124.095279 
L 638.159289 123.747911 
L 639.364391 123.546329 
L 640.569492 123.031917 
L 641.774593 123.573032 
L 645.389896 123.425533 
L 646.594997 123.686667 
L 647.800098 123.585966 
L 649.005199 123.704899 
L 650.210301 123.334963 
L 652.620503 122.892016 
L 655.030705 122.860987 
L 656.235806 123.319592 
L 657.440907 123.614971 
L 658.646008 123.336604 
L 659.851109 123.361638 
L 661.056211 123.727066 
L 662.261312 123.772223 
L 663.466413 124.008504 
L 664.671514 124.120663 
L 665.876615 123.719288 
L 667.081716 123.569343 
L 668.286817 123.994092 
L 669.491918 123.527611 
L 670.697019 123.492574 
L 671.902121 123.151323 
L 673.107222 123.539106 
L 674.312323 123.607696 
L 675.517424 123.274757 
L 676.722525 123.579323 
L 677.927626 122.947407 
L 679.132727 123.179951 
L 679.132727 123.179951 
" style="fill:none;stroke:#0000ff;stroke-linecap:square;stroke-width:1.5;"/>
   </g>
   <g id="line2d_19">
    <path clip-path="url(#p05e5158fea)" d="M 77.787273 318.794372 
L 78.992374 352.48153 
L 80.197475 306.931178 
L 81.402576 294.67654 
L 82.607677 297.238203 
L 83.812778 275.447457 
L 85.017879 273.38213 
L 86.222981 286.19518 
L 87.428082 270.594615 
L 88.633183 268.028523 
L 89.838284 271.605147 
L 91.043385 283.513707 
L 92.248486 274.653032 
L 93.453587 283.122668 
L 94.658688 274.233274 
L 95.863789 276.548826 
L 97.068891 275.555393 
L 98.273992 271.845568 
L 99.479093 277.019784 
L 100.684194 284.690056 
L 101.889295 287.851713 
L 103.094396 288.065727 
L 104.299497 282.721464 
L 105.504598 283.829553 
L 106.709699 285.178137 
L 107.914801 279.876626 
L 109.119902 276.625138 
L 110.325003 279.964465 
L 111.530104 279.644571 
L 112.735205 277.467502 
L 113.940306 277.076313 
L 115.145407 274.232846 
L 116.350508 275.056975 
L 117.555609 274.045399 
L 118.760711 275.317056 
L 119.965812 271.560557 
L 121.170913 271.992435 
L 122.376014 271.97402 
L 123.581115 272.124187 
L 124.786216 271.360278 
L 125.991317 272.969955 
L 127.196418 274.271142 
L 128.401519 277.236217 
L 129.606621 278.485849 
L 130.811722 278.298065 
L 132.016823 279.207769 
L 133.221924 277.598365 
L 134.427025 279.354011 
L 135.632126 281.843203 
L 136.837227 282.467445 
L 138.042328 280.963624 
L 139.247429 282.102572 
L 140.452531 285.094754 
L 141.657632 283.108044 
L 142.862733 282.851735 
L 144.067834 283.815711 
L 145.272935 283.537266 
L 146.478036 279.505308 
L 147.683137 280.815329 
L 148.888238 279.35207 
L 150.093339 278.121159 
L 151.298441 275.627747 
L 152.503542 274.912206 
L 153.708643 274.381822 
L 154.913744 272.815362 
L 156.118845 272.903721 
L 157.323946 272.024615 
L 158.529047 272.771332 
L 159.734148 272.722604 
L 160.939249 273.367312 
L 163.349452 275.222332 
L 164.554553 275.357654 
L 165.759654 276.266385 
L 166.964755 277.820371 
L 168.169856 277.696815 
L 169.374957 278.406662 
L 170.580058 276.719901 
L 171.785159 276.717678 
L 172.990261 275.525264 
L 174.195362 274.796984 
L 175.400463 275.862337 
L 176.605564 276.587584 
L 177.810665 277.975707 
L 179.015766 277.869235 
L 180.220867 278.832669 
L 181.425968 279.636192 
L 182.631069 281.512642 
L 185.041272 280.14152 
L 186.246373 278.02219 
L 187.451474 276.242651 
L 188.656575 277.169292 
L 189.861676 277.576739 
L 192.271878 280.070392 
L 193.476979 281.055768 
L 194.682081 282.239169 
L 197.092283 283.655974 
L 198.297384 283.686295 
L 199.502485 284.118845 
L 200.707586 280.000825 
L 201.912687 280.2083 
L 203.117788 281.347176 
L 204.322889 281.908772 
L 205.527991 281.255868 
L 206.733092 281.34969 
L 207.938193 280.908725 
L 209.143294 280.616825 
L 210.348395 281.494743 
L 212.758597 282.879061 
L 213.963698 281.428718 
L 215.168799 281.330114 
L 216.373901 282.047146 
L 217.579002 282.087623 
L 218.784103 282.673307 
L 221.194305 281.016283 
L 223.604507 280.942464 
L 224.809608 280.454114 
L 226.014709 280.541473 
L 227.219811 281.739289 
L 228.424912 282.080371 
L 229.630013 282.19212 
L 232.040215 283.332403 
L 233.245316 282.4343 
L 234.450417 282.924255 
L 235.655518 283.160318 
L 236.860619 282.645793 
L 238.065721 283.30829 
L 239.270822 283.64591 
L 240.475923 284.232527 
L 241.681024 284.224501 
L 242.886125 283.822959 
L 244.091226 282.15122 
L 245.296327 281.140973 
L 246.501428 281.461438 
L 247.706529 281.577625 
L 248.911631 279.033473 
L 250.116732 278.397609 
L 251.321833 279.221648 
L 253.732035 279.370011 
L 254.937136 279.561713 
L 256.142237 278.54842 
L 258.552439 278.264224 
L 259.757541 277.759623 
L 260.962642 277.825791 
L 262.167743 278.589587 
L 263.372844 278.599368 
L 264.577945 278.808763 
L 265.783046 278.139023 
L 266.988147 278.352388 
L 268.193248 278.419295 
L 270.603451 278.882979 
L 271.808552 278.686664 
L 273.013653 278.828607 
L 274.218754 278.709543 
L 275.423855 279.055837 
L 276.628956 278.8209 
L 277.834057 279.213302 
L 279.039158 278.94313 
L 280.244259 278.43806 
L 281.449361 277.764909 
L 282.654462 277.798541 
L 283.859563 278.72996 
L 285.064664 278.815779 
L 286.269765 278.498173 
L 287.474866 278.953147 
L 288.679967 278.320869 
L 291.090169 278.4324 
L 292.295271 278.80088 
L 294.705473 278.210335 
L 295.910574 278.724039 
L 297.115675 278.673285 
L 298.320776 279.106527 
L 299.525877 277.790965 
L 300.730978 277.562629 
L 301.936079 278.233779 
L 303.141181 278.460402 
L 304.346282 278.89778 
L 305.551383 278.666771 
L 306.756484 277.784608 
L 307.961585 277.266751 
L 309.166686 276.594027 
L 311.576888 276.651865 
L 312.781989 276.076245 
L 313.987091 276.118532 
L 316.397293 275.773733 
L 317.602394 276.153553 
L 318.807495 275.717899 
L 320.012596 275.90226 
L 321.217697 276.396092 
L 322.422798 275.981499 
L 323.627899 275.71009 
L 327.243203 276.058657 
L 329.653405 276.740515 
L 330.858506 276.355819 
L 333.268708 277.229959 
L 334.473809 277.364136 
L 335.678911 277.68204 
L 336.884012 277.779182 
L 339.294214 277.717381 
L 341.704416 277.735422 
L 342.909517 277.274378 
L 344.114618 276.434385 
L 345.319719 276.311436 
L 347.729922 275.379192 
L 348.935023 275.357455 
L 350.140124 275.779984 
L 351.345225 275.464723 
L 352.550326 274.999766 
L 353.755427 275.534937 
L 354.960528 274.944706 
L 356.165629 274.495434 
L 357.370731 274.716855 
L 358.575832 274.565962 
L 359.780933 273.899317 
L 360.986034 274.574173 
L 362.191135 274.885943 
L 363.396236 275.43381 
L 364.601337 275.764911 
L 365.806438 275.390974 
L 367.011539 274.699963 
L 369.421742 274.152673 
L 373.037045 274.240453 
L 374.242146 273.848859 
L 375.447247 274.153323 
L 376.652348 274.313224 
L 377.857449 274.614384 
L 379.062551 274.373714 
L 380.267652 273.092709 
L 381.472753 273.061639 
L 382.677854 273.216283 
L 383.882955 272.603549 
L 385.088056 272.622077 
L 386.293157 272.861965 
L 388.703359 271.920316 
L 389.908461 272.600687 
L 392.318663 272.93571 
L 393.523764 273.583858 
L 394.728865 273.509961 
L 395.933966 273.763759 
L 397.139067 273.373092 
L 398.344168 273.817908 
L 399.549269 274.045833 
L 403.164573 274.402158 
L 404.369674 274.653863 
L 405.574775 274.627256 
L 406.779876 274.478961 
L 407.984977 274.74565 
L 409.190078 274.366638 
L 410.395179 274.680086 
L 411.600281 274.310738 
L 412.805382 273.806588 
L 414.010483 272.781328 
L 415.215584 272.788929 
L 416.420685 272.631727 
L 420.035988 272.767221 
L 421.241089 271.913315 
L 422.446191 271.946435 
L 423.651292 272.189921 
L 424.856393 272.23451 
L 426.061494 272.617754 
L 427.266595 272.291609 
L 428.471696 272.230874 
L 429.676797 271.728857 
L 430.881898 272.124844 
L 432.086999 272.054762 
L 433.292101 271.358358 
L 434.497202 271.391764 
L 435.702303 271.089613 
L 438.112505 271.020922 
L 439.317606 271.346162 
L 441.727808 270.958198 
L 442.932909 271.144867 
L 445.343112 271.214232 
L 446.548213 271.011502 
L 447.753314 271.057155 
L 448.958415 271.675777 
L 450.163516 271.569496 
L 451.368617 271.689137 
L 452.573718 271.569758 
L 453.778819 271.799993 
L 454.983921 272.228873 
L 456.189022 272.020751 
L 457.394123 271.676719 
L 458.599224 272.13201 
L 461.009426 272.141166 
L 462.214527 272.584464 
L 467.034932 273.547638 
L 468.240033 273.86509 
L 471.855336 273.665589 
L 473.060437 273.758821 
L 474.265538 273.482356 
L 475.470639 273.759798 
L 476.675741 274.154656 
L 479.085943 274.664541 
L 480.291044 275.075181 
L 481.496145 275.219396 
L 482.701246 275.126228 
L 486.316549 275.185637 
L 487.521651 274.782512 
L 488.726752 274.25815 
L 489.931853 273.863547 
L 493.547156 274.85012 
L 494.752257 274.68739 
L 497.162459 274.813541 
L 498.367561 274.651184 
L 500.777763 274.727911 
L 501.982864 274.904026 
L 503.187965 274.59645 
L 504.393066 274.839373 
L 506.803268 274.771235 
L 508.008369 273.808974 
L 509.213471 274.036702 
L 510.418572 273.744723 
L 511.623673 273.745485 
L 512.828774 273.331522 
L 514.033875 273.575569 
L 515.238976 273.668104 
L 516.444077 273.63299 
L 517.649178 273.774845 
L 518.854279 273.448776 
L 520.059381 273.27855 
L 521.264482 273.436563 
L 522.469583 273.10417 
L 524.879785 272.950617 
L 526.084886 273.235062 
L 528.495088 273.520285 
L 529.700189 273.351249 
L 530.905291 272.951407 
L 532.110392 272.346478 
L 533.315493 272.310152 
L 534.520594 272.432622 
L 535.725695 272.323025 
L 539.340998 272.454869 
L 540.546099 272.477073 
L 542.956302 272.12224 
L 544.161403 271.774359 
L 545.366504 271.819366 
L 546.571605 271.750532 
L 547.776706 271.927219 
L 548.981807 271.881795 
L 550.186908 272.090977 
L 552.597111 271.791324 
L 553.802212 271.760276 
L 555.007313 271.947129 
L 557.417515 272.105281 
L 559.827717 271.642204 
L 561.032818 271.782521 
L 562.237919 271.80922 
L 563.443021 271.581121 
L 564.648122 271.11547 
L 565.853223 271.276804 
L 567.058324 271.677354 
L 568.263425 271.390007 
L 569.468526 271.502068 
L 570.673627 271.825687 
L 571.878728 271.708117 
L 573.083829 271.896103 
L 574.288931 271.377595 
L 575.494032 271.069132 
L 576.699133 271.225211 
L 577.904234 271.174477 
L 580.314436 271.435239 
L 583.929739 271.740815 
L 588.750144 271.547157 
L 589.955245 271.762329 
L 591.160346 271.613635 
L 594.775649 271.943382 
L 595.980751 272.02356 
L 598.390953 272.438904 
L 602.006256 273.099151 
L 603.211357 273.341767 
L 604.416458 273.309673 
L 605.621559 273.454496 
L 606.826661 273.810062 
L 608.031762 274.021698 
L 610.441964 273.671238 
L 611.647065 273.524234 
L 612.852166 273.623448 
L 614.057267 273.868326 
L 615.262368 273.444913 
L 616.467469 273.550446 
L 617.672571 273.913486 
L 618.877672 273.498759 
L 620.082773 273.618721 
L 621.287874 273.521624 
L 622.492975 273.614038 
L 624.903177 273.360442 
L 628.518481 273.777989 
L 629.723582 273.582245 
L 630.928683 273.716966 
L 632.133784 273.430166 
L 634.543986 273.747789 
L 639.364391 273.532493 
L 640.569492 273.204481 
L 641.774593 273.505178 
L 644.184795 273.457011 
L 645.389896 273.401398 
L 646.594997 273.621177 
L 647.800098 273.452143 
L 649.005199 273.525266 
L 655.030705 273.141481 
L 657.440907 273.542008 
L 658.646008 273.46503 
L 659.851109 273.577856 
L 661.056211 273.868473 
L 662.261312 273.937389 
L 663.466413 274.180928 
L 664.671514 274.253874 
L 665.876615 273.898416 
L 667.081716 273.810083 
L 668.286817 274.145716 
L 669.491918 273.937274 
L 670.697019 273.899503 
L 671.902121 273.510254 
L 673.107222 273.82767 
L 674.312323 273.836824 
L 675.517424 273.461788 
L 676.722525 273.598816 
L 677.927626 273.060583 
L 679.132727 273.244277 
L 679.132727 273.244277 
" style="fill:none;stroke:#ff0000;stroke-linecap:square;stroke-width:1.5;"/>
   </g>
   <g id="line2d_20">
    <path clip-path="url(#p05e5158fea)" d="M 77.787273 323.062738 
L 78.992374 358.878796 
L 80.197475 308.256517 
L 81.402576 308.186242 
L 82.607677 310.917954 
L 83.812778 288.407281 
L 85.017879 281.571828 
L 86.222981 292.173067 
L 87.428082 280.148679 
L 88.633183 276.133347 
L 89.838284 276.27201 
L 91.043385 288.727821 
L 92.248486 282.168646 
L 93.453587 288.826275 
L 94.658688 281.836615 
L 95.863789 282.477106 
L 97.068891 283.4315 
L 98.273992 278.167371 
L 99.479093 283.596885 
L 100.684194 291.68958 
L 101.889295 294.787691 
L 103.094396 293.665482 
L 104.299497 288.066713 
L 105.504598 289.700616 
L 106.709699 290.393878 
L 107.914801 284.573896 
L 109.119902 283.18136 
L 110.325003 285.825865 
L 111.530104 285.258262 
L 112.735205 283.85776 
L 113.940306 283.806645 
L 115.145407 280.415001 
L 116.350508 281.980741 
L 117.555609 280.644016 
L 118.760711 281.878001 
L 119.965812 278.30491 
L 121.170913 278.240275 
L 122.376014 277.543966 
L 123.581115 277.851378 
L 124.786216 277.199363 
L 127.196418 280.374093 
L 128.401519 283.151561 
L 129.606621 284.587069 
L 130.811722 284.673702 
L 132.016823 285.02836 
L 133.221924 282.898963 
L 134.427025 284.538592 
L 135.632126 287.087524 
L 136.837227 287.284033 
L 138.042328 285.524614 
L 139.247429 287.026002 
L 140.452531 289.837918 
L 141.657632 287.565157 
L 142.862733 287.149024 
L 144.067834 287.550661 
L 145.272935 287.376734 
L 146.478036 283.577469 
L 147.683137 284.523028 
L 148.888238 282.201837 
L 150.093339 281.328554 
L 151.298441 279.005925 
L 152.503542 278.223623 
L 153.708643 278.339636 
L 154.913744 276.940064 
L 156.118845 277.178572 
L 157.323946 276.386859 
L 158.529047 277.077967 
L 159.734148 276.7625 
L 162.144351 277.765343 
L 163.349452 278.558467 
L 164.554553 279.074519 
L 165.759654 279.978928 
L 166.964755 281.621279 
L 168.169856 281.428216 
L 169.374957 282.074457 
L 170.580058 280.128049 
L 171.785159 279.842868 
L 172.990261 278.966712 
L 174.195362 277.82346 
L 175.400463 279.044329 
L 176.605564 279.601007 
L 177.810665 280.845005 
L 179.015766 280.739171 
L 180.220867 281.731694 
L 181.425968 282.019133 
L 182.631069 283.797312 
L 183.836171 283.472639 
L 185.041272 282.982726 
L 186.246373 280.833866 
L 187.451474 279.056904 
L 188.656575 279.78768 
L 189.861676 280.244793 
L 191.066777 281.446064 
L 193.476979 283.498231 
L 194.682081 284.823093 
L 195.887182 285.323516 
L 197.092283 286.128567 
L 198.297384 286.398343 
L 199.502485 287.110586 
L 200.707586 283.509102 
L 201.912687 283.583919 
L 203.117788 284.742738 
L 204.322889 285.288739 
L 205.527991 284.740948 
L 209.143294 284.008971 
L 212.758597 286.24767 
L 213.963698 284.656831 
L 215.168799 284.733049 
L 216.373901 285.134404 
L 217.579002 284.942692 
L 218.784103 285.852873 
L 221.194305 284.357799 
L 222.399406 284.477678 
L 223.604507 284.345895 
L 224.809608 284.028746 
L 226.014709 284.333826 
L 227.219811 285.533138 
L 228.424912 285.928221 
L 229.630013 286.024395 
L 232.040215 287.069209 
L 233.245316 286.187156 
L 234.450417 286.838387 
L 235.655518 286.990299 
L 236.860619 286.588103 
L 238.065721 287.290416 
L 239.270822 287.423156 
L 240.475923 288.135623 
L 241.681024 288.062258 
L 242.886125 287.738158 
L 244.091226 286.077202 
L 245.296327 284.930278 
L 246.501428 285.262074 
L 247.706529 285.255886 
L 248.911631 283.138985 
L 250.116732 282.557846 
L 251.321833 283.206215 
L 252.526934 283.692197 
L 253.732035 283.860817 
L 254.937136 284.300385 
L 256.142237 283.151209 
L 258.552439 282.676228 
L 259.757541 282.213181 
L 260.962642 282.288126 
L 262.167743 283.007483 
L 264.577945 283.125274 
L 265.783046 282.429111 
L 268.193248 282.79373 
L 270.603451 283.212915 
L 271.808552 282.80532 
L 273.013653 283.030418 
L 274.218754 283.033797 
L 275.423855 283.332373 
L 276.628956 283.107363 
L 277.834057 283.362827 
L 279.039158 283.158483 
L 280.244259 282.771996 
L 281.449361 282.201299 
L 282.654462 282.23888 
L 283.859563 283.07832 
L 285.064664 283.116376 
L 286.269765 282.8173 
L 287.474866 283.162224 
L 288.679967 282.747781 
L 291.090169 282.90471 
L 292.295271 283.287743 
L 294.705473 282.791666 
L 295.910574 283.276402 
L 297.115675 283.13828 
L 298.320776 283.454917 
L 299.525877 282.289579 
L 300.730978 281.922379 
L 301.936079 282.476335 
L 303.141181 282.787594 
L 304.346282 283.255444 
L 305.551383 282.990135 
L 306.756484 282.145758 
L 309.166686 281.132706 
L 311.576888 281.36882 
L 312.781989 280.776559 
L 313.987091 280.997443 
L 316.397293 280.618367 
L 317.602394 280.957222 
L 318.807495 280.639074 
L 320.012596 280.786328 
L 321.217697 281.290666 
L 322.422798 280.723551 
L 323.627899 280.430003 
L 328.448304 281.195265 
L 329.653405 281.607503 
L 330.858506 281.164385 
L 333.268708 282.021202 
L 336.884012 282.58125 
L 339.294214 282.637574 
L 340.499315 282.707247 
L 341.704416 282.56879 
L 342.909517 282.146062 
L 344.114618 281.333179 
L 345.319719 281.220526 
L 347.729922 280.546579 
L 348.935023 280.553201 
L 350.140124 280.967155 
L 352.550326 280.369265 
L 353.755427 280.922832 
L 354.960528 280.487328 
L 356.165629 279.875144 
L 357.370731 280.03387 
L 358.575832 279.830679 
L 359.780933 279.131554 
L 360.986034 279.711226 
L 362.191135 279.953063 
L 363.396236 280.475339 
L 364.601337 280.805064 
L 365.806438 280.314613 
L 367.011539 279.55565 
L 369.421742 278.880557 
L 370.626843 278.909551 
L 371.831944 279.051266 
L 373.037045 278.96653 
L 374.242146 278.632004 
L 377.857449 279.320615 
L 379.062551 279.034997 
L 380.267652 277.707482 
L 381.472753 277.63787 
L 382.677854 277.928898 
L 383.882955 277.520779 
L 386.293157 277.772721 
L 387.498258 277.139811 
L 388.703359 276.725495 
L 389.908461 277.335079 
L 392.318663 277.62463 
L 393.523764 278.209522 
L 394.728865 278.226324 
L 395.933966 278.449143 
L 397.139067 278.050058 
L 398.344168 278.4363 
L 399.549269 278.68346 
L 405.574775 279.161451 
L 406.779876 278.846431 
L 407.984977 279.175107 
L 409.190078 278.771626 
L 410.395179 278.989488 
L 411.600281 278.811996 
L 412.805382 278.318535 
L 414.010483 277.376717 
L 415.215584 277.452668 
L 416.420685 277.222649 
L 420.035988 277.487497 
L 421.241089 276.698785 
L 422.446191 276.679225 
L 423.651292 276.894256 
L 424.856393 276.89231 
L 426.061494 277.243639 
L 427.266595 276.936923 
L 428.471696 276.795158 
L 429.676797 276.359617 
L 430.881898 276.749463 
L 432.086999 276.582671 
L 433.292101 276.055202 
L 434.497202 276.212059 
L 436.907404 275.849465 
L 438.112505 275.864897 
L 439.317606 276.208584 
L 441.727808 275.766873 
L 444.138011 275.990762 
L 445.343112 276.083809 
L 446.548213 275.934033 
L 447.753314 275.97303 
L 448.958415 276.528302 
L 450.163516 276.413009 
L 451.368617 276.48785 
L 452.573718 276.435753 
L 453.778819 276.697166 
L 454.983921 277.110011 
L 456.189022 276.889633 
L 457.394123 276.5436 
L 458.599224 276.973788 
L 461.009426 277.133234 
L 462.214527 277.527448 
L 464.624729 278.028563 
L 465.829831 278.128634 
L 468.240033 278.730861 
L 469.445134 278.712066 
L 470.650235 278.561767 
L 473.060437 278.663806 
L 474.265538 278.347721 
L 481.496145 279.941589 
L 482.701246 279.819714 
L 483.906347 279.921599 
L 486.316549 279.930538 
L 487.521651 279.637392 
L 489.931853 278.872794 
L 493.547156 279.841006 
L 494.752257 279.696458 
L 497.162459 279.793055 
L 498.367561 279.571981 
L 501.982864 279.652135 
L 503.187965 279.358322 
L 504.393066 279.604717 
L 506.803268 279.626579 
L 508.008369 278.788479 
L 509.213471 279.092075 
L 510.418572 278.844007 
L 511.623673 278.85483 
L 512.828774 278.456783 
L 515.238976 278.71328 
L 516.444077 278.671363 
L 517.649178 278.803649 
L 520.059381 278.323513 
L 521.264482 278.428337 
L 523.674684 277.90705 
L 524.879785 277.831651 
L 526.084886 278.102386 
L 528.495088 278.308801 
L 529.700189 278.16864 
L 532.110392 277.062199 
L 533.315493 277.030154 
L 534.520594 277.190086 
L 538.135897 277.128992 
L 541.751201 276.972828 
L 544.161403 276.268074 
L 545.366504 276.304534 
L 546.571605 276.227744 
L 547.776706 276.392186 
L 548.981807 276.315186 
L 550.186908 276.52427 
L 551.392009 276.300003 
L 553.802212 276.182915 
L 556.212414 276.441961 
L 557.417515 276.500788 
L 559.827717 276.112954 
L 562.237919 276.353747 
L 563.443021 276.205069 
L 564.648122 275.848546 
L 565.853223 276.010212 
L 567.058324 276.409366 
L 568.263425 276.072011 
L 569.468526 276.120017 
L 570.673627 276.435052 
L 571.878728 276.305229 
L 573.083829 276.499567 
L 574.288931 276.018833 
L 575.494032 275.671499 
L 576.699133 275.801973 
L 577.904234 275.698798 
L 581.519537 276.073186 
L 582.724638 276.119626 
L 583.929739 276.322659 
L 588.750144 276.148956 
L 589.955245 276.360279 
L 591.160346 276.174814 
L 593.570548 276.562344 
L 595.980751 276.664543 
L 597.185852 276.897447 
L 599.596054 277.202925 
L 603.211357 277.933592 
L 604.416458 277.931076 
L 605.621559 278.065266 
L 606.826661 278.40459 
L 608.031762 278.596239 
L 610.441964 278.130329 
L 611.647065 277.88227 
L 612.852166 277.923086 
L 614.057267 278.178175 
L 615.262368 277.881636 
L 616.467469 278.026266 
L 617.672571 278.412689 
L 618.877672 278.095622 
L 620.082773 278.229991 
L 621.287874 278.085267 
L 622.492975 278.218652 
L 624.903177 277.919679 
L 628.518481 278.357065 
L 629.723582 278.220697 
L 630.928683 278.318723 
L 632.133784 278.018798 
L 634.543986 278.320258 
L 639.364391 277.951508 
L 640.569492 277.589027 
L 641.774593 277.909419 
L 645.389896 277.795401 
L 646.594997 278.01741 
L 647.800098 277.85892 
L 649.005199 277.930893 
L 655.030705 277.692235 
L 657.440907 278.106486 
L 658.646008 277.999436 
L 659.851109 278.080554 
L 661.056211 278.347376 
L 664.671514 278.749699 
L 665.876615 278.39582 
L 667.081716 278.312549 
L 668.286817 278.642631 
L 669.491918 278.432556 
L 670.697019 278.412096 
L 671.902121 278.03459 
L 673.107222 278.349624 
L 674.312323 278.320507 
L 675.517424 277.969097 
L 676.722525 278.06946 
L 677.927626 277.579404 
L 679.132727 277.758641 
L 679.132727 277.758641 
" style="fill:none;stroke:#008000;stroke-linecap:square;stroke-width:1.5;"/>
   </g>
   <g id="patch_3">
    <path d="M 47.72 390.04 
L 47.72 28.464 
" style="fill:none;stroke:#000000;stroke-linecap:square;stroke-linejoin:miter;stroke-width:0.8;"/>
   </g>
   <g id="patch_4">
    <path d="M 709.2 390.04 
L 709.2 28.464 
" style="fill:none;stroke:#000000;stroke-linecap:square;stroke-linejoin:miter;stroke-width:0.8;"/>
   </g>
   <g id="patch_5">
    <path d="M 47.72 390.04 
L 709.2 390.04 
" style="fill:none;stroke:#000000;stroke-linecap:square;stroke-linejoin:miter;stroke-width:0.8;"/>
   </g>
   <g id="patch_6">
    <path d="M 47.72 28.464 
L 709.2 28.464 
" style="fill:none;stroke:#000000;stroke-linecap:square;stroke-linejoin:miter;stroke-width:0.8;"/>
   </g>
   <g id="text_18">
    <!-- Average ANEES with parameters $\sigma_{process}=$0.5,  $\sigma_{AIS}=$10, $\sigma_{Radar}=$100 -->
    <g transform="translate(170.68 22.464)scale(0.12 -0.12)">
     <defs>
      <path d="M 2.984375 54.6875 
L 12.5 54.6875 
L 29.59375 8.796875 
L 46.6875 54.6875 
L 56.203125 54.6875 
L 35.6875 0 
L 23.484375 0 
z
" id="DejaVuSans-118"/>
      <path d="M 45.40625 27.984375 
Q 45.40625 37.75 41.375 43.109375 
Q 37.359375 48.484375 30.078125 48.484375 
Q 22.859375 48.484375 18.828125 43.109375 
Q 14.796875 37.75 14.796875 27.984375 
Q 14.796875 18.265625 18.828125 12.890625 
Q 22.859375 7.515625 30.078125 7.515625 
Q 37.359375 7.515625 41.375 12.890625 
Q 45.40625 18.265625 45.40625 27.984375 
z
M 54.390625 6.78125 
Q 54.390625 -7.171875 48.1875 -13.984375 
Q 42 -20.796875 29.203125 -20.796875 
Q 24.46875 -20.796875 20.265625 -20.09375 
Q 16.0625 -19.390625 12.109375 -17.921875 
L 12.109375 -9.1875 
Q 16.0625 -11.328125 19.921875 -12.34375 
Q 23.78125 -13.375 27.78125 -13.375 
Q 36.625 -13.375 41.015625 -8.765625 
Q 45.40625 -4.15625 45.40625 5.171875 
L 45.40625 9.625 
Q 42.625 4.78125 38.28125 2.390625 
Q 33.9375 0 27.875 0 
Q 17.828125 0 11.671875 7.65625 
Q 5.515625 15.328125 5.515625 27.984375 
Q 5.515625 40.671875 11.671875 48.328125 
Q 17.828125 56 27.875 56 
Q 33.9375 56 38.28125 53.609375 
Q 42.625 51.21875 45.40625 46.390625 
L 45.40625 54.6875 
L 54.390625 54.6875 
z
" id="DejaVuSans-103"/>
      <path d="M 4.203125 54.6875 
L 13.1875 54.6875 
L 24.421875 12.015625 
L 35.59375 54.6875 
L 46.1875 54.6875 
L 57.421875 12.015625 
L 68.609375 54.6875 
L 77.59375 54.6875 
L 63.28125 0 
L 52.6875 0 
L 40.921875 44.828125 
L 29.109375 0 
L 18.5 0 
z
" id="DejaVuSans-119"/>
      <path d="M 54.890625 33.015625 
L 54.890625 0 
L 45.90625 0 
L 45.90625 32.71875 
Q 45.90625 40.484375 42.875 44.328125 
Q 39.84375 48.1875 33.796875 48.1875 
Q 26.515625 48.1875 22.3125 43.546875 
Q 18.109375 38.921875 18.109375 30.90625 
L 18.109375 0 
L 9.078125 0 
L 9.078125 75.984375 
L 18.109375 75.984375 
L 18.109375 46.1875 
Q 21.34375 51.125 25.703125 53.5625 
Q 30.078125 56 35.796875 56 
Q 45.21875 56 50.046875 50.171875 
Q 54.890625 44.34375 54.890625 33.015625 
z
" id="DejaVuSans-104"/>
      <path d="M 18.109375 8.203125 
L 18.109375 -20.796875 
L 9.078125 -20.796875 
L 9.078125 54.6875 
L 18.109375 54.6875 
L 18.109375 46.390625 
Q 20.953125 51.265625 25.265625 53.625 
Q 29.59375 56 35.59375 56 
Q 45.5625 56 51.78125 48.09375 
Q 58.015625 40.1875 58.015625 27.296875 
Q 58.015625 14.40625 51.78125 6.484375 
Q 45.5625 -1.421875 35.59375 -1.421875 
Q 29.59375 -1.421875 25.265625 0.953125 
Q 20.953125 3.328125 18.109375 8.203125 
z
M 48.6875 27.296875 
Q 48.6875 37.203125 44.609375 42.84375 
Q 40.53125 48.484375 33.40625 48.484375 
Q 26.265625 48.484375 22.1875 42.84375 
Q 18.109375 37.203125 18.109375 27.296875 
Q 18.109375 17.390625 22.1875 11.75 
Q 26.265625 6.109375 33.40625 6.109375 
Q 40.53125 6.109375 44.609375 11.75 
Q 48.6875 17.390625 48.6875 27.296875 
z
" id="DejaVuSans-112"/>
      <path d="M 52 44.1875 
Q 55.375 50.25 60.0625 53.125 
Q 64.75 56 71.09375 56 
Q 79.640625 56 84.28125 50.015625 
Q 88.921875 44.046875 88.921875 33.015625 
L 88.921875 0 
L 79.890625 0 
L 79.890625 32.71875 
Q 79.890625 40.578125 77.09375 44.375 
Q 74.3125 48.1875 68.609375 48.1875 
Q 61.625 48.1875 57.5625 43.546875 
Q 53.515625 38.921875 53.515625 30.90625 
L 53.515625 0 
L 44.484375 0 
L 44.484375 32.71875 
Q 44.484375 40.625 41.703125 44.40625 
Q 38.921875 48.1875 33.109375 48.1875 
Q 26.21875 48.1875 22.15625 43.53125 
Q 18.109375 38.875 18.109375 30.90625 
L 18.109375 0 
L 9.078125 0 
L 9.078125 54.6875 
L 18.109375 54.6875 
L 18.109375 46.1875 
Q 21.1875 51.21875 25.484375 53.609375 
Q 29.78125 56 35.6875 56 
Q 41.65625 56 45.828125 52.96875 
Q 50 49.953125 52 44.1875 
z
" id="DejaVuSans-109"/>
      <path d="M 34.671875 47.5625 
Q 27.25 47.5625 22.21875 42.1875 
Q 16.890625 36.578125 15.140625 27.296875 
Q 13.1875 17.484375 16.3125 11.8125 
Q 19.390625 6.203125 26.65625 6.203125 
Q 33.84375 6.203125 39.109375 11.859375 
Q 44.4375 17.53125 46.34375 27.296875 
Q 48.046875 36.234375 45.015625 42.1875 
Q 42.1875 47.5625 34.671875 47.5625 
z
M 36.078125 54.734375 
L 65.921875 54.6875 
L 64.15625 45.703125 
L 54.109375 45.703125 
Q 57.90625 38.09375 55.859375 27.296875 
Q 53.21875 13.875 45.0625 6.25 
Q 36.859375 -1.421875 25.140625 -1.421875 
Q 13.375 -1.421875 8.203125 6.25 
Q 3.03125 13.875 5.671875 27.296875 
Q 8.25 40.765625 16.40625 48.390625 
Q 23.1875 54.734375 36.078125 54.734375 
z
" id="DejaVuSans-Oblique-963"/>
      <path d="M 49.609375 33.6875 
Q 49.609375 40.875 46.484375 44.671875 
Q 43.359375 48.484375 37.5 48.484375 
Q 33.5 48.484375 29.859375 46.4375 
Q 26.21875 44.390625 23.390625 40.484375 
Q 20.609375 36.625 18.9375 31.15625 
Q 17.28125 25.6875 17.28125 20.3125 
Q 17.28125 13.484375 20.40625 9.796875 
Q 23.53125 6.109375 29.296875 6.109375 
Q 33.546875 6.109375 37.1875 8.109375 
Q 40.828125 10.109375 43.40625 13.921875 
Q 46.1875 17.921875 47.890625 23.34375 
Q 49.609375 28.765625 49.609375 33.6875 
z
M 21.78125 46.390625 
Q 25.390625 51.125 30.296875 53.5625 
Q 35.203125 56 41.21875 56 
Q 49.609375 56 54.25 50.5 
Q 58.890625 45.015625 58.890625 35.109375 
Q 58.890625 27 56 19.65625 
Q 53.125 12.3125 47.703125 6.5 
Q 44.09375 2.640625 39.546875 0.609375 
Q 35.015625 -1.421875 29.984375 -1.421875 
Q 24.171875 -1.421875 20.21875 1 
Q 16.265625 3.421875 14.3125 8.203125 
L 8.6875 -20.796875 
L -0.296875 -20.796875 
L 14.40625 54.6875 
L 23.390625 54.6875 
z
" id="DejaVuSans-Oblique-112"/>
      <path d="M 44.578125 46.390625 
Q 43.21875 47.125 41.453125 47.515625 
Q 39.703125 47.90625 37.703125 47.90625 
Q 30.515625 47.90625 25.140625 42.453125 
Q 19.78125 37.015625 18.015625 27.875 
L 12.5 0 
L 3.515625 0 
L 14.203125 54.6875 
L 23.1875 54.6875 
L 21.484375 46.1875 
Q 25.046875 50.921875 30 53.453125 
Q 34.96875 56 40.578125 56 
Q 42.046875 56 43.453125 55.828125 
Q 44.875 55.671875 46.296875 55.28125 
z
" id="DejaVuSans-Oblique-114"/>
      <path d="M 25.390625 -1.421875 
Q 15.765625 -1.421875 10.171875 4.515625 
Q 4.59375 10.453125 4.59375 20.703125 
Q 4.59375 26.65625 6.515625 32.828125 
Q 8.453125 39.015625 11.53125 43.21875 
Q 16.359375 49.75 22.3125 52.875 
Q 28.265625 56 35.796875 56 
Q 45.125 56 50.859375 50.1875 
Q 56.59375 44.390625 56.59375 35.015625 
Q 56.59375 28.515625 54.6875 22.0625 
Q 52.78125 15.625 49.703125 11.375 
Q 44.921875 4.828125 38.96875 1.703125 
Q 33.015625 -1.421875 25.390625 -1.421875 
z
M 13.921875 21 
Q 13.921875 13.578125 17.015625 9.890625 
Q 20.125 6.203125 26.421875 6.203125 
Q 35.453125 6.203125 41.375 14.078125 
Q 47.3125 21.96875 47.3125 34.078125 
Q 47.3125 41.15625 44.140625 44.765625 
Q 40.96875 48.390625 34.8125 48.390625 
Q 29.734375 48.390625 25.78125 46.015625 
Q 21.828125 43.65625 18.703125 38.8125 
Q 16.40625 35.203125 15.15625 30.5625 
Q 13.921875 25.921875 13.921875 21 
z
" id="DejaVuSans-Oblique-111"/>
      <path d="M 53.609375 52.59375 
L 51.8125 43.703125 
Q 48.578125 46.046875 44.9375 47.21875 
Q 41.3125 48.390625 37.40625 48.390625 
Q 33.109375 48.390625 29.21875 46.875 
Q 25.34375 45.359375 22.703125 42.578125 
Q 18.5 38.328125 16.203125 32.609375 
Q 13.921875 26.90625 13.921875 20.796875 
Q 13.921875 13.421875 17.609375 9.8125 
Q 21.296875 6.203125 28.8125 6.203125 
Q 32.515625 6.203125 36.6875 7.328125 
Q 40.875 8.453125 45.40625 10.6875 
L 43.703125 1.8125 
Q 39.796875 0.203125 35.671875 -0.609375 
Q 31.546875 -1.421875 27.203125 -1.421875 
Q 16.3125 -1.421875 10.453125 4.015625 
Q 4.59375 9.46875 4.59375 19.578125 
Q 4.59375 28.078125 7.640625 35.234375 
Q 10.6875 42.390625 16.703125 48.09375 
Q 20.796875 52 26.3125 54 
Q 31.84375 56 38.375 56 
Q 42.1875 56 45.9375 55.140625 
Q 49.703125 54.296875 53.609375 52.59375 
z
" id="DejaVuSans-Oblique-99"/>
      <path d="M 48.09375 32.234375 
Q 48.25 33.015625 48.3125 33.84375 
Q 48.390625 34.671875 48.390625 35.5 
Q 48.390625 41.453125 44.890625 44.921875 
Q 41.40625 48.390625 35.40625 48.390625 
Q 28.71875 48.390625 23.578125 44.15625 
Q 18.453125 39.9375 15.828125 32.171875 
z
M 55.90625 25.203125 
L 14.109375 25.203125 
Q 13.8125 23.34375 13.71875 22.265625 
Q 13.625 21.1875 13.625 20.40625 
Q 13.625 13.625 17.796875 9.90625 
Q 21.96875 6.203125 29.59375 6.203125 
Q 35.453125 6.203125 40.671875 7.515625 
Q 45.90625 8.84375 50.390625 11.375 
L 48.6875 2.484375 
Q 43.84375 0.53125 38.6875 -0.4375 
Q 33.546875 -1.421875 28.21875 -1.421875 
Q 16.84375 -1.421875 10.71875 4.015625 
Q 4.59375 9.46875 4.59375 19.484375 
Q 4.59375 28.03125 7.640625 35.375 
Q 10.6875 42.71875 16.609375 48.484375 
Q 20.40625 52.09375 25.65625 54.046875 
Q 30.90625 56 36.8125 56 
Q 46.09375 56 51.578125 50.4375 
Q 57.078125 44.875 57.078125 35.5 
Q 57.078125 33.25 56.78125 30.6875 
Q 56.5 28.125 55.90625 25.203125 
z
" id="DejaVuSans-Oblique-101"/>
      <path d="M 50 53.078125 
L 48.296875 44.578125 
Q 44.734375 46.53125 40.765625 47.5 
Q 36.8125 48.484375 32.625 48.484375 
Q 25.53125 48.484375 21.453125 46.0625 
Q 17.390625 43.65625 17.390625 39.5 
Q 17.390625 34.671875 26.859375 32.078125 
Q 27.59375 31.890625 27.9375 31.78125 
L 30.8125 30.90625 
Q 39.796875 28.421875 42.796875 25.6875 
Q 45.796875 22.953125 45.796875 18.21875 
Q 45.796875 9.515625 38.890625 4.046875 
Q 31.984375 -1.421875 20.796875 -1.421875 
Q 16.453125 -1.421875 11.671875 -0.578125 
Q 6.890625 0.25 1.125 2 
L 2.875 11.28125 
Q 7.8125 8.734375 12.59375 7.421875 
Q 17.390625 6.109375 21.78125 6.109375 
Q 28.375 6.109375 32.5 8.9375 
Q 36.625 11.765625 36.625 16.109375 
Q 36.625 20.796875 25.78125 23.6875 
L 24.859375 23.921875 
L 21.78125 24.703125 
Q 14.9375 26.515625 11.765625 29.46875 
Q 8.59375 32.421875 8.59375 37.015625 
Q 8.59375 45.75 15.15625 50.875 
Q 21.734375 56 33.015625 56 
Q 37.453125 56 41.671875 55.265625 
Q 45.90625 54.546875 50 53.078125 
z
" id="DejaVuSans-Oblique-115"/>
      <path d="M 10.59375 45.40625 
L 73.1875 45.40625 
L 73.1875 37.203125 
L 10.59375 37.203125 
z
M 10.59375 25.484375 
L 73.1875 25.484375 
L 73.1875 17.1875 
L 10.59375 17.1875 
z
" id="DejaVuSans-61"/>
      <path d="M 11.71875 12.40625 
L 22.015625 12.40625 
L 22.015625 4 
L 14.015625 -11.625 
L 7.71875 -11.625 
L 11.71875 4 
z
" id="DejaVuSans-44"/>
      <path d="M 36.8125 72.90625 
L 48 72.90625 
L 61.53125 0 
L 51.21875 0 
L 48.1875 18.703125 
L 15.375 18.703125 
L 5.078125 0 
L -5.328125 0 
z
M 40.375 63.1875 
L 19.921875 26.90625 
L 46.6875 26.90625 
z
" id="DejaVuSans-Oblique-65"/>
      <path d="M 16.890625 72.90625 
L 26.8125 72.90625 
L 12.59375 0 
L 2.6875 0 
z
" id="DejaVuSans-Oblique-73"/>
      <path d="M 60.296875 70.515625 
L 58.40625 60.890625 
Q 53.46875 63.53125 48.609375 64.875 
Q 43.75 66.21875 39.203125 66.21875 
Q 30.375 66.21875 25.140625 62.359375 
Q 19.921875 58.5 19.921875 52.09375 
Q 19.921875 48.578125 21.84375 46.703125 
Q 23.78125 44.828125 31.78125 42.671875 
L 37.703125 41.21875 
Q 47.703125 38.625 51.609375 34.640625 
Q 55.515625 30.671875 55.515625 23.484375 
Q 55.515625 12.453125 46.84375 5.515625 
Q 38.1875 -1.421875 24.03125 -1.421875 
Q 18.21875 -1.421875 12.359375 -0.265625 
Q 6.5 0.875 0.59375 3.21875 
L 2.59375 13.375 
Q 8.015625 10.015625 13.453125 8.296875 
Q 18.890625 6.59375 24.3125 6.59375 
Q 33.546875 6.59375 39.109375 10.6875 
Q 44.671875 14.796875 44.671875 21.390625 
Q 44.671875 25.78125 42.453125 28.046875 
Q 40.234375 30.328125 32.90625 32.171875 
L 27 33.6875 
Q 16.890625 36.328125 13.203125 39.765625 
Q 9.515625 43.21875 9.515625 49.421875 
Q 9.515625 60.296875 17.890625 67.25 
Q 26.265625 74.21875 39.703125 74.21875 
Q 44.921875 74.21875 50.046875 73.28125 
Q 55.171875 72.359375 60.296875 70.515625 
z
" id="DejaVuSans-Oblique-83"/>
      <path d="M 25.203125 64.796875 
L 20.21875 38.921875 
L 32.90625 38.921875 
Q 40.375 38.921875 44.984375 43.046875 
Q 49.609375 47.171875 49.609375 53.8125 
Q 49.609375 59.125 46.5 61.953125 
Q 43.40625 64.796875 37.59375 64.796875 
z
M 43.3125 35.015625 
Q 46.4375 34.28125 48.515625 31.390625 
Q 50.59375 28.515625 53.328125 19.921875 
L 59.515625 0 
L 49.125 0 
L 43.40625 18.703125 
Q 41.21875 25.921875 38.328125 28.359375 
Q 35.453125 30.8125 29.5 30.8125 
L 18.609375 30.8125 
L 12.59375 0 
L 2.6875 0 
L 16.890625 72.90625 
L 39.109375 72.90625 
Q 49.21875 72.90625 54.609375 68.328125 
Q 60.015625 63.765625 60.015625 55.171875 
Q 60.015625 47.5625 55.421875 41.984375 
Q 50.828125 36.421875 43.3125 35.015625 
z
" id="DejaVuSans-Oblique-82"/>
      <path d="M 53.71875 31.203125 
L 47.609375 0 
L 38.625 0 
L 40.28125 8.296875 
Q 36.328125 3.421875 31.265625 1 
Q 26.21875 -1.421875 20.015625 -1.421875 
Q 13.03125 -1.421875 8.5625 2.84375 
Q 4.109375 7.125 4.109375 13.8125 
Q 4.109375 23.390625 11.75 28.953125 
Q 19.390625 34.515625 32.8125 34.515625 
L 45.3125 34.515625 
L 45.796875 36.921875 
Q 45.90625 37.3125 45.953125 37.765625 
Q 46 38.234375 46 39.203125 
Q 46 43.5625 42.453125 45.96875 
Q 38.921875 48.390625 32.515625 48.390625 
Q 28.125 48.390625 23.5 47.265625 
Q 18.890625 46.140625 14.015625 43.890625 
L 15.578125 52.203125 
Q 20.65625 54.109375 25.515625 55.046875 
Q 30.375 56 34.90625 56 
Q 44.578125 56 49.625 51.796875 
Q 54.6875 47.609375 54.6875 39.59375 
Q 54.6875 37.984375 54.4375 35.8125 
Q 54.203125 33.640625 53.71875 31.203125 
z
M 44 27.484375 
L 35.015625 27.484375 
Q 23.96875 27.484375 18.671875 24.53125 
Q 13.375 21.578125 13.375 15.375 
Q 13.375 11.078125 16.078125 8.640625 
Q 18.796875 6.203125 23.578125 6.203125 
Q 30.90625 6.203125 36.375 11.453125 
Q 41.84375 16.703125 43.609375 25.484375 
z
" id="DejaVuSans-Oblique-97"/>
      <path d="M 41.796875 8.203125 
Q 38.1875 3.46875 33.25 1.015625 
Q 28.328125 -1.421875 22.3125 -1.421875 
Q 14.109375 -1.421875 9.34375 4.171875 
Q 4.59375 9.765625 4.59375 19.484375 
Q 4.59375 27.59375 7.46875 34.9375 
Q 10.359375 42.28125 15.828125 48.09375 
Q 19.4375 51.953125 23.96875 53.96875 
Q 28.515625 56 33.5 56 
Q 38.765625 56 42.796875 53.453125 
Q 46.828125 50.921875 49.03125 46.1875 
L 54.890625 75.984375 
L 63.921875 75.984375 
L 49.125 0 
L 40.09375 0 
z
M 13.921875 21.09375 
Q 13.921875 14.015625 17.109375 10.0625 
Q 20.3125 6.109375 25.984375 6.109375 
Q 30.171875 6.109375 33.765625 8.125 
Q 37.359375 10.15625 40.09375 14.109375 
Q 42.96875 18.21875 44.625 23.578125 
Q 46.296875 28.953125 46.296875 34.1875 
Q 46.296875 40.96875 43.09375 44.765625 
Q 39.890625 48.578125 34.28125 48.578125 
Q 30.03125 48.578125 26.359375 46.578125 
Q 22.703125 44.578125 20.125 40.828125 
Q 17.28125 36.765625 15.59375 31.390625 
Q 13.921875 26.03125 13.921875 21.09375 
z
" id="DejaVuSans-Oblique-100"/>
     </defs>
     <use transform="translate(0 0.015625)" xlink:href="#DejaVuSans-65"/>
     <use transform="translate(68.408203 0.015625)" xlink:href="#DejaVuSans-118"/>
     <use transform="translate(127.587891 0.015625)" xlink:href="#DejaVuSans-101"/>
     <use transform="translate(189.111328 0.015625)" xlink:href="#DejaVuSans-114"/>
     <use transform="translate(230.224609 0.015625)" xlink:href="#DejaVuSans-97"/>
     <use transform="translate(291.503906 0.015625)" xlink:href="#DejaVuSans-103"/>
     <use transform="translate(354.980469 0.015625)" xlink:href="#DejaVuSans-101"/>
     <use transform="translate(416.503906 0.015625)" xlink:href="#DejaVuSans-32"/>
     <use transform="translate(448.291016 0.015625)" xlink:href="#DejaVuSans-65"/>
     <use transform="translate(516.699219 0.015625)" xlink:href="#DejaVuSans-78"/>
     <use transform="translate(591.503906 0.015625)" xlink:href="#DejaVuSans-69"/>
     <use transform="translate(654.6875 0.015625)" xlink:href="#DejaVuSans-69"/>
     <use transform="translate(717.871094 0.015625)" xlink:href="#DejaVuSans-83"/>
     <use transform="translate(781.347656 0.015625)" xlink:href="#DejaVuSans-32"/>
     <use transform="translate(813.134766 0.015625)" xlink:href="#DejaVuSans-119"/>
     <use transform="translate(894.921875 0.015625)" xlink:href="#DejaVuSans-105"/>
     <use transform="translate(922.705078 0.015625)" xlink:href="#DejaVuSans-116"/>
     <use transform="translate(961.914062 0.015625)" xlink:href="#DejaVuSans-104"/>
     <use transform="translate(1025.292969 0.015625)" xlink:href="#DejaVuSans-32"/>
     <use transform="translate(1057.080078 0.015625)" xlink:href="#DejaVuSans-112"/>
     <use transform="translate(1120.556641 0.015625)" xlink:href="#DejaVuSans-97"/>
     <use transform="translate(1181.835938 0.015625)" xlink:href="#DejaVuSans-114"/>
     <use transform="translate(1222.949219 0.015625)" xlink:href="#DejaVuSans-97"/>
     <use transform="translate(1284.228516 0.015625)" xlink:href="#DejaVuSans-109"/>
     <use transform="translate(1381.640625 0.015625)" xlink:href="#DejaVuSans-101"/>
     <use transform="translate(1443.164062 0.015625)" xlink:href="#DejaVuSans-116"/>
     <use transform="translate(1482.373047 0.015625)" xlink:href="#DejaVuSans-101"/>
     <use transform="translate(1543.896484 0.015625)" xlink:href="#DejaVuSans-114"/>
     <use transform="translate(1585.009766 0.015625)" xlink:href="#DejaVuSans-115"/>
     <use transform="translate(1637.109375 0.015625)" xlink:href="#DejaVuSans-32"/>
     <use transform="translate(1668.896484 0.015625)" xlink:href="#DejaVuSans-Oblique-963"/>
     <use transform="translate(1732.275391 -16.390625)scale(0.7)" xlink:href="#DejaVuSans-Oblique-112"/>
     <use transform="translate(1776.708984 -16.390625)scale(0.7)" xlink:href="#DejaVuSans-Oblique-114"/>
     <use transform="translate(1805.488281 -16.390625)scale(0.7)" xlink:href="#DejaVuSans-Oblique-111"/>
     <use transform="translate(1848.31543 -16.390625)scale(0.7)" xlink:href="#DejaVuSans-Oblique-99"/>
     <use transform="translate(1886.801758 -16.390625)scale(0.7)" xlink:href="#DejaVuSans-Oblique-101"/>
     <use transform="translate(1929.868164 -16.390625)scale(0.7)" xlink:href="#DejaVuSans-Oblique-115"/>
     <use transform="translate(1966.337891 -16.390625)scale(0.7)" xlink:href="#DejaVuSans-Oblique-115"/>
     <use transform="translate(2025.024414 0.015625)" xlink:href="#DejaVuSans-61"/>
     <use transform="translate(2128.295898 0.015625)" xlink:href="#DejaVuSans-48"/>
     <use transform="translate(2191.918945 0.015625)" xlink:href="#DejaVuSans-46"/>
     <use transform="translate(2223.706055 0.015625)" xlink:href="#DejaVuSans-53"/>
     <use transform="translate(2287.329102 0.015625)" xlink:href="#DejaVuSans-44"/>
     <use transform="translate(2319.116211 0.015625)" xlink:href="#DejaVuSans-32"/>
     <use transform="translate(2350.90332 0.015625)" xlink:href="#DejaVuSans-32"/>
     <use transform="translate(2382.69043 0.015625)" xlink:href="#DejaVuSans-Oblique-963"/>
     <use transform="translate(2446.069336 -16.390625)scale(0.7)" xlink:href="#DejaVuSans-Oblique-65"/>
     <use transform="translate(2493.955078 -16.390625)scale(0.7)" xlink:href="#DejaVuSans-Oblique-73"/>
     <use transform="translate(2514.599609 -16.390625)scale(0.7)" xlink:href="#DejaVuSans-Oblique-83"/>
     <use transform="translate(2581.25 0.015625)" xlink:href="#DejaVuSans-61"/>
     <use transform="translate(2684.521484 0.015625)" xlink:href="#DejaVuSans-49"/>
     <use transform="translate(2748.144531 0.015625)" xlink:href="#DejaVuSans-48"/>
     <use transform="translate(2811.767578 0.015625)" xlink:href="#DejaVuSans-44"/>
     <use transform="translate(2843.554688 0.015625)" xlink:href="#DejaVuSans-32"/>
     <use transform="translate(2875.341797 0.015625)" xlink:href="#DejaVuSans-Oblique-963"/>
     <use transform="translate(2938.720703 -16.390625)scale(0.7)" xlink:href="#DejaVuSans-Oblique-82"/>
     <use transform="translate(2987.358398 -16.390625)scale(0.7)" xlink:href="#DejaVuSans-Oblique-97"/>
     <use transform="translate(3030.253906 -16.390625)scale(0.7)" xlink:href="#DejaVuSans-Oblique-100"/>
     <use transform="translate(3074.6875 -16.390625)scale(0.7)" xlink:href="#DejaVuSans-Oblique-97"/>
     <use transform="translate(3117.583008 -16.390625)scale(0.7)" xlink:href="#DejaVuSans-Oblique-114"/>
     <use transform="translate(3168.579102 0.015625)" xlink:href="#DejaVuSans-61"/>
     <use transform="translate(3271.850586 0.015625)" xlink:href="#DejaVuSans-49"/>
     <use transform="translate(3335.473633 0.015625)" xlink:href="#DejaVuSans-48"/>
     <use transform="translate(3399.09668 0.015625)" xlink:href="#DejaVuSans-48"/>
    </g>
   </g>
   <g id="legend_1">
    <g id="patch_7">
     <path d="M 566.607813 95.1765 
L 702.2 95.1765 
Q 704.2 95.1765 704.2 93.1765 
L 704.2 35.464 
Q 704.2 33.464 702.2 33.464 
L 566.607813 33.464 
Q 564.607813 33.464 564.607813 35.464 
L 564.607813 93.1765 
Q 564.607813 95.1765 566.607813 95.1765 
z
" style="fill:#ffffff;opacity:0.8;stroke:#cccccc;stroke-linejoin:miter;"/>
    </g>
    <g id="line2d_21">
     <path d="M 568.607813 41.562438 
L 588.607813 41.562438 
" style="fill:none;stroke:#000000;stroke-linecap:square;stroke-width:1.5;"/>
    </g>
    <g id="line2d_22"/>
    <g id="text_19">
     <!-- Confidence Intervals -->
     <g transform="translate(596.607813 45.062438)scale(0.1 -0.1)">
      <defs>
       <path d="M 37.109375 75.984375 
L 37.109375 68.5 
L 28.515625 68.5 
Q 23.6875 68.5 21.796875 66.546875 
Q 19.921875 64.59375 19.921875 59.515625 
L 19.921875 54.6875 
L 34.71875 54.6875 
L 34.71875 47.703125 
L 19.921875 47.703125 
L 19.921875 0 
L 10.890625 0 
L 10.890625 47.703125 
L 2.296875 47.703125 
L 2.296875 54.6875 
L 10.890625 54.6875 
L 10.890625 58.5 
Q 10.890625 67.625 15.140625 71.796875 
Q 19.390625 75.984375 28.609375 75.984375 
z
" id="DejaVuSans-102"/>
       <path d="M 45.40625 46.390625 
L 45.40625 75.984375 
L 54.390625 75.984375 
L 54.390625 0 
L 45.40625 0 
L 45.40625 8.203125 
Q 42.578125 3.328125 38.25 0.953125 
Q 33.9375 -1.421875 27.875 -1.421875 
Q 17.96875 -1.421875 11.734375 6.484375 
Q 5.515625 14.40625 5.515625 27.296875 
Q 5.515625 40.1875 11.734375 48.09375 
Q 17.96875 56 27.875 56 
Q 33.9375 56 38.25 53.625 
Q 42.578125 51.265625 45.40625 46.390625 
z
M 14.796875 27.296875 
Q 14.796875 17.390625 18.875 11.75 
Q 22.953125 6.109375 30.078125 6.109375 
Q 37.203125 6.109375 41.296875 11.75 
Q 45.40625 17.390625 45.40625 27.296875 
Q 45.40625 37.203125 41.296875 42.84375 
Q 37.203125 48.484375 30.078125 48.484375 
Q 22.953125 48.484375 18.875 42.84375 
Q 14.796875 37.203125 14.796875 27.296875 
z
" id="DejaVuSans-100"/>
       <path d="M 48.78125 52.59375 
L 48.78125 44.1875 
Q 44.96875 46.296875 41.140625 47.34375 
Q 37.3125 48.390625 33.40625 48.390625 
Q 24.65625 48.390625 19.8125 42.84375 
Q 14.984375 37.3125 14.984375 27.296875 
Q 14.984375 17.28125 19.8125 11.734375 
Q 24.65625 6.203125 33.40625 6.203125 
Q 37.3125 6.203125 41.140625 7.25 
Q 44.96875 8.296875 48.78125 10.40625 
L 48.78125 2.09375 
Q 45.015625 0.34375 40.984375 -0.53125 
Q 36.96875 -1.421875 32.421875 -1.421875 
Q 20.0625 -1.421875 12.78125 6.34375 
Q 5.515625 14.109375 5.515625 27.296875 
Q 5.515625 40.671875 12.859375 48.328125 
Q 20.21875 56 33.015625 56 
Q 37.15625 56 41.109375 55.140625 
Q 45.0625 54.296875 48.78125 52.59375 
z
" id="DejaVuSans-99"/>
       <path d="M 9.8125 72.90625 
L 19.671875 72.90625 
L 19.671875 0 
L 9.8125 0 
z
" id="DejaVuSans-73"/>
       <path d="M 9.421875 75.984375 
L 18.40625 75.984375 
L 18.40625 0 
L 9.421875 0 
z
" id="DejaVuSans-108"/>
      </defs>
      <use xlink:href="#DejaVuSans-67"/>
      <use x="69.824219" xlink:href="#DejaVuSans-111"/>
      <use x="131.005859" xlink:href="#DejaVuSans-110"/>
      <use x="194.384766" xlink:href="#DejaVuSans-102"/>
      <use x="229.589844" xlink:href="#DejaVuSans-105"/>
      <use x="257.373047" xlink:href="#DejaVuSans-100"/>
      <use x="320.849609" xlink:href="#DejaVuSans-101"/>
      <use x="382.373047" xlink:href="#DejaVuSans-110"/>
      <use x="445.751953" xlink:href="#DejaVuSans-99"/>
      <use x="500.732422" xlink:href="#DejaVuSans-101"/>
      <use x="562.255859" xlink:href="#DejaVuSans-32"/>
      <use x="594.042969" xlink:href="#DejaVuSans-73"/>
      <use x="623.535156" xlink:href="#DejaVuSans-110"/>
      <use x="686.914062" xlink:href="#DejaVuSans-116"/>
      <use x="726.123047" xlink:href="#DejaVuSans-101"/>
      <use x="787.646484" xlink:href="#DejaVuSans-114"/>
      <use x="828.759766" xlink:href="#DejaVuSans-118"/>
      <use x="887.939453" xlink:href="#DejaVuSans-97"/>
      <use x="949.21875" xlink:href="#DejaVuSans-108"/>
      <use x="977.001953" xlink:href="#DejaVuSans-115"/>
     </g>
    </g>
    <g id="line2d_23">
     <path d="M 568.607813 56.240563 
L 588.607813 56.240563 
" style="fill:none;stroke:#0000ff;stroke-linecap:square;stroke-width:1.5;"/>
    </g>
    <g id="line2d_24"/>
    <g id="text_20">
     <!-- Independent -->
     <g transform="translate(596.607813 59.740563)scale(0.1 -0.1)">
      <use xlink:href="#DejaVuSans-73"/>
      <use x="29.492188" xlink:href="#DejaVuSans-110"/>
      <use x="92.871094" xlink:href="#DejaVuSans-100"/>
      <use x="156.347656" xlink:href="#DejaVuSans-101"/>
      <use x="217.871094" xlink:href="#DejaVuSans-112"/>
      <use x="281.347656" xlink:href="#DejaVuSans-101"/>
      <use x="342.871094" xlink:href="#DejaVuSans-110"/>
      <use x="406.25" xlink:href="#DejaVuSans-100"/>
      <use x="469.726562" xlink:href="#DejaVuSans-101"/>
      <use x="531.25" xlink:href="#DejaVuSans-110"/>
      <use x="594.628906" xlink:href="#DejaVuSans-116"/>
     </g>
    </g>
    <g id="line2d_25">
     <path d="M 568.607813 70.918688 
L 588.607813 70.918688 
" style="fill:none;stroke:#ff0000;stroke-linecap:square;stroke-width:1.5;"/>
    </g>
    <g id="line2d_26"/>
    <g id="text_21">
     <!-- Dependent -->
     <g transform="translate(596.607813 74.418688)scale(0.1 -0.1)">
      <defs>
       <path d="M 19.671875 64.796875 
L 19.671875 8.109375 
L 31.59375 8.109375 
Q 46.6875 8.109375 53.6875 14.9375 
Q 60.6875 21.78125 60.6875 36.53125 
Q 60.6875 51.171875 53.6875 57.984375 
Q 46.6875 64.796875 31.59375 64.796875 
z
M 9.8125 72.90625 
L 30.078125 72.90625 
Q 51.265625 72.90625 61.171875 64.09375 
Q 71.09375 55.28125 71.09375 36.53125 
Q 71.09375 17.671875 61.125 8.828125 
Q 51.171875 0 30.078125 0 
L 9.8125 0 
z
" id="DejaVuSans-68"/>
      </defs>
      <use xlink:href="#DejaVuSans-68"/>
      <use x="77.001953" xlink:href="#DejaVuSans-101"/>
      <use x="138.525391" xlink:href="#DejaVuSans-112"/>
      <use x="202.001953" xlink:href="#DejaVuSans-101"/>
      <use x="263.525391" xlink:href="#DejaVuSans-110"/>
      <use x="326.904297" xlink:href="#DejaVuSans-100"/>
      <use x="390.380859" xlink:href="#DejaVuSans-101"/>
      <use x="451.904297" xlink:href="#DejaVuSans-110"/>
      <use x="515.283203" xlink:href="#DejaVuSans-116"/>
     </g>
    </g>
    <g id="line2d_27">
     <path d="M 568.607813 85.596813 
L 588.607813 85.596813 
" style="fill:none;stroke:#008000;stroke-linecap:square;stroke-width:1.5;"/>
    </g>
    <g id="line2d_28"/>
    <g id="text_22">
     <!-- AIS as measurement -->
     <g transform="translate(596.607813 89.096813)scale(0.1 -0.1)">
      <defs>
       <path d="M 8.5 21.578125 
L 8.5 54.6875 
L 17.484375 54.6875 
L 17.484375 21.921875 
Q 17.484375 14.15625 20.5 10.265625 
Q 23.53125 6.390625 29.59375 6.390625 
Q 36.859375 6.390625 41.078125 11.03125 
Q 45.3125 15.671875 45.3125 23.6875 
L 45.3125 54.6875 
L 54.296875 54.6875 
L 54.296875 0 
L 45.3125 0 
L 45.3125 8.40625 
Q 42.046875 3.421875 37.71875 1 
Q 33.40625 -1.421875 27.6875 -1.421875 
Q 18.265625 -1.421875 13.375 4.4375 
Q 8.5 10.296875 8.5 21.578125 
z
M 31.109375 56 
z
" id="DejaVuSans-117"/>
      </defs>
      <use xlink:href="#DejaVuSans-65"/>
      <use x="68.408203" xlink:href="#DejaVuSans-73"/>
      <use x="97.900391" xlink:href="#DejaVuSans-83"/>
      <use x="161.376953" xlink:href="#DejaVuSans-32"/>
      <use x="193.164062" xlink:href="#DejaVuSans-97"/>
      <use x="254.443359" xlink:href="#DejaVuSans-115"/>
      <use x="306.542969" xlink:href="#DejaVuSans-32"/>
      <use x="338.330078" xlink:href="#DejaVuSans-109"/>
      <use x="435.742188" xlink:href="#DejaVuSans-101"/>
      <use x="497.265625" xlink:href="#DejaVuSans-97"/>
      <use x="558.544922" xlink:href="#DejaVuSans-115"/>
      <use x="610.644531" xlink:href="#DejaVuSans-117"/>
      <use x="674.023438" xlink:href="#DejaVuSans-114"/>
      <use x="712.886719" xlink:href="#DejaVuSans-101"/>
      <use x="774.410156" xlink:href="#DejaVuSans-109"/>
      <use x="871.822266" xlink:href="#DejaVuSans-101"/>
      <use x="933.345703" xlink:href="#DejaVuSans-110"/>
      <use x="996.724609" xlink:href="#DejaVuSans-116"/>
     </g>
    </g>
   </g>
  </g>
 </g>
 <defs>
  <clipPath id="p05e5158fea">
   <rect height="361.576" width="661.48" x="47.72" y="28.464"/>
  </clipPath>
 </defs>
</svg>
