<?xml version="1.0" encoding="utf-8" standalone="no"?>
<!DOCTYPE svg PUBLIC "-//W3C//DTD SVG 1.1//EN"
  "http://www.w3.org/Graphics/SVG/1.1/DTD/svg11.dtd">
<!-- Created with matplotlib (https://matplotlib.org/) -->
<svg height="432pt" version="1.1" viewBox="0 0 720 432" width="720pt" xmlns="http://www.w3.org/2000/svg" xmlns:xlink="http://www.w3.org/1999/xlink">
 <metadata>
  <rdf:RDF xmlns:cc="http://creativecommons.org/ns#" xmlns:dc="http://purl.org/dc/elements/1.1/" xmlns:rdf="http://www.w3.org/1999/02/22-rdf-syntax-ns#">
   <cc:Work>
    <dc:type rdf:resource="http://purl.org/dc/dcmitype/StillImage"/>
    <dc:date>2020-10-14T12:13:00.819432</dc:date>
    <dc:format>image/svg+xml</dc:format>
    <dc:creator>
     <cc:Agent>
      <dc:title>Matplotlib v3.3.1, https://matplotlib.org/</dc:title>
     </cc:Agent>
    </dc:creator>
   </cc:Work>
  </rdf:RDF>
 </metadata>
 <defs>
  <style type="text/css">*{stroke-linecap:butt;stroke-linejoin:round;}</style>
 </defs>
 <g id="figure_1">
  <g id="patch_1">
   <path d="M 0 432 
L 720 432 
L 720 0 
L 0 0 
z
" style="fill:#ffffff;"/>
  </g>
  <g id="axes_1">
   <g id="patch_2">
    <path d="M 47.72 390.04 
L 709.2 390.04 
L 709.2 28.464 
L 47.72 28.464 
z
" style="fill:#ffffff;"/>
   </g>
   <g id="matplotlib.axis_1">
    <g id="xtick_1">
     <g id="line2d_1">
      <defs>
       <path d="M 0 0 
L 0 3.5 
" id="m3a2fafb5e8" style="stroke:#000000;stroke-width:0.8;"/>
      </defs>
      <g>
       <use style="stroke:#000000;stroke-width:0.8;" x="77.787273" xlink:href="#m3a2fafb5e8" y="390.04"/>
      </g>
     </g>
     <g id="text_1">
      <!-- 0 -->
      <g transform="translate(74.606023 404.638438)scale(0.1 -0.1)">
       <defs>
        <path d="M 31.78125 66.40625 
Q 24.171875 66.40625 20.328125 58.90625 
Q 16.5 51.421875 16.5 36.375 
Q 16.5 21.390625 20.328125 13.890625 
Q 24.171875 6.390625 31.78125 6.390625 
Q 39.453125 6.390625 43.28125 13.890625 
Q 47.125 21.390625 47.125 36.375 
Q 47.125 51.421875 43.28125 58.90625 
Q 39.453125 66.40625 31.78125 66.40625 
z
M 31.78125 74.21875 
Q 44.046875 74.21875 50.515625 64.515625 
Q 56.984375 54.828125 56.984375 36.375 
Q 56.984375 17.96875 50.515625 8.265625 
Q 44.046875 -1.421875 31.78125 -1.421875 
Q 19.53125 -1.421875 13.0625 8.265625 
Q 6.59375 17.96875 6.59375 36.375 
Q 6.59375 54.828125 13.0625 64.515625 
Q 19.53125 74.21875 31.78125 74.21875 
z
" id="DejaVuSans-48"/>
       </defs>
       <use xlink:href="#DejaVuSans-48"/>
      </g>
     </g>
    </g>
    <g id="xtick_2">
     <g id="line2d_2">
      <g>
       <use style="stroke:#000000;stroke-width:0.8;" x="198.297384" xlink:href="#m3a2fafb5e8" y="390.04"/>
      </g>
     </g>
     <g id="text_2">
      <!-- 100 -->
      <g transform="translate(188.753634 404.638438)scale(0.1 -0.1)">
       <defs>
        <path d="M 12.40625 8.296875 
L 28.515625 8.296875 
L 28.515625 63.921875 
L 10.984375 60.40625 
L 10.984375 69.390625 
L 28.421875 72.90625 
L 38.28125 72.90625 
L 38.28125 8.296875 
L 54.390625 8.296875 
L 54.390625 0 
L 12.40625 0 
z
" id="DejaVuSans-49"/>
       </defs>
       <use xlink:href="#DejaVuSans-49"/>
       <use x="63.623047" xlink:href="#DejaVuSans-48"/>
       <use x="127.246094" xlink:href="#DejaVuSans-48"/>
      </g>
     </g>
    </g>
    <g id="xtick_3">
     <g id="line2d_3">
      <g>
       <use style="stroke:#000000;stroke-width:0.8;" x="318.807495" xlink:href="#m3a2fafb5e8" y="390.04"/>
      </g>
     </g>
     <g id="text_3">
      <!-- 200 -->
      <g transform="translate(309.263745 404.638438)scale(0.1 -0.1)">
       <defs>
        <path d="M 19.1875 8.296875 
L 53.609375 8.296875 
L 53.609375 0 
L 7.328125 0 
L 7.328125 8.296875 
Q 12.9375 14.109375 22.625 23.890625 
Q 32.328125 33.6875 34.8125 36.53125 
Q 39.546875 41.84375 41.421875 45.53125 
Q 43.3125 49.21875 43.3125 52.78125 
Q 43.3125 58.59375 39.234375 62.25 
Q 35.15625 65.921875 28.609375 65.921875 
Q 23.96875 65.921875 18.8125 64.3125 
Q 13.671875 62.703125 7.8125 59.421875 
L 7.8125 69.390625 
Q 13.765625 71.78125 18.9375 73 
Q 24.125 74.21875 28.421875 74.21875 
Q 39.75 74.21875 46.484375 68.546875 
Q 53.21875 62.890625 53.21875 53.421875 
Q 53.21875 48.921875 51.53125 44.890625 
Q 49.859375 40.875 45.40625 35.40625 
Q 44.1875 33.984375 37.640625 27.21875 
Q 31.109375 20.453125 19.1875 8.296875 
z
" id="DejaVuSans-50"/>
       </defs>
       <use xlink:href="#DejaVuSans-50"/>
       <use x="63.623047" xlink:href="#DejaVuSans-48"/>
       <use x="127.246094" xlink:href="#DejaVuSans-48"/>
      </g>
     </g>
    </g>
    <g id="xtick_4">
     <g id="line2d_4">
      <g>
       <use style="stroke:#000000;stroke-width:0.8;" x="439.317606" xlink:href="#m3a2fafb5e8" y="390.04"/>
      </g>
     </g>
     <g id="text_4">
      <!-- 300 -->
      <g transform="translate(429.773856 404.638438)scale(0.1 -0.1)">
       <defs>
        <path d="M 40.578125 39.3125 
Q 47.65625 37.796875 51.625 33 
Q 55.609375 28.21875 55.609375 21.1875 
Q 55.609375 10.40625 48.1875 4.484375 
Q 40.765625 -1.421875 27.09375 -1.421875 
Q 22.515625 -1.421875 17.65625 -0.515625 
Q 12.796875 0.390625 7.625 2.203125 
L 7.625 11.71875 
Q 11.71875 9.328125 16.59375 8.109375 
Q 21.484375 6.890625 26.8125 6.890625 
Q 36.078125 6.890625 40.9375 10.546875 
Q 45.796875 14.203125 45.796875 21.1875 
Q 45.796875 27.640625 41.28125 31.265625 
Q 36.765625 34.90625 28.71875 34.90625 
L 20.21875 34.90625 
L 20.21875 43.015625 
L 29.109375 43.015625 
Q 36.375 43.015625 40.234375 45.921875 
Q 44.09375 48.828125 44.09375 54.296875 
Q 44.09375 59.90625 40.109375 62.90625 
Q 36.140625 65.921875 28.71875 65.921875 
Q 24.65625 65.921875 20.015625 65.03125 
Q 15.375 64.15625 9.8125 62.3125 
L 9.8125 71.09375 
Q 15.4375 72.65625 20.34375 73.4375 
Q 25.25 74.21875 29.59375 74.21875 
Q 40.828125 74.21875 47.359375 69.109375 
Q 53.90625 64.015625 53.90625 55.328125 
Q 53.90625 49.265625 50.4375 45.09375 
Q 46.96875 40.921875 40.578125 39.3125 
z
" id="DejaVuSans-51"/>
       </defs>
       <use xlink:href="#DejaVuSans-51"/>
       <use x="63.623047" xlink:href="#DejaVuSans-48"/>
       <use x="127.246094" xlink:href="#DejaVuSans-48"/>
      </g>
     </g>
    </g>
    <g id="xtick_5">
     <g id="line2d_5">
      <g>
       <use style="stroke:#000000;stroke-width:0.8;" x="559.827717" xlink:href="#m3a2fafb5e8" y="390.04"/>
      </g>
     </g>
     <g id="text_5">
      <!-- 400 -->
      <g transform="translate(550.283967 404.638438)scale(0.1 -0.1)">
       <defs>
        <path d="M 37.796875 64.3125 
L 12.890625 25.390625 
L 37.796875 25.390625 
z
M 35.203125 72.90625 
L 47.609375 72.90625 
L 47.609375 25.390625 
L 58.015625 25.390625 
L 58.015625 17.1875 
L 47.609375 17.1875 
L 47.609375 0 
L 37.796875 0 
L 37.796875 17.1875 
L 4.890625 17.1875 
L 4.890625 26.703125 
z
" id="DejaVuSans-52"/>
       </defs>
       <use xlink:href="#DejaVuSans-52"/>
       <use x="63.623047" xlink:href="#DejaVuSans-48"/>
       <use x="127.246094" xlink:href="#DejaVuSans-48"/>
      </g>
     </g>
    </g>
    <g id="xtick_6">
     <g id="line2d_6">
      <g>
       <use style="stroke:#000000;stroke-width:0.8;" x="680.337828" xlink:href="#m3a2fafb5e8" y="390.04"/>
      </g>
     </g>
     <g id="text_6">
      <!-- 500 -->
      <g transform="translate(670.794078 404.638438)scale(0.1 -0.1)">
       <defs>
        <path d="M 10.796875 72.90625 
L 49.515625 72.90625 
L 49.515625 64.59375 
L 19.828125 64.59375 
L 19.828125 46.734375 
Q 21.96875 47.46875 24.109375 47.828125 
Q 26.265625 48.1875 28.421875 48.1875 
Q 40.625 48.1875 47.75 41.5 
Q 54.890625 34.8125 54.890625 23.390625 
Q 54.890625 11.625 47.5625 5.09375 
Q 40.234375 -1.421875 26.90625 -1.421875 
Q 22.3125 -1.421875 17.546875 -0.640625 
Q 12.796875 0.140625 7.71875 1.703125 
L 7.71875 11.625 
Q 12.109375 9.234375 16.796875 8.0625 
Q 21.484375 6.890625 26.703125 6.890625 
Q 35.15625 6.890625 40.078125 11.328125 
Q 45.015625 15.765625 45.015625 23.390625 
Q 45.015625 31 40.078125 35.4375 
Q 35.15625 39.890625 26.703125 39.890625 
Q 22.75 39.890625 18.8125 39.015625 
Q 14.890625 38.140625 10.796875 36.28125 
z
" id="DejaVuSans-53"/>
       </defs>
       <use xlink:href="#DejaVuSans-53"/>
       <use x="63.623047" xlink:href="#DejaVuSans-48"/>
       <use x="127.246094" xlink:href="#DejaVuSans-48"/>
      </g>
     </g>
    </g>
    <g id="text_7">
     <!-- MC iterations -->
     <g transform="translate(345.338125 418.316562)scale(0.1 -0.1)">
      <defs>
       <path d="M 9.8125 72.90625 
L 24.515625 72.90625 
L 43.109375 23.296875 
L 61.8125 72.90625 
L 76.515625 72.90625 
L 76.515625 0 
L 66.890625 0 
L 66.890625 64.015625 
L 48.09375 14.015625 
L 38.1875 14.015625 
L 19.390625 64.015625 
L 19.390625 0 
L 9.8125 0 
z
" id="DejaVuSans-77"/>
       <path d="M 64.40625 67.28125 
L 64.40625 56.890625 
Q 59.421875 61.53125 53.78125 63.8125 
Q 48.140625 66.109375 41.796875 66.109375 
Q 29.296875 66.109375 22.65625 58.46875 
Q 16.015625 50.828125 16.015625 36.375 
Q 16.015625 21.96875 22.65625 14.328125 
Q 29.296875 6.6875 41.796875 6.6875 
Q 48.140625 6.6875 53.78125 8.984375 
Q 59.421875 11.28125 64.40625 15.921875 
L 64.40625 5.609375 
Q 59.234375 2.09375 53.4375 0.328125 
Q 47.65625 -1.421875 41.21875 -1.421875 
Q 24.65625 -1.421875 15.125 8.703125 
Q 5.609375 18.84375 5.609375 36.375 
Q 5.609375 53.953125 15.125 64.078125 
Q 24.65625 74.21875 41.21875 74.21875 
Q 47.75 74.21875 53.53125 72.484375 
Q 59.328125 70.75 64.40625 67.28125 
z
" id="DejaVuSans-67"/>
       <path id="DejaVuSans-32"/>
       <path d="M 9.421875 54.6875 
L 18.40625 54.6875 
L 18.40625 0 
L 9.421875 0 
z
M 9.421875 75.984375 
L 18.40625 75.984375 
L 18.40625 64.59375 
L 9.421875 64.59375 
z
" id="DejaVuSans-105"/>
       <path d="M 18.3125 70.21875 
L 18.3125 54.6875 
L 36.8125 54.6875 
L 36.8125 47.703125 
L 18.3125 47.703125 
L 18.3125 18.015625 
Q 18.3125 11.328125 20.140625 9.421875 
Q 21.96875 7.515625 27.59375 7.515625 
L 36.8125 7.515625 
L 36.8125 0 
L 27.59375 0 
Q 17.1875 0 13.234375 3.875 
Q 9.28125 7.765625 9.28125 18.015625 
L 9.28125 47.703125 
L 2.6875 47.703125 
L 2.6875 54.6875 
L 9.28125 54.6875 
L 9.28125 70.21875 
z
" id="DejaVuSans-116"/>
       <path d="M 56.203125 29.59375 
L 56.203125 25.203125 
L 14.890625 25.203125 
Q 15.484375 15.921875 20.484375 11.0625 
Q 25.484375 6.203125 34.421875 6.203125 
Q 39.59375 6.203125 44.453125 7.46875 
Q 49.3125 8.734375 54.109375 11.28125 
L 54.109375 2.78125 
Q 49.265625 0.734375 44.1875 -0.34375 
Q 39.109375 -1.421875 33.890625 -1.421875 
Q 20.796875 -1.421875 13.15625 6.1875 
Q 5.515625 13.8125 5.515625 26.8125 
Q 5.515625 40.234375 12.765625 48.109375 
Q 20.015625 56 32.328125 56 
Q 43.359375 56 49.78125 48.890625 
Q 56.203125 41.796875 56.203125 29.59375 
z
M 47.21875 32.234375 
Q 47.125 39.59375 43.09375 43.984375 
Q 39.0625 48.390625 32.421875 48.390625 
Q 24.90625 48.390625 20.390625 44.140625 
Q 15.875 39.890625 15.1875 32.171875 
z
" id="DejaVuSans-101"/>
       <path d="M 41.109375 46.296875 
Q 39.59375 47.171875 37.8125 47.578125 
Q 36.03125 48 33.890625 48 
Q 26.265625 48 22.1875 43.046875 
Q 18.109375 38.09375 18.109375 28.8125 
L 18.109375 0 
L 9.078125 0 
L 9.078125 54.6875 
L 18.109375 54.6875 
L 18.109375 46.1875 
Q 20.953125 51.171875 25.484375 53.578125 
Q 30.03125 56 36.53125 56 
Q 37.453125 56 38.578125 55.875 
Q 39.703125 55.765625 41.0625 55.515625 
z
" id="DejaVuSans-114"/>
       <path d="M 34.28125 27.484375 
Q 23.390625 27.484375 19.1875 25 
Q 14.984375 22.515625 14.984375 16.5 
Q 14.984375 11.71875 18.140625 8.90625 
Q 21.296875 6.109375 26.703125 6.109375 
Q 34.1875 6.109375 38.703125 11.40625 
Q 43.21875 16.703125 43.21875 25.484375 
L 43.21875 27.484375 
z
M 52.203125 31.203125 
L 52.203125 0 
L 43.21875 0 
L 43.21875 8.296875 
Q 40.140625 3.328125 35.546875 0.953125 
Q 30.953125 -1.421875 24.3125 -1.421875 
Q 15.921875 -1.421875 10.953125 3.296875 
Q 6 8.015625 6 15.921875 
Q 6 25.140625 12.171875 29.828125 
Q 18.359375 34.515625 30.609375 34.515625 
L 43.21875 34.515625 
L 43.21875 35.40625 
Q 43.21875 41.609375 39.140625 45 
Q 35.0625 48.390625 27.6875 48.390625 
Q 23 48.390625 18.546875 47.265625 
Q 14.109375 46.140625 10.015625 43.890625 
L 10.015625 52.203125 
Q 14.9375 54.109375 19.578125 55.046875 
Q 24.21875 56 28.609375 56 
Q 40.484375 56 46.34375 49.84375 
Q 52.203125 43.703125 52.203125 31.203125 
z
" id="DejaVuSans-97"/>
       <path d="M 30.609375 48.390625 
Q 23.390625 48.390625 19.1875 42.75 
Q 14.984375 37.109375 14.984375 27.296875 
Q 14.984375 17.484375 19.15625 11.84375 
Q 23.34375 6.203125 30.609375 6.203125 
Q 37.796875 6.203125 41.984375 11.859375 
Q 46.1875 17.53125 46.1875 27.296875 
Q 46.1875 37.015625 41.984375 42.703125 
Q 37.796875 48.390625 30.609375 48.390625 
z
M 30.609375 56 
Q 42.328125 56 49.015625 48.375 
Q 55.71875 40.765625 55.71875 27.296875 
Q 55.71875 13.875 49.015625 6.21875 
Q 42.328125 -1.421875 30.609375 -1.421875 
Q 18.84375 -1.421875 12.171875 6.21875 
Q 5.515625 13.875 5.515625 27.296875 
Q 5.515625 40.765625 12.171875 48.375 
Q 18.84375 56 30.609375 56 
z
" id="DejaVuSans-111"/>
       <path d="M 54.890625 33.015625 
L 54.890625 0 
L 45.90625 0 
L 45.90625 32.71875 
Q 45.90625 40.484375 42.875 44.328125 
Q 39.84375 48.1875 33.796875 48.1875 
Q 26.515625 48.1875 22.3125 43.546875 
Q 18.109375 38.921875 18.109375 30.90625 
L 18.109375 0 
L 9.078125 0 
L 9.078125 54.6875 
L 18.109375 54.6875 
L 18.109375 46.1875 
Q 21.34375 51.125 25.703125 53.5625 
Q 30.078125 56 35.796875 56 
Q 45.21875 56 50.046875 50.171875 
Q 54.890625 44.34375 54.890625 33.015625 
z
" id="DejaVuSans-110"/>
       <path d="M 44.28125 53.078125 
L 44.28125 44.578125 
Q 40.484375 46.53125 36.375 47.5 
Q 32.28125 48.484375 27.875 48.484375 
Q 21.1875 48.484375 17.84375 46.4375 
Q 14.5 44.390625 14.5 40.28125 
Q 14.5 37.15625 16.890625 35.375 
Q 19.28125 33.59375 26.515625 31.984375 
L 29.59375 31.296875 
Q 39.15625 29.25 43.1875 25.515625 
Q 47.21875 21.78125 47.21875 15.09375 
Q 47.21875 7.46875 41.1875 3.015625 
Q 35.15625 -1.421875 24.609375 -1.421875 
Q 20.21875 -1.421875 15.453125 -0.5625 
Q 10.6875 0.296875 5.421875 2 
L 5.421875 11.28125 
Q 10.40625 8.6875 15.234375 7.390625 
Q 20.0625 6.109375 24.8125 6.109375 
Q 31.15625 6.109375 34.5625 8.28125 
Q 37.984375 10.453125 37.984375 14.40625 
Q 37.984375 18.0625 35.515625 20.015625 
Q 33.0625 21.96875 24.703125 23.78125 
L 21.578125 24.515625 
Q 13.234375 26.265625 9.515625 29.90625 
Q 5.8125 33.546875 5.8125 39.890625 
Q 5.8125 47.609375 11.28125 51.796875 
Q 16.75 56 26.8125 56 
Q 31.78125 56 36.171875 55.265625 
Q 40.578125 54.546875 44.28125 53.078125 
z
" id="DejaVuSans-115"/>
      </defs>
      <use xlink:href="#DejaVuSans-77"/>
      <use x="86.279297" xlink:href="#DejaVuSans-67"/>
      <use x="156.103516" xlink:href="#DejaVuSans-32"/>
      <use x="187.890625" xlink:href="#DejaVuSans-105"/>
      <use x="215.673828" xlink:href="#DejaVuSans-116"/>
      <use x="254.882812" xlink:href="#DejaVuSans-101"/>
      <use x="316.40625" xlink:href="#DejaVuSans-114"/>
      <use x="357.519531" xlink:href="#DejaVuSans-97"/>
      <use x="418.798828" xlink:href="#DejaVuSans-116"/>
      <use x="458.007812" xlink:href="#DejaVuSans-105"/>
      <use x="485.791016" xlink:href="#DejaVuSans-111"/>
      <use x="546.972656" xlink:href="#DejaVuSans-110"/>
      <use x="610.351562" xlink:href="#DejaVuSans-115"/>
     </g>
    </g>
   </g>
   <g id="matplotlib.axis_2">
    <g id="ytick_1">
     <g id="line2d_7">
      <defs>
       <path d="M 0 0 
L -3.5 0 
" id="me3f113ace9" style="stroke:#000000;stroke-width:0.8;"/>
      </defs>
      <g>
       <use style="stroke:#000000;stroke-width:0.8;" x="47.72" xlink:href="#me3f113ace9" y="390.04"/>
      </g>
     </g>
     <g id="text_8">
      <!-- 2.5 -->
      <g transform="translate(24.816875 393.839219)scale(0.1 -0.1)">
       <defs>
        <path d="M 10.6875 12.40625 
L 21 12.40625 
L 21 0 
L 10.6875 0 
z
" id="DejaVuSans-46"/>
       </defs>
       <use xlink:href="#DejaVuSans-50"/>
       <use x="63.623047" xlink:href="#DejaVuSans-46"/>
       <use x="95.410156" xlink:href="#DejaVuSans-53"/>
      </g>
     </g>
    </g>
    <g id="ytick_2">
     <g id="line2d_8">
      <g>
       <use style="stroke:#000000;stroke-width:0.8;" x="47.72" xlink:href="#me3f113ace9" y="344.843"/>
      </g>
     </g>
     <g id="text_9">
      <!-- 3.0 -->
      <g transform="translate(24.816875 348.642219)scale(0.1 -0.1)">
       <use xlink:href="#DejaVuSans-51"/>
       <use x="63.623047" xlink:href="#DejaVuSans-46"/>
       <use x="95.410156" xlink:href="#DejaVuSans-48"/>
      </g>
     </g>
    </g>
    <g id="ytick_3">
     <g id="line2d_9">
      <g>
       <use style="stroke:#000000;stroke-width:0.8;" x="47.72" xlink:href="#me3f113ace9" y="299.646"/>
      </g>
     </g>
     <g id="text_10">
      <!-- 3.5 -->
      <g transform="translate(24.816875 303.445219)scale(0.1 -0.1)">
       <use xlink:href="#DejaVuSans-51"/>
       <use x="63.623047" xlink:href="#DejaVuSans-46"/>
       <use x="95.410156" xlink:href="#DejaVuSans-53"/>
      </g>
     </g>
    </g>
    <g id="ytick_4">
     <g id="line2d_10">
      <g>
       <use style="stroke:#000000;stroke-width:0.8;" x="47.72" xlink:href="#me3f113ace9" y="254.449"/>
      </g>
     </g>
     <g id="text_11">
      <!-- 4.0 -->
      <g transform="translate(24.816875 258.248219)scale(0.1 -0.1)">
       <use xlink:href="#DejaVuSans-52"/>
       <use x="63.623047" xlink:href="#DejaVuSans-46"/>
       <use x="95.410156" xlink:href="#DejaVuSans-48"/>
      </g>
     </g>
    </g>
    <g id="ytick_5">
     <g id="line2d_11">
      <g>
       <use style="stroke:#000000;stroke-width:0.8;" x="47.72" xlink:href="#me3f113ace9" y="209.252"/>
      </g>
     </g>
     <g id="text_12">
      <!-- 4.5 -->
      <g transform="translate(24.816875 213.051219)scale(0.1 -0.1)">
       <use xlink:href="#DejaVuSans-52"/>
       <use x="63.623047" xlink:href="#DejaVuSans-46"/>
       <use x="95.410156" xlink:href="#DejaVuSans-53"/>
      </g>
     </g>
    </g>
    <g id="ytick_6">
     <g id="line2d_12">
      <g>
       <use style="stroke:#000000;stroke-width:0.8;" x="47.72" xlink:href="#me3f113ace9" y="164.055"/>
      </g>
     </g>
     <g id="text_13">
      <!-- 5.0 -->
      <g transform="translate(24.816875 167.854219)scale(0.1 -0.1)">
       <use xlink:href="#DejaVuSans-53"/>
       <use x="63.623047" xlink:href="#DejaVuSans-46"/>
       <use x="95.410156" xlink:href="#DejaVuSans-48"/>
      </g>
     </g>
    </g>
    <g id="ytick_7">
     <g id="line2d_13">
      <g>
       <use style="stroke:#000000;stroke-width:0.8;" x="47.72" xlink:href="#me3f113ace9" y="118.858"/>
      </g>
     </g>
     <g id="text_14">
      <!-- 5.5 -->
      <g transform="translate(24.816875 122.657219)scale(0.1 -0.1)">
       <use xlink:href="#DejaVuSans-53"/>
       <use x="63.623047" xlink:href="#DejaVuSans-46"/>
       <use x="95.410156" xlink:href="#DejaVuSans-53"/>
      </g>
     </g>
    </g>
    <g id="ytick_8">
     <g id="line2d_14">
      <g>
       <use style="stroke:#000000;stroke-width:0.8;" x="47.72" xlink:href="#me3f113ace9" y="73.661"/>
      </g>
     </g>
     <g id="text_15">
      <!-- 6.0 -->
      <g transform="translate(24.816875 77.460219)scale(0.1 -0.1)">
       <defs>
        <path d="M 33.015625 40.375 
Q 26.375 40.375 22.484375 35.828125 
Q 18.609375 31.296875 18.609375 23.390625 
Q 18.609375 15.53125 22.484375 10.953125 
Q 26.375 6.390625 33.015625 6.390625 
Q 39.65625 6.390625 43.53125 10.953125 
Q 47.40625 15.53125 47.40625 23.390625 
Q 47.40625 31.296875 43.53125 35.828125 
Q 39.65625 40.375 33.015625 40.375 
z
M 52.59375 71.296875 
L 52.59375 62.3125 
Q 48.875 64.0625 45.09375 64.984375 
Q 41.3125 65.921875 37.59375 65.921875 
Q 27.828125 65.921875 22.671875 59.328125 
Q 17.53125 52.734375 16.796875 39.40625 
Q 19.671875 43.65625 24.015625 45.921875 
Q 28.375 48.1875 33.59375 48.1875 
Q 44.578125 48.1875 50.953125 41.515625 
Q 57.328125 34.859375 57.328125 23.390625 
Q 57.328125 12.15625 50.6875 5.359375 
Q 44.046875 -1.421875 33.015625 -1.421875 
Q 20.359375 -1.421875 13.671875 8.265625 
Q 6.984375 17.96875 6.984375 36.375 
Q 6.984375 53.65625 15.1875 63.9375 
Q 23.390625 74.21875 37.203125 74.21875 
Q 40.921875 74.21875 44.703125 73.484375 
Q 48.484375 72.75 52.59375 71.296875 
z
" id="DejaVuSans-54"/>
       </defs>
       <use xlink:href="#DejaVuSans-54"/>
       <use x="63.623047" xlink:href="#DejaVuSans-46"/>
       <use x="95.410156" xlink:href="#DejaVuSans-48"/>
      </g>
     </g>
    </g>
    <g id="ytick_9">
     <g id="line2d_15">
      <g>
       <use style="stroke:#000000;stroke-width:0.8;" x="47.72" xlink:href="#me3f113ace9" y="28.464"/>
      </g>
     </g>
     <g id="text_16">
      <!-- 6.5 -->
      <g transform="translate(24.816875 32.263219)scale(0.1 -0.1)">
       <use xlink:href="#DejaVuSans-54"/>
       <use x="63.623047" xlink:href="#DejaVuSans-46"/>
       <use x="95.410156" xlink:href="#DejaVuSans-53"/>
      </g>
     </g>
    </g>
    <g id="text_17">
     <!-- ANEES -->
     <g transform="translate(18.737188 225.905906)rotate(-90)scale(0.1 -0.1)">
      <defs>
       <path d="M 34.1875 63.1875 
L 20.796875 26.90625 
L 47.609375 26.90625 
z
M 28.609375 72.90625 
L 39.796875 72.90625 
L 67.578125 0 
L 57.328125 0 
L 50.6875 18.703125 
L 17.828125 18.703125 
L 11.1875 0 
L 0.78125 0 
z
" id="DejaVuSans-65"/>
       <path d="M 9.8125 72.90625 
L 23.09375 72.90625 
L 55.421875 11.921875 
L 55.421875 72.90625 
L 64.984375 72.90625 
L 64.984375 0 
L 51.703125 0 
L 19.390625 60.984375 
L 19.390625 0 
L 9.8125 0 
z
" id="DejaVuSans-78"/>
       <path d="M 9.8125 72.90625 
L 55.90625 72.90625 
L 55.90625 64.59375 
L 19.671875 64.59375 
L 19.671875 43.015625 
L 54.390625 43.015625 
L 54.390625 34.71875 
L 19.671875 34.71875 
L 19.671875 8.296875 
L 56.78125 8.296875 
L 56.78125 0 
L 9.8125 0 
z
" id="DejaVuSans-69"/>
       <path d="M 53.515625 70.515625 
L 53.515625 60.890625 
Q 47.90625 63.578125 42.921875 64.890625 
Q 37.9375 66.21875 33.296875 66.21875 
Q 25.25 66.21875 20.875 63.09375 
Q 16.5 59.96875 16.5 54.203125 
Q 16.5 49.359375 19.40625 46.890625 
Q 22.3125 44.4375 30.421875 42.921875 
L 36.375 41.703125 
Q 47.40625 39.59375 52.65625 34.296875 
Q 57.90625 29 57.90625 20.125 
Q 57.90625 9.515625 50.796875 4.046875 
Q 43.703125 -1.421875 29.984375 -1.421875 
Q 24.8125 -1.421875 18.96875 -0.25 
Q 13.140625 0.921875 6.890625 3.21875 
L 6.890625 13.375 
Q 12.890625 10.015625 18.65625 8.296875 
Q 24.421875 6.59375 29.984375 6.59375 
Q 38.421875 6.59375 43.015625 9.90625 
Q 47.609375 13.234375 47.609375 19.390625 
Q 47.609375 24.75 44.3125 27.78125 
Q 41.015625 30.8125 33.5 32.328125 
L 27.484375 33.5 
Q 16.453125 35.6875 11.515625 40.375 
Q 6.59375 45.0625 6.59375 53.421875 
Q 6.59375 63.09375 13.40625 68.65625 
Q 20.21875 74.21875 32.171875 74.21875 
Q 37.3125 74.21875 42.625 73.28125 
Q 47.953125 72.359375 53.515625 70.515625 
z
" id="DejaVuSans-83"/>
      </defs>
      <use xlink:href="#DejaVuSans-65"/>
      <use x="68.408203" xlink:href="#DejaVuSans-78"/>
      <use x="143.212891" xlink:href="#DejaVuSans-69"/>
      <use x="206.396484" xlink:href="#DejaVuSans-69"/>
      <use x="269.580078" xlink:href="#DejaVuSans-83"/>
     </g>
    </g>
   </g>
   <g id="line2d_16">
    <path clip-path="url(#p65e262993e)" d="M 77.787273 357.709805 
L 78.992374 329.317719 
L 80.197475 316.242562 
L 81.402576 308.304609 
L 82.607677 302.826273 
L 83.812778 298.750605 
L 85.017879 295.564442 
L 86.222981 292.984363 
L 87.428082 290.839294 
L 88.633183 289.019013 
L 89.838284 287.448857 
L 92.248486 284.862753 
L 94.658688 282.805634 
L 97.068891 281.1184 
L 99.479093 279.701838 
L 101.889295 278.490425 
L 105.504598 276.962617 
L 109.119902 275.694492 
L 113.940306 274.296453 
L 118.760711 273.143367 
L 124.786216 271.950894 
L 132.016823 270.783189 
L 140.452531 269.678285 
L 150.093339 268.654858 
L 162.144351 267.626072 
L 176.605564 266.644775 
L 193.476979 265.737586 
L 213.963698 264.868282 
L 239.270822 264.029282 
L 270.603451 263.226598 
L 309.166686 262.470191 
L 357.370731 261.752924 
L 418.830887 261.067836 
L 498.367561 260.413905 
L 602.006256 259.79563 
L 679.132727 259.44295 
L 679.132727 259.44295 
" style="fill:none;stroke:#000000;stroke-linecap:square;stroke-width:1.5;"/>
   </g>
   <g id="line2d_17">
    <path clip-path="url(#p65e262993e)" d="M 77.787273 134.095862 
L 78.992374 171.026316 
L 80.197475 186.951071 
L 81.402576 196.314472 
L 82.607677 202.648283 
L 83.812778 207.294353 
L 85.017879 210.887989 
L 86.222981 213.773695 
L 87.428082 216.156487 
L 88.633183 218.166956 
L 89.838284 219.892725 
L 91.043385 221.395059 
L 93.453587 223.895195 
L 95.863789 225.904917 
L 98.273992 227.565822 
L 100.684194 228.968223 
L 103.094396 230.172784 
L 106.709699 231.698222 
L 110.325003 232.969159 
L 115.145407 234.374725 
L 119.965812 235.537074 
L 125.991317 236.741618 
L 133.221924 237.923214 
L 141.657632 239.042796 
L 151.298441 240.08086 
L 163.349452 241.125096 
L 176.605564 242.046924 
L 193.476979 242.983887 
L 213.963698 243.879516 
L 238.065721 244.70549 
L 268.193248 245.509014 
L 305.551383 246.274962 
L 352.550326 247.007112 
L 412.805382 247.710018 
L 489.931853 248.373865 
L 589.955245 249.000017 
L 679.132727 249.420803 
L 679.132727 249.420803 
" style="fill:none;stroke:#000000;stroke-linecap:square;stroke-width:1.5;"/>
   </g>
   <g id="line2d_18">
    <path clip-path="url(#p65e262993e)" d="M 77.787273 27.789147 
L 78.992374 167.999769 
L 80.197475 159.548899 
L 81.402576 142.637817 
L 82.607677 148.022092 
L 83.812778 145.319798 
L 85.017879 151.065516 
L 86.222981 170.321187 
L 87.428082 170.416632 
L 88.633183 165.697764 
L 89.838284 173.584466 
L 91.043385 186.555946 
L 92.248486 178.467514 
L 93.453587 185.002806 
L 94.658688 173.777476 
L 95.863789 176.354936 
L 97.068891 177.776294 
L 98.273992 157.319341 
L 99.479093 161.647251 
L 100.684194 169.994112 
L 101.889295 172.461634 
L 103.094396 175.230317 
L 104.299497 172.199389 
L 105.504598 175.286196 
L 106.709699 176.89009 
L 107.914801 172.870255 
L 109.119902 171.533611 
L 110.325003 178.007608 
L 111.530104 180.449798 
L 112.735205 172.297774 
L 113.940306 167.93262 
L 115.145407 158.176234 
L 116.350508 159.100329 
L 117.555609 161.147311 
L 118.760711 167.133116 
L 119.965812 161.84379 
L 121.170913 160.087846 
L 122.376014 162.772286 
L 123.581115 157.160047 
L 124.786216 157.164737 
L 125.991317 160.768583 
L 127.196418 160.452345 
L 128.401519 164.310763 
L 129.606621 166.283306 
L 130.811722 164.186924 
L 132.016823 164.848448 
L 133.221924 158.523073 
L 134.427025 159.384106 
L 135.632126 161.153696 
L 136.837227 159.75814 
L 138.042328 158.001857 
L 139.247429 160.395318 
L 140.452531 165.234171 
L 141.657632 166.847256 
L 142.862733 168.868543 
L 144.067834 168.300872 
L 145.272935 169.609899 
L 146.478036 166.186006 
L 147.683137 167.603819 
L 148.888238 166.105895 
L 150.093339 165.008413 
L 151.298441 161.969956 
L 152.503542 161.368082 
L 153.708643 160.441441 
L 154.913744 156.975793 
L 156.118845 157.090736 
L 157.323946 158.89307 
L 158.529047 158.942445 
L 159.734148 156.425397 
L 160.939249 156.514091 
L 162.144351 157.544889 
L 163.349452 158.965232 
L 164.554553 159.192808 
L 165.759654 158.342191 
L 166.964755 160.319055 
L 168.169856 160.655679 
L 169.374957 162.229157 
L 170.580058 161.246659 
L 171.785159 160.443817 
L 172.990261 158.933894 
L 174.195362 157.070179 
L 175.400463 158.995096 
L 176.605564 160.181505 
L 177.810665 163.093596 
L 179.015766 161.377246 
L 180.220867 163.012432 
L 181.425968 163.966763 
L 182.631069 166.338872 
L 183.836171 164.298343 
L 185.041272 164.451704 
L 187.451474 157.90097 
L 188.656575 159.715997 
L 189.861676 159.317104 
L 191.066777 160.674345 
L 193.476979 164.091409 
L 194.682081 165.893601 
L 195.887182 166.711219 
L 197.092283 168.759794 
L 198.297384 169.474359 
L 199.502485 170.530282 
L 200.707586 167.261655 
L 201.912687 166.778414 
L 205.527991 167.240496 
L 206.733092 164.350288 
L 207.938193 163.409215 
L 209.143294 163.034556 
L 210.348395 164.316799 
L 211.553496 163.863685 
L 212.758597 166.105003 
L 213.963698 165.541535 
L 215.168799 165.921315 
L 216.373901 166.135462 
L 217.579002 166.141957 
L 218.784103 166.947016 
L 219.989204 163.485921 
L 221.194305 163.836852 
L 222.399406 163.834532 
L 223.604507 162.355043 
L 224.809608 161.878478 
L 226.014709 162.333095 
L 227.219811 163.906901 
L 228.424912 164.958513 
L 229.630013 165.20171 
L 232.040215 168.333431 
L 233.245316 167.575983 
L 234.450417 167.264494 
L 235.655518 167.890008 
L 236.860619 167.44135 
L 238.065721 168.128106 
L 239.270822 168.980909 
L 240.475923 170.761559 
L 241.681024 171.731489 
L 242.886125 172.550637 
L 244.091226 168.685397 
L 245.296327 167.164818 
L 246.501428 167.422488 
L 247.706529 167.536071 
L 248.911631 164.89886 
L 250.116732 163.690384 
L 253.732035 167.009806 
L 254.937136 166.678944 
L 256.142237 164.939039 
L 257.347338 164.681118 
L 258.552439 164.635101 
L 259.757541 164.36306 
L 260.962642 164.570559 
L 262.167743 165.951903 
L 264.577945 166.626581 
L 265.783046 166.089259 
L 266.988147 166.516456 
L 268.193248 166.013495 
L 269.398349 165.691625 
L 270.603451 166.181302 
L 271.808552 166.122491 
L 273.013653 166.38717 
L 274.218754 167.485451 
L 275.423855 167.633761 
L 279.039158 167.707872 
L 280.244259 167.334193 
L 281.449361 167.564379 
L 282.654462 167.186588 
L 283.859563 168.517563 
L 285.064664 167.615975 
L 286.269765 166.898478 
L 287.474866 167.962141 
L 288.679967 167.542365 
L 289.885068 167.870933 
L 291.090169 167.613872 
L 292.295271 167.954896 
L 293.500372 165.799783 
L 294.705473 166.060684 
L 295.910574 167.146518 
L 297.115675 167.732138 
L 298.320776 167.897167 
L 299.525877 164.625157 
L 301.936079 165.128961 
L 303.141181 165.387604 
L 304.346282 165.443127 
L 305.551383 165.650974 
L 306.756484 164.916672 
L 307.961585 164.742832 
L 309.166686 164.037095 
L 310.371787 164.484164 
L 311.576888 165.05193 
L 312.781989 164.081408 
L 313.987091 164.137478 
L 315.192192 163.071315 
L 316.397293 162.89204 
L 317.602394 163.454507 
L 318.807495 163.113075 
L 320.012596 163.634394 
L 321.217697 163.800399 
L 322.422798 162.501631 
L 323.627899 161.954028 
L 324.833001 162.128118 
L 326.038102 161.820058 
L 327.243203 162.238335 
L 329.653405 162.538126 
L 330.858506 162.024046 
L 332.063607 163.01217 
L 333.268708 163.808865 
L 336.884012 164.431246 
L 338.089113 164.336808 
L 339.294214 163.831643 
L 340.499315 163.775808 
L 341.704416 164.21528 
L 342.909517 164.229023 
L 344.114618 161.502834 
L 346.524821 161.738045 
L 347.729922 160.472547 
L 348.935023 159.705309 
L 350.140124 159.953024 
L 351.345225 160.414882 
L 353.755427 160.852875 
L 356.165629 159.204364 
L 357.370731 159.889604 
L 358.575832 160.017857 
L 359.780933 158.856598 
L 360.986034 159.609691 
L 362.191135 159.573492 
L 363.396236 160.586081 
L 364.601337 160.412476 
L 365.806438 159.309252 
L 367.011539 157.972138 
L 368.216641 157.753049 
L 369.421742 157.107391 
L 370.626843 157.294968 
L 371.831944 157.047279 
L 373.037045 156.447811 
L 374.242146 154.78151 
L 375.447247 155.350876 
L 376.652348 155.780522 
L 377.857449 156.028866 
L 379.062551 156.112292 
L 380.267652 155.484948 
L 381.472753 155.53451 
L 382.677854 156.305097 
L 383.882955 155.865859 
L 385.088056 156.15263 
L 386.293157 155.896541 
L 387.498258 155.36161 
L 388.703359 154.422407 
L 389.908461 155.339615 
L 391.113562 155.801181 
L 392.318663 155.546575 
L 393.523764 156.42671 
L 394.728865 156.234866 
L 395.933966 155.652432 
L 397.139067 154.13498 
L 399.549269 155.530341 
L 400.754371 155.545325 
L 401.959472 155.983291 
L 403.164573 156.869134 
L 404.369674 157.098876 
L 406.779876 156.304391 
L 407.984977 156.574233 
L 409.190078 155.542645 
L 410.395179 156.115416 
L 411.600281 155.440269 
L 412.805382 155.588207 
L 414.010483 154.866228 
L 415.215584 154.662145 
L 416.420685 153.488284 
L 417.625786 154.187937 
L 418.830887 154.456781 
L 420.035988 154.118033 
L 421.241089 152.498737 
L 422.446191 151.978108 
L 424.856393 152.065815 
L 426.061494 152.790037 
L 427.266595 152.85729 
L 428.471696 153.178271 
L 429.676797 151.903328 
L 430.881898 152.819478 
L 432.086999 152.625656 
L 433.292101 150.958264 
L 434.497202 150.695951 
L 435.702303 149.887261 
L 436.907404 150.026138 
L 438.112505 149.907825 
L 440.522707 150.222161 
L 441.727808 150.005161 
L 442.932909 150.337226 
L 444.138011 150.100864 
L 445.343112 150.334928 
L 446.548213 149.559981 
L 447.753314 149.323061 
L 448.958415 150.184434 
L 450.163516 150.123412 
L 452.573718 150.345326 
L 453.778819 149.547907 
L 454.983921 150.111364 
L 456.189022 150.326746 
L 457.394123 149.16175 
L 458.599224 149.751338 
L 461.009426 148.634812 
L 464.624729 149.995698 
L 465.829831 150.139998 
L 468.240033 151.092314 
L 469.445134 151.311564 
L 470.650235 151.287979 
L 473.060437 151.974403 
L 474.265538 152.001243 
L 477.880842 153.637237 
L 479.085943 153.981614 
L 480.291044 154.125161 
L 481.496145 154.607162 
L 482.701246 154.623729 
L 483.906347 154.418152 
L 485.111448 154.882055 
L 486.316549 154.938133 
L 487.521651 154.454339 
L 489.931853 153.936193 
L 491.136954 154.578398 
L 492.342055 154.548199 
L 493.547156 154.983852 
L 494.752257 154.925495 
L 495.957358 155.052631 
L 497.162459 155.342423 
L 499.572662 155.018178 
L 500.777763 155.126473 
L 501.982864 155.445187 
L 503.187965 155.034651 
L 504.393066 155.489693 
L 506.803268 155.43017 
L 508.008369 154.523429 
L 509.213471 154.378675 
L 511.623673 154.553452 
L 512.828774 154.16591 
L 514.033875 154.060135 
L 515.238976 154.496508 
L 516.444077 154.729729 
L 517.649178 155.241801 
L 518.854279 153.718097 
L 520.059381 153.442396 
L 521.264482 153.619274 
L 522.469583 152.702962 
L 523.674684 152.593004 
L 524.879785 152.329942 
L 526.084886 152.495541 
L 528.495088 152.558 
L 530.905291 151.980368 
L 532.110392 151.046324 
L 533.315493 150.754295 
L 534.520594 151.076873 
L 535.725695 151.244314 
L 536.930796 150.839396 
L 538.135897 150.945057 
L 539.340998 151.343066 
L 540.546099 151.043765 
L 541.751201 151.200602 
L 542.956302 151.190601 
L 546.571605 150.606073 
L 547.776706 151.053942 
L 548.981807 151.139575 
L 550.186908 151.616526 
L 551.392009 151.280903 
L 552.597111 151.391713 
L 553.802212 151.031426 
L 555.007313 151.007095 
L 556.212414 151.170928 
L 557.417515 151.779384 
L 558.622616 151.220501 
L 559.827717 150.867074 
L 561.032818 151.069791 
L 562.237919 150.519687 
L 564.648122 149.809777 
L 567.058324 150.820097 
L 568.263425 150.363876 
L 569.468526 150.634036 
L 570.673627 150.739253 
L 571.878728 150.345457 
L 573.083829 150.755631 
L 574.288931 149.608362 
L 575.494032 148.742903 
L 576.699133 149.13094 
L 577.904234 148.822426 
L 580.314436 149.061023 
L 581.519537 149.108743 
L 583.929739 149.938935 
L 585.134841 150.07331 
L 587.545043 149.519832 
L 588.750144 149.357308 
L 589.955245 149.69923 
L 591.160346 149.256771 
L 592.365447 149.305225 
L 593.570548 149.638734 
L 594.775649 149.800684 
L 598.390953 150.69684 
L 599.596054 150.697027 
L 600.801155 150.962655 
L 602.006256 151.493605 
L 604.416458 151.636857 
L 608.031762 152.818777 
L 609.236863 152.313189 
L 610.441964 152.146561 
L 611.647065 151.591766 
L 612.852166 151.709622 
L 614.057267 151.944589 
L 616.467469 152.019513 
L 617.672571 152.433116 
L 618.877672 151.977834 
L 620.082773 152.225426 
L 621.287874 151.878706 
L 622.492975 151.665346 
L 623.698076 151.611668 
L 624.903177 151.159426 
L 626.108278 151.620498 
L 627.313379 151.865066 
L 628.518481 151.853413 
L 629.723582 151.723493 
L 630.928683 152.099997 
L 632.133784 151.169746 
L 633.338885 151.565967 
L 634.543986 151.756077 
L 636.954188 151.050119 
L 638.159289 150.168985 
L 639.364391 150.060127 
L 640.569492 149.701612 
L 641.774593 150.280474 
L 642.979694 150.137497 
L 644.184795 150.320582 
L 645.389896 150.147131 
L 646.594997 150.415216 
L 647.800098 150.464534 
L 649.005199 150.726798 
L 650.210301 150.071491 
L 651.415402 149.876076 
L 652.620503 149.991113 
L 653.825604 150.260455 
L 655.030705 150.4118 
L 656.235806 150.984109 
L 657.440907 151.287481 
L 658.646008 150.949197 
L 659.851109 150.752493 
L 661.056211 151.119248 
L 663.466413 151.055224 
L 664.671514 151.304734 
L 665.876615 151.140168 
L 667.081716 151.142617 
L 668.286817 151.377557 
L 669.491918 150.797937 
L 671.902121 150.951551 
L 673.107222 151.233079 
L 675.517424 151.134916 
L 676.722525 151.497199 
L 677.927626 151.120454 
L 679.132727 151.254133 
L 679.132727 151.254133 
" style="fill:none;stroke:#0000ff;stroke-linecap:square;stroke-width:1.5;"/>
   </g>
   <g id="line2d_19">
    <path clip-path="url(#p65e262993e)" d="M 77.787273 189.696417 
L 78.992374 293.091965 
L 80.197475 298.240322 
L 81.402576 294.705937 
L 82.607677 296.371941 
L 83.812778 291.686877 
L 85.017879 294.238609 
L 86.222981 305.957439 
L 87.428082 304.824835 
L 88.633183 305.636771 
L 89.838284 309.273811 
L 91.043385 318.579877 
L 92.248486 315.044818 
L 93.453587 319.511584 
L 94.658688 314.394314 
L 95.863789 315.055557 
L 97.068891 314.236714 
L 98.273992 299.322252 
L 99.479093 301.106687 
L 100.684194 305.346142 
L 101.889295 306.485392 
L 103.094396 308.287602 
L 104.299497 305.976151 
L 105.504598 306.815259 
L 106.709699 307.303648 
L 107.914801 304.775627 
L 109.119902 304.558147 
L 110.325003 309.258004 
L 111.530104 310.851141 
L 112.735205 306.152343 
L 113.940306 304.504803 
L 115.145407 296.326726 
L 116.350508 297.337253 
L 117.555609 299.476688 
L 118.760711 303.568544 
L 119.965812 300.639493 
L 121.170913 299.768655 
L 122.376014 301.452546 
L 123.581115 298.256123 
L 124.786216 298.39904 
L 125.991317 300.856919 
L 127.196418 300.908302 
L 128.401519 303.783861 
L 129.606621 304.770953 
L 130.811722 303.377755 
L 132.016823 303.861734 
L 133.221924 300.221391 
L 135.632126 302.357505 
L 136.837227 301.457496 
L 138.042328 299.460576 
L 139.247429 301.339879 
L 140.452531 304.645028 
L 141.657632 305.769641 
L 142.862733 307.444272 
L 144.067834 307.000364 
L 145.272935 308.071965 
L 146.478036 305.658291 
L 147.683137 306.587523 
L 148.888238 305.316097 
L 150.093339 305.088407 
L 151.298441 303.206918 
L 153.708643 302.76167 
L 154.913744 299.667284 
L 156.118845 299.369487 
L 157.323946 300.706807 
L 158.529047 300.524313 
L 159.734148 298.53896 
L 160.939249 298.230999 
L 163.349452 299.565624 
L 164.554553 299.824603 
L 165.759654 298.932415 
L 166.964755 300.211283 
L 168.169856 300.706662 
L 169.374957 301.630311 
L 170.580058 300.790046 
L 171.785159 300.377287 
L 172.990261 298.780354 
L 174.195362 296.620076 
L 175.400463 297.935617 
L 176.605564 298.572765 
L 177.810665 300.5003 
L 179.015766 299.090032 
L 180.220867 300.027823 
L 181.425968 300.497615 
L 182.631069 302.027305 
L 183.836171 300.511386 
L 185.041272 300.472106 
L 187.451474 296.012106 
L 188.656575 297.302557 
L 189.861676 297.266559 
L 192.271878 299.241641 
L 194.682081 301.592755 
L 195.887182 302.153344 
L 197.092283 303.593254 
L 199.502485 305.016467 
L 200.707586 303.093181 
L 201.912687 302.514348 
L 203.117788 302.702921 
L 204.322889 302.395409 
L 205.527991 302.675931 
L 206.733092 300.930892 
L 207.938193 300.034743 
L 209.143294 299.420041 
L 210.348395 300.114665 
L 211.553496 299.556672 
L 212.758597 301.145927 
L 213.963698 300.713385 
L 215.168799 301.154414 
L 217.579002 300.879027 
L 218.784103 301.601981 
L 219.989204 299.69154 
L 221.194305 300.123408 
L 222.399406 299.968416 
L 223.604507 298.966424 
L 224.809608 298.810609 
L 226.014709 299.11181 
L 228.424912 300.947499 
L 229.630013 301.152316 
L 232.040215 303.249642 
L 234.450417 302.156907 
L 235.655518 302.553168 
L 236.860619 302.158149 
L 238.065721 302.703709 
L 239.270822 303.015048 
L 240.475923 304.189302 
L 241.681024 304.893881 
L 242.886125 305.42998 
L 244.091226 302.305609 
L 245.296327 301.183462 
L 247.706529 301.448132 
L 248.911631 300.039682 
L 250.116732 299.318547 
L 251.321833 299.868423 
L 253.732035 301.501033 
L 254.937136 300.992698 
L 256.142237 299.729455 
L 257.347338 299.642736 
L 259.757541 299.212059 
L 260.962642 299.314902 
L 262.167743 300.291297 
L 263.372844 300.560739 
L 264.577945 300.538069 
L 265.783046 300.190582 
L 266.988147 300.350015 
L 269.398349 299.671747 
L 270.603451 300.153515 
L 271.808552 300.056047 
L 273.013653 300.27678 
L 274.218754 301.119445 
L 276.628956 300.879992 
L 277.834057 300.700137 
L 279.039158 300.855944 
L 280.244259 300.72068 
L 281.449361 300.995381 
L 282.654462 300.800283 
L 283.859563 301.722521 
L 285.064664 300.963763 
L 286.269765 300.489873 
L 287.474866 301.172259 
L 288.679967 301.063388 
L 289.885068 301.31392 
L 291.090169 301.324252 
L 292.295271 301.493723 
L 293.500372 300.214902 
L 294.705473 300.543387 
L 295.910574 301.220906 
L 297.115675 301.638773 
L 298.320776 301.76766 
L 299.525877 299.598872 
L 300.730978 299.822978 
L 305.551383 300.354761 
L 306.756484 299.92369 
L 307.961585 299.764478 
L 309.166686 299.411769 
L 310.371787 299.770178 
L 311.576888 300.249668 
L 312.781989 299.547353 
L 313.987091 299.696164 
L 315.192192 299.147753 
L 316.397293 298.755818 
L 317.602394 298.946938 
L 318.807495 298.688891 
L 320.012596 299.104379 
L 321.217697 299.096808 
L 322.422798 298.189832 
L 323.627899 297.975313 
L 324.833001 298.263245 
L 326.038102 298.023013 
L 327.243203 298.290997 
L 328.448304 298.266427 
L 329.653405 298.437609 
L 330.858506 298.096125 
L 333.268708 299.1633 
L 334.473809 299.183279 
L 336.884012 299.575053 
L 338.089113 299.62153 
L 339.294214 299.060159 
L 340.499315 299.014015 
L 341.704416 299.312121 
L 342.909517 299.397108 
L 344.114618 297.234001 
L 345.319719 297.23949 
L 346.524821 297.512092 
L 348.935023 296.296361 
L 351.345225 296.862744 
L 353.755427 297.038659 
L 354.960528 296.541218 
L 356.165629 295.757652 
L 357.370731 296.219193 
L 358.575832 296.326376 
L 359.780933 295.613829 
L 360.986034 296.109876 
L 362.191135 296.185285 
L 363.396236 296.860532 
L 364.601337 296.648101 
L 365.806438 295.934032 
L 367.011539 295.027597 
L 368.216641 294.738876 
L 369.421742 294.322325 
L 370.626843 294.327029 
L 371.831944 294.142167 
L 373.037045 293.812421 
L 374.242146 292.87198 
L 375.447247 293.285393 
L 377.857449 293.860181 
L 379.062551 293.807125 
L 380.267652 293.511605 
L 381.472753 293.505625 
L 382.677854 294.128831 
L 383.882955 293.898913 
L 385.088056 294.00879 
L 386.293157 293.801813 
L 387.498258 293.29621 
L 388.703359 292.634453 
L 389.908461 293.26197 
L 391.113562 293.592168 
L 392.318663 293.379967 
L 393.523764 293.898525 
L 395.933966 293.496185 
L 397.139067 292.439806 
L 399.549269 293.390257 
L 400.754371 293.511423 
L 401.959472 293.76324 
L 403.164573 294.42179 
L 404.369674 294.506662 
L 406.779876 293.810234 
L 407.984977 293.967951 
L 409.190078 293.287102 
L 410.395179 293.588294 
L 411.600281 293.221635 
L 412.805382 293.187605 
L 414.010483 292.739051 
L 415.215584 292.472295 
L 416.420685 291.372133 
L 417.625786 291.874134 
L 418.830887 292.085419 
L 420.035988 291.926408 
L 421.241089 290.625798 
L 422.446191 290.226061 
L 423.651292 290.192183 
L 424.856393 290.303855 
L 426.061494 290.697184 
L 427.266595 290.761396 
L 428.471696 290.996166 
L 429.676797 290.343916 
L 430.881898 290.922851 
L 432.086999 290.812548 
L 433.292101 289.930931 
L 434.497202 289.891011 
L 435.702303 289.432607 
L 436.907404 289.581509 
L 438.112505 289.4541 
L 440.522707 289.742774 
L 441.727808 289.584909 
L 442.932909 289.762876 
L 444.138011 289.569475 
L 445.343112 289.703439 
L 446.548213 289.176025 
L 447.753314 289.01825 
L 448.958415 289.578324 
L 451.368617 289.60196 
L 452.573718 289.66594 
L 453.778819 289.232069 
L 454.983921 289.622765 
L 456.189022 289.822001 
L 457.394123 289.152511 
L 458.599224 289.580853 
L 461.009426 288.913778 
L 462.214527 289.251041 
L 463.419628 289.463546 
L 464.624729 289.796476 
L 465.829831 289.911841 
L 468.240033 290.597288 
L 469.445134 290.722232 
L 470.650235 290.712416 
L 473.060437 291.185126 
L 474.265538 291.186293 
L 477.880842 292.427746 
L 479.085943 292.683359 
L 480.291044 292.719832 
L 481.496145 293.075571 
L 483.906347 293.089598 
L 485.111448 293.444077 
L 486.316549 293.449888 
L 487.521651 293.135083 
L 488.726752 293.172707 
L 489.931853 292.932591 
L 491.136954 293.356725 
L 492.342055 293.398068 
L 493.547156 293.673761 
L 495.957358 293.768838 
L 497.162459 294.012769 
L 498.367561 293.74431 
L 499.572662 293.619099 
L 500.777763 293.735715 
L 501.982864 293.969109 
L 503.187965 293.70223 
L 504.393066 293.965098 
L 506.803268 293.955774 
L 508.008369 293.485178 
L 509.213471 293.395237 
L 511.623673 293.620462 
L 514.033875 293.2306 
L 515.238976 293.564222 
L 517.649178 294.002768 
L 518.854279 293.135138 
L 520.059381 293.045702 
L 521.264482 293.092007 
L 522.469583 292.543574 
L 524.879785 292.312092 
L 527.289987 292.363437 
L 528.495088 292.47535 
L 529.700189 292.366419 
L 530.905291 292.054701 
L 532.110392 291.38517 
L 533.315493 291.112368 
L 535.725695 291.444196 
L 536.930796 291.140491 
L 538.135897 291.181141 
L 539.340998 291.411096 
L 540.546099 291.152486 
L 541.751201 291.297541 
L 544.161403 291.116203 
L 546.571605 290.850498 
L 547.776706 291.163958 
L 548.981807 291.206568 
L 550.186908 291.536663 
L 551.392009 291.248992 
L 552.597111 291.300172 
L 553.802212 290.998945 
L 555.007313 290.957691 
L 556.212414 291.085117 
L 557.417515 291.500635 
L 559.827717 291.180444 
L 561.032818 291.328381 
L 563.443021 290.545879 
L 564.648122 290.333276 
L 567.058324 291.015579 
L 568.263425 290.788012 
L 569.468526 291.014421 
L 570.673627 291.025228 
L 571.878728 290.793406 
L 573.083829 291.100843 
L 574.288931 290.221328 
L 575.494032 289.65168 
L 576.699133 289.867548 
L 577.904234 289.627604 
L 581.519537 289.911438 
L 583.929739 290.515767 
L 585.134841 290.638847 
L 586.339942 290.556104 
L 587.545043 290.316282 
L 588.750144 290.209206 
L 589.955245 290.472105 
L 591.160346 290.229322 
L 592.365447 290.264823 
L 593.570548 290.501306 
L 594.775649 290.535014 
L 598.390953 291.152961 
L 599.596054 291.11766 
L 600.801155 291.32293 
L 602.006256 291.695573 
L 604.416458 291.824057 
L 608.031762 292.584629 
L 609.236863 292.264257 
L 610.441964 292.094946 
L 611.647065 291.558249 
L 616.467469 291.830922 
L 617.672571 292.114383 
L 618.877672 291.87949 
L 620.082773 292.086357 
L 621.287874 291.793928 
L 622.492975 291.625796 
L 623.698076 291.574619 
L 624.903177 291.195896 
L 626.108278 291.506726 
L 627.313379 291.685421 
L 628.518481 291.686453 
L 629.723582 291.500652 
L 630.928683 291.727348 
L 632.133784 291.209048 
L 633.338885 291.471022 
L 634.543986 291.539193 
L 636.954188 290.963285 
L 638.159289 290.185951 
L 639.364391 290.167672 
L 640.569492 289.963142 
L 641.774593 290.363235 
L 642.979694 290.29274 
L 644.184795 290.444036 
L 645.389896 290.388814 
L 647.800098 290.667111 
L 649.005199 290.844703 
L 650.210301 290.416668 
L 651.415402 290.348291 
L 655.030705 290.7248 
L 656.235806 291.106684 
L 657.440907 291.344586 
L 659.851109 290.983947 
L 661.056211 291.255461 
L 663.466413 291.173313 
L 664.671514 291.360928 
L 665.876615 291.129919 
L 667.081716 291.14225 
L 668.286817 291.327728 
L 669.491918 290.951823 
L 674.312323 291.032406 
L 675.517424 290.990489 
L 676.722525 291.231362 
L 677.927626 291.038872 
L 679.132727 291.107022 
L 679.132727 291.107022 
" style="fill:none;stroke:#ff0000;stroke-linecap:square;stroke-width:1.5;"/>
   </g>
   <g id="line2d_20">
    <path clip-path="url(#p65e262993e)" d="M 77.787273 201.860447 
L 78.992374 298.256563 
L 80.197475 295.030638 
L 81.402576 303.690125 
L 82.607677 305.591711 
L 83.812778 301.200692 
L 85.017879 299.093143 
L 86.222981 312.764532 
L 87.428082 311.784043 
L 88.633183 308.642392 
L 89.838284 308.680976 
L 91.043385 319.824864 
L 92.248486 317.259211 
L 93.453587 320.583915 
L 94.658688 315.458052 
L 95.863789 313.478026 
L 97.068891 312.825471 
L 98.273992 297.193226 
L 99.479093 300.10975 
L 100.684194 304.352566 
L 103.094396 305.181852 
L 104.299497 302.418227 
L 105.504598 301.599632 
L 106.709699 301.497887 
L 107.914801 298.705792 
L 109.119902 298.347536 
L 110.325003 302.861388 
L 111.530104 303.845587 
L 112.735205 299.52816 
L 113.940306 298.789167 
L 115.145407 290.342072 
L 116.350508 292.639304 
L 117.555609 294.115015 
L 118.760711 297.951674 
L 119.965812 295.477966 
L 121.170913 294.053984 
L 122.376014 295.804778 
L 123.581115 293.503594 
L 124.786216 293.650456 
L 125.991317 295.810179 
L 127.196418 296.622102 
L 128.401519 299.49951 
L 129.606621 300.545036 
L 130.811722 299.482019 
L 132.016823 299.964928 
L 133.221924 296.206623 
L 134.427025 297.168192 
L 135.632126 298.473136 
L 136.837227 298.178867 
L 138.042328 295.221071 
L 139.247429 297.195155 
L 140.452531 300.505581 
L 141.657632 301.028492 
L 142.862733 302.220648 
L 144.067834 300.967044 
L 145.272935 301.801896 
L 146.478036 299.059858 
L 147.683137 300.107353 
L 148.888238 298.113192 
L 150.093339 297.902163 
L 151.298441 295.825794 
L 152.503542 295.639968 
L 153.708643 296.065616 
L 154.913744 293.611314 
L 156.118845 293.283339 
L 157.323946 294.44722 
L 158.529047 294.481829 
L 159.734148 292.043532 
L 160.939249 291.308731 
L 162.144351 291.709492 
L 163.349452 292.557109 
L 164.554553 293.09062 
L 165.759654 292.21945 
L 166.964755 293.360136 
L 168.169856 293.716224 
L 169.374957 294.565573 
L 170.580058 293.601653 
L 171.785159 293.079186 
L 172.990261 291.910277 
L 174.195362 289.801399 
L 175.400463 291.226516 
L 176.605564 291.82576 
L 177.810665 293.482593 
L 179.015766 292.945102 
L 180.220867 293.779282 
L 181.425968 294.18924 
L 182.631069 295.604287 
L 183.836171 294.668194 
L 185.041272 295.375615 
L 187.451474 291.145511 
L 188.656575 292.237494 
L 189.861676 292.289343 
L 191.066777 293.495431 
L 192.271878 294.154699 
L 194.682081 296.502002 
L 195.887182 296.823436 
L 197.092283 298.319715 
L 199.502485 299.938114 
L 200.707586 298.151918 
L 201.912687 297.586343 
L 203.117788 298.111402 
L 204.322889 297.772674 
L 205.527991 297.938198 
L 206.733092 296.110479 
L 207.938193 295.062303 
L 209.143294 294.539984 
L 210.348395 294.946445 
L 211.553496 294.597225 
L 212.758597 296.102356 
L 213.963698 295.269171 
L 215.168799 295.697052 
L 216.373901 294.93391 
L 217.579002 294.655406 
L 218.784103 295.458986 
L 219.989204 293.871497 
L 221.194305 294.088622 
L 222.399406 294.101989 
L 223.604507 293.386265 
L 224.809608 293.087816 
L 226.014709 293.455356 
L 227.219811 294.257325 
L 228.424912 295.200992 
L 229.630013 295.39883 
L 232.040215 297.509129 
L 233.245316 296.877685 
L 234.450417 296.40111 
L 235.655518 296.659728 
L 236.860619 296.327721 
L 238.065721 296.943296 
L 239.270822 297.009432 
L 240.475923 298.137916 
L 241.681024 298.823246 
L 242.886125 299.306399 
L 244.091226 296.263501 
L 245.296327 294.91164 
L 247.706529 294.839817 
L 248.911631 293.563003 
L 250.116732 292.823967 
L 251.321833 293.216839 
L 252.526934 294.229013 
L 253.732035 295.033786 
L 254.937136 294.817719 
L 256.142237 293.598609 
L 257.347338 293.508612 
L 258.552439 293.02763 
L 260.962642 293.107528 
L 262.167743 294.072826 
L 263.372844 294.430341 
L 264.577945 294.216715 
L 265.783046 293.673098 
L 266.988147 293.759757 
L 268.193248 293.650401 
L 269.398349 293.055389 
L 270.603451 293.615879 
L 271.808552 293.170316 
L 273.013653 293.540799 
L 274.218754 294.327277 
L 276.628956 294.077496 
L 277.834057 293.79511 
L 279.039158 294.003616 
L 280.244259 294.039625 
L 281.449361 294.198271 
L 282.654462 293.964027 
L 283.859563 294.868196 
L 285.064664 294.129281 
L 286.269765 293.812671 
L 287.474866 294.491308 
L 288.679967 294.490853 
L 289.885068 294.93502 
L 292.295271 295.370807 
L 293.500372 294.446194 
L 294.705473 294.642101 
L 295.910574 295.301612 
L 297.115675 295.62353 
L 298.320776 295.811349 
L 299.525877 293.756296 
L 303.141181 294.285491 
L 304.346282 294.606714 
L 305.551383 294.767536 
L 306.756484 294.328645 
L 307.961585 294.013652 
L 309.166686 293.833562 
L 311.576888 294.827053 
L 312.781989 294.112992 
L 313.987091 294.401671 
L 316.397293 293.792022 
L 317.602394 294.109619 
L 318.807495 293.908654 
L 320.012596 294.216088 
L 321.217697 294.180859 
L 322.422798 293.337716 
L 323.627899 293.059428 
L 324.833001 293.372625 
L 326.038102 293.340925 
L 327.243203 293.582669 
L 328.448304 293.36017 
L 329.653405 293.679756 
L 330.858506 293.25638 
L 333.268708 294.295047 
L 334.473809 294.347515 
L 336.884012 294.807523 
L 338.089113 294.959789 
L 339.294214 294.396955 
L 340.499315 294.380234 
L 342.909517 294.724778 
L 344.114618 292.65817 
L 345.319719 292.635954 
L 346.524821 292.944185 
L 347.729922 292.461209 
L 348.935023 291.713286 
L 350.140124 292.062423 
L 351.345225 292.212524 
L 352.550326 292.496095 
L 353.755427 292.54906 
L 354.960528 292.228836 
L 356.165629 291.534482 
L 357.370731 292.011109 
L 358.575832 292.01687 
L 359.780933 291.377225 
L 360.986034 291.784715 
L 362.191135 291.806067 
L 363.396236 292.366035 
L 364.601337 292.089161 
L 367.011539 290.602759 
L 369.421742 289.816235 
L 371.831944 289.656517 
L 373.037045 289.465738 
L 374.242146 288.723753 
L 375.447247 289.092267 
L 377.857449 289.589066 
L 379.062551 289.326883 
L 380.267652 288.921582 
L 381.472753 288.851335 
L 382.677854 289.52693 
L 385.088056 289.671693 
L 386.293157 289.472236 
L 388.703359 288.190129 
L 389.908461 288.774838 
L 391.113562 289.115001 
L 392.318663 288.972341 
L 393.523764 289.464261 
L 395.933966 289.240553 
L 397.139067 288.286247 
L 399.549269 289.162653 
L 401.959472 289.468908 
L 403.164573 290.076952 
L 404.369674 290.011639 
L 405.574775 289.770177 
L 406.779876 289.324569 
L 407.984977 289.590182 
L 409.190078 288.997043 
L 410.395179 289.286186 
L 411.600281 289.037574 
L 412.805382 289.006025 
L 414.010483 288.459878 
L 415.215584 288.288724 
L 416.420685 287.296012 
L 417.625786 287.800439 
L 418.830887 287.993975 
L 420.035988 287.862955 
L 421.241089 286.771141 
L 422.446191 286.317741 
L 424.856393 286.453344 
L 426.061494 286.826479 
L 427.266595 286.844466 
L 428.471696 286.985415 
L 429.676797 286.498516 
L 430.881898 287.080214 
L 432.086999 286.94866 
L 433.292101 286.352171 
L 434.497202 286.4436 
L 435.702303 286.08152 
L 436.907404 286.174689 
L 438.112505 286.070438 
L 440.522707 286.340107 
L 441.727808 286.150405 
L 442.932909 286.27883 
L 444.138011 286.084792 
L 445.343112 286.066464 
L 446.548213 285.582157 
L 447.753314 285.477038 
L 448.958415 286.035834 
L 451.368617 285.931756 
L 452.573718 286.111777 
L 453.778819 285.758783 
L 454.983921 286.122301 
L 456.189022 286.227822 
L 457.394123 285.591483 
L 458.599224 285.969793 
L 461.009426 285.628017 
L 463.419628 286.100323 
L 464.624729 286.365391 
L 465.829831 286.393284 
L 469.445134 287.289673 
L 470.650235 287.335785 
L 471.855336 287.614002 
L 473.060437 287.731873 
L 474.265538 287.685052 
L 476.675741 288.569462 
L 479.085943 289.105015 
L 480.291044 289.142714 
L 481.496145 289.502929 
L 483.906347 289.558209 
L 485.111448 289.865915 
L 486.316549 289.904674 
L 487.521651 289.665391 
L 488.726752 289.709526 
L 489.931853 289.426755 
L 491.136954 289.780946 
L 492.342055 289.872855 
L 493.547156 290.13647 
L 495.957358 290.216187 
L 497.162459 290.434376 
L 498.367561 290.13297 
L 499.572662 290.066886 
L 500.777763 290.169913 
L 501.982864 290.390023 
L 503.187965 290.09029 
L 504.393066 290.35698 
L 505.598167 290.277328 
L 506.803268 290.501823 
L 508.008369 290.122546 
L 509.213471 290.10161 
L 511.623673 290.313527 
L 514.033875 289.881887 
L 516.444077 290.369911 
L 517.649178 290.512004 
L 518.854279 289.807052 
L 521.264482 289.671323 
L 522.469583 289.170956 
L 523.674684 288.999058 
L 527.289987 288.989794 
L 528.495088 289.104413 
L 529.700189 288.972485 
L 530.905291 288.652112 
L 532.110392 287.95473 
L 533.315493 287.646515 
L 535.725695 287.993651 
L 536.930796 287.634866 
L 538.135897 287.592368 
L 539.340998 287.788491 
L 540.546099 287.636652 
L 541.751201 287.717837 
L 544.161403 287.368374 
L 546.571605 287.05884 
L 547.776706 287.333561 
L 548.981807 287.349992 
L 550.186908 287.641296 
L 551.392009 287.349534 
L 552.597111 287.414637 
L 553.802212 287.197402 
L 555.007313 287.164832 
L 556.212414 287.30059 
L 557.417515 287.659014 
L 559.827717 287.518056 
L 561.032818 287.693807 
L 562.237919 287.366481 
L 564.648122 286.961503 
L 567.058324 287.61643 
L 568.263425 287.39447 
L 569.468526 287.57463 
L 570.673627 287.600949 
L 571.878728 287.366681 
L 573.083829 287.691093 
L 574.288931 286.945799 
L 575.494032 286.424502 
L 576.699133 286.537039 
L 577.904234 286.295179 
L 581.519537 286.540469 
L 585.134841 287.259259 
L 586.339942 287.197799 
L 587.545043 286.886793 
L 588.750144 286.850547 
L 589.955245 287.120145 
L 591.160346 286.908681 
L 594.775649 287.305904 
L 598.390953 287.848745 
L 599.596054 287.895092 
L 600.801155 288.116466 
L 602.006256 288.478885 
L 604.416458 288.681957 
L 608.031762 289.319072 
L 610.441964 288.750329 
L 611.647065 288.102746 
L 614.057267 288.21118 
L 616.467469 288.446797 
L 617.672571 288.808137 
L 618.877672 288.646387 
L 620.082773 288.811048 
L 621.287874 288.424981 
L 623.698076 288.254814 
L 624.903177 287.924631 
L 626.108278 288.217497 
L 627.313379 288.377953 
L 629.723582 288.228216 
L 630.928683 288.447595 
L 632.133784 287.993316 
L 633.338885 288.19737 
L 634.543986 288.279943 
L 636.954188 287.719328 
L 638.159289 286.791653 
L 639.364391 286.781646 
L 640.569492 286.657993 
L 641.774593 287.081311 
L 642.979694 286.987523 
L 644.184795 287.081944 
L 645.389896 287.037422 
L 646.594997 287.263077 
L 649.005199 287.418833 
L 650.210301 287.124976 
L 652.620503 287.259046 
L 655.030705 287.47738 
L 657.440907 288.095708 
L 659.851109 287.782399 
L 661.056211 288.045788 
L 662.261312 288.1535 
L 663.466413 288.070442 
L 664.671514 288.209977 
L 665.876615 287.920402 
L 667.081716 287.944024 
L 668.286817 288.142506 
L 669.491918 287.791471 
L 670.697019 287.84949 
L 671.902121 287.762582 
L 673.107222 287.944198 
L 674.312323 287.751344 
L 675.517424 287.747656 
L 676.722525 287.911754 
L 677.927626 287.701449 
L 679.132727 287.811603 
L 679.132727 287.811603 
" style="fill:none;stroke:#008000;stroke-linecap:square;stroke-width:1.5;"/>
   </g>
   <g id="patch_3">
    <path d="M 47.72 390.04 
L 47.72 28.464 
" style="fill:none;stroke:#000000;stroke-linecap:square;stroke-linejoin:miter;stroke-width:0.8;"/>
   </g>
   <g id="patch_4">
    <path d="M 709.2 390.04 
L 709.2 28.464 
" style="fill:none;stroke:#000000;stroke-linecap:square;stroke-linejoin:miter;stroke-width:0.8;"/>
   </g>
   <g id="patch_5">
    <path d="M 47.72 390.04 
L 709.2 390.04 
" style="fill:none;stroke:#000000;stroke-linecap:square;stroke-linejoin:miter;stroke-width:0.8;"/>
   </g>
   <g id="patch_6">
    <path d="M 47.72 28.464 
L 709.2 28.464 
" style="fill:none;stroke:#000000;stroke-linecap:square;stroke-linejoin:miter;stroke-width:0.8;"/>
   </g>
   <g id="text_18">
    <!-- Average ANEES with parameters $\sigma_{process}=$0.05,  $\sigma_{AIS}=$10, $\sigma_{Radar}=$5 -->
    <g transform="translate(174.46 22.464)scale(0.12 -0.12)">
     <defs>
      <path d="M 2.984375 54.6875 
L 12.5 54.6875 
L 29.59375 8.796875 
L 46.6875 54.6875 
L 56.203125 54.6875 
L 35.6875 0 
L 23.484375 0 
z
" id="DejaVuSans-118"/>
      <path d="M 45.40625 27.984375 
Q 45.40625 37.75 41.375 43.109375 
Q 37.359375 48.484375 30.078125 48.484375 
Q 22.859375 48.484375 18.828125 43.109375 
Q 14.796875 37.75 14.796875 27.984375 
Q 14.796875 18.265625 18.828125 12.890625 
Q 22.859375 7.515625 30.078125 7.515625 
Q 37.359375 7.515625 41.375 12.890625 
Q 45.40625 18.265625 45.40625 27.984375 
z
M 54.390625 6.78125 
Q 54.390625 -7.171875 48.1875 -13.984375 
Q 42 -20.796875 29.203125 -20.796875 
Q 24.46875 -20.796875 20.265625 -20.09375 
Q 16.0625 -19.390625 12.109375 -17.921875 
L 12.109375 -9.1875 
Q 16.0625 -11.328125 19.921875 -12.34375 
Q 23.78125 -13.375 27.78125 -13.375 
Q 36.625 -13.375 41.015625 -8.765625 
Q 45.40625 -4.15625 45.40625 5.171875 
L 45.40625 9.625 
Q 42.625 4.78125 38.28125 2.390625 
Q 33.9375 0 27.875 0 
Q 17.828125 0 11.671875 7.65625 
Q 5.515625 15.328125 5.515625 27.984375 
Q 5.515625 40.671875 11.671875 48.328125 
Q 17.828125 56 27.875 56 
Q 33.9375 56 38.28125 53.609375 
Q 42.625 51.21875 45.40625 46.390625 
L 45.40625 54.6875 
L 54.390625 54.6875 
z
" id="DejaVuSans-103"/>
      <path d="M 4.203125 54.6875 
L 13.1875 54.6875 
L 24.421875 12.015625 
L 35.59375 54.6875 
L 46.1875 54.6875 
L 57.421875 12.015625 
L 68.609375 54.6875 
L 77.59375 54.6875 
L 63.28125 0 
L 52.6875 0 
L 40.921875 44.828125 
L 29.109375 0 
L 18.5 0 
z
" id="DejaVuSans-119"/>
      <path d="M 54.890625 33.015625 
L 54.890625 0 
L 45.90625 0 
L 45.90625 32.71875 
Q 45.90625 40.484375 42.875 44.328125 
Q 39.84375 48.1875 33.796875 48.1875 
Q 26.515625 48.1875 22.3125 43.546875 
Q 18.109375 38.921875 18.109375 30.90625 
L 18.109375 0 
L 9.078125 0 
L 9.078125 75.984375 
L 18.109375 75.984375 
L 18.109375 46.1875 
Q 21.34375 51.125 25.703125 53.5625 
Q 30.078125 56 35.796875 56 
Q 45.21875 56 50.046875 50.171875 
Q 54.890625 44.34375 54.890625 33.015625 
z
" id="DejaVuSans-104"/>
      <path d="M 18.109375 8.203125 
L 18.109375 -20.796875 
L 9.078125 -20.796875 
L 9.078125 54.6875 
L 18.109375 54.6875 
L 18.109375 46.390625 
Q 20.953125 51.265625 25.265625 53.625 
Q 29.59375 56 35.59375 56 
Q 45.5625 56 51.78125 48.09375 
Q 58.015625 40.1875 58.015625 27.296875 
Q 58.015625 14.40625 51.78125 6.484375 
Q 45.5625 -1.421875 35.59375 -1.421875 
Q 29.59375 -1.421875 25.265625 0.953125 
Q 20.953125 3.328125 18.109375 8.203125 
z
M 48.6875 27.296875 
Q 48.6875 37.203125 44.609375 42.84375 
Q 40.53125 48.484375 33.40625 48.484375 
Q 26.265625 48.484375 22.1875 42.84375 
Q 18.109375 37.203125 18.109375 27.296875 
Q 18.109375 17.390625 22.1875 11.75 
Q 26.265625 6.109375 33.40625 6.109375 
Q 40.53125 6.109375 44.609375 11.75 
Q 48.6875 17.390625 48.6875 27.296875 
z
" id="DejaVuSans-112"/>
      <path d="M 52 44.1875 
Q 55.375 50.25 60.0625 53.125 
Q 64.75 56 71.09375 56 
Q 79.640625 56 84.28125 50.015625 
Q 88.921875 44.046875 88.921875 33.015625 
L 88.921875 0 
L 79.890625 0 
L 79.890625 32.71875 
Q 79.890625 40.578125 77.09375 44.375 
Q 74.3125 48.1875 68.609375 48.1875 
Q 61.625 48.1875 57.5625 43.546875 
Q 53.515625 38.921875 53.515625 30.90625 
L 53.515625 0 
L 44.484375 0 
L 44.484375 32.71875 
Q 44.484375 40.625 41.703125 44.40625 
Q 38.921875 48.1875 33.109375 48.1875 
Q 26.21875 48.1875 22.15625 43.53125 
Q 18.109375 38.875 18.109375 30.90625 
L 18.109375 0 
L 9.078125 0 
L 9.078125 54.6875 
L 18.109375 54.6875 
L 18.109375 46.1875 
Q 21.1875 51.21875 25.484375 53.609375 
Q 29.78125 56 35.6875 56 
Q 41.65625 56 45.828125 52.96875 
Q 50 49.953125 52 44.1875 
z
" id="DejaVuSans-109"/>
      <path d="M 34.671875 47.5625 
Q 27.25 47.5625 22.21875 42.1875 
Q 16.890625 36.578125 15.140625 27.296875 
Q 13.1875 17.484375 16.3125 11.8125 
Q 19.390625 6.203125 26.65625 6.203125 
Q 33.84375 6.203125 39.109375 11.859375 
Q 44.4375 17.53125 46.34375 27.296875 
Q 48.046875 36.234375 45.015625 42.1875 
Q 42.1875 47.5625 34.671875 47.5625 
z
M 36.078125 54.734375 
L 65.921875 54.6875 
L 64.15625 45.703125 
L 54.109375 45.703125 
Q 57.90625 38.09375 55.859375 27.296875 
Q 53.21875 13.875 45.0625 6.25 
Q 36.859375 -1.421875 25.140625 -1.421875 
Q 13.375 -1.421875 8.203125 6.25 
Q 3.03125 13.875 5.671875 27.296875 
Q 8.25 40.765625 16.40625 48.390625 
Q 23.1875 54.734375 36.078125 54.734375 
z
" id="DejaVuSans-Oblique-963"/>
      <path d="M 49.609375 33.6875 
Q 49.609375 40.875 46.484375 44.671875 
Q 43.359375 48.484375 37.5 48.484375 
Q 33.5 48.484375 29.859375 46.4375 
Q 26.21875 44.390625 23.390625 40.484375 
Q 20.609375 36.625 18.9375 31.15625 
Q 17.28125 25.6875 17.28125 20.3125 
Q 17.28125 13.484375 20.40625 9.796875 
Q 23.53125 6.109375 29.296875 6.109375 
Q 33.546875 6.109375 37.1875 8.109375 
Q 40.828125 10.109375 43.40625 13.921875 
Q 46.1875 17.921875 47.890625 23.34375 
Q 49.609375 28.765625 49.609375 33.6875 
z
M 21.78125 46.390625 
Q 25.390625 51.125 30.296875 53.5625 
Q 35.203125 56 41.21875 56 
Q 49.609375 56 54.25 50.5 
Q 58.890625 45.015625 58.890625 35.109375 
Q 58.890625 27 56 19.65625 
Q 53.125 12.3125 47.703125 6.5 
Q 44.09375 2.640625 39.546875 0.609375 
Q 35.015625 -1.421875 29.984375 -1.421875 
Q 24.171875 -1.421875 20.21875 1 
Q 16.265625 3.421875 14.3125 8.203125 
L 8.6875 -20.796875 
L -0.296875 -20.796875 
L 14.40625 54.6875 
L 23.390625 54.6875 
z
" id="DejaVuSans-Oblique-112"/>
      <path d="M 44.578125 46.390625 
Q 43.21875 47.125 41.453125 47.515625 
Q 39.703125 47.90625 37.703125 47.90625 
Q 30.515625 47.90625 25.140625 42.453125 
Q 19.78125 37.015625 18.015625 27.875 
L 12.5 0 
L 3.515625 0 
L 14.203125 54.6875 
L 23.1875 54.6875 
L 21.484375 46.1875 
Q 25.046875 50.921875 30 53.453125 
Q 34.96875 56 40.578125 56 
Q 42.046875 56 43.453125 55.828125 
Q 44.875 55.671875 46.296875 55.28125 
z
" id="DejaVuSans-Oblique-114"/>
      <path d="M 25.390625 -1.421875 
Q 15.765625 -1.421875 10.171875 4.515625 
Q 4.59375 10.453125 4.59375 20.703125 
Q 4.59375 26.65625 6.515625 32.828125 
Q 8.453125 39.015625 11.53125 43.21875 
Q 16.359375 49.75 22.3125 52.875 
Q 28.265625 56 35.796875 56 
Q 45.125 56 50.859375 50.1875 
Q 56.59375 44.390625 56.59375 35.015625 
Q 56.59375 28.515625 54.6875 22.0625 
Q 52.78125 15.625 49.703125 11.375 
Q 44.921875 4.828125 38.96875 1.703125 
Q 33.015625 -1.421875 25.390625 -1.421875 
z
M 13.921875 21 
Q 13.921875 13.578125 17.015625 9.890625 
Q 20.125 6.203125 26.421875 6.203125 
Q 35.453125 6.203125 41.375 14.078125 
Q 47.3125 21.96875 47.3125 34.078125 
Q 47.3125 41.15625 44.140625 44.765625 
Q 40.96875 48.390625 34.8125 48.390625 
Q 29.734375 48.390625 25.78125 46.015625 
Q 21.828125 43.65625 18.703125 38.8125 
Q 16.40625 35.203125 15.15625 30.5625 
Q 13.921875 25.921875 13.921875 21 
z
" id="DejaVuSans-Oblique-111"/>
      <path d="M 53.609375 52.59375 
L 51.8125 43.703125 
Q 48.578125 46.046875 44.9375 47.21875 
Q 41.3125 48.390625 37.40625 48.390625 
Q 33.109375 48.390625 29.21875 46.875 
Q 25.34375 45.359375 22.703125 42.578125 
Q 18.5 38.328125 16.203125 32.609375 
Q 13.921875 26.90625 13.921875 20.796875 
Q 13.921875 13.421875 17.609375 9.8125 
Q 21.296875 6.203125 28.8125 6.203125 
Q 32.515625 6.203125 36.6875 7.328125 
Q 40.875 8.453125 45.40625 10.6875 
L 43.703125 1.8125 
Q 39.796875 0.203125 35.671875 -0.609375 
Q 31.546875 -1.421875 27.203125 -1.421875 
Q 16.3125 -1.421875 10.453125 4.015625 
Q 4.59375 9.46875 4.59375 19.578125 
Q 4.59375 28.078125 7.640625 35.234375 
Q 10.6875 42.390625 16.703125 48.09375 
Q 20.796875 52 26.3125 54 
Q 31.84375 56 38.375 56 
Q 42.1875 56 45.9375 55.140625 
Q 49.703125 54.296875 53.609375 52.59375 
z
" id="DejaVuSans-Oblique-99"/>
      <path d="M 48.09375 32.234375 
Q 48.25 33.015625 48.3125 33.84375 
Q 48.390625 34.671875 48.390625 35.5 
Q 48.390625 41.453125 44.890625 44.921875 
Q 41.40625 48.390625 35.40625 48.390625 
Q 28.71875 48.390625 23.578125 44.15625 
Q 18.453125 39.9375 15.828125 32.171875 
z
M 55.90625 25.203125 
L 14.109375 25.203125 
Q 13.8125 23.34375 13.71875 22.265625 
Q 13.625 21.1875 13.625 20.40625 
Q 13.625 13.625 17.796875 9.90625 
Q 21.96875 6.203125 29.59375 6.203125 
Q 35.453125 6.203125 40.671875 7.515625 
Q 45.90625 8.84375 50.390625 11.375 
L 48.6875 2.484375 
Q 43.84375 0.53125 38.6875 -0.4375 
Q 33.546875 -1.421875 28.21875 -1.421875 
Q 16.84375 -1.421875 10.71875 4.015625 
Q 4.59375 9.46875 4.59375 19.484375 
Q 4.59375 28.03125 7.640625 35.375 
Q 10.6875 42.71875 16.609375 48.484375 
Q 20.40625 52.09375 25.65625 54.046875 
Q 30.90625 56 36.8125 56 
Q 46.09375 56 51.578125 50.4375 
Q 57.078125 44.875 57.078125 35.5 
Q 57.078125 33.25 56.78125 30.6875 
Q 56.5 28.125 55.90625 25.203125 
z
" id="DejaVuSans-Oblique-101"/>
      <path d="M 50 53.078125 
L 48.296875 44.578125 
Q 44.734375 46.53125 40.765625 47.5 
Q 36.8125 48.484375 32.625 48.484375 
Q 25.53125 48.484375 21.453125 46.0625 
Q 17.390625 43.65625 17.390625 39.5 
Q 17.390625 34.671875 26.859375 32.078125 
Q 27.59375 31.890625 27.9375 31.78125 
L 30.8125 30.90625 
Q 39.796875 28.421875 42.796875 25.6875 
Q 45.796875 22.953125 45.796875 18.21875 
Q 45.796875 9.515625 38.890625 4.046875 
Q 31.984375 -1.421875 20.796875 -1.421875 
Q 16.453125 -1.421875 11.671875 -0.578125 
Q 6.890625 0.25 1.125 2 
L 2.875 11.28125 
Q 7.8125 8.734375 12.59375 7.421875 
Q 17.390625 6.109375 21.78125 6.109375 
Q 28.375 6.109375 32.5 8.9375 
Q 36.625 11.765625 36.625 16.109375 
Q 36.625 20.796875 25.78125 23.6875 
L 24.859375 23.921875 
L 21.78125 24.703125 
Q 14.9375 26.515625 11.765625 29.46875 
Q 8.59375 32.421875 8.59375 37.015625 
Q 8.59375 45.75 15.15625 50.875 
Q 21.734375 56 33.015625 56 
Q 37.453125 56 41.671875 55.265625 
Q 45.90625 54.546875 50 53.078125 
z
" id="DejaVuSans-Oblique-115"/>
      <path d="M 10.59375 45.40625 
L 73.1875 45.40625 
L 73.1875 37.203125 
L 10.59375 37.203125 
z
M 10.59375 25.484375 
L 73.1875 25.484375 
L 73.1875 17.1875 
L 10.59375 17.1875 
z
" id="DejaVuSans-61"/>
      <path d="M 11.71875 12.40625 
L 22.015625 12.40625 
L 22.015625 4 
L 14.015625 -11.625 
L 7.71875 -11.625 
L 11.71875 4 
z
" id="DejaVuSans-44"/>
      <path d="M 36.8125 72.90625 
L 48 72.90625 
L 61.53125 0 
L 51.21875 0 
L 48.1875 18.703125 
L 15.375 18.703125 
L 5.078125 0 
L -5.328125 0 
z
M 40.375 63.1875 
L 19.921875 26.90625 
L 46.6875 26.90625 
z
" id="DejaVuSans-Oblique-65"/>
      <path d="M 16.890625 72.90625 
L 26.8125 72.90625 
L 12.59375 0 
L 2.6875 0 
z
" id="DejaVuSans-Oblique-73"/>
      <path d="M 60.296875 70.515625 
L 58.40625 60.890625 
Q 53.46875 63.53125 48.609375 64.875 
Q 43.75 66.21875 39.203125 66.21875 
Q 30.375 66.21875 25.140625 62.359375 
Q 19.921875 58.5 19.921875 52.09375 
Q 19.921875 48.578125 21.84375 46.703125 
Q 23.78125 44.828125 31.78125 42.671875 
L 37.703125 41.21875 
Q 47.703125 38.625 51.609375 34.640625 
Q 55.515625 30.671875 55.515625 23.484375 
Q 55.515625 12.453125 46.84375 5.515625 
Q 38.1875 -1.421875 24.03125 -1.421875 
Q 18.21875 -1.421875 12.359375 -0.265625 
Q 6.5 0.875 0.59375 3.21875 
L 2.59375 13.375 
Q 8.015625 10.015625 13.453125 8.296875 
Q 18.890625 6.59375 24.3125 6.59375 
Q 33.546875 6.59375 39.109375 10.6875 
Q 44.671875 14.796875 44.671875 21.390625 
Q 44.671875 25.78125 42.453125 28.046875 
Q 40.234375 30.328125 32.90625 32.171875 
L 27 33.6875 
Q 16.890625 36.328125 13.203125 39.765625 
Q 9.515625 43.21875 9.515625 49.421875 
Q 9.515625 60.296875 17.890625 67.25 
Q 26.265625 74.21875 39.703125 74.21875 
Q 44.921875 74.21875 50.046875 73.28125 
Q 55.171875 72.359375 60.296875 70.515625 
z
" id="DejaVuSans-Oblique-83"/>
      <path d="M 25.203125 64.796875 
L 20.21875 38.921875 
L 32.90625 38.921875 
Q 40.375 38.921875 44.984375 43.046875 
Q 49.609375 47.171875 49.609375 53.8125 
Q 49.609375 59.125 46.5 61.953125 
Q 43.40625 64.796875 37.59375 64.796875 
z
M 43.3125 35.015625 
Q 46.4375 34.28125 48.515625 31.390625 
Q 50.59375 28.515625 53.328125 19.921875 
L 59.515625 0 
L 49.125 0 
L 43.40625 18.703125 
Q 41.21875 25.921875 38.328125 28.359375 
Q 35.453125 30.8125 29.5 30.8125 
L 18.609375 30.8125 
L 12.59375 0 
L 2.6875 0 
L 16.890625 72.90625 
L 39.109375 72.90625 
Q 49.21875 72.90625 54.609375 68.328125 
Q 60.015625 63.765625 60.015625 55.171875 
Q 60.015625 47.5625 55.421875 41.984375 
Q 50.828125 36.421875 43.3125 35.015625 
z
" id="DejaVuSans-Oblique-82"/>
      <path d="M 53.71875 31.203125 
L 47.609375 0 
L 38.625 0 
L 40.28125 8.296875 
Q 36.328125 3.421875 31.265625 1 
Q 26.21875 -1.421875 20.015625 -1.421875 
Q 13.03125 -1.421875 8.5625 2.84375 
Q 4.109375 7.125 4.109375 13.8125 
Q 4.109375 23.390625 11.75 28.953125 
Q 19.390625 34.515625 32.8125 34.515625 
L 45.3125 34.515625 
L 45.796875 36.921875 
Q 45.90625 37.3125 45.953125 37.765625 
Q 46 38.234375 46 39.203125 
Q 46 43.5625 42.453125 45.96875 
Q 38.921875 48.390625 32.515625 48.390625 
Q 28.125 48.390625 23.5 47.265625 
Q 18.890625 46.140625 14.015625 43.890625 
L 15.578125 52.203125 
Q 20.65625 54.109375 25.515625 55.046875 
Q 30.375 56 34.90625 56 
Q 44.578125 56 49.625 51.796875 
Q 54.6875 47.609375 54.6875 39.59375 
Q 54.6875 37.984375 54.4375 35.8125 
Q 54.203125 33.640625 53.71875 31.203125 
z
M 44 27.484375 
L 35.015625 27.484375 
Q 23.96875 27.484375 18.671875 24.53125 
Q 13.375 21.578125 13.375 15.375 
Q 13.375 11.078125 16.078125 8.640625 
Q 18.796875 6.203125 23.578125 6.203125 
Q 30.90625 6.203125 36.375 11.453125 
Q 41.84375 16.703125 43.609375 25.484375 
z
" id="DejaVuSans-Oblique-97"/>
      <path d="M 41.796875 8.203125 
Q 38.1875 3.46875 33.25 1.015625 
Q 28.328125 -1.421875 22.3125 -1.421875 
Q 14.109375 -1.421875 9.34375 4.171875 
Q 4.59375 9.765625 4.59375 19.484375 
Q 4.59375 27.59375 7.46875 34.9375 
Q 10.359375 42.28125 15.828125 48.09375 
Q 19.4375 51.953125 23.96875 53.96875 
Q 28.515625 56 33.5 56 
Q 38.765625 56 42.796875 53.453125 
Q 46.828125 50.921875 49.03125 46.1875 
L 54.890625 75.984375 
L 63.921875 75.984375 
L 49.125 0 
L 40.09375 0 
z
M 13.921875 21.09375 
Q 13.921875 14.015625 17.109375 10.0625 
Q 20.3125 6.109375 25.984375 6.109375 
Q 30.171875 6.109375 33.765625 8.125 
Q 37.359375 10.15625 40.09375 14.109375 
Q 42.96875 18.21875 44.625 23.578125 
Q 46.296875 28.953125 46.296875 34.1875 
Q 46.296875 40.96875 43.09375 44.765625 
Q 39.890625 48.578125 34.28125 48.578125 
Q 30.03125 48.578125 26.359375 46.578125 
Q 22.703125 44.578125 20.125 40.828125 
Q 17.28125 36.765625 15.59375 31.390625 
Q 13.921875 26.03125 13.921875 21.09375 
z
" id="DejaVuSans-Oblique-100"/>
     </defs>
     <use transform="translate(0 0.015625)" xlink:href="#DejaVuSans-65"/>
     <use transform="translate(68.408203 0.015625)" xlink:href="#DejaVuSans-118"/>
     <use transform="translate(127.587891 0.015625)" xlink:href="#DejaVuSans-101"/>
     <use transform="translate(189.111328 0.015625)" xlink:href="#DejaVuSans-114"/>
     <use transform="translate(230.224609 0.015625)" xlink:href="#DejaVuSans-97"/>
     <use transform="translate(291.503906 0.015625)" xlink:href="#DejaVuSans-103"/>
     <use transform="translate(354.980469 0.015625)" xlink:href="#DejaVuSans-101"/>
     <use transform="translate(416.503906 0.015625)" xlink:href="#DejaVuSans-32"/>
     <use transform="translate(448.291016 0.015625)" xlink:href="#DejaVuSans-65"/>
     <use transform="translate(516.699219 0.015625)" xlink:href="#DejaVuSans-78"/>
     <use transform="translate(591.503906 0.015625)" xlink:href="#DejaVuSans-69"/>
     <use transform="translate(654.6875 0.015625)" xlink:href="#DejaVuSans-69"/>
     <use transform="translate(717.871094 0.015625)" xlink:href="#DejaVuSans-83"/>
     <use transform="translate(781.347656 0.015625)" xlink:href="#DejaVuSans-32"/>
     <use transform="translate(813.134766 0.015625)" xlink:href="#DejaVuSans-119"/>
     <use transform="translate(894.921875 0.015625)" xlink:href="#DejaVuSans-105"/>
     <use transform="translate(922.705078 0.015625)" xlink:href="#DejaVuSans-116"/>
     <use transform="translate(961.914062 0.015625)" xlink:href="#DejaVuSans-104"/>
     <use transform="translate(1025.292969 0.015625)" xlink:href="#DejaVuSans-32"/>
     <use transform="translate(1057.080078 0.015625)" xlink:href="#DejaVuSans-112"/>
     <use transform="translate(1120.556641 0.015625)" xlink:href="#DejaVuSans-97"/>
     <use transform="translate(1181.835938 0.015625)" xlink:href="#DejaVuSans-114"/>
     <use transform="translate(1222.949219 0.015625)" xlink:href="#DejaVuSans-97"/>
     <use transform="translate(1284.228516 0.015625)" xlink:href="#DejaVuSans-109"/>
     <use transform="translate(1381.640625 0.015625)" xlink:href="#DejaVuSans-101"/>
     <use transform="translate(1443.164062 0.015625)" xlink:href="#DejaVuSans-116"/>
     <use transform="translate(1482.373047 0.015625)" xlink:href="#DejaVuSans-101"/>
     <use transform="translate(1543.896484 0.015625)" xlink:href="#DejaVuSans-114"/>
     <use transform="translate(1585.009766 0.015625)" xlink:href="#DejaVuSans-115"/>
     <use transform="translate(1637.109375 0.015625)" xlink:href="#DejaVuSans-32"/>
     <use transform="translate(1668.896484 0.015625)" xlink:href="#DejaVuSans-Oblique-963"/>
     <use transform="translate(1732.275391 -16.390625)scale(0.7)" xlink:href="#DejaVuSans-Oblique-112"/>
     <use transform="translate(1776.708984 -16.390625)scale(0.7)" xlink:href="#DejaVuSans-Oblique-114"/>
     <use transform="translate(1805.488281 -16.390625)scale(0.7)" xlink:href="#DejaVuSans-Oblique-111"/>
     <use transform="translate(1848.31543 -16.390625)scale(0.7)" xlink:href="#DejaVuSans-Oblique-99"/>
     <use transform="translate(1886.801758 -16.390625)scale(0.7)" xlink:href="#DejaVuSans-Oblique-101"/>
     <use transform="translate(1929.868164 -16.390625)scale(0.7)" xlink:href="#DejaVuSans-Oblique-115"/>
     <use transform="translate(1966.337891 -16.390625)scale(0.7)" xlink:href="#DejaVuSans-Oblique-115"/>
     <use transform="translate(2025.024414 0.015625)" xlink:href="#DejaVuSans-61"/>
     <use transform="translate(2128.295898 0.015625)" xlink:href="#DejaVuSans-48"/>
     <use transform="translate(2191.918945 0.015625)" xlink:href="#DejaVuSans-46"/>
     <use transform="translate(2223.706055 0.015625)" xlink:href="#DejaVuSans-48"/>
     <use transform="translate(2287.329102 0.015625)" xlink:href="#DejaVuSans-53"/>
     <use transform="translate(2350.952148 0.015625)" xlink:href="#DejaVuSans-44"/>
     <use transform="translate(2382.739258 0.015625)" xlink:href="#DejaVuSans-32"/>
     <use transform="translate(2414.526367 0.015625)" xlink:href="#DejaVuSans-32"/>
     <use transform="translate(2446.313477 0.015625)" xlink:href="#DejaVuSans-Oblique-963"/>
     <use transform="translate(2509.692383 -16.390625)scale(0.7)" xlink:href="#DejaVuSans-Oblique-65"/>
     <use transform="translate(2557.578125 -16.390625)scale(0.7)" xlink:href="#DejaVuSans-Oblique-73"/>
     <use transform="translate(2578.222656 -16.390625)scale(0.7)" xlink:href="#DejaVuSans-Oblique-83"/>
     <use transform="translate(2644.873047 0.015625)" xlink:href="#DejaVuSans-61"/>
     <use transform="translate(2748.144531 0.015625)" xlink:href="#DejaVuSans-49"/>
     <use transform="translate(2811.767578 0.015625)" xlink:href="#DejaVuSans-48"/>
     <use transform="translate(2875.390625 0.015625)" xlink:href="#DejaVuSans-44"/>
     <use transform="translate(2907.177734 0.015625)" xlink:href="#DejaVuSans-32"/>
     <use transform="translate(2938.964844 0.015625)" xlink:href="#DejaVuSans-Oblique-963"/>
     <use transform="translate(3002.34375 -16.390625)scale(0.7)" xlink:href="#DejaVuSans-Oblique-82"/>
     <use transform="translate(3050.981445 -16.390625)scale(0.7)" xlink:href="#DejaVuSans-Oblique-97"/>
     <use transform="translate(3093.876953 -16.390625)scale(0.7)" xlink:href="#DejaVuSans-Oblique-100"/>
     <use transform="translate(3138.310547 -16.390625)scale(0.7)" xlink:href="#DejaVuSans-Oblique-97"/>
     <use transform="translate(3181.206055 -16.390625)scale(0.7)" xlink:href="#DejaVuSans-Oblique-114"/>
     <use transform="translate(3232.202148 0.015625)" xlink:href="#DejaVuSans-61"/>
     <use transform="translate(3335.473633 0.015625)" xlink:href="#DejaVuSans-53"/>
    </g>
   </g>
   <g id="legend_1">
    <g id="patch_7">
     <path d="M 566.607813 95.1765 
L 702.2 95.1765 
Q 704.2 95.1765 704.2 93.1765 
L 704.2 35.464 
Q 704.2 33.464 702.2 33.464 
L 566.607813 33.464 
Q 564.607813 33.464 564.607813 35.464 
L 564.607813 93.1765 
Q 564.607813 95.1765 566.607813 95.1765 
z
" style="fill:#ffffff;opacity:0.8;stroke:#cccccc;stroke-linejoin:miter;"/>
    </g>
    <g id="line2d_21">
     <path d="M 568.607813 41.562438 
L 588.607813 41.562438 
" style="fill:none;stroke:#000000;stroke-linecap:square;stroke-width:1.5;"/>
    </g>
    <g id="line2d_22"/>
    <g id="text_19">
     <!-- Confidence Intervals -->
     <g transform="translate(596.607813 45.062438)scale(0.1 -0.1)">
      <defs>
       <path d="M 37.109375 75.984375 
L 37.109375 68.5 
L 28.515625 68.5 
Q 23.6875 68.5 21.796875 66.546875 
Q 19.921875 64.59375 19.921875 59.515625 
L 19.921875 54.6875 
L 34.71875 54.6875 
L 34.71875 47.703125 
L 19.921875 47.703125 
L 19.921875 0 
L 10.890625 0 
L 10.890625 47.703125 
L 2.296875 47.703125 
L 2.296875 54.6875 
L 10.890625 54.6875 
L 10.890625 58.5 
Q 10.890625 67.625 15.140625 71.796875 
Q 19.390625 75.984375 28.609375 75.984375 
z
" id="DejaVuSans-102"/>
       <path d="M 45.40625 46.390625 
L 45.40625 75.984375 
L 54.390625 75.984375 
L 54.390625 0 
L 45.40625 0 
L 45.40625 8.203125 
Q 42.578125 3.328125 38.25 0.953125 
Q 33.9375 -1.421875 27.875 -1.421875 
Q 17.96875 -1.421875 11.734375 6.484375 
Q 5.515625 14.40625 5.515625 27.296875 
Q 5.515625 40.1875 11.734375 48.09375 
Q 17.96875 56 27.875 56 
Q 33.9375 56 38.25 53.625 
Q 42.578125 51.265625 45.40625 46.390625 
z
M 14.796875 27.296875 
Q 14.796875 17.390625 18.875 11.75 
Q 22.953125 6.109375 30.078125 6.109375 
Q 37.203125 6.109375 41.296875 11.75 
Q 45.40625 17.390625 45.40625 27.296875 
Q 45.40625 37.203125 41.296875 42.84375 
Q 37.203125 48.484375 30.078125 48.484375 
Q 22.953125 48.484375 18.875 42.84375 
Q 14.796875 37.203125 14.796875 27.296875 
z
" id="DejaVuSans-100"/>
       <path d="M 48.78125 52.59375 
L 48.78125 44.1875 
Q 44.96875 46.296875 41.140625 47.34375 
Q 37.3125 48.390625 33.40625 48.390625 
Q 24.65625 48.390625 19.8125 42.84375 
Q 14.984375 37.3125 14.984375 27.296875 
Q 14.984375 17.28125 19.8125 11.734375 
Q 24.65625 6.203125 33.40625 6.203125 
Q 37.3125 6.203125 41.140625 7.25 
Q 44.96875 8.296875 48.78125 10.40625 
L 48.78125 2.09375 
Q 45.015625 0.34375 40.984375 -0.53125 
Q 36.96875 -1.421875 32.421875 -1.421875 
Q 20.0625 -1.421875 12.78125 6.34375 
Q 5.515625 14.109375 5.515625 27.296875 
Q 5.515625 40.671875 12.859375 48.328125 
Q 20.21875 56 33.015625 56 
Q 37.15625 56 41.109375 55.140625 
Q 45.0625 54.296875 48.78125 52.59375 
z
" id="DejaVuSans-99"/>
       <path d="M 9.8125 72.90625 
L 19.671875 72.90625 
L 19.671875 0 
L 9.8125 0 
z
" id="DejaVuSans-73"/>
       <path d="M 9.421875 75.984375 
L 18.40625 75.984375 
L 18.40625 0 
L 9.421875 0 
z
" id="DejaVuSans-108"/>
      </defs>
      <use xlink:href="#DejaVuSans-67"/>
      <use x="69.824219" xlink:href="#DejaVuSans-111"/>
      <use x="131.005859" xlink:href="#DejaVuSans-110"/>
      <use x="194.384766" xlink:href="#DejaVuSans-102"/>
      <use x="229.589844" xlink:href="#DejaVuSans-105"/>
      <use x="257.373047" xlink:href="#DejaVuSans-100"/>
      <use x="320.849609" xlink:href="#DejaVuSans-101"/>
      <use x="382.373047" xlink:href="#DejaVuSans-110"/>
      <use x="445.751953" xlink:href="#DejaVuSans-99"/>
      <use x="500.732422" xlink:href="#DejaVuSans-101"/>
      <use x="562.255859" xlink:href="#DejaVuSans-32"/>
      <use x="594.042969" xlink:href="#DejaVuSans-73"/>
      <use x="623.535156" xlink:href="#DejaVuSans-110"/>
      <use x="686.914062" xlink:href="#DejaVuSans-116"/>
      <use x="726.123047" xlink:href="#DejaVuSans-101"/>
      <use x="787.646484" xlink:href="#DejaVuSans-114"/>
      <use x="828.759766" xlink:href="#DejaVuSans-118"/>
      <use x="887.939453" xlink:href="#DejaVuSans-97"/>
      <use x="949.21875" xlink:href="#DejaVuSans-108"/>
      <use x="977.001953" xlink:href="#DejaVuSans-115"/>
     </g>
    </g>
    <g id="line2d_23">
     <path d="M 568.607813 56.240563 
L 588.607813 56.240563 
" style="fill:none;stroke:#0000ff;stroke-linecap:square;stroke-width:1.5;"/>
    </g>
    <g id="line2d_24"/>
    <g id="text_20">
     <!-- Independent -->
     <g transform="translate(596.607813 59.740563)scale(0.1 -0.1)">
      <use xlink:href="#DejaVuSans-73"/>
      <use x="29.492188" xlink:href="#DejaVuSans-110"/>
      <use x="92.871094" xlink:href="#DejaVuSans-100"/>
      <use x="156.347656" xlink:href="#DejaVuSans-101"/>
      <use x="217.871094" xlink:href="#DejaVuSans-112"/>
      <use x="281.347656" xlink:href="#DejaVuSans-101"/>
      <use x="342.871094" xlink:href="#DejaVuSans-110"/>
      <use x="406.25" xlink:href="#DejaVuSans-100"/>
      <use x="469.726562" xlink:href="#DejaVuSans-101"/>
      <use x="531.25" xlink:href="#DejaVuSans-110"/>
      <use x="594.628906" xlink:href="#DejaVuSans-116"/>
     </g>
    </g>
    <g id="line2d_25">
     <path d="M 568.607813 70.918688 
L 588.607813 70.918688 
" style="fill:none;stroke:#ff0000;stroke-linecap:square;stroke-width:1.5;"/>
    </g>
    <g id="line2d_26"/>
    <g id="text_21">
     <!-- Dependent -->
     <g transform="translate(596.607813 74.418688)scale(0.1 -0.1)">
      <defs>
       <path d="M 19.671875 64.796875 
L 19.671875 8.109375 
L 31.59375 8.109375 
Q 46.6875 8.109375 53.6875 14.9375 
Q 60.6875 21.78125 60.6875 36.53125 
Q 60.6875 51.171875 53.6875 57.984375 
Q 46.6875 64.796875 31.59375 64.796875 
z
M 9.8125 72.90625 
L 30.078125 72.90625 
Q 51.265625 72.90625 61.171875 64.09375 
Q 71.09375 55.28125 71.09375 36.53125 
Q 71.09375 17.671875 61.125 8.828125 
Q 51.171875 0 30.078125 0 
L 9.8125 0 
z
" id="DejaVuSans-68"/>
      </defs>
      <use xlink:href="#DejaVuSans-68"/>
      <use x="77.001953" xlink:href="#DejaVuSans-101"/>
      <use x="138.525391" xlink:href="#DejaVuSans-112"/>
      <use x="202.001953" xlink:href="#DejaVuSans-101"/>
      <use x="263.525391" xlink:href="#DejaVuSans-110"/>
      <use x="326.904297" xlink:href="#DejaVuSans-100"/>
      <use x="390.380859" xlink:href="#DejaVuSans-101"/>
      <use x="451.904297" xlink:href="#DejaVuSans-110"/>
      <use x="515.283203" xlink:href="#DejaVuSans-116"/>
     </g>
    </g>
    <g id="line2d_27">
     <path d="M 568.607813 85.596813 
L 588.607813 85.596813 
" style="fill:none;stroke:#008000;stroke-linecap:square;stroke-width:1.5;"/>
    </g>
    <g id="line2d_28"/>
    <g id="text_22">
     <!-- AIS as measurement -->
     <g transform="translate(596.607813 89.096813)scale(0.1 -0.1)">
      <defs>
       <path d="M 8.5 21.578125 
L 8.5 54.6875 
L 17.484375 54.6875 
L 17.484375 21.921875 
Q 17.484375 14.15625 20.5 10.265625 
Q 23.53125 6.390625 29.59375 6.390625 
Q 36.859375 6.390625 41.078125 11.03125 
Q 45.3125 15.671875 45.3125 23.6875 
L 45.3125 54.6875 
L 54.296875 54.6875 
L 54.296875 0 
L 45.3125 0 
L 45.3125 8.40625 
Q 42.046875 3.421875 37.71875 1 
Q 33.40625 -1.421875 27.6875 -1.421875 
Q 18.265625 -1.421875 13.375 4.4375 
Q 8.5 10.296875 8.5 21.578125 
z
M 31.109375 56 
z
" id="DejaVuSans-117"/>
      </defs>
      <use xlink:href="#DejaVuSans-65"/>
      <use x="68.408203" xlink:href="#DejaVuSans-73"/>
      <use x="97.900391" xlink:href="#DejaVuSans-83"/>
      <use x="161.376953" xlink:href="#DejaVuSans-32"/>
      <use x="193.164062" xlink:href="#DejaVuSans-97"/>
      <use x="254.443359" xlink:href="#DejaVuSans-115"/>
      <use x="306.542969" xlink:href="#DejaVuSans-32"/>
      <use x="338.330078" xlink:href="#DejaVuSans-109"/>
      <use x="435.742188" xlink:href="#DejaVuSans-101"/>
      <use x="497.265625" xlink:href="#DejaVuSans-97"/>
      <use x="558.544922" xlink:href="#DejaVuSans-115"/>
      <use x="610.644531" xlink:href="#DejaVuSans-117"/>
      <use x="674.023438" xlink:href="#DejaVuSans-114"/>
      <use x="712.886719" xlink:href="#DejaVuSans-101"/>
      <use x="774.410156" xlink:href="#DejaVuSans-109"/>
      <use x="871.822266" xlink:href="#DejaVuSans-101"/>
      <use x="933.345703" xlink:href="#DejaVuSans-110"/>
      <use x="996.724609" xlink:href="#DejaVuSans-116"/>
     </g>
    </g>
   </g>
  </g>
 </g>
 <defs>
  <clipPath id="p65e262993e">
   <rect height="361.576" width="661.48" x="47.72" y="28.464"/>
  </clipPath>
 </defs>
</svg>
