<?xml version="1.0" encoding="utf-8" standalone="no"?>
<!DOCTYPE svg PUBLIC "-//W3C//DTD SVG 1.1//EN"
  "http://www.w3.org/Graphics/SVG/1.1/DTD/svg11.dtd">
<!-- Created with matplotlib (https://matplotlib.org/) -->
<svg height="432pt" version="1.1" viewBox="0 0 720 432" width="720pt" xmlns="http://www.w3.org/2000/svg" xmlns:xlink="http://www.w3.org/1999/xlink">
 <metadata>
  <rdf:RDF xmlns:cc="http://creativecommons.org/ns#" xmlns:dc="http://purl.org/dc/elements/1.1/" xmlns:rdf="http://www.w3.org/1999/02/22-rdf-syntax-ns#">
   <cc:Work>
    <dc:type rdf:resource="http://purl.org/dc/dcmitype/StillImage"/>
    <dc:date>2020-10-14T12:18:22.080248</dc:date>
    <dc:format>image/svg+xml</dc:format>
    <dc:creator>
     <cc:Agent>
      <dc:title>Matplotlib v3.3.1, https://matplotlib.org/</dc:title>
     </cc:Agent>
    </dc:creator>
   </cc:Work>
  </rdf:RDF>
 </metadata>
 <defs>
  <style type="text/css">*{stroke-linecap:butt;stroke-linejoin:round;}</style>
 </defs>
 <g id="figure_1">
  <g id="patch_1">
   <path d="M 0 432 
L 720 432 
L 720 0 
L 0 0 
z
" style="fill:#ffffff;"/>
  </g>
  <g id="axes_1">
   <g id="patch_2">
    <path d="M 47.72 390.04 
L 709.2 390.04 
L 709.2 28.464 
L 47.72 28.464 
z
" style="fill:#ffffff;"/>
   </g>
   <g id="matplotlib.axis_1">
    <g id="xtick_1">
     <g id="line2d_1">
      <defs>
       <path d="M 0 0 
L 0 3.5 
" id="m76fdb7c4af" style="stroke:#000000;stroke-width:0.8;"/>
      </defs>
      <g>
       <use style="stroke:#000000;stroke-width:0.8;" x="77.787273" xlink:href="#m76fdb7c4af" y="390.04"/>
      </g>
     </g>
     <g id="text_1">
      <!-- 0 -->
      <g transform="translate(74.606023 404.638438)scale(0.1 -0.1)">
       <defs>
        <path d="M 31.78125 66.40625 
Q 24.171875 66.40625 20.328125 58.90625 
Q 16.5 51.421875 16.5 36.375 
Q 16.5 21.390625 20.328125 13.890625 
Q 24.171875 6.390625 31.78125 6.390625 
Q 39.453125 6.390625 43.28125 13.890625 
Q 47.125 21.390625 47.125 36.375 
Q 47.125 51.421875 43.28125 58.90625 
Q 39.453125 66.40625 31.78125 66.40625 
z
M 31.78125 74.21875 
Q 44.046875 74.21875 50.515625 64.515625 
Q 56.984375 54.828125 56.984375 36.375 
Q 56.984375 17.96875 50.515625 8.265625 
Q 44.046875 -1.421875 31.78125 -1.421875 
Q 19.53125 -1.421875 13.0625 8.265625 
Q 6.59375 17.96875 6.59375 36.375 
Q 6.59375 54.828125 13.0625 64.515625 
Q 19.53125 74.21875 31.78125 74.21875 
z
" id="DejaVuSans-48"/>
       </defs>
       <use xlink:href="#DejaVuSans-48"/>
      </g>
     </g>
    </g>
    <g id="xtick_2">
     <g id="line2d_2">
      <g>
       <use style="stroke:#000000;stroke-width:0.8;" x="198.297384" xlink:href="#m76fdb7c4af" y="390.04"/>
      </g>
     </g>
     <g id="text_2">
      <!-- 100 -->
      <g transform="translate(188.753634 404.638438)scale(0.1 -0.1)">
       <defs>
        <path d="M 12.40625 8.296875 
L 28.515625 8.296875 
L 28.515625 63.921875 
L 10.984375 60.40625 
L 10.984375 69.390625 
L 28.421875 72.90625 
L 38.28125 72.90625 
L 38.28125 8.296875 
L 54.390625 8.296875 
L 54.390625 0 
L 12.40625 0 
z
" id="DejaVuSans-49"/>
       </defs>
       <use xlink:href="#DejaVuSans-49"/>
       <use x="63.623047" xlink:href="#DejaVuSans-48"/>
       <use x="127.246094" xlink:href="#DejaVuSans-48"/>
      </g>
     </g>
    </g>
    <g id="xtick_3">
     <g id="line2d_3">
      <g>
       <use style="stroke:#000000;stroke-width:0.8;" x="318.807495" xlink:href="#m76fdb7c4af" y="390.04"/>
      </g>
     </g>
     <g id="text_3">
      <!-- 200 -->
      <g transform="translate(309.263745 404.638438)scale(0.1 -0.1)">
       <defs>
        <path d="M 19.1875 8.296875 
L 53.609375 8.296875 
L 53.609375 0 
L 7.328125 0 
L 7.328125 8.296875 
Q 12.9375 14.109375 22.625 23.890625 
Q 32.328125 33.6875 34.8125 36.53125 
Q 39.546875 41.84375 41.421875 45.53125 
Q 43.3125 49.21875 43.3125 52.78125 
Q 43.3125 58.59375 39.234375 62.25 
Q 35.15625 65.921875 28.609375 65.921875 
Q 23.96875 65.921875 18.8125 64.3125 
Q 13.671875 62.703125 7.8125 59.421875 
L 7.8125 69.390625 
Q 13.765625 71.78125 18.9375 73 
Q 24.125 74.21875 28.421875 74.21875 
Q 39.75 74.21875 46.484375 68.546875 
Q 53.21875 62.890625 53.21875 53.421875 
Q 53.21875 48.921875 51.53125 44.890625 
Q 49.859375 40.875 45.40625 35.40625 
Q 44.1875 33.984375 37.640625 27.21875 
Q 31.109375 20.453125 19.1875 8.296875 
z
" id="DejaVuSans-50"/>
       </defs>
       <use xlink:href="#DejaVuSans-50"/>
       <use x="63.623047" xlink:href="#DejaVuSans-48"/>
       <use x="127.246094" xlink:href="#DejaVuSans-48"/>
      </g>
     </g>
    </g>
    <g id="xtick_4">
     <g id="line2d_4">
      <g>
       <use style="stroke:#000000;stroke-width:0.8;" x="439.317606" xlink:href="#m76fdb7c4af" y="390.04"/>
      </g>
     </g>
     <g id="text_4">
      <!-- 300 -->
      <g transform="translate(429.773856 404.638438)scale(0.1 -0.1)">
       <defs>
        <path d="M 40.578125 39.3125 
Q 47.65625 37.796875 51.625 33 
Q 55.609375 28.21875 55.609375 21.1875 
Q 55.609375 10.40625 48.1875 4.484375 
Q 40.765625 -1.421875 27.09375 -1.421875 
Q 22.515625 -1.421875 17.65625 -0.515625 
Q 12.796875 0.390625 7.625 2.203125 
L 7.625 11.71875 
Q 11.71875 9.328125 16.59375 8.109375 
Q 21.484375 6.890625 26.8125 6.890625 
Q 36.078125 6.890625 40.9375 10.546875 
Q 45.796875 14.203125 45.796875 21.1875 
Q 45.796875 27.640625 41.28125 31.265625 
Q 36.765625 34.90625 28.71875 34.90625 
L 20.21875 34.90625 
L 20.21875 43.015625 
L 29.109375 43.015625 
Q 36.375 43.015625 40.234375 45.921875 
Q 44.09375 48.828125 44.09375 54.296875 
Q 44.09375 59.90625 40.109375 62.90625 
Q 36.140625 65.921875 28.71875 65.921875 
Q 24.65625 65.921875 20.015625 65.03125 
Q 15.375 64.15625 9.8125 62.3125 
L 9.8125 71.09375 
Q 15.4375 72.65625 20.34375 73.4375 
Q 25.25 74.21875 29.59375 74.21875 
Q 40.828125 74.21875 47.359375 69.109375 
Q 53.90625 64.015625 53.90625 55.328125 
Q 53.90625 49.265625 50.4375 45.09375 
Q 46.96875 40.921875 40.578125 39.3125 
z
" id="DejaVuSans-51"/>
       </defs>
       <use xlink:href="#DejaVuSans-51"/>
       <use x="63.623047" xlink:href="#DejaVuSans-48"/>
       <use x="127.246094" xlink:href="#DejaVuSans-48"/>
      </g>
     </g>
    </g>
    <g id="xtick_5">
     <g id="line2d_5">
      <g>
       <use style="stroke:#000000;stroke-width:0.8;" x="559.827717" xlink:href="#m76fdb7c4af" y="390.04"/>
      </g>
     </g>
     <g id="text_5">
      <!-- 400 -->
      <g transform="translate(550.283967 404.638438)scale(0.1 -0.1)">
       <defs>
        <path d="M 37.796875 64.3125 
L 12.890625 25.390625 
L 37.796875 25.390625 
z
M 35.203125 72.90625 
L 47.609375 72.90625 
L 47.609375 25.390625 
L 58.015625 25.390625 
L 58.015625 17.1875 
L 47.609375 17.1875 
L 47.609375 0 
L 37.796875 0 
L 37.796875 17.1875 
L 4.890625 17.1875 
L 4.890625 26.703125 
z
" id="DejaVuSans-52"/>
       </defs>
       <use xlink:href="#DejaVuSans-52"/>
       <use x="63.623047" xlink:href="#DejaVuSans-48"/>
       <use x="127.246094" xlink:href="#DejaVuSans-48"/>
      </g>
     </g>
    </g>
    <g id="xtick_6">
     <g id="line2d_6">
      <g>
       <use style="stroke:#000000;stroke-width:0.8;" x="680.337828" xlink:href="#m76fdb7c4af" y="390.04"/>
      </g>
     </g>
     <g id="text_6">
      <!-- 500 -->
      <g transform="translate(670.794078 404.638438)scale(0.1 -0.1)">
       <defs>
        <path d="M 10.796875 72.90625 
L 49.515625 72.90625 
L 49.515625 64.59375 
L 19.828125 64.59375 
L 19.828125 46.734375 
Q 21.96875 47.46875 24.109375 47.828125 
Q 26.265625 48.1875 28.421875 48.1875 
Q 40.625 48.1875 47.75 41.5 
Q 54.890625 34.8125 54.890625 23.390625 
Q 54.890625 11.625 47.5625 5.09375 
Q 40.234375 -1.421875 26.90625 -1.421875 
Q 22.3125 -1.421875 17.546875 -0.640625 
Q 12.796875 0.140625 7.71875 1.703125 
L 7.71875 11.625 
Q 12.109375 9.234375 16.796875 8.0625 
Q 21.484375 6.890625 26.703125 6.890625 
Q 35.15625 6.890625 40.078125 11.328125 
Q 45.015625 15.765625 45.015625 23.390625 
Q 45.015625 31 40.078125 35.4375 
Q 35.15625 39.890625 26.703125 39.890625 
Q 22.75 39.890625 18.8125 39.015625 
Q 14.890625 38.140625 10.796875 36.28125 
z
" id="DejaVuSans-53"/>
       </defs>
       <use xlink:href="#DejaVuSans-53"/>
       <use x="63.623047" xlink:href="#DejaVuSans-48"/>
       <use x="127.246094" xlink:href="#DejaVuSans-48"/>
      </g>
     </g>
    </g>
    <g id="text_7">
     <!-- MC iterations -->
     <g transform="translate(345.338125 418.316562)scale(0.1 -0.1)">
      <defs>
       <path d="M 9.8125 72.90625 
L 24.515625 72.90625 
L 43.109375 23.296875 
L 61.8125 72.90625 
L 76.515625 72.90625 
L 76.515625 0 
L 66.890625 0 
L 66.890625 64.015625 
L 48.09375 14.015625 
L 38.1875 14.015625 
L 19.390625 64.015625 
L 19.390625 0 
L 9.8125 0 
z
" id="DejaVuSans-77"/>
       <path d="M 64.40625 67.28125 
L 64.40625 56.890625 
Q 59.421875 61.53125 53.78125 63.8125 
Q 48.140625 66.109375 41.796875 66.109375 
Q 29.296875 66.109375 22.65625 58.46875 
Q 16.015625 50.828125 16.015625 36.375 
Q 16.015625 21.96875 22.65625 14.328125 
Q 29.296875 6.6875 41.796875 6.6875 
Q 48.140625 6.6875 53.78125 8.984375 
Q 59.421875 11.28125 64.40625 15.921875 
L 64.40625 5.609375 
Q 59.234375 2.09375 53.4375 0.328125 
Q 47.65625 -1.421875 41.21875 -1.421875 
Q 24.65625 -1.421875 15.125 8.703125 
Q 5.609375 18.84375 5.609375 36.375 
Q 5.609375 53.953125 15.125 64.078125 
Q 24.65625 74.21875 41.21875 74.21875 
Q 47.75 74.21875 53.53125 72.484375 
Q 59.328125 70.75 64.40625 67.28125 
z
" id="DejaVuSans-67"/>
       <path id="DejaVuSans-32"/>
       <path d="M 9.421875 54.6875 
L 18.40625 54.6875 
L 18.40625 0 
L 9.421875 0 
z
M 9.421875 75.984375 
L 18.40625 75.984375 
L 18.40625 64.59375 
L 9.421875 64.59375 
z
" id="DejaVuSans-105"/>
       <path d="M 18.3125 70.21875 
L 18.3125 54.6875 
L 36.8125 54.6875 
L 36.8125 47.703125 
L 18.3125 47.703125 
L 18.3125 18.015625 
Q 18.3125 11.328125 20.140625 9.421875 
Q 21.96875 7.515625 27.59375 7.515625 
L 36.8125 7.515625 
L 36.8125 0 
L 27.59375 0 
Q 17.1875 0 13.234375 3.875 
Q 9.28125 7.765625 9.28125 18.015625 
L 9.28125 47.703125 
L 2.6875 47.703125 
L 2.6875 54.6875 
L 9.28125 54.6875 
L 9.28125 70.21875 
z
" id="DejaVuSans-116"/>
       <path d="M 56.203125 29.59375 
L 56.203125 25.203125 
L 14.890625 25.203125 
Q 15.484375 15.921875 20.484375 11.0625 
Q 25.484375 6.203125 34.421875 6.203125 
Q 39.59375 6.203125 44.453125 7.46875 
Q 49.3125 8.734375 54.109375 11.28125 
L 54.109375 2.78125 
Q 49.265625 0.734375 44.1875 -0.34375 
Q 39.109375 -1.421875 33.890625 -1.421875 
Q 20.796875 -1.421875 13.15625 6.1875 
Q 5.515625 13.8125 5.515625 26.8125 
Q 5.515625 40.234375 12.765625 48.109375 
Q 20.015625 56 32.328125 56 
Q 43.359375 56 49.78125 48.890625 
Q 56.203125 41.796875 56.203125 29.59375 
z
M 47.21875 32.234375 
Q 47.125 39.59375 43.09375 43.984375 
Q 39.0625 48.390625 32.421875 48.390625 
Q 24.90625 48.390625 20.390625 44.140625 
Q 15.875 39.890625 15.1875 32.171875 
z
" id="DejaVuSans-101"/>
       <path d="M 41.109375 46.296875 
Q 39.59375 47.171875 37.8125 47.578125 
Q 36.03125 48 33.890625 48 
Q 26.265625 48 22.1875 43.046875 
Q 18.109375 38.09375 18.109375 28.8125 
L 18.109375 0 
L 9.078125 0 
L 9.078125 54.6875 
L 18.109375 54.6875 
L 18.109375 46.1875 
Q 20.953125 51.171875 25.484375 53.578125 
Q 30.03125 56 36.53125 56 
Q 37.453125 56 38.578125 55.875 
Q 39.703125 55.765625 41.0625 55.515625 
z
" id="DejaVuSans-114"/>
       <path d="M 34.28125 27.484375 
Q 23.390625 27.484375 19.1875 25 
Q 14.984375 22.515625 14.984375 16.5 
Q 14.984375 11.71875 18.140625 8.90625 
Q 21.296875 6.109375 26.703125 6.109375 
Q 34.1875 6.109375 38.703125 11.40625 
Q 43.21875 16.703125 43.21875 25.484375 
L 43.21875 27.484375 
z
M 52.203125 31.203125 
L 52.203125 0 
L 43.21875 0 
L 43.21875 8.296875 
Q 40.140625 3.328125 35.546875 0.953125 
Q 30.953125 -1.421875 24.3125 -1.421875 
Q 15.921875 -1.421875 10.953125 3.296875 
Q 6 8.015625 6 15.921875 
Q 6 25.140625 12.171875 29.828125 
Q 18.359375 34.515625 30.609375 34.515625 
L 43.21875 34.515625 
L 43.21875 35.40625 
Q 43.21875 41.609375 39.140625 45 
Q 35.0625 48.390625 27.6875 48.390625 
Q 23 48.390625 18.546875 47.265625 
Q 14.109375 46.140625 10.015625 43.890625 
L 10.015625 52.203125 
Q 14.9375 54.109375 19.578125 55.046875 
Q 24.21875 56 28.609375 56 
Q 40.484375 56 46.34375 49.84375 
Q 52.203125 43.703125 52.203125 31.203125 
z
" id="DejaVuSans-97"/>
       <path d="M 30.609375 48.390625 
Q 23.390625 48.390625 19.1875 42.75 
Q 14.984375 37.109375 14.984375 27.296875 
Q 14.984375 17.484375 19.15625 11.84375 
Q 23.34375 6.203125 30.609375 6.203125 
Q 37.796875 6.203125 41.984375 11.859375 
Q 46.1875 17.53125 46.1875 27.296875 
Q 46.1875 37.015625 41.984375 42.703125 
Q 37.796875 48.390625 30.609375 48.390625 
z
M 30.609375 56 
Q 42.328125 56 49.015625 48.375 
Q 55.71875 40.765625 55.71875 27.296875 
Q 55.71875 13.875 49.015625 6.21875 
Q 42.328125 -1.421875 30.609375 -1.421875 
Q 18.84375 -1.421875 12.171875 6.21875 
Q 5.515625 13.875 5.515625 27.296875 
Q 5.515625 40.765625 12.171875 48.375 
Q 18.84375 56 30.609375 56 
z
" id="DejaVuSans-111"/>
       <path d="M 54.890625 33.015625 
L 54.890625 0 
L 45.90625 0 
L 45.90625 32.71875 
Q 45.90625 40.484375 42.875 44.328125 
Q 39.84375 48.1875 33.796875 48.1875 
Q 26.515625 48.1875 22.3125 43.546875 
Q 18.109375 38.921875 18.109375 30.90625 
L 18.109375 0 
L 9.078125 0 
L 9.078125 54.6875 
L 18.109375 54.6875 
L 18.109375 46.1875 
Q 21.34375 51.125 25.703125 53.5625 
Q 30.078125 56 35.796875 56 
Q 45.21875 56 50.046875 50.171875 
Q 54.890625 44.34375 54.890625 33.015625 
z
" id="DejaVuSans-110"/>
       <path d="M 44.28125 53.078125 
L 44.28125 44.578125 
Q 40.484375 46.53125 36.375 47.5 
Q 32.28125 48.484375 27.875 48.484375 
Q 21.1875 48.484375 17.84375 46.4375 
Q 14.5 44.390625 14.5 40.28125 
Q 14.5 37.15625 16.890625 35.375 
Q 19.28125 33.59375 26.515625 31.984375 
L 29.59375 31.296875 
Q 39.15625 29.25 43.1875 25.515625 
Q 47.21875 21.78125 47.21875 15.09375 
Q 47.21875 7.46875 41.1875 3.015625 
Q 35.15625 -1.421875 24.609375 -1.421875 
Q 20.21875 -1.421875 15.453125 -0.5625 
Q 10.6875 0.296875 5.421875 2 
L 5.421875 11.28125 
Q 10.40625 8.6875 15.234375 7.390625 
Q 20.0625 6.109375 24.8125 6.109375 
Q 31.15625 6.109375 34.5625 8.28125 
Q 37.984375 10.453125 37.984375 14.40625 
Q 37.984375 18.0625 35.515625 20.015625 
Q 33.0625 21.96875 24.703125 23.78125 
L 21.578125 24.515625 
Q 13.234375 26.265625 9.515625 29.90625 
Q 5.8125 33.546875 5.8125 39.890625 
Q 5.8125 47.609375 11.28125 51.796875 
Q 16.75 56 26.8125 56 
Q 31.78125 56 36.171875 55.265625 
Q 40.578125 54.546875 44.28125 53.078125 
z
" id="DejaVuSans-115"/>
      </defs>
      <use xlink:href="#DejaVuSans-77"/>
      <use x="86.279297" xlink:href="#DejaVuSans-67"/>
      <use x="156.103516" xlink:href="#DejaVuSans-32"/>
      <use x="187.890625" xlink:href="#DejaVuSans-105"/>
      <use x="215.673828" xlink:href="#DejaVuSans-116"/>
      <use x="254.882812" xlink:href="#DejaVuSans-101"/>
      <use x="316.40625" xlink:href="#DejaVuSans-114"/>
      <use x="357.519531" xlink:href="#DejaVuSans-97"/>
      <use x="418.798828" xlink:href="#DejaVuSans-116"/>
      <use x="458.007812" xlink:href="#DejaVuSans-105"/>
      <use x="485.791016" xlink:href="#DejaVuSans-111"/>
      <use x="546.972656" xlink:href="#DejaVuSans-110"/>
      <use x="610.351562" xlink:href="#DejaVuSans-115"/>
     </g>
    </g>
   </g>
   <g id="matplotlib.axis_2">
    <g id="ytick_1">
     <g id="line2d_7">
      <defs>
       <path d="M 0 0 
L -3.5 0 
" id="m95b3902803" style="stroke:#000000;stroke-width:0.8;"/>
      </defs>
      <g>
       <use style="stroke:#000000;stroke-width:0.8;" x="47.72" xlink:href="#m95b3902803" y="390.04"/>
      </g>
     </g>
     <g id="text_8">
      <!-- 2.5 -->
      <g transform="translate(24.816875 393.839219)scale(0.1 -0.1)">
       <defs>
        <path d="M 10.6875 12.40625 
L 21 12.40625 
L 21 0 
L 10.6875 0 
z
" id="DejaVuSans-46"/>
       </defs>
       <use xlink:href="#DejaVuSans-50"/>
       <use x="63.623047" xlink:href="#DejaVuSans-46"/>
       <use x="95.410156" xlink:href="#DejaVuSans-53"/>
      </g>
     </g>
    </g>
    <g id="ytick_2">
     <g id="line2d_8">
      <g>
       <use style="stroke:#000000;stroke-width:0.8;" x="47.72" xlink:href="#m95b3902803" y="344.843"/>
      </g>
     </g>
     <g id="text_9">
      <!-- 3.0 -->
      <g transform="translate(24.816875 348.642219)scale(0.1 -0.1)">
       <use xlink:href="#DejaVuSans-51"/>
       <use x="63.623047" xlink:href="#DejaVuSans-46"/>
       <use x="95.410156" xlink:href="#DejaVuSans-48"/>
      </g>
     </g>
    </g>
    <g id="ytick_3">
     <g id="line2d_9">
      <g>
       <use style="stroke:#000000;stroke-width:0.8;" x="47.72" xlink:href="#m95b3902803" y="299.646"/>
      </g>
     </g>
     <g id="text_10">
      <!-- 3.5 -->
      <g transform="translate(24.816875 303.445219)scale(0.1 -0.1)">
       <use xlink:href="#DejaVuSans-51"/>
       <use x="63.623047" xlink:href="#DejaVuSans-46"/>
       <use x="95.410156" xlink:href="#DejaVuSans-53"/>
      </g>
     </g>
    </g>
    <g id="ytick_4">
     <g id="line2d_10">
      <g>
       <use style="stroke:#000000;stroke-width:0.8;" x="47.72" xlink:href="#m95b3902803" y="254.449"/>
      </g>
     </g>
     <g id="text_11">
      <!-- 4.0 -->
      <g transform="translate(24.816875 258.248219)scale(0.1 -0.1)">
       <use xlink:href="#DejaVuSans-52"/>
       <use x="63.623047" xlink:href="#DejaVuSans-46"/>
       <use x="95.410156" xlink:href="#DejaVuSans-48"/>
      </g>
     </g>
    </g>
    <g id="ytick_5">
     <g id="line2d_11">
      <g>
       <use style="stroke:#000000;stroke-width:0.8;" x="47.72" xlink:href="#m95b3902803" y="209.252"/>
      </g>
     </g>
     <g id="text_12">
      <!-- 4.5 -->
      <g transform="translate(24.816875 213.051219)scale(0.1 -0.1)">
       <use xlink:href="#DejaVuSans-52"/>
       <use x="63.623047" xlink:href="#DejaVuSans-46"/>
       <use x="95.410156" xlink:href="#DejaVuSans-53"/>
      </g>
     </g>
    </g>
    <g id="ytick_6">
     <g id="line2d_12">
      <g>
       <use style="stroke:#000000;stroke-width:0.8;" x="47.72" xlink:href="#m95b3902803" y="164.055"/>
      </g>
     </g>
     <g id="text_13">
      <!-- 5.0 -->
      <g transform="translate(24.816875 167.854219)scale(0.1 -0.1)">
       <use xlink:href="#DejaVuSans-53"/>
       <use x="63.623047" xlink:href="#DejaVuSans-46"/>
       <use x="95.410156" xlink:href="#DejaVuSans-48"/>
      </g>
     </g>
    </g>
    <g id="ytick_7">
     <g id="line2d_13">
      <g>
       <use style="stroke:#000000;stroke-width:0.8;" x="47.72" xlink:href="#m95b3902803" y="118.858"/>
      </g>
     </g>
     <g id="text_14">
      <!-- 5.5 -->
      <g transform="translate(24.816875 122.657219)scale(0.1 -0.1)">
       <use xlink:href="#DejaVuSans-53"/>
       <use x="63.623047" xlink:href="#DejaVuSans-46"/>
       <use x="95.410156" xlink:href="#DejaVuSans-53"/>
      </g>
     </g>
    </g>
    <g id="ytick_8">
     <g id="line2d_14">
      <g>
       <use style="stroke:#000000;stroke-width:0.8;" x="47.72" xlink:href="#m95b3902803" y="73.661"/>
      </g>
     </g>
     <g id="text_15">
      <!-- 6.0 -->
      <g transform="translate(24.816875 77.460219)scale(0.1 -0.1)">
       <defs>
        <path d="M 33.015625 40.375 
Q 26.375 40.375 22.484375 35.828125 
Q 18.609375 31.296875 18.609375 23.390625 
Q 18.609375 15.53125 22.484375 10.953125 
Q 26.375 6.390625 33.015625 6.390625 
Q 39.65625 6.390625 43.53125 10.953125 
Q 47.40625 15.53125 47.40625 23.390625 
Q 47.40625 31.296875 43.53125 35.828125 
Q 39.65625 40.375 33.015625 40.375 
z
M 52.59375 71.296875 
L 52.59375 62.3125 
Q 48.875 64.0625 45.09375 64.984375 
Q 41.3125 65.921875 37.59375 65.921875 
Q 27.828125 65.921875 22.671875 59.328125 
Q 17.53125 52.734375 16.796875 39.40625 
Q 19.671875 43.65625 24.015625 45.921875 
Q 28.375 48.1875 33.59375 48.1875 
Q 44.578125 48.1875 50.953125 41.515625 
Q 57.328125 34.859375 57.328125 23.390625 
Q 57.328125 12.15625 50.6875 5.359375 
Q 44.046875 -1.421875 33.015625 -1.421875 
Q 20.359375 -1.421875 13.671875 8.265625 
Q 6.984375 17.96875 6.984375 36.375 
Q 6.984375 53.65625 15.1875 63.9375 
Q 23.390625 74.21875 37.203125 74.21875 
Q 40.921875 74.21875 44.703125 73.484375 
Q 48.484375 72.75 52.59375 71.296875 
z
" id="DejaVuSans-54"/>
       </defs>
       <use xlink:href="#DejaVuSans-54"/>
       <use x="63.623047" xlink:href="#DejaVuSans-46"/>
       <use x="95.410156" xlink:href="#DejaVuSans-48"/>
      </g>
     </g>
    </g>
    <g id="ytick_9">
     <g id="line2d_15">
      <g>
       <use style="stroke:#000000;stroke-width:0.8;" x="47.72" xlink:href="#m95b3902803" y="28.464"/>
      </g>
     </g>
     <g id="text_16">
      <!-- 6.5 -->
      <g transform="translate(24.816875 32.263219)scale(0.1 -0.1)">
       <use xlink:href="#DejaVuSans-54"/>
       <use x="63.623047" xlink:href="#DejaVuSans-46"/>
       <use x="95.410156" xlink:href="#DejaVuSans-53"/>
      </g>
     </g>
    </g>
    <g id="text_17">
     <!-- ANEES -->
     <g transform="translate(18.737188 225.905906)rotate(-90)scale(0.1 -0.1)">
      <defs>
       <path d="M 34.1875 63.1875 
L 20.796875 26.90625 
L 47.609375 26.90625 
z
M 28.609375 72.90625 
L 39.796875 72.90625 
L 67.578125 0 
L 57.328125 0 
L 50.6875 18.703125 
L 17.828125 18.703125 
L 11.1875 0 
L 0.78125 0 
z
" id="DejaVuSans-65"/>
       <path d="M 9.8125 72.90625 
L 23.09375 72.90625 
L 55.421875 11.921875 
L 55.421875 72.90625 
L 64.984375 72.90625 
L 64.984375 0 
L 51.703125 0 
L 19.390625 60.984375 
L 19.390625 0 
L 9.8125 0 
z
" id="DejaVuSans-78"/>
       <path d="M 9.8125 72.90625 
L 55.90625 72.90625 
L 55.90625 64.59375 
L 19.671875 64.59375 
L 19.671875 43.015625 
L 54.390625 43.015625 
L 54.390625 34.71875 
L 19.671875 34.71875 
L 19.671875 8.296875 
L 56.78125 8.296875 
L 56.78125 0 
L 9.8125 0 
z
" id="DejaVuSans-69"/>
       <path d="M 53.515625 70.515625 
L 53.515625 60.890625 
Q 47.90625 63.578125 42.921875 64.890625 
Q 37.9375 66.21875 33.296875 66.21875 
Q 25.25 66.21875 20.875 63.09375 
Q 16.5 59.96875 16.5 54.203125 
Q 16.5 49.359375 19.40625 46.890625 
Q 22.3125 44.4375 30.421875 42.921875 
L 36.375 41.703125 
Q 47.40625 39.59375 52.65625 34.296875 
Q 57.90625 29 57.90625 20.125 
Q 57.90625 9.515625 50.796875 4.046875 
Q 43.703125 -1.421875 29.984375 -1.421875 
Q 24.8125 -1.421875 18.96875 -0.25 
Q 13.140625 0.921875 6.890625 3.21875 
L 6.890625 13.375 
Q 12.890625 10.015625 18.65625 8.296875 
Q 24.421875 6.59375 29.984375 6.59375 
Q 38.421875 6.59375 43.015625 9.90625 
Q 47.609375 13.234375 47.609375 19.390625 
Q 47.609375 24.75 44.3125 27.78125 
Q 41.015625 30.8125 33.5 32.328125 
L 27.484375 33.5 
Q 16.453125 35.6875 11.515625 40.375 
Q 6.59375 45.0625 6.59375 53.421875 
Q 6.59375 63.09375 13.40625 68.65625 
Q 20.21875 74.21875 32.171875 74.21875 
Q 37.3125 74.21875 42.625 73.28125 
Q 47.953125 72.359375 53.515625 70.515625 
z
" id="DejaVuSans-83"/>
      </defs>
      <use xlink:href="#DejaVuSans-65"/>
      <use x="68.408203" xlink:href="#DejaVuSans-78"/>
      <use x="143.212891" xlink:href="#DejaVuSans-69"/>
      <use x="206.396484" xlink:href="#DejaVuSans-69"/>
      <use x="269.580078" xlink:href="#DejaVuSans-83"/>
     </g>
    </g>
   </g>
   <g id="line2d_16">
    <path clip-path="url(#p377aa20828)" d="M 77.787273 357.709805 
L 78.992374 329.317719 
L 80.197475 316.242562 
L 81.402576 308.304609 
L 82.607677 302.826273 
L 83.812778 298.750605 
L 85.017879 295.564442 
L 86.222981 292.984363 
L 87.428082 290.839294 
L 88.633183 289.019013 
L 89.838284 287.448857 
L 92.248486 284.862753 
L 94.658688 282.805634 
L 97.068891 281.1184 
L 99.479093 279.701838 
L 101.889295 278.490425 
L 105.504598 276.962617 
L 109.119902 275.694492 
L 113.940306 274.296453 
L 118.760711 273.143367 
L 124.786216 271.950894 
L 132.016823 270.783189 
L 140.452531 269.678285 
L 150.093339 268.654858 
L 162.144351 267.626072 
L 176.605564 266.644775 
L 193.476979 265.737586 
L 213.963698 264.868282 
L 239.270822 264.029282 
L 270.603451 263.226598 
L 309.166686 262.470191 
L 357.370731 261.752924 
L 418.830887 261.067836 
L 498.367561 260.413905 
L 602.006256 259.79563 
L 679.132727 259.44295 
L 679.132727 259.44295 
" style="fill:none;stroke:#000000;stroke-linecap:square;stroke-width:1.5;"/>
   </g>
   <g id="line2d_17">
    <path clip-path="url(#p377aa20828)" d="M 77.787273 134.095862 
L 78.992374 171.026316 
L 80.197475 186.951071 
L 81.402576 196.314472 
L 82.607677 202.648283 
L 83.812778 207.294353 
L 85.017879 210.887989 
L 86.222981 213.773695 
L 87.428082 216.156487 
L 88.633183 218.166956 
L 89.838284 219.892725 
L 91.043385 221.395059 
L 93.453587 223.895195 
L 95.863789 225.904917 
L 98.273992 227.565822 
L 100.684194 228.968223 
L 103.094396 230.172784 
L 106.709699 231.698222 
L 110.325003 232.969159 
L 115.145407 234.374725 
L 119.965812 235.537074 
L 125.991317 236.741618 
L 133.221924 237.923214 
L 141.657632 239.042796 
L 151.298441 240.08086 
L 163.349452 241.125096 
L 176.605564 242.046924 
L 193.476979 242.983887 
L 213.963698 243.879516 
L 238.065721 244.70549 
L 268.193248 245.509014 
L 305.551383 246.274962 
L 352.550326 247.007112 
L 412.805382 247.710018 
L 489.931853 248.373865 
L 589.955245 249.000017 
L 679.132727 249.420803 
L 679.132727 249.420803 
" style="fill:none;stroke:#000000;stroke-linecap:square;stroke-width:1.5;"/>
   </g>
   <g id="line2d_18">
    <path clip-path="url(#p377aa20828)" d="M 77.787273 136.744329 
L 78.992374 185.612307 
L 80.197475 145.204828 
L 81.402576 144.555663 
L 82.607677 141.303312 
L 83.812778 137.529125 
L 85.017879 128.246439 
L 86.222981 136.554246 
L 87.428082 123.514048 
L 88.633183 121.074258 
L 89.838284 120.759168 
L 91.043385 137.406575 
L 92.248486 124.388753 
L 93.453587 129.677803 
L 94.658688 122.581668 
L 95.863789 122.915302 
L 97.068891 126.951726 
L 98.273992 118.009008 
L 99.479093 121.444843 
L 100.684194 133.372394 
L 101.889295 134.992215 
L 103.094396 132.321746 
L 104.299497 127.922357 
L 105.504598 131.985618 
L 106.709699 132.30722 
L 107.914801 125.845422 
L 109.119902 123.451279 
L 110.325003 127.968572 
L 111.530104 126.083726 
L 112.735205 122.230306 
L 113.940306 119.870341 
L 115.145407 118.167993 
L 116.350508 118.707165 
L 117.555609 118.605167 
L 118.760711 119.959641 
L 119.965812 114.987858 
L 121.170913 114.32188 
L 122.376014 113.227587 
L 123.581115 113.914926 
L 124.786216 112.092072 
L 125.991317 115.918533 
L 127.196418 118.829904 
L 128.401519 123.30791 
L 129.606621 125.240243 
L 130.811722 125.34094 
L 132.016823 126.493398 
L 133.221924 122.48587 
L 134.427025 123.39397 
L 135.632126 126.479272 
L 136.837227 125.774303 
L 138.042328 120.933445 
L 139.247429 122.733688 
L 140.452531 126.810284 
L 141.657632 123.933743 
L 142.862733 123.660896 
L 144.067834 124.976873 
L 145.272935 124.599302 
L 146.478036 120.816208 
L 147.683137 121.900213 
L 148.888238 117.276575 
L 150.093339 115.25663 
L 151.298441 113.728523 
L 152.503542 114.176473 
L 153.708643 113.879899 
L 154.913744 111.248991 
L 156.118845 112.263798 
L 159.734148 111.394974 
L 162.144351 113.381165 
L 163.349452 114.640782 
L 164.554553 114.696987 
L 165.759654 115.082301 
L 166.964755 117.504527 
L 168.169856 117.626275 
L 169.374957 119.496 
L 170.580058 117.804096 
L 171.785159 117.778083 
L 172.990261 116.845443 
L 174.195362 116.524052 
L 175.400463 117.568315 
L 176.605564 117.902559 
L 177.810665 119.831445 
L 179.015766 119.488023 
L 180.220867 120.672093 
L 181.425968 120.914222 
L 182.631069 123.220526 
L 183.836171 121.839857 
L 185.041272 121.871524 
L 186.246373 120.027597 
L 187.451474 117.64894 
L 188.656575 118.946413 
L 189.861676 119.426425 
L 191.066777 120.347157 
L 195.887182 126.025463 
L 198.297384 127.714588 
L 199.502485 127.796964 
L 200.707586 123.204395 
L 201.912687 122.689667 
L 203.117788 123.806266 
L 204.322889 124.34081 
L 205.527991 124.59236 
L 207.938193 124.477015 
L 209.143294 124.794667 
L 210.348395 125.72363 
L 211.553496 126.129149 
L 212.758597 127.215069 
L 213.963698 125.788343 
L 215.168799 125.874576 
L 216.373901 126.562453 
L 217.579002 126.899466 
L 218.784103 128.589092 
L 219.989204 127.204924 
L 221.194305 127.224606 
L 223.604507 126.703153 
L 224.809608 126.357231 
L 226.014709 125.796896 
L 227.219811 127.513001 
L 228.424912 127.86842 
L 229.630013 127.233174 
L 232.040215 128.887527 
L 233.245316 128.771769 
L 234.450417 129.475555 
L 235.655518 129.389164 
L 236.860619 128.599419 
L 238.065721 129.241971 
L 239.270822 129.49606 
L 240.475923 130.732001 
L 241.681024 131.627639 
L 242.886125 130.706074 
L 244.091226 128.565311 
L 245.296327 127.222894 
L 246.501428 127.779707 
L 247.706529 127.847049 
L 248.911631 125.757454 
L 250.116732 124.866886 
L 251.321833 125.890618 
L 252.526934 126.478961 
L 253.732035 126.659746 
L 254.937136 127.117273 
L 256.142237 125.938887 
L 257.347338 126.088003 
L 259.757541 124.946744 
L 260.962642 125.356614 
L 262.167743 126.294759 
L 263.372844 126.05015 
L 264.577945 126.763304 
L 265.783046 126.298045 
L 266.988147 126.528777 
L 268.193248 126.142803 
L 269.398349 126.885714 
L 270.603451 127.197882 
L 271.808552 126.804848 
L 273.013653 126.590177 
L 275.423855 126.870592 
L 276.628956 126.48695 
L 277.834057 127.095314 
L 279.039158 126.666007 
L 280.244259 125.552651 
L 281.449361 124.963763 
L 282.654462 124.900487 
L 283.859563 126.213103 
L 285.064664 126.367337 
L 286.269765 126.269031 
L 287.474866 126.911284 
L 288.679967 126.53202 
L 289.885068 126.70631 
L 291.090169 126.478876 
L 292.295271 126.874077 
L 293.500372 126.244782 
L 294.705473 126.562237 
L 295.910574 127.395358 
L 297.115675 126.974632 
L 298.320776 127.647726 
L 299.525877 126.354843 
L 300.730978 126.366077 
L 301.936079 126.9344 
L 303.141181 126.79433 
L 304.346282 127.366407 
L 305.551383 127.035324 
L 306.756484 126.129526 
L 309.166686 125.143529 
L 310.371787 125.187821 
L 311.576888 124.991437 
L 312.781989 124.64647 
L 313.987091 124.645057 
L 315.192192 124.236021 
L 317.602394 124.152643 
L 318.807495 124.035812 
L 320.012596 124.409783 
L 321.217697 124.966047 
L 322.422798 124.002914 
L 323.627899 123.814592 
L 324.833001 124.009206 
L 326.038102 123.737137 
L 328.448304 124.201772 
L 329.653405 124.606449 
L 330.858506 124.459096 
L 332.063607 125.164483 
L 333.268708 126.006206 
L 336.884012 126.970573 
L 338.089113 126.899291 
L 341.704416 127.55623 
L 342.909517 127.475351 
L 344.114618 126.733202 
L 345.319719 127.034013 
L 346.524821 126.853325 
L 347.729922 126.236937 
L 348.935023 126.039693 
L 350.140124 126.501614 
L 351.345225 125.8323 
L 352.550326 125.346332 
L 353.755427 126.161211 
L 354.960528 125.794554 
L 356.165629 125.266066 
L 357.370731 125.428932 
L 358.575832 125.461733 
L 359.780933 124.390062 
L 360.986034 125.28261 
L 362.191135 125.468517 
L 363.396236 126.069054 
L 364.601337 126.518856 
L 365.806438 125.940619 
L 367.011539 124.844876 
L 368.216641 124.606377 
L 369.421742 123.730972 
L 370.626843 123.450031 
L 373.037045 123.605036 
L 374.242146 123.011495 
L 375.447247 123.394799 
L 376.652348 123.350567 
L 377.857449 123.521218 
L 379.062551 123.480606 
L 380.267652 122.514388 
L 381.472753 122.406369 
L 382.677854 122.820853 
L 383.882955 122.299686 
L 385.088056 122.286227 
L 386.293157 122.495762 
L 388.703359 121.105655 
L 389.908461 121.930463 
L 392.318663 122.058504 
L 393.523764 122.740799 
L 395.933966 122.827994 
L 397.139067 122.06058 
L 399.549269 122.841162 
L 400.754371 122.681624 
L 407.984977 124.312387 
L 409.190078 123.452568 
L 410.395179 123.836997 
L 411.600281 123.294048 
L 412.805382 123.116862 
L 414.010483 121.906408 
L 415.215584 121.941111 
L 416.420685 121.825627 
L 417.625786 122.013092 
L 418.830887 121.731896 
L 420.035988 121.840535 
L 421.241089 120.858714 
L 422.446191 120.618638 
L 423.651292 120.689906 
L 424.856393 120.511541 
L 426.061494 121.069627 
L 427.266595 120.879159 
L 428.471696 120.844649 
L 429.676797 120.148751 
L 430.881898 120.699227 
L 432.086999 120.445273 
L 433.292101 119.701603 
L 434.497202 119.702957 
L 435.702303 119.122926 
L 436.907404 118.768622 
L 438.112505 118.697069 
L 439.317606 119.034575 
L 441.727808 118.494212 
L 442.932909 118.642406 
L 445.343112 118.388474 
L 446.548213 117.889718 
L 447.753314 117.842475 
L 448.958415 118.507918 
L 451.368617 118.710458 
L 452.573718 118.532883 
L 453.778819 118.738759 
L 454.983921 119.285864 
L 456.189022 119.341578 
L 457.394123 118.698793 
L 458.599224 119.345216 
L 459.804325 119.406095 
L 461.009426 119.027701 
L 463.419628 119.686914 
L 464.624729 119.976088 
L 465.829831 120.451326 
L 468.240033 121.142444 
L 469.445134 121.093858 
L 470.650235 120.870117 
L 473.060437 120.869662 
L 474.265538 120.315447 
L 477.880842 121.180251 
L 479.085943 121.434963 
L 481.496145 122.258209 
L 483.906347 122.053601 
L 485.111448 122.12284 
L 486.316549 122.330306 
L 489.931853 121.365434 
L 491.136954 121.851127 
L 492.342055 122.150406 
L 493.547156 122.572145 
L 494.752257 122.371633 
L 497.162459 122.592391 
L 498.367561 122.379962 
L 501.982864 122.222154 
L 503.187965 121.943749 
L 504.393066 122.130815 
L 505.598167 122.171627 
L 506.803268 122.060603 
L 508.008369 121.048305 
L 509.213471 121.308106 
L 510.418572 121.109289 
L 511.623673 121.328969 
L 512.828774 120.831626 
L 515.238976 121.313351 
L 516.444077 121.260621 
L 517.649178 121.56745 
L 518.854279 121.029778 
L 520.059381 120.75769 
L 521.264482 120.956345 
L 522.469583 120.159622 
L 523.674684 119.946647 
L 524.879785 119.885522 
L 526.084886 120.362352 
L 528.495088 120.593402 
L 529.700189 120.562969 
L 532.110392 119.850153 
L 534.520594 120.033994 
L 535.725695 120.002268 
L 536.930796 119.603348 
L 540.546099 119.301117 
L 542.956302 119.290799 
L 544.161403 119.019247 
L 545.366504 119.114356 
L 546.571605 119.044485 
L 547.776706 119.325679 
L 548.981807 119.065216 
L 550.186908 119.311703 
L 551.392009 119.130779 
L 553.802212 118.965853 
L 555.007313 119.122874 
L 557.417515 119.163547 
L 559.827717 118.475304 
L 561.032818 118.70302 
L 562.237919 118.65586 
L 563.443021 118.391537 
L 564.648122 118.394024 
L 565.853223 118.626143 
L 567.058324 119.125408 
L 568.263425 118.688134 
L 569.468526 118.860555 
L 570.673627 119.270105 
L 571.878728 119.00299 
L 573.083829 119.277343 
L 574.288931 118.569152 
L 575.494032 118.035742 
L 576.699133 118.370223 
L 577.904234 118.113656 
L 579.109335 118.480505 
L 580.314436 118.537228 
L 581.519537 118.73836 
L 582.724638 118.765458 
L 583.929739 118.911062 
L 586.339942 118.820423 
L 587.545043 118.437884 
L 588.750144 118.486808 
L 589.955245 118.840005 
L 591.160346 118.513703 
L 593.570548 119.005594 
L 594.775649 118.898202 
L 597.185852 119.398058 
L 598.390953 119.740339 
L 603.211357 120.574942 
L 604.416458 120.318723 
L 605.621559 120.438205 
L 608.031762 121.106369 
L 611.647065 120.498924 
L 612.852166 120.474665 
L 614.057267 120.827534 
L 615.262368 120.355621 
L 616.467469 120.359792 
L 617.672571 120.82411 
L 618.877672 120.405579 
L 620.082773 120.372937 
L 621.287874 120.074356 
L 622.492975 120.266102 
L 623.698076 120.14338 
L 624.903177 119.762646 
L 627.313379 120.253827 
L 628.518481 120.566961 
L 630.928683 120.441738 
L 632.133784 120.008991 
L 634.543986 120.480523 
L 635.749087 120.450549 
L 636.954188 120.237995 
L 640.569492 119.24932 
L 641.774593 119.679456 
L 644.184795 119.607369 
L 645.389896 119.376972 
L 646.594997 119.564277 
L 649.005199 119.571805 
L 651.415402 119.192708 
L 652.620503 118.760565 
L 653.825604 118.586461 
L 655.030705 118.542411 
L 657.440907 119.162036 
L 658.646008 118.948906 
L 659.851109 118.956959 
L 661.056211 119.210334 
L 662.261312 119.311106 
L 663.466413 119.525354 
L 664.671514 119.505957 
L 665.876615 118.986323 
L 667.081716 118.660054 
L 668.286817 119.10633 
L 669.491918 118.719912 
L 670.697019 118.680303 
L 671.902121 118.32864 
L 673.107222 118.624461 
L 675.517424 118.268697 
L 676.722525 118.52779 
L 677.927626 118.091437 
L 679.132727 118.249755 
L 679.132727 118.249755 
" style="fill:none;stroke:#0000ff;stroke-linecap:square;stroke-width:1.5;"/>
   </g>
   <g id="line2d_19">
    <path clip-path="url(#p377aa20828)" d="M 77.787273 314.9046 
L 78.992374 341.292813 
L 80.197475 287.721225 
L 81.402576 293.892787 
L 82.607677 288.162421 
L 83.812778 271.127408 
L 85.017879 264.433763 
L 86.222981 273.361614 
L 87.428082 263.845587 
L 88.633183 259.978326 
L 89.838284 260.571114 
L 91.043385 272.776946 
L 92.248486 262.765094 
L 93.453587 268.280591 
L 94.658688 262.283933 
L 95.863789 261.530273 
L 97.068891 262.382814 
L 98.273992 260.121675 
L 99.479093 265.027622 
L 100.684194 273.429704 
L 101.889295 275.710384 
L 103.094396 273.91278 
L 104.299497 269.819963 
L 105.504598 271.878456 
L 106.709699 271.817219 
L 107.914801 267.698502 
L 109.119902 266.575679 
L 110.325003 268.883443 
L 111.530104 267.748015 
L 113.940306 267.052347 
L 115.145407 265.590825 
L 116.350508 266.300452 
L 117.555609 265.435102 
L 118.760711 265.870329 
L 119.965812 262.301144 
L 121.170913 262.168664 
L 122.376014 261.766282 
L 123.581115 262.427417 
L 124.786216 260.928367 
L 125.991317 263.20339 
L 127.196418 264.811383 
L 128.401519 267.633061 
L 129.606621 268.810147 
L 130.811722 269.066714 
L 132.016823 269.91374 
L 133.221924 268.575097 
L 134.427025 270.032629 
L 135.632126 272.3407 
L 136.837227 272.731072 
L 138.042328 269.94272 
L 139.247429 271.337437 
L 140.452531 273.937526 
L 141.657632 271.591546 
L 142.862733 270.802758 
L 144.067834 272.20365 
L 145.272935 271.36415 
L 146.478036 267.867861 
L 147.683137 268.669241 
L 148.888238 265.566019 
L 151.298441 262.958872 
L 152.503542 262.922814 
L 153.708643 263.0836 
L 154.913744 261.763903 
L 156.118845 262.11176 
L 157.323946 261.431414 
L 158.529047 262.105648 
L 159.734148 262.072537 
L 160.939249 262.512896 
L 162.144351 263.224279 
L 164.554553 264.145945 
L 165.759654 264.952366 
L 166.964755 266.537188 
L 168.169856 266.364741 
L 169.374957 267.343908 
L 170.580058 265.908859 
L 171.785159 266.05512 
L 172.990261 265.651394 
L 174.195362 265.101178 
L 175.400463 265.889044 
L 176.605564 266.455582 
L 177.810665 267.457294 
L 179.015766 267.369238 
L 180.220867 268.040964 
L 181.425968 268.228721 
L 182.631069 269.721338 
L 183.836171 269.454051 
L 185.041272 268.939683 
L 186.246373 267.765555 
L 187.451474 266.249958 
L 188.656575 267.016152 
L 189.861676 267.528166 
L 192.271878 269.294916 
L 193.476979 270.064418 
L 194.682081 271.226044 
L 195.887182 271.951198 
L 197.092283 272.296195 
L 198.297384 272.856579 
L 199.502485 273.159145 
L 200.707586 269.877748 
L 201.912687 270.007237 
L 203.117788 271.083719 
L 204.322889 271.325905 
L 205.527991 271.105421 
L 206.733092 271.370183 
L 207.938193 271.182365 
L 209.143294 271.338064 
L 211.553496 272.354703 
L 212.758597 272.664619 
L 213.963698 271.39247 
L 215.168799 271.249432 
L 217.579002 271.662475 
L 218.784103 272.647431 
L 221.194305 271.66292 
L 223.604507 271.478821 
L 224.809608 270.967341 
L 226.014709 271.083041 
L 227.219811 272.126166 
L 228.424912 272.283131 
L 229.630013 272.059393 
L 232.040215 273.000447 
L 233.245316 272.526591 
L 234.450417 273.04758 
L 235.655518 273.056049 
L 236.860619 272.777067 
L 238.065721 273.209861 
L 239.270822 273.121722 
L 240.475923 273.918505 
L 241.681024 274.147481 
L 242.886125 273.36658 
L 244.091226 272.04275 
L 245.296327 271.168193 
L 246.501428 271.423455 
L 247.706529 271.547829 
L 248.911631 269.699151 
L 250.116732 269.056112 
L 251.321833 269.642152 
L 252.526934 269.931149 
L 253.732035 269.983297 
L 254.937136 270.429449 
L 256.142237 269.608645 
L 257.347338 269.470098 
L 258.552439 268.832013 
L 259.757541 268.348325 
L 260.962642 268.494004 
L 262.167743 269.09293 
L 263.372844 268.832274 
L 264.577945 269.192431 
L 265.783046 269.01489 
L 266.988147 269.080898 
L 268.193248 269.326549 
L 269.398349 269.739693 
L 270.603451 269.984244 
L 271.808552 269.601335 
L 273.013653 269.39898 
L 274.218754 269.325998 
L 275.423855 269.509672 
L 276.628956 269.154538 
L 277.834057 269.441369 
L 279.039158 269.158255 
L 281.449361 268.152777 
L 282.654462 268.341596 
L 283.859563 269.186032 
L 285.064664 269.400147 
L 286.269765 269.176201 
L 287.474866 269.393239 
L 288.679967 268.984301 
L 289.885068 269.023277 
L 291.090169 268.915921 
L 292.295271 269.170473 
L 294.705473 269.21452 
L 295.910574 269.620587 
L 297.115675 269.162533 
L 298.320776 269.57261 
L 299.525877 268.783259 
L 300.730978 268.614164 
L 301.936079 269.106023 
L 303.141181 269.33498 
L 304.346282 269.737831 
L 305.551383 269.496263 
L 307.961585 268.294418 
L 309.166686 267.882422 
L 311.576888 267.879704 
L 312.781989 267.625177 
L 313.987091 267.82829 
L 316.397293 267.528396 
L 317.602394 267.553818 
L 318.807495 267.448171 
L 320.012596 267.6294 
L 321.217697 268.041324 
L 322.422798 267.596699 
L 323.627899 267.465214 
L 324.833001 267.669223 
L 326.038102 267.640473 
L 328.448304 267.970014 
L 329.653405 268.346962 
L 330.858506 268.038113 
L 332.063607 268.368682 
L 333.268708 268.918453 
L 334.473809 268.972514 
L 340.499315 269.927411 
L 341.704416 269.896089 
L 342.909517 269.553085 
L 344.114618 268.990143 
L 345.319719 268.969807 
L 347.729922 268.656463 
L 348.935023 268.702307 
L 350.140124 269.125747 
L 351.345225 268.591204 
L 352.550326 268.377555 
L 353.755427 268.882359 
L 354.960528 268.55717 
L 356.165629 268.026347 
L 358.575832 268.022559 
L 359.780933 267.543899 
L 360.986034 268.16251 
L 362.191135 268.411981 
L 364.601337 269.328773 
L 365.806438 269.056787 
L 367.011539 268.468235 
L 368.216641 268.202524 
L 369.421742 267.661818 
L 370.626843 267.580601 
L 373.037045 267.77053 
L 374.242146 267.585965 
L 375.447247 267.761947 
L 376.652348 267.67032 
L 377.857449 267.922083 
L 379.062551 267.706554 
L 380.267652 266.766406 
L 381.472753 266.72314 
L 382.677854 266.960074 
L 383.882955 266.637169 
L 385.088056 266.698344 
L 386.293157 266.985695 
L 388.703359 266.107762 
L 389.908461 266.646017 
L 391.113562 266.636148 
L 392.318663 266.910368 
L 393.523764 267.473145 
L 394.728865 267.590729 
L 395.933966 267.841856 
L 397.139067 267.555849 
L 399.549269 267.96671 
L 403.164573 267.974719 
L 405.574775 268.320819 
L 406.779876 268.264597 
L 407.984977 268.505225 
L 409.190078 268.126721 
L 410.395179 268.339497 
L 411.600281 268.074596 
L 412.805382 267.609329 
L 414.010483 266.755668 
L 416.420685 266.770612 
L 417.625786 266.830416 
L 418.830887 266.640942 
L 420.035988 266.747488 
L 421.241089 266.190155 
L 422.446191 266.14583 
L 423.651292 266.27573 
L 424.856393 266.178782 
L 426.061494 266.503572 
L 429.676797 265.809482 
L 430.881898 266.09665 
L 432.086999 266.04488 
L 433.292101 265.61094 
L 434.497202 265.762043 
L 436.907404 265.344797 
L 438.112505 265.378066 
L 439.317606 265.618592 
L 441.727808 265.173958 
L 442.932909 265.354681 
L 444.138011 265.384056 
L 445.343112 265.286188 
L 446.548213 265.056051 
L 447.753314 265.172415 
L 448.958415 265.656832 
L 452.573718 265.619386 
L 454.983921 266.388356 
L 457.394123 266.103422 
L 458.599224 266.531595 
L 459.804325 266.719965 
L 461.009426 266.697986 
L 463.419628 267.264748 
L 467.034932 267.94863 
L 468.240033 268.266392 
L 469.445134 268.184918 
L 470.650235 267.982262 
L 471.855336 268.042258 
L 473.060437 267.97296 
L 474.265538 267.550829 
L 476.675741 267.996565 
L 477.880842 268.133842 
L 479.085943 268.39173 
L 480.291044 268.77831 
L 481.496145 268.979466 
L 482.701246 268.878913 
L 483.906347 269.009651 
L 485.111448 268.948415 
L 486.316549 269.006239 
L 487.521651 268.812247 
L 489.931853 268.214017 
L 493.547156 269.151758 
L 494.752257 269.014306 
L 497.162459 269.081397 
L 498.367561 268.874074 
L 503.187965 268.747452 
L 504.393066 268.920703 
L 506.803268 268.920705 
L 508.008369 268.240276 
L 509.213471 268.475883 
L 510.418572 268.242201 
L 511.623673 268.38668 
L 512.828774 268.027524 
L 514.033875 268.227954 
L 515.238976 268.298565 
L 516.444077 268.226121 
L 517.649178 268.346309 
L 520.059381 268.042541 
L 521.264482 268.094567 
L 522.469583 267.786286 
L 523.674684 267.64117 
L 524.879785 267.675741 
L 527.289987 268.211196 
L 529.700189 268.216646 
L 532.110392 267.56698 
L 534.520594 267.62241 
L 536.930796 267.472729 
L 541.751201 267.138965 
L 544.161403 266.78208 
L 545.366504 266.876377 
L 546.571605 266.8254 
L 547.776706 267.013407 
L 548.981807 266.885754 
L 550.186908 266.975888 
L 551.392009 266.804735 
L 553.802212 266.697628 
L 556.212414 266.878092 
L 559.827717 266.437515 
L 562.237919 266.633217 
L 564.648122 266.309605 
L 565.853223 266.364073 
L 567.058324 266.728237 
L 568.263425 266.437873 
L 569.468526 266.552552 
L 570.673627 266.830281 
L 571.878728 266.766715 
L 573.083829 266.847635 
L 574.288931 266.423788 
L 575.494032 266.186676 
L 576.699133 266.342073 
L 577.904234 266.252378 
L 579.109335 266.440159 
L 580.314436 266.47783 
L 581.519537 266.633349 
L 582.724638 266.533099 
L 583.929739 266.65418 
L 586.339942 266.59329 
L 587.545043 266.415928 
L 589.955245 266.686017 
L 591.160346 266.575314 
L 593.570548 266.892314 
L 594.775649 266.895688 
L 598.390953 267.407268 
L 603.211357 268.223243 
L 604.416458 268.107928 
L 605.621559 268.175244 
L 606.826661 268.471116 
L 608.031762 268.624922 
L 609.236863 268.589077 
L 610.441964 268.42165 
L 611.647065 268.141008 
L 612.852166 268.151564 
L 614.057267 268.414362 
L 615.262368 268.071324 
L 616.467469 268.12575 
L 617.672571 268.499378 
L 618.877672 268.243845 
L 620.082773 268.215977 
L 621.287874 268.070912 
L 622.492975 268.229679 
L 626.108278 267.935404 
L 627.313379 268.085337 
L 628.518481 268.35691 
L 632.133784 268.006369 
L 634.543986 268.228093 
L 639.364391 268.052843 
L 640.569492 267.774935 
L 641.774593 268.005154 
L 642.979694 268.047636 
L 645.389896 267.835682 
L 646.594997 268.010104 
L 651.415402 267.851176 
L 653.825604 267.357589 
L 655.030705 267.351898 
L 657.440907 267.6499 
L 658.646008 267.59378 
L 659.851109 267.686472 
L 663.466413 268.232372 
L 664.671514 268.217602 
L 665.876615 267.793736 
L 667.081716 267.624203 
L 668.286817 267.943951 
L 669.491918 267.794287 
L 670.697019 267.778808 
L 671.902121 267.435139 
L 673.107222 267.67292 
L 674.312323 267.609739 
L 675.517424 267.338247 
L 676.722525 267.467033 
L 677.927626 267.088365 
L 679.132727 267.191671 
L 679.132727 267.191671 
" style="fill:none;stroke:#ff0000;stroke-linecap:square;stroke-width:1.5;"/>
   </g>
   <g id="line2d_20">
    <path clip-path="url(#p377aa20828)" d="M 77.787273 318.486021 
L 78.992374 344.386386 
L 80.197475 286.908491 
L 81.402576 300.237915 
L 82.607677 295.001677 
L 83.812778 278.545099 
L 85.017879 268.171193 
L 86.222981 275.089162 
L 87.428082 268.725861 
L 88.633183 266.065213 
L 89.838284 264.573961 
L 91.043385 276.727803 
L 92.248486 267.432775 
L 93.453587 272.249754 
L 94.658688 267.209042 
L 95.863789 265.704136 
L 97.068891 267.179292 
L 98.273992 263.277584 
L 99.479093 267.601118 
L 100.684194 275.847934 
L 101.889295 278.67174 
L 103.094396 276.045649 
L 104.299497 271.702588 
L 105.504598 274.046365 
L 106.709699 274.134764 
L 107.914801 269.559054 
L 109.119902 269.506508 
L 110.325003 271.227365 
L 111.530104 270.187169 
L 112.735205 270.780242 
L 113.940306 270.875627 
L 115.145407 269.506233 
L 116.350508 270.40108 
L 117.555609 268.898834 
L 118.760711 269.480709 
L 119.965812 266.364423 
L 121.170913 265.785764 
L 122.376014 264.962242 
L 123.581115 265.458575 
L 124.786216 263.774289 
L 125.991317 265.922928 
L 127.196418 267.713979 
L 128.401519 270.392256 
L 129.606621 271.603201 
L 130.811722 272.090931 
L 132.016823 272.91888 
L 133.221924 271.005241 
L 134.427025 272.199808 
L 135.632126 274.612695 
L 136.837227 274.616385 
L 138.042328 271.804904 
L 139.247429 273.566945 
L 140.452531 276.227163 
L 141.657632 273.941583 
L 142.862733 272.938254 
L 144.067834 274.022166 
L 145.272935 273.440603 
L 146.478036 270.488362 
L 147.683137 270.855523 
L 148.888238 267.107021 
L 151.298441 264.951927 
L 152.503542 265.080518 
L 153.708643 265.577567 
L 154.913744 264.121703 
L 156.118845 264.654849 
L 157.323946 264.261199 
L 158.529047 264.890552 
L 159.734148 264.846646 
L 160.939249 265.203415 
L 165.759654 267.316517 
L 166.964755 268.945734 
L 168.169856 268.871046 
L 169.374957 269.744643 
L 170.580058 268.245948 
L 171.785159 268.147052 
L 172.990261 267.746216 
L 174.195362 267.005628 
L 175.400463 267.975425 
L 176.605564 268.343214 
L 177.810665 269.254015 
L 179.015766 269.132957 
L 180.220867 269.708308 
L 181.425968 269.591946 
L 182.631069 270.901406 
L 185.041272 270.789578 
L 186.246373 269.578516 
L 187.451474 268.201184 
L 188.656575 268.920961 
L 189.861676 269.428946 
L 191.066777 270.300652 
L 193.476979 271.80243 
L 194.682081 273.066176 
L 199.502485 275.067039 
L 200.707586 272.213224 
L 201.912687 272.204802 
L 203.117788 273.263641 
L 204.322889 273.515691 
L 205.527991 273.310643 
L 207.938193 273.063775 
L 210.348395 273.576695 
L 212.758597 274.418856 
L 213.963698 273.190185 
L 217.579002 273.333916 
L 218.784103 274.505747 
L 221.194305 273.570749 
L 222.399406 273.651886 
L 223.604507 273.53591 
L 224.809608 273.177848 
L 226.014709 273.429179 
L 227.219811 274.460275 
L 228.424912 274.636527 
L 229.630013 274.325861 
L 230.835114 274.720091 
L 232.040215 275.271805 
L 233.245316 274.768846 
L 234.450417 275.318298 
L 235.655518 275.25453 
L 236.860619 275.056075 
L 238.065721 275.454211 
L 239.270822 275.160453 
L 240.475923 275.985 
L 241.681024 276.166283 
L 242.886125 275.498016 
L 245.296327 273.17126 
L 246.501428 273.331764 
L 247.706529 273.298003 
L 248.911631 271.879913 
L 250.116732 271.336988 
L 251.321833 271.725268 
L 252.526934 272.247081 
L 253.732035 272.281905 
L 254.937136 272.858074 
L 256.142237 271.999985 
L 257.347338 271.901153 
L 258.552439 271.230758 
L 259.757541 270.811863 
L 260.962642 270.996428 
L 262.167743 271.511018 
L 263.372844 271.310396 
L 264.577945 271.507684 
L 265.783046 271.344027 
L 266.988147 271.415482 
L 270.603451 272.356402 
L 271.808552 271.860313 
L 273.013653 271.717877 
L 274.218754 271.695474 
L 275.423855 271.858948 
L 276.628956 271.534879 
L 277.834057 271.731213 
L 279.039158 271.496819 
L 281.449361 270.703621 
L 282.654462 270.913777 
L 283.859563 271.686079 
L 285.064664 271.897855 
L 286.269765 271.739441 
L 287.474866 271.980788 
L 288.679967 271.781359 
L 289.885068 271.944342 
L 291.090169 271.768505 
L 293.500372 272.13204 
L 294.705473 272.096613 
L 295.910574 272.500879 
L 297.115675 271.954136 
L 298.320776 272.248236 
L 299.525877 271.558687 
L 300.730978 271.292041 
L 304.346282 272.354945 
L 305.551383 272.12511 
L 307.961585 271.041741 
L 309.166686 270.738554 
L 311.576888 270.891618 
L 312.781989 270.582572 
L 313.987091 270.90224 
L 316.397293 270.657632 
L 318.807495 270.617741 
L 320.012596 270.764916 
L 321.217697 271.201071 
L 322.422798 270.642112 
L 323.627899 270.522195 
L 324.833001 270.866149 
L 328.448304 271.253676 
L 329.653405 271.639065 
L 330.858506 271.36257 
L 332.063607 271.644589 
L 333.268708 272.175726 
L 335.678911 272.36126 
L 336.884012 272.614693 
L 339.294214 272.979252 
L 340.499315 273.173738 
L 341.704416 273.037282 
L 342.909517 272.775903 
L 344.114618 272.308316 
L 346.524821 272.132885 
L 347.729922 272.003564 
L 348.935023 272.106882 
L 350.140124 272.527692 
L 351.345225 271.937952 
L 352.550326 271.829045 
L 353.755427 272.307253 
L 354.960528 272.107023 
L 356.165629 271.530943 
L 358.575832 271.439522 
L 359.780933 270.887517 
L 360.986034 271.437925 
L 362.191135 271.624536 
L 364.601337 272.500099 
L 365.806438 272.190234 
L 367.011539 271.538677 
L 368.216641 271.295508 
L 369.421742 270.724395 
L 370.626843 270.623675 
L 373.037045 270.806526 
L 374.242146 270.695858 
L 375.447247 270.818262 
L 376.652348 270.732961 
L 377.857449 271.025706 
L 379.062551 270.802594 
L 380.267652 269.816206 
L 381.472753 269.723224 
L 382.677854 270.009239 
L 383.882955 269.746581 
L 386.293157 270.061855 
L 387.498258 269.515261 
L 388.703359 269.128855 
L 389.908461 269.603167 
L 391.113562 269.578743 
L 392.318663 269.868565 
L 393.523764 270.325119 
L 395.933966 270.744586 
L 397.139067 270.484002 
L 399.549269 270.774363 
L 403.164573 270.747271 
L 405.574775 271.160922 
L 406.779876 271.026523 
L 407.984977 271.27199 
L 409.190078 270.89588 
L 410.395179 270.995677 
L 411.600281 270.824421 
L 412.805382 270.361618 
L 414.010483 269.663996 
L 417.625786 269.815513 
L 418.830887 269.638546 
L 420.035988 269.738345 
L 421.241089 269.253785 
L 422.446191 269.162401 
L 423.651292 269.277912 
L 424.856393 269.175675 
L 426.061494 269.493406 
L 428.471696 269.151975 
L 429.676797 268.856265 
L 430.881898 269.101613 
L 432.086999 269.015675 
L 433.292101 268.693065 
L 434.497202 268.906244 
L 436.907404 268.468119 
L 438.112505 268.501049 
L 439.317606 268.7594 
L 441.727808 268.303904 
L 442.932909 268.468237 
L 445.343112 268.475792 
L 446.548213 268.30212 
L 447.753314 268.414225 
L 448.958415 268.865508 
L 452.573718 268.862576 
L 454.983921 269.658576 
L 457.394123 269.294971 
L 458.599224 269.694555 
L 459.804325 269.886799 
L 461.009426 269.940218 
L 465.829831 270.894759 
L 467.034932 271.052065 
L 468.240033 271.329234 
L 469.445134 271.283966 
L 470.650235 271.062312 
L 471.855336 271.196951 
L 473.060437 271.071223 
L 474.265538 270.634783 
L 476.675741 271.02929 
L 477.880842 271.119055 
L 479.085943 271.359708 
L 480.291044 271.720464 
L 481.496145 271.948578 
L 482.701246 271.873277 
L 483.906347 272.062448 
L 488.726752 271.672668 
L 489.931853 271.436564 
L 491.136954 271.665563 
L 492.342055 272.088251 
L 493.547156 272.379843 
L 495.957358 272.284699 
L 497.162459 272.340189 
L 498.367561 272.106797 
L 503.187965 271.875338 
L 504.393066 272.040401 
L 506.803268 272.076903 
L 508.008369 271.475632 
L 509.213471 271.75636 
L 510.418572 271.552835 
L 511.623673 271.710146 
L 512.828774 271.429318 
L 515.238976 271.680106 
L 516.444077 271.588579 
L 517.649178 271.707485 
L 524.879785 270.916317 
L 526.084886 271.227397 
L 527.289987 271.396701 
L 529.700189 271.398849 
L 530.905291 271.007491 
L 532.110392 270.806672 
L 536.930796 270.747275 
L 539.340998 270.461553 
L 540.546099 270.478798 
L 544.161403 269.890177 
L 545.366504 270.000932 
L 546.571605 269.949262 
L 547.776706 270.12187 
L 548.981807 269.959757 
L 550.186908 270.088779 
L 551.392009 269.898567 
L 557.417515 269.848228 
L 559.827717 269.572023 
L 562.237919 269.799523 
L 564.648122 269.617838 
L 565.853223 269.683117 
L 567.058324 270.05087 
L 568.263425 269.733089 
L 569.468526 269.813893 
L 570.673627 270.087332 
L 571.878728 270.033247 
L 573.083829 270.106666 
L 575.494032 269.528202 
L 576.699133 269.657841 
L 577.904234 269.553281 
L 581.519537 269.961656 
L 582.724638 269.92671 
L 583.929739 270.062813 
L 586.339942 270.017756 
L 587.545043 269.831886 
L 589.955245 270.061411 
L 591.160346 269.942465 
L 593.570548 270.261481 
L 594.775649 270.270119 
L 598.390953 270.751644 
L 603.211357 271.530626 
L 604.416458 271.444695 
L 605.621559 271.48498 
L 606.826661 271.75391 
L 608.031762 271.87937 
L 609.236863 271.841252 
L 611.647065 271.295253 
L 612.852166 271.241955 
L 614.057267 271.531866 
L 615.262368 271.299494 
L 616.467469 271.406407 
L 617.672571 271.781381 
L 618.877672 271.572247 
L 620.082773 271.566454 
L 621.287874 271.434548 
L 622.492975 271.621596 
L 624.903177 271.198397 
L 627.313379 271.439801 
L 628.518481 271.716141 
L 632.133784 271.364029 
L 634.543986 271.574312 
L 636.954188 271.550761 
L 640.569492 271.079358 
L 641.774593 271.310707 
L 642.979694 271.319492 
L 645.389896 271.145016 
L 646.594997 271.31557 
L 651.415402 271.158916 
L 655.030705 270.71571 
L 658.646008 270.929154 
L 659.851109 271.009553 
L 663.466413 271.550182 
L 664.671514 271.53876 
L 665.876615 271.158591 
L 667.081716 271.035062 
L 668.286817 271.332761 
L 669.491918 271.209498 
L 670.697019 271.217196 
L 671.902121 270.874337 
L 673.107222 271.103388 
L 674.312323 271.006763 
L 675.517424 270.747611 
L 676.722525 270.833689 
L 677.927626 270.492125 
L 679.132727 270.604142 
L 679.132727 270.604142 
" style="fill:none;stroke:#008000;stroke-linecap:square;stroke-width:1.5;"/>
   </g>
   <g id="patch_3">
    <path d="M 47.72 390.04 
L 47.72 28.464 
" style="fill:none;stroke:#000000;stroke-linecap:square;stroke-linejoin:miter;stroke-width:0.8;"/>
   </g>
   <g id="patch_4">
    <path d="M 709.2 390.04 
L 709.2 28.464 
" style="fill:none;stroke:#000000;stroke-linecap:square;stroke-linejoin:miter;stroke-width:0.8;"/>
   </g>
   <g id="patch_5">
    <path d="M 47.72 390.04 
L 709.2 390.04 
" style="fill:none;stroke:#000000;stroke-linecap:square;stroke-linejoin:miter;stroke-width:0.8;"/>
   </g>
   <g id="patch_6">
    <path d="M 47.72 28.464 
L 709.2 28.464 
" style="fill:none;stroke:#000000;stroke-linecap:square;stroke-linejoin:miter;stroke-width:0.8;"/>
   </g>
   <g id="text_18">
    <!-- Average ANEES with parameters $\sigma_{process}=$3,  $\sigma_{AIS}=$10, $\sigma_{Radar}=$100 -->
    <g transform="translate(176.38 22.464)scale(0.12 -0.12)">
     <defs>
      <path d="M 2.984375 54.6875 
L 12.5 54.6875 
L 29.59375 8.796875 
L 46.6875 54.6875 
L 56.203125 54.6875 
L 35.6875 0 
L 23.484375 0 
z
" id="DejaVuSans-118"/>
      <path d="M 45.40625 27.984375 
Q 45.40625 37.75 41.375 43.109375 
Q 37.359375 48.484375 30.078125 48.484375 
Q 22.859375 48.484375 18.828125 43.109375 
Q 14.796875 37.75 14.796875 27.984375 
Q 14.796875 18.265625 18.828125 12.890625 
Q 22.859375 7.515625 30.078125 7.515625 
Q 37.359375 7.515625 41.375 12.890625 
Q 45.40625 18.265625 45.40625 27.984375 
z
M 54.390625 6.78125 
Q 54.390625 -7.171875 48.1875 -13.984375 
Q 42 -20.796875 29.203125 -20.796875 
Q 24.46875 -20.796875 20.265625 -20.09375 
Q 16.0625 -19.390625 12.109375 -17.921875 
L 12.109375 -9.1875 
Q 16.0625 -11.328125 19.921875 -12.34375 
Q 23.78125 -13.375 27.78125 -13.375 
Q 36.625 -13.375 41.015625 -8.765625 
Q 45.40625 -4.15625 45.40625 5.171875 
L 45.40625 9.625 
Q 42.625 4.78125 38.28125 2.390625 
Q 33.9375 0 27.875 0 
Q 17.828125 0 11.671875 7.65625 
Q 5.515625 15.328125 5.515625 27.984375 
Q 5.515625 40.671875 11.671875 48.328125 
Q 17.828125 56 27.875 56 
Q 33.9375 56 38.28125 53.609375 
Q 42.625 51.21875 45.40625 46.390625 
L 45.40625 54.6875 
L 54.390625 54.6875 
z
" id="DejaVuSans-103"/>
      <path d="M 4.203125 54.6875 
L 13.1875 54.6875 
L 24.421875 12.015625 
L 35.59375 54.6875 
L 46.1875 54.6875 
L 57.421875 12.015625 
L 68.609375 54.6875 
L 77.59375 54.6875 
L 63.28125 0 
L 52.6875 0 
L 40.921875 44.828125 
L 29.109375 0 
L 18.5 0 
z
" id="DejaVuSans-119"/>
      <path d="M 54.890625 33.015625 
L 54.890625 0 
L 45.90625 0 
L 45.90625 32.71875 
Q 45.90625 40.484375 42.875 44.328125 
Q 39.84375 48.1875 33.796875 48.1875 
Q 26.515625 48.1875 22.3125 43.546875 
Q 18.109375 38.921875 18.109375 30.90625 
L 18.109375 0 
L 9.078125 0 
L 9.078125 75.984375 
L 18.109375 75.984375 
L 18.109375 46.1875 
Q 21.34375 51.125 25.703125 53.5625 
Q 30.078125 56 35.796875 56 
Q 45.21875 56 50.046875 50.171875 
Q 54.890625 44.34375 54.890625 33.015625 
z
" id="DejaVuSans-104"/>
      <path d="M 18.109375 8.203125 
L 18.109375 -20.796875 
L 9.078125 -20.796875 
L 9.078125 54.6875 
L 18.109375 54.6875 
L 18.109375 46.390625 
Q 20.953125 51.265625 25.265625 53.625 
Q 29.59375 56 35.59375 56 
Q 45.5625 56 51.78125 48.09375 
Q 58.015625 40.1875 58.015625 27.296875 
Q 58.015625 14.40625 51.78125 6.484375 
Q 45.5625 -1.421875 35.59375 -1.421875 
Q 29.59375 -1.421875 25.265625 0.953125 
Q 20.953125 3.328125 18.109375 8.203125 
z
M 48.6875 27.296875 
Q 48.6875 37.203125 44.609375 42.84375 
Q 40.53125 48.484375 33.40625 48.484375 
Q 26.265625 48.484375 22.1875 42.84375 
Q 18.109375 37.203125 18.109375 27.296875 
Q 18.109375 17.390625 22.1875 11.75 
Q 26.265625 6.109375 33.40625 6.109375 
Q 40.53125 6.109375 44.609375 11.75 
Q 48.6875 17.390625 48.6875 27.296875 
z
" id="DejaVuSans-112"/>
      <path d="M 52 44.1875 
Q 55.375 50.25 60.0625 53.125 
Q 64.75 56 71.09375 56 
Q 79.640625 56 84.28125 50.015625 
Q 88.921875 44.046875 88.921875 33.015625 
L 88.921875 0 
L 79.890625 0 
L 79.890625 32.71875 
Q 79.890625 40.578125 77.09375 44.375 
Q 74.3125 48.1875 68.609375 48.1875 
Q 61.625 48.1875 57.5625 43.546875 
Q 53.515625 38.921875 53.515625 30.90625 
L 53.515625 0 
L 44.484375 0 
L 44.484375 32.71875 
Q 44.484375 40.625 41.703125 44.40625 
Q 38.921875 48.1875 33.109375 48.1875 
Q 26.21875 48.1875 22.15625 43.53125 
Q 18.109375 38.875 18.109375 30.90625 
L 18.109375 0 
L 9.078125 0 
L 9.078125 54.6875 
L 18.109375 54.6875 
L 18.109375 46.1875 
Q 21.1875 51.21875 25.484375 53.609375 
Q 29.78125 56 35.6875 56 
Q 41.65625 56 45.828125 52.96875 
Q 50 49.953125 52 44.1875 
z
" id="DejaVuSans-109"/>
      <path d="M 34.671875 47.5625 
Q 27.25 47.5625 22.21875 42.1875 
Q 16.890625 36.578125 15.140625 27.296875 
Q 13.1875 17.484375 16.3125 11.8125 
Q 19.390625 6.203125 26.65625 6.203125 
Q 33.84375 6.203125 39.109375 11.859375 
Q 44.4375 17.53125 46.34375 27.296875 
Q 48.046875 36.234375 45.015625 42.1875 
Q 42.1875 47.5625 34.671875 47.5625 
z
M 36.078125 54.734375 
L 65.921875 54.6875 
L 64.15625 45.703125 
L 54.109375 45.703125 
Q 57.90625 38.09375 55.859375 27.296875 
Q 53.21875 13.875 45.0625 6.25 
Q 36.859375 -1.421875 25.140625 -1.421875 
Q 13.375 -1.421875 8.203125 6.25 
Q 3.03125 13.875 5.671875 27.296875 
Q 8.25 40.765625 16.40625 48.390625 
Q 23.1875 54.734375 36.078125 54.734375 
z
" id="DejaVuSans-Oblique-963"/>
      <path d="M 49.609375 33.6875 
Q 49.609375 40.875 46.484375 44.671875 
Q 43.359375 48.484375 37.5 48.484375 
Q 33.5 48.484375 29.859375 46.4375 
Q 26.21875 44.390625 23.390625 40.484375 
Q 20.609375 36.625 18.9375 31.15625 
Q 17.28125 25.6875 17.28125 20.3125 
Q 17.28125 13.484375 20.40625 9.796875 
Q 23.53125 6.109375 29.296875 6.109375 
Q 33.546875 6.109375 37.1875 8.109375 
Q 40.828125 10.109375 43.40625 13.921875 
Q 46.1875 17.921875 47.890625 23.34375 
Q 49.609375 28.765625 49.609375 33.6875 
z
M 21.78125 46.390625 
Q 25.390625 51.125 30.296875 53.5625 
Q 35.203125 56 41.21875 56 
Q 49.609375 56 54.25 50.5 
Q 58.890625 45.015625 58.890625 35.109375 
Q 58.890625 27 56 19.65625 
Q 53.125 12.3125 47.703125 6.5 
Q 44.09375 2.640625 39.546875 0.609375 
Q 35.015625 -1.421875 29.984375 -1.421875 
Q 24.171875 -1.421875 20.21875 1 
Q 16.265625 3.421875 14.3125 8.203125 
L 8.6875 -20.796875 
L -0.296875 -20.796875 
L 14.40625 54.6875 
L 23.390625 54.6875 
z
" id="DejaVuSans-Oblique-112"/>
      <path d="M 44.578125 46.390625 
Q 43.21875 47.125 41.453125 47.515625 
Q 39.703125 47.90625 37.703125 47.90625 
Q 30.515625 47.90625 25.140625 42.453125 
Q 19.78125 37.015625 18.015625 27.875 
L 12.5 0 
L 3.515625 0 
L 14.203125 54.6875 
L 23.1875 54.6875 
L 21.484375 46.1875 
Q 25.046875 50.921875 30 53.453125 
Q 34.96875 56 40.578125 56 
Q 42.046875 56 43.453125 55.828125 
Q 44.875 55.671875 46.296875 55.28125 
z
" id="DejaVuSans-Oblique-114"/>
      <path d="M 25.390625 -1.421875 
Q 15.765625 -1.421875 10.171875 4.515625 
Q 4.59375 10.453125 4.59375 20.703125 
Q 4.59375 26.65625 6.515625 32.828125 
Q 8.453125 39.015625 11.53125 43.21875 
Q 16.359375 49.75 22.3125 52.875 
Q 28.265625 56 35.796875 56 
Q 45.125 56 50.859375 50.1875 
Q 56.59375 44.390625 56.59375 35.015625 
Q 56.59375 28.515625 54.6875 22.0625 
Q 52.78125 15.625 49.703125 11.375 
Q 44.921875 4.828125 38.96875 1.703125 
Q 33.015625 -1.421875 25.390625 -1.421875 
z
M 13.921875 21 
Q 13.921875 13.578125 17.015625 9.890625 
Q 20.125 6.203125 26.421875 6.203125 
Q 35.453125 6.203125 41.375 14.078125 
Q 47.3125 21.96875 47.3125 34.078125 
Q 47.3125 41.15625 44.140625 44.765625 
Q 40.96875 48.390625 34.8125 48.390625 
Q 29.734375 48.390625 25.78125 46.015625 
Q 21.828125 43.65625 18.703125 38.8125 
Q 16.40625 35.203125 15.15625 30.5625 
Q 13.921875 25.921875 13.921875 21 
z
" id="DejaVuSans-Oblique-111"/>
      <path d="M 53.609375 52.59375 
L 51.8125 43.703125 
Q 48.578125 46.046875 44.9375 47.21875 
Q 41.3125 48.390625 37.40625 48.390625 
Q 33.109375 48.390625 29.21875 46.875 
Q 25.34375 45.359375 22.703125 42.578125 
Q 18.5 38.328125 16.203125 32.609375 
Q 13.921875 26.90625 13.921875 20.796875 
Q 13.921875 13.421875 17.609375 9.8125 
Q 21.296875 6.203125 28.8125 6.203125 
Q 32.515625 6.203125 36.6875 7.328125 
Q 40.875 8.453125 45.40625 10.6875 
L 43.703125 1.8125 
Q 39.796875 0.203125 35.671875 -0.609375 
Q 31.546875 -1.421875 27.203125 -1.421875 
Q 16.3125 -1.421875 10.453125 4.015625 
Q 4.59375 9.46875 4.59375 19.578125 
Q 4.59375 28.078125 7.640625 35.234375 
Q 10.6875 42.390625 16.703125 48.09375 
Q 20.796875 52 26.3125 54 
Q 31.84375 56 38.375 56 
Q 42.1875 56 45.9375 55.140625 
Q 49.703125 54.296875 53.609375 52.59375 
z
" id="DejaVuSans-Oblique-99"/>
      <path d="M 48.09375 32.234375 
Q 48.25 33.015625 48.3125 33.84375 
Q 48.390625 34.671875 48.390625 35.5 
Q 48.390625 41.453125 44.890625 44.921875 
Q 41.40625 48.390625 35.40625 48.390625 
Q 28.71875 48.390625 23.578125 44.15625 
Q 18.453125 39.9375 15.828125 32.171875 
z
M 55.90625 25.203125 
L 14.109375 25.203125 
Q 13.8125 23.34375 13.71875 22.265625 
Q 13.625 21.1875 13.625 20.40625 
Q 13.625 13.625 17.796875 9.90625 
Q 21.96875 6.203125 29.59375 6.203125 
Q 35.453125 6.203125 40.671875 7.515625 
Q 45.90625 8.84375 50.390625 11.375 
L 48.6875 2.484375 
Q 43.84375 0.53125 38.6875 -0.4375 
Q 33.546875 -1.421875 28.21875 -1.421875 
Q 16.84375 -1.421875 10.71875 4.015625 
Q 4.59375 9.46875 4.59375 19.484375 
Q 4.59375 28.03125 7.640625 35.375 
Q 10.6875 42.71875 16.609375 48.484375 
Q 20.40625 52.09375 25.65625 54.046875 
Q 30.90625 56 36.8125 56 
Q 46.09375 56 51.578125 50.4375 
Q 57.078125 44.875 57.078125 35.5 
Q 57.078125 33.25 56.78125 30.6875 
Q 56.5 28.125 55.90625 25.203125 
z
" id="DejaVuSans-Oblique-101"/>
      <path d="M 50 53.078125 
L 48.296875 44.578125 
Q 44.734375 46.53125 40.765625 47.5 
Q 36.8125 48.484375 32.625 48.484375 
Q 25.53125 48.484375 21.453125 46.0625 
Q 17.390625 43.65625 17.390625 39.5 
Q 17.390625 34.671875 26.859375 32.078125 
Q 27.59375 31.890625 27.9375 31.78125 
L 30.8125 30.90625 
Q 39.796875 28.421875 42.796875 25.6875 
Q 45.796875 22.953125 45.796875 18.21875 
Q 45.796875 9.515625 38.890625 4.046875 
Q 31.984375 -1.421875 20.796875 -1.421875 
Q 16.453125 -1.421875 11.671875 -0.578125 
Q 6.890625 0.25 1.125 2 
L 2.875 11.28125 
Q 7.8125 8.734375 12.59375 7.421875 
Q 17.390625 6.109375 21.78125 6.109375 
Q 28.375 6.109375 32.5 8.9375 
Q 36.625 11.765625 36.625 16.109375 
Q 36.625 20.796875 25.78125 23.6875 
L 24.859375 23.921875 
L 21.78125 24.703125 
Q 14.9375 26.515625 11.765625 29.46875 
Q 8.59375 32.421875 8.59375 37.015625 
Q 8.59375 45.75 15.15625 50.875 
Q 21.734375 56 33.015625 56 
Q 37.453125 56 41.671875 55.265625 
Q 45.90625 54.546875 50 53.078125 
z
" id="DejaVuSans-Oblique-115"/>
      <path d="M 10.59375 45.40625 
L 73.1875 45.40625 
L 73.1875 37.203125 
L 10.59375 37.203125 
z
M 10.59375 25.484375 
L 73.1875 25.484375 
L 73.1875 17.1875 
L 10.59375 17.1875 
z
" id="DejaVuSans-61"/>
      <path d="M 11.71875 12.40625 
L 22.015625 12.40625 
L 22.015625 4 
L 14.015625 -11.625 
L 7.71875 -11.625 
L 11.71875 4 
z
" id="DejaVuSans-44"/>
      <path d="M 36.8125 72.90625 
L 48 72.90625 
L 61.53125 0 
L 51.21875 0 
L 48.1875 18.703125 
L 15.375 18.703125 
L 5.078125 0 
L -5.328125 0 
z
M 40.375 63.1875 
L 19.921875 26.90625 
L 46.6875 26.90625 
z
" id="DejaVuSans-Oblique-65"/>
      <path d="M 16.890625 72.90625 
L 26.8125 72.90625 
L 12.59375 0 
L 2.6875 0 
z
" id="DejaVuSans-Oblique-73"/>
      <path d="M 60.296875 70.515625 
L 58.40625 60.890625 
Q 53.46875 63.53125 48.609375 64.875 
Q 43.75 66.21875 39.203125 66.21875 
Q 30.375 66.21875 25.140625 62.359375 
Q 19.921875 58.5 19.921875 52.09375 
Q 19.921875 48.578125 21.84375 46.703125 
Q 23.78125 44.828125 31.78125 42.671875 
L 37.703125 41.21875 
Q 47.703125 38.625 51.609375 34.640625 
Q 55.515625 30.671875 55.515625 23.484375 
Q 55.515625 12.453125 46.84375 5.515625 
Q 38.1875 -1.421875 24.03125 -1.421875 
Q 18.21875 -1.421875 12.359375 -0.265625 
Q 6.5 0.875 0.59375 3.21875 
L 2.59375 13.375 
Q 8.015625 10.015625 13.453125 8.296875 
Q 18.890625 6.59375 24.3125 6.59375 
Q 33.546875 6.59375 39.109375 10.6875 
Q 44.671875 14.796875 44.671875 21.390625 
Q 44.671875 25.78125 42.453125 28.046875 
Q 40.234375 30.328125 32.90625 32.171875 
L 27 33.6875 
Q 16.890625 36.328125 13.203125 39.765625 
Q 9.515625 43.21875 9.515625 49.421875 
Q 9.515625 60.296875 17.890625 67.25 
Q 26.265625 74.21875 39.703125 74.21875 
Q 44.921875 74.21875 50.046875 73.28125 
Q 55.171875 72.359375 60.296875 70.515625 
z
" id="DejaVuSans-Oblique-83"/>
      <path d="M 25.203125 64.796875 
L 20.21875 38.921875 
L 32.90625 38.921875 
Q 40.375 38.921875 44.984375 43.046875 
Q 49.609375 47.171875 49.609375 53.8125 
Q 49.609375 59.125 46.5 61.953125 
Q 43.40625 64.796875 37.59375 64.796875 
z
M 43.3125 35.015625 
Q 46.4375 34.28125 48.515625 31.390625 
Q 50.59375 28.515625 53.328125 19.921875 
L 59.515625 0 
L 49.125 0 
L 43.40625 18.703125 
Q 41.21875 25.921875 38.328125 28.359375 
Q 35.453125 30.8125 29.5 30.8125 
L 18.609375 30.8125 
L 12.59375 0 
L 2.6875 0 
L 16.890625 72.90625 
L 39.109375 72.90625 
Q 49.21875 72.90625 54.609375 68.328125 
Q 60.015625 63.765625 60.015625 55.171875 
Q 60.015625 47.5625 55.421875 41.984375 
Q 50.828125 36.421875 43.3125 35.015625 
z
" id="DejaVuSans-Oblique-82"/>
      <path d="M 53.71875 31.203125 
L 47.609375 0 
L 38.625 0 
L 40.28125 8.296875 
Q 36.328125 3.421875 31.265625 1 
Q 26.21875 -1.421875 20.015625 -1.421875 
Q 13.03125 -1.421875 8.5625 2.84375 
Q 4.109375 7.125 4.109375 13.8125 
Q 4.109375 23.390625 11.75 28.953125 
Q 19.390625 34.515625 32.8125 34.515625 
L 45.3125 34.515625 
L 45.796875 36.921875 
Q 45.90625 37.3125 45.953125 37.765625 
Q 46 38.234375 46 39.203125 
Q 46 43.5625 42.453125 45.96875 
Q 38.921875 48.390625 32.515625 48.390625 
Q 28.125 48.390625 23.5 47.265625 
Q 18.890625 46.140625 14.015625 43.890625 
L 15.578125 52.203125 
Q 20.65625 54.109375 25.515625 55.046875 
Q 30.375 56 34.90625 56 
Q 44.578125 56 49.625 51.796875 
Q 54.6875 47.609375 54.6875 39.59375 
Q 54.6875 37.984375 54.4375 35.8125 
Q 54.203125 33.640625 53.71875 31.203125 
z
M 44 27.484375 
L 35.015625 27.484375 
Q 23.96875 27.484375 18.671875 24.53125 
Q 13.375 21.578125 13.375 15.375 
Q 13.375 11.078125 16.078125 8.640625 
Q 18.796875 6.203125 23.578125 6.203125 
Q 30.90625 6.203125 36.375 11.453125 
Q 41.84375 16.703125 43.609375 25.484375 
z
" id="DejaVuSans-Oblique-97"/>
      <path d="M 41.796875 8.203125 
Q 38.1875 3.46875 33.25 1.015625 
Q 28.328125 -1.421875 22.3125 -1.421875 
Q 14.109375 -1.421875 9.34375 4.171875 
Q 4.59375 9.765625 4.59375 19.484375 
Q 4.59375 27.59375 7.46875 34.9375 
Q 10.359375 42.28125 15.828125 48.09375 
Q 19.4375 51.953125 23.96875 53.96875 
Q 28.515625 56 33.5 56 
Q 38.765625 56 42.796875 53.453125 
Q 46.828125 50.921875 49.03125 46.1875 
L 54.890625 75.984375 
L 63.921875 75.984375 
L 49.125 0 
L 40.09375 0 
z
M 13.921875 21.09375 
Q 13.921875 14.015625 17.109375 10.0625 
Q 20.3125 6.109375 25.984375 6.109375 
Q 30.171875 6.109375 33.765625 8.125 
Q 37.359375 10.15625 40.09375 14.109375 
Q 42.96875 18.21875 44.625 23.578125 
Q 46.296875 28.953125 46.296875 34.1875 
Q 46.296875 40.96875 43.09375 44.765625 
Q 39.890625 48.578125 34.28125 48.578125 
Q 30.03125 48.578125 26.359375 46.578125 
Q 22.703125 44.578125 20.125 40.828125 
Q 17.28125 36.765625 15.59375 31.390625 
Q 13.921875 26.03125 13.921875 21.09375 
z
" id="DejaVuSans-Oblique-100"/>
     </defs>
     <use transform="translate(0 0.015625)" xlink:href="#DejaVuSans-65"/>
     <use transform="translate(68.408203 0.015625)" xlink:href="#DejaVuSans-118"/>
     <use transform="translate(127.587891 0.015625)" xlink:href="#DejaVuSans-101"/>
     <use transform="translate(189.111328 0.015625)" xlink:href="#DejaVuSans-114"/>
     <use transform="translate(230.224609 0.015625)" xlink:href="#DejaVuSans-97"/>
     <use transform="translate(291.503906 0.015625)" xlink:href="#DejaVuSans-103"/>
     <use transform="translate(354.980469 0.015625)" xlink:href="#DejaVuSans-101"/>
     <use transform="translate(416.503906 0.015625)" xlink:href="#DejaVuSans-32"/>
     <use transform="translate(448.291016 0.015625)" xlink:href="#DejaVuSans-65"/>
     <use transform="translate(516.699219 0.015625)" xlink:href="#DejaVuSans-78"/>
     <use transform="translate(591.503906 0.015625)" xlink:href="#DejaVuSans-69"/>
     <use transform="translate(654.6875 0.015625)" xlink:href="#DejaVuSans-69"/>
     <use transform="translate(717.871094 0.015625)" xlink:href="#DejaVuSans-83"/>
     <use transform="translate(781.347656 0.015625)" xlink:href="#DejaVuSans-32"/>
     <use transform="translate(813.134766 0.015625)" xlink:href="#DejaVuSans-119"/>
     <use transform="translate(894.921875 0.015625)" xlink:href="#DejaVuSans-105"/>
     <use transform="translate(922.705078 0.015625)" xlink:href="#DejaVuSans-116"/>
     <use transform="translate(961.914062 0.015625)" xlink:href="#DejaVuSans-104"/>
     <use transform="translate(1025.292969 0.015625)" xlink:href="#DejaVuSans-32"/>
     <use transform="translate(1057.080078 0.015625)" xlink:href="#DejaVuSans-112"/>
     <use transform="translate(1120.556641 0.015625)" xlink:href="#DejaVuSans-97"/>
     <use transform="translate(1181.835938 0.015625)" xlink:href="#DejaVuSans-114"/>
     <use transform="translate(1222.949219 0.015625)" xlink:href="#DejaVuSans-97"/>
     <use transform="translate(1284.228516 0.015625)" xlink:href="#DejaVuSans-109"/>
     <use transform="translate(1381.640625 0.015625)" xlink:href="#DejaVuSans-101"/>
     <use transform="translate(1443.164062 0.015625)" xlink:href="#DejaVuSans-116"/>
     <use transform="translate(1482.373047 0.015625)" xlink:href="#DejaVuSans-101"/>
     <use transform="translate(1543.896484 0.015625)" xlink:href="#DejaVuSans-114"/>
     <use transform="translate(1585.009766 0.015625)" xlink:href="#DejaVuSans-115"/>
     <use transform="translate(1637.109375 0.015625)" xlink:href="#DejaVuSans-32"/>
     <use transform="translate(1668.896484 0.015625)" xlink:href="#DejaVuSans-Oblique-963"/>
     <use transform="translate(1732.275391 -16.390625)scale(0.7)" xlink:href="#DejaVuSans-Oblique-112"/>
     <use transform="translate(1776.708984 -16.390625)scale(0.7)" xlink:href="#DejaVuSans-Oblique-114"/>
     <use transform="translate(1805.488281 -16.390625)scale(0.7)" xlink:href="#DejaVuSans-Oblique-111"/>
     <use transform="translate(1848.31543 -16.390625)scale(0.7)" xlink:href="#DejaVuSans-Oblique-99"/>
     <use transform="translate(1886.801758 -16.390625)scale(0.7)" xlink:href="#DejaVuSans-Oblique-101"/>
     <use transform="translate(1929.868164 -16.390625)scale(0.7)" xlink:href="#DejaVuSans-Oblique-115"/>
     <use transform="translate(1966.337891 -16.390625)scale(0.7)" xlink:href="#DejaVuSans-Oblique-115"/>
     <use transform="translate(2025.024414 0.015625)" xlink:href="#DejaVuSans-61"/>
     <use transform="translate(2128.295898 0.015625)" xlink:href="#DejaVuSans-51"/>
     <use transform="translate(2191.918945 0.015625)" xlink:href="#DejaVuSans-44"/>
     <use transform="translate(2223.706055 0.015625)" xlink:href="#DejaVuSans-32"/>
     <use transform="translate(2255.493164 0.015625)" xlink:href="#DejaVuSans-32"/>
     <use transform="translate(2287.280273 0.015625)" xlink:href="#DejaVuSans-Oblique-963"/>
     <use transform="translate(2350.65918 -16.390625)scale(0.7)" xlink:href="#DejaVuSans-Oblique-65"/>
     <use transform="translate(2398.544922 -16.390625)scale(0.7)" xlink:href="#DejaVuSans-Oblique-73"/>
     <use transform="translate(2419.189453 -16.390625)scale(0.7)" xlink:href="#DejaVuSans-Oblique-83"/>
     <use transform="translate(2485.839844 0.015625)" xlink:href="#DejaVuSans-61"/>
     <use transform="translate(2589.111328 0.015625)" xlink:href="#DejaVuSans-49"/>
     <use transform="translate(2652.734375 0.015625)" xlink:href="#DejaVuSans-48"/>
     <use transform="translate(2716.357422 0.015625)" xlink:href="#DejaVuSans-44"/>
     <use transform="translate(2748.144531 0.015625)" xlink:href="#DejaVuSans-32"/>
     <use transform="translate(2779.931641 0.015625)" xlink:href="#DejaVuSans-Oblique-963"/>
     <use transform="translate(2843.310547 -16.390625)scale(0.7)" xlink:href="#DejaVuSans-Oblique-82"/>
     <use transform="translate(2891.948242 -16.390625)scale(0.7)" xlink:href="#DejaVuSans-Oblique-97"/>
     <use transform="translate(2934.84375 -16.390625)scale(0.7)" xlink:href="#DejaVuSans-Oblique-100"/>
     <use transform="translate(2979.277344 -16.390625)scale(0.7)" xlink:href="#DejaVuSans-Oblique-97"/>
     <use transform="translate(3022.172852 -16.390625)scale(0.7)" xlink:href="#DejaVuSans-Oblique-114"/>
     <use transform="translate(3073.168945 0.015625)" xlink:href="#DejaVuSans-61"/>
     <use transform="translate(3176.44043 0.015625)" xlink:href="#DejaVuSans-49"/>
     <use transform="translate(3240.063477 0.015625)" xlink:href="#DejaVuSans-48"/>
     <use transform="translate(3303.686523 0.015625)" xlink:href="#DejaVuSans-48"/>
    </g>
   </g>
   <g id="legend_1">
    <g id="patch_7">
     <path d="M 566.607813 95.1765 
L 702.2 95.1765 
Q 704.2 95.1765 704.2 93.1765 
L 704.2 35.464 
Q 704.2 33.464 702.2 33.464 
L 566.607813 33.464 
Q 564.607813 33.464 564.607813 35.464 
L 564.607813 93.1765 
Q 564.607813 95.1765 566.607813 95.1765 
z
" style="fill:#ffffff;opacity:0.8;stroke:#cccccc;stroke-linejoin:miter;"/>
    </g>
    <g id="line2d_21">
     <path d="M 568.607813 41.562438 
L 588.607813 41.562438 
" style="fill:none;stroke:#000000;stroke-linecap:square;stroke-width:1.5;"/>
    </g>
    <g id="line2d_22"/>
    <g id="text_19">
     <!-- Confidence Intervals -->
     <g transform="translate(596.607813 45.062438)scale(0.1 -0.1)">
      <defs>
       <path d="M 37.109375 75.984375 
L 37.109375 68.5 
L 28.515625 68.5 
Q 23.6875 68.5 21.796875 66.546875 
Q 19.921875 64.59375 19.921875 59.515625 
L 19.921875 54.6875 
L 34.71875 54.6875 
L 34.71875 47.703125 
L 19.921875 47.703125 
L 19.921875 0 
L 10.890625 0 
L 10.890625 47.703125 
L 2.296875 47.703125 
L 2.296875 54.6875 
L 10.890625 54.6875 
L 10.890625 58.5 
Q 10.890625 67.625 15.140625 71.796875 
Q 19.390625 75.984375 28.609375 75.984375 
z
" id="DejaVuSans-102"/>
       <path d="M 45.40625 46.390625 
L 45.40625 75.984375 
L 54.390625 75.984375 
L 54.390625 0 
L 45.40625 0 
L 45.40625 8.203125 
Q 42.578125 3.328125 38.25 0.953125 
Q 33.9375 -1.421875 27.875 -1.421875 
Q 17.96875 -1.421875 11.734375 6.484375 
Q 5.515625 14.40625 5.515625 27.296875 
Q 5.515625 40.1875 11.734375 48.09375 
Q 17.96875 56 27.875 56 
Q 33.9375 56 38.25 53.625 
Q 42.578125 51.265625 45.40625 46.390625 
z
M 14.796875 27.296875 
Q 14.796875 17.390625 18.875 11.75 
Q 22.953125 6.109375 30.078125 6.109375 
Q 37.203125 6.109375 41.296875 11.75 
Q 45.40625 17.390625 45.40625 27.296875 
Q 45.40625 37.203125 41.296875 42.84375 
Q 37.203125 48.484375 30.078125 48.484375 
Q 22.953125 48.484375 18.875 42.84375 
Q 14.796875 37.203125 14.796875 27.296875 
z
" id="DejaVuSans-100"/>
       <path d="M 48.78125 52.59375 
L 48.78125 44.1875 
Q 44.96875 46.296875 41.140625 47.34375 
Q 37.3125 48.390625 33.40625 48.390625 
Q 24.65625 48.390625 19.8125 42.84375 
Q 14.984375 37.3125 14.984375 27.296875 
Q 14.984375 17.28125 19.8125 11.734375 
Q 24.65625 6.203125 33.40625 6.203125 
Q 37.3125 6.203125 41.140625 7.25 
Q 44.96875 8.296875 48.78125 10.40625 
L 48.78125 2.09375 
Q 45.015625 0.34375 40.984375 -0.53125 
Q 36.96875 -1.421875 32.421875 -1.421875 
Q 20.0625 -1.421875 12.78125 6.34375 
Q 5.515625 14.109375 5.515625 27.296875 
Q 5.515625 40.671875 12.859375 48.328125 
Q 20.21875 56 33.015625 56 
Q 37.15625 56 41.109375 55.140625 
Q 45.0625 54.296875 48.78125 52.59375 
z
" id="DejaVuSans-99"/>
       <path d="M 9.8125 72.90625 
L 19.671875 72.90625 
L 19.671875 0 
L 9.8125 0 
z
" id="DejaVuSans-73"/>
       <path d="M 9.421875 75.984375 
L 18.40625 75.984375 
L 18.40625 0 
L 9.421875 0 
z
" id="DejaVuSans-108"/>
      </defs>
      <use xlink:href="#DejaVuSans-67"/>
      <use x="69.824219" xlink:href="#DejaVuSans-111"/>
      <use x="131.005859" xlink:href="#DejaVuSans-110"/>
      <use x="194.384766" xlink:href="#DejaVuSans-102"/>
      <use x="229.589844" xlink:href="#DejaVuSans-105"/>
      <use x="257.373047" xlink:href="#DejaVuSans-100"/>
      <use x="320.849609" xlink:href="#DejaVuSans-101"/>
      <use x="382.373047" xlink:href="#DejaVuSans-110"/>
      <use x="445.751953" xlink:href="#DejaVuSans-99"/>
      <use x="500.732422" xlink:href="#DejaVuSans-101"/>
      <use x="562.255859" xlink:href="#DejaVuSans-32"/>
      <use x="594.042969" xlink:href="#DejaVuSans-73"/>
      <use x="623.535156" xlink:href="#DejaVuSans-110"/>
      <use x="686.914062" xlink:href="#DejaVuSans-116"/>
      <use x="726.123047" xlink:href="#DejaVuSans-101"/>
      <use x="787.646484" xlink:href="#DejaVuSans-114"/>
      <use x="828.759766" xlink:href="#DejaVuSans-118"/>
      <use x="887.939453" xlink:href="#DejaVuSans-97"/>
      <use x="949.21875" xlink:href="#DejaVuSans-108"/>
      <use x="977.001953" xlink:href="#DejaVuSans-115"/>
     </g>
    </g>
    <g id="line2d_23">
     <path d="M 568.607813 56.240563 
L 588.607813 56.240563 
" style="fill:none;stroke:#0000ff;stroke-linecap:square;stroke-width:1.5;"/>
    </g>
    <g id="line2d_24"/>
    <g id="text_20">
     <!-- Independent -->
     <g transform="translate(596.607813 59.740563)scale(0.1 -0.1)">
      <use xlink:href="#DejaVuSans-73"/>
      <use x="29.492188" xlink:href="#DejaVuSans-110"/>
      <use x="92.871094" xlink:href="#DejaVuSans-100"/>
      <use x="156.347656" xlink:href="#DejaVuSans-101"/>
      <use x="217.871094" xlink:href="#DejaVuSans-112"/>
      <use x="281.347656" xlink:href="#DejaVuSans-101"/>
      <use x="342.871094" xlink:href="#DejaVuSans-110"/>
      <use x="406.25" xlink:href="#DejaVuSans-100"/>
      <use x="469.726562" xlink:href="#DejaVuSans-101"/>
      <use x="531.25" xlink:href="#DejaVuSans-110"/>
      <use x="594.628906" xlink:href="#DejaVuSans-116"/>
     </g>
    </g>
    <g id="line2d_25">
     <path d="M 568.607813 70.918688 
L 588.607813 70.918688 
" style="fill:none;stroke:#ff0000;stroke-linecap:square;stroke-width:1.5;"/>
    </g>
    <g id="line2d_26"/>
    <g id="text_21">
     <!-- Dependent -->
     <g transform="translate(596.607813 74.418688)scale(0.1 -0.1)">
      <defs>
       <path d="M 19.671875 64.796875 
L 19.671875 8.109375 
L 31.59375 8.109375 
Q 46.6875 8.109375 53.6875 14.9375 
Q 60.6875 21.78125 60.6875 36.53125 
Q 60.6875 51.171875 53.6875 57.984375 
Q 46.6875 64.796875 31.59375 64.796875 
z
M 9.8125 72.90625 
L 30.078125 72.90625 
Q 51.265625 72.90625 61.171875 64.09375 
Q 71.09375 55.28125 71.09375 36.53125 
Q 71.09375 17.671875 61.125 8.828125 
Q 51.171875 0 30.078125 0 
L 9.8125 0 
z
" id="DejaVuSans-68"/>
      </defs>
      <use xlink:href="#DejaVuSans-68"/>
      <use x="77.001953" xlink:href="#DejaVuSans-101"/>
      <use x="138.525391" xlink:href="#DejaVuSans-112"/>
      <use x="202.001953" xlink:href="#DejaVuSans-101"/>
      <use x="263.525391" xlink:href="#DejaVuSans-110"/>
      <use x="326.904297" xlink:href="#DejaVuSans-100"/>
      <use x="390.380859" xlink:href="#DejaVuSans-101"/>
      <use x="451.904297" xlink:href="#DejaVuSans-110"/>
      <use x="515.283203" xlink:href="#DejaVuSans-116"/>
     </g>
    </g>
    <g id="line2d_27">
     <path d="M 568.607813 85.596813 
L 588.607813 85.596813 
" style="fill:none;stroke:#008000;stroke-linecap:square;stroke-width:1.5;"/>
    </g>
    <g id="line2d_28"/>
    <g id="text_22">
     <!-- AIS as measurement -->
     <g transform="translate(596.607813 89.096813)scale(0.1 -0.1)">
      <defs>
       <path d="M 8.5 21.578125 
L 8.5 54.6875 
L 17.484375 54.6875 
L 17.484375 21.921875 
Q 17.484375 14.15625 20.5 10.265625 
Q 23.53125 6.390625 29.59375 6.390625 
Q 36.859375 6.390625 41.078125 11.03125 
Q 45.3125 15.671875 45.3125 23.6875 
L 45.3125 54.6875 
L 54.296875 54.6875 
L 54.296875 0 
L 45.3125 0 
L 45.3125 8.40625 
Q 42.046875 3.421875 37.71875 1 
Q 33.40625 -1.421875 27.6875 -1.421875 
Q 18.265625 -1.421875 13.375 4.4375 
Q 8.5 10.296875 8.5 21.578125 
z
M 31.109375 56 
z
" id="DejaVuSans-117"/>
      </defs>
      <use xlink:href="#DejaVuSans-65"/>
      <use x="68.408203" xlink:href="#DejaVuSans-73"/>
      <use x="97.900391" xlink:href="#DejaVuSans-83"/>
      <use x="161.376953" xlink:href="#DejaVuSans-32"/>
      <use x="193.164062" xlink:href="#DejaVuSans-97"/>
      <use x="254.443359" xlink:href="#DejaVuSans-115"/>
      <use x="306.542969" xlink:href="#DejaVuSans-32"/>
      <use x="338.330078" xlink:href="#DejaVuSans-109"/>
      <use x="435.742188" xlink:href="#DejaVuSans-101"/>
      <use x="497.265625" xlink:href="#DejaVuSans-97"/>
      <use x="558.544922" xlink:href="#DejaVuSans-115"/>
      <use x="610.644531" xlink:href="#DejaVuSans-117"/>
      <use x="674.023438" xlink:href="#DejaVuSans-114"/>
      <use x="712.886719" xlink:href="#DejaVuSans-101"/>
      <use x="774.410156" xlink:href="#DejaVuSans-109"/>
      <use x="871.822266" xlink:href="#DejaVuSans-101"/>
      <use x="933.345703" xlink:href="#DejaVuSans-110"/>
      <use x="996.724609" xlink:href="#DejaVuSans-116"/>
     </g>
    </g>
   </g>
  </g>
 </g>
 <defs>
  <clipPath id="p377aa20828">
   <rect height="361.576" width="661.48" x="47.72" y="28.464"/>
  </clipPath>
 </defs>
</svg>
