<?xml version="1.0" encoding="utf-8" standalone="no"?>
<!DOCTYPE svg PUBLIC "-//W3C//DTD SVG 1.1//EN"
  "http://www.w3.org/Graphics/SVG/1.1/DTD/svg11.dtd">
<!-- Created with matplotlib (https://matplotlib.org/) -->
<svg height="432pt" version="1.1" viewBox="0 0 720 432" width="720pt" xmlns="http://www.w3.org/2000/svg" xmlns:xlink="http://www.w3.org/1999/xlink">
 <metadata>
  <rdf:RDF xmlns:cc="http://creativecommons.org/ns#" xmlns:dc="http://purl.org/dc/elements/1.1/" xmlns:rdf="http://www.w3.org/1999/02/22-rdf-syntax-ns#">
   <cc:Work>
    <dc:type rdf:resource="http://purl.org/dc/dcmitype/StillImage"/>
    <dc:date>2020-10-14T12:15:21.483271</dc:date>
    <dc:format>image/svg+xml</dc:format>
    <dc:creator>
     <cc:Agent>
      <dc:title>Matplotlib v3.3.1, https://matplotlib.org/</dc:title>
     </cc:Agent>
    </dc:creator>
   </cc:Work>
  </rdf:RDF>
 </metadata>
 <defs>
  <style type="text/css">*{stroke-linecap:butt;stroke-linejoin:round;}</style>
 </defs>
 <g id="figure_1">
  <g id="patch_1">
   <path d="M 0 432 
L 720 432 
L 720 0 
L 0 0 
z
" style="fill:#ffffff;"/>
  </g>
  <g id="axes_1">
   <g id="patch_2">
    <path d="M 47.72 390.04 
L 709.2 390.04 
L 709.2 28.464 
L 47.72 28.464 
z
" style="fill:#ffffff;"/>
   </g>
   <g id="matplotlib.axis_1">
    <g id="xtick_1">
     <g id="line2d_1">
      <defs>
       <path d="M 0 0 
L 0 3.5 
" id="mdbf8c99d36" style="stroke:#000000;stroke-width:0.8;"/>
      </defs>
      <g>
       <use style="stroke:#000000;stroke-width:0.8;" x="77.787273" xlink:href="#mdbf8c99d36" y="390.04"/>
      </g>
     </g>
     <g id="text_1">
      <!-- 0 -->
      <g transform="translate(74.606023 404.638438)scale(0.1 -0.1)">
       <defs>
        <path d="M 31.78125 66.40625 
Q 24.171875 66.40625 20.328125 58.90625 
Q 16.5 51.421875 16.5 36.375 
Q 16.5 21.390625 20.328125 13.890625 
Q 24.171875 6.390625 31.78125 6.390625 
Q 39.453125 6.390625 43.28125 13.890625 
Q 47.125 21.390625 47.125 36.375 
Q 47.125 51.421875 43.28125 58.90625 
Q 39.453125 66.40625 31.78125 66.40625 
z
M 31.78125 74.21875 
Q 44.046875 74.21875 50.515625 64.515625 
Q 56.984375 54.828125 56.984375 36.375 
Q 56.984375 17.96875 50.515625 8.265625 
Q 44.046875 -1.421875 31.78125 -1.421875 
Q 19.53125 -1.421875 13.0625 8.265625 
Q 6.59375 17.96875 6.59375 36.375 
Q 6.59375 54.828125 13.0625 64.515625 
Q 19.53125 74.21875 31.78125 74.21875 
z
" id="DejaVuSans-48"/>
       </defs>
       <use xlink:href="#DejaVuSans-48"/>
      </g>
     </g>
    </g>
    <g id="xtick_2">
     <g id="line2d_2">
      <g>
       <use style="stroke:#000000;stroke-width:0.8;" x="198.297384" xlink:href="#mdbf8c99d36" y="390.04"/>
      </g>
     </g>
     <g id="text_2">
      <!-- 100 -->
      <g transform="translate(188.753634 404.638438)scale(0.1 -0.1)">
       <defs>
        <path d="M 12.40625 8.296875 
L 28.515625 8.296875 
L 28.515625 63.921875 
L 10.984375 60.40625 
L 10.984375 69.390625 
L 28.421875 72.90625 
L 38.28125 72.90625 
L 38.28125 8.296875 
L 54.390625 8.296875 
L 54.390625 0 
L 12.40625 0 
z
" id="DejaVuSans-49"/>
       </defs>
       <use xlink:href="#DejaVuSans-49"/>
       <use x="63.623047" xlink:href="#DejaVuSans-48"/>
       <use x="127.246094" xlink:href="#DejaVuSans-48"/>
      </g>
     </g>
    </g>
    <g id="xtick_3">
     <g id="line2d_3">
      <g>
       <use style="stroke:#000000;stroke-width:0.8;" x="318.807495" xlink:href="#mdbf8c99d36" y="390.04"/>
      </g>
     </g>
     <g id="text_3">
      <!-- 200 -->
      <g transform="translate(309.263745 404.638438)scale(0.1 -0.1)">
       <defs>
        <path d="M 19.1875 8.296875 
L 53.609375 8.296875 
L 53.609375 0 
L 7.328125 0 
L 7.328125 8.296875 
Q 12.9375 14.109375 22.625 23.890625 
Q 32.328125 33.6875 34.8125 36.53125 
Q 39.546875 41.84375 41.421875 45.53125 
Q 43.3125 49.21875 43.3125 52.78125 
Q 43.3125 58.59375 39.234375 62.25 
Q 35.15625 65.921875 28.609375 65.921875 
Q 23.96875 65.921875 18.8125 64.3125 
Q 13.671875 62.703125 7.8125 59.421875 
L 7.8125 69.390625 
Q 13.765625 71.78125 18.9375 73 
Q 24.125 74.21875 28.421875 74.21875 
Q 39.75 74.21875 46.484375 68.546875 
Q 53.21875 62.890625 53.21875 53.421875 
Q 53.21875 48.921875 51.53125 44.890625 
Q 49.859375 40.875 45.40625 35.40625 
Q 44.1875 33.984375 37.640625 27.21875 
Q 31.109375 20.453125 19.1875 8.296875 
z
" id="DejaVuSans-50"/>
       </defs>
       <use xlink:href="#DejaVuSans-50"/>
       <use x="63.623047" xlink:href="#DejaVuSans-48"/>
       <use x="127.246094" xlink:href="#DejaVuSans-48"/>
      </g>
     </g>
    </g>
    <g id="xtick_4">
     <g id="line2d_4">
      <g>
       <use style="stroke:#000000;stroke-width:0.8;" x="439.317606" xlink:href="#mdbf8c99d36" y="390.04"/>
      </g>
     </g>
     <g id="text_4">
      <!-- 300 -->
      <g transform="translate(429.773856 404.638438)scale(0.1 -0.1)">
       <defs>
        <path d="M 40.578125 39.3125 
Q 47.65625 37.796875 51.625 33 
Q 55.609375 28.21875 55.609375 21.1875 
Q 55.609375 10.40625 48.1875 4.484375 
Q 40.765625 -1.421875 27.09375 -1.421875 
Q 22.515625 -1.421875 17.65625 -0.515625 
Q 12.796875 0.390625 7.625 2.203125 
L 7.625 11.71875 
Q 11.71875 9.328125 16.59375 8.109375 
Q 21.484375 6.890625 26.8125 6.890625 
Q 36.078125 6.890625 40.9375 10.546875 
Q 45.796875 14.203125 45.796875 21.1875 
Q 45.796875 27.640625 41.28125 31.265625 
Q 36.765625 34.90625 28.71875 34.90625 
L 20.21875 34.90625 
L 20.21875 43.015625 
L 29.109375 43.015625 
Q 36.375 43.015625 40.234375 45.921875 
Q 44.09375 48.828125 44.09375 54.296875 
Q 44.09375 59.90625 40.109375 62.90625 
Q 36.140625 65.921875 28.71875 65.921875 
Q 24.65625 65.921875 20.015625 65.03125 
Q 15.375 64.15625 9.8125 62.3125 
L 9.8125 71.09375 
Q 15.4375 72.65625 20.34375 73.4375 
Q 25.25 74.21875 29.59375 74.21875 
Q 40.828125 74.21875 47.359375 69.109375 
Q 53.90625 64.015625 53.90625 55.328125 
Q 53.90625 49.265625 50.4375 45.09375 
Q 46.96875 40.921875 40.578125 39.3125 
z
" id="DejaVuSans-51"/>
       </defs>
       <use xlink:href="#DejaVuSans-51"/>
       <use x="63.623047" xlink:href="#DejaVuSans-48"/>
       <use x="127.246094" xlink:href="#DejaVuSans-48"/>
      </g>
     </g>
    </g>
    <g id="xtick_5">
     <g id="line2d_5">
      <g>
       <use style="stroke:#000000;stroke-width:0.8;" x="559.827717" xlink:href="#mdbf8c99d36" y="390.04"/>
      </g>
     </g>
     <g id="text_5">
      <!-- 400 -->
      <g transform="translate(550.283967 404.638438)scale(0.1 -0.1)">
       <defs>
        <path d="M 37.796875 64.3125 
L 12.890625 25.390625 
L 37.796875 25.390625 
z
M 35.203125 72.90625 
L 47.609375 72.90625 
L 47.609375 25.390625 
L 58.015625 25.390625 
L 58.015625 17.1875 
L 47.609375 17.1875 
L 47.609375 0 
L 37.796875 0 
L 37.796875 17.1875 
L 4.890625 17.1875 
L 4.890625 26.703125 
z
" id="DejaVuSans-52"/>
       </defs>
       <use xlink:href="#DejaVuSans-52"/>
       <use x="63.623047" xlink:href="#DejaVuSans-48"/>
       <use x="127.246094" xlink:href="#DejaVuSans-48"/>
      </g>
     </g>
    </g>
    <g id="xtick_6">
     <g id="line2d_6">
      <g>
       <use style="stroke:#000000;stroke-width:0.8;" x="680.337828" xlink:href="#mdbf8c99d36" y="390.04"/>
      </g>
     </g>
     <g id="text_6">
      <!-- 500 -->
      <g transform="translate(670.794078 404.638438)scale(0.1 -0.1)">
       <defs>
        <path d="M 10.796875 72.90625 
L 49.515625 72.90625 
L 49.515625 64.59375 
L 19.828125 64.59375 
L 19.828125 46.734375 
Q 21.96875 47.46875 24.109375 47.828125 
Q 26.265625 48.1875 28.421875 48.1875 
Q 40.625 48.1875 47.75 41.5 
Q 54.890625 34.8125 54.890625 23.390625 
Q 54.890625 11.625 47.5625 5.09375 
Q 40.234375 -1.421875 26.90625 -1.421875 
Q 22.3125 -1.421875 17.546875 -0.640625 
Q 12.796875 0.140625 7.71875 1.703125 
L 7.71875 11.625 
Q 12.109375 9.234375 16.796875 8.0625 
Q 21.484375 6.890625 26.703125 6.890625 
Q 35.15625 6.890625 40.078125 11.328125 
Q 45.015625 15.765625 45.015625 23.390625 
Q 45.015625 31 40.078125 35.4375 
Q 35.15625 39.890625 26.703125 39.890625 
Q 22.75 39.890625 18.8125 39.015625 
Q 14.890625 38.140625 10.796875 36.28125 
z
" id="DejaVuSans-53"/>
       </defs>
       <use xlink:href="#DejaVuSans-53"/>
       <use x="63.623047" xlink:href="#DejaVuSans-48"/>
       <use x="127.246094" xlink:href="#DejaVuSans-48"/>
      </g>
     </g>
    </g>
    <g id="text_7">
     <!-- MC iterations -->
     <g transform="translate(345.338125 418.316562)scale(0.1 -0.1)">
      <defs>
       <path d="M 9.8125 72.90625 
L 24.515625 72.90625 
L 43.109375 23.296875 
L 61.8125 72.90625 
L 76.515625 72.90625 
L 76.515625 0 
L 66.890625 0 
L 66.890625 64.015625 
L 48.09375 14.015625 
L 38.1875 14.015625 
L 19.390625 64.015625 
L 19.390625 0 
L 9.8125 0 
z
" id="DejaVuSans-77"/>
       <path d="M 64.40625 67.28125 
L 64.40625 56.890625 
Q 59.421875 61.53125 53.78125 63.8125 
Q 48.140625 66.109375 41.796875 66.109375 
Q 29.296875 66.109375 22.65625 58.46875 
Q 16.015625 50.828125 16.015625 36.375 
Q 16.015625 21.96875 22.65625 14.328125 
Q 29.296875 6.6875 41.796875 6.6875 
Q 48.140625 6.6875 53.78125 8.984375 
Q 59.421875 11.28125 64.40625 15.921875 
L 64.40625 5.609375 
Q 59.234375 2.09375 53.4375 0.328125 
Q 47.65625 -1.421875 41.21875 -1.421875 
Q 24.65625 -1.421875 15.125 8.703125 
Q 5.609375 18.84375 5.609375 36.375 
Q 5.609375 53.953125 15.125 64.078125 
Q 24.65625 74.21875 41.21875 74.21875 
Q 47.75 74.21875 53.53125 72.484375 
Q 59.328125 70.75 64.40625 67.28125 
z
" id="DejaVuSans-67"/>
       <path id="DejaVuSans-32"/>
       <path d="M 9.421875 54.6875 
L 18.40625 54.6875 
L 18.40625 0 
L 9.421875 0 
z
M 9.421875 75.984375 
L 18.40625 75.984375 
L 18.40625 64.59375 
L 9.421875 64.59375 
z
" id="DejaVuSans-105"/>
       <path d="M 18.3125 70.21875 
L 18.3125 54.6875 
L 36.8125 54.6875 
L 36.8125 47.703125 
L 18.3125 47.703125 
L 18.3125 18.015625 
Q 18.3125 11.328125 20.140625 9.421875 
Q 21.96875 7.515625 27.59375 7.515625 
L 36.8125 7.515625 
L 36.8125 0 
L 27.59375 0 
Q 17.1875 0 13.234375 3.875 
Q 9.28125 7.765625 9.28125 18.015625 
L 9.28125 47.703125 
L 2.6875 47.703125 
L 2.6875 54.6875 
L 9.28125 54.6875 
L 9.28125 70.21875 
z
" id="DejaVuSans-116"/>
       <path d="M 56.203125 29.59375 
L 56.203125 25.203125 
L 14.890625 25.203125 
Q 15.484375 15.921875 20.484375 11.0625 
Q 25.484375 6.203125 34.421875 6.203125 
Q 39.59375 6.203125 44.453125 7.46875 
Q 49.3125 8.734375 54.109375 11.28125 
L 54.109375 2.78125 
Q 49.265625 0.734375 44.1875 -0.34375 
Q 39.109375 -1.421875 33.890625 -1.421875 
Q 20.796875 -1.421875 13.15625 6.1875 
Q 5.515625 13.8125 5.515625 26.8125 
Q 5.515625 40.234375 12.765625 48.109375 
Q 20.015625 56 32.328125 56 
Q 43.359375 56 49.78125 48.890625 
Q 56.203125 41.796875 56.203125 29.59375 
z
M 47.21875 32.234375 
Q 47.125 39.59375 43.09375 43.984375 
Q 39.0625 48.390625 32.421875 48.390625 
Q 24.90625 48.390625 20.390625 44.140625 
Q 15.875 39.890625 15.1875 32.171875 
z
" id="DejaVuSans-101"/>
       <path d="M 41.109375 46.296875 
Q 39.59375 47.171875 37.8125 47.578125 
Q 36.03125 48 33.890625 48 
Q 26.265625 48 22.1875 43.046875 
Q 18.109375 38.09375 18.109375 28.8125 
L 18.109375 0 
L 9.078125 0 
L 9.078125 54.6875 
L 18.109375 54.6875 
L 18.109375 46.1875 
Q 20.953125 51.171875 25.484375 53.578125 
Q 30.03125 56 36.53125 56 
Q 37.453125 56 38.578125 55.875 
Q 39.703125 55.765625 41.0625 55.515625 
z
" id="DejaVuSans-114"/>
       <path d="M 34.28125 27.484375 
Q 23.390625 27.484375 19.1875 25 
Q 14.984375 22.515625 14.984375 16.5 
Q 14.984375 11.71875 18.140625 8.90625 
Q 21.296875 6.109375 26.703125 6.109375 
Q 34.1875 6.109375 38.703125 11.40625 
Q 43.21875 16.703125 43.21875 25.484375 
L 43.21875 27.484375 
z
M 52.203125 31.203125 
L 52.203125 0 
L 43.21875 0 
L 43.21875 8.296875 
Q 40.140625 3.328125 35.546875 0.953125 
Q 30.953125 -1.421875 24.3125 -1.421875 
Q 15.921875 -1.421875 10.953125 3.296875 
Q 6 8.015625 6 15.921875 
Q 6 25.140625 12.171875 29.828125 
Q 18.359375 34.515625 30.609375 34.515625 
L 43.21875 34.515625 
L 43.21875 35.40625 
Q 43.21875 41.609375 39.140625 45 
Q 35.0625 48.390625 27.6875 48.390625 
Q 23 48.390625 18.546875 47.265625 
Q 14.109375 46.140625 10.015625 43.890625 
L 10.015625 52.203125 
Q 14.9375 54.109375 19.578125 55.046875 
Q 24.21875 56 28.609375 56 
Q 40.484375 56 46.34375 49.84375 
Q 52.203125 43.703125 52.203125 31.203125 
z
" id="DejaVuSans-97"/>
       <path d="M 30.609375 48.390625 
Q 23.390625 48.390625 19.1875 42.75 
Q 14.984375 37.109375 14.984375 27.296875 
Q 14.984375 17.484375 19.15625 11.84375 
Q 23.34375 6.203125 30.609375 6.203125 
Q 37.796875 6.203125 41.984375 11.859375 
Q 46.1875 17.53125 46.1875 27.296875 
Q 46.1875 37.015625 41.984375 42.703125 
Q 37.796875 48.390625 30.609375 48.390625 
z
M 30.609375 56 
Q 42.328125 56 49.015625 48.375 
Q 55.71875 40.765625 55.71875 27.296875 
Q 55.71875 13.875 49.015625 6.21875 
Q 42.328125 -1.421875 30.609375 -1.421875 
Q 18.84375 -1.421875 12.171875 6.21875 
Q 5.515625 13.875 5.515625 27.296875 
Q 5.515625 40.765625 12.171875 48.375 
Q 18.84375 56 30.609375 56 
z
" id="DejaVuSans-111"/>
       <path d="M 54.890625 33.015625 
L 54.890625 0 
L 45.90625 0 
L 45.90625 32.71875 
Q 45.90625 40.484375 42.875 44.328125 
Q 39.84375 48.1875 33.796875 48.1875 
Q 26.515625 48.1875 22.3125 43.546875 
Q 18.109375 38.921875 18.109375 30.90625 
L 18.109375 0 
L 9.078125 0 
L 9.078125 54.6875 
L 18.109375 54.6875 
L 18.109375 46.1875 
Q 21.34375 51.125 25.703125 53.5625 
Q 30.078125 56 35.796875 56 
Q 45.21875 56 50.046875 50.171875 
Q 54.890625 44.34375 54.890625 33.015625 
z
" id="DejaVuSans-110"/>
       <path d="M 44.28125 53.078125 
L 44.28125 44.578125 
Q 40.484375 46.53125 36.375 47.5 
Q 32.28125 48.484375 27.875 48.484375 
Q 21.1875 48.484375 17.84375 46.4375 
Q 14.5 44.390625 14.5 40.28125 
Q 14.5 37.15625 16.890625 35.375 
Q 19.28125 33.59375 26.515625 31.984375 
L 29.59375 31.296875 
Q 39.15625 29.25 43.1875 25.515625 
Q 47.21875 21.78125 47.21875 15.09375 
Q 47.21875 7.46875 41.1875 3.015625 
Q 35.15625 -1.421875 24.609375 -1.421875 
Q 20.21875 -1.421875 15.453125 -0.5625 
Q 10.6875 0.296875 5.421875 2 
L 5.421875 11.28125 
Q 10.40625 8.6875 15.234375 7.390625 
Q 20.0625 6.109375 24.8125 6.109375 
Q 31.15625 6.109375 34.5625 8.28125 
Q 37.984375 10.453125 37.984375 14.40625 
Q 37.984375 18.0625 35.515625 20.015625 
Q 33.0625 21.96875 24.703125 23.78125 
L 21.578125 24.515625 
Q 13.234375 26.265625 9.515625 29.90625 
Q 5.8125 33.546875 5.8125 39.890625 
Q 5.8125 47.609375 11.28125 51.796875 
Q 16.75 56 26.8125 56 
Q 31.78125 56 36.171875 55.265625 
Q 40.578125 54.546875 44.28125 53.078125 
z
" id="DejaVuSans-115"/>
      </defs>
      <use xlink:href="#DejaVuSans-77"/>
      <use x="86.279297" xlink:href="#DejaVuSans-67"/>
      <use x="156.103516" xlink:href="#DejaVuSans-32"/>
      <use x="187.890625" xlink:href="#DejaVuSans-105"/>
      <use x="215.673828" xlink:href="#DejaVuSans-116"/>
      <use x="254.882812" xlink:href="#DejaVuSans-101"/>
      <use x="316.40625" xlink:href="#DejaVuSans-114"/>
      <use x="357.519531" xlink:href="#DejaVuSans-97"/>
      <use x="418.798828" xlink:href="#DejaVuSans-116"/>
      <use x="458.007812" xlink:href="#DejaVuSans-105"/>
      <use x="485.791016" xlink:href="#DejaVuSans-111"/>
      <use x="546.972656" xlink:href="#DejaVuSans-110"/>
      <use x="610.351562" xlink:href="#DejaVuSans-115"/>
     </g>
    </g>
   </g>
   <g id="matplotlib.axis_2">
    <g id="ytick_1">
     <g id="line2d_7">
      <defs>
       <path d="M 0 0 
L -3.5 0 
" id="m3f872cfd95" style="stroke:#000000;stroke-width:0.8;"/>
      </defs>
      <g>
       <use style="stroke:#000000;stroke-width:0.8;" x="47.72" xlink:href="#m3f872cfd95" y="390.04"/>
      </g>
     </g>
     <g id="text_8">
      <!-- 2.5 -->
      <g transform="translate(24.816875 393.839219)scale(0.1 -0.1)">
       <defs>
        <path d="M 10.6875 12.40625 
L 21 12.40625 
L 21 0 
L 10.6875 0 
z
" id="DejaVuSans-46"/>
       </defs>
       <use xlink:href="#DejaVuSans-50"/>
       <use x="63.623047" xlink:href="#DejaVuSans-46"/>
       <use x="95.410156" xlink:href="#DejaVuSans-53"/>
      </g>
     </g>
    </g>
    <g id="ytick_2">
     <g id="line2d_8">
      <g>
       <use style="stroke:#000000;stroke-width:0.8;" x="47.72" xlink:href="#m3f872cfd95" y="344.843"/>
      </g>
     </g>
     <g id="text_9">
      <!-- 3.0 -->
      <g transform="translate(24.816875 348.642219)scale(0.1 -0.1)">
       <use xlink:href="#DejaVuSans-51"/>
       <use x="63.623047" xlink:href="#DejaVuSans-46"/>
       <use x="95.410156" xlink:href="#DejaVuSans-48"/>
      </g>
     </g>
    </g>
    <g id="ytick_3">
     <g id="line2d_9">
      <g>
       <use style="stroke:#000000;stroke-width:0.8;" x="47.72" xlink:href="#m3f872cfd95" y="299.646"/>
      </g>
     </g>
     <g id="text_10">
      <!-- 3.5 -->
      <g transform="translate(24.816875 303.445219)scale(0.1 -0.1)">
       <use xlink:href="#DejaVuSans-51"/>
       <use x="63.623047" xlink:href="#DejaVuSans-46"/>
       <use x="95.410156" xlink:href="#DejaVuSans-53"/>
      </g>
     </g>
    </g>
    <g id="ytick_4">
     <g id="line2d_10">
      <g>
       <use style="stroke:#000000;stroke-width:0.8;" x="47.72" xlink:href="#m3f872cfd95" y="254.449"/>
      </g>
     </g>
     <g id="text_11">
      <!-- 4.0 -->
      <g transform="translate(24.816875 258.248219)scale(0.1 -0.1)">
       <use xlink:href="#DejaVuSans-52"/>
       <use x="63.623047" xlink:href="#DejaVuSans-46"/>
       <use x="95.410156" xlink:href="#DejaVuSans-48"/>
      </g>
     </g>
    </g>
    <g id="ytick_5">
     <g id="line2d_11">
      <g>
       <use style="stroke:#000000;stroke-width:0.8;" x="47.72" xlink:href="#m3f872cfd95" y="209.252"/>
      </g>
     </g>
     <g id="text_12">
      <!-- 4.5 -->
      <g transform="translate(24.816875 213.051219)scale(0.1 -0.1)">
       <use xlink:href="#DejaVuSans-52"/>
       <use x="63.623047" xlink:href="#DejaVuSans-46"/>
       <use x="95.410156" xlink:href="#DejaVuSans-53"/>
      </g>
     </g>
    </g>
    <g id="ytick_6">
     <g id="line2d_12">
      <g>
       <use style="stroke:#000000;stroke-width:0.8;" x="47.72" xlink:href="#m3f872cfd95" y="164.055"/>
      </g>
     </g>
     <g id="text_13">
      <!-- 5.0 -->
      <g transform="translate(24.816875 167.854219)scale(0.1 -0.1)">
       <use xlink:href="#DejaVuSans-53"/>
       <use x="63.623047" xlink:href="#DejaVuSans-46"/>
       <use x="95.410156" xlink:href="#DejaVuSans-48"/>
      </g>
     </g>
    </g>
    <g id="ytick_7">
     <g id="line2d_13">
      <g>
       <use style="stroke:#000000;stroke-width:0.8;" x="47.72" xlink:href="#m3f872cfd95" y="118.858"/>
      </g>
     </g>
     <g id="text_14">
      <!-- 5.5 -->
      <g transform="translate(24.816875 122.657219)scale(0.1 -0.1)">
       <use xlink:href="#DejaVuSans-53"/>
       <use x="63.623047" xlink:href="#DejaVuSans-46"/>
       <use x="95.410156" xlink:href="#DejaVuSans-53"/>
      </g>
     </g>
    </g>
    <g id="ytick_8">
     <g id="line2d_14">
      <g>
       <use style="stroke:#000000;stroke-width:0.8;" x="47.72" xlink:href="#m3f872cfd95" y="73.661"/>
      </g>
     </g>
     <g id="text_15">
      <!-- 6.0 -->
      <g transform="translate(24.816875 77.460219)scale(0.1 -0.1)">
       <defs>
        <path d="M 33.015625 40.375 
Q 26.375 40.375 22.484375 35.828125 
Q 18.609375 31.296875 18.609375 23.390625 
Q 18.609375 15.53125 22.484375 10.953125 
Q 26.375 6.390625 33.015625 6.390625 
Q 39.65625 6.390625 43.53125 10.953125 
Q 47.40625 15.53125 47.40625 23.390625 
Q 47.40625 31.296875 43.53125 35.828125 
Q 39.65625 40.375 33.015625 40.375 
z
M 52.59375 71.296875 
L 52.59375 62.3125 
Q 48.875 64.0625 45.09375 64.984375 
Q 41.3125 65.921875 37.59375 65.921875 
Q 27.828125 65.921875 22.671875 59.328125 
Q 17.53125 52.734375 16.796875 39.40625 
Q 19.671875 43.65625 24.015625 45.921875 
Q 28.375 48.1875 33.59375 48.1875 
Q 44.578125 48.1875 50.953125 41.515625 
Q 57.328125 34.859375 57.328125 23.390625 
Q 57.328125 12.15625 50.6875 5.359375 
Q 44.046875 -1.421875 33.015625 -1.421875 
Q 20.359375 -1.421875 13.671875 8.265625 
Q 6.984375 17.96875 6.984375 36.375 
Q 6.984375 53.65625 15.1875 63.9375 
Q 23.390625 74.21875 37.203125 74.21875 
Q 40.921875 74.21875 44.703125 73.484375 
Q 48.484375 72.75 52.59375 71.296875 
z
" id="DejaVuSans-54"/>
       </defs>
       <use xlink:href="#DejaVuSans-54"/>
       <use x="63.623047" xlink:href="#DejaVuSans-46"/>
       <use x="95.410156" xlink:href="#DejaVuSans-48"/>
      </g>
     </g>
    </g>
    <g id="ytick_9">
     <g id="line2d_15">
      <g>
       <use style="stroke:#000000;stroke-width:0.8;" x="47.72" xlink:href="#m3f872cfd95" y="28.464"/>
      </g>
     </g>
     <g id="text_16">
      <!-- 6.5 -->
      <g transform="translate(24.816875 32.263219)scale(0.1 -0.1)">
       <use xlink:href="#DejaVuSans-54"/>
       <use x="63.623047" xlink:href="#DejaVuSans-46"/>
       <use x="95.410156" xlink:href="#DejaVuSans-53"/>
      </g>
     </g>
    </g>
    <g id="text_17">
     <!-- ANEES -->
     <g transform="translate(18.737188 225.905906)rotate(-90)scale(0.1 -0.1)">
      <defs>
       <path d="M 34.1875 63.1875 
L 20.796875 26.90625 
L 47.609375 26.90625 
z
M 28.609375 72.90625 
L 39.796875 72.90625 
L 67.578125 0 
L 57.328125 0 
L 50.6875 18.703125 
L 17.828125 18.703125 
L 11.1875 0 
L 0.78125 0 
z
" id="DejaVuSans-65"/>
       <path d="M 9.8125 72.90625 
L 23.09375 72.90625 
L 55.421875 11.921875 
L 55.421875 72.90625 
L 64.984375 72.90625 
L 64.984375 0 
L 51.703125 0 
L 19.390625 60.984375 
L 19.390625 0 
L 9.8125 0 
z
" id="DejaVuSans-78"/>
       <path d="M 9.8125 72.90625 
L 55.90625 72.90625 
L 55.90625 64.59375 
L 19.671875 64.59375 
L 19.671875 43.015625 
L 54.390625 43.015625 
L 54.390625 34.71875 
L 19.671875 34.71875 
L 19.671875 8.296875 
L 56.78125 8.296875 
L 56.78125 0 
L 9.8125 0 
z
" id="DejaVuSans-69"/>
       <path d="M 53.515625 70.515625 
L 53.515625 60.890625 
Q 47.90625 63.578125 42.921875 64.890625 
Q 37.9375 66.21875 33.296875 66.21875 
Q 25.25 66.21875 20.875 63.09375 
Q 16.5 59.96875 16.5 54.203125 
Q 16.5 49.359375 19.40625 46.890625 
Q 22.3125 44.4375 30.421875 42.921875 
L 36.375 41.703125 
Q 47.40625 39.59375 52.65625 34.296875 
Q 57.90625 29 57.90625 20.125 
Q 57.90625 9.515625 50.796875 4.046875 
Q 43.703125 -1.421875 29.984375 -1.421875 
Q 24.8125 -1.421875 18.96875 -0.25 
Q 13.140625 0.921875 6.890625 3.21875 
L 6.890625 13.375 
Q 12.890625 10.015625 18.65625 8.296875 
Q 24.421875 6.59375 29.984375 6.59375 
Q 38.421875 6.59375 43.015625 9.90625 
Q 47.609375 13.234375 47.609375 19.390625 
Q 47.609375 24.75 44.3125 27.78125 
Q 41.015625 30.8125 33.5 32.328125 
L 27.484375 33.5 
Q 16.453125 35.6875 11.515625 40.375 
Q 6.59375 45.0625 6.59375 53.421875 
Q 6.59375 63.09375 13.40625 68.65625 
Q 20.21875 74.21875 32.171875 74.21875 
Q 37.3125 74.21875 42.625 73.28125 
Q 47.953125 72.359375 53.515625 70.515625 
z
" id="DejaVuSans-83"/>
      </defs>
      <use xlink:href="#DejaVuSans-65"/>
      <use x="68.408203" xlink:href="#DejaVuSans-78"/>
      <use x="143.212891" xlink:href="#DejaVuSans-69"/>
      <use x="206.396484" xlink:href="#DejaVuSans-69"/>
      <use x="269.580078" xlink:href="#DejaVuSans-83"/>
     </g>
    </g>
   </g>
   <g id="line2d_16">
    <path clip-path="url(#pe77f1e0dde)" d="M 77.787273 357.709805 
L 78.992374 329.317719 
L 80.197475 316.242562 
L 81.402576 308.304609 
L 82.607677 302.826273 
L 83.812778 298.750605 
L 85.017879 295.564442 
L 86.222981 292.984363 
L 87.428082 290.839294 
L 88.633183 289.019013 
L 89.838284 287.448857 
L 92.248486 284.862753 
L 94.658688 282.805634 
L 97.068891 281.1184 
L 99.479093 279.701838 
L 101.889295 278.490425 
L 105.504598 276.962617 
L 109.119902 275.694492 
L 113.940306 274.296453 
L 118.760711 273.143367 
L 124.786216 271.950894 
L 132.016823 270.783189 
L 140.452531 269.678285 
L 150.093339 268.654858 
L 162.144351 267.626072 
L 176.605564 266.644775 
L 193.476979 265.737586 
L 213.963698 264.868282 
L 239.270822 264.029282 
L 270.603451 263.226598 
L 309.166686 262.470191 
L 357.370731 261.752924 
L 418.830887 261.067836 
L 498.367561 260.413905 
L 602.006256 259.79563 
L 679.132727 259.44295 
L 679.132727 259.44295 
" style="fill:none;stroke:#000000;stroke-linecap:square;stroke-width:1.5;"/>
   </g>
   <g id="line2d_17">
    <path clip-path="url(#pe77f1e0dde)" d="M 77.787273 134.095862 
L 78.992374 171.026316 
L 80.197475 186.951071 
L 81.402576 196.314472 
L 82.607677 202.648283 
L 83.812778 207.294353 
L 85.017879 210.887989 
L 86.222981 213.773695 
L 87.428082 216.156487 
L 88.633183 218.166956 
L 89.838284 219.892725 
L 91.043385 221.395059 
L 93.453587 223.895195 
L 95.863789 225.904917 
L 98.273992 227.565822 
L 100.684194 228.968223 
L 103.094396 230.172784 
L 106.709699 231.698222 
L 110.325003 232.969159 
L 115.145407 234.374725 
L 119.965812 235.537074 
L 125.991317 236.741618 
L 133.221924 237.923214 
L 141.657632 239.042796 
L 151.298441 240.08086 
L 163.349452 241.125096 
L 176.605564 242.046924 
L 193.476979 242.983887 
L 213.963698 243.879516 
L 238.065721 244.70549 
L 268.193248 245.509014 
L 305.551383 246.274962 
L 352.550326 247.007112 
L 412.805382 247.710018 
L 489.931853 248.373865 
L 589.955245 249.000017 
L 679.132727 249.420803 
L 679.132727 249.420803 
" style="fill:none;stroke:#000000;stroke-linecap:square;stroke-width:1.5;"/>
   </g>
   <g id="line2d_18">
    <path clip-path="url(#pe77f1e0dde)" d="M 77.787273 114.214156 
L 78.992374 180.632614 
L 80.197475 157.872007 
L 81.402576 150.037559 
L 82.607677 149.798116 
L 83.812778 147.985256 
L 85.017879 137.00491 
L 86.222981 152.315131 
L 87.428082 142.037265 
L 88.633183 138.79321 
L 89.838284 139.906297 
L 91.043385 152.691218 
L 92.248486 142.364055 
L 93.453587 147.222771 
L 94.658688 139.854679 
L 95.863789 139.010081 
L 97.068891 141.20173 
L 98.273992 125.824478 
L 99.479093 126.931278 
L 100.684194 136.236832 
L 101.889295 136.943335 
L 103.094396 135.676149 
L 104.299497 133.431959 
L 106.709699 137.646014 
L 107.914801 131.784187 
L 109.119902 128.141861 
L 110.325003 133.757645 
L 111.530104 132.365628 
L 112.735205 128.534646 
L 113.940306 126.476796 
L 115.145407 118.531235 
L 116.350508 120.954323 
L 117.555609 120.189726 
L 118.760711 124.138935 
L 119.965812 118.236661 
L 121.170913 114.910002 
L 122.376014 113.784538 
L 124.786216 111.995464 
L 125.991317 115.616365 
L 127.196418 117.909445 
L 128.401519 122.499427 
L 129.606621 124.185698 
L 130.811722 122.160786 
L 132.016823 122.143433 
L 133.221924 117.165548 
L 134.427025 117.100099 
L 135.632126 119.430604 
L 136.837227 118.483467 
L 138.042328 113.380808 
L 139.247429 115.005212 
L 140.452531 119.782694 
L 141.657632 118.063749 
L 142.862733 119.75166 
L 144.067834 119.67948 
L 145.272935 120.060377 
L 146.478036 116.420088 
L 147.683137 117.94475 
L 148.888238 112.424267 
L 150.093339 111.162472 
L 151.298441 109.702507 
L 152.503542 109.878011 
L 153.708643 109.740161 
L 154.913744 106.214228 
L 156.118845 107.784873 
L 157.323946 108.494247 
L 158.529047 108.08212 
L 159.734148 106.420699 
L 160.939249 107.11862 
L 162.144351 107.649728 
L 163.349452 109.681317 
L 164.554553 109.510929 
L 165.759654 108.674245 
L 166.964755 110.952132 
L 168.169856 111.043568 
L 169.374957 112.957391 
L 170.580058 112.016218 
L 171.785159 111.784925 
L 172.990261 110.43799 
L 174.195362 109.33053 
L 175.400463 110.753179 
L 176.605564 110.913698 
L 177.810665 113.548359 
L 179.015766 112.960806 
L 180.220867 114.396522 
L 181.425968 114.956179 
L 182.631069 117.372099 
L 183.836171 116.483858 
L 185.041272 117.542821 
L 186.246373 114.973324 
L 187.451474 112.029154 
L 188.656575 113.678833 
L 189.861676 113.369689 
L 193.476979 117.081209 
L 194.682081 118.494826 
L 195.887182 119.542867 
L 197.092283 121.240843 
L 198.297384 121.677809 
L 199.502485 122.341908 
L 200.707586 118.513035 
L 201.912687 117.25249 
L 203.117788 118.101376 
L 204.322889 118.547648 
L 205.527991 119.216523 
L 206.733092 117.968758 
L 207.938193 117.107972 
L 209.143294 117.381704 
L 210.348395 118.423921 
L 211.553496 118.265984 
L 212.758597 120.285884 
L 213.963698 119.052844 
L 215.168799 119.413786 
L 216.373901 120.076916 
L 217.579002 120.322547 
L 218.784103 121.589871 
L 219.989204 119.888178 
L 221.194305 120.089963 
L 222.399406 119.973386 
L 223.604507 119.387163 
L 224.809608 119.373028 
L 226.014709 118.978129 
L 227.219811 120.61487 
L 228.424912 121.374367 
L 229.630013 121.175104 
L 232.040215 123.596695 
L 233.245316 123.808788 
L 235.655518 123.728488 
L 236.860619 122.94427 
L 238.065721 123.804451 
L 239.270822 124.072228 
L 240.475923 125.546119 
L 241.681024 126.685936 
L 242.886125 126.473595 
L 244.091226 123.779428 
L 245.296327 122.465678 
L 246.501428 122.689235 
L 247.706529 122.45865 
L 248.911631 120.742603 
L 250.116732 119.77826 
L 251.321833 120.773075 
L 252.526934 121.993194 
L 253.732035 122.532647 
L 254.937136 122.416174 
L 256.142237 121.160659 
L 257.347338 121.067245 
L 259.757541 120.325918 
L 260.962642 120.795986 
L 262.167743 121.743966 
L 263.372844 121.825315 
L 264.577945 122.18613 
L 265.783046 121.376094 
L 266.988147 122.001592 
L 268.193248 121.377091 
L 269.398349 121.483774 
L 270.603451 121.829303 
L 271.808552 121.057423 
L 273.013653 121.431002 
L 274.218754 122.014721 
L 275.423855 122.096572 
L 276.628956 121.891589 
L 277.834057 122.28406 
L 279.039158 122.196167 
L 280.244259 121.36512 
L 281.449361 121.183819 
L 282.654462 120.826327 
L 283.859563 122.280812 
L 285.064664 122.088451 
L 286.269765 121.740914 
L 287.474866 122.683044 
L 288.679967 122.548968 
L 289.885068 123.070666 
L 291.090169 123.123064 
L 292.295271 123.671026 
L 293.500372 122.309585 
L 294.705473 122.841157 
L 295.910574 123.891898 
L 297.115675 123.90529 
L 298.320776 124.50268 
L 299.525877 122.773021 
L 301.936079 123.186026 
L 303.141181 122.950668 
L 304.346282 123.231627 
L 305.551383 123.248052 
L 306.756484 122.402388 
L 307.961585 122.269939 
L 309.166686 121.922698 
L 311.576888 122.475164 
L 312.781989 121.815483 
L 313.987091 121.963622 
L 315.192192 121.433386 
L 316.397293 121.402094 
L 317.602394 121.703403 
L 318.807495 121.632641 
L 320.012596 122.25113 
L 321.217697 122.652915 
L 322.422798 120.847407 
L 323.627899 120.58103 
L 324.833001 120.754959 
L 326.038102 120.53885 
L 327.243203 120.641575 
L 328.448304 120.528253 
L 329.653405 120.939454 
L 330.858506 120.975137 
L 333.268708 122.731703 
L 336.884012 123.760654 
L 339.294214 123.294653 
L 341.704416 123.731333 
L 342.909517 124.132888 
L 344.114618 122.893827 
L 345.319719 123.189089 
L 346.524821 123.301167 
L 347.729922 122.148579 
L 348.935023 121.670155 
L 350.140124 122.137735 
L 352.550326 121.573684 
L 353.755427 122.090517 
L 354.960528 121.940684 
L 356.165629 121.378135 
L 357.370731 121.702191 
L 358.575832 121.617824 
L 359.780933 120.133865 
L 360.986034 120.825634 
L 362.191135 120.790409 
L 363.396236 121.434156 
L 364.601337 121.550507 
L 365.806438 120.475386 
L 367.011539 119.023709 
L 368.216641 118.782163 
L 369.421742 117.856374 
L 370.626843 117.435866 
L 373.037045 117.396646 
L 374.242146 116.647359 
L 375.447247 117.131717 
L 377.857449 117.638302 
L 379.062551 117.7337 
L 380.267652 117.197632 
L 381.472753 117.162091 
L 382.677854 117.798321 
L 383.882955 117.48818 
L 386.293157 117.38197 
L 387.498258 116.567976 
L 388.703359 115.590437 
L 389.908461 116.532841 
L 391.113562 116.753338 
L 392.318663 116.524541 
L 393.523764 117.201491 
L 394.728865 116.831925 
L 395.933966 116.702231 
L 397.139067 115.727128 
L 399.549269 116.826165 
L 400.754371 116.67981 
L 401.959472 117.118118 
L 403.164573 117.837267 
L 406.779876 117.859262 
L 407.984977 118.198496 
L 409.190078 117.12772 
L 410.395179 117.5948 
L 411.600281 116.817923 
L 412.805382 116.944165 
L 414.010483 115.933803 
L 415.215584 115.968073 
L 416.420685 115.411321 
L 417.625786 115.886123 
L 418.830887 115.944994 
L 420.035988 115.865708 
L 421.241089 114.57182 
L 422.446191 114.194855 
L 423.651292 114.390596 
L 424.856393 114.27616 
L 426.061494 114.923008 
L 428.471696 114.955013 
L 429.676797 114.128761 
L 430.881898 114.871237 
L 432.086999 114.347649 
L 433.292101 113.474205 
L 434.497202 113.522127 
L 435.702303 112.926859 
L 436.907404 112.587933 
L 438.112505 112.477153 
L 439.317606 112.81566 
L 440.522707 112.869198 
L 441.727808 112.534329 
L 442.932909 112.668259 
L 444.138011 112.273742 
L 445.343112 112.30438 
L 446.548213 111.673979 
L 447.753314 111.351439 
L 448.958415 112.105368 
L 450.163516 112.245331 
L 451.368617 111.97038 
L 453.778819 112.094617 
L 454.983921 112.598002 
L 456.189022 112.751863 
L 457.394123 111.85541 
L 458.599224 112.490133 
L 459.804325 112.355419 
L 461.009426 112.06911 
L 462.214527 112.373569 
L 463.419628 112.496404 
L 468.240033 113.97444 
L 470.650235 114.090119 
L 471.855336 114.102516 
L 473.060437 114.324395 
L 474.265538 113.843198 
L 477.880842 114.885212 
L 480.291044 115.317374 
L 481.496145 115.820815 
L 482.701246 115.736786 
L 483.906347 115.538713 
L 485.111448 115.908092 
L 486.316549 116.074427 
L 487.521651 115.726378 
L 488.726752 115.63452 
L 489.931853 115.35327 
L 491.136954 115.753168 
L 492.342055 115.98436 
L 493.547156 116.451659 
L 494.752257 116.401286 
L 497.162459 116.727082 
L 498.367561 116.492215 
L 500.777763 116.315237 
L 501.982864 116.482292 
L 503.187965 116.1267 
L 504.393066 116.415363 
L 505.598167 116.193181 
L 506.803268 116.112263 
L 508.008369 115.175097 
L 509.213471 115.111212 
L 510.418572 114.907028 
L 511.623673 115.17068 
L 512.828774 114.813839 
L 514.033875 114.819648 
L 515.238976 115.221381 
L 516.444077 115.408028 
L 517.649178 115.850466 
L 518.854279 115.240937 
L 520.059381 115.098256 
L 521.264482 115.21752 
L 522.469583 114.218874 
L 523.674684 114.035638 
L 524.879785 114.005523 
L 526.084886 114.382 
L 527.289987 114.358074 
L 528.495088 114.585529 
L 530.905291 114.12804 
L 532.110392 113.467462 
L 533.315493 113.380751 
L 534.520594 113.584441 
L 535.725695 113.592452 
L 536.930796 112.927998 
L 539.340998 112.941804 
L 540.546099 112.671482 
L 541.751201 112.693784 
L 544.161403 112.302846 
L 545.366504 112.394587 
L 546.571605 112.217099 
L 547.776706 112.589465 
L 548.981807 112.360228 
L 550.186908 112.702864 
L 551.392009 112.366785 
L 552.597111 112.451398 
L 553.802212 112.2996 
L 556.212414 112.318708 
L 557.417515 112.715057 
L 559.827717 112.052563 
L 561.032818 112.289629 
L 562.237919 112.10359 
L 563.443021 111.799776 
L 564.648122 111.735077 
L 567.058324 112.573258 
L 568.263425 112.175893 
L 570.673627 112.518579 
L 571.878728 112.039277 
L 573.083829 112.499515 
L 574.288931 111.527926 
L 575.494032 110.741208 
L 576.699133 111.081585 
L 577.904234 110.772837 
L 579.109335 111.08818 
L 581.519537 111.260375 
L 583.929739 111.798159 
L 585.134841 111.78429 
L 586.339942 111.600921 
L 587.545043 111.172281 
L 588.750144 111.123533 
L 589.955245 111.522414 
L 591.160346 111.122805 
L 592.365447 111.326476 
L 593.570548 111.658959 
L 594.775649 111.439753 
L 597.185852 111.852332 
L 598.390953 112.198767 
L 599.596054 112.361577 
L 602.006256 113.088567 
L 604.416458 112.933101 
L 606.826661 113.46556 
L 608.031762 113.827957 
L 610.441964 113.286765 
L 611.647065 112.819862 
L 612.852166 112.801611 
L 614.057267 113.143587 
L 615.262368 112.936667 
L 616.467469 113.060971 
L 617.672571 113.461168 
L 618.877672 113.089403 
L 620.082773 113.11822 
L 621.287874 112.629109 
L 622.492975 112.695902 
L 623.698076 112.524513 
L 624.903177 112.044662 
L 627.313379 112.644484 
L 628.518481 112.78348 
L 629.723582 112.609249 
L 630.928683 112.696775 
L 632.133784 112.131126 
L 633.338885 112.399456 
L 634.543986 112.538476 
L 635.749087 112.223508 
L 636.954188 111.718164 
L 638.159289 111.070151 
L 640.569492 110.450681 
L 641.774593 110.996992 
L 642.979694 110.970287 
L 644.184795 111.064772 
L 645.389896 110.848567 
L 646.594997 111.010823 
L 649.005199 111.150602 
L 650.210301 110.888992 
L 652.620503 110.658757 
L 653.825604 110.720256 
L 655.030705 110.667055 
L 657.440907 111.494275 
L 658.646008 111.135033 
L 659.851109 110.897886 
L 661.056211 111.194956 
L 662.261312 111.252424 
L 663.466413 111.181955 
L 664.671514 111.262685 
L 667.081716 110.831441 
L 668.286817 111.203812 
L 669.491918 110.736316 
L 670.697019 110.739022 
L 671.902121 110.58284 
L 673.107222 110.902285 
L 674.312323 110.582533 
L 675.517424 110.597579 
L 676.722525 110.91407 
L 677.927626 110.624302 
L 679.132727 110.800791 
L 679.132727 110.800791 
" style="fill:none;stroke:#0000ff;stroke-linecap:square;stroke-width:1.5;"/>
   </g>
   <g id="line2d_19">
    <path clip-path="url(#pe77f1e0dde)" d="M 77.787273 263.959879 
L 78.992374 314.162687 
L 80.197475 306.251286 
L 81.402576 307.183032 
L 82.607677 305.873525 
L 83.812778 301.291672 
L 85.017879 291.951207 
L 86.222981 300.771082 
L 87.428082 295.215791 
L 88.633183 295.990891 
L 89.838284 296.115243 
L 91.043385 304.80123 
L 92.248486 299.990114 
L 93.453587 303.212367 
L 94.658688 298.919387 
L 95.863789 296.857549 
L 97.068891 297.03055 
L 98.273992 284.680657 
L 99.479093 284.516524 
L 100.684194 289.514542 
L 101.889295 290.033579 
L 103.094396 289.53132 
L 104.299497 288.220556 
L 105.504598 288.37151 
L 106.709699 289.475063 
L 107.914801 286.007794 
L 109.119902 283.991705 
L 110.325003 287.855122 
L 111.530104 287.051959 
L 112.735205 285.165102 
L 113.940306 284.39339 
L 115.145407 277.330991 
L 116.350508 279.237523 
L 117.555609 279.29669 
L 118.760711 282.126069 
L 119.965812 278.618509 
L 121.170913 275.906151 
L 123.581115 274.823456 
L 124.786216 274.776325 
L 125.991317 277.208971 
L 127.196418 278.701488 
L 128.401519 281.813053 
L 129.606621 282.630312 
L 130.811722 281.161437 
L 132.016823 281.109973 
L 133.221924 278.162064 
L 134.427025 278.384274 
L 135.632126 279.73573 
L 136.837227 278.914929 
L 138.042328 275.231662 
L 139.247429 276.606163 
L 140.452531 279.727706 
L 141.657632 278.973751 
L 142.862733 280.510672 
L 144.067834 280.335627 
L 145.272935 280.752337 
L 146.478036 277.879002 
L 147.683137 278.979988 
L 148.888238 275.008993 
L 150.093339 274.55368 
L 151.298441 273.458029 
L 152.503542 273.695041 
L 153.708643 273.749873 
L 154.913744 270.875344 
L 156.118845 271.623191 
L 157.323946 272.107557 
L 158.529047 271.846299 
L 159.734148 270.585212 
L 160.939249 270.842362 
L 162.144351 270.834948 
L 163.349452 272.079989 
L 164.554553 272.115387 
L 165.759654 271.247228 
L 166.964755 272.715294 
L 168.169856 272.921974 
L 169.374957 274.0463 
L 170.580058 273.507062 
L 171.785159 273.391524 
L 172.990261 272.113942 
L 174.195362 270.601482 
L 175.400463 271.537507 
L 176.605564 271.535892 
L 177.810665 273.213522 
L 179.015766 272.651523 
L 180.220867 273.510191 
L 181.425968 273.829726 
L 182.631069 275.435268 
L 183.836171 274.759208 
L 185.041272 275.337286 
L 186.246373 273.587135 
L 187.451474 271.44641 
L 188.656575 272.71738 
L 189.861676 272.755401 
L 195.887182 276.734378 
L 197.092283 277.950826 
L 199.502485 278.94681 
L 200.707586 276.67039 
L 201.912687 275.74488 
L 203.117788 276.349357 
L 204.322889 276.36276 
L 205.527991 276.907465 
L 206.733092 276.04013 
L 207.938193 274.987196 
L 209.143294 274.977516 
L 210.348395 275.5607 
L 211.553496 275.270591 
L 212.758597 276.698014 
L 213.963698 275.811678 
L 215.168799 276.22996 
L 216.373901 276.468509 
L 217.579002 276.546818 
L 218.784103 277.45823 
L 219.989204 276.532715 
L 221.194305 276.73375 
L 222.399406 276.523644 
L 223.604507 276.069976 
L 224.809608 276.208731 
L 226.014709 276.104102 
L 227.219811 277.106975 
L 228.424912 277.791865 
L 229.630013 277.684863 
L 232.040215 279.335294 
L 233.245316 279.298148 
L 234.450417 279.007417 
L 235.655518 279.002673 
L 236.860619 278.515901 
L 238.065721 279.212547 
L 239.270822 279.11418 
L 240.475923 280.152654 
L 241.681024 280.901558 
L 242.886125 280.761827 
L 244.091226 278.629319 
L 245.296327 277.783223 
L 246.501428 277.906442 
L 247.706529 277.836239 
L 248.911631 276.899366 
L 250.116732 276.37433 
L 251.321833 276.848539 
L 252.526934 277.771226 
L 253.732035 278.231297 
L 254.937136 277.969121 
L 256.142237 277.039081 
L 257.347338 276.939178 
L 258.552439 276.592754 
L 259.757541 276.483486 
L 260.962642 276.699282 
L 262.167743 277.389614 
L 263.372844 277.538895 
L 264.577945 277.534703 
L 265.783046 277.049814 
L 266.988147 277.480716 
L 268.193248 277.111057 
L 269.398349 276.993146 
L 270.603451 277.329524 
L 271.808552 276.741694 
L 273.013653 277.020812 
L 274.218754 277.572266 
L 275.423855 277.512556 
L 276.628956 277.288164 
L 279.039158 277.531371 
L 280.244259 277.046993 
L 281.449361 277.09695 
L 282.654462 276.822355 
L 283.859563 277.787822 
L 286.269765 277.290926 
L 287.474866 277.894669 
L 288.679967 277.946777 
L 289.885068 278.255176 
L 291.090169 278.416692 
L 292.295271 278.742659 
L 293.500372 277.889264 
L 294.705473 278.271974 
L 295.910574 278.85564 
L 297.115675 278.939077 
L 298.320776 279.267472 
L 299.525877 278.212724 
L 300.730978 278.403802 
L 301.936079 278.389865 
L 303.141181 278.226973 
L 304.346282 278.44322 
L 305.551383 278.531695 
L 306.756484 278.073675 
L 309.166686 277.838459 
L 311.576888 278.342377 
L 312.781989 277.827843 
L 313.987091 278.087609 
L 315.192192 277.795848 
L 316.397293 277.620186 
L 317.602394 277.718448 
L 318.807495 277.677675 
L 320.012596 278.157469 
L 321.217697 278.386782 
L 322.422798 277.157124 
L 323.627899 277.12051 
L 324.833001 277.345537 
L 326.038102 277.207743 
L 327.243203 277.239823 
L 328.448304 277.039393 
L 329.653405 277.345628 
L 330.858506 277.373142 
L 333.268708 278.427108 
L 335.678911 278.752484 
L 336.884012 278.979526 
L 338.089113 278.910872 
L 339.294214 278.612465 
L 341.704416 278.845057 
L 342.909517 279.16542 
L 344.114618 278.074535 
L 346.524821 278.496321 
L 347.729922 277.814093 
L 348.935023 277.375849 
L 350.140124 277.770574 
L 352.550326 277.439589 
L 353.755427 277.681504 
L 354.960528 277.660899 
L 356.165629 277.132827 
L 357.370731 277.357941 
L 358.575832 277.284565 
L 359.780933 276.338218 
L 360.986034 276.725417 
L 362.191135 276.721538 
L 363.396236 277.114983 
L 364.601337 277.133074 
L 365.806438 276.395158 
L 367.011539 275.426122 
L 368.216641 275.18318 
L 369.421742 274.613024 
L 370.626843 274.235777 
L 373.037045 274.249547 
L 374.242146 273.834824 
L 377.857449 274.549122 
L 379.062551 274.542208 
L 380.267652 274.320259 
L 381.472753 274.318147 
L 382.677854 274.844321 
L 385.088056 274.614613 
L 386.293157 274.570497 
L 388.703359 273.238808 
L 389.908461 273.888803 
L 391.113562 274.077255 
L 392.318663 273.886285 
L 393.523764 274.243253 
L 394.728865 273.923501 
L 395.933966 273.912284 
L 397.139067 273.182219 
L 399.549269 273.930399 
L 400.754371 273.898107 
L 401.959472 274.189691 
L 403.164573 274.696626 
L 405.574775 274.541511 
L 406.779876 274.476589 
L 407.984977 274.675983 
L 409.190078 274.049758 
L 410.395179 274.318178 
L 411.600281 273.819291 
L 412.805382 273.785261 
L 414.010483 273.146731 
L 415.215584 273.133125 
L 416.420685 272.536126 
L 417.625786 272.907167 
L 420.035988 272.883688 
L 421.241089 271.922196 
L 422.446191 271.675875 
L 423.651292 271.772633 
L 424.856393 271.715436 
L 426.061494 272.067913 
L 428.471696 272.115374 
L 429.676797 271.697064 
L 430.881898 272.165046 
L 433.292101 271.33227 
L 434.497202 271.44042 
L 435.702303 271.121254 
L 438.112505 270.85291 
L 439.317606 271.121565 
L 440.522707 271.219406 
L 441.727808 270.983329 
L 442.932909 271.066537 
L 444.138011 270.803031 
L 445.343112 270.82935 
L 446.548213 270.375204 
L 447.753314 270.188827 
L 448.958415 270.699362 
L 450.163516 270.81787 
L 451.368617 270.626506 
L 452.573718 270.599326 
L 453.778819 270.698928 
L 454.983921 271.050311 
L 456.189022 271.211128 
L 457.394123 270.69344 
L 458.599224 271.107405 
L 461.009426 270.888206 
L 462.214527 271.078696 
L 463.419628 271.093927 
L 468.240033 272.145771 
L 473.060437 272.461093 
L 474.265538 272.116442 
L 477.880842 272.920865 
L 480.291044 273.136244 
L 481.496145 273.501137 
L 483.906347 273.418869 
L 485.111448 273.723512 
L 486.316549 273.79292 
L 487.521651 273.564022 
L 488.726752 273.615471 
L 489.931853 273.389521 
L 493.547156 274.200681 
L 497.162459 274.497435 
L 498.367561 274.244535 
L 500.777763 274.118429 
L 501.982864 274.269949 
L 503.187965 274.055598 
L 504.393066 274.216371 
L 505.598167 274.023146 
L 506.803268 274.031473 
L 508.008369 273.557371 
L 510.418572 273.427505 
L 511.623673 273.600833 
L 512.828774 273.360426 
L 514.033875 273.292618 
L 515.238976 273.590372 
L 517.649178 273.98984 
L 518.854279 273.657986 
L 521.264482 273.671844 
L 522.469583 273.057543 
L 523.674684 272.847592 
L 524.879785 272.871928 
L 526.084886 273.047483 
L 527.289987 273.044455 
L 528.495088 273.260034 
L 529.700189 273.151414 
L 530.905291 272.889552 
L 532.110392 272.416304 
L 533.315493 272.287314 
L 535.725695 272.427252 
L 536.930796 271.938281 
L 541.751201 271.70445 
L 544.161403 271.429442 
L 545.366504 271.508556 
L 546.571605 271.392745 
L 547.776706 271.663444 
L 548.981807 271.509502 
L 550.186908 271.743303 
L 551.392009 271.462125 
L 552.597111 271.507126 
L 555.007313 271.262281 
L 556.212414 271.297118 
L 557.417515 271.585307 
L 559.827717 271.303737 
L 561.032818 271.461875 
L 564.648122 271.011535 
L 567.058324 271.558451 
L 568.263425 271.370915 
L 570.673627 271.549891 
L 571.878728 271.278176 
L 573.083829 271.605816 
L 574.288931 270.936906 
L 575.494032 270.465931 
L 576.699133 270.626109 
L 577.904234 270.368016 
L 579.109335 270.578596 
L 581.519537 270.724782 
L 583.929739 271.136261 
L 586.339942 271.093651 
L 587.545043 270.709789 
L 588.750144 270.682029 
L 589.955245 270.962004 
L 591.160346 270.706745 
L 593.570548 271.11072 
L 594.775649 270.916689 
L 598.390953 271.465471 
L 599.596054 271.552163 
L 602.006256 272.098859 
L 604.416458 272.032714 
L 606.826661 272.312151 
L 608.031762 272.572109 
L 609.236863 272.450249 
L 610.441964 272.194194 
L 611.647065 271.742649 
L 612.852166 271.695753 
L 614.057267 271.93373 
L 615.262368 271.885272 
L 616.467469 271.967721 
L 617.672571 272.246991 
L 618.877672 272.092095 
L 620.082773 272.154063 
L 621.287874 271.80548 
L 622.492975 271.823291 
L 623.698076 271.682964 
L 624.903177 271.295734 
L 627.313379 271.710215 
L 628.518481 271.771128 
L 629.723582 271.590022 
L 630.928683 271.642456 
L 632.133784 271.311151 
L 633.338885 271.474119 
L 634.543986 271.519174 
L 635.749087 271.233994 
L 636.954188 270.830967 
L 638.159289 270.253621 
L 640.569492 269.907162 
L 641.774593 270.256264 
L 645.389896 270.206015 
L 649.005199 270.491931 
L 650.210301 270.302188 
L 655.030705 270.323364 
L 657.440907 270.901059 
L 659.851109 270.47974 
L 661.056211 270.680096 
L 662.261312 270.724808 
L 663.466413 270.645603 
L 664.671514 270.714915 
L 667.081716 270.427753 
L 668.286817 270.673819 
L 669.491918 270.411907 
L 671.902121 270.294937 
L 673.107222 270.492171 
L 674.312323 270.241135 
L 675.517424 270.266487 
L 676.722525 270.48879 
L 677.927626 270.366138 
L 679.132727 270.45204 
L 679.132727 270.45204 
" style="fill:none;stroke:#ff0000;stroke-linecap:square;stroke-width:1.5;"/>
   </g>
   <g id="line2d_20">
    <path clip-path="url(#pe77f1e0dde)" d="M 77.787273 261.300779 
L 78.992374 312.387924 
L 80.197475 290.968874 
L 81.402576 304.994262 
L 82.607677 304.592471 
L 83.812778 302.006743 
L 85.017879 289.617962 
L 86.222981 299.171825 
L 87.428082 294.907006 
L 88.633183 293.96334 
L 89.838284 292.095808 
L 91.043385 301.320398 
L 92.248486 296.121134 
L 93.453587 299.139697 
L 94.658688 294.767143 
L 95.863789 291.073726 
L 97.068891 291.190434 
L 98.273992 278.675587 
L 99.479093 279.186111 
L 100.684194 283.982527 
L 101.889295 284.711035 
L 103.094396 282.734528 
L 104.299497 281.807704 
L 105.504598 281.152468 
L 106.709699 282.220846 
L 107.914801 279.330687 
L 109.119902 278.349185 
L 110.325003 281.719512 
L 111.530104 280.596456 
L 112.735205 279.73214 
L 113.940306 279.546477 
L 115.145407 273.033837 
L 116.350508 275.011079 
L 117.555609 274.455598 
L 118.760711 276.991824 
L 119.965812 274.033691 
L 121.170913 270.639684 
L 123.581115 269.554227 
L 124.786216 269.214904 
L 125.991317 271.292512 
L 127.196418 273.142297 
L 128.401519 276.142117 
L 129.606621 276.900458 
L 130.811722 275.805534 
L 132.016823 276.467039 
L 133.221924 273.298358 
L 134.427025 273.521176 
L 135.632126 275.077952 
L 136.837227 274.605021 
L 138.042328 270.400678 
L 139.247429 272.112419 
L 140.452531 275.359772 
L 141.657632 274.17104 
L 142.862733 275.19848 
L 144.067834 274.864902 
L 145.272935 275.305865 
L 146.478036 272.743497 
L 147.683137 273.672813 
L 148.888238 268.934245 
L 150.093339 268.500214 
L 151.298441 267.6493 
L 153.708643 268.826619 
L 154.913744 266.366095 
L 156.118845 267.3315 
L 157.323946 268.075072 
L 158.529047 268.160682 
L 159.734148 266.886197 
L 160.939249 267.001637 
L 162.144351 266.991941 
L 163.349452 268.236726 
L 164.554553 268.530734 
L 165.759654 267.650785 
L 166.964755 269.059231 
L 168.169856 269.291937 
L 169.374957 270.228771 
L 170.580058 269.777819 
L 171.785159 269.681735 
L 172.990261 268.636427 
L 174.195362 267.16389 
L 175.400463 268.234909 
L 176.605564 268.144143 
L 177.810665 269.516156 
L 179.015766 269.205623 
L 180.220867 269.878587 
L 181.425968 270.044312 
L 182.631069 271.385034 
L 183.836171 271.05707 
L 185.041272 272.091138 
L 187.451474 268.732771 
L 188.656575 269.855763 
L 189.861676 270.031065 
L 191.066777 271.083345 
L 192.271878 271.570016 
L 194.682081 273.319398 
L 195.887182 273.63537 
L 197.092283 274.836371 
L 199.502485 275.99514 
L 200.707586 274.14251 
L 201.912687 273.276822 
L 203.117788 274.104257 
L 204.322889 274.045996 
L 205.527991 274.419648 
L 207.938193 272.241826 
L 209.143294 272.226422 
L 210.348395 272.465888 
L 211.553496 272.264101 
L 212.758597 273.521926 
L 213.963698 272.577256 
L 215.168799 273.08518 
L 216.373901 272.793519 
L 217.579002 272.794903 
L 218.784103 273.885511 
L 219.989204 272.960565 
L 221.194305 273.067069 
L 222.399406 273.055666 
L 223.604507 272.817492 
L 226.014709 272.790516 
L 227.219811 273.664646 
L 228.424912 274.308053 
L 229.630013 274.10329 
L 232.040215 275.868663 
L 233.245316 275.852054 
L 234.450417 275.620216 
L 235.655518 275.513049 
L 236.860619 275.15664 
L 238.065721 275.734251 
L 239.270822 275.341318 
L 240.475923 276.354092 
L 241.681024 277.101313 
L 242.886125 276.937566 
L 244.091226 275.03401 
L 245.296327 274.002303 
L 246.501428 273.970815 
L 247.706529 273.702244 
L 248.911631 273.037405 
L 250.116732 272.54467 
L 251.321833 272.773043 
L 252.526934 273.744122 
L 253.732035 274.188468 
L 254.937136 274.187222 
L 256.142237 273.374835 
L 257.347338 273.301665 
L 258.552439 272.727268 
L 259.757541 272.660209 
L 260.962642 272.91183 
L 262.167743 273.568957 
L 263.372844 273.721091 
L 264.577945 273.539436 
L 265.783046 273.16606 
L 266.988147 273.470951 
L 268.193248 273.418934 
L 269.398349 273.235408 
L 270.603451 273.609286 
L 271.808552 272.849705 
L 273.013653 273.082866 
L 274.218754 273.600629 
L 277.834057 273.333703 
L 279.039158 273.463402 
L 280.244259 273.298413 
L 281.449361 273.334378 
L 282.654462 273.079807 
L 283.859563 274.033038 
L 286.269765 273.678727 
L 287.474866 274.329901 
L 288.679967 274.483514 
L 289.885068 274.9546 
L 291.090169 275.028224 
L 292.295271 275.331707 
L 293.500372 274.840033 
L 294.705473 275.14567 
L 295.910574 275.710577 
L 297.115675 275.585342 
L 298.320776 275.896534 
L 299.525877 274.890801 
L 300.730978 275.030373 
L 303.141181 274.894081 
L 304.346282 275.138986 
L 305.551383 275.203128 
L 306.756484 274.818404 
L 307.961585 274.643805 
L 309.166686 274.628732 
L 310.371787 274.887641 
L 311.576888 275.289726 
L 312.781989 274.740631 
L 313.987091 275.080316 
L 315.192192 274.805108 
L 316.397293 274.707234 
L 318.807495 274.943779 
L 320.012596 275.336617 
L 321.217697 275.582412 
L 322.422798 274.43608 
L 323.627899 274.452624 
L 324.833001 274.808374 
L 327.243203 274.948427 
L 328.448304 274.63354 
L 329.653405 274.986659 
L 330.858506 274.950569 
L 333.268708 275.925586 
L 334.473809 275.962232 
L 338.089113 276.41709 
L 339.294214 276.149782 
L 340.499315 276.335843 
L 341.704416 276.304263 
L 342.909517 276.704064 
L 344.114618 275.744137 
L 345.319719 275.876739 
L 346.524821 276.130142 
L 348.935023 274.949608 
L 350.140124 275.342382 
L 351.345225 275.044438 
L 352.550326 275.039931 
L 354.960528 275.333036 
L 356.165629 274.821508 
L 357.370731 275.034796 
L 358.575832 274.919286 
L 359.780933 274.081288 
L 360.986034 274.420551 
L 362.191135 274.370158 
L 363.396236 274.687673 
L 364.601337 274.747414 
L 365.806438 274.134763 
L 367.011539 273.276036 
L 368.216641 273.014144 
L 369.421742 272.447699 
L 370.626843 272.071797 
L 373.037045 272.225342 
L 374.242146 271.935666 
L 377.857449 272.46047 
L 379.062551 272.357379 
L 380.267652 272.040979 
L 381.472753 271.960421 
L 382.677854 272.509511 
L 385.088056 272.465004 
L 386.293157 272.381627 
L 388.703359 271.087919 
L 389.908461 271.654764 
L 391.113562 271.835534 
L 392.318663 271.782867 
L 393.523764 272.113144 
L 394.728865 271.938875 
L 395.933966 272.022796 
L 397.139067 271.35974 
L 399.549269 271.960495 
L 400.754371 271.926399 
L 401.959472 272.151491 
L 403.164573 272.614647 
L 404.369674 272.447567 
L 405.574775 272.531409 
L 406.779876 272.424979 
L 407.984977 272.641864 
L 409.190078 272.136486 
L 410.395179 272.317525 
L 411.600281 271.938372 
L 412.805382 271.855406 
L 414.010483 271.311279 
L 415.215584 271.358424 
L 416.420685 270.82783 
L 417.625786 271.197182 
L 420.035988 271.180479 
L 421.241089 270.379375 
L 422.446191 270.091386 
L 423.651292 270.191369 
L 424.856393 270.128018 
L 426.061494 270.459889 
L 428.471696 270.478596 
L 429.676797 270.205238 
L 430.881898 270.639946 
L 433.292101 270.124675 
L 434.497202 270.308116 
L 436.907404 269.85288 
L 438.112505 269.742926 
L 439.317606 269.9975 
L 440.522707 270.042236 
L 441.727808 269.761121 
L 442.932909 269.855225 
L 444.138011 269.623058 
L 445.343112 269.592423 
L 446.548213 269.2441 
L 447.753314 269.103965 
L 448.958415 269.580258 
L 450.163516 269.686211 
L 451.368617 269.550517 
L 453.778819 269.676654 
L 454.983921 270.030417 
L 456.189022 270.094299 
L 457.394123 269.660226 
L 458.599224 270.00662 
L 464.624729 270.345756 
L 469.445134 271.20975 
L 473.060437 271.462698 
L 474.265538 271.109687 
L 476.675741 271.635525 
L 480.291044 272.069129 
L 481.496145 272.395175 
L 482.701246 272.356426 
L 486.316549 272.75337 
L 487.521651 272.66764 
L 488.726752 272.738007 
L 489.931853 272.490363 
L 492.342055 272.909022 
L 493.547156 273.224316 
L 497.162459 273.476943 
L 498.367561 273.175905 
L 500.777763 273.055009 
L 501.982864 273.187251 
L 503.187965 272.968718 
L 504.393066 273.147122 
L 505.598167 272.930522 
L 506.803268 273.070692 
L 508.008369 272.706731 
L 510.418572 272.712699 
L 511.623673 272.923196 
L 514.033875 272.669486 
L 515.238976 272.945909 
L 517.649178 273.191154 
L 518.854279 272.937091 
L 521.264482 272.857774 
L 522.469583 272.395272 
L 523.674684 272.167828 
L 524.879785 272.206078 
L 526.084886 272.374822 
L 527.289987 272.354274 
L 528.495088 272.52449 
L 529.700189 272.444117 
L 530.905291 272.230139 
L 532.110392 271.871325 
L 533.315493 271.678176 
L 535.725695 271.866988 
L 536.930796 271.412239 
L 538.135897 271.260334 
L 539.340998 271.240719 
L 544.161403 270.79476 
L 545.366504 270.853243 
L 546.571605 270.760669 
L 547.776706 270.977595 
L 548.981807 270.787497 
L 550.186908 271.001501 
L 551.392009 270.742137 
L 552.597111 270.841006 
L 555.007313 270.674171 
L 556.212414 270.685269 
L 557.417515 270.921546 
L 559.827717 270.764045 
L 561.032818 270.937841 
L 563.443021 270.664791 
L 564.648122 270.69454 
L 567.058324 271.178055 
L 568.263425 270.99665 
L 570.673627 271.123102 
L 571.878728 270.929668 
L 573.083829 271.231926 
L 574.288931 270.713144 
L 575.494032 270.34326 
L 576.699133 270.433955 
L 577.904234 270.213984 
L 580.314436 270.489717 
L 582.724638 270.780333 
L 583.929739 270.987255 
L 586.339942 270.903141 
L 587.545043 270.474613 
L 588.750144 270.49264 
L 589.955245 270.727375 
L 591.160346 270.513402 
L 593.570548 270.903543 
L 594.775649 270.777301 
L 602.006256 271.912316 
L 604.416458 271.883892 
L 606.826661 272.037383 
L 608.031762 272.248841 
L 609.236863 272.187056 
L 610.441964 271.911865 
L 611.647065 271.380804 
L 612.852166 271.304789 
L 614.057267 271.513234 
L 616.467469 271.660502 
L 617.672571 271.991579 
L 618.877672 271.907184 
L 620.082773 271.934718 
L 621.287874 271.606399 
L 622.492975 271.665755 
L 623.698076 271.511562 
L 624.903177 271.155582 
L 627.313379 271.519188 
L 628.518481 271.530455 
L 629.723582 271.341329 
L 630.928683 271.333101 
L 632.133784 271.088384 
L 634.543986 271.246744 
L 635.749087 271.042534 
L 636.954188 270.688341 
L 638.159289 270.020616 
L 640.569492 269.836601 
L 641.774593 270.191882 
L 642.979694 270.127292 
L 644.184795 270.183987 
L 645.389896 270.088343 
L 647.800098 270.301444 
L 649.005199 270.313952 
L 650.210301 270.192925 
L 652.620503 270.292593 
L 655.030705 270.239712 
L 657.440907 270.802755 
L 659.851109 270.420838 
L 662.261312 270.740485 
L 663.466413 270.644923 
L 664.671514 270.678533 
L 665.876615 270.472229 
L 667.081716 270.42339 
L 668.286817 270.628217 
L 669.491918 270.417934 
L 670.697019 270.434469 
L 671.902121 270.270803 
L 673.107222 270.455298 
L 674.312323 270.139615 
L 675.517424 270.16937 
L 676.722525 270.310596 
L 677.927626 270.180375 
L 679.132727 270.305839 
L 679.132727 270.305839 
" style="fill:none;stroke:#008000;stroke-linecap:square;stroke-width:1.5;"/>
   </g>
   <g id="patch_3">
    <path d="M 47.72 390.04 
L 47.72 28.464 
" style="fill:none;stroke:#000000;stroke-linecap:square;stroke-linejoin:miter;stroke-width:0.8;"/>
   </g>
   <g id="patch_4">
    <path d="M 709.2 390.04 
L 709.2 28.464 
" style="fill:none;stroke:#000000;stroke-linecap:square;stroke-linejoin:miter;stroke-width:0.8;"/>
   </g>
   <g id="patch_5">
    <path d="M 47.72 390.04 
L 709.2 390.04 
" style="fill:none;stroke:#000000;stroke-linecap:square;stroke-linejoin:miter;stroke-width:0.8;"/>
   </g>
   <g id="patch_6">
    <path d="M 47.72 28.464 
L 709.2 28.464 
" style="fill:none;stroke:#000000;stroke-linecap:square;stroke-linejoin:miter;stroke-width:0.8;"/>
   </g>
   <g id="text_18">
    <!-- Average ANEES with parameters $\sigma_{process}=$0.5,  $\sigma_{AIS}=$10, $\sigma_{Radar}=$5 -->
    <g transform="translate(178.3 22.464)scale(0.12 -0.12)">
     <defs>
      <path d="M 2.984375 54.6875 
L 12.5 54.6875 
L 29.59375 8.796875 
L 46.6875 54.6875 
L 56.203125 54.6875 
L 35.6875 0 
L 23.484375 0 
z
" id="DejaVuSans-118"/>
      <path d="M 45.40625 27.984375 
Q 45.40625 37.75 41.375 43.109375 
Q 37.359375 48.484375 30.078125 48.484375 
Q 22.859375 48.484375 18.828125 43.109375 
Q 14.796875 37.75 14.796875 27.984375 
Q 14.796875 18.265625 18.828125 12.890625 
Q 22.859375 7.515625 30.078125 7.515625 
Q 37.359375 7.515625 41.375 12.890625 
Q 45.40625 18.265625 45.40625 27.984375 
z
M 54.390625 6.78125 
Q 54.390625 -7.171875 48.1875 -13.984375 
Q 42 -20.796875 29.203125 -20.796875 
Q 24.46875 -20.796875 20.265625 -20.09375 
Q 16.0625 -19.390625 12.109375 -17.921875 
L 12.109375 -9.1875 
Q 16.0625 -11.328125 19.921875 -12.34375 
Q 23.78125 -13.375 27.78125 -13.375 
Q 36.625 -13.375 41.015625 -8.765625 
Q 45.40625 -4.15625 45.40625 5.171875 
L 45.40625 9.625 
Q 42.625 4.78125 38.28125 2.390625 
Q 33.9375 0 27.875 0 
Q 17.828125 0 11.671875 7.65625 
Q 5.515625 15.328125 5.515625 27.984375 
Q 5.515625 40.671875 11.671875 48.328125 
Q 17.828125 56 27.875 56 
Q 33.9375 56 38.28125 53.609375 
Q 42.625 51.21875 45.40625 46.390625 
L 45.40625 54.6875 
L 54.390625 54.6875 
z
" id="DejaVuSans-103"/>
      <path d="M 4.203125 54.6875 
L 13.1875 54.6875 
L 24.421875 12.015625 
L 35.59375 54.6875 
L 46.1875 54.6875 
L 57.421875 12.015625 
L 68.609375 54.6875 
L 77.59375 54.6875 
L 63.28125 0 
L 52.6875 0 
L 40.921875 44.828125 
L 29.109375 0 
L 18.5 0 
z
" id="DejaVuSans-119"/>
      <path d="M 54.890625 33.015625 
L 54.890625 0 
L 45.90625 0 
L 45.90625 32.71875 
Q 45.90625 40.484375 42.875 44.328125 
Q 39.84375 48.1875 33.796875 48.1875 
Q 26.515625 48.1875 22.3125 43.546875 
Q 18.109375 38.921875 18.109375 30.90625 
L 18.109375 0 
L 9.078125 0 
L 9.078125 75.984375 
L 18.109375 75.984375 
L 18.109375 46.1875 
Q 21.34375 51.125 25.703125 53.5625 
Q 30.078125 56 35.796875 56 
Q 45.21875 56 50.046875 50.171875 
Q 54.890625 44.34375 54.890625 33.015625 
z
" id="DejaVuSans-104"/>
      <path d="M 18.109375 8.203125 
L 18.109375 -20.796875 
L 9.078125 -20.796875 
L 9.078125 54.6875 
L 18.109375 54.6875 
L 18.109375 46.390625 
Q 20.953125 51.265625 25.265625 53.625 
Q 29.59375 56 35.59375 56 
Q 45.5625 56 51.78125 48.09375 
Q 58.015625 40.1875 58.015625 27.296875 
Q 58.015625 14.40625 51.78125 6.484375 
Q 45.5625 -1.421875 35.59375 -1.421875 
Q 29.59375 -1.421875 25.265625 0.953125 
Q 20.953125 3.328125 18.109375 8.203125 
z
M 48.6875 27.296875 
Q 48.6875 37.203125 44.609375 42.84375 
Q 40.53125 48.484375 33.40625 48.484375 
Q 26.265625 48.484375 22.1875 42.84375 
Q 18.109375 37.203125 18.109375 27.296875 
Q 18.109375 17.390625 22.1875 11.75 
Q 26.265625 6.109375 33.40625 6.109375 
Q 40.53125 6.109375 44.609375 11.75 
Q 48.6875 17.390625 48.6875 27.296875 
z
" id="DejaVuSans-112"/>
      <path d="M 52 44.1875 
Q 55.375 50.25 60.0625 53.125 
Q 64.75 56 71.09375 56 
Q 79.640625 56 84.28125 50.015625 
Q 88.921875 44.046875 88.921875 33.015625 
L 88.921875 0 
L 79.890625 0 
L 79.890625 32.71875 
Q 79.890625 40.578125 77.09375 44.375 
Q 74.3125 48.1875 68.609375 48.1875 
Q 61.625 48.1875 57.5625 43.546875 
Q 53.515625 38.921875 53.515625 30.90625 
L 53.515625 0 
L 44.484375 0 
L 44.484375 32.71875 
Q 44.484375 40.625 41.703125 44.40625 
Q 38.921875 48.1875 33.109375 48.1875 
Q 26.21875 48.1875 22.15625 43.53125 
Q 18.109375 38.875 18.109375 30.90625 
L 18.109375 0 
L 9.078125 0 
L 9.078125 54.6875 
L 18.109375 54.6875 
L 18.109375 46.1875 
Q 21.1875 51.21875 25.484375 53.609375 
Q 29.78125 56 35.6875 56 
Q 41.65625 56 45.828125 52.96875 
Q 50 49.953125 52 44.1875 
z
" id="DejaVuSans-109"/>
      <path d="M 34.671875 47.5625 
Q 27.25 47.5625 22.21875 42.1875 
Q 16.890625 36.578125 15.140625 27.296875 
Q 13.1875 17.484375 16.3125 11.8125 
Q 19.390625 6.203125 26.65625 6.203125 
Q 33.84375 6.203125 39.109375 11.859375 
Q 44.4375 17.53125 46.34375 27.296875 
Q 48.046875 36.234375 45.015625 42.1875 
Q 42.1875 47.5625 34.671875 47.5625 
z
M 36.078125 54.734375 
L 65.921875 54.6875 
L 64.15625 45.703125 
L 54.109375 45.703125 
Q 57.90625 38.09375 55.859375 27.296875 
Q 53.21875 13.875 45.0625 6.25 
Q 36.859375 -1.421875 25.140625 -1.421875 
Q 13.375 -1.421875 8.203125 6.25 
Q 3.03125 13.875 5.671875 27.296875 
Q 8.25 40.765625 16.40625 48.390625 
Q 23.1875 54.734375 36.078125 54.734375 
z
" id="DejaVuSans-Oblique-963"/>
      <path d="M 49.609375 33.6875 
Q 49.609375 40.875 46.484375 44.671875 
Q 43.359375 48.484375 37.5 48.484375 
Q 33.5 48.484375 29.859375 46.4375 
Q 26.21875 44.390625 23.390625 40.484375 
Q 20.609375 36.625 18.9375 31.15625 
Q 17.28125 25.6875 17.28125 20.3125 
Q 17.28125 13.484375 20.40625 9.796875 
Q 23.53125 6.109375 29.296875 6.109375 
Q 33.546875 6.109375 37.1875 8.109375 
Q 40.828125 10.109375 43.40625 13.921875 
Q 46.1875 17.921875 47.890625 23.34375 
Q 49.609375 28.765625 49.609375 33.6875 
z
M 21.78125 46.390625 
Q 25.390625 51.125 30.296875 53.5625 
Q 35.203125 56 41.21875 56 
Q 49.609375 56 54.25 50.5 
Q 58.890625 45.015625 58.890625 35.109375 
Q 58.890625 27 56 19.65625 
Q 53.125 12.3125 47.703125 6.5 
Q 44.09375 2.640625 39.546875 0.609375 
Q 35.015625 -1.421875 29.984375 -1.421875 
Q 24.171875 -1.421875 20.21875 1 
Q 16.265625 3.421875 14.3125 8.203125 
L 8.6875 -20.796875 
L -0.296875 -20.796875 
L 14.40625 54.6875 
L 23.390625 54.6875 
z
" id="DejaVuSans-Oblique-112"/>
      <path d="M 44.578125 46.390625 
Q 43.21875 47.125 41.453125 47.515625 
Q 39.703125 47.90625 37.703125 47.90625 
Q 30.515625 47.90625 25.140625 42.453125 
Q 19.78125 37.015625 18.015625 27.875 
L 12.5 0 
L 3.515625 0 
L 14.203125 54.6875 
L 23.1875 54.6875 
L 21.484375 46.1875 
Q 25.046875 50.921875 30 53.453125 
Q 34.96875 56 40.578125 56 
Q 42.046875 56 43.453125 55.828125 
Q 44.875 55.671875 46.296875 55.28125 
z
" id="DejaVuSans-Oblique-114"/>
      <path d="M 25.390625 -1.421875 
Q 15.765625 -1.421875 10.171875 4.515625 
Q 4.59375 10.453125 4.59375 20.703125 
Q 4.59375 26.65625 6.515625 32.828125 
Q 8.453125 39.015625 11.53125 43.21875 
Q 16.359375 49.75 22.3125 52.875 
Q 28.265625 56 35.796875 56 
Q 45.125 56 50.859375 50.1875 
Q 56.59375 44.390625 56.59375 35.015625 
Q 56.59375 28.515625 54.6875 22.0625 
Q 52.78125 15.625 49.703125 11.375 
Q 44.921875 4.828125 38.96875 1.703125 
Q 33.015625 -1.421875 25.390625 -1.421875 
z
M 13.921875 21 
Q 13.921875 13.578125 17.015625 9.890625 
Q 20.125 6.203125 26.421875 6.203125 
Q 35.453125 6.203125 41.375 14.078125 
Q 47.3125 21.96875 47.3125 34.078125 
Q 47.3125 41.15625 44.140625 44.765625 
Q 40.96875 48.390625 34.8125 48.390625 
Q 29.734375 48.390625 25.78125 46.015625 
Q 21.828125 43.65625 18.703125 38.8125 
Q 16.40625 35.203125 15.15625 30.5625 
Q 13.921875 25.921875 13.921875 21 
z
" id="DejaVuSans-Oblique-111"/>
      <path d="M 53.609375 52.59375 
L 51.8125 43.703125 
Q 48.578125 46.046875 44.9375 47.21875 
Q 41.3125 48.390625 37.40625 48.390625 
Q 33.109375 48.390625 29.21875 46.875 
Q 25.34375 45.359375 22.703125 42.578125 
Q 18.5 38.328125 16.203125 32.609375 
Q 13.921875 26.90625 13.921875 20.796875 
Q 13.921875 13.421875 17.609375 9.8125 
Q 21.296875 6.203125 28.8125 6.203125 
Q 32.515625 6.203125 36.6875 7.328125 
Q 40.875 8.453125 45.40625 10.6875 
L 43.703125 1.8125 
Q 39.796875 0.203125 35.671875 -0.609375 
Q 31.546875 -1.421875 27.203125 -1.421875 
Q 16.3125 -1.421875 10.453125 4.015625 
Q 4.59375 9.46875 4.59375 19.578125 
Q 4.59375 28.078125 7.640625 35.234375 
Q 10.6875 42.390625 16.703125 48.09375 
Q 20.796875 52 26.3125 54 
Q 31.84375 56 38.375 56 
Q 42.1875 56 45.9375 55.140625 
Q 49.703125 54.296875 53.609375 52.59375 
z
" id="DejaVuSans-Oblique-99"/>
      <path d="M 48.09375 32.234375 
Q 48.25 33.015625 48.3125 33.84375 
Q 48.390625 34.671875 48.390625 35.5 
Q 48.390625 41.453125 44.890625 44.921875 
Q 41.40625 48.390625 35.40625 48.390625 
Q 28.71875 48.390625 23.578125 44.15625 
Q 18.453125 39.9375 15.828125 32.171875 
z
M 55.90625 25.203125 
L 14.109375 25.203125 
Q 13.8125 23.34375 13.71875 22.265625 
Q 13.625 21.1875 13.625 20.40625 
Q 13.625 13.625 17.796875 9.90625 
Q 21.96875 6.203125 29.59375 6.203125 
Q 35.453125 6.203125 40.671875 7.515625 
Q 45.90625 8.84375 50.390625 11.375 
L 48.6875 2.484375 
Q 43.84375 0.53125 38.6875 -0.4375 
Q 33.546875 -1.421875 28.21875 -1.421875 
Q 16.84375 -1.421875 10.71875 4.015625 
Q 4.59375 9.46875 4.59375 19.484375 
Q 4.59375 28.03125 7.640625 35.375 
Q 10.6875 42.71875 16.609375 48.484375 
Q 20.40625 52.09375 25.65625 54.046875 
Q 30.90625 56 36.8125 56 
Q 46.09375 56 51.578125 50.4375 
Q 57.078125 44.875 57.078125 35.5 
Q 57.078125 33.25 56.78125 30.6875 
Q 56.5 28.125 55.90625 25.203125 
z
" id="DejaVuSans-Oblique-101"/>
      <path d="M 50 53.078125 
L 48.296875 44.578125 
Q 44.734375 46.53125 40.765625 47.5 
Q 36.8125 48.484375 32.625 48.484375 
Q 25.53125 48.484375 21.453125 46.0625 
Q 17.390625 43.65625 17.390625 39.5 
Q 17.390625 34.671875 26.859375 32.078125 
Q 27.59375 31.890625 27.9375 31.78125 
L 30.8125 30.90625 
Q 39.796875 28.421875 42.796875 25.6875 
Q 45.796875 22.953125 45.796875 18.21875 
Q 45.796875 9.515625 38.890625 4.046875 
Q 31.984375 -1.421875 20.796875 -1.421875 
Q 16.453125 -1.421875 11.671875 -0.578125 
Q 6.890625 0.25 1.125 2 
L 2.875 11.28125 
Q 7.8125 8.734375 12.59375 7.421875 
Q 17.390625 6.109375 21.78125 6.109375 
Q 28.375 6.109375 32.5 8.9375 
Q 36.625 11.765625 36.625 16.109375 
Q 36.625 20.796875 25.78125 23.6875 
L 24.859375 23.921875 
L 21.78125 24.703125 
Q 14.9375 26.515625 11.765625 29.46875 
Q 8.59375 32.421875 8.59375 37.015625 
Q 8.59375 45.75 15.15625 50.875 
Q 21.734375 56 33.015625 56 
Q 37.453125 56 41.671875 55.265625 
Q 45.90625 54.546875 50 53.078125 
z
" id="DejaVuSans-Oblique-115"/>
      <path d="M 10.59375 45.40625 
L 73.1875 45.40625 
L 73.1875 37.203125 
L 10.59375 37.203125 
z
M 10.59375 25.484375 
L 73.1875 25.484375 
L 73.1875 17.1875 
L 10.59375 17.1875 
z
" id="DejaVuSans-61"/>
      <path d="M 11.71875 12.40625 
L 22.015625 12.40625 
L 22.015625 4 
L 14.015625 -11.625 
L 7.71875 -11.625 
L 11.71875 4 
z
" id="DejaVuSans-44"/>
      <path d="M 36.8125 72.90625 
L 48 72.90625 
L 61.53125 0 
L 51.21875 0 
L 48.1875 18.703125 
L 15.375 18.703125 
L 5.078125 0 
L -5.328125 0 
z
M 40.375 63.1875 
L 19.921875 26.90625 
L 46.6875 26.90625 
z
" id="DejaVuSans-Oblique-65"/>
      <path d="M 16.890625 72.90625 
L 26.8125 72.90625 
L 12.59375 0 
L 2.6875 0 
z
" id="DejaVuSans-Oblique-73"/>
      <path d="M 60.296875 70.515625 
L 58.40625 60.890625 
Q 53.46875 63.53125 48.609375 64.875 
Q 43.75 66.21875 39.203125 66.21875 
Q 30.375 66.21875 25.140625 62.359375 
Q 19.921875 58.5 19.921875 52.09375 
Q 19.921875 48.578125 21.84375 46.703125 
Q 23.78125 44.828125 31.78125 42.671875 
L 37.703125 41.21875 
Q 47.703125 38.625 51.609375 34.640625 
Q 55.515625 30.671875 55.515625 23.484375 
Q 55.515625 12.453125 46.84375 5.515625 
Q 38.1875 -1.421875 24.03125 -1.421875 
Q 18.21875 -1.421875 12.359375 -0.265625 
Q 6.5 0.875 0.59375 3.21875 
L 2.59375 13.375 
Q 8.015625 10.015625 13.453125 8.296875 
Q 18.890625 6.59375 24.3125 6.59375 
Q 33.546875 6.59375 39.109375 10.6875 
Q 44.671875 14.796875 44.671875 21.390625 
Q 44.671875 25.78125 42.453125 28.046875 
Q 40.234375 30.328125 32.90625 32.171875 
L 27 33.6875 
Q 16.890625 36.328125 13.203125 39.765625 
Q 9.515625 43.21875 9.515625 49.421875 
Q 9.515625 60.296875 17.890625 67.25 
Q 26.265625 74.21875 39.703125 74.21875 
Q 44.921875 74.21875 50.046875 73.28125 
Q 55.171875 72.359375 60.296875 70.515625 
z
" id="DejaVuSans-Oblique-83"/>
      <path d="M 25.203125 64.796875 
L 20.21875 38.921875 
L 32.90625 38.921875 
Q 40.375 38.921875 44.984375 43.046875 
Q 49.609375 47.171875 49.609375 53.8125 
Q 49.609375 59.125 46.5 61.953125 
Q 43.40625 64.796875 37.59375 64.796875 
z
M 43.3125 35.015625 
Q 46.4375 34.28125 48.515625 31.390625 
Q 50.59375 28.515625 53.328125 19.921875 
L 59.515625 0 
L 49.125 0 
L 43.40625 18.703125 
Q 41.21875 25.921875 38.328125 28.359375 
Q 35.453125 30.8125 29.5 30.8125 
L 18.609375 30.8125 
L 12.59375 0 
L 2.6875 0 
L 16.890625 72.90625 
L 39.109375 72.90625 
Q 49.21875 72.90625 54.609375 68.328125 
Q 60.015625 63.765625 60.015625 55.171875 
Q 60.015625 47.5625 55.421875 41.984375 
Q 50.828125 36.421875 43.3125 35.015625 
z
" id="DejaVuSans-Oblique-82"/>
      <path d="M 53.71875 31.203125 
L 47.609375 0 
L 38.625 0 
L 40.28125 8.296875 
Q 36.328125 3.421875 31.265625 1 
Q 26.21875 -1.421875 20.015625 -1.421875 
Q 13.03125 -1.421875 8.5625 2.84375 
Q 4.109375 7.125 4.109375 13.8125 
Q 4.109375 23.390625 11.75 28.953125 
Q 19.390625 34.515625 32.8125 34.515625 
L 45.3125 34.515625 
L 45.796875 36.921875 
Q 45.90625 37.3125 45.953125 37.765625 
Q 46 38.234375 46 39.203125 
Q 46 43.5625 42.453125 45.96875 
Q 38.921875 48.390625 32.515625 48.390625 
Q 28.125 48.390625 23.5 47.265625 
Q 18.890625 46.140625 14.015625 43.890625 
L 15.578125 52.203125 
Q 20.65625 54.109375 25.515625 55.046875 
Q 30.375 56 34.90625 56 
Q 44.578125 56 49.625 51.796875 
Q 54.6875 47.609375 54.6875 39.59375 
Q 54.6875 37.984375 54.4375 35.8125 
Q 54.203125 33.640625 53.71875 31.203125 
z
M 44 27.484375 
L 35.015625 27.484375 
Q 23.96875 27.484375 18.671875 24.53125 
Q 13.375 21.578125 13.375 15.375 
Q 13.375 11.078125 16.078125 8.640625 
Q 18.796875 6.203125 23.578125 6.203125 
Q 30.90625 6.203125 36.375 11.453125 
Q 41.84375 16.703125 43.609375 25.484375 
z
" id="DejaVuSans-Oblique-97"/>
      <path d="M 41.796875 8.203125 
Q 38.1875 3.46875 33.25 1.015625 
Q 28.328125 -1.421875 22.3125 -1.421875 
Q 14.109375 -1.421875 9.34375 4.171875 
Q 4.59375 9.765625 4.59375 19.484375 
Q 4.59375 27.59375 7.46875 34.9375 
Q 10.359375 42.28125 15.828125 48.09375 
Q 19.4375 51.953125 23.96875 53.96875 
Q 28.515625 56 33.5 56 
Q 38.765625 56 42.796875 53.453125 
Q 46.828125 50.921875 49.03125 46.1875 
L 54.890625 75.984375 
L 63.921875 75.984375 
L 49.125 0 
L 40.09375 0 
z
M 13.921875 21.09375 
Q 13.921875 14.015625 17.109375 10.0625 
Q 20.3125 6.109375 25.984375 6.109375 
Q 30.171875 6.109375 33.765625 8.125 
Q 37.359375 10.15625 40.09375 14.109375 
Q 42.96875 18.21875 44.625 23.578125 
Q 46.296875 28.953125 46.296875 34.1875 
Q 46.296875 40.96875 43.09375 44.765625 
Q 39.890625 48.578125 34.28125 48.578125 
Q 30.03125 48.578125 26.359375 46.578125 
Q 22.703125 44.578125 20.125 40.828125 
Q 17.28125 36.765625 15.59375 31.390625 
Q 13.921875 26.03125 13.921875 21.09375 
z
" id="DejaVuSans-Oblique-100"/>
     </defs>
     <use transform="translate(0 0.015625)" xlink:href="#DejaVuSans-65"/>
     <use transform="translate(68.408203 0.015625)" xlink:href="#DejaVuSans-118"/>
     <use transform="translate(127.587891 0.015625)" xlink:href="#DejaVuSans-101"/>
     <use transform="translate(189.111328 0.015625)" xlink:href="#DejaVuSans-114"/>
     <use transform="translate(230.224609 0.015625)" xlink:href="#DejaVuSans-97"/>
     <use transform="translate(291.503906 0.015625)" xlink:href="#DejaVuSans-103"/>
     <use transform="translate(354.980469 0.015625)" xlink:href="#DejaVuSans-101"/>
     <use transform="translate(416.503906 0.015625)" xlink:href="#DejaVuSans-32"/>
     <use transform="translate(448.291016 0.015625)" xlink:href="#DejaVuSans-65"/>
     <use transform="translate(516.699219 0.015625)" xlink:href="#DejaVuSans-78"/>
     <use transform="translate(591.503906 0.015625)" xlink:href="#DejaVuSans-69"/>
     <use transform="translate(654.6875 0.015625)" xlink:href="#DejaVuSans-69"/>
     <use transform="translate(717.871094 0.015625)" xlink:href="#DejaVuSans-83"/>
     <use transform="translate(781.347656 0.015625)" xlink:href="#DejaVuSans-32"/>
     <use transform="translate(813.134766 0.015625)" xlink:href="#DejaVuSans-119"/>
     <use transform="translate(894.921875 0.015625)" xlink:href="#DejaVuSans-105"/>
     <use transform="translate(922.705078 0.015625)" xlink:href="#DejaVuSans-116"/>
     <use transform="translate(961.914062 0.015625)" xlink:href="#DejaVuSans-104"/>
     <use transform="translate(1025.292969 0.015625)" xlink:href="#DejaVuSans-32"/>
     <use transform="translate(1057.080078 0.015625)" xlink:href="#DejaVuSans-112"/>
     <use transform="translate(1120.556641 0.015625)" xlink:href="#DejaVuSans-97"/>
     <use transform="translate(1181.835938 0.015625)" xlink:href="#DejaVuSans-114"/>
     <use transform="translate(1222.949219 0.015625)" xlink:href="#DejaVuSans-97"/>
     <use transform="translate(1284.228516 0.015625)" xlink:href="#DejaVuSans-109"/>
     <use transform="translate(1381.640625 0.015625)" xlink:href="#DejaVuSans-101"/>
     <use transform="translate(1443.164062 0.015625)" xlink:href="#DejaVuSans-116"/>
     <use transform="translate(1482.373047 0.015625)" xlink:href="#DejaVuSans-101"/>
     <use transform="translate(1543.896484 0.015625)" xlink:href="#DejaVuSans-114"/>
     <use transform="translate(1585.009766 0.015625)" xlink:href="#DejaVuSans-115"/>
     <use transform="translate(1637.109375 0.015625)" xlink:href="#DejaVuSans-32"/>
     <use transform="translate(1668.896484 0.015625)" xlink:href="#DejaVuSans-Oblique-963"/>
     <use transform="translate(1732.275391 -16.390625)scale(0.7)" xlink:href="#DejaVuSans-Oblique-112"/>
     <use transform="translate(1776.708984 -16.390625)scale(0.7)" xlink:href="#DejaVuSans-Oblique-114"/>
     <use transform="translate(1805.488281 -16.390625)scale(0.7)" xlink:href="#DejaVuSans-Oblique-111"/>
     <use transform="translate(1848.31543 -16.390625)scale(0.7)" xlink:href="#DejaVuSans-Oblique-99"/>
     <use transform="translate(1886.801758 -16.390625)scale(0.7)" xlink:href="#DejaVuSans-Oblique-101"/>
     <use transform="translate(1929.868164 -16.390625)scale(0.7)" xlink:href="#DejaVuSans-Oblique-115"/>
     <use transform="translate(1966.337891 -16.390625)scale(0.7)" xlink:href="#DejaVuSans-Oblique-115"/>
     <use transform="translate(2025.024414 0.015625)" xlink:href="#DejaVuSans-61"/>
     <use transform="translate(2128.295898 0.015625)" xlink:href="#DejaVuSans-48"/>
     <use transform="translate(2191.918945 0.015625)" xlink:href="#DejaVuSans-46"/>
     <use transform="translate(2223.706055 0.015625)" xlink:href="#DejaVuSans-53"/>
     <use transform="translate(2287.329102 0.015625)" xlink:href="#DejaVuSans-44"/>
     <use transform="translate(2319.116211 0.015625)" xlink:href="#DejaVuSans-32"/>
     <use transform="translate(2350.90332 0.015625)" xlink:href="#DejaVuSans-32"/>
     <use transform="translate(2382.69043 0.015625)" xlink:href="#DejaVuSans-Oblique-963"/>
     <use transform="translate(2446.069336 -16.390625)scale(0.7)" xlink:href="#DejaVuSans-Oblique-65"/>
     <use transform="translate(2493.955078 -16.390625)scale(0.7)" xlink:href="#DejaVuSans-Oblique-73"/>
     <use transform="translate(2514.599609 -16.390625)scale(0.7)" xlink:href="#DejaVuSans-Oblique-83"/>
     <use transform="translate(2581.25 0.015625)" xlink:href="#DejaVuSans-61"/>
     <use transform="translate(2684.521484 0.015625)" xlink:href="#DejaVuSans-49"/>
     <use transform="translate(2748.144531 0.015625)" xlink:href="#DejaVuSans-48"/>
     <use transform="translate(2811.767578 0.015625)" xlink:href="#DejaVuSans-44"/>
     <use transform="translate(2843.554688 0.015625)" xlink:href="#DejaVuSans-32"/>
     <use transform="translate(2875.341797 0.015625)" xlink:href="#DejaVuSans-Oblique-963"/>
     <use transform="translate(2938.720703 -16.390625)scale(0.7)" xlink:href="#DejaVuSans-Oblique-82"/>
     <use transform="translate(2987.358398 -16.390625)scale(0.7)" xlink:href="#DejaVuSans-Oblique-97"/>
     <use transform="translate(3030.253906 -16.390625)scale(0.7)" xlink:href="#DejaVuSans-Oblique-100"/>
     <use transform="translate(3074.6875 -16.390625)scale(0.7)" xlink:href="#DejaVuSans-Oblique-97"/>
     <use transform="translate(3117.583008 -16.390625)scale(0.7)" xlink:href="#DejaVuSans-Oblique-114"/>
     <use transform="translate(3168.579102 0.015625)" xlink:href="#DejaVuSans-61"/>
     <use transform="translate(3271.850586 0.015625)" xlink:href="#DejaVuSans-53"/>
    </g>
   </g>
   <g id="legend_1">
    <g id="patch_7">
     <path d="M 566.607813 95.1765 
L 702.2 95.1765 
Q 704.2 95.1765 704.2 93.1765 
L 704.2 35.464 
Q 704.2 33.464 702.2 33.464 
L 566.607813 33.464 
Q 564.607813 33.464 564.607813 35.464 
L 564.607813 93.1765 
Q 564.607813 95.1765 566.607813 95.1765 
z
" style="fill:#ffffff;opacity:0.8;stroke:#cccccc;stroke-linejoin:miter;"/>
    </g>
    <g id="line2d_21">
     <path d="M 568.607813 41.562438 
L 588.607813 41.562438 
" style="fill:none;stroke:#000000;stroke-linecap:square;stroke-width:1.5;"/>
    </g>
    <g id="line2d_22"/>
    <g id="text_19">
     <!-- Confidence Intervals -->
     <g transform="translate(596.607813 45.062438)scale(0.1 -0.1)">
      <defs>
       <path d="M 37.109375 75.984375 
L 37.109375 68.5 
L 28.515625 68.5 
Q 23.6875 68.5 21.796875 66.546875 
Q 19.921875 64.59375 19.921875 59.515625 
L 19.921875 54.6875 
L 34.71875 54.6875 
L 34.71875 47.703125 
L 19.921875 47.703125 
L 19.921875 0 
L 10.890625 0 
L 10.890625 47.703125 
L 2.296875 47.703125 
L 2.296875 54.6875 
L 10.890625 54.6875 
L 10.890625 58.5 
Q 10.890625 67.625 15.140625 71.796875 
Q 19.390625 75.984375 28.609375 75.984375 
z
" id="DejaVuSans-102"/>
       <path d="M 45.40625 46.390625 
L 45.40625 75.984375 
L 54.390625 75.984375 
L 54.390625 0 
L 45.40625 0 
L 45.40625 8.203125 
Q 42.578125 3.328125 38.25 0.953125 
Q 33.9375 -1.421875 27.875 -1.421875 
Q 17.96875 -1.421875 11.734375 6.484375 
Q 5.515625 14.40625 5.515625 27.296875 
Q 5.515625 40.1875 11.734375 48.09375 
Q 17.96875 56 27.875 56 
Q 33.9375 56 38.25 53.625 
Q 42.578125 51.265625 45.40625 46.390625 
z
M 14.796875 27.296875 
Q 14.796875 17.390625 18.875 11.75 
Q 22.953125 6.109375 30.078125 6.109375 
Q 37.203125 6.109375 41.296875 11.75 
Q 45.40625 17.390625 45.40625 27.296875 
Q 45.40625 37.203125 41.296875 42.84375 
Q 37.203125 48.484375 30.078125 48.484375 
Q 22.953125 48.484375 18.875 42.84375 
Q 14.796875 37.203125 14.796875 27.296875 
z
" id="DejaVuSans-100"/>
       <path d="M 48.78125 52.59375 
L 48.78125 44.1875 
Q 44.96875 46.296875 41.140625 47.34375 
Q 37.3125 48.390625 33.40625 48.390625 
Q 24.65625 48.390625 19.8125 42.84375 
Q 14.984375 37.3125 14.984375 27.296875 
Q 14.984375 17.28125 19.8125 11.734375 
Q 24.65625 6.203125 33.40625 6.203125 
Q 37.3125 6.203125 41.140625 7.25 
Q 44.96875 8.296875 48.78125 10.40625 
L 48.78125 2.09375 
Q 45.015625 0.34375 40.984375 -0.53125 
Q 36.96875 -1.421875 32.421875 -1.421875 
Q 20.0625 -1.421875 12.78125 6.34375 
Q 5.515625 14.109375 5.515625 27.296875 
Q 5.515625 40.671875 12.859375 48.328125 
Q 20.21875 56 33.015625 56 
Q 37.15625 56 41.109375 55.140625 
Q 45.0625 54.296875 48.78125 52.59375 
z
" id="DejaVuSans-99"/>
       <path d="M 9.8125 72.90625 
L 19.671875 72.90625 
L 19.671875 0 
L 9.8125 0 
z
" id="DejaVuSans-73"/>
       <path d="M 9.421875 75.984375 
L 18.40625 75.984375 
L 18.40625 0 
L 9.421875 0 
z
" id="DejaVuSans-108"/>
      </defs>
      <use xlink:href="#DejaVuSans-67"/>
      <use x="69.824219" xlink:href="#DejaVuSans-111"/>
      <use x="131.005859" xlink:href="#DejaVuSans-110"/>
      <use x="194.384766" xlink:href="#DejaVuSans-102"/>
      <use x="229.589844" xlink:href="#DejaVuSans-105"/>
      <use x="257.373047" xlink:href="#DejaVuSans-100"/>
      <use x="320.849609" xlink:href="#DejaVuSans-101"/>
      <use x="382.373047" xlink:href="#DejaVuSans-110"/>
      <use x="445.751953" xlink:href="#DejaVuSans-99"/>
      <use x="500.732422" xlink:href="#DejaVuSans-101"/>
      <use x="562.255859" xlink:href="#DejaVuSans-32"/>
      <use x="594.042969" xlink:href="#DejaVuSans-73"/>
      <use x="623.535156" xlink:href="#DejaVuSans-110"/>
      <use x="686.914062" xlink:href="#DejaVuSans-116"/>
      <use x="726.123047" xlink:href="#DejaVuSans-101"/>
      <use x="787.646484" xlink:href="#DejaVuSans-114"/>
      <use x="828.759766" xlink:href="#DejaVuSans-118"/>
      <use x="887.939453" xlink:href="#DejaVuSans-97"/>
      <use x="949.21875" xlink:href="#DejaVuSans-108"/>
      <use x="977.001953" xlink:href="#DejaVuSans-115"/>
     </g>
    </g>
    <g id="line2d_23">
     <path d="M 568.607813 56.240563 
L 588.607813 56.240563 
" style="fill:none;stroke:#0000ff;stroke-linecap:square;stroke-width:1.5;"/>
    </g>
    <g id="line2d_24"/>
    <g id="text_20">
     <!-- Independent -->
     <g transform="translate(596.607813 59.740563)scale(0.1 -0.1)">
      <use xlink:href="#DejaVuSans-73"/>
      <use x="29.492188" xlink:href="#DejaVuSans-110"/>
      <use x="92.871094" xlink:href="#DejaVuSans-100"/>
      <use x="156.347656" xlink:href="#DejaVuSans-101"/>
      <use x="217.871094" xlink:href="#DejaVuSans-112"/>
      <use x="281.347656" xlink:href="#DejaVuSans-101"/>
      <use x="342.871094" xlink:href="#DejaVuSans-110"/>
      <use x="406.25" xlink:href="#DejaVuSans-100"/>
      <use x="469.726562" xlink:href="#DejaVuSans-101"/>
      <use x="531.25" xlink:href="#DejaVuSans-110"/>
      <use x="594.628906" xlink:href="#DejaVuSans-116"/>
     </g>
    </g>
    <g id="line2d_25">
     <path d="M 568.607813 70.918688 
L 588.607813 70.918688 
" style="fill:none;stroke:#ff0000;stroke-linecap:square;stroke-width:1.5;"/>
    </g>
    <g id="line2d_26"/>
    <g id="text_21">
     <!-- Dependent -->
     <g transform="translate(596.607813 74.418688)scale(0.1 -0.1)">
      <defs>
       <path d="M 19.671875 64.796875 
L 19.671875 8.109375 
L 31.59375 8.109375 
Q 46.6875 8.109375 53.6875 14.9375 
Q 60.6875 21.78125 60.6875 36.53125 
Q 60.6875 51.171875 53.6875 57.984375 
Q 46.6875 64.796875 31.59375 64.796875 
z
M 9.8125 72.90625 
L 30.078125 72.90625 
Q 51.265625 72.90625 61.171875 64.09375 
Q 71.09375 55.28125 71.09375 36.53125 
Q 71.09375 17.671875 61.125 8.828125 
Q 51.171875 0 30.078125 0 
L 9.8125 0 
z
" id="DejaVuSans-68"/>
      </defs>
      <use xlink:href="#DejaVuSans-68"/>
      <use x="77.001953" xlink:href="#DejaVuSans-101"/>
      <use x="138.525391" xlink:href="#DejaVuSans-112"/>
      <use x="202.001953" xlink:href="#DejaVuSans-101"/>
      <use x="263.525391" xlink:href="#DejaVuSans-110"/>
      <use x="326.904297" xlink:href="#DejaVuSans-100"/>
      <use x="390.380859" xlink:href="#DejaVuSans-101"/>
      <use x="451.904297" xlink:href="#DejaVuSans-110"/>
      <use x="515.283203" xlink:href="#DejaVuSans-116"/>
     </g>
    </g>
    <g id="line2d_27">
     <path d="M 568.607813 85.596813 
L 588.607813 85.596813 
" style="fill:none;stroke:#008000;stroke-linecap:square;stroke-width:1.5;"/>
    </g>
    <g id="line2d_28"/>
    <g id="text_22">
     <!-- AIS as measurement -->
     <g transform="translate(596.607813 89.096813)scale(0.1 -0.1)">
      <defs>
       <path d="M 8.5 21.578125 
L 8.5 54.6875 
L 17.484375 54.6875 
L 17.484375 21.921875 
Q 17.484375 14.15625 20.5 10.265625 
Q 23.53125 6.390625 29.59375 6.390625 
Q 36.859375 6.390625 41.078125 11.03125 
Q 45.3125 15.671875 45.3125 23.6875 
L 45.3125 54.6875 
L 54.296875 54.6875 
L 54.296875 0 
L 45.3125 0 
L 45.3125 8.40625 
Q 42.046875 3.421875 37.71875 1 
Q 33.40625 -1.421875 27.6875 -1.421875 
Q 18.265625 -1.421875 13.375 4.4375 
Q 8.5 10.296875 8.5 21.578125 
z
M 31.109375 56 
z
" id="DejaVuSans-117"/>
      </defs>
      <use xlink:href="#DejaVuSans-65"/>
      <use x="68.408203" xlink:href="#DejaVuSans-73"/>
      <use x="97.900391" xlink:href="#DejaVuSans-83"/>
      <use x="161.376953" xlink:href="#DejaVuSans-32"/>
      <use x="193.164062" xlink:href="#DejaVuSans-97"/>
      <use x="254.443359" xlink:href="#DejaVuSans-115"/>
      <use x="306.542969" xlink:href="#DejaVuSans-32"/>
      <use x="338.330078" xlink:href="#DejaVuSans-109"/>
      <use x="435.742188" xlink:href="#DejaVuSans-101"/>
      <use x="497.265625" xlink:href="#DejaVuSans-97"/>
      <use x="558.544922" xlink:href="#DejaVuSans-115"/>
      <use x="610.644531" xlink:href="#DejaVuSans-117"/>
      <use x="674.023438" xlink:href="#DejaVuSans-114"/>
      <use x="712.886719" xlink:href="#DejaVuSans-101"/>
      <use x="774.410156" xlink:href="#DejaVuSans-109"/>
      <use x="871.822266" xlink:href="#DejaVuSans-101"/>
      <use x="933.345703" xlink:href="#DejaVuSans-110"/>
      <use x="996.724609" xlink:href="#DejaVuSans-116"/>
     </g>
    </g>
   </g>
  </g>
 </g>
 <defs>
  <clipPath id="pe77f1e0dde">
   <rect height="361.576" width="661.48" x="47.72" y="28.464"/>
  </clipPath>
 </defs>
</svg>
