<?xml version="1.0" encoding="utf-8" standalone="no"?>
<!DOCTYPE svg PUBLIC "-//W3C//DTD SVG 1.1//EN"
  "http://www.w3.org/Graphics/SVG/1.1/DTD/svg11.dtd">
<!-- Created with matplotlib (https://matplotlib.org/) -->
<svg height="432pt" version="1.1" viewBox="0 0 720 432" width="720pt" xmlns="http://www.w3.org/2000/svg" xmlns:xlink="http://www.w3.org/1999/xlink">
 <metadata>
  <rdf:RDF xmlns:cc="http://creativecommons.org/ns#" xmlns:dc="http://purl.org/dc/elements/1.1/" xmlns:rdf="http://www.w3.org/1999/02/22-rdf-syntax-ns#">
   <cc:Work>
    <dc:type rdf:resource="http://purl.org/dc/dcmitype/StillImage"/>
    <dc:date>2020-10-14T12:16:54.052762</dc:date>
    <dc:format>image/svg+xml</dc:format>
    <dc:creator>
     <cc:Agent>
      <dc:title>Matplotlib v3.3.1, https://matplotlib.org/</dc:title>
     </cc:Agent>
    </dc:creator>
   </cc:Work>
  </rdf:RDF>
 </metadata>
 <defs>
  <style type="text/css">*{stroke-linecap:butt;stroke-linejoin:round;}</style>
 </defs>
 <g id="figure_1">
  <g id="patch_1">
   <path d="M 0 432 
L 720 432 
L 720 0 
L 0 0 
z
" style="fill:#ffffff;"/>
  </g>
  <g id="axes_1">
   <g id="patch_2">
    <path d="M 47.72 390.04 
L 709.2 390.04 
L 709.2 28.464 
L 47.72 28.464 
z
" style="fill:#ffffff;"/>
   </g>
   <g id="matplotlib.axis_1">
    <g id="xtick_1">
     <g id="line2d_1">
      <defs>
       <path d="M 0 0 
L 0 3.5 
" id="m7237b22eba" style="stroke:#000000;stroke-width:0.8;"/>
      </defs>
      <g>
       <use style="stroke:#000000;stroke-width:0.8;" x="77.787273" xlink:href="#m7237b22eba" y="390.04"/>
      </g>
     </g>
     <g id="text_1">
      <!-- 0 -->
      <g transform="translate(74.606023 404.638438)scale(0.1 -0.1)">
       <defs>
        <path d="M 31.78125 66.40625 
Q 24.171875 66.40625 20.328125 58.90625 
Q 16.5 51.421875 16.5 36.375 
Q 16.5 21.390625 20.328125 13.890625 
Q 24.171875 6.390625 31.78125 6.390625 
Q 39.453125 6.390625 43.28125 13.890625 
Q 47.125 21.390625 47.125 36.375 
Q 47.125 51.421875 43.28125 58.90625 
Q 39.453125 66.40625 31.78125 66.40625 
z
M 31.78125 74.21875 
Q 44.046875 74.21875 50.515625 64.515625 
Q 56.984375 54.828125 56.984375 36.375 
Q 56.984375 17.96875 50.515625 8.265625 
Q 44.046875 -1.421875 31.78125 -1.421875 
Q 19.53125 -1.421875 13.0625 8.265625 
Q 6.59375 17.96875 6.59375 36.375 
Q 6.59375 54.828125 13.0625 64.515625 
Q 19.53125 74.21875 31.78125 74.21875 
z
" id="DejaVuSans-48"/>
       </defs>
       <use xlink:href="#DejaVuSans-48"/>
      </g>
     </g>
    </g>
    <g id="xtick_2">
     <g id="line2d_2">
      <g>
       <use style="stroke:#000000;stroke-width:0.8;" x="198.297384" xlink:href="#m7237b22eba" y="390.04"/>
      </g>
     </g>
     <g id="text_2">
      <!-- 100 -->
      <g transform="translate(188.753634 404.638438)scale(0.1 -0.1)">
       <defs>
        <path d="M 12.40625 8.296875 
L 28.515625 8.296875 
L 28.515625 63.921875 
L 10.984375 60.40625 
L 10.984375 69.390625 
L 28.421875 72.90625 
L 38.28125 72.90625 
L 38.28125 8.296875 
L 54.390625 8.296875 
L 54.390625 0 
L 12.40625 0 
z
" id="DejaVuSans-49"/>
       </defs>
       <use xlink:href="#DejaVuSans-49"/>
       <use x="63.623047" xlink:href="#DejaVuSans-48"/>
       <use x="127.246094" xlink:href="#DejaVuSans-48"/>
      </g>
     </g>
    </g>
    <g id="xtick_3">
     <g id="line2d_3">
      <g>
       <use style="stroke:#000000;stroke-width:0.8;" x="318.807495" xlink:href="#m7237b22eba" y="390.04"/>
      </g>
     </g>
     <g id="text_3">
      <!-- 200 -->
      <g transform="translate(309.263745 404.638438)scale(0.1 -0.1)">
       <defs>
        <path d="M 19.1875 8.296875 
L 53.609375 8.296875 
L 53.609375 0 
L 7.328125 0 
L 7.328125 8.296875 
Q 12.9375 14.109375 22.625 23.890625 
Q 32.328125 33.6875 34.8125 36.53125 
Q 39.546875 41.84375 41.421875 45.53125 
Q 43.3125 49.21875 43.3125 52.78125 
Q 43.3125 58.59375 39.234375 62.25 
Q 35.15625 65.921875 28.609375 65.921875 
Q 23.96875 65.921875 18.8125 64.3125 
Q 13.671875 62.703125 7.8125 59.421875 
L 7.8125 69.390625 
Q 13.765625 71.78125 18.9375 73 
Q 24.125 74.21875 28.421875 74.21875 
Q 39.75 74.21875 46.484375 68.546875 
Q 53.21875 62.890625 53.21875 53.421875 
Q 53.21875 48.921875 51.53125 44.890625 
Q 49.859375 40.875 45.40625 35.40625 
Q 44.1875 33.984375 37.640625 27.21875 
Q 31.109375 20.453125 19.1875 8.296875 
z
" id="DejaVuSans-50"/>
       </defs>
       <use xlink:href="#DejaVuSans-50"/>
       <use x="63.623047" xlink:href="#DejaVuSans-48"/>
       <use x="127.246094" xlink:href="#DejaVuSans-48"/>
      </g>
     </g>
    </g>
    <g id="xtick_4">
     <g id="line2d_4">
      <g>
       <use style="stroke:#000000;stroke-width:0.8;" x="439.317606" xlink:href="#m7237b22eba" y="390.04"/>
      </g>
     </g>
     <g id="text_4">
      <!-- 300 -->
      <g transform="translate(429.773856 404.638438)scale(0.1 -0.1)">
       <defs>
        <path d="M 40.578125 39.3125 
Q 47.65625 37.796875 51.625 33 
Q 55.609375 28.21875 55.609375 21.1875 
Q 55.609375 10.40625 48.1875 4.484375 
Q 40.765625 -1.421875 27.09375 -1.421875 
Q 22.515625 -1.421875 17.65625 -0.515625 
Q 12.796875 0.390625 7.625 2.203125 
L 7.625 11.71875 
Q 11.71875 9.328125 16.59375 8.109375 
Q 21.484375 6.890625 26.8125 6.890625 
Q 36.078125 6.890625 40.9375 10.546875 
Q 45.796875 14.203125 45.796875 21.1875 
Q 45.796875 27.640625 41.28125 31.265625 
Q 36.765625 34.90625 28.71875 34.90625 
L 20.21875 34.90625 
L 20.21875 43.015625 
L 29.109375 43.015625 
Q 36.375 43.015625 40.234375 45.921875 
Q 44.09375 48.828125 44.09375 54.296875 
Q 44.09375 59.90625 40.109375 62.90625 
Q 36.140625 65.921875 28.71875 65.921875 
Q 24.65625 65.921875 20.015625 65.03125 
Q 15.375 64.15625 9.8125 62.3125 
L 9.8125 71.09375 
Q 15.4375 72.65625 20.34375 73.4375 
Q 25.25 74.21875 29.59375 74.21875 
Q 40.828125 74.21875 47.359375 69.109375 
Q 53.90625 64.015625 53.90625 55.328125 
Q 53.90625 49.265625 50.4375 45.09375 
Q 46.96875 40.921875 40.578125 39.3125 
z
" id="DejaVuSans-51"/>
       </defs>
       <use xlink:href="#DejaVuSans-51"/>
       <use x="63.623047" xlink:href="#DejaVuSans-48"/>
       <use x="127.246094" xlink:href="#DejaVuSans-48"/>
      </g>
     </g>
    </g>
    <g id="xtick_5">
     <g id="line2d_5">
      <g>
       <use style="stroke:#000000;stroke-width:0.8;" x="559.827717" xlink:href="#m7237b22eba" y="390.04"/>
      </g>
     </g>
     <g id="text_5">
      <!-- 400 -->
      <g transform="translate(550.283967 404.638438)scale(0.1 -0.1)">
       <defs>
        <path d="M 37.796875 64.3125 
L 12.890625 25.390625 
L 37.796875 25.390625 
z
M 35.203125 72.90625 
L 47.609375 72.90625 
L 47.609375 25.390625 
L 58.015625 25.390625 
L 58.015625 17.1875 
L 47.609375 17.1875 
L 47.609375 0 
L 37.796875 0 
L 37.796875 17.1875 
L 4.890625 17.1875 
L 4.890625 26.703125 
z
" id="DejaVuSans-52"/>
       </defs>
       <use xlink:href="#DejaVuSans-52"/>
       <use x="63.623047" xlink:href="#DejaVuSans-48"/>
       <use x="127.246094" xlink:href="#DejaVuSans-48"/>
      </g>
     </g>
    </g>
    <g id="xtick_6">
     <g id="line2d_6">
      <g>
       <use style="stroke:#000000;stroke-width:0.8;" x="680.337828" xlink:href="#m7237b22eba" y="390.04"/>
      </g>
     </g>
     <g id="text_6">
      <!-- 500 -->
      <g transform="translate(670.794078 404.638438)scale(0.1 -0.1)">
       <defs>
        <path d="M 10.796875 72.90625 
L 49.515625 72.90625 
L 49.515625 64.59375 
L 19.828125 64.59375 
L 19.828125 46.734375 
Q 21.96875 47.46875 24.109375 47.828125 
Q 26.265625 48.1875 28.421875 48.1875 
Q 40.625 48.1875 47.75 41.5 
Q 54.890625 34.8125 54.890625 23.390625 
Q 54.890625 11.625 47.5625 5.09375 
Q 40.234375 -1.421875 26.90625 -1.421875 
Q 22.3125 -1.421875 17.546875 -0.640625 
Q 12.796875 0.140625 7.71875 1.703125 
L 7.71875 11.625 
Q 12.109375 9.234375 16.796875 8.0625 
Q 21.484375 6.890625 26.703125 6.890625 
Q 35.15625 6.890625 40.078125 11.328125 
Q 45.015625 15.765625 45.015625 23.390625 
Q 45.015625 31 40.078125 35.4375 
Q 35.15625 39.890625 26.703125 39.890625 
Q 22.75 39.890625 18.8125 39.015625 
Q 14.890625 38.140625 10.796875 36.28125 
z
" id="DejaVuSans-53"/>
       </defs>
       <use xlink:href="#DejaVuSans-53"/>
       <use x="63.623047" xlink:href="#DejaVuSans-48"/>
       <use x="127.246094" xlink:href="#DejaVuSans-48"/>
      </g>
     </g>
    </g>
    <g id="text_7">
     <!-- MC iterations -->
     <g transform="translate(345.338125 418.316562)scale(0.1 -0.1)">
      <defs>
       <path d="M 9.8125 72.90625 
L 24.515625 72.90625 
L 43.109375 23.296875 
L 61.8125 72.90625 
L 76.515625 72.90625 
L 76.515625 0 
L 66.890625 0 
L 66.890625 64.015625 
L 48.09375 14.015625 
L 38.1875 14.015625 
L 19.390625 64.015625 
L 19.390625 0 
L 9.8125 0 
z
" id="DejaVuSans-77"/>
       <path d="M 64.40625 67.28125 
L 64.40625 56.890625 
Q 59.421875 61.53125 53.78125 63.8125 
Q 48.140625 66.109375 41.796875 66.109375 
Q 29.296875 66.109375 22.65625 58.46875 
Q 16.015625 50.828125 16.015625 36.375 
Q 16.015625 21.96875 22.65625 14.328125 
Q 29.296875 6.6875 41.796875 6.6875 
Q 48.140625 6.6875 53.78125 8.984375 
Q 59.421875 11.28125 64.40625 15.921875 
L 64.40625 5.609375 
Q 59.234375 2.09375 53.4375 0.328125 
Q 47.65625 -1.421875 41.21875 -1.421875 
Q 24.65625 -1.421875 15.125 8.703125 
Q 5.609375 18.84375 5.609375 36.375 
Q 5.609375 53.953125 15.125 64.078125 
Q 24.65625 74.21875 41.21875 74.21875 
Q 47.75 74.21875 53.53125 72.484375 
Q 59.328125 70.75 64.40625 67.28125 
z
" id="DejaVuSans-67"/>
       <path id="DejaVuSans-32"/>
       <path d="M 9.421875 54.6875 
L 18.40625 54.6875 
L 18.40625 0 
L 9.421875 0 
z
M 9.421875 75.984375 
L 18.40625 75.984375 
L 18.40625 64.59375 
L 9.421875 64.59375 
z
" id="DejaVuSans-105"/>
       <path d="M 18.3125 70.21875 
L 18.3125 54.6875 
L 36.8125 54.6875 
L 36.8125 47.703125 
L 18.3125 47.703125 
L 18.3125 18.015625 
Q 18.3125 11.328125 20.140625 9.421875 
Q 21.96875 7.515625 27.59375 7.515625 
L 36.8125 7.515625 
L 36.8125 0 
L 27.59375 0 
Q 17.1875 0 13.234375 3.875 
Q 9.28125 7.765625 9.28125 18.015625 
L 9.28125 47.703125 
L 2.6875 47.703125 
L 2.6875 54.6875 
L 9.28125 54.6875 
L 9.28125 70.21875 
z
" id="DejaVuSans-116"/>
       <path d="M 56.203125 29.59375 
L 56.203125 25.203125 
L 14.890625 25.203125 
Q 15.484375 15.921875 20.484375 11.0625 
Q 25.484375 6.203125 34.421875 6.203125 
Q 39.59375 6.203125 44.453125 7.46875 
Q 49.3125 8.734375 54.109375 11.28125 
L 54.109375 2.78125 
Q 49.265625 0.734375 44.1875 -0.34375 
Q 39.109375 -1.421875 33.890625 -1.421875 
Q 20.796875 -1.421875 13.15625 6.1875 
Q 5.515625 13.8125 5.515625 26.8125 
Q 5.515625 40.234375 12.765625 48.109375 
Q 20.015625 56 32.328125 56 
Q 43.359375 56 49.78125 48.890625 
Q 56.203125 41.796875 56.203125 29.59375 
z
M 47.21875 32.234375 
Q 47.125 39.59375 43.09375 43.984375 
Q 39.0625 48.390625 32.421875 48.390625 
Q 24.90625 48.390625 20.390625 44.140625 
Q 15.875 39.890625 15.1875 32.171875 
z
" id="DejaVuSans-101"/>
       <path d="M 41.109375 46.296875 
Q 39.59375 47.171875 37.8125 47.578125 
Q 36.03125 48 33.890625 48 
Q 26.265625 48 22.1875 43.046875 
Q 18.109375 38.09375 18.109375 28.8125 
L 18.109375 0 
L 9.078125 0 
L 9.078125 54.6875 
L 18.109375 54.6875 
L 18.109375 46.1875 
Q 20.953125 51.171875 25.484375 53.578125 
Q 30.03125 56 36.53125 56 
Q 37.453125 56 38.578125 55.875 
Q 39.703125 55.765625 41.0625 55.515625 
z
" id="DejaVuSans-114"/>
       <path d="M 34.28125 27.484375 
Q 23.390625 27.484375 19.1875 25 
Q 14.984375 22.515625 14.984375 16.5 
Q 14.984375 11.71875 18.140625 8.90625 
Q 21.296875 6.109375 26.703125 6.109375 
Q 34.1875 6.109375 38.703125 11.40625 
Q 43.21875 16.703125 43.21875 25.484375 
L 43.21875 27.484375 
z
M 52.203125 31.203125 
L 52.203125 0 
L 43.21875 0 
L 43.21875 8.296875 
Q 40.140625 3.328125 35.546875 0.953125 
Q 30.953125 -1.421875 24.3125 -1.421875 
Q 15.921875 -1.421875 10.953125 3.296875 
Q 6 8.015625 6 15.921875 
Q 6 25.140625 12.171875 29.828125 
Q 18.359375 34.515625 30.609375 34.515625 
L 43.21875 34.515625 
L 43.21875 35.40625 
Q 43.21875 41.609375 39.140625 45 
Q 35.0625 48.390625 27.6875 48.390625 
Q 23 48.390625 18.546875 47.265625 
Q 14.109375 46.140625 10.015625 43.890625 
L 10.015625 52.203125 
Q 14.9375 54.109375 19.578125 55.046875 
Q 24.21875 56 28.609375 56 
Q 40.484375 56 46.34375 49.84375 
Q 52.203125 43.703125 52.203125 31.203125 
z
" id="DejaVuSans-97"/>
       <path d="M 30.609375 48.390625 
Q 23.390625 48.390625 19.1875 42.75 
Q 14.984375 37.109375 14.984375 27.296875 
Q 14.984375 17.484375 19.15625 11.84375 
Q 23.34375 6.203125 30.609375 6.203125 
Q 37.796875 6.203125 41.984375 11.859375 
Q 46.1875 17.53125 46.1875 27.296875 
Q 46.1875 37.015625 41.984375 42.703125 
Q 37.796875 48.390625 30.609375 48.390625 
z
M 30.609375 56 
Q 42.328125 56 49.015625 48.375 
Q 55.71875 40.765625 55.71875 27.296875 
Q 55.71875 13.875 49.015625 6.21875 
Q 42.328125 -1.421875 30.609375 -1.421875 
Q 18.84375 -1.421875 12.171875 6.21875 
Q 5.515625 13.875 5.515625 27.296875 
Q 5.515625 40.765625 12.171875 48.375 
Q 18.84375 56 30.609375 56 
z
" id="DejaVuSans-111"/>
       <path d="M 54.890625 33.015625 
L 54.890625 0 
L 45.90625 0 
L 45.90625 32.71875 
Q 45.90625 40.484375 42.875 44.328125 
Q 39.84375 48.1875 33.796875 48.1875 
Q 26.515625 48.1875 22.3125 43.546875 
Q 18.109375 38.921875 18.109375 30.90625 
L 18.109375 0 
L 9.078125 0 
L 9.078125 54.6875 
L 18.109375 54.6875 
L 18.109375 46.1875 
Q 21.34375 51.125 25.703125 53.5625 
Q 30.078125 56 35.796875 56 
Q 45.21875 56 50.046875 50.171875 
Q 54.890625 44.34375 54.890625 33.015625 
z
" id="DejaVuSans-110"/>
       <path d="M 44.28125 53.078125 
L 44.28125 44.578125 
Q 40.484375 46.53125 36.375 47.5 
Q 32.28125 48.484375 27.875 48.484375 
Q 21.1875 48.484375 17.84375 46.4375 
Q 14.5 44.390625 14.5 40.28125 
Q 14.5 37.15625 16.890625 35.375 
Q 19.28125 33.59375 26.515625 31.984375 
L 29.59375 31.296875 
Q 39.15625 29.25 43.1875 25.515625 
Q 47.21875 21.78125 47.21875 15.09375 
Q 47.21875 7.46875 41.1875 3.015625 
Q 35.15625 -1.421875 24.609375 -1.421875 
Q 20.21875 -1.421875 15.453125 -0.5625 
Q 10.6875 0.296875 5.421875 2 
L 5.421875 11.28125 
Q 10.40625 8.6875 15.234375 7.390625 
Q 20.0625 6.109375 24.8125 6.109375 
Q 31.15625 6.109375 34.5625 8.28125 
Q 37.984375 10.453125 37.984375 14.40625 
Q 37.984375 18.0625 35.515625 20.015625 
Q 33.0625 21.96875 24.703125 23.78125 
L 21.578125 24.515625 
Q 13.234375 26.265625 9.515625 29.90625 
Q 5.8125 33.546875 5.8125 39.890625 
Q 5.8125 47.609375 11.28125 51.796875 
Q 16.75 56 26.8125 56 
Q 31.78125 56 36.171875 55.265625 
Q 40.578125 54.546875 44.28125 53.078125 
z
" id="DejaVuSans-115"/>
      </defs>
      <use xlink:href="#DejaVuSans-77"/>
      <use x="86.279297" xlink:href="#DejaVuSans-67"/>
      <use x="156.103516" xlink:href="#DejaVuSans-32"/>
      <use x="187.890625" xlink:href="#DejaVuSans-105"/>
      <use x="215.673828" xlink:href="#DejaVuSans-116"/>
      <use x="254.882812" xlink:href="#DejaVuSans-101"/>
      <use x="316.40625" xlink:href="#DejaVuSans-114"/>
      <use x="357.519531" xlink:href="#DejaVuSans-97"/>
      <use x="418.798828" xlink:href="#DejaVuSans-116"/>
      <use x="458.007812" xlink:href="#DejaVuSans-105"/>
      <use x="485.791016" xlink:href="#DejaVuSans-111"/>
      <use x="546.972656" xlink:href="#DejaVuSans-110"/>
      <use x="610.351562" xlink:href="#DejaVuSans-115"/>
     </g>
    </g>
   </g>
   <g id="matplotlib.axis_2">
    <g id="ytick_1">
     <g id="line2d_7">
      <defs>
       <path d="M 0 0 
L -3.5 0 
" id="mce61f8e283" style="stroke:#000000;stroke-width:0.8;"/>
      </defs>
      <g>
       <use style="stroke:#000000;stroke-width:0.8;" x="47.72" xlink:href="#mce61f8e283" y="390.04"/>
      </g>
     </g>
     <g id="text_8">
      <!-- 2.5 -->
      <g transform="translate(24.816875 393.839219)scale(0.1 -0.1)">
       <defs>
        <path d="M 10.6875 12.40625 
L 21 12.40625 
L 21 0 
L 10.6875 0 
z
" id="DejaVuSans-46"/>
       </defs>
       <use xlink:href="#DejaVuSans-50"/>
       <use x="63.623047" xlink:href="#DejaVuSans-46"/>
       <use x="95.410156" xlink:href="#DejaVuSans-53"/>
      </g>
     </g>
    </g>
    <g id="ytick_2">
     <g id="line2d_8">
      <g>
       <use style="stroke:#000000;stroke-width:0.8;" x="47.72" xlink:href="#mce61f8e283" y="344.843"/>
      </g>
     </g>
     <g id="text_9">
      <!-- 3.0 -->
      <g transform="translate(24.816875 348.642219)scale(0.1 -0.1)">
       <use xlink:href="#DejaVuSans-51"/>
       <use x="63.623047" xlink:href="#DejaVuSans-46"/>
       <use x="95.410156" xlink:href="#DejaVuSans-48"/>
      </g>
     </g>
    </g>
    <g id="ytick_3">
     <g id="line2d_9">
      <g>
       <use style="stroke:#000000;stroke-width:0.8;" x="47.72" xlink:href="#mce61f8e283" y="299.646"/>
      </g>
     </g>
     <g id="text_10">
      <!-- 3.5 -->
      <g transform="translate(24.816875 303.445219)scale(0.1 -0.1)">
       <use xlink:href="#DejaVuSans-51"/>
       <use x="63.623047" xlink:href="#DejaVuSans-46"/>
       <use x="95.410156" xlink:href="#DejaVuSans-53"/>
      </g>
     </g>
    </g>
    <g id="ytick_4">
     <g id="line2d_10">
      <g>
       <use style="stroke:#000000;stroke-width:0.8;" x="47.72" xlink:href="#mce61f8e283" y="254.449"/>
      </g>
     </g>
     <g id="text_11">
      <!-- 4.0 -->
      <g transform="translate(24.816875 258.248219)scale(0.1 -0.1)">
       <use xlink:href="#DejaVuSans-52"/>
       <use x="63.623047" xlink:href="#DejaVuSans-46"/>
       <use x="95.410156" xlink:href="#DejaVuSans-48"/>
      </g>
     </g>
    </g>
    <g id="ytick_5">
     <g id="line2d_11">
      <g>
       <use style="stroke:#000000;stroke-width:0.8;" x="47.72" xlink:href="#mce61f8e283" y="209.252"/>
      </g>
     </g>
     <g id="text_12">
      <!-- 4.5 -->
      <g transform="translate(24.816875 213.051219)scale(0.1 -0.1)">
       <use xlink:href="#DejaVuSans-52"/>
       <use x="63.623047" xlink:href="#DejaVuSans-46"/>
       <use x="95.410156" xlink:href="#DejaVuSans-53"/>
      </g>
     </g>
    </g>
    <g id="ytick_6">
     <g id="line2d_12">
      <g>
       <use style="stroke:#000000;stroke-width:0.8;" x="47.72" xlink:href="#mce61f8e283" y="164.055"/>
      </g>
     </g>
     <g id="text_13">
      <!-- 5.0 -->
      <g transform="translate(24.816875 167.854219)scale(0.1 -0.1)">
       <use xlink:href="#DejaVuSans-53"/>
       <use x="63.623047" xlink:href="#DejaVuSans-46"/>
       <use x="95.410156" xlink:href="#DejaVuSans-48"/>
      </g>
     </g>
    </g>
    <g id="ytick_7">
     <g id="line2d_13">
      <g>
       <use style="stroke:#000000;stroke-width:0.8;" x="47.72" xlink:href="#mce61f8e283" y="118.858"/>
      </g>
     </g>
     <g id="text_14">
      <!-- 5.5 -->
      <g transform="translate(24.816875 122.657219)scale(0.1 -0.1)">
       <use xlink:href="#DejaVuSans-53"/>
       <use x="63.623047" xlink:href="#DejaVuSans-46"/>
       <use x="95.410156" xlink:href="#DejaVuSans-53"/>
      </g>
     </g>
    </g>
    <g id="ytick_8">
     <g id="line2d_14">
      <g>
       <use style="stroke:#000000;stroke-width:0.8;" x="47.72" xlink:href="#mce61f8e283" y="73.661"/>
      </g>
     </g>
     <g id="text_15">
      <!-- 6.0 -->
      <g transform="translate(24.816875 77.460219)scale(0.1 -0.1)">
       <defs>
        <path d="M 33.015625 40.375 
Q 26.375 40.375 22.484375 35.828125 
Q 18.609375 31.296875 18.609375 23.390625 
Q 18.609375 15.53125 22.484375 10.953125 
Q 26.375 6.390625 33.015625 6.390625 
Q 39.65625 6.390625 43.53125 10.953125 
Q 47.40625 15.53125 47.40625 23.390625 
Q 47.40625 31.296875 43.53125 35.828125 
Q 39.65625 40.375 33.015625 40.375 
z
M 52.59375 71.296875 
L 52.59375 62.3125 
Q 48.875 64.0625 45.09375 64.984375 
Q 41.3125 65.921875 37.59375 65.921875 
Q 27.828125 65.921875 22.671875 59.328125 
Q 17.53125 52.734375 16.796875 39.40625 
Q 19.671875 43.65625 24.015625 45.921875 
Q 28.375 48.1875 33.59375 48.1875 
Q 44.578125 48.1875 50.953125 41.515625 
Q 57.328125 34.859375 57.328125 23.390625 
Q 57.328125 12.15625 50.6875 5.359375 
Q 44.046875 -1.421875 33.015625 -1.421875 
Q 20.359375 -1.421875 13.671875 8.265625 
Q 6.984375 17.96875 6.984375 36.375 
Q 6.984375 53.65625 15.1875 63.9375 
Q 23.390625 74.21875 37.203125 74.21875 
Q 40.921875 74.21875 44.703125 73.484375 
Q 48.484375 72.75 52.59375 71.296875 
z
" id="DejaVuSans-54"/>
       </defs>
       <use xlink:href="#DejaVuSans-54"/>
       <use x="63.623047" xlink:href="#DejaVuSans-46"/>
       <use x="95.410156" xlink:href="#DejaVuSans-48"/>
      </g>
     </g>
    </g>
    <g id="ytick_9">
     <g id="line2d_15">
      <g>
       <use style="stroke:#000000;stroke-width:0.8;" x="47.72" xlink:href="#mce61f8e283" y="28.464"/>
      </g>
     </g>
     <g id="text_16">
      <!-- 6.5 -->
      <g transform="translate(24.816875 32.263219)scale(0.1 -0.1)">
       <use xlink:href="#DejaVuSans-54"/>
       <use x="63.623047" xlink:href="#DejaVuSans-46"/>
       <use x="95.410156" xlink:href="#DejaVuSans-53"/>
      </g>
     </g>
    </g>
    <g id="text_17">
     <!-- ANEES -->
     <g transform="translate(18.737188 225.905906)rotate(-90)scale(0.1 -0.1)">
      <defs>
       <path d="M 34.1875 63.1875 
L 20.796875 26.90625 
L 47.609375 26.90625 
z
M 28.609375 72.90625 
L 39.796875 72.90625 
L 67.578125 0 
L 57.328125 0 
L 50.6875 18.703125 
L 17.828125 18.703125 
L 11.1875 0 
L 0.78125 0 
z
" id="DejaVuSans-65"/>
       <path d="M 9.8125 72.90625 
L 23.09375 72.90625 
L 55.421875 11.921875 
L 55.421875 72.90625 
L 64.984375 72.90625 
L 64.984375 0 
L 51.703125 0 
L 19.390625 60.984375 
L 19.390625 0 
L 9.8125 0 
z
" id="DejaVuSans-78"/>
       <path d="M 9.8125 72.90625 
L 55.90625 72.90625 
L 55.90625 64.59375 
L 19.671875 64.59375 
L 19.671875 43.015625 
L 54.390625 43.015625 
L 54.390625 34.71875 
L 19.671875 34.71875 
L 19.671875 8.296875 
L 56.78125 8.296875 
L 56.78125 0 
L 9.8125 0 
z
" id="DejaVuSans-69"/>
       <path d="M 53.515625 70.515625 
L 53.515625 60.890625 
Q 47.90625 63.578125 42.921875 64.890625 
Q 37.9375 66.21875 33.296875 66.21875 
Q 25.25 66.21875 20.875 63.09375 
Q 16.5 59.96875 16.5 54.203125 
Q 16.5 49.359375 19.40625 46.890625 
Q 22.3125 44.4375 30.421875 42.921875 
L 36.375 41.703125 
Q 47.40625 39.59375 52.65625 34.296875 
Q 57.90625 29 57.90625 20.125 
Q 57.90625 9.515625 50.796875 4.046875 
Q 43.703125 -1.421875 29.984375 -1.421875 
Q 24.8125 -1.421875 18.96875 -0.25 
Q 13.140625 0.921875 6.890625 3.21875 
L 6.890625 13.375 
Q 12.890625 10.015625 18.65625 8.296875 
Q 24.421875 6.59375 29.984375 6.59375 
Q 38.421875 6.59375 43.015625 9.90625 
Q 47.609375 13.234375 47.609375 19.390625 
Q 47.609375 24.75 44.3125 27.78125 
Q 41.015625 30.8125 33.5 32.328125 
L 27.484375 33.5 
Q 16.453125 35.6875 11.515625 40.375 
Q 6.59375 45.0625 6.59375 53.421875 
Q 6.59375 63.09375 13.40625 68.65625 
Q 20.21875 74.21875 32.171875 74.21875 
Q 37.3125 74.21875 42.625 73.28125 
Q 47.953125 72.359375 53.515625 70.515625 
z
" id="DejaVuSans-83"/>
      </defs>
      <use xlink:href="#DejaVuSans-65"/>
      <use x="68.408203" xlink:href="#DejaVuSans-78"/>
      <use x="143.212891" xlink:href="#DejaVuSans-69"/>
      <use x="206.396484" xlink:href="#DejaVuSans-69"/>
      <use x="269.580078" xlink:href="#DejaVuSans-83"/>
     </g>
    </g>
   </g>
   <g id="line2d_16">
    <path clip-path="url(#p6c62c799ed)" d="M 77.787273 357.709805 
L 78.992374 329.317719 
L 80.197475 316.242562 
L 81.402576 308.304609 
L 82.607677 302.826273 
L 83.812778 298.750605 
L 85.017879 295.564442 
L 86.222981 292.984363 
L 87.428082 290.839294 
L 88.633183 289.019013 
L 89.838284 287.448857 
L 92.248486 284.862753 
L 94.658688 282.805634 
L 97.068891 281.1184 
L 99.479093 279.701838 
L 101.889295 278.490425 
L 105.504598 276.962617 
L 109.119902 275.694492 
L 113.940306 274.296453 
L 118.760711 273.143367 
L 124.786216 271.950894 
L 132.016823 270.783189 
L 140.452531 269.678285 
L 150.093339 268.654858 
L 162.144351 267.626072 
L 176.605564 266.644775 
L 193.476979 265.737586 
L 213.963698 264.868282 
L 239.270822 264.029282 
L 270.603451 263.226598 
L 309.166686 262.470191 
L 357.370731 261.752924 
L 418.830887 261.067836 
L 498.367561 260.413905 
L 602.006256 259.79563 
L 679.132727 259.44295 
L 679.132727 259.44295 
" style="fill:none;stroke:#000000;stroke-linecap:square;stroke-width:1.5;"/>
   </g>
   <g id="line2d_17">
    <path clip-path="url(#p6c62c799ed)" d="M 77.787273 134.095862 
L 78.992374 171.026316 
L 80.197475 186.951071 
L 81.402576 196.314472 
L 82.607677 202.648283 
L 83.812778 207.294353 
L 85.017879 210.887989 
L 86.222981 213.773695 
L 87.428082 216.156487 
L 88.633183 218.166956 
L 89.838284 219.892725 
L 91.043385 221.395059 
L 93.453587 223.895195 
L 95.863789 225.904917 
L 98.273992 227.565822 
L 100.684194 228.968223 
L 103.094396 230.172784 
L 106.709699 231.698222 
L 110.325003 232.969159 
L 115.145407 234.374725 
L 119.965812 235.537074 
L 125.991317 236.741618 
L 133.221924 237.923214 
L 141.657632 239.042796 
L 151.298441 240.08086 
L 163.349452 241.125096 
L 176.605564 242.046924 
L 193.476979 242.983887 
L 213.963698 243.879516 
L 238.065721 244.70549 
L 268.193248 245.509014 
L 305.551383 246.274962 
L 352.550326 247.007112 
L 412.805382 247.710018 
L 489.931853 248.373865 
L 589.955245 249.000017 
L 679.132727 249.420803 
L 679.132727 249.420803 
" style="fill:none;stroke:#000000;stroke-linecap:square;stroke-width:1.5;"/>
   </g>
   <g id="line2d_18">
    <path clip-path="url(#p6c62c799ed)" d="M 77.787273 128.097802 
L 78.992374 182.360317 
L 80.197475 143.705306 
L 81.402576 152.028712 
L 82.607677 143.394194 
L 83.812778 142.948472 
L 85.017879 136.835952 
L 86.222981 146.735724 
L 87.428082 136.709557 
L 88.633183 134.417457 
L 89.838284 136.152442 
L 91.043385 140.920552 
L 92.248486 131.669372 
L 93.453587 134.618616 
L 95.863789 125.180929 
L 97.068891 130.011739 
L 98.273992 114.062982 
L 99.479093 111.130209 
L 100.684194 117.728366 
L 101.889295 116.777642 
L 103.094396 114.428477 
L 104.299497 115.533786 
L 105.504598 115.99169 
L 106.709699 119.682935 
L 107.914801 117.056201 
L 109.119902 115.797071 
L 110.325003 120.673598 
L 112.735205 120.388444 
L 113.940306 119.014665 
L 115.145407 116.105905 
L 116.350508 117.338101 
L 117.555609 114.412919 
L 118.760711 117.582837 
L 119.965812 114.967866 
L 121.170913 110.924116 
L 122.376014 107.884943 
L 123.581115 106.342177 
L 124.786216 105.566154 
L 125.991317 107.840782 
L 127.196418 109.368441 
L 128.401519 113.139722 
L 129.606621 114.307126 
L 130.811722 113.97061 
L 132.016823 115.648294 
L 133.221924 114.83509 
L 134.427025 113.072291 
L 135.632126 115.139239 
L 136.837227 114.550628 
L 138.042328 109.209784 
L 139.247429 110.307294 
L 140.452531 114.40757 
L 141.657632 112.502671 
L 142.862733 113.301445 
L 144.067834 113.758391 
L 145.272935 112.905203 
L 146.478036 110.488413 
L 147.683137 111.244067 
L 148.888238 104.660039 
L 150.093339 104.012797 
L 151.298441 103.76107 
L 152.503542 105.297131 
L 153.708643 105.854743 
L 154.913744 102.935302 
L 156.118845 105.849421 
L 157.323946 107.342253 
L 158.529047 107.614574 
L 159.734148 107.026637 
L 160.939249 106.70622 
L 162.144351 107.256864 
L 163.349452 109.544508 
L 165.759654 106.894665 
L 166.964755 108.943323 
L 168.169856 109.164412 
L 169.374957 110.902972 
L 170.580058 111.675356 
L 171.785159 111.740293 
L 172.990261 111.188787 
L 174.195362 110.964341 
L 176.605564 111.378736 
L 177.810665 113.289283 
L 179.015766 113.040992 
L 180.220867 113.216661 
L 181.425968 113.241831 
L 182.631069 114.542283 
L 183.836171 114.681398 
L 185.041272 116.36325 
L 186.246373 116.115585 
L 187.451474 114.879398 
L 188.656575 115.920555 
L 189.861676 116.49372 
L 191.066777 117.626931 
L 192.271878 118.04253 
L 193.476979 118.728388 
L 194.682081 120.381694 
L 195.887182 121.021964 
L 197.092283 122.092717 
L 198.297384 121.508499 
L 199.502485 121.668973 
L 200.707586 119.772934 
L 201.912687 119.187115 
L 203.117788 120.351971 
L 204.322889 120.386608 
L 205.527991 120.894411 
L 206.733092 119.753216 
L 207.938193 118.956155 
L 209.143294 119.857977 
L 210.348395 120.104834 
L 211.553496 119.583635 
L 212.758597 121.120996 
L 215.168799 121.597316 
L 216.373901 121.675875 
L 217.579002 122.532757 
L 218.784103 123.94802 
L 219.989204 123.216876 
L 221.194305 122.893525 
L 222.399406 122.869453 
L 224.809608 123.212039 
L 226.014709 122.412576 
L 227.219811 123.346489 
L 228.424912 123.246544 
L 229.630013 122.617373 
L 232.040215 124.532874 
L 233.245316 125.453993 
L 234.450417 125.300299 
L 235.655518 125.033065 
L 236.860619 125.123686 
L 239.270822 124.561825 
L 240.475923 125.912838 
L 241.681024 126.736007 
L 242.886125 126.247747 
L 244.091226 124.839056 
L 245.296327 123.81752 
L 246.501428 123.488341 
L 250.116732 120.54781 
L 251.321833 120.635959 
L 252.526934 121.8861 
L 253.732035 122.274599 
L 254.937136 122.466335 
L 256.142237 121.810753 
L 257.347338 122.025735 
L 258.552439 121.538691 
L 259.757541 121.607825 
L 260.962642 122.346217 
L 262.167743 122.748352 
L 263.372844 122.521703 
L 264.577945 122.879043 
L 265.783046 123.05316 
L 266.988147 123.574505 
L 268.193248 123.416459 
L 269.398349 123.786463 
L 270.603451 123.898983 
L 271.808552 123.109921 
L 273.013653 123.228843 
L 274.218754 123.742976 
L 275.423855 123.399707 
L 276.628956 123.235383 
L 277.834057 123.297105 
L 279.039158 123.041672 
L 280.244259 122.51742 
L 282.654462 122.545034 
L 283.859563 123.767046 
L 285.064664 123.797353 
L 286.269765 123.401611 
L 287.474866 124.458578 
L 288.679967 124.750634 
L 289.885068 124.926702 
L 291.090169 124.77938 
L 292.295271 124.970954 
L 293.500372 124.370863 
L 294.705473 125.010121 
L 295.910574 125.780941 
L 297.115675 125.387357 
L 298.320776 125.838174 
L 299.525877 125.016654 
L 300.730978 125.043381 
L 301.936079 124.955801 
L 303.141181 124.54982 
L 305.551383 124.753393 
L 306.756484 124.243588 
L 307.961585 124.342023 
L 310.371787 124.926206 
L 311.576888 125.270112 
L 312.781989 125.078932 
L 313.987091 125.597115 
L 315.192192 124.952026 
L 316.397293 125.190439 
L 317.602394 124.891144 
L 318.807495 125.058747 
L 320.012596 125.65669 
L 321.217697 126.006252 
L 322.422798 124.8514 
L 323.627899 124.851052 
L 324.833001 125.323229 
L 326.038102 125.075977 
L 328.448304 125.051362 
L 329.653405 125.269166 
L 330.858506 125.622015 
L 332.063607 126.503852 
L 333.268708 127.125173 
L 336.884012 128.003864 
L 338.089113 127.962846 
L 339.294214 127.783191 
L 340.499315 128.347322 
L 341.704416 128.410812 
L 342.909517 129.297904 
L 344.114618 128.950152 
L 346.524821 129.268273 
L 347.729922 128.242967 
L 348.935023 127.932947 
L 350.140124 128.292666 
L 351.345225 127.463902 
L 352.550326 127.267 
L 353.755427 127.331966 
L 354.960528 127.63216 
L 356.165629 127.494274 
L 357.370731 127.500247 
L 358.575832 127.16435 
L 359.780933 126.17531 
L 360.986034 126.590702 
L 362.191135 126.498062 
L 363.396236 126.55503 
L 364.601337 126.98314 
L 365.806438 126.723633 
L 367.011539 125.816301 
L 368.216641 125.59542 
L 369.421742 125.029195 
L 370.626843 124.312469 
L 373.037045 124.654446 
L 374.242146 124.423653 
L 375.447247 124.932508 
L 377.857449 125.410736 
L 379.062551 125.574427 
L 380.267652 125.147298 
L 381.472753 124.907329 
L 382.677854 125.116155 
L 385.088056 125.015673 
L 386.293157 125.10653 
L 387.498258 124.619966 
L 388.703359 123.523197 
L 389.908461 124.09506 
L 392.318663 123.979824 
L 394.728865 124.239942 
L 395.933966 124.214791 
L 397.139067 123.847654 
L 399.549269 124.1858 
L 400.754371 123.721288 
L 403.164573 124.362248 
L 404.369674 124.355726 
L 405.574775 124.733503 
L 406.779876 124.890566 
L 407.984977 125.200055 
L 409.190078 124.709099 
L 410.395179 124.727007 
L 411.600281 123.915262 
L 412.805382 124.002621 
L 414.010483 123.821102 
L 415.215584 123.913468 
L 416.420685 123.657159 
L 417.625786 124.015823 
L 420.035988 123.669078 
L 421.241089 123.152926 
L 422.446191 122.850114 
L 423.651292 122.971161 
L 424.856393 122.801889 
L 426.061494 123.362816 
L 427.266595 123.493845 
L 428.471696 123.489496 
L 429.676797 123.038336 
L 430.881898 123.309121 
L 433.292101 122.77288 
L 434.497202 122.901178 
L 436.907404 122.166143 
L 438.112505 122.072108 
L 439.317606 122.289385 
L 440.522707 122.351355 
L 441.727808 122.286892 
L 442.932909 122.447823 
L 445.343112 121.941809 
L 447.753314 121.39909 
L 450.163516 122.153922 
L 451.368617 121.791212 
L 452.573718 121.845159 
L 454.983921 122.397455 
L 456.189022 122.47318 
L 457.394123 121.89304 
L 458.599224 122.42308 
L 461.009426 122.402609 
L 462.214527 122.199208 
L 463.419628 122.292207 
L 464.624729 122.512688 
L 465.829831 122.939854 
L 467.034932 122.84508 
L 470.650235 123.485345 
L 473.060437 123.721419 
L 474.265538 123.341552 
L 476.675741 123.497927 
L 480.291044 124.328812 
L 481.496145 124.722687 
L 483.906347 124.954748 
L 485.111448 124.871609 
L 488.726752 125.134276 
L 489.931853 125.006824 
L 491.136954 125.097688 
L 493.547156 125.66 
L 494.752257 125.744589 
L 498.367561 125.470484 
L 500.777763 125.158084 
L 501.982864 125.252792 
L 503.187965 125.100326 
L 504.393066 125.430809 
L 505.598167 125.119501 
L 506.803268 125.243883 
L 508.008369 124.631384 
L 510.418572 124.113446 
L 511.623673 124.506562 
L 514.033875 124.39686 
L 515.238976 124.707787 
L 516.444077 124.766752 
L 517.649178 124.983454 
L 518.854279 124.846329 
L 521.264482 125.020496 
L 522.469583 124.275753 
L 524.879785 124.279429 
L 526.084886 124.756197 
L 528.495088 124.943686 
L 529.700189 124.889921 
L 534.520594 125.169101 
L 535.725695 125.077734 
L 536.930796 124.42062 
L 540.546099 123.989329 
L 544.161403 124.087232 
L 547.776706 124.187756 
L 548.981807 123.929526 
L 550.186908 124.164283 
L 551.392009 124.038757 
L 552.597111 124.219308 
L 555.007313 124.057028 
L 557.417515 124.334522 
L 558.622616 124.060067 
L 562.237919 124.209022 
L 563.443021 123.966772 
L 564.648122 124.226165 
L 567.058324 124.474231 
L 568.263425 124.335825 
L 570.673627 124.338108 
L 571.878728 124.198513 
L 573.083829 124.589669 
L 574.288931 124.390265 
L 575.494032 124.034562 
L 576.699133 124.307355 
L 577.904234 124.187411 
L 579.109335 124.495083 
L 583.929739 124.800763 
L 585.134841 124.743925 
L 587.545043 123.91696 
L 589.955245 124.111648 
L 591.160346 123.919133 
L 592.365447 124.126589 
L 593.570548 124.207483 
L 594.775649 124.073566 
L 595.980751 124.052583 
L 597.185852 124.202608 
L 598.390953 124.631833 
L 602.006256 125.218548 
L 605.621559 124.922662 
L 606.826661 125.084101 
L 608.031762 125.377228 
L 610.441964 125.329198 
L 611.647065 125.012079 
L 612.852166 124.990513 
L 614.057267 125.35124 
L 615.262368 125.254315 
L 616.467469 125.478493 
L 617.672571 125.84004 
L 620.082773 125.525194 
L 621.287874 125.181792 
L 622.492975 125.285962 
L 623.698076 125.244358 
L 624.903177 124.893727 
L 628.518481 125.360165 
L 630.928683 124.691684 
L 632.133784 124.270832 
L 635.749087 124.392119 
L 636.954188 124.078065 
L 638.159289 123.575662 
L 639.364391 123.318624 
L 640.569492 123.264617 
L 641.774593 123.526396 
L 642.979694 123.444156 
L 644.184795 123.563525 
L 646.594997 123.561646 
L 647.800098 123.658733 
L 652.620503 123.485426 
L 655.030705 123.304472 
L 657.440907 123.856859 
L 659.851109 123.276241 
L 664.671514 123.324038 
L 667.081716 123.015099 
L 668.286817 123.226764 
L 669.491918 123.059901 
L 670.697019 123.095388 
L 671.902121 122.956246 
L 673.107222 123.205302 
L 674.312323 122.829909 
L 676.722525 123.115613 
L 677.927626 123.007595 
L 679.132727 123.091497 
L 679.132727 123.091497 
" style="fill:none;stroke:#0000ff;stroke-linecap:square;stroke-width:1.5;"/>
   </g>
   <g id="line2d_19">
    <path clip-path="url(#p6c62c799ed)" d="M 77.787273 242.13918 
L 78.992374 296.873836 
L 80.197475 272.618242 
L 81.402576 283.686871 
L 82.607677 279.541284 
L 83.812778 278.600649 
L 85.017879 275.532204 
L 86.222981 279.989126 
L 87.428082 273.205049 
L 88.633183 275.72003 
L 91.043385 278.329654 
L 92.248486 274.503357 
L 93.453587 276.915118 
L 95.863789 268.666246 
L 97.068891 271.158973 
L 98.273992 256.898621 
L 99.479093 252.505893 
L 100.684194 255.097799 
L 101.889295 253.401366 
L 103.094396 251.373663 
L 104.299497 253.228906 
L 105.504598 252.124146 
L 106.709699 254.575729 
L 109.119902 253.567764 
L 110.325003 257.151918 
L 111.530104 257.489312 
L 112.735205 257.69607 
L 113.940306 257.489375 
L 115.145407 254.701417 
L 116.350508 255.663788 
L 117.555609 253.659098 
L 118.760711 256.108713 
L 119.965812 254.830984 
L 121.170913 250.937604 
L 123.581115 246.820816 
L 124.786216 247.211905 
L 125.991317 248.447652 
L 127.196418 249.324805 
L 128.401519 251.854755 
L 130.811722 251.354967 
L 132.016823 252.521037 
L 133.221924 252.344429 
L 134.427025 251.147008 
L 135.632126 252.316956 
L 136.837227 251.76672 
L 138.042328 248.051616 
L 139.247429 248.711328 
L 140.452531 251.376248 
L 141.657632 250.472205 
L 142.862733 251.536694 
L 144.067834 251.596334 
L 145.272935 250.907483 
L 146.478036 249.385232 
L 147.683137 250.14217 
L 148.888238 245.5789 
L 150.093339 245.721748 
L 151.298441 245.496478 
L 152.503542 246.665093 
L 153.708643 247.133145 
L 154.913744 244.710144 
L 156.118845 246.707509 
L 157.323946 247.932643 
L 158.529047 248.239696 
L 159.734148 247.792517 
L 160.939249 247.202249 
L 162.144351 246.847164 
L 163.349452 248.487985 
L 165.759654 246.30535 
L 166.964755 247.547479 
L 168.169856 247.776828 
L 169.374957 248.771729 
L 170.580058 249.468362 
L 171.785159 249.437187 
L 174.195362 247.986582 
L 175.400463 248.102079 
L 176.605564 247.927038 
L 177.810665 249.229316 
L 179.015766 248.736849 
L 180.220867 248.752059 
L 181.425968 248.892974 
L 182.631069 249.662098 
L 183.836171 249.731834 
L 185.041272 250.643756 
L 186.246373 250.719563 
L 187.451474 250.03216 
L 188.656575 250.949662 
L 191.066777 252.499782 
L 192.271878 252.674515 
L 193.476979 252.993791 
L 194.682081 254.006627 
L 195.887182 254.224846 
L 197.092283 255.134892 
L 198.297384 254.517468 
L 199.502485 254.745966 
L 200.707586 254.045386 
L 201.912687 253.591891 
L 203.117788 254.341234 
L 204.322889 254.178981 
L 205.527991 254.612875 
L 207.938193 252.5389 
L 209.143294 253.088064 
L 210.348395 253.088698 
L 211.553496 252.552596 
L 212.758597 253.852728 
L 215.168799 254.417438 
L 216.373901 254.359227 
L 217.579002 254.921202 
L 218.784103 255.66345 
L 221.194305 255.032313 
L 222.399406 254.938984 
L 223.604507 255.160369 
L 224.809608 255.565814 
L 226.014709 254.997851 
L 227.219811 255.544271 
L 228.424912 255.608237 
L 229.630013 255.151025 
L 233.245316 257.294024 
L 234.450417 256.889301 
L 235.655518 256.815315 
L 236.860619 256.899503 
L 238.065721 256.819459 
L 239.270822 256.398999 
L 240.475923 257.47029 
L 241.681024 258.024409 
L 242.886125 257.843644 
L 244.091226 256.725297 
L 245.296327 256.166146 
L 246.501428 255.844981 
L 247.706529 255.054334 
L 248.911631 254.789127 
L 250.116732 254.347123 
L 251.321833 254.152604 
L 252.526934 255.063911 
L 253.732035 255.444734 
L 254.937136 255.561883 
L 256.142237 255.134716 
L 257.347338 255.177603 
L 258.552439 254.860082 
L 259.757541 255.122135 
L 260.962642 255.59095 
L 262.167743 255.899274 
L 263.372844 255.960919 
L 264.577945 255.90942 
L 265.783046 256.099194 
L 266.988147 256.472303 
L 268.193248 256.296047 
L 270.603451 256.456232 
L 271.808552 255.892511 
L 273.013653 256.008577 
L 274.218754 256.563485 
L 275.423855 256.212388 
L 276.628956 256.188289 
L 277.834057 255.935399 
L 280.244259 255.607711 
L 281.449361 255.88961 
L 282.654462 255.734906 
L 283.859563 256.561156 
L 285.064664 256.447031 
L 286.269765 256.065894 
L 287.474866 256.771109 
L 288.679967 257.192912 
L 292.295271 257.213644 
L 293.500372 256.871581 
L 295.910574 257.671045 
L 297.115675 257.495433 
L 298.320776 257.753402 
L 299.525877 257.386578 
L 300.730978 257.498507 
L 303.141181 256.823314 
L 304.346282 256.768233 
L 305.551383 257.021536 
L 306.756484 256.784343 
L 307.961585 256.949735 
L 311.576888 258.052418 
L 312.781989 257.922571 
L 313.987091 258.445787 
L 315.192192 258.034026 
L 316.397293 258.159772 
L 317.602394 257.938232 
L 318.807495 258.215273 
L 320.012596 258.744625 
L 321.217697 258.96144 
L 322.422798 258.229334 
L 323.627899 258.305142 
L 324.833001 258.717051 
L 326.038102 258.492737 
L 328.448304 258.446562 
L 329.653405 258.558557 
L 330.858506 258.810258 
L 332.063607 259.374493 
L 333.268708 259.737217 
L 338.089113 260.031891 
L 339.294214 259.792528 
L 340.499315 260.219659 
L 341.704416 260.279528 
L 342.909517 261.036038 
L 344.114618 260.677134 
L 346.524821 261.153164 
L 347.729922 260.312173 
L 348.935023 259.831255 
L 350.140124 260.064474 
L 351.345225 259.480057 
L 352.550326 259.450815 
L 353.755427 259.283105 
L 354.960528 259.641363 
L 356.165629 259.526285 
L 357.370731 259.614963 
L 358.575832 259.238647 
L 359.780933 258.676512 
L 360.986034 258.76474 
L 363.396236 258.523497 
L 364.601337 258.713119 
L 365.806438 258.588804 
L 367.011539 258.058848 
L 369.421742 257.733418 
L 370.626843 257.03388 
L 373.037045 257.385088 
L 374.242146 257.262373 
L 377.857449 258.128112 
L 379.062551 258.323633 
L 380.267652 258.268322 
L 381.472753 258.096774 
L 382.677854 258.300414 
L 386.293157 258.293007 
L 387.498258 258.012453 
L 388.703359 257.170121 
L 389.908461 257.583981 
L 395.933966 257.373243 
L 397.139067 256.980511 
L 399.549269 257.228415 
L 400.754371 256.920885 
L 403.164573 257.339776 
L 404.369674 257.157012 
L 407.984977 257.731774 
L 409.190078 257.564181 
L 410.395179 257.525823 
L 411.600281 256.951519 
L 414.010483 256.884732 
L 415.215584 256.968412 
L 416.420685 256.594553 
L 417.625786 256.857449 
L 420.035988 256.581742 
L 421.241089 256.289072 
L 422.446191 256.15481 
L 423.651292 256.222255 
L 424.856393 256.138312 
L 426.061494 256.475595 
L 427.266595 256.697438 
L 428.471696 256.737494 
L 429.676797 256.553692 
L 430.881898 256.748501 
L 432.086999 256.492838 
L 433.292101 256.42501 
L 434.497202 256.574373 
L 436.907404 256.264754 
L 438.112505 256.198387 
L 440.522707 256.589932 
L 441.727808 256.58505 
L 442.932909 256.740397 
L 445.343112 256.379756 
L 447.753314 256.03556 
L 450.163516 256.626669 
L 451.368617 256.271344 
L 452.573718 256.259752 
L 456.189022 256.593927 
L 457.394123 256.266809 
L 458.599224 256.542861 
L 461.009426 256.519461 
L 462.214527 256.285259 
L 463.419628 256.213272 
L 464.624729 256.329323 
L 465.829831 256.606861 
L 467.034932 256.500607 
L 469.445134 256.785856 
L 471.855336 257.2216 
L 473.060437 257.279089 
L 474.265538 257.084483 
L 475.470639 257.062801 
L 477.880842 257.364235 
L 479.085943 257.543109 
L 480.291044 257.606583 
L 481.496145 257.854631 
L 482.701246 257.913167 
L 483.906347 258.106326 
L 486.316549 258.125995 
L 488.726752 258.265082 
L 489.931853 258.127267 
L 491.136954 258.121314 
L 494.752257 258.730462 
L 501.982864 258.272679 
L 503.187965 258.193176 
L 504.393066 258.417066 
L 505.598167 258.118457 
L 506.803268 258.29074 
L 508.008369 258.125959 
L 509.213471 257.802682 
L 510.418572 257.679525 
L 511.623673 257.912264 
L 514.033875 257.806098 
L 515.238976 258.081672 
L 517.649178 258.221269 
L 518.854279 258.225862 
L 521.264482 258.453336 
L 522.469583 258.015717 
L 523.674684 257.935763 
L 524.879785 257.984375 
L 526.084886 258.257606 
L 527.289987 258.270411 
L 528.495088 258.400374 
L 530.905291 258.502022 
L 532.110392 258.566674 
L 535.725695 258.456173 
L 536.930796 257.904374 
L 539.340998 257.682597 
L 540.546099 257.59768 
L 541.751201 257.679372 
L 542.956302 257.64449 
L 544.161403 257.746439 
L 551.392009 257.606152 
L 552.597111 257.680388 
L 555.007313 257.376394 
L 557.417515 257.637945 
L 559.827717 257.552017 
L 561.032818 257.656363 
L 563.443021 257.387068 
L 565.853223 257.577415 
L 569.468526 257.62044 
L 571.878728 257.489736 
L 573.083829 257.823678 
L 574.288931 257.795721 
L 575.494032 257.598551 
L 576.699133 257.693585 
L 577.904234 257.589173 
L 579.109335 257.804733 
L 585.134841 258.026857 
L 586.339942 257.795949 
L 587.545043 257.336981 
L 589.955245 257.49343 
L 591.160346 257.328537 
L 593.570548 257.526569 
L 594.775649 257.404043 
L 597.185852 257.480908 
L 598.390953 257.800317 
L 600.801155 258.086902 
L 602.006256 258.2238 
L 606.826661 258.041419 
L 608.031762 258.266765 
L 609.236863 258.376833 
L 610.441964 258.295243 
L 611.647065 257.959572 
L 612.852166 257.957457 
L 614.057267 258.193568 
L 615.262368 258.264426 
L 617.672571 258.728721 
L 620.082773 258.679553 
L 621.287874 258.479623 
L 623.698076 258.498824 
L 624.903177 258.256818 
L 628.518481 258.422798 
L 632.133784 257.579849 
L 635.749087 257.531373 
L 636.954188 257.232211 
L 638.159289 256.762549 
L 640.569492 256.583547 
L 641.774593 256.756747 
L 642.979694 256.648451 
L 645.389896 256.767119 
L 646.594997 256.770459 
L 647.800098 256.888231 
L 651.415402 256.997698 
L 653.825604 257.078338 
L 655.030705 256.993368 
L 657.440907 257.375831 
L 661.056211 256.940555 
L 662.261312 257.061946 
L 663.466413 256.917222 
L 664.671514 256.939971 
L 665.876615 256.77858 
L 673.107222 257.0653 
L 674.312323 256.774729 
L 676.722525 257.063329 
L 679.132727 257.116386 
L 679.132727 257.116386 
" style="fill:none;stroke:#ff0000;stroke-linecap:square;stroke-width:1.5;"/>
   </g>
   <g id="line2d_20">
    <path clip-path="url(#p6c62c799ed)" d="M 77.787273 236.030697 
L 78.992374 291.233603 
L 80.197475 265.060005 
L 81.402576 278.209845 
L 82.607677 277.524456 
L 83.812778 278.421653 
L 85.017879 275.375113 
L 86.222981 280.278011 
L 87.428082 273.546833 
L 88.633183 276.053978 
L 91.043385 276.696814 
L 92.248486 271.163958 
L 93.453587 273.188807 
L 95.863789 263.443686 
L 97.068891 266.029179 
L 98.273992 252.15874 
L 99.479093 248.219405 
L 100.684194 251.106194 
L 101.889295 249.650781 
L 103.094396 246.909104 
L 104.299497 249.03498 
L 105.504598 247.694192 
L 106.709699 250.447449 
L 107.914801 249.743409 
L 109.119902 249.846153 
L 110.325003 253.063575 
L 111.530104 253.072822 
L 113.940306 253.449735 
L 115.145407 251.111089 
L 116.350508 251.741544 
L 117.555609 249.858603 
L 118.760711 252.1943 
L 119.965812 251.526408 
L 121.170913 247.690119 
L 122.376014 245.600702 
L 123.581115 243.768202 
L 124.786216 243.908916 
L 125.991317 244.997477 
L 127.196418 246.424866 
L 128.401519 248.786468 
L 130.811722 248.181296 
L 132.016823 249.782917 
L 133.221924 249.757819 
L 134.427025 249.037126 
L 135.632126 250.339737 
L 136.837227 250.065004 
L 138.042328 246.576436 
L 139.247429 247.560471 
L 140.452531 250.306397 
L 141.657632 249.33763 
L 142.862733 250.16418 
L 144.067834 250.191224 
L 145.272935 249.816565 
L 146.478036 248.573335 
L 147.683137 249.164769 
L 148.888238 244.742287 
L 150.093339 245.072039 
L 151.298441 244.907724 
L 152.503542 246.124185 
L 153.708643 246.757506 
L 154.913744 244.652403 
L 156.118845 246.930351 
L 157.323946 248.298919 
L 158.529047 248.638677 
L 159.734148 248.293153 
L 160.939249 247.821343 
L 162.144351 247.730653 
L 163.349452 249.251975 
L 164.554553 248.425551 
L 165.759654 247.450499 
L 166.964755 248.62754 
L 168.169856 249.072598 
L 169.374957 249.968977 
L 170.580058 250.703802 
L 171.785159 250.586901 
L 174.195362 249.348005 
L 176.605564 249.32587 
L 177.810665 250.571473 
L 179.015766 250.135131 
L 180.220867 249.921985 
L 181.425968 250.023357 
L 182.631069 250.508361 
L 183.836171 250.426996 
L 185.041272 251.512515 
L 186.246373 251.567054 
L 187.451474 251.132453 
L 191.066777 253.755484 
L 192.271878 253.853318 
L 193.476979 254.077606 
L 194.682081 254.965879 
L 195.887182 254.939886 
L 197.092283 255.71253 
L 198.297384 255.108653 
L 199.502485 255.3281 
L 201.912687 254.3277 
L 203.117788 255.047037 
L 204.322889 254.701493 
L 205.527991 255.151491 
L 206.733092 254.05537 
L 207.938193 253.174188 
L 209.143294 253.597669 
L 210.348395 253.441253 
L 211.553496 252.875681 
L 212.758597 254.081862 
L 213.963698 254.261561 
L 215.168799 254.664781 
L 216.373901 254.351765 
L 217.579002 254.962058 
L 218.784103 255.776727 
L 219.989204 255.401787 
L 221.194305 255.209778 
L 223.604507 255.514881 
L 224.809608 255.810682 
L 226.014709 255.273497 
L 227.219811 255.682051 
L 228.424912 255.801387 
L 229.630013 255.362576 
L 232.040215 256.903172 
L 233.245316 257.482574 
L 234.450417 257.220629 
L 235.655518 257.138092 
L 236.860619 257.331058 
L 238.065721 257.153561 
L 239.270822 256.576236 
L 240.475923 257.65516 
L 241.681024 258.164338 
L 242.886125 258.04617 
L 244.091226 257.002695 
L 245.296327 256.322282 
L 246.501428 255.952936 
L 247.706529 255.105837 
L 248.911631 254.806781 
L 251.321833 253.998721 
L 252.526934 254.857495 
L 253.732035 255.190256 
L 254.937136 255.338384 
L 256.142237 255.002824 
L 257.347338 255.04283 
L 258.552439 254.648839 
L 259.757541 254.915853 
L 260.962642 255.410008 
L 262.167743 255.721335 
L 264.577945 255.719725 
L 266.988147 256.284017 
L 269.398349 256.359724 
L 270.603451 256.509982 
L 271.808552 255.983688 
L 273.013653 256.017805 
L 274.218754 256.636735 
L 275.423855 256.176346 
L 276.628956 256.140009 
L 277.834057 255.886376 
L 279.039158 255.911757 
L 280.244259 255.787283 
L 281.449361 256.023836 
L 282.654462 255.958842 
L 283.859563 256.759475 
L 285.064664 256.668545 
L 286.269765 256.253716 
L 287.474866 257.010699 
L 288.679967 257.4542 
L 292.295271 257.444115 
L 293.500372 257.185991 
L 295.910574 257.822662 
L 297.115675 257.565525 
L 298.320776 257.804462 
L 299.525877 257.381385 
L 300.730978 257.498038 
L 303.141181 256.853296 
L 304.346282 256.83081 
L 305.551383 257.014701 
L 306.756484 256.726811 
L 307.961585 256.914294 
L 311.576888 258.136179 
L 312.781989 257.986499 
L 313.987091 258.462088 
L 315.192192 258.091781 
L 316.397293 258.213493 
L 317.602394 257.956299 
L 318.807495 258.289274 
L 320.012596 258.797959 
L 321.217697 259.076764 
L 322.422798 258.514843 
L 323.627899 258.660941 
L 324.833001 259.122526 
L 326.038102 258.987634 
L 328.448304 259.100131 
L 330.858506 259.467308 
L 332.063607 259.992671 
L 333.268708 260.366478 
L 335.678911 260.482371 
L 338.089113 260.641018 
L 339.294214 260.362439 
L 340.499315 260.797927 
L 341.704416 260.804178 
L 342.909517 261.60945 
L 344.114618 261.227206 
L 345.319719 261.329979 
L 346.524821 261.579306 
L 347.729922 260.82213 
L 348.935023 260.243574 
L 350.140124 260.42593 
L 351.345225 259.778724 
L 352.550326 259.822465 
L 353.755427 259.619486 
L 354.960528 259.965696 
L 356.165629 259.904056 
L 357.370731 259.98784 
L 358.575832 259.67948 
L 359.780933 259.210643 
L 360.986034 259.364501 
L 363.396236 259.223519 
L 364.601337 259.404228 
L 365.806438 259.345339 
L 367.011539 258.922075 
L 369.421742 258.674068 
L 370.626843 258.053317 
L 371.831944 258.329748 
L 373.037045 258.481442 
L 374.242146 258.327136 
L 377.857449 259.10742 
L 379.062551 259.253597 
L 381.472753 258.967342 
L 382.677854 259.191836 
L 385.088056 259.176974 
L 386.293157 259.144832 
L 387.498258 258.86501 
L 388.703359 258.117595 
L 389.908461 258.449401 
L 392.318663 258.388735 
L 395.933966 258.366186 
L 397.139067 257.966415 
L 399.549269 258.156629 
L 400.754371 257.781418 
L 403.164573 258.133524 
L 404.369674 257.951448 
L 405.574775 258.206661 
L 407.984977 258.471977 
L 410.395179 258.250085 
L 411.600281 257.689395 
L 414.010483 257.624712 
L 415.215584 257.705268 
L 416.420685 257.397894 
L 417.625786 257.658946 
L 420.035988 257.37327 
L 422.446191 256.969184 
L 424.856393 256.902884 
L 427.266595 257.438506 
L 428.471696 257.489327 
L 429.676797 257.384031 
L 430.881898 257.519887 
L 432.086999 257.341359 
L 433.292101 257.348025 
L 434.497202 257.47897 
L 435.702303 257.274423 
L 438.112505 257.14252 
L 442.932909 257.666938 
L 447.753314 257.096238 
L 450.163516 257.652471 
L 451.368617 257.406363 
L 452.573718 257.406034 
L 456.189022 257.739705 
L 457.394123 257.460138 
L 458.599224 257.71953 
L 461.009426 257.753504 
L 462.214527 257.479728 
L 463.419628 257.399281 
L 464.624729 257.467104 
L 465.829831 257.710376 
L 468.240033 257.712565 
L 471.855336 258.365779 
L 473.060437 258.412247 
L 474.265538 258.247134 
L 476.675741 258.303476 
L 481.496145 258.90174 
L 482.701246 258.993473 
L 483.906347 259.216088 
L 486.316549 259.152286 
L 488.726752 259.349889 
L 491.136954 259.14512 
L 494.752257 259.773608 
L 495.957358 259.655495 
L 497.162459 259.682396 
L 499.572662 259.280669 
L 500.777763 259.145923 
L 501.982864 259.24646 
L 503.187965 259.152043 
L 504.393066 259.370379 
L 505.598167 259.065705 
L 506.803268 259.255061 
L 508.008369 259.126073 
L 509.213471 258.829057 
L 510.418572 258.753426 
L 511.623673 258.9952 
L 514.033875 258.917142 
L 515.238976 259.181878 
L 517.649178 259.263238 
L 518.854279 259.261896 
L 521.264482 259.452267 
L 522.469583 259.086053 
L 523.674684 259.00286 
L 524.879785 259.045076 
L 526.084886 259.304093 
L 529.700189 259.356433 
L 532.110392 259.573332 
L 533.315493 259.464268 
L 535.725695 259.449973 
L 536.930796 258.944043 
L 539.340998 258.744434 
L 542.956302 258.746873 
L 544.161403 258.871956 
L 551.392009 258.746858 
L 552.597111 258.84713 
L 556.212414 258.633352 
L 557.417515 258.769659 
L 558.622616 258.681046 
L 562.237919 258.715449 
L 563.443021 258.540636 
L 564.648122 258.724812 
L 568.263425 258.79662 
L 569.468526 258.796968 
L 570.673627 258.675592 
L 571.878728 258.733255 
L 573.083829 259.046786 
L 574.288931 259.088045 
L 575.494032 258.945088 
L 576.699133 259.03622 
L 577.904234 258.946064 
L 580.314436 259.245511 
L 585.134841 259.434924 
L 586.339942 259.189135 
L 587.545043 258.688984 
L 589.955245 258.840963 
L 591.160346 258.691954 
L 593.570548 258.870698 
L 595.980751 258.806364 
L 597.185852 258.878742 
L 598.390953 259.175974 
L 602.006256 259.60111 
L 606.826661 259.359422 
L 609.236863 259.660576 
L 610.441964 259.619783 
L 611.647065 259.291921 
L 612.852166 259.284125 
L 614.057267 259.489667 
L 616.467469 259.747754 
L 617.672571 260.028289 
L 620.082773 260.003441 
L 621.287874 259.860127 
L 623.698076 259.932968 
L 624.903177 259.742701 
L 627.313379 259.8899 
L 628.518481 259.847065 
L 632.133784 259.015247 
L 633.338885 258.934594 
L 635.749087 258.944313 
L 636.954188 258.67446 
L 638.159289 258.192014 
L 640.569492 258.13402 
L 641.774593 258.315064 
L 642.979694 258.169153 
L 644.184795 258.274488 
L 650.210301 258.341988 
L 652.620503 258.483474 
L 656.235806 258.481305 
L 657.440907 258.734969 
L 659.851109 258.292328 
L 661.056211 258.295192 
L 662.261312 258.435644 
L 663.466413 258.324579 
L 664.671514 258.347895 
L 665.876615 258.184415 
L 673.107222 258.290736 
L 674.312323 257.950113 
L 676.722525 258.186367 
L 679.132727 258.255374 
L 679.132727 258.255374 
" style="fill:none;stroke:#008000;stroke-linecap:square;stroke-width:1.5;"/>
   </g>
   <g id="patch_3">
    <path d="M 47.72 390.04 
L 47.72 28.464 
" style="fill:none;stroke:#000000;stroke-linecap:square;stroke-linejoin:miter;stroke-width:0.8;"/>
   </g>
   <g id="patch_4">
    <path d="M 709.2 390.04 
L 709.2 28.464 
" style="fill:none;stroke:#000000;stroke-linecap:square;stroke-linejoin:miter;stroke-width:0.8;"/>
   </g>
   <g id="patch_5">
    <path d="M 47.72 390.04 
L 709.2 390.04 
" style="fill:none;stroke:#000000;stroke-linecap:square;stroke-linejoin:miter;stroke-width:0.8;"/>
   </g>
   <g id="patch_6">
    <path d="M 47.72 28.464 
L 709.2 28.464 
" style="fill:none;stroke:#000000;stroke-linecap:square;stroke-linejoin:miter;stroke-width:0.8;"/>
   </g>
   <g id="text_18">
    <!-- Average ANEES with parameters $\sigma_{process}=$3,  $\sigma_{AIS}=$10, $\sigma_{Radar}=$1 -->
    <g transform="translate(184 22.464)scale(0.12 -0.12)">
     <defs>
      <path d="M 2.984375 54.6875 
L 12.5 54.6875 
L 29.59375 8.796875 
L 46.6875 54.6875 
L 56.203125 54.6875 
L 35.6875 0 
L 23.484375 0 
z
" id="DejaVuSans-118"/>
      <path d="M 45.40625 27.984375 
Q 45.40625 37.75 41.375 43.109375 
Q 37.359375 48.484375 30.078125 48.484375 
Q 22.859375 48.484375 18.828125 43.109375 
Q 14.796875 37.75 14.796875 27.984375 
Q 14.796875 18.265625 18.828125 12.890625 
Q 22.859375 7.515625 30.078125 7.515625 
Q 37.359375 7.515625 41.375 12.890625 
Q 45.40625 18.265625 45.40625 27.984375 
z
M 54.390625 6.78125 
Q 54.390625 -7.171875 48.1875 -13.984375 
Q 42 -20.796875 29.203125 -20.796875 
Q 24.46875 -20.796875 20.265625 -20.09375 
Q 16.0625 -19.390625 12.109375 -17.921875 
L 12.109375 -9.1875 
Q 16.0625 -11.328125 19.921875 -12.34375 
Q 23.78125 -13.375 27.78125 -13.375 
Q 36.625 -13.375 41.015625 -8.765625 
Q 45.40625 -4.15625 45.40625 5.171875 
L 45.40625 9.625 
Q 42.625 4.78125 38.28125 2.390625 
Q 33.9375 0 27.875 0 
Q 17.828125 0 11.671875 7.65625 
Q 5.515625 15.328125 5.515625 27.984375 
Q 5.515625 40.671875 11.671875 48.328125 
Q 17.828125 56 27.875 56 
Q 33.9375 56 38.28125 53.609375 
Q 42.625 51.21875 45.40625 46.390625 
L 45.40625 54.6875 
L 54.390625 54.6875 
z
" id="DejaVuSans-103"/>
      <path d="M 4.203125 54.6875 
L 13.1875 54.6875 
L 24.421875 12.015625 
L 35.59375 54.6875 
L 46.1875 54.6875 
L 57.421875 12.015625 
L 68.609375 54.6875 
L 77.59375 54.6875 
L 63.28125 0 
L 52.6875 0 
L 40.921875 44.828125 
L 29.109375 0 
L 18.5 0 
z
" id="DejaVuSans-119"/>
      <path d="M 54.890625 33.015625 
L 54.890625 0 
L 45.90625 0 
L 45.90625 32.71875 
Q 45.90625 40.484375 42.875 44.328125 
Q 39.84375 48.1875 33.796875 48.1875 
Q 26.515625 48.1875 22.3125 43.546875 
Q 18.109375 38.921875 18.109375 30.90625 
L 18.109375 0 
L 9.078125 0 
L 9.078125 75.984375 
L 18.109375 75.984375 
L 18.109375 46.1875 
Q 21.34375 51.125 25.703125 53.5625 
Q 30.078125 56 35.796875 56 
Q 45.21875 56 50.046875 50.171875 
Q 54.890625 44.34375 54.890625 33.015625 
z
" id="DejaVuSans-104"/>
      <path d="M 18.109375 8.203125 
L 18.109375 -20.796875 
L 9.078125 -20.796875 
L 9.078125 54.6875 
L 18.109375 54.6875 
L 18.109375 46.390625 
Q 20.953125 51.265625 25.265625 53.625 
Q 29.59375 56 35.59375 56 
Q 45.5625 56 51.78125 48.09375 
Q 58.015625 40.1875 58.015625 27.296875 
Q 58.015625 14.40625 51.78125 6.484375 
Q 45.5625 -1.421875 35.59375 -1.421875 
Q 29.59375 -1.421875 25.265625 0.953125 
Q 20.953125 3.328125 18.109375 8.203125 
z
M 48.6875 27.296875 
Q 48.6875 37.203125 44.609375 42.84375 
Q 40.53125 48.484375 33.40625 48.484375 
Q 26.265625 48.484375 22.1875 42.84375 
Q 18.109375 37.203125 18.109375 27.296875 
Q 18.109375 17.390625 22.1875 11.75 
Q 26.265625 6.109375 33.40625 6.109375 
Q 40.53125 6.109375 44.609375 11.75 
Q 48.6875 17.390625 48.6875 27.296875 
z
" id="DejaVuSans-112"/>
      <path d="M 52 44.1875 
Q 55.375 50.25 60.0625 53.125 
Q 64.75 56 71.09375 56 
Q 79.640625 56 84.28125 50.015625 
Q 88.921875 44.046875 88.921875 33.015625 
L 88.921875 0 
L 79.890625 0 
L 79.890625 32.71875 
Q 79.890625 40.578125 77.09375 44.375 
Q 74.3125 48.1875 68.609375 48.1875 
Q 61.625 48.1875 57.5625 43.546875 
Q 53.515625 38.921875 53.515625 30.90625 
L 53.515625 0 
L 44.484375 0 
L 44.484375 32.71875 
Q 44.484375 40.625 41.703125 44.40625 
Q 38.921875 48.1875 33.109375 48.1875 
Q 26.21875 48.1875 22.15625 43.53125 
Q 18.109375 38.875 18.109375 30.90625 
L 18.109375 0 
L 9.078125 0 
L 9.078125 54.6875 
L 18.109375 54.6875 
L 18.109375 46.1875 
Q 21.1875 51.21875 25.484375 53.609375 
Q 29.78125 56 35.6875 56 
Q 41.65625 56 45.828125 52.96875 
Q 50 49.953125 52 44.1875 
z
" id="DejaVuSans-109"/>
      <path d="M 34.671875 47.5625 
Q 27.25 47.5625 22.21875 42.1875 
Q 16.890625 36.578125 15.140625 27.296875 
Q 13.1875 17.484375 16.3125 11.8125 
Q 19.390625 6.203125 26.65625 6.203125 
Q 33.84375 6.203125 39.109375 11.859375 
Q 44.4375 17.53125 46.34375 27.296875 
Q 48.046875 36.234375 45.015625 42.1875 
Q 42.1875 47.5625 34.671875 47.5625 
z
M 36.078125 54.734375 
L 65.921875 54.6875 
L 64.15625 45.703125 
L 54.109375 45.703125 
Q 57.90625 38.09375 55.859375 27.296875 
Q 53.21875 13.875 45.0625 6.25 
Q 36.859375 -1.421875 25.140625 -1.421875 
Q 13.375 -1.421875 8.203125 6.25 
Q 3.03125 13.875 5.671875 27.296875 
Q 8.25 40.765625 16.40625 48.390625 
Q 23.1875 54.734375 36.078125 54.734375 
z
" id="DejaVuSans-Oblique-963"/>
      <path d="M 49.609375 33.6875 
Q 49.609375 40.875 46.484375 44.671875 
Q 43.359375 48.484375 37.5 48.484375 
Q 33.5 48.484375 29.859375 46.4375 
Q 26.21875 44.390625 23.390625 40.484375 
Q 20.609375 36.625 18.9375 31.15625 
Q 17.28125 25.6875 17.28125 20.3125 
Q 17.28125 13.484375 20.40625 9.796875 
Q 23.53125 6.109375 29.296875 6.109375 
Q 33.546875 6.109375 37.1875 8.109375 
Q 40.828125 10.109375 43.40625 13.921875 
Q 46.1875 17.921875 47.890625 23.34375 
Q 49.609375 28.765625 49.609375 33.6875 
z
M 21.78125 46.390625 
Q 25.390625 51.125 30.296875 53.5625 
Q 35.203125 56 41.21875 56 
Q 49.609375 56 54.25 50.5 
Q 58.890625 45.015625 58.890625 35.109375 
Q 58.890625 27 56 19.65625 
Q 53.125 12.3125 47.703125 6.5 
Q 44.09375 2.640625 39.546875 0.609375 
Q 35.015625 -1.421875 29.984375 -1.421875 
Q 24.171875 -1.421875 20.21875 1 
Q 16.265625 3.421875 14.3125 8.203125 
L 8.6875 -20.796875 
L -0.296875 -20.796875 
L 14.40625 54.6875 
L 23.390625 54.6875 
z
" id="DejaVuSans-Oblique-112"/>
      <path d="M 44.578125 46.390625 
Q 43.21875 47.125 41.453125 47.515625 
Q 39.703125 47.90625 37.703125 47.90625 
Q 30.515625 47.90625 25.140625 42.453125 
Q 19.78125 37.015625 18.015625 27.875 
L 12.5 0 
L 3.515625 0 
L 14.203125 54.6875 
L 23.1875 54.6875 
L 21.484375 46.1875 
Q 25.046875 50.921875 30 53.453125 
Q 34.96875 56 40.578125 56 
Q 42.046875 56 43.453125 55.828125 
Q 44.875 55.671875 46.296875 55.28125 
z
" id="DejaVuSans-Oblique-114"/>
      <path d="M 25.390625 -1.421875 
Q 15.765625 -1.421875 10.171875 4.515625 
Q 4.59375 10.453125 4.59375 20.703125 
Q 4.59375 26.65625 6.515625 32.828125 
Q 8.453125 39.015625 11.53125 43.21875 
Q 16.359375 49.75 22.3125 52.875 
Q 28.265625 56 35.796875 56 
Q 45.125 56 50.859375 50.1875 
Q 56.59375 44.390625 56.59375 35.015625 
Q 56.59375 28.515625 54.6875 22.0625 
Q 52.78125 15.625 49.703125 11.375 
Q 44.921875 4.828125 38.96875 1.703125 
Q 33.015625 -1.421875 25.390625 -1.421875 
z
M 13.921875 21 
Q 13.921875 13.578125 17.015625 9.890625 
Q 20.125 6.203125 26.421875 6.203125 
Q 35.453125 6.203125 41.375 14.078125 
Q 47.3125 21.96875 47.3125 34.078125 
Q 47.3125 41.15625 44.140625 44.765625 
Q 40.96875 48.390625 34.8125 48.390625 
Q 29.734375 48.390625 25.78125 46.015625 
Q 21.828125 43.65625 18.703125 38.8125 
Q 16.40625 35.203125 15.15625 30.5625 
Q 13.921875 25.921875 13.921875 21 
z
" id="DejaVuSans-Oblique-111"/>
      <path d="M 53.609375 52.59375 
L 51.8125 43.703125 
Q 48.578125 46.046875 44.9375 47.21875 
Q 41.3125 48.390625 37.40625 48.390625 
Q 33.109375 48.390625 29.21875 46.875 
Q 25.34375 45.359375 22.703125 42.578125 
Q 18.5 38.328125 16.203125 32.609375 
Q 13.921875 26.90625 13.921875 20.796875 
Q 13.921875 13.421875 17.609375 9.8125 
Q 21.296875 6.203125 28.8125 6.203125 
Q 32.515625 6.203125 36.6875 7.328125 
Q 40.875 8.453125 45.40625 10.6875 
L 43.703125 1.8125 
Q 39.796875 0.203125 35.671875 -0.609375 
Q 31.546875 -1.421875 27.203125 -1.421875 
Q 16.3125 -1.421875 10.453125 4.015625 
Q 4.59375 9.46875 4.59375 19.578125 
Q 4.59375 28.078125 7.640625 35.234375 
Q 10.6875 42.390625 16.703125 48.09375 
Q 20.796875 52 26.3125 54 
Q 31.84375 56 38.375 56 
Q 42.1875 56 45.9375 55.140625 
Q 49.703125 54.296875 53.609375 52.59375 
z
" id="DejaVuSans-Oblique-99"/>
      <path d="M 48.09375 32.234375 
Q 48.25 33.015625 48.3125 33.84375 
Q 48.390625 34.671875 48.390625 35.5 
Q 48.390625 41.453125 44.890625 44.921875 
Q 41.40625 48.390625 35.40625 48.390625 
Q 28.71875 48.390625 23.578125 44.15625 
Q 18.453125 39.9375 15.828125 32.171875 
z
M 55.90625 25.203125 
L 14.109375 25.203125 
Q 13.8125 23.34375 13.71875 22.265625 
Q 13.625 21.1875 13.625 20.40625 
Q 13.625 13.625 17.796875 9.90625 
Q 21.96875 6.203125 29.59375 6.203125 
Q 35.453125 6.203125 40.671875 7.515625 
Q 45.90625 8.84375 50.390625 11.375 
L 48.6875 2.484375 
Q 43.84375 0.53125 38.6875 -0.4375 
Q 33.546875 -1.421875 28.21875 -1.421875 
Q 16.84375 -1.421875 10.71875 4.015625 
Q 4.59375 9.46875 4.59375 19.484375 
Q 4.59375 28.03125 7.640625 35.375 
Q 10.6875 42.71875 16.609375 48.484375 
Q 20.40625 52.09375 25.65625 54.046875 
Q 30.90625 56 36.8125 56 
Q 46.09375 56 51.578125 50.4375 
Q 57.078125 44.875 57.078125 35.5 
Q 57.078125 33.25 56.78125 30.6875 
Q 56.5 28.125 55.90625 25.203125 
z
" id="DejaVuSans-Oblique-101"/>
      <path d="M 50 53.078125 
L 48.296875 44.578125 
Q 44.734375 46.53125 40.765625 47.5 
Q 36.8125 48.484375 32.625 48.484375 
Q 25.53125 48.484375 21.453125 46.0625 
Q 17.390625 43.65625 17.390625 39.5 
Q 17.390625 34.671875 26.859375 32.078125 
Q 27.59375 31.890625 27.9375 31.78125 
L 30.8125 30.90625 
Q 39.796875 28.421875 42.796875 25.6875 
Q 45.796875 22.953125 45.796875 18.21875 
Q 45.796875 9.515625 38.890625 4.046875 
Q 31.984375 -1.421875 20.796875 -1.421875 
Q 16.453125 -1.421875 11.671875 -0.578125 
Q 6.890625 0.25 1.125 2 
L 2.875 11.28125 
Q 7.8125 8.734375 12.59375 7.421875 
Q 17.390625 6.109375 21.78125 6.109375 
Q 28.375 6.109375 32.5 8.9375 
Q 36.625 11.765625 36.625 16.109375 
Q 36.625 20.796875 25.78125 23.6875 
L 24.859375 23.921875 
L 21.78125 24.703125 
Q 14.9375 26.515625 11.765625 29.46875 
Q 8.59375 32.421875 8.59375 37.015625 
Q 8.59375 45.75 15.15625 50.875 
Q 21.734375 56 33.015625 56 
Q 37.453125 56 41.671875 55.265625 
Q 45.90625 54.546875 50 53.078125 
z
" id="DejaVuSans-Oblique-115"/>
      <path d="M 10.59375 45.40625 
L 73.1875 45.40625 
L 73.1875 37.203125 
L 10.59375 37.203125 
z
M 10.59375 25.484375 
L 73.1875 25.484375 
L 73.1875 17.1875 
L 10.59375 17.1875 
z
" id="DejaVuSans-61"/>
      <path d="M 11.71875 12.40625 
L 22.015625 12.40625 
L 22.015625 4 
L 14.015625 -11.625 
L 7.71875 -11.625 
L 11.71875 4 
z
" id="DejaVuSans-44"/>
      <path d="M 36.8125 72.90625 
L 48 72.90625 
L 61.53125 0 
L 51.21875 0 
L 48.1875 18.703125 
L 15.375 18.703125 
L 5.078125 0 
L -5.328125 0 
z
M 40.375 63.1875 
L 19.921875 26.90625 
L 46.6875 26.90625 
z
" id="DejaVuSans-Oblique-65"/>
      <path d="M 16.890625 72.90625 
L 26.8125 72.90625 
L 12.59375 0 
L 2.6875 0 
z
" id="DejaVuSans-Oblique-73"/>
      <path d="M 60.296875 70.515625 
L 58.40625 60.890625 
Q 53.46875 63.53125 48.609375 64.875 
Q 43.75 66.21875 39.203125 66.21875 
Q 30.375 66.21875 25.140625 62.359375 
Q 19.921875 58.5 19.921875 52.09375 
Q 19.921875 48.578125 21.84375 46.703125 
Q 23.78125 44.828125 31.78125 42.671875 
L 37.703125 41.21875 
Q 47.703125 38.625 51.609375 34.640625 
Q 55.515625 30.671875 55.515625 23.484375 
Q 55.515625 12.453125 46.84375 5.515625 
Q 38.1875 -1.421875 24.03125 -1.421875 
Q 18.21875 -1.421875 12.359375 -0.265625 
Q 6.5 0.875 0.59375 3.21875 
L 2.59375 13.375 
Q 8.015625 10.015625 13.453125 8.296875 
Q 18.890625 6.59375 24.3125 6.59375 
Q 33.546875 6.59375 39.109375 10.6875 
Q 44.671875 14.796875 44.671875 21.390625 
Q 44.671875 25.78125 42.453125 28.046875 
Q 40.234375 30.328125 32.90625 32.171875 
L 27 33.6875 
Q 16.890625 36.328125 13.203125 39.765625 
Q 9.515625 43.21875 9.515625 49.421875 
Q 9.515625 60.296875 17.890625 67.25 
Q 26.265625 74.21875 39.703125 74.21875 
Q 44.921875 74.21875 50.046875 73.28125 
Q 55.171875 72.359375 60.296875 70.515625 
z
" id="DejaVuSans-Oblique-83"/>
      <path d="M 25.203125 64.796875 
L 20.21875 38.921875 
L 32.90625 38.921875 
Q 40.375 38.921875 44.984375 43.046875 
Q 49.609375 47.171875 49.609375 53.8125 
Q 49.609375 59.125 46.5 61.953125 
Q 43.40625 64.796875 37.59375 64.796875 
z
M 43.3125 35.015625 
Q 46.4375 34.28125 48.515625 31.390625 
Q 50.59375 28.515625 53.328125 19.921875 
L 59.515625 0 
L 49.125 0 
L 43.40625 18.703125 
Q 41.21875 25.921875 38.328125 28.359375 
Q 35.453125 30.8125 29.5 30.8125 
L 18.609375 30.8125 
L 12.59375 0 
L 2.6875 0 
L 16.890625 72.90625 
L 39.109375 72.90625 
Q 49.21875 72.90625 54.609375 68.328125 
Q 60.015625 63.765625 60.015625 55.171875 
Q 60.015625 47.5625 55.421875 41.984375 
Q 50.828125 36.421875 43.3125 35.015625 
z
" id="DejaVuSans-Oblique-82"/>
      <path d="M 53.71875 31.203125 
L 47.609375 0 
L 38.625 0 
L 40.28125 8.296875 
Q 36.328125 3.421875 31.265625 1 
Q 26.21875 -1.421875 20.015625 -1.421875 
Q 13.03125 -1.421875 8.5625 2.84375 
Q 4.109375 7.125 4.109375 13.8125 
Q 4.109375 23.390625 11.75 28.953125 
Q 19.390625 34.515625 32.8125 34.515625 
L 45.3125 34.515625 
L 45.796875 36.921875 
Q 45.90625 37.3125 45.953125 37.765625 
Q 46 38.234375 46 39.203125 
Q 46 43.5625 42.453125 45.96875 
Q 38.921875 48.390625 32.515625 48.390625 
Q 28.125 48.390625 23.5 47.265625 
Q 18.890625 46.140625 14.015625 43.890625 
L 15.578125 52.203125 
Q 20.65625 54.109375 25.515625 55.046875 
Q 30.375 56 34.90625 56 
Q 44.578125 56 49.625 51.796875 
Q 54.6875 47.609375 54.6875 39.59375 
Q 54.6875 37.984375 54.4375 35.8125 
Q 54.203125 33.640625 53.71875 31.203125 
z
M 44 27.484375 
L 35.015625 27.484375 
Q 23.96875 27.484375 18.671875 24.53125 
Q 13.375 21.578125 13.375 15.375 
Q 13.375 11.078125 16.078125 8.640625 
Q 18.796875 6.203125 23.578125 6.203125 
Q 30.90625 6.203125 36.375 11.453125 
Q 41.84375 16.703125 43.609375 25.484375 
z
" id="DejaVuSans-Oblique-97"/>
      <path d="M 41.796875 8.203125 
Q 38.1875 3.46875 33.25 1.015625 
Q 28.328125 -1.421875 22.3125 -1.421875 
Q 14.109375 -1.421875 9.34375 4.171875 
Q 4.59375 9.765625 4.59375 19.484375 
Q 4.59375 27.59375 7.46875 34.9375 
Q 10.359375 42.28125 15.828125 48.09375 
Q 19.4375 51.953125 23.96875 53.96875 
Q 28.515625 56 33.5 56 
Q 38.765625 56 42.796875 53.453125 
Q 46.828125 50.921875 49.03125 46.1875 
L 54.890625 75.984375 
L 63.921875 75.984375 
L 49.125 0 
L 40.09375 0 
z
M 13.921875 21.09375 
Q 13.921875 14.015625 17.109375 10.0625 
Q 20.3125 6.109375 25.984375 6.109375 
Q 30.171875 6.109375 33.765625 8.125 
Q 37.359375 10.15625 40.09375 14.109375 
Q 42.96875 18.21875 44.625 23.578125 
Q 46.296875 28.953125 46.296875 34.1875 
Q 46.296875 40.96875 43.09375 44.765625 
Q 39.890625 48.578125 34.28125 48.578125 
Q 30.03125 48.578125 26.359375 46.578125 
Q 22.703125 44.578125 20.125 40.828125 
Q 17.28125 36.765625 15.59375 31.390625 
Q 13.921875 26.03125 13.921875 21.09375 
z
" id="DejaVuSans-Oblique-100"/>
     </defs>
     <use transform="translate(0 0.015625)" xlink:href="#DejaVuSans-65"/>
     <use transform="translate(68.408203 0.015625)" xlink:href="#DejaVuSans-118"/>
     <use transform="translate(127.587891 0.015625)" xlink:href="#DejaVuSans-101"/>
     <use transform="translate(189.111328 0.015625)" xlink:href="#DejaVuSans-114"/>
     <use transform="translate(230.224609 0.015625)" xlink:href="#DejaVuSans-97"/>
     <use transform="translate(291.503906 0.015625)" xlink:href="#DejaVuSans-103"/>
     <use transform="translate(354.980469 0.015625)" xlink:href="#DejaVuSans-101"/>
     <use transform="translate(416.503906 0.015625)" xlink:href="#DejaVuSans-32"/>
     <use transform="translate(448.291016 0.015625)" xlink:href="#DejaVuSans-65"/>
     <use transform="translate(516.699219 0.015625)" xlink:href="#DejaVuSans-78"/>
     <use transform="translate(591.503906 0.015625)" xlink:href="#DejaVuSans-69"/>
     <use transform="translate(654.6875 0.015625)" xlink:href="#DejaVuSans-69"/>
     <use transform="translate(717.871094 0.015625)" xlink:href="#DejaVuSans-83"/>
     <use transform="translate(781.347656 0.015625)" xlink:href="#DejaVuSans-32"/>
     <use transform="translate(813.134766 0.015625)" xlink:href="#DejaVuSans-119"/>
     <use transform="translate(894.921875 0.015625)" xlink:href="#DejaVuSans-105"/>
     <use transform="translate(922.705078 0.015625)" xlink:href="#DejaVuSans-116"/>
     <use transform="translate(961.914062 0.015625)" xlink:href="#DejaVuSans-104"/>
     <use transform="translate(1025.292969 0.015625)" xlink:href="#DejaVuSans-32"/>
     <use transform="translate(1057.080078 0.015625)" xlink:href="#DejaVuSans-112"/>
     <use transform="translate(1120.556641 0.015625)" xlink:href="#DejaVuSans-97"/>
     <use transform="translate(1181.835938 0.015625)" xlink:href="#DejaVuSans-114"/>
     <use transform="translate(1222.949219 0.015625)" xlink:href="#DejaVuSans-97"/>
     <use transform="translate(1284.228516 0.015625)" xlink:href="#DejaVuSans-109"/>
     <use transform="translate(1381.640625 0.015625)" xlink:href="#DejaVuSans-101"/>
     <use transform="translate(1443.164062 0.015625)" xlink:href="#DejaVuSans-116"/>
     <use transform="translate(1482.373047 0.015625)" xlink:href="#DejaVuSans-101"/>
     <use transform="translate(1543.896484 0.015625)" xlink:href="#DejaVuSans-114"/>
     <use transform="translate(1585.009766 0.015625)" xlink:href="#DejaVuSans-115"/>
     <use transform="translate(1637.109375 0.015625)" xlink:href="#DejaVuSans-32"/>
     <use transform="translate(1668.896484 0.015625)" xlink:href="#DejaVuSans-Oblique-963"/>
     <use transform="translate(1732.275391 -16.390625)scale(0.7)" xlink:href="#DejaVuSans-Oblique-112"/>
     <use transform="translate(1776.708984 -16.390625)scale(0.7)" xlink:href="#DejaVuSans-Oblique-114"/>
     <use transform="translate(1805.488281 -16.390625)scale(0.7)" xlink:href="#DejaVuSans-Oblique-111"/>
     <use transform="translate(1848.31543 -16.390625)scale(0.7)" xlink:href="#DejaVuSans-Oblique-99"/>
     <use transform="translate(1886.801758 -16.390625)scale(0.7)" xlink:href="#DejaVuSans-Oblique-101"/>
     <use transform="translate(1929.868164 -16.390625)scale(0.7)" xlink:href="#DejaVuSans-Oblique-115"/>
     <use transform="translate(1966.337891 -16.390625)scale(0.7)" xlink:href="#DejaVuSans-Oblique-115"/>
     <use transform="translate(2025.024414 0.015625)" xlink:href="#DejaVuSans-61"/>
     <use transform="translate(2128.295898 0.015625)" xlink:href="#DejaVuSans-51"/>
     <use transform="translate(2191.918945 0.015625)" xlink:href="#DejaVuSans-44"/>
     <use transform="translate(2223.706055 0.015625)" xlink:href="#DejaVuSans-32"/>
     <use transform="translate(2255.493164 0.015625)" xlink:href="#DejaVuSans-32"/>
     <use transform="translate(2287.280273 0.015625)" xlink:href="#DejaVuSans-Oblique-963"/>
     <use transform="translate(2350.65918 -16.390625)scale(0.7)" xlink:href="#DejaVuSans-Oblique-65"/>
     <use transform="translate(2398.544922 -16.390625)scale(0.7)" xlink:href="#DejaVuSans-Oblique-73"/>
     <use transform="translate(2419.189453 -16.390625)scale(0.7)" xlink:href="#DejaVuSans-Oblique-83"/>
     <use transform="translate(2485.839844 0.015625)" xlink:href="#DejaVuSans-61"/>
     <use transform="translate(2589.111328 0.015625)" xlink:href="#DejaVuSans-49"/>
     <use transform="translate(2652.734375 0.015625)" xlink:href="#DejaVuSans-48"/>
     <use transform="translate(2716.357422 0.015625)" xlink:href="#DejaVuSans-44"/>
     <use transform="translate(2748.144531 0.015625)" xlink:href="#DejaVuSans-32"/>
     <use transform="translate(2779.931641 0.015625)" xlink:href="#DejaVuSans-Oblique-963"/>
     <use transform="translate(2843.310547 -16.390625)scale(0.7)" xlink:href="#DejaVuSans-Oblique-82"/>
     <use transform="translate(2891.948242 -16.390625)scale(0.7)" xlink:href="#DejaVuSans-Oblique-97"/>
     <use transform="translate(2934.84375 -16.390625)scale(0.7)" xlink:href="#DejaVuSans-Oblique-100"/>
     <use transform="translate(2979.277344 -16.390625)scale(0.7)" xlink:href="#DejaVuSans-Oblique-97"/>
     <use transform="translate(3022.172852 -16.390625)scale(0.7)" xlink:href="#DejaVuSans-Oblique-114"/>
     <use transform="translate(3073.168945 0.015625)" xlink:href="#DejaVuSans-61"/>
     <use transform="translate(3176.44043 0.015625)" xlink:href="#DejaVuSans-49"/>
    </g>
   </g>
   <g id="legend_1">
    <g id="patch_7">
     <path d="M 566.607813 95.1765 
L 702.2 95.1765 
Q 704.2 95.1765 704.2 93.1765 
L 704.2 35.464 
Q 704.2 33.464 702.2 33.464 
L 566.607813 33.464 
Q 564.607813 33.464 564.607813 35.464 
L 564.607813 93.1765 
Q 564.607813 95.1765 566.607813 95.1765 
z
" style="fill:#ffffff;opacity:0.8;stroke:#cccccc;stroke-linejoin:miter;"/>
    </g>
    <g id="line2d_21">
     <path d="M 568.607813 41.562438 
L 588.607813 41.562438 
" style="fill:none;stroke:#000000;stroke-linecap:square;stroke-width:1.5;"/>
    </g>
    <g id="line2d_22"/>
    <g id="text_19">
     <!-- Confidence Intervals -->
     <g transform="translate(596.607813 45.062438)scale(0.1 -0.1)">
      <defs>
       <path d="M 37.109375 75.984375 
L 37.109375 68.5 
L 28.515625 68.5 
Q 23.6875 68.5 21.796875 66.546875 
Q 19.921875 64.59375 19.921875 59.515625 
L 19.921875 54.6875 
L 34.71875 54.6875 
L 34.71875 47.703125 
L 19.921875 47.703125 
L 19.921875 0 
L 10.890625 0 
L 10.890625 47.703125 
L 2.296875 47.703125 
L 2.296875 54.6875 
L 10.890625 54.6875 
L 10.890625 58.5 
Q 10.890625 67.625 15.140625 71.796875 
Q 19.390625 75.984375 28.609375 75.984375 
z
" id="DejaVuSans-102"/>
       <path d="M 45.40625 46.390625 
L 45.40625 75.984375 
L 54.390625 75.984375 
L 54.390625 0 
L 45.40625 0 
L 45.40625 8.203125 
Q 42.578125 3.328125 38.25 0.953125 
Q 33.9375 -1.421875 27.875 -1.421875 
Q 17.96875 -1.421875 11.734375 6.484375 
Q 5.515625 14.40625 5.515625 27.296875 
Q 5.515625 40.1875 11.734375 48.09375 
Q 17.96875 56 27.875 56 
Q 33.9375 56 38.25 53.625 
Q 42.578125 51.265625 45.40625 46.390625 
z
M 14.796875 27.296875 
Q 14.796875 17.390625 18.875 11.75 
Q 22.953125 6.109375 30.078125 6.109375 
Q 37.203125 6.109375 41.296875 11.75 
Q 45.40625 17.390625 45.40625 27.296875 
Q 45.40625 37.203125 41.296875 42.84375 
Q 37.203125 48.484375 30.078125 48.484375 
Q 22.953125 48.484375 18.875 42.84375 
Q 14.796875 37.203125 14.796875 27.296875 
z
" id="DejaVuSans-100"/>
       <path d="M 48.78125 52.59375 
L 48.78125 44.1875 
Q 44.96875 46.296875 41.140625 47.34375 
Q 37.3125 48.390625 33.40625 48.390625 
Q 24.65625 48.390625 19.8125 42.84375 
Q 14.984375 37.3125 14.984375 27.296875 
Q 14.984375 17.28125 19.8125 11.734375 
Q 24.65625 6.203125 33.40625 6.203125 
Q 37.3125 6.203125 41.140625 7.25 
Q 44.96875 8.296875 48.78125 10.40625 
L 48.78125 2.09375 
Q 45.015625 0.34375 40.984375 -0.53125 
Q 36.96875 -1.421875 32.421875 -1.421875 
Q 20.0625 -1.421875 12.78125 6.34375 
Q 5.515625 14.109375 5.515625 27.296875 
Q 5.515625 40.671875 12.859375 48.328125 
Q 20.21875 56 33.015625 56 
Q 37.15625 56 41.109375 55.140625 
Q 45.0625 54.296875 48.78125 52.59375 
z
" id="DejaVuSans-99"/>
       <path d="M 9.8125 72.90625 
L 19.671875 72.90625 
L 19.671875 0 
L 9.8125 0 
z
" id="DejaVuSans-73"/>
       <path d="M 9.421875 75.984375 
L 18.40625 75.984375 
L 18.40625 0 
L 9.421875 0 
z
" id="DejaVuSans-108"/>
      </defs>
      <use xlink:href="#DejaVuSans-67"/>
      <use x="69.824219" xlink:href="#DejaVuSans-111"/>
      <use x="131.005859" xlink:href="#DejaVuSans-110"/>
      <use x="194.384766" xlink:href="#DejaVuSans-102"/>
      <use x="229.589844" xlink:href="#DejaVuSans-105"/>
      <use x="257.373047" xlink:href="#DejaVuSans-100"/>
      <use x="320.849609" xlink:href="#DejaVuSans-101"/>
      <use x="382.373047" xlink:href="#DejaVuSans-110"/>
      <use x="445.751953" xlink:href="#DejaVuSans-99"/>
      <use x="500.732422" xlink:href="#DejaVuSans-101"/>
      <use x="562.255859" xlink:href="#DejaVuSans-32"/>
      <use x="594.042969" xlink:href="#DejaVuSans-73"/>
      <use x="623.535156" xlink:href="#DejaVuSans-110"/>
      <use x="686.914062" xlink:href="#DejaVuSans-116"/>
      <use x="726.123047" xlink:href="#DejaVuSans-101"/>
      <use x="787.646484" xlink:href="#DejaVuSans-114"/>
      <use x="828.759766" xlink:href="#DejaVuSans-118"/>
      <use x="887.939453" xlink:href="#DejaVuSans-97"/>
      <use x="949.21875" xlink:href="#DejaVuSans-108"/>
      <use x="977.001953" xlink:href="#DejaVuSans-115"/>
     </g>
    </g>
    <g id="line2d_23">
     <path d="M 568.607813 56.240563 
L 588.607813 56.240563 
" style="fill:none;stroke:#0000ff;stroke-linecap:square;stroke-width:1.5;"/>
    </g>
    <g id="line2d_24"/>
    <g id="text_20">
     <!-- Independent -->
     <g transform="translate(596.607813 59.740563)scale(0.1 -0.1)">
      <use xlink:href="#DejaVuSans-73"/>
      <use x="29.492188" xlink:href="#DejaVuSans-110"/>
      <use x="92.871094" xlink:href="#DejaVuSans-100"/>
      <use x="156.347656" xlink:href="#DejaVuSans-101"/>
      <use x="217.871094" xlink:href="#DejaVuSans-112"/>
      <use x="281.347656" xlink:href="#DejaVuSans-101"/>
      <use x="342.871094" xlink:href="#DejaVuSans-110"/>
      <use x="406.25" xlink:href="#DejaVuSans-100"/>
      <use x="469.726562" xlink:href="#DejaVuSans-101"/>
      <use x="531.25" xlink:href="#DejaVuSans-110"/>
      <use x="594.628906" xlink:href="#DejaVuSans-116"/>
     </g>
    </g>
    <g id="line2d_25">
     <path d="M 568.607813 70.918688 
L 588.607813 70.918688 
" style="fill:none;stroke:#ff0000;stroke-linecap:square;stroke-width:1.5;"/>
    </g>
    <g id="line2d_26"/>
    <g id="text_21">
     <!-- Dependent -->
     <g transform="translate(596.607813 74.418688)scale(0.1 -0.1)">
      <defs>
       <path d="M 19.671875 64.796875 
L 19.671875 8.109375 
L 31.59375 8.109375 
Q 46.6875 8.109375 53.6875 14.9375 
Q 60.6875 21.78125 60.6875 36.53125 
Q 60.6875 51.171875 53.6875 57.984375 
Q 46.6875 64.796875 31.59375 64.796875 
z
M 9.8125 72.90625 
L 30.078125 72.90625 
Q 51.265625 72.90625 61.171875 64.09375 
Q 71.09375 55.28125 71.09375 36.53125 
Q 71.09375 17.671875 61.125 8.828125 
Q 51.171875 0 30.078125 0 
L 9.8125 0 
z
" id="DejaVuSans-68"/>
      </defs>
      <use xlink:href="#DejaVuSans-68"/>
      <use x="77.001953" xlink:href="#DejaVuSans-101"/>
      <use x="138.525391" xlink:href="#DejaVuSans-112"/>
      <use x="202.001953" xlink:href="#DejaVuSans-101"/>
      <use x="263.525391" xlink:href="#DejaVuSans-110"/>
      <use x="326.904297" xlink:href="#DejaVuSans-100"/>
      <use x="390.380859" xlink:href="#DejaVuSans-101"/>
      <use x="451.904297" xlink:href="#DejaVuSans-110"/>
      <use x="515.283203" xlink:href="#DejaVuSans-116"/>
     </g>
    </g>
    <g id="line2d_27">
     <path d="M 568.607813 85.596813 
L 588.607813 85.596813 
" style="fill:none;stroke:#008000;stroke-linecap:square;stroke-width:1.5;"/>
    </g>
    <g id="line2d_28"/>
    <g id="text_22">
     <!-- AIS as measurement -->
     <g transform="translate(596.607813 89.096813)scale(0.1 -0.1)">
      <defs>
       <path d="M 8.5 21.578125 
L 8.5 54.6875 
L 17.484375 54.6875 
L 17.484375 21.921875 
Q 17.484375 14.15625 20.5 10.265625 
Q 23.53125 6.390625 29.59375 6.390625 
Q 36.859375 6.390625 41.078125 11.03125 
Q 45.3125 15.671875 45.3125 23.6875 
L 45.3125 54.6875 
L 54.296875 54.6875 
L 54.296875 0 
L 45.3125 0 
L 45.3125 8.40625 
Q 42.046875 3.421875 37.71875 1 
Q 33.40625 -1.421875 27.6875 -1.421875 
Q 18.265625 -1.421875 13.375 4.4375 
Q 8.5 10.296875 8.5 21.578125 
z
M 31.109375 56 
z
" id="DejaVuSans-117"/>
      </defs>
      <use xlink:href="#DejaVuSans-65"/>
      <use x="68.408203" xlink:href="#DejaVuSans-73"/>
      <use x="97.900391" xlink:href="#DejaVuSans-83"/>
      <use x="161.376953" xlink:href="#DejaVuSans-32"/>
      <use x="193.164062" xlink:href="#DejaVuSans-97"/>
      <use x="254.443359" xlink:href="#DejaVuSans-115"/>
      <use x="306.542969" xlink:href="#DejaVuSans-32"/>
      <use x="338.330078" xlink:href="#DejaVuSans-109"/>
      <use x="435.742188" xlink:href="#DejaVuSans-101"/>
      <use x="497.265625" xlink:href="#DejaVuSans-97"/>
      <use x="558.544922" xlink:href="#DejaVuSans-115"/>
      <use x="610.644531" xlink:href="#DejaVuSans-117"/>
      <use x="674.023438" xlink:href="#DejaVuSans-114"/>
      <use x="712.886719" xlink:href="#DejaVuSans-101"/>
      <use x="774.410156" xlink:href="#DejaVuSans-109"/>
      <use x="871.822266" xlink:href="#DejaVuSans-101"/>
      <use x="933.345703" xlink:href="#DejaVuSans-110"/>
      <use x="996.724609" xlink:href="#DejaVuSans-116"/>
     </g>
    </g>
   </g>
  </g>
 </g>
 <defs>
  <clipPath id="p6c62c799ed">
   <rect height="361.576" width="661.48" x="47.72" y="28.464"/>
  </clipPath>
 </defs>
</svg>
