<?xml version="1.0" encoding="utf-8" standalone="no"?>
<!DOCTYPE svg PUBLIC "-//W3C//DTD SVG 1.1//EN"
  "http://www.w3.org/Graphics/SVG/1.1/DTD/svg11.dtd">
<!-- Created with matplotlib (https://matplotlib.org/) -->
<svg height="432pt" version="1.1" viewBox="0 0 720 432" width="720pt" xmlns="http://www.w3.org/2000/svg" xmlns:xlink="http://www.w3.org/1999/xlink">
 <metadata>
  <rdf:RDF xmlns:cc="http://creativecommons.org/ns#" xmlns:dc="http://purl.org/dc/elements/1.1/" xmlns:rdf="http://www.w3.org/1999/02/22-rdf-syntax-ns#">
   <cc:Work>
    <dc:type rdf:resource="http://purl.org/dc/dcmitype/StillImage"/>
    <dc:date>2020-09-26T14:09:59.114250</dc:date>
    <dc:format>image/svg+xml</dc:format>
    <dc:creator>
     <cc:Agent>
      <dc:title>Matplotlib v3.3.1, https://matplotlib.org/</dc:title>
     </cc:Agent>
    </dc:creator>
   </cc:Work>
  </rdf:RDF>
 </metadata>
 <defs>
  <style type="text/css">*{stroke-linecap:butt;stroke-linejoin:round;}</style>
 </defs>
 <g id="figure_1">
  <g id="patch_1">
   <path d="M 0 432 
L 720 432 
L 720 0 
L 0 0 
z
" style="fill:#ffffff;"/>
  </g>
  <g id="axes_1">
   <g id="patch_2">
    <path d="M 45.29 390.04 
L 709.2 390.04 
L 709.2 26.88 
L 45.29 26.88 
z
" style="fill:#ffffff;"/>
   </g>
   <g id="PathCollection_1">
    <defs>
     <path d="M 0 3 
C 0.795609 3 1.55874 2.683901 2.12132 2.12132 
C 2.683901 1.55874 3 0.795609 3 0 
C 3 -0.795609 2.683901 -1.55874 2.12132 -2.12132 
C 1.55874 -2.683901 0.795609 -3 0 -3 
C -0.795609 -3 -1.55874 -2.683901 -2.12132 -2.12132 
C -2.683901 -1.55874 -3 -0.795609 -3 0 
C -3 0.795609 -2.683901 1.55874 -2.12132 2.12132 
C -1.55874 2.683901 -0.795609 3 0 3 
z
" id="me5cc1baeda" style="stroke:#0000ff;"/>
    </defs>
    <g clip-path="url(#p3875d12673)">
     <use style="fill:#0000ff;stroke:#0000ff;" x="149.943322" xlink:href="#me5cc1baeda" y="373.532727"/>
     <use style="fill:#0000ff;stroke:#0000ff;" x="144.28045" xlink:href="#me5cc1baeda" y="366.647787"/>
     <use style="fill:#0000ff;stroke:#0000ff;" x="191.557675" xlink:href="#me5cc1baeda" y="336.47448"/>
     <use style="fill:#0000ff;stroke:#0000ff;" x="233.508657" xlink:href="#me5cc1baeda" y="321.807417"/>
     <use style="fill:#0000ff;stroke:#0000ff;" x="223.276459" xlink:href="#me5cc1baeda" y="280.974545"/>
     <use style="fill:#0000ff;stroke:#0000ff;" x="255.426678" xlink:href="#me5cc1baeda" y="309.78345"/>
     <use style="fill:#0000ff;stroke:#0000ff;" x="263.207113" xlink:href="#me5cc1baeda" y="272.470144"/>
     <use style="fill:#0000ff;stroke:#0000ff;" x="265.954402" xlink:href="#me5cc1baeda" y="278.360328"/>
     <use style="fill:#0000ff;stroke:#0000ff;" x="330.71058" xlink:href="#me5cc1baeda" y="243.662007"/>
     <use style="fill:#0000ff;stroke:#0000ff;" x="347.318343" xlink:href="#me5cc1baeda" y="199.247788"/>
     <use style="fill:#0000ff;stroke:#0000ff;" x="351.38806" xlink:href="#me5cc1baeda" y="214.312027"/>
     <use style="fill:#0000ff;stroke:#0000ff;" x="405.178443" xlink:href="#me5cc1baeda" y="141.430443"/>
     <use style="fill:#0000ff;stroke:#0000ff;" x="388.59254" xlink:href="#me5cc1baeda" y="198.378617"/>
     <use style="fill:#0000ff;stroke:#0000ff;" x="387.854935" xlink:href="#me5cc1baeda" y="148.843866"/>
     <use style="fill:#0000ff;stroke:#0000ff;" x="460.841664" xlink:href="#me5cc1baeda" y="166.600113"/>
     <use style="fill:#0000ff;stroke:#0000ff;" x="452.207197" xlink:href="#me5cc1baeda" y="152.98988"/>
     <use style="fill:#0000ff;stroke:#0000ff;" x="496.894236" xlink:href="#me5cc1baeda" y="131.77857"/>
     <use style="fill:#0000ff;stroke:#0000ff;" x="539.478478" xlink:href="#me5cc1baeda" y="119.683882"/>
     <use style="fill:#0000ff;stroke:#0000ff;" x="550.318419" xlink:href="#me5cc1baeda" y="102.918774"/>
     <use style="fill:#0000ff;stroke:#0000ff;" x="575.3768" xlink:href="#me5cc1baeda" y="97.818895"/>
     <use style="fill:#0000ff;stroke:#0000ff;" x="606.341389" xlink:href="#me5cc1baeda" y="53.331707"/>
    </g>
   </g>
   <g id="PathCollection_2">
    <defs>
     <path d="M 0 3 
C 0.795609 3 1.55874 2.683901 2.12132 2.12132 
C 2.683901 1.55874 3 0.795609 3 0 
C 3 -0.795609 2.683901 -1.55874 2.12132 -2.12132 
C 1.55874 -2.683901 0.795609 -3 0 -3 
C -0.795609 -3 -1.55874 -2.683901 -2.12132 -2.12132 
C -2.683901 -1.55874 -3 -0.795609 -3 0 
C -3 0.795609 -2.683901 1.55874 -2.12132 2.12132 
C -1.55874 2.683901 -0.795609 3 0 3 
z
" id="mb7615fa8df" style="stroke:#ff0000;"/>
    </defs>
    <g clip-path="url(#p3875d12673)">
     <use style="fill:#ff0000;stroke:#ff0000;" x="174.244071" xlink:href="#mb7615fa8df" y="345.876559"/>
     <use style="fill:#ff0000;stroke:#ff0000;" x="176.94305" xlink:href="#mb7615fa8df" y="365.80377"/>
     <use style="fill:#ff0000;stroke:#ff0000;" x="221.545648" xlink:href="#mb7615fa8df" y="317.864408"/>
     <use style="fill:#ff0000;stroke:#ff0000;" x="211.335813" xlink:href="#mb7615fa8df" y="297.208645"/>
     <use style="fill:#ff0000;stroke:#ff0000;" x="199.667141" xlink:href="#mb7615fa8df" y="333.376135"/>
     <use style="fill:#ff0000;stroke:#ff0000;" x="219.455888" xlink:href="#mb7615fa8df" y="285.053525"/>
     <use style="fill:#ff0000;stroke:#ff0000;" x="256.557474" xlink:href="#mb7615fa8df" y="293.122061"/>
     <use style="fill:#ff0000;stroke:#ff0000;" x="293.660465" xlink:href="#mb7615fa8df" y="254.63083"/>
     <use style="fill:#ff0000;stroke:#ff0000;" x="307.225037" xlink:href="#mb7615fa8df" y="201.520709"/>
     <use style="fill:#ff0000;stroke:#ff0000;" x="314.337087" xlink:href="#mb7615fa8df" y="248.653136"/>
     <use style="fill:#ff0000;stroke:#ff0000;" x="385.347184" xlink:href="#mb7615fa8df" y="214.493944"/>
     <use style="fill:#ff0000;stroke:#ff0000;" x="398.778111" xlink:href="#mb7615fa8df" y="207.540796"/>
     <use style="fill:#ff0000;stroke:#ff0000;" x="404.325608" xlink:href="#mb7615fa8df" y="186.645507"/>
     <use style="fill:#ff0000;stroke:#ff0000;" x="407.185673" xlink:href="#mb7615fa8df" y="178.300125"/>
     <use style="fill:#ff0000;stroke:#ff0000;" x="447.817498" xlink:href="#mb7615fa8df" y="157.635537"/>
     <use style="fill:#ff0000;stroke:#ff0000;" x="488.070184" xlink:href="#mb7615fa8df" y="155.123116"/>
     <use style="fill:#ff0000;stroke:#ff0000;" x="518.799279" xlink:href="#mb7615fa8df" y="114.391771"/>
     <use style="fill:#ff0000;stroke:#ff0000;" x="536.671479" xlink:href="#mb7615fa8df" y="121.730683"/>
     <use style="fill:#ff0000;stroke:#ff0000;" x="545.973859" xlink:href="#mb7615fa8df" y="53.705777"/>
     <use style="fill:#ff0000;stroke:#ff0000;" x="588.63365" xlink:href="#mb7615fa8df" y="68.268922"/>
     <use style="fill:#ff0000;stroke:#ff0000;" x="579.522295" xlink:href="#mb7615fa8df" y="60.279961"/>
    </g>
   </g>
   <g id="patch_3">
    <path clip-path="url(#p3875d12673)" d="M 165.474799 367.197537 
C 168.780787 367.197537 171.951816 365.884054 174.289503 363.546367 
C 176.62719 361.208681 177.940673 358.037652 177.940673 354.731664 
C 177.940673 351.425675 176.62719 348.254647 174.289503 345.91696 
C 171.951816 343.579273 168.780787 342.26579 165.474799 342.26579 
C 162.168811 342.26579 158.997782 343.579273 156.660096 345.91696 
C 154.322409 348.254647 153.008926 351.425675 153.008926 354.731664 
C 153.008926 358.037652 154.322409 361.208681 156.660096 363.546367 
C 158.997782 365.884054 162.168811 367.197537 165.474799 367.197537 
z
" style="fill:#ff0000;opacity:0.2;stroke:#ff0000;stroke-linejoin:miter;"/>
   </g>
   <g id="patch_4">
    <path clip-path="url(#p3875d12673)" d="M 179.141999 364.544244 
C 182.233184 364.544244 185.198178 363.316103 187.383976 361.130305 
C 189.569774 358.944507 190.797915 355.979513 190.797915 352.888328 
C 190.797915 349.797143 189.569774 346.832149 187.383976 344.646351 
C 185.198178 342.460553 182.233184 341.232412 179.141999 341.232412 
C 176.050814 341.232412 173.08582 342.460553 170.900022 344.646351 
C 168.714224 346.832149 167.486083 349.797143 167.486083 352.888328 
C 167.486083 355.979513 168.714224 358.944507 170.900022 361.130305 
C 173.08582 363.316103 176.050814 364.544244 179.141999 364.544244 
z
" style="fill:#ff0000;opacity:0.2;stroke:#ff0000;stroke-linejoin:miter;"/>
   </g>
   <g id="patch_5">
    <path clip-path="url(#p3875d12673)" d="M 210.105273 340.769471 
C 213.363486 340.769471 216.48869 339.474969 218.792594 337.171065 
C 221.096499 334.86716 222.391 331.741957 222.391 328.483744 
C 222.391 325.225531 221.096499 322.100327 218.792594 319.796423 
C 216.48869 317.492518 213.363486 316.198016 210.105273 316.198016 
C 206.84706 316.198016 203.721856 317.492518 201.417952 319.796423 
C 199.114047 322.100327 197.819545 325.225531 197.819545 328.483744 
C 197.819545 331.741957 199.114047 334.86716 201.417952 337.171065 
C 203.721856 339.474969 206.84706 340.769471 210.105273 340.769471 
z
" style="fill:#ff0000;opacity:0.2;stroke:#ff0000;stroke-linejoin:miter;"/>
   </g>
   <g id="patch_6">
    <path clip-path="url(#p3875d12673)" d="M 220.288272 315.780928 
C 223.521189 315.780928 226.622129 314.496477 228.908146 312.210459 
C 231.194164 309.924442 232.478615 306.823502 232.478615 303.590585 
C 232.478615 300.357668 231.194164 297.256728 228.908146 294.970711 
C 226.622129 292.684694 223.521189 291.400242 220.288272 291.400242 
C 217.055355 291.400242 213.954415 292.684694 211.668398 294.970711 
C 209.382381 297.256728 208.097929 300.357668 208.097929 303.590585 
C 208.097929 306.823502 209.382381 309.924442 211.668398 312.210459 
C 213.954415 314.496477 217.055355 315.780928 220.288272 315.780928 
z
" style="fill:#ff0000;opacity:0.2;stroke:#ff0000;stroke-linejoin:miter;"/>
   </g>
   <g id="patch_7">
    <path clip-path="url(#p3875d12673)" d="M 217.614421 322.068742 
C 220.728336 322.068742 223.715132 320.831571 225.917002 318.629701 
C 228.118872 316.427831 229.356043 313.441035 229.356043 310.32712 
C 229.356043 307.213205 228.118872 304.22641 225.917002 302.024539 
C 223.715132 299.822669 220.728336 298.585498 217.614421 298.585498 
C 214.500507 298.585498 211.513711 299.822669 209.311841 302.024539 
C 207.109971 304.22641 205.872799 307.213205 205.872799 310.32712 
C 205.872799 313.441035 207.109971 316.427831 209.311841 318.629701 
C 211.513711 320.831571 214.500507 322.068742 217.614421 322.068742 
z
" style="fill:#ff0000;opacity:0.2;stroke:#ff0000;stroke-linejoin:miter;"/>
   </g>
   <g id="patch_8">
    <path clip-path="url(#p3875d12673)" d="M 224.36531 303.416597 
C 227.345664 303.416597 230.204352 302.23249 232.31178 300.125061 
C 234.419209 298.017633 235.603316 295.158945 235.603316 292.178591 
C 235.603316 289.198237 234.419209 286.339549 232.31178 284.232121 
C 230.204352 282.124692 227.345664 280.940585 224.36531 280.940585 
C 221.384956 280.940585 218.526269 282.124692 216.41884 284.232121 
C 214.311412 286.339549 213.127304 289.198237 213.127304 292.178591 
C 213.127304 295.158945 214.311412 298.017633 216.41884 300.125061 
C 218.526269 302.23249 221.384956 303.416597 224.36531 303.416597 
z
" style="fill:#ff0000;opacity:0.2;stroke:#ff0000;stroke-linejoin:miter;"/>
   </g>
   <g id="patch_9">
    <path clip-path="url(#p3875d12673)" d="M 244.428028 296.125336 
C 247.288935 296.125336 250.033053 294.988685 252.05602 292.965718 
C 254.078987 290.942751 255.215638 288.198633 255.215638 285.337726 
C 255.215638 282.476818 254.078987 279.7327 252.05602 277.709733 
C 250.033053 275.686766 247.288935 274.550115 244.428028 274.550115 
C 241.56712 274.550115 238.823002 275.686766 236.800035 277.709733 
C 234.777068 279.7327 233.640417 282.476818 233.640417 285.337726 
C 233.640417 288.198633 234.777068 290.942751 236.800035 292.965718 
C 238.823002 294.988685 241.56712 296.125336 244.428028 296.125336 
z
" style="fill:#ff0000;opacity:0.2;stroke:#ff0000;stroke-linejoin:miter;"/>
   </g>
   <g id="patch_10">
    <path clip-path="url(#p3875d12673)" d="M 272.378102 276.120325 
C 275.142109 276.120325 277.793282 275.022173 279.74773 273.067725 
C 281.702178 271.113277 282.80033 268.462104 282.80033 265.698097 
C 282.80033 262.93409 281.702178 260.282917 279.74773 258.328469 
C 277.793282 256.374021 275.142109 255.275869 272.378102 255.275869 
C 269.614095 255.275869 266.962923 256.374021 265.008474 258.328469 
C 263.054026 260.282917 261.955875 262.93409 261.955875 265.698097 
C 261.955875 268.462104 263.054026 271.113277 265.008474 273.067725 
C 266.962923 275.022173 269.614095 276.120325 272.378102 276.120325 
z
" style="fill:#ff0000;opacity:0.2;stroke:#ff0000;stroke-linejoin:miter;"/>
   </g>
   <g id="patch_11">
    <path clip-path="url(#p3875d12673)" d="M 295.9247 242.218812 
C 298.615329 242.218812 301.19612 241.149813 303.098682 239.247251 
C 305.001245 237.344688 306.070243 234.763897 306.070243 232.073268 
C 306.070243 229.382638 305.001245 226.801847 303.098682 224.899285 
C 301.19612 222.996722 298.615329 221.927724 295.9247 221.927724 
C 293.23407 221.927724 290.653279 222.996722 288.750717 224.899285 
C 286.848154 226.801847 285.779156 229.382638 285.779156 232.073268 
C 285.779156 234.763897 286.848154 237.344688 288.750717 239.247251 
C 290.653279 241.149813 293.23407 242.218812 295.9247 242.218812 
z
" style="fill:#ff0000;opacity:0.2;stroke:#ff0000;stroke-linejoin:miter;"/>
   </g>
   <g id="patch_12">
    <path clip-path="url(#p3875d12673)" d="M 313.922883 237.282209 
C 316.561503 237.282209 319.092407 236.233874 320.958192 234.368088 
C 322.823978 232.502303 323.872313 229.971399 323.872313 227.332779 
C 323.872313 224.69416 322.823978 222.163256 320.958192 220.29747 
C 319.092407 218.431684 316.561503 217.38335 313.922883 217.38335 
C 311.284264 217.38335 308.75336 218.431684 306.887574 220.29747 
C 305.021788 222.163256 303.973454 224.69416 303.973454 227.332779 
C 303.973454 229.971399 305.021788 232.502303 306.887574 234.368088 
C 308.75336 236.233874 311.284264 237.282209 313.922883 237.282209 
z
" style="fill:#ff0000;opacity:0.2;stroke:#ff0000;stroke-linejoin:miter;"/>
   </g>
   <g id="patch_13">
    <path clip-path="url(#p3875d12673)" d="M 351.687893 222.924733 
C 354.292213 222.924733 356.790217 221.890026 358.631749 220.048494 
C 360.473282 218.206962 361.507989 215.708958 361.507989 213.104638 
C 361.507989 210.500318 360.473282 208.002314 358.631749 206.160782 
C 356.790217 204.319249 354.292213 203.284542 351.687893 203.284542 
C 349.083573 203.284542 346.585569 204.319249 344.744037 206.160782 
C 342.902505 208.002314 341.867798 210.500318 341.867798 213.104638 
C 341.867798 215.708958 342.902505 218.206962 344.744037 220.048494 
C 346.585569 221.890026 349.083573 222.924733 351.687893 222.924733 
z
" style="fill:#ff0000;opacity:0.2;stroke:#ff0000;stroke-linejoin:miter;"/>
   </g>
   <g id="patch_14">
    <path clip-path="url(#p3875d12673)" d="M 382.975313 211.38432 
C 385.558806 211.38432 388.036834 210.357887 389.863639 208.531082 
C 391.690445 206.704276 392.716878 204.226249 392.716878 201.642755 
C 392.716878 199.059262 391.690445 196.581235 389.863639 194.754429 
C 388.036834 192.927624 385.558806 191.901191 382.975313 191.901191 
C 380.39182 191.901191 377.913792 192.927624 376.086987 194.754429 
C 374.260181 196.581235 373.233749 199.059262 373.233749 201.642755 
C 373.233749 204.226249 374.260181 206.704276 376.086987 208.531082 
C 377.913792 210.357887 380.39182 211.38432 382.975313 211.38432 
z
" style="fill:#ff0000;opacity:0.2;stroke:#ff0000;stroke-linejoin:miter;"/>
   </g>
   <g id="patch_15">
    <path clip-path="url(#p3875d12673)" d="M 406.107077 196.89829 
C 408.679108 196.89829 411.146141 195.876411 412.964842 194.05771 
C 414.783543 192.23901 415.805421 189.771976 415.805421 187.199945 
C 415.805421 184.627914 414.783543 182.160881 412.964842 180.34218 
C 411.146141 178.523479 408.679108 177.501601 406.107077 177.501601 
C 403.535046 177.501601 401.068012 178.523479 399.249312 180.34218 
C 397.430611 182.160881 396.408732 184.627914 396.408732 187.199945 
C 396.408732 189.771976 397.430611 192.23901 399.249312 194.05771 
C 401.068012 195.876411 403.535046 196.89829 406.107077 196.89829 
z
" style="fill:#ff0000;opacity:0.2;stroke:#ff0000;stroke-linejoin:miter;"/>
   </g>
   <g id="patch_16">
    <path clip-path="url(#p3875d12673)" d="M 421.770574 184.596249 
C 424.337036 184.596249 426.798728 183.576583 428.61349 181.76182 
C 430.428253 179.947058 431.447919 177.485366 431.447919 174.918904 
C 431.447919 172.352443 430.428253 169.890751 428.61349 168.075988 
C 426.798728 166.261226 424.337036 165.24156 421.770574 165.24156 
C 419.204112 165.24156 416.742421 166.261226 414.927658 168.075988 
C 413.112895 169.890751 412.093229 172.352443 412.093229 174.918904 
C 412.093229 177.485366 413.112895 179.947058 414.927658 181.76182 
C 416.742421 183.576583 419.204112 184.596249 421.770574 184.596249 
z
" style="fill:#ff0000;opacity:0.2;stroke:#ff0000;stroke-linejoin:miter;"/>
   </g>
   <g id="patch_17">
    <path clip-path="url(#p3875d12673)" d="M 445.295464 169.547437 
C 447.859661 169.547437 450.31918 168.528671 452.132341 166.715509 
C 453.945502 164.902348 454.964268 162.442829 454.964268 159.878632 
C 454.964268 157.314435 453.945502 154.854916 452.132341 153.041755 
C 450.31918 151.228594 447.859661 150.209827 445.295464 150.209827 
C 442.731267 150.209827 440.271747 151.228594 438.458586 153.041755 
C 436.645425 154.854916 435.626659 157.314435 435.626659 159.878632 
C 435.626659 162.442829 436.645425 164.902348 438.458586 166.715509 
C 440.271747 168.528671 442.731267 169.547437 445.295464 169.547437 
z
" style="fill:#ff0000;opacity:0.2;stroke:#ff0000;stroke-linejoin:miter;"/>
   </g>
   <g id="patch_18">
    <path clip-path="url(#p3875d12673)" d="M 475.056062 158.845597 
C 477.619592 158.845597 480.078471 157.827096 481.89116 156.014406 
C 483.70385 154.201717 484.722351 151.742838 484.722351 149.179308 
C 484.722351 146.615778 483.70385 144.156899 481.89116 142.344209 
C 480.078471 140.53152 477.619592 139.513019 475.056062 139.513019 
C 472.492532 139.513019 470.033653 140.53152 468.220963 142.344209 
C 466.408274 144.156899 465.389773 146.615778 465.389773 149.179308 
C 465.389773 151.742838 466.408274 154.201717 468.220963 156.014406 
C 470.033653 157.827096 472.492532 158.845597 475.056062 158.845597 
z
" style="fill:#ff0000;opacity:0.2;stroke:#ff0000;stroke-linejoin:miter;"/>
   </g>
   <g id="patch_19">
    <path clip-path="url(#p3875d12673)" d="M 506.206969 137.787415 
C 508.770444 137.787415 511.22927 136.768936 513.04192 134.956286 
C 514.85457 133.143636 515.87305 130.68481 515.87305 128.121335 
C 515.87305 125.557861 514.85457 123.099034 513.04192 121.286384 
C 511.22927 119.473734 508.770444 118.455255 506.206969 118.455255 
C 503.643495 118.455255 501.184668 119.473734 499.372018 121.286384 
C 497.559368 123.099034 496.540889 125.557861 496.540889 128.121335 
C 496.540889 130.68481 497.559368 133.143636 499.372018 134.956286 
C 501.184668 136.768936 503.643495 137.787415 506.206969 137.787415 
z
" style="fill:#ff0000;opacity:0.2;stroke:#ff0000;stroke-linejoin:miter;"/>
   </g>
   <g id="patch_20">
    <path clip-path="url(#p3875d12673)" d="M 533.57572 125.875002 
C 536.139267 125.875002 538.598164 124.856493 540.410866 123.043791 
C 542.223568 121.231089 543.242077 118.772192 543.242077 116.208645 
C 543.242077 113.645097 542.223568 111.1862 540.410866 109.373498 
C 538.598164 107.560796 536.139267 106.542287 533.57572 106.542287 
C 531.012172 106.542287 528.553275 107.560796 526.740573 109.373498 
C 524.927871 111.1862 523.909362 113.645097 523.909362 116.208645 
C 523.909362 118.772192 524.927871 121.231089 526.740573 123.043791 
C 528.553275 124.856493 531.012172 125.875002 533.57572 125.875002 
z
" style="fill:#ff0000;opacity:0.2;stroke:#ff0000;stroke-linejoin:miter;"/>
   </g>
   <g id="patch_21">
    <path clip-path="url(#p3875d12673)" d="M 554.674425 94.160564 
C 557.237993 94.160564 559.69691 93.142048 561.509626 91.329331 
C 563.322343 89.516614 564.34086 87.057698 564.34086 84.494129 
C 564.34086 81.930561 563.322343 79.471644 561.509626 77.658928 
C 559.69691 75.846211 557.237993 74.827694 554.674425 74.827694 
C 552.110856 74.827694 549.65194 75.846211 547.839223 77.658928 
C 546.026506 79.471644 545.00799 81.930561 545.00799 84.494129 
C 545.00799 87.057698 546.026506 89.516614 547.839223 91.329331 
C 549.65194 93.142048 552.110856 94.160564 554.674425 94.160564 
z
" style="fill:#ff0000;opacity:0.2;stroke:#ff0000;stroke-linejoin:miter;"/>
   </g>
   <g id="patch_22">
    <path clip-path="url(#p3875d12673)" d="M 582.855222 76.677046 
C 585.418729 76.677046 587.877586 75.658554 589.690259 73.845881 
C 591.502932 72.033208 592.521424 69.57435 592.521424 67.010843 
C 592.521424 64.447336 591.502932 61.988479 589.690259 60.175806 
C 587.877586 58.363133 585.418729 57.344641 582.855222 57.344641 
C 580.291715 57.344641 577.832858 58.363133 576.020185 60.175806 
C 574.207511 61.988479 573.189019 64.447336 573.189019 67.010843 
C 573.189019 69.57435 574.207511 72.033208 576.020185 73.845881 
C 577.832858 75.658554 580.291715 76.677046 582.855222 76.677046 
z
" style="fill:#ff0000;opacity:0.2;stroke:#ff0000;stroke-linejoin:miter;"/>
   </g>
   <g id="patch_23">
    <path clip-path="url(#p3875d12673)" d="M 598.045909 62.718811 
C 600.609301 62.718811 603.068049 61.700365 604.880641 59.887773 
C 606.693232 58.075181 607.711679 55.616434 607.711679 53.053042 
C 607.711679 50.48965 606.693232 48.030903 604.880641 46.218311 
C 603.068049 44.405719 600.609301 43.387273 598.045909 43.387273 
C 595.482517 43.387273 593.02377 44.405719 591.211178 46.218311 
C 589.398586 48.030903 588.38014 50.48965 588.38014 53.053042 
C 588.38014 55.616434 589.398586 58.075181 591.211178 59.887773 
C 593.02377 61.700365 595.482517 62.718811 598.045909 62.718811 
z
" style="fill:#ff0000;opacity:0.2;stroke:#ff0000;stroke-linejoin:miter;"/>
   </g>
   <g id="patch_24">
    <path clip-path="url(#p3875d12673)" d="M 155.081701 369.434282 
C 157.269068 369.434282 159.367141 368.565231 160.913843 367.018529 
C 162.460545 365.471827 163.329595 363.373755 163.329595 361.186387 
C 163.329595 358.99902 162.460545 356.900948 160.913843 355.354245 
C 159.367141 353.807543 157.269068 352.938493 155.081701 352.938493 
C 152.894334 352.938493 150.796261 353.807543 149.249559 355.354245 
C 147.702857 356.900948 146.833807 358.99902 146.833807 361.186387 
C 146.833807 363.373755 147.702857 365.471827 149.249559 367.018529 
C 150.796261 368.565231 152.894334 369.434282 155.081701 369.434282 
z
" style="fill:#008000;opacity:0.5;stroke:#008000;stroke-linejoin:miter;"/>
   </g>
   <g id="patch_25">
    <path clip-path="url(#p3875d12673)" d="M 193.766511 341.383168 
C 195.888573 341.383168 197.924006 340.540064 199.42453 339.03954 
C 200.925054 337.539016 201.768158 335.503583 201.768158 333.381521 
C 201.768158 331.25946 200.925054 329.224027 199.42453 327.723503 
C 197.924006 326.222979 195.888573 325.379875 193.766511 325.379875 
C 191.644449 325.379875 189.609016 326.222979 188.108492 327.723503 
C 186.607968 329.224027 185.764864 331.25946 185.764864 333.381521 
C 185.764864 335.503583 186.607968 337.539016 188.108492 339.03954 
C 189.609016 340.540064 191.644449 341.383168 193.766511 341.383168 
z
" style="fill:#008000;opacity:0.5;stroke:#008000;stroke-linejoin:miter;"/>
   </g>
   <g id="patch_26">
    <path clip-path="url(#p3875d12673)" d="M 226.051168 325.67576 
C 228.248334 325.67576 230.355807 324.802816 231.909438 323.249185 
C 233.46307 321.695553 234.336013 319.588081 234.336013 317.390914 
C 234.336013 315.193747 233.46307 313.086275 231.909438 311.532643 
C 230.355807 309.979012 228.248334 309.106068 226.051168 309.106068 
C 223.854001 309.106068 221.746528 309.979012 220.192897 311.532643 
C 218.639265 313.086275 217.766322 315.193747 217.766322 317.390914 
C 217.766322 319.588081 218.639265 321.695553 220.192897 323.249185 
C 221.746528 324.802816 223.854001 325.67576 226.051168 325.67576 
z
" style="fill:#008000;opacity:0.5;stroke:#008000;stroke-linejoin:miter;"/>
   </g>
   <g id="patch_27">
    <path clip-path="url(#p3875d12673)" d="M 238.751988 296.278848 
C 240.868382 296.278848 242.898378 295.437996 244.394895 293.941479 
C 245.891411 292.444963 246.732263 290.414966 246.732263 288.298572 
C 246.732263 286.182179 245.891411 284.152182 244.394895 282.655666 
C 242.898378 281.159149 240.868382 280.318297 238.751988 280.318297 
C 236.635594 280.318297 234.605597 281.159149 233.109081 282.655666 
C 231.612564 284.152182 230.771712 286.182179 230.771712 288.298572 
C 230.771712 290.414966 231.612564 292.444963 233.109081 293.941479 
C 234.605597 295.437996 236.635594 296.278848 238.751988 296.278848 
z
" style="fill:#008000;opacity:0.5;stroke:#008000;stroke-linejoin:miter;"/>
   </g>
   <g id="patch_28">
    <path clip-path="url(#p3875d12673)" d="M 259.045658 294.201441 
C 261.05987 294.201441 262.991856 293.401186 264.416119 291.976923 
C 265.840382 290.552659 266.640637 288.620673 266.640637 286.606461 
C 266.640637 284.592249 265.840382 282.660262 264.416119 281.235999 
C 262.991856 279.811736 261.05987 279.011481 259.045658 279.011481 
C 257.031445 279.011481 255.099459 279.811736 253.675196 281.235999 
C 252.250933 282.660262 251.450678 284.592249 251.450678 286.606461 
C 251.450678 288.620673 252.250933 290.552659 253.675196 291.976923 
C 255.099459 293.401186 257.031445 294.201441 259.045658 294.201441 
z
" style="fill:#008000;opacity:0.5;stroke:#008000;stroke-linejoin:miter;"/>
   </g>
   <g id="patch_29">
    <path clip-path="url(#p3875d12673)" d="M 272.727673 277.597488 
C 274.645183 277.597488 276.484414 276.835654 277.840298 275.47977 
C 279.196182 274.123886 279.958017 272.284654 279.958017 270.367145 
C 279.958017 268.449635 279.196182 266.610404 277.840298 265.25452 
C 276.484414 263.898636 274.645183 263.136801 272.727673 263.136801 
C 270.810164 263.136801 268.970932 263.898636 267.615048 265.25452 
C 266.259164 266.610404 265.49733 268.449635 265.49733 270.367145 
C 265.49733 272.284654 266.259164 274.123886 267.615048 275.47977 
C 268.970932 276.835654 270.810164 277.597488 272.727673 277.597488 
z
" style="fill:#008000;opacity:0.5;stroke:#008000;stroke-linejoin:miter;"/>
   </g>
   <g id="patch_30">
    <path clip-path="url(#p3875d12673)" d="M 280.53081 271.160474 
C 282.367601 271.160474 284.12941 270.430709 285.428217 269.131902 
C 286.727024 267.833094 287.456789 266.071286 287.456789 264.234495 
C 287.456789 262.397704 286.727024 260.635896 285.428217 259.337089 
C 284.12941 258.038281 282.367601 257.308516 280.53081 257.308516 
C 278.694019 257.308516 276.932211 258.038281 275.633404 259.337089 
C 274.334597 260.635896 273.604832 262.397704 273.604832 264.234495 
C 273.604832 266.071286 274.334597 267.833094 275.633404 269.131902 
C 276.932211 270.430709 278.694019 271.160474 280.53081 271.160474 
z
" style="fill:#008000;opacity:0.5;stroke:#008000;stroke-linejoin:miter;"/>
   </g>
   <g id="patch_31">
    <path clip-path="url(#p3875d12673)" d="M 311.056233 254.369813 
C 312.833847 254.369813 314.538893 253.66356 315.795856 252.406597 
C 317.052819 251.149634 317.759072 249.444587 317.759072 247.666974 
C 317.759072 245.88936 317.052819 244.184313 315.795856 242.92735 
C 314.538893 241.670387 312.833847 240.964134 311.056233 240.964134 
C 309.278619 240.964134 307.573572 241.670387 306.316609 242.92735 
C 305.059646 244.184313 304.353393 245.88936 304.353393 247.666974 
C 304.353393 249.444587 305.059646 251.149634 306.316609 252.406597 
C 307.573572 253.66356 309.278619 254.369813 311.056233 254.369813 
z
" style="fill:#008000;opacity:0.5;stroke:#008000;stroke-linejoin:miter;"/>
   </g>
   <g id="patch_32">
    <path clip-path="url(#p3875d12673)" d="M 337.21303 223.569079 
C 338.954667 223.569079 340.625205 222.877119 341.856728 221.645596 
C 343.088252 220.414072 343.780211 218.743534 343.780211 217.001897 
C 343.780211 215.26026 343.088252 213.589721 341.856728 212.358198 
C 340.625205 211.126674 338.954667 210.434715 337.21303 210.434715 
C 335.471393 210.434715 333.800854 211.126674 332.569331 212.358198 
C 331.337807 213.589721 330.645848 215.26026 330.645848 217.001897 
C 330.645848 218.743534 331.337807 220.414072 332.569331 221.645596 
C 333.800854 222.877119 335.471393 223.569079 337.21303 223.569079 
z
" style="fill:#008000;opacity:0.5;stroke:#008000;stroke-linejoin:miter;"/>
   </g>
   <g id="patch_33">
    <path clip-path="url(#p3875d12673)" d="M 352.696175 211.302964 
C 354.422348 211.302964 356.078055 210.617148 357.298644 209.396558 
C 358.519233 208.175969 359.20505 206.520263 359.20505 204.794089 
C 359.20505 203.067915 358.519233 201.412208 357.298644 200.191619 
C 356.078055 198.97103 354.422348 198.285214 352.696175 198.285214 
C 350.970001 198.285214 349.314294 198.97103 348.093705 200.191619 
C 346.873116 201.412208 346.1873 203.067915 346.1873 204.794089 
C 346.1873 206.520263 346.873116 208.175969 348.093705 209.396558 
C 349.314294 210.617148 350.970001 211.302964 352.696175 211.302964 
z
" style="fill:#008000;opacity:0.5;stroke:#008000;stroke-linejoin:miter;"/>
   </g>
   <g id="patch_34">
    <path clip-path="url(#p3875d12673)" d="M 384.451053 174.969816 
C 386.176572 174.969816 387.83165 174.28426 389.051776 173.064134 
C 390.271902 171.844008 390.957458 170.18893 390.957458 168.463411 
C 390.957458 166.737893 390.271902 165.082814 389.051776 163.862688 
C 387.83165 162.642562 386.176572 161.957006 384.451053 161.957006 
C 382.725535 161.957006 381.070456 162.642562 379.85033 163.862688 
C 378.630204 165.082814 377.944648 166.737893 377.944648 168.463411 
C 377.944648 170.18893 378.630204 171.844008 379.85033 173.064134 
C 381.070456 174.28426 382.725535 174.969816 384.451053 174.969816 
z
" style="fill:#008000;opacity:0.5;stroke:#008000;stroke-linejoin:miter;"/>
   </g>
   <g id="patch_35">
    <path clip-path="url(#p3875d12673)" d="M 399.075085 175.715798 
C 400.808554 175.715798 402.471258 175.027084 403.697006 173.801336 
C 404.922754 172.575588 405.611468 170.912884 405.611468 169.179415 
C 405.611468 167.445946 404.922754 165.783242 403.697006 164.557494 
C 402.471258 163.331747 400.808554 162.643032 399.075085 162.643032 
C 397.341616 162.643032 395.678912 163.331747 394.453165 164.557494 
C 393.227417 165.783242 392.538702 167.445946 392.538702 169.179415 
C 392.538702 170.912884 393.227417 172.575588 394.453165 173.801336 
C 395.678912 175.027084 397.341616 175.715798 399.075085 175.715798 
z
" style="fill:#008000;opacity:0.5;stroke:#008000;stroke-linejoin:miter;"/>
   </g>
   <g id="patch_36">
    <path clip-path="url(#p3875d12673)" d="M 407.578411 158.256674 
C 409.32368 158.256674 410.997702 157.563271 412.231793 156.32918 
C 413.465884 155.095089 414.159287 153.421067 414.159287 151.675798 
C 414.159287 149.93053 413.465884 148.256508 412.231793 147.022417 
C 410.997702 145.788325 409.32368 145.094923 407.578411 145.094923 
C 405.833143 145.094923 404.159121 145.788325 402.92503 147.022417 
C 401.690939 148.256508 400.997536 149.93053 400.997536 151.675798 
C 400.997536 153.421067 401.690939 155.095089 402.92503 156.32918 
C 404.159121 157.563271 405.833143 158.256674 407.578411 158.256674 
z
" style="fill:#008000;opacity:0.5;stroke:#008000;stroke-linejoin:miter;"/>
   </g>
   <g id="patch_37">
    <path clip-path="url(#p3875d12673)" d="M 439.933762 155.93165 
C 441.692004 155.93165 443.37847 155.233093 444.621735 153.989828 
C 445.865 152.746563 446.563557 151.060097 446.563557 149.301854 
C 446.563557 147.543612 445.865 145.857146 444.621735 144.613881 
C 443.37847 143.370616 441.692004 142.672059 439.933762 142.672059 
C 438.175519 142.672059 436.489053 143.370616 435.245788 144.613881 
C 434.002523 145.857146 433.303966 147.543612 433.303966 149.301854 
C 433.303966 151.060097 434.002523 152.746563 435.245788 153.989828 
C 436.489053 155.233093 438.175519 155.93165 439.933762 155.93165 
z
" style="fill:#008000;opacity:0.5;stroke:#008000;stroke-linejoin:miter;"/>
   </g>
   <g id="patch_38">
    <path clip-path="url(#p3875d12673)" d="M 456.182007 149.98161 
C 457.953534 149.98161 459.652742 149.277775 460.905401 148.025116 
C 462.15806 146.772458 462.861895 145.073249 462.861895 143.301722 
C 462.861895 141.530195 462.15806 139.830987 460.905401 138.578328 
C 459.652742 137.325669 457.953534 136.621834 456.182007 136.621834 
C 454.41048 136.621834 452.711271 137.325669 451.458613 138.578328 
C 450.205954 139.830987 449.502119 141.530195 449.502119 143.301722 
C 449.502119 145.073249 450.205954 146.772458 451.458613 148.025116 
C 452.711271 149.277775 454.41048 149.98161 456.182007 149.98161 
z
" style="fill:#008000;opacity:0.5;stroke:#008000;stroke-linejoin:miter;"/>
   </g>
   <g id="patch_39">
    <path clip-path="url(#p3875d12673)" d="M 483.845581 140.334411 
C 485.631031 140.334411 487.343594 139.625044 488.606098 138.362541 
C 489.868601 137.100037 490.577968 135.387474 490.577968 133.602025 
C 490.577968 131.816575 489.868601 130.104012 488.606098 128.841508 
C 487.343594 127.579005 485.631031 126.869638 483.845581 126.869638 
C 482.060132 126.869638 480.347569 127.579005 479.085065 128.841508 
C 477.822562 130.104012 477.113195 131.816575 477.113195 133.602025 
C 477.113195 135.387474 477.822562 137.100037 479.085065 138.362541 
C 480.347569 139.625044 482.060132 140.334411 483.845581 140.334411 
z
" style="fill:#008000;opacity:0.5;stroke:#008000;stroke-linejoin:miter;"/>
   </g>
   <g id="patch_40">
    <path clip-path="url(#p3875d12673)" d="M 519.572537 128.115175 
C 521.373759 128.115175 523.101451 127.399542 524.375107 126.125885 
C 525.648764 124.852229 526.364397 123.124537 526.364397 121.323315 
C 526.364397 119.522092 525.648764 117.794401 524.375107 116.520744 
C 523.101451 115.247088 521.373759 114.531454 519.572537 114.531454 
C 517.771315 114.531454 516.043623 115.247088 514.769966 116.520744 
C 513.49631 117.794401 512.780677 119.522092 512.780677 121.323315 
C 512.780677 123.124537 513.49631 124.852229 514.769966 126.125885 
C 516.043623 127.399542 517.771315 128.115175 519.572537 128.115175 
z
" style="fill:#008000;opacity:0.5;stroke:#008000;stroke-linejoin:miter;"/>
   </g>
   <g id="patch_41">
    <path clip-path="url(#p3875d12673)" d="M 547.642956 117.305555 
C 549.463379 117.305555 551.209488 116.582293 552.496722 115.295059 
C 553.783956 114.007825 554.507218 112.261716 554.507218 110.441292 
C 554.507218 108.620869 553.783956 106.87476 552.496722 105.587526 
C 551.209488 104.300292 549.463379 103.57703 547.642956 103.57703 
C 545.822532 103.57703 544.076423 104.300292 542.789189 105.587526 
C 541.501955 106.87476 540.778693 108.620869 540.778693 110.441292 
C 540.778693 112.261716 541.501955 114.007825 542.789189 115.295059 
C 544.076423 116.582293 545.822532 117.305555 547.642956 117.305555 
z
" style="fill:#008000;opacity:0.5;stroke:#008000;stroke-linejoin:miter;"/>
   </g>
   <g id="patch_42">
    <path clip-path="url(#p3875d12673)" d="M 573.299222 106.33487 
C 575.144883 106.33487 576.9152 105.601581 578.22028 104.296501 
C 579.52536 102.991421 580.258649 101.221105 580.258649 99.375443 
C 580.258649 97.529782 579.52536 95.759465 578.22028 94.454385 
C 576.9152 93.149306 575.144883 92.416017 573.299222 92.416017 
C 571.45356 92.416017 569.683244 93.149306 568.378164 94.454385 
C 567.073084 95.759465 566.339795 97.529782 566.339795 99.375443 
C 566.339795 101.221105 567.073084 102.991421 568.378164 104.296501 
C 569.683244 105.601581 571.45356 106.33487 573.299222 106.33487 
z
" style="fill:#008000;opacity:0.5;stroke:#008000;stroke-linejoin:miter;"/>
   </g>
   <g id="patch_43">
    <path clip-path="url(#p3875d12673)" d="M 603.119763 81.332799 
C 604.999996 81.332799 606.803473 80.585774 608.132999 79.256248 
C 609.462525 77.926723 610.20955 76.123245 610.20955 74.243012 
C 610.20955 72.362778 609.462525 70.559301 608.132999 69.229775 
C 606.803473 67.90025 604.999996 67.153225 603.119763 67.153225 
C 601.239529 67.153225 599.436052 67.90025 598.106526 69.229775 
C 596.777 70.559301 596.029976 72.362778 596.029976 74.243012 
C 596.029976 76.123245 596.777 77.926723 598.106526 79.256248 
C 599.436052 80.585774 601.239529 81.332799 603.119763 81.332799 
z
" style="fill:#008000;opacity:0.5;stroke:#008000;stroke-linejoin:miter;"/>
   </g>
   <g id="patch_44">
    <path clip-path="url(#p3875d12673)" d="M 152.320892 368.014321 
C 152.320892 368.014321 152.320892 368.014321 152.320892 368.014321 
C 152.320892 368.014321 152.320892 368.014321 152.320892 368.014321 
C 152.320892 368.014321 152.320892 368.014321 152.320892 368.014321 
C 152.320892 368.014321 152.320892 368.014321 152.320892 368.014321 
C 152.320892 368.014321 152.320892 368.014321 152.320892 368.014321 
C 152.320892 368.014321 152.320892 368.014321 152.320892 368.014321 
C 152.320892 368.014321 152.320892 368.014321 152.320892 368.014321 
C 152.320892 368.014321 152.320892 368.014321 152.320892 368.014321 
z
" style="fill:#ff0000;opacity:0.2;stroke:#ff0000;stroke-linejoin:miter;"/>
   </g>
   <g id="patch_45">
    <path clip-path="url(#p3875d12673)" d="M 152.320892 368.014321 
C 152.320892 368.014321 152.320892 368.014321 152.320892 368.014321 
C 152.320892 368.014321 152.320892 368.014321 152.320892 368.014321 
C 152.320892 368.014321 152.320892 368.014321 152.320892 368.014321 
C 152.320892 368.014321 152.320892 368.014321 152.320892 368.014321 
C 152.320892 368.014321 152.320892 368.014321 152.320892 368.014321 
C 152.320892 368.014321 152.320892 368.014321 152.320892 368.014321 
C 152.320892 368.014321 152.320892 368.014321 152.320892 368.014321 
C 152.320892 368.014321 152.320892 368.014321 152.320892 368.014321 
z
" style="fill:#0000ff;opacity:0.2;stroke:#0000ff;stroke-linejoin:miter;"/>
   </g>
   <g id="patch_46">
    <path clip-path="url(#p3875d12673)" d="M 152.320892 368.014321 
C 152.320892 368.014321 152.320892 368.014321 152.320892 368.014321 
C 152.320892 368.014321 152.320892 368.014321 152.320892 368.014321 
C 152.320892 368.014321 152.320892 368.014321 152.320892 368.014321 
C 152.320892 368.014321 152.320892 368.014321 152.320892 368.014321 
C 152.320892 368.014321 152.320892 368.014321 152.320892 368.014321 
C 152.320892 368.014321 152.320892 368.014321 152.320892 368.014321 
C 152.320892 368.014321 152.320892 368.014321 152.320892 368.014321 
C 152.320892 368.014321 152.320892 368.014321 152.320892 368.014321 
z
" style="fill:#008000;opacity:0.5;stroke:#008000;stroke-linejoin:miter;"/>
   </g>
   <g id="patch_47">
    <path clip-path="url(#p3875d12673)" d="M 150.89435 383.791238 
C 154.200338 383.791238 157.371367 382.477755 159.709054 380.140068 
C 162.04674 377.802382 163.360223 374.631353 163.360223 371.325365 
C 163.360223 368.019376 162.04674 364.848348 159.709054 362.510661 
C 157.371367 360.172974 154.200338 358.859491 150.89435 358.859491 
C 147.588362 358.859491 144.417333 360.172974 142.079646 362.510661 
C 139.74196 364.848348 138.428477 368.019376 138.428477 371.325365 
C 138.428477 374.631353 139.74196 377.802382 142.079646 380.140068 
C 144.417333 382.477755 147.588362 383.791238 150.89435 383.791238 
z
" style="fill:#0000ff;opacity:0.2;stroke:#0000ff;stroke-linejoin:miter;"/>
   </g>
   <g id="patch_48">
    <path clip-path="url(#p3875d12673)" d="M 155.076301 372.876224 
C 158.167486 372.876224 161.132481 371.648084 163.318278 369.462286 
C 165.504076 367.276488 166.732217 364.311494 166.732217 361.220309 
C 166.732217 358.129124 165.504076 355.164129 163.318278 352.978331 
C 161.132481 350.792534 158.167486 349.564393 155.076301 349.564393 
C 151.985116 349.564393 149.020122 350.792534 146.834324 352.978331 
C 144.648526 355.164129 143.420385 358.129124 143.420385 361.220309 
C 143.420385 364.311494 144.648526 367.276488 146.834324 369.462286 
C 149.020122 371.648084 151.985116 372.876224 155.076301 372.876224 
z
" style="fill:#0000ff;opacity:0.2;stroke:#0000ff;stroke-linejoin:miter;"/>
   </g>
   <g id="patch_49">
    <path clip-path="url(#p3875d12673)" d="M 180.776852 353.513688 
C 184.035065 353.513688 187.160269 352.219186 189.464173 349.915282 
C 191.768078 347.611377 193.062579 344.486174 193.062579 341.227961 
C 193.062579 337.969748 191.768078 334.844544 189.464173 332.540639 
C 187.160269 330.236735 184.035065 328.942233 180.776852 328.942233 
C 177.518639 328.942233 174.393435 330.236735 172.089531 332.540639 
C 169.785626 334.844544 168.491125 337.969748 168.491125 341.227961 
C 168.491125 344.486174 169.785626 347.611377 172.089531 349.915282 
C 174.393435 352.219186 177.518639 353.513688 180.776852 353.513688 
z
" style="fill:#0000ff;opacity:0.2;stroke:#0000ff;stroke-linejoin:miter;"/>
   </g>
   <g id="patch_50">
    <path clip-path="url(#p3875d12673)" d="M 218.481083 335.299922 
C 221.714 335.299922 224.81494 334.01547 227.100957 331.729453 
C 229.386975 329.443436 230.671426 326.342496 230.671426 323.109579 
C 230.671426 319.876662 229.386975 316.775722 227.100957 314.489705 
C 224.81494 312.203687 221.714 310.919236 218.481083 310.919236 
C 215.248166 310.919236 212.147226 312.203687 209.861209 314.489705 
C 207.575191 316.775722 206.29074 319.876662 206.29074 323.109579 
C 206.29074 326.342496 207.575191 329.443436 209.861209 331.729453 
C 212.147226 334.01547 215.248166 335.299922 218.481083 335.299922 
z
" style="fill:#0000ff;opacity:0.2;stroke:#0000ff;stroke-linejoin:miter;"/>
   </g>
   <g id="patch_51">
    <path clip-path="url(#p3875d12673)" d="M 232.724803 304.463553 
C 235.838717 304.463553 238.825513 303.226382 241.027383 301.024512 
C 243.229253 298.822641 244.466425 295.835846 244.466425 292.721931 
C 244.466425 289.608016 243.229253 286.62122 241.027383 284.41935 
C 238.825513 282.21748 235.838717 280.980309 232.724803 280.980309 
C 229.610888 280.980309 226.624092 282.21748 224.422222 284.41935 
C 222.220352 286.62122 220.983181 289.608016 220.983181 292.721931 
C 220.983181 295.835846 222.220352 298.822641 224.422222 301.024512 
C 226.624092 303.226382 229.610888 304.463553 232.724803 304.463553 
z
" style="fill:#0000ff;opacity:0.2;stroke:#0000ff;stroke-linejoin:miter;"/>
   </g>
   <g id="patch_52">
    <path clip-path="url(#p3875d12673)" d="M 254.895445 301.437392 
C 257.875799 301.437392 260.734486 300.253285 262.841915 298.145856 
C 264.949343 296.038428 266.13345 293.17974 266.13345 290.199386 
C 266.13345 287.219032 264.949343 284.360344 262.841915 282.252916 
C 260.734486 280.145487 257.875799 278.96138 254.895445 278.96138 
C 251.915091 278.96138 249.056403 280.145487 246.948974 282.252916 
C 244.841546 284.360344 243.657439 287.219032 243.657439 290.199386 
C 243.657439 293.17974 244.841546 296.038428 246.948974 298.145856 
C 249.056403 300.253285 251.915091 301.437392 254.895445 301.437392 
z
" style="fill:#0000ff;opacity:0.2;stroke:#0000ff;stroke-linejoin:miter;"/>
   </g>
   <g id="patch_53">
    <path clip-path="url(#p3875d12673)" d="M 270.635477 284.130153 
C 273.496384 284.130153 276.240502 282.993502 278.263469 280.970535 
C 280.286437 278.947568 281.423087 276.20345 281.423087 273.342542 
C 281.423087 270.481635 280.286437 267.737517 278.263469 265.71455 
C 276.240502 263.691583 273.496384 262.554932 270.635477 262.554932 
C 267.774569 262.554932 265.030451 263.691583 263.007484 265.71455 
C 260.984517 267.737517 259.847866 270.481635 259.847866 273.342542 
C 259.847866 276.20345 260.984517 278.947568 263.007484 280.970535 
C 265.030451 282.993502 267.774569 284.130153 270.635477 284.130153 
z
" style="fill:#0000ff;opacity:0.2;stroke:#0000ff;stroke-linejoin:miter;"/>
   </g>
   <g id="patch_54">
    <path clip-path="url(#p3875d12673)" d="M 280.472754 276.394723 
C 283.236761 276.394723 285.887934 275.296572 287.842382 273.342124 
C 289.79683 271.387675 290.894982 268.736503 290.894982 265.972496 
C 290.894982 263.208489 289.79683 260.557316 287.842382 258.602868 
C 285.887934 256.64842 283.236761 255.550268 280.472754 255.550268 
C 277.708747 255.550268 275.057575 256.64842 273.103127 258.602868 
C 271.148678 260.557316 270.050527 263.208489 270.050527 265.972496 
C 270.050527 268.736503 271.148678 271.387675 273.103127 273.342124 
C 275.057575 275.296572 277.708747 276.394723 280.472754 276.394723 
z
" style="fill:#0000ff;opacity:0.2;stroke:#0000ff;stroke-linejoin:miter;"/>
   </g>
   <g id="patch_55">
    <path clip-path="url(#p3875d12673)" d="M 311.240066 258.651686 
C 313.930696 258.651686 316.511486 257.582687 318.414049 255.680125 
C 320.316611 253.777562 321.38561 251.196772 321.38561 248.506142 
C 321.38561 245.815512 320.316611 243.234722 318.414049 241.332159 
C 316.511486 239.429597 313.930696 238.360598 311.240066 238.360598 
C 308.549436 238.360598 305.968646 239.429597 304.066083 241.332159 
C 302.163521 243.234722 301.094522 245.815512 301.094522 248.506142 
C 301.094522 251.196772 302.163521 253.777562 304.066083 255.680125 
C 305.968646 257.582687 308.549436 258.651686 311.240066 258.651686 
z
" style="fill:#0000ff;opacity:0.2;stroke:#0000ff;stroke-linejoin:miter;"/>
   </g>
   <g id="patch_56">
    <path clip-path="url(#p3875d12673)" d="M 337.858479 230.375239 
C 340.497098 230.375239 343.028002 229.326904 344.893788 227.461118 
C 346.759574 225.595332 347.807908 223.064429 347.807908 220.425809 
C 347.807908 217.787189 346.759574 215.256286 344.893788 213.3905 
C 343.028002 211.524714 340.497098 210.476379 337.858479 210.476379 
C 335.219859 210.476379 332.688955 211.524714 330.82317 213.3905 
C 328.957384 215.256286 327.909049 217.787189 327.909049 220.425809 
C 327.909049 223.064429 328.957384 225.595332 330.82317 227.461118 
C 332.688955 229.326904 335.219859 230.375239 337.858479 230.375239 
z
" style="fill:#0000ff;opacity:0.2;stroke:#0000ff;stroke-linejoin:miter;"/>
   </g>
   <g id="patch_57">
    <path clip-path="url(#p3875d12673)" d="M 356.731643 216.773673 
C 359.335963 216.773673 361.833967 215.738966 363.675499 213.897434 
C 365.517032 212.055901 366.551739 209.557897 366.551739 206.953577 
C 366.551739 204.349258 365.517032 201.851253 363.675499 200.009721 
C 361.833967 198.168189 359.335963 197.133482 356.731643 197.133482 
C 354.127324 197.133482 351.629319 198.168189 349.787787 200.009721 
C 347.946255 201.851253 346.911548 204.349258 346.911548 206.953577 
C 346.911548 209.557897 347.946255 212.055901 349.787787 213.897434 
C 351.629319 215.738966 354.127324 216.773673 356.731643 216.773673 
z
" style="fill:#0000ff;opacity:0.2;stroke:#0000ff;stroke-linejoin:miter;"/>
   </g>
   <g id="patch_58">
    <path clip-path="url(#p3875d12673)" d="M 388.011569 181.988045 
C 390.595063 181.988045 393.07309 180.961612 394.899896 179.134807 
C 396.726701 177.308001 397.753134 174.829974 397.753134 172.246481 
C 397.753134 169.662987 396.726701 167.18496 394.899896 165.358154 
C 393.07309 163.531349 390.595063 162.504916 388.011569 162.504916 
C 385.428076 162.504916 382.950049 163.531349 381.123243 165.358154 
C 379.296438 167.18496 378.270005 169.662987 378.270005 172.246481 
C 378.270005 174.829974 379.296438 177.308001 381.123243 179.134807 
C 382.950049 180.961612 385.428076 181.988045 388.011569 181.988045 
z
" style="fill:#0000ff;opacity:0.2;stroke:#0000ff;stroke-linejoin:miter;"/>
   </g>
   <g id="patch_59">
    <path clip-path="url(#p3875d12673)" d="M 403.203442 178.198811 
C 405.775473 178.198811 408.242506 177.176932 410.061207 175.358231 
C 411.879908 173.539531 412.901786 171.072497 412.901786 168.500466 
C 412.901786 165.928435 411.879908 163.461402 410.061207 161.642701 
C 408.242506 159.824001 405.775473 158.802122 403.203442 158.802122 
C 400.631411 158.802122 398.164377 159.824001 396.345677 161.642701 
C 394.526976 163.461402 393.505097 165.928435 393.505097 168.500466 
C 393.505097 171.072497 394.526976 173.539531 396.345677 175.358231 
C 398.164377 177.176932 400.631411 178.198811 403.203442 178.198811 
z
" style="fill:#0000ff;opacity:0.2;stroke:#0000ff;stroke-linejoin:miter;"/>
   </g>
   <g id="patch_60">
    <path clip-path="url(#p3875d12673)" d="M 411.501953 160.192685 
C 414.068415 160.192685 416.530107 159.173019 418.344869 157.358257 
C 420.159632 155.543494 421.179298 153.081802 421.179298 150.51534 
C 421.179298 147.948879 420.159632 145.487187 418.344869 143.672424 
C 416.530107 141.857662 414.068415 140.837996 411.501953 140.837996 
C 408.935491 140.837996 406.4738 141.857662 404.659037 143.672424 
C 402.844275 145.487187 401.824608 147.948879 401.824608 150.51534 
C 401.824608 153.081802 402.844275 155.543494 404.659037 157.358257 
C 406.4738 159.173019 408.935491 160.192685 411.501953 160.192685 
z
" style="fill:#0000ff;opacity:0.2;stroke:#0000ff;stroke-linejoin:miter;"/>
   </g>
   <g id="patch_61">
    <path clip-path="url(#p3875d12673)" d="M 441.283728 154.968087 
C 443.847925 154.968087 446.307444 153.949321 448.120606 152.13616 
C 449.933767 150.322999 450.952533 147.863479 450.952533 145.299282 
C 450.952533 142.735085 449.933767 140.275566 448.120606 138.462405 
C 446.307444 136.649244 443.847925 135.630478 441.283728 135.630478 
C 438.719531 135.630478 436.260012 136.649244 434.446851 138.462405 
C 432.63369 140.275566 431.614923 142.735085 431.614923 145.299282 
C 431.614923 147.863479 432.63369 150.322999 434.446851 152.13616 
C 436.260012 153.949321 438.719531 154.968087 441.283728 154.968087 
z
" style="fill:#0000ff;opacity:0.2;stroke:#0000ff;stroke-linejoin:miter;"/>
   </g>
   <g id="patch_62">
    <path clip-path="url(#p3875d12673)" d="M 458.764114 148.417889 
C 461.327644 148.417889 463.786523 147.399388 465.599213 145.586699 
C 467.411902 143.774009 468.430403 141.31513 468.430403 138.7516 
C 468.430403 136.18807 467.411902 133.729191 465.599213 131.916502 
C 463.786523 130.103812 461.327644 129.085311 458.764114 129.085311 
C 456.200584 129.085311 453.741705 130.103812 451.929016 131.916502 
C 450.116326 133.729191 449.097825 136.18807 449.097825 138.7516 
C 449.097825 141.31513 450.116326 143.774009 451.929016 145.586699 
C 453.741705 147.399388 456.200584 148.417889 458.764114 148.417889 
z
" style="fill:#0000ff;opacity:0.2;stroke:#0000ff;stroke-linejoin:miter;"/>
   </g>
   <g id="patch_63">
    <path clip-path="url(#p3875d12673)" d="M 485.534857 137.718928 
C 488.098332 137.718928 490.557158 136.700449 492.369808 134.887799 
C 494.182459 133.075149 495.200938 130.616322 495.200938 128.052848 
C 495.200938 125.489373 494.182459 123.030547 492.369808 121.217897 
C 490.557158 119.405247 488.098332 118.386767 485.534857 118.386767 
C 482.971383 118.386767 480.512557 119.405247 478.699906 121.217897 
C 476.887256 123.030547 475.868777 125.489373 475.868777 128.052848 
C 475.868777 130.616322 476.887256 133.075149 478.699906 134.887799 
C 480.512557 136.700449 482.971383 137.718928 485.534857 137.718928 
z
" style="fill:#0000ff;opacity:0.2;stroke:#0000ff;stroke-linejoin:miter;"/>
   </g>
   <g id="patch_64">
    <path clip-path="url(#p3875d12673)" d="M 518.92033 126.815202 
C 521.483878 126.815202 523.942775 125.796694 525.755477 123.983992 
C 527.568179 122.171289 528.586687 119.712393 528.586687 117.148845 
C 528.586687 114.585297 527.568179 112.1264 525.755477 110.313698 
C 523.942775 108.500996 521.483878 107.482488 518.92033 107.482488 
C 516.356782 107.482488 513.897885 108.500996 512.085183 110.313698 
C 510.272481 112.1264 509.253973 114.585297 509.253973 117.148845 
C 509.253973 119.712393 510.272481 122.171289 512.085183 123.983992 
C 513.897885 125.796694 516.356782 126.815202 518.92033 126.815202 
z
" style="fill:#0000ff;opacity:0.2;stroke:#0000ff;stroke-linejoin:miter;"/>
   </g>
   <g id="patch_65">
    <path clip-path="url(#p3875d12673)" d="M 545.818011 113.99971 
C 548.38158 113.99971 550.840496 112.981193 552.653213 111.168476 
C 554.465929 109.35576 555.484446 106.896843 555.484446 104.333275 
C 555.484446 101.769706 554.465929 99.31079 552.653213 97.498073 
C 550.840496 95.685356 548.38158 94.66684 545.818011 94.66684 
C 543.254443 94.66684 540.795526 95.685356 538.982809 97.498073 
C 537.170093 99.31079 536.151576 101.769706 536.151576 104.333275 
C 536.151576 106.896843 537.170093 109.35576 538.982809 111.168476 
C 540.795526 112.981193 543.254443 113.99971 545.818011 113.99971 
z
" style="fill:#0000ff;opacity:0.2;stroke:#0000ff;stroke-linejoin:miter;"/>
   </g>
   <g id="patch_66">
    <path clip-path="url(#p3875d12673)" d="M 572.412298 103.854218 
C 574.975804 103.854218 577.434662 102.835726 579.247335 101.023053 
C 581.060008 99.21038 582.0785 96.751522 582.0785 94.188015 
C 582.0785 91.624509 581.060008 89.165651 579.247335 87.352978 
C 577.434662 85.540305 574.975804 84.521813 572.412298 84.521813 
C 569.848791 84.521813 567.389933 85.540305 565.57726 87.352978 
C 563.764587 89.165651 562.746095 91.624509 562.746095 94.188015 
C 562.746095 96.751522 563.764587 99.21038 565.57726 101.023053 
C 567.389933 102.835726 569.848791 103.854218 572.412298 103.854218 
z
" style="fill:#0000ff;opacity:0.2;stroke:#0000ff;stroke-linejoin:miter;"/>
   </g>
   <g id="patch_67">
    <path clip-path="url(#p3875d12673)" d="M 600.820181 81.610873 
C 603.383573 81.610873 605.84232 80.592427 607.654912 78.779835 
C 609.467504 76.967243 610.48595 74.508496 610.48595 71.945104 
C 610.48595 69.381712 609.467504 66.922964 607.654912 65.110373 
C 605.84232 63.297781 603.383573 62.279334 600.820181 62.279334 
C 598.256789 62.279334 595.798041 63.297781 593.985449 65.110373 
C 592.172858 66.922964 591.154411 69.381712 591.154411 71.945104 
C 591.154411 74.508496 592.172858 76.967243 593.985449 78.779835 
C 595.798041 80.592427 598.256789 81.610873 600.820181 81.610873 
z
" style="fill:#0000ff;opacity:0.2;stroke:#0000ff;stroke-linejoin:miter;"/>
   </g>
   <g id="matplotlib.axis_1">
    <g id="xtick_1">
     <g id="line2d_1">
      <defs>
       <path d="M 0 0 
L 0 3.5 
" id="m1ae6954a50" style="stroke:#000000;stroke-width:0.8;"/>
      </defs>
      <g>
       <use style="stroke:#000000;stroke-width:0.8;" x="71.854025" xlink:href="#m1ae6954a50" y="390.04"/>
      </g>
     </g>
     <g id="text_1">
      <!-- 5 -->
      <g transform="translate(64.482931 404.638438)scale(0.1 -0.1)">
       <defs>
        <path d="M 10.59375 35.5 
L 73.1875 35.5 
L 73.1875 27.203125 
L 10.59375 27.203125 
z
" id="DejaVuSans-8722"/>
        <path d="M 10.796875 72.90625 
L 49.515625 72.90625 
L 49.515625 64.59375 
L 19.828125 64.59375 
L 19.828125 46.734375 
Q 21.96875 47.46875 24.109375 47.828125 
Q 26.265625 48.1875 28.421875 48.1875 
Q 40.625 48.1875 47.75 41.5 
Q 54.890625 34.8125 54.890625 23.390625 
Q 54.890625 11.625 47.5625 5.09375 
Q 40.234375 -1.421875 26.90625 -1.421875 
Q 22.3125 -1.421875 17.546875 -0.640625 
Q 12.796875 0.140625 7.71875 1.703125 
L 7.71875 11.625 
Q 12.109375 9.234375 16.796875 8.0625 
Q 21.484375 6.890625 26.703125 6.890625 
Q 35.15625 6.890625 40.078125 11.328125 
Q 45.015625 15.765625 45.015625 23.390625 
Q 45.015625 31 40.078125 35.4375 
Q 35.15625 39.890625 26.703125 39.890625 
Q 22.75 39.890625 18.8125 39.015625 
Q 14.890625 38.140625 10.796875 36.28125 
z
" id="DejaVuSans-53"/>
       </defs>
       <use xlink:href="#DejaVuSans-8722"/>
       <use x="83.789062" xlink:href="#DejaVuSans-53"/>
      </g>
     </g>
    </g>
    <g id="xtick_2">
     <g id="line2d_2">
      <g>
       <use style="stroke:#000000;stroke-width:0.8;" x="152.320892" xlink:href="#m1ae6954a50" y="390.04"/>
      </g>
     </g>
     <g id="text_2">
      <!-- 0 -->
      <g transform="translate(149.139642 404.638438)scale(0.1 -0.1)">
       <defs>
        <path d="M 31.78125 66.40625 
Q 24.171875 66.40625 20.328125 58.90625 
Q 16.5 51.421875 16.5 36.375 
Q 16.5 21.390625 20.328125 13.890625 
Q 24.171875 6.390625 31.78125 6.390625 
Q 39.453125 6.390625 43.28125 13.890625 
Q 47.125 21.390625 47.125 36.375 
Q 47.125 51.421875 43.28125 58.90625 
Q 39.453125 66.40625 31.78125 66.40625 
z
M 31.78125 74.21875 
Q 44.046875 74.21875 50.515625 64.515625 
Q 56.984375 54.828125 56.984375 36.375 
Q 56.984375 17.96875 50.515625 8.265625 
Q 44.046875 -1.421875 31.78125 -1.421875 
Q 19.53125 -1.421875 13.0625 8.265625 
Q 6.59375 17.96875 6.59375 36.375 
Q 6.59375 54.828125 13.0625 64.515625 
Q 19.53125 74.21875 31.78125 74.21875 
z
" id="DejaVuSans-48"/>
       </defs>
       <use xlink:href="#DejaVuSans-48"/>
      </g>
     </g>
    </g>
    <g id="xtick_3">
     <g id="line2d_3">
      <g>
       <use style="stroke:#000000;stroke-width:0.8;" x="232.787759" xlink:href="#m1ae6954a50" y="390.04"/>
      </g>
     </g>
     <g id="text_3">
      <!-- 5 -->
      <g transform="translate(229.606509 404.638438)scale(0.1 -0.1)">
       <use xlink:href="#DejaVuSans-53"/>
      </g>
     </g>
    </g>
    <g id="xtick_4">
     <g id="line2d_4">
      <g>
       <use style="stroke:#000000;stroke-width:0.8;" x="313.254626" xlink:href="#m1ae6954a50" y="390.04"/>
      </g>
     </g>
     <g id="text_4">
      <!-- 10 -->
      <g transform="translate(306.892126 404.638438)scale(0.1 -0.1)">
       <defs>
        <path d="M 12.40625 8.296875 
L 28.515625 8.296875 
L 28.515625 63.921875 
L 10.984375 60.40625 
L 10.984375 69.390625 
L 28.421875 72.90625 
L 38.28125 72.90625 
L 38.28125 8.296875 
L 54.390625 8.296875 
L 54.390625 0 
L 12.40625 0 
z
" id="DejaVuSans-49"/>
       </defs>
       <use xlink:href="#DejaVuSans-49"/>
       <use x="63.623047" xlink:href="#DejaVuSans-48"/>
      </g>
     </g>
    </g>
    <g id="xtick_5">
     <g id="line2d_5">
      <g>
       <use style="stroke:#000000;stroke-width:0.8;" x="393.721493" xlink:href="#m1ae6954a50" y="390.04"/>
      </g>
     </g>
     <g id="text_5">
      <!-- 15 -->
      <g transform="translate(387.358993 404.638438)scale(0.1 -0.1)">
       <use xlink:href="#DejaVuSans-49"/>
       <use x="63.623047" xlink:href="#DejaVuSans-53"/>
      </g>
     </g>
    </g>
    <g id="xtick_6">
     <g id="line2d_6">
      <g>
       <use style="stroke:#000000;stroke-width:0.8;" x="474.188359" xlink:href="#m1ae6954a50" y="390.04"/>
      </g>
     </g>
     <g id="text_6">
      <!-- 20 -->
      <g transform="translate(467.825859 404.638438)scale(0.1 -0.1)">
       <defs>
        <path d="M 19.1875 8.296875 
L 53.609375 8.296875 
L 53.609375 0 
L 7.328125 0 
L 7.328125 8.296875 
Q 12.9375 14.109375 22.625 23.890625 
Q 32.328125 33.6875 34.8125 36.53125 
Q 39.546875 41.84375 41.421875 45.53125 
Q 43.3125 49.21875 43.3125 52.78125 
Q 43.3125 58.59375 39.234375 62.25 
Q 35.15625 65.921875 28.609375 65.921875 
Q 23.96875 65.921875 18.8125 64.3125 
Q 13.671875 62.703125 7.8125 59.421875 
L 7.8125 69.390625 
Q 13.765625 71.78125 18.9375 73 
Q 24.125 74.21875 28.421875 74.21875 
Q 39.75 74.21875 46.484375 68.546875 
Q 53.21875 62.890625 53.21875 53.421875 
Q 53.21875 48.921875 51.53125 44.890625 
Q 49.859375 40.875 45.40625 35.40625 
Q 44.1875 33.984375 37.640625 27.21875 
Q 31.109375 20.453125 19.1875 8.296875 
z
" id="DejaVuSans-50"/>
       </defs>
       <use xlink:href="#DejaVuSans-50"/>
       <use x="63.623047" xlink:href="#DejaVuSans-48"/>
      </g>
     </g>
    </g>
    <g id="xtick_7">
     <g id="line2d_7">
      <g>
       <use style="stroke:#000000;stroke-width:0.8;" x="554.655226" xlink:href="#m1ae6954a50" y="390.04"/>
      </g>
     </g>
     <g id="text_7">
      <!-- 25 -->
      <g transform="translate(548.292726 404.638438)scale(0.1 -0.1)">
       <use xlink:href="#DejaVuSans-50"/>
       <use x="63.623047" xlink:href="#DejaVuSans-53"/>
      </g>
     </g>
    </g>
    <g id="xtick_8">
     <g id="line2d_8">
      <g>
       <use style="stroke:#000000;stroke-width:0.8;" x="635.122093" xlink:href="#m1ae6954a50" y="390.04"/>
      </g>
     </g>
     <g id="text_8">
      <!-- 30 -->
      <g transform="translate(628.759593 404.638438)scale(0.1 -0.1)">
       <defs>
        <path d="M 40.578125 39.3125 
Q 47.65625 37.796875 51.625 33 
Q 55.609375 28.21875 55.609375 21.1875 
Q 55.609375 10.40625 48.1875 4.484375 
Q 40.765625 -1.421875 27.09375 -1.421875 
Q 22.515625 -1.421875 17.65625 -0.515625 
Q 12.796875 0.390625 7.625 2.203125 
L 7.625 11.71875 
Q 11.71875 9.328125 16.59375 8.109375 
Q 21.484375 6.890625 26.8125 6.890625 
Q 36.078125 6.890625 40.9375 10.546875 
Q 45.796875 14.203125 45.796875 21.1875 
Q 45.796875 27.640625 41.28125 31.265625 
Q 36.765625 34.90625 28.71875 34.90625 
L 20.21875 34.90625 
L 20.21875 43.015625 
L 29.109375 43.015625 
Q 36.375 43.015625 40.234375 45.921875 
Q 44.09375 48.828125 44.09375 54.296875 
Q 44.09375 59.90625 40.109375 62.90625 
Q 36.140625 65.921875 28.71875 65.921875 
Q 24.65625 65.921875 20.015625 65.03125 
Q 15.375 64.15625 9.8125 62.3125 
L 9.8125 71.09375 
Q 15.4375 72.65625 20.34375 73.4375 
Q 25.25 74.21875 29.59375 74.21875 
Q 40.828125 74.21875 47.359375 69.109375 
Q 53.90625 64.015625 53.90625 55.328125 
Q 53.90625 49.265625 50.4375 45.09375 
Q 46.96875 40.921875 40.578125 39.3125 
z
" id="DejaVuSans-51"/>
       </defs>
       <use xlink:href="#DejaVuSans-51"/>
       <use x="63.623047" xlink:href="#DejaVuSans-48"/>
      </g>
     </g>
    </g>
    <g id="text_9">
     <!-- $x$ -->
     <g transform="translate(374.245 418.316562)scale(0.1 -0.1)">
      <defs>
       <path d="M 60.015625 54.6875 
L 34.90625 27.875 
L 50.296875 0 
L 39.984375 0 
L 28.421875 21.6875 
L 8.296875 0 
L -2.59375 0 
L 24.3125 28.8125 
L 10.015625 54.6875 
L 20.3125 54.6875 
L 30.8125 34.90625 
L 49.125 54.6875 
z
" id="DejaVuSans-Oblique-120"/>
      </defs>
      <use transform="translate(0 0.3125)" xlink:href="#DejaVuSans-Oblique-120"/>
     </g>
    </g>
   </g>
   <g id="matplotlib.axis_2">
    <g id="ytick_1">
     <g id="line2d_9">
      <defs>
       <path d="M 0 0 
L -3.5 0 
" id="mdb089b5172" style="stroke:#000000;stroke-width:0.8;"/>
      </defs>
      <g>
       <use style="stroke:#000000;stroke-width:0.8;" x="45.29" xlink:href="#mdb089b5172" y="368.014321"/>
      </g>
     </g>
     <g id="text_10">
      <!-- 0 -->
      <g transform="translate(31.9275 371.81354)scale(0.1 -0.1)">
       <use xlink:href="#DejaVuSans-48"/>
      </g>
     </g>
    </g>
    <g id="ytick_2">
     <g id="line2d_10">
      <g>
       <use style="stroke:#000000;stroke-width:0.8;" x="45.29" xlink:href="#mdb089b5172" y="287.547454"/>
      </g>
     </g>
     <g id="text_11">
      <!-- 5 -->
      <g transform="translate(31.9275 291.346673)scale(0.1 -0.1)">
       <use xlink:href="#DejaVuSans-53"/>
      </g>
     </g>
    </g>
    <g id="ytick_3">
     <g id="line2d_11">
      <g>
       <use style="stroke:#000000;stroke-width:0.8;" x="45.29" xlink:href="#mdb089b5172" y="207.080587"/>
      </g>
     </g>
     <g id="text_12">
      <!-- 10 -->
      <g transform="translate(25.565 210.879806)scale(0.1 -0.1)">
       <use xlink:href="#DejaVuSans-49"/>
       <use x="63.623047" xlink:href="#DejaVuSans-48"/>
      </g>
     </g>
    </g>
    <g id="ytick_4">
     <g id="line2d_12">
      <g>
       <use style="stroke:#000000;stroke-width:0.8;" x="45.29" xlink:href="#mdb089b5172" y="126.61372"/>
      </g>
     </g>
     <g id="text_13">
      <!-- 15 -->
      <g transform="translate(25.565 130.412939)scale(0.1 -0.1)">
       <use xlink:href="#DejaVuSans-49"/>
       <use x="63.623047" xlink:href="#DejaVuSans-53"/>
      </g>
     </g>
    </g>
    <g id="ytick_5">
     <g id="line2d_13">
      <g>
       <use style="stroke:#000000;stroke-width:0.8;" x="45.29" xlink:href="#mdb089b5172" y="46.146853"/>
      </g>
     </g>
     <g id="text_14">
      <!-- 20 -->
      <g transform="translate(25.565 49.946072)scale(0.1 -0.1)">
       <use xlink:href="#DejaVuSans-50"/>
       <use x="63.623047" xlink:href="#DejaVuSans-48"/>
      </g>
     </g>
    </g>
    <g id="text_15">
     <!-- $y$ -->
     <g transform="translate(19.465 211.46)rotate(-90)scale(0.1 -0.1)">
      <defs>
       <path d="M 24.8125 -5.078125 
Q 18.5625 -15.578125 14.625 -18.1875 
Q 10.6875 -20.796875 4.59375 -20.796875 
L -2.484375 -20.796875 
L -0.984375 -13.28125 
L 4.203125 -13.28125 
Q 7.953125 -13.28125 10.59375 -11.234375 
Q 13.234375 -9.1875 16.5 -3.21875 
L 19.28125 2 
L 7.171875 54.6875 
L 16.703125 54.6875 
L 25.78125 12.796875 
L 50.875 54.6875 
L 60.296875 54.6875 
z
" id="DejaVuSans-Oblique-121"/>
      </defs>
      <use transform="translate(0 0.3125)" xlink:href="#DejaVuSans-Oblique-121"/>
     </g>
    </g>
   </g>
   <g id="line2d_14">
    <path clip-path="url(#p3875d12673)" d="M 152.320892 368.014321 
L 168.216574 351.829842 
L 185.273182 335.755497 
L 203.256321 319.155037 
L 223.103414 302.563075 
L 245.068102 285.649257 
L 266.290972 270.152818 
L 287.237002 256.976346 
L 309.587015 241.362046 
L 331.990478 225.369318 
L 356.169016 209.930869 
L 378.866191 196.448817 
L 400.296598 183.846507 
L 422.409497 171.87078 
L 447.580022 158.784697 
L 473.736039 144.965944 
L 499.872094 130.48391 
L 523.457976 115.523175 
L 547.351417 99.023396 
L 572.826837 81.853618 
L 599.179787 65.517341 
" style="fill:none;stroke:#1f77b4;stroke-dasharray:5.55,2.4;stroke-dashoffset:0;stroke-width:1.5;"/>
   </g>
   <g id="patch_68">
    <path d="M 45.29 390.04 
L 45.29 26.88 
" style="fill:none;stroke:#000000;stroke-linecap:square;stroke-linejoin:miter;stroke-width:0.8;"/>
   </g>
   <g id="patch_69">
    <path d="M 709.2 390.04 
L 709.2 26.88 
" style="fill:none;stroke:#000000;stroke-linecap:square;stroke-linejoin:miter;stroke-width:0.8;"/>
   </g>
   <g id="patch_70">
    <path d="M 45.29 390.04 
L 709.2 390.04 
" style="fill:none;stroke:#000000;stroke-linecap:square;stroke-linejoin:miter;stroke-width:0.8;"/>
   </g>
   <g id="patch_71">
    <path d="M 45.29 26.88 
L 709.2 26.88 
" style="fill:none;stroke:#000000;stroke-linecap:square;stroke-linejoin:miter;stroke-width:0.8;"/>
   </g>
   <g id="text_16">
    <!-- Kalman filter tracking and fusion accounting for the dependence -->
    <g transform="translate(183.142188 20.88)scale(0.12 -0.12)">
     <defs>
      <path d="M 9.8125 72.90625 
L 19.671875 72.90625 
L 19.671875 42.09375 
L 52.390625 72.90625 
L 65.09375 72.90625 
L 28.90625 38.921875 
L 67.671875 0 
L 54.6875 0 
L 19.671875 35.109375 
L 19.671875 0 
L 9.8125 0 
z
" id="DejaVuSans-75"/>
      <path d="M 34.28125 27.484375 
Q 23.390625 27.484375 19.1875 25 
Q 14.984375 22.515625 14.984375 16.5 
Q 14.984375 11.71875 18.140625 8.90625 
Q 21.296875 6.109375 26.703125 6.109375 
Q 34.1875 6.109375 38.703125 11.40625 
Q 43.21875 16.703125 43.21875 25.484375 
L 43.21875 27.484375 
z
M 52.203125 31.203125 
L 52.203125 0 
L 43.21875 0 
L 43.21875 8.296875 
Q 40.140625 3.328125 35.546875 0.953125 
Q 30.953125 -1.421875 24.3125 -1.421875 
Q 15.921875 -1.421875 10.953125 3.296875 
Q 6 8.015625 6 15.921875 
Q 6 25.140625 12.171875 29.828125 
Q 18.359375 34.515625 30.609375 34.515625 
L 43.21875 34.515625 
L 43.21875 35.40625 
Q 43.21875 41.609375 39.140625 45 
Q 35.0625 48.390625 27.6875 48.390625 
Q 23 48.390625 18.546875 47.265625 
Q 14.109375 46.140625 10.015625 43.890625 
L 10.015625 52.203125 
Q 14.9375 54.109375 19.578125 55.046875 
Q 24.21875 56 28.609375 56 
Q 40.484375 56 46.34375 49.84375 
Q 52.203125 43.703125 52.203125 31.203125 
z
" id="DejaVuSans-97"/>
      <path d="M 9.421875 75.984375 
L 18.40625 75.984375 
L 18.40625 0 
L 9.421875 0 
z
" id="DejaVuSans-108"/>
      <path d="M 52 44.1875 
Q 55.375 50.25 60.0625 53.125 
Q 64.75 56 71.09375 56 
Q 79.640625 56 84.28125 50.015625 
Q 88.921875 44.046875 88.921875 33.015625 
L 88.921875 0 
L 79.890625 0 
L 79.890625 32.71875 
Q 79.890625 40.578125 77.09375 44.375 
Q 74.3125 48.1875 68.609375 48.1875 
Q 61.625 48.1875 57.5625 43.546875 
Q 53.515625 38.921875 53.515625 30.90625 
L 53.515625 0 
L 44.484375 0 
L 44.484375 32.71875 
Q 44.484375 40.625 41.703125 44.40625 
Q 38.921875 48.1875 33.109375 48.1875 
Q 26.21875 48.1875 22.15625 43.53125 
Q 18.109375 38.875 18.109375 30.90625 
L 18.109375 0 
L 9.078125 0 
L 9.078125 54.6875 
L 18.109375 54.6875 
L 18.109375 46.1875 
Q 21.1875 51.21875 25.484375 53.609375 
Q 29.78125 56 35.6875 56 
Q 41.65625 56 45.828125 52.96875 
Q 50 49.953125 52 44.1875 
z
" id="DejaVuSans-109"/>
      <path d="M 54.890625 33.015625 
L 54.890625 0 
L 45.90625 0 
L 45.90625 32.71875 
Q 45.90625 40.484375 42.875 44.328125 
Q 39.84375 48.1875 33.796875 48.1875 
Q 26.515625 48.1875 22.3125 43.546875 
Q 18.109375 38.921875 18.109375 30.90625 
L 18.109375 0 
L 9.078125 0 
L 9.078125 54.6875 
L 18.109375 54.6875 
L 18.109375 46.1875 
Q 21.34375 51.125 25.703125 53.5625 
Q 30.078125 56 35.796875 56 
Q 45.21875 56 50.046875 50.171875 
Q 54.890625 44.34375 54.890625 33.015625 
z
" id="DejaVuSans-110"/>
      <path id="DejaVuSans-32"/>
      <path d="M 37.109375 75.984375 
L 37.109375 68.5 
L 28.515625 68.5 
Q 23.6875 68.5 21.796875 66.546875 
Q 19.921875 64.59375 19.921875 59.515625 
L 19.921875 54.6875 
L 34.71875 54.6875 
L 34.71875 47.703125 
L 19.921875 47.703125 
L 19.921875 0 
L 10.890625 0 
L 10.890625 47.703125 
L 2.296875 47.703125 
L 2.296875 54.6875 
L 10.890625 54.6875 
L 10.890625 58.5 
Q 10.890625 67.625 15.140625 71.796875 
Q 19.390625 75.984375 28.609375 75.984375 
z
" id="DejaVuSans-102"/>
      <path d="M 9.421875 54.6875 
L 18.40625 54.6875 
L 18.40625 0 
L 9.421875 0 
z
M 9.421875 75.984375 
L 18.40625 75.984375 
L 18.40625 64.59375 
L 9.421875 64.59375 
z
" id="DejaVuSans-105"/>
      <path d="M 18.3125 70.21875 
L 18.3125 54.6875 
L 36.8125 54.6875 
L 36.8125 47.703125 
L 18.3125 47.703125 
L 18.3125 18.015625 
Q 18.3125 11.328125 20.140625 9.421875 
Q 21.96875 7.515625 27.59375 7.515625 
L 36.8125 7.515625 
L 36.8125 0 
L 27.59375 0 
Q 17.1875 0 13.234375 3.875 
Q 9.28125 7.765625 9.28125 18.015625 
L 9.28125 47.703125 
L 2.6875 47.703125 
L 2.6875 54.6875 
L 9.28125 54.6875 
L 9.28125 70.21875 
z
" id="DejaVuSans-116"/>
      <path d="M 56.203125 29.59375 
L 56.203125 25.203125 
L 14.890625 25.203125 
Q 15.484375 15.921875 20.484375 11.0625 
Q 25.484375 6.203125 34.421875 6.203125 
Q 39.59375 6.203125 44.453125 7.46875 
Q 49.3125 8.734375 54.109375 11.28125 
L 54.109375 2.78125 
Q 49.265625 0.734375 44.1875 -0.34375 
Q 39.109375 -1.421875 33.890625 -1.421875 
Q 20.796875 -1.421875 13.15625 6.1875 
Q 5.515625 13.8125 5.515625 26.8125 
Q 5.515625 40.234375 12.765625 48.109375 
Q 20.015625 56 32.328125 56 
Q 43.359375 56 49.78125 48.890625 
Q 56.203125 41.796875 56.203125 29.59375 
z
M 47.21875 32.234375 
Q 47.125 39.59375 43.09375 43.984375 
Q 39.0625 48.390625 32.421875 48.390625 
Q 24.90625 48.390625 20.390625 44.140625 
Q 15.875 39.890625 15.1875 32.171875 
z
" id="DejaVuSans-101"/>
      <path d="M 41.109375 46.296875 
Q 39.59375 47.171875 37.8125 47.578125 
Q 36.03125 48 33.890625 48 
Q 26.265625 48 22.1875 43.046875 
Q 18.109375 38.09375 18.109375 28.8125 
L 18.109375 0 
L 9.078125 0 
L 9.078125 54.6875 
L 18.109375 54.6875 
L 18.109375 46.1875 
Q 20.953125 51.171875 25.484375 53.578125 
Q 30.03125 56 36.53125 56 
Q 37.453125 56 38.578125 55.875 
Q 39.703125 55.765625 41.0625 55.515625 
z
" id="DejaVuSans-114"/>
      <path d="M 48.78125 52.59375 
L 48.78125 44.1875 
Q 44.96875 46.296875 41.140625 47.34375 
Q 37.3125 48.390625 33.40625 48.390625 
Q 24.65625 48.390625 19.8125 42.84375 
Q 14.984375 37.3125 14.984375 27.296875 
Q 14.984375 17.28125 19.8125 11.734375 
Q 24.65625 6.203125 33.40625 6.203125 
Q 37.3125 6.203125 41.140625 7.25 
Q 44.96875 8.296875 48.78125 10.40625 
L 48.78125 2.09375 
Q 45.015625 0.34375 40.984375 -0.53125 
Q 36.96875 -1.421875 32.421875 -1.421875 
Q 20.0625 -1.421875 12.78125 6.34375 
Q 5.515625 14.109375 5.515625 27.296875 
Q 5.515625 40.671875 12.859375 48.328125 
Q 20.21875 56 33.015625 56 
Q 37.15625 56 41.109375 55.140625 
Q 45.0625 54.296875 48.78125 52.59375 
z
" id="DejaVuSans-99"/>
      <path d="M 9.078125 75.984375 
L 18.109375 75.984375 
L 18.109375 31.109375 
L 44.921875 54.6875 
L 56.390625 54.6875 
L 27.390625 29.109375 
L 57.625 0 
L 45.90625 0 
L 18.109375 26.703125 
L 18.109375 0 
L 9.078125 0 
z
" id="DejaVuSans-107"/>
      <path d="M 45.40625 27.984375 
Q 45.40625 37.75 41.375 43.109375 
Q 37.359375 48.484375 30.078125 48.484375 
Q 22.859375 48.484375 18.828125 43.109375 
Q 14.796875 37.75 14.796875 27.984375 
Q 14.796875 18.265625 18.828125 12.890625 
Q 22.859375 7.515625 30.078125 7.515625 
Q 37.359375 7.515625 41.375 12.890625 
Q 45.40625 18.265625 45.40625 27.984375 
z
M 54.390625 6.78125 
Q 54.390625 -7.171875 48.1875 -13.984375 
Q 42 -20.796875 29.203125 -20.796875 
Q 24.46875 -20.796875 20.265625 -20.09375 
Q 16.0625 -19.390625 12.109375 -17.921875 
L 12.109375 -9.1875 
Q 16.0625 -11.328125 19.921875 -12.34375 
Q 23.78125 -13.375 27.78125 -13.375 
Q 36.625 -13.375 41.015625 -8.765625 
Q 45.40625 -4.15625 45.40625 5.171875 
L 45.40625 9.625 
Q 42.625 4.78125 38.28125 2.390625 
Q 33.9375 0 27.875 0 
Q 17.828125 0 11.671875 7.65625 
Q 5.515625 15.328125 5.515625 27.984375 
Q 5.515625 40.671875 11.671875 48.328125 
Q 17.828125 56 27.875 56 
Q 33.9375 56 38.28125 53.609375 
Q 42.625 51.21875 45.40625 46.390625 
L 45.40625 54.6875 
L 54.390625 54.6875 
z
" id="DejaVuSans-103"/>
      <path d="M 45.40625 46.390625 
L 45.40625 75.984375 
L 54.390625 75.984375 
L 54.390625 0 
L 45.40625 0 
L 45.40625 8.203125 
Q 42.578125 3.328125 38.25 0.953125 
Q 33.9375 -1.421875 27.875 -1.421875 
Q 17.96875 -1.421875 11.734375 6.484375 
Q 5.515625 14.40625 5.515625 27.296875 
Q 5.515625 40.1875 11.734375 48.09375 
Q 17.96875 56 27.875 56 
Q 33.9375 56 38.25 53.625 
Q 42.578125 51.265625 45.40625 46.390625 
z
M 14.796875 27.296875 
Q 14.796875 17.390625 18.875 11.75 
Q 22.953125 6.109375 30.078125 6.109375 
Q 37.203125 6.109375 41.296875 11.75 
Q 45.40625 17.390625 45.40625 27.296875 
Q 45.40625 37.203125 41.296875 42.84375 
Q 37.203125 48.484375 30.078125 48.484375 
Q 22.953125 48.484375 18.875 42.84375 
Q 14.796875 37.203125 14.796875 27.296875 
z
" id="DejaVuSans-100"/>
      <path d="M 8.5 21.578125 
L 8.5 54.6875 
L 17.484375 54.6875 
L 17.484375 21.921875 
Q 17.484375 14.15625 20.5 10.265625 
Q 23.53125 6.390625 29.59375 6.390625 
Q 36.859375 6.390625 41.078125 11.03125 
Q 45.3125 15.671875 45.3125 23.6875 
L 45.3125 54.6875 
L 54.296875 54.6875 
L 54.296875 0 
L 45.3125 0 
L 45.3125 8.40625 
Q 42.046875 3.421875 37.71875 1 
Q 33.40625 -1.421875 27.6875 -1.421875 
Q 18.265625 -1.421875 13.375 4.4375 
Q 8.5 10.296875 8.5 21.578125 
z
M 31.109375 56 
z
" id="DejaVuSans-117"/>
      <path d="M 44.28125 53.078125 
L 44.28125 44.578125 
Q 40.484375 46.53125 36.375 47.5 
Q 32.28125 48.484375 27.875 48.484375 
Q 21.1875 48.484375 17.84375 46.4375 
Q 14.5 44.390625 14.5 40.28125 
Q 14.5 37.15625 16.890625 35.375 
Q 19.28125 33.59375 26.515625 31.984375 
L 29.59375 31.296875 
Q 39.15625 29.25 43.1875 25.515625 
Q 47.21875 21.78125 47.21875 15.09375 
Q 47.21875 7.46875 41.1875 3.015625 
Q 35.15625 -1.421875 24.609375 -1.421875 
Q 20.21875 -1.421875 15.453125 -0.5625 
Q 10.6875 0.296875 5.421875 2 
L 5.421875 11.28125 
Q 10.40625 8.6875 15.234375 7.390625 
Q 20.0625 6.109375 24.8125 6.109375 
Q 31.15625 6.109375 34.5625 8.28125 
Q 37.984375 10.453125 37.984375 14.40625 
Q 37.984375 18.0625 35.515625 20.015625 
Q 33.0625 21.96875 24.703125 23.78125 
L 21.578125 24.515625 
Q 13.234375 26.265625 9.515625 29.90625 
Q 5.8125 33.546875 5.8125 39.890625 
Q 5.8125 47.609375 11.28125 51.796875 
Q 16.75 56 26.8125 56 
Q 31.78125 56 36.171875 55.265625 
Q 40.578125 54.546875 44.28125 53.078125 
z
" id="DejaVuSans-115"/>
      <path d="M 30.609375 48.390625 
Q 23.390625 48.390625 19.1875 42.75 
Q 14.984375 37.109375 14.984375 27.296875 
Q 14.984375 17.484375 19.15625 11.84375 
Q 23.34375 6.203125 30.609375 6.203125 
Q 37.796875 6.203125 41.984375 11.859375 
Q 46.1875 17.53125 46.1875 27.296875 
Q 46.1875 37.015625 41.984375 42.703125 
Q 37.796875 48.390625 30.609375 48.390625 
z
M 30.609375 56 
Q 42.328125 56 49.015625 48.375 
Q 55.71875 40.765625 55.71875 27.296875 
Q 55.71875 13.875 49.015625 6.21875 
Q 42.328125 -1.421875 30.609375 -1.421875 
Q 18.84375 -1.421875 12.171875 6.21875 
Q 5.515625 13.875 5.515625 27.296875 
Q 5.515625 40.765625 12.171875 48.375 
Q 18.84375 56 30.609375 56 
z
" id="DejaVuSans-111"/>
      <path d="M 54.890625 33.015625 
L 54.890625 0 
L 45.90625 0 
L 45.90625 32.71875 
Q 45.90625 40.484375 42.875 44.328125 
Q 39.84375 48.1875 33.796875 48.1875 
Q 26.515625 48.1875 22.3125 43.546875 
Q 18.109375 38.921875 18.109375 30.90625 
L 18.109375 0 
L 9.078125 0 
L 9.078125 75.984375 
L 18.109375 75.984375 
L 18.109375 46.1875 
Q 21.34375 51.125 25.703125 53.5625 
Q 30.078125 56 35.796875 56 
Q 45.21875 56 50.046875 50.171875 
Q 54.890625 44.34375 54.890625 33.015625 
z
" id="DejaVuSans-104"/>
      <path d="M 18.109375 8.203125 
L 18.109375 -20.796875 
L 9.078125 -20.796875 
L 9.078125 54.6875 
L 18.109375 54.6875 
L 18.109375 46.390625 
Q 20.953125 51.265625 25.265625 53.625 
Q 29.59375 56 35.59375 56 
Q 45.5625 56 51.78125 48.09375 
Q 58.015625 40.1875 58.015625 27.296875 
Q 58.015625 14.40625 51.78125 6.484375 
Q 45.5625 -1.421875 35.59375 -1.421875 
Q 29.59375 -1.421875 25.265625 0.953125 
Q 20.953125 3.328125 18.109375 8.203125 
z
M 48.6875 27.296875 
Q 48.6875 37.203125 44.609375 42.84375 
Q 40.53125 48.484375 33.40625 48.484375 
Q 26.265625 48.484375 22.1875 42.84375 
Q 18.109375 37.203125 18.109375 27.296875 
Q 18.109375 17.390625 22.1875 11.75 
Q 26.265625 6.109375 33.40625 6.109375 
Q 40.53125 6.109375 44.609375 11.75 
Q 48.6875 17.390625 48.6875 27.296875 
z
" id="DejaVuSans-112"/>
     </defs>
     <use xlink:href="#DejaVuSans-75"/>
     <use x="63.826172" xlink:href="#DejaVuSans-97"/>
     <use x="125.105469" xlink:href="#DejaVuSans-108"/>
     <use x="152.888672" xlink:href="#DejaVuSans-109"/>
     <use x="250.300781" xlink:href="#DejaVuSans-97"/>
     <use x="311.580078" xlink:href="#DejaVuSans-110"/>
     <use x="374.958984" xlink:href="#DejaVuSans-32"/>
     <use x="406.746094" xlink:href="#DejaVuSans-102"/>
     <use x="441.951172" xlink:href="#DejaVuSans-105"/>
     <use x="469.734375" xlink:href="#DejaVuSans-108"/>
     <use x="497.517578" xlink:href="#DejaVuSans-116"/>
     <use x="536.726562" xlink:href="#DejaVuSans-101"/>
     <use x="598.25" xlink:href="#DejaVuSans-114"/>
     <use x="639.363281" xlink:href="#DejaVuSans-32"/>
     <use x="671.150391" xlink:href="#DejaVuSans-116"/>
     <use x="710.359375" xlink:href="#DejaVuSans-114"/>
     <use x="751.472656" xlink:href="#DejaVuSans-97"/>
     <use x="812.751953" xlink:href="#DejaVuSans-99"/>
     <use x="867.732422" xlink:href="#DejaVuSans-107"/>
     <use x="925.642578" xlink:href="#DejaVuSans-105"/>
     <use x="953.425781" xlink:href="#DejaVuSans-110"/>
     <use x="1016.804688" xlink:href="#DejaVuSans-103"/>
     <use x="1080.28125" xlink:href="#DejaVuSans-32"/>
     <use x="1112.068359" xlink:href="#DejaVuSans-97"/>
     <use x="1173.347656" xlink:href="#DejaVuSans-110"/>
     <use x="1236.726562" xlink:href="#DejaVuSans-100"/>
     <use x="1300.203125" xlink:href="#DejaVuSans-32"/>
     <use x="1331.990234" xlink:href="#DejaVuSans-102"/>
     <use x="1367.195312" xlink:href="#DejaVuSans-117"/>
     <use x="1430.574219" xlink:href="#DejaVuSans-115"/>
     <use x="1482.673828" xlink:href="#DejaVuSans-105"/>
     <use x="1510.457031" xlink:href="#DejaVuSans-111"/>
     <use x="1571.638672" xlink:href="#DejaVuSans-110"/>
     <use x="1635.017578" xlink:href="#DejaVuSans-32"/>
     <use x="1666.804688" xlink:href="#DejaVuSans-97"/>
     <use x="1728.083984" xlink:href="#DejaVuSans-99"/>
     <use x="1783.064453" xlink:href="#DejaVuSans-99"/>
     <use x="1838.044922" xlink:href="#DejaVuSans-111"/>
     <use x="1899.226562" xlink:href="#DejaVuSans-117"/>
     <use x="1962.605469" xlink:href="#DejaVuSans-110"/>
     <use x="2025.984375" xlink:href="#DejaVuSans-116"/>
     <use x="2065.193359" xlink:href="#DejaVuSans-105"/>
     <use x="2092.976562" xlink:href="#DejaVuSans-110"/>
     <use x="2156.355469" xlink:href="#DejaVuSans-103"/>
     <use x="2219.832031" xlink:href="#DejaVuSans-32"/>
     <use x="2251.619141" xlink:href="#DejaVuSans-102"/>
     <use x="2286.824219" xlink:href="#DejaVuSans-111"/>
     <use x="2348.005859" xlink:href="#DejaVuSans-114"/>
     <use x="2389.119141" xlink:href="#DejaVuSans-32"/>
     <use x="2420.90625" xlink:href="#DejaVuSans-116"/>
     <use x="2460.115234" xlink:href="#DejaVuSans-104"/>
     <use x="2523.494141" xlink:href="#DejaVuSans-101"/>
     <use x="2585.017578" xlink:href="#DejaVuSans-32"/>
     <use x="2616.804688" xlink:href="#DejaVuSans-100"/>
     <use x="2680.28125" xlink:href="#DejaVuSans-101"/>
     <use x="2741.804688" xlink:href="#DejaVuSans-112"/>
     <use x="2805.28125" xlink:href="#DejaVuSans-101"/>
     <use x="2866.804688" xlink:href="#DejaVuSans-110"/>
     <use x="2930.183594" xlink:href="#DejaVuSans-100"/>
     <use x="2993.660156" xlink:href="#DejaVuSans-101"/>
     <use x="3055.183594" xlink:href="#DejaVuSans-110"/>
     <use x="3118.5625" xlink:href="#DejaVuSans-99"/>
     <use x="3173.542969" xlink:href="#DejaVuSans-101"/>
    </g>
   </g>
   <g id="legend_1">
    <g id="patch_72">
     <path d="M 52.29 122.94875 
L 190.763437 122.94875 
Q 192.763437 122.94875 192.763437 120.94875 
L 192.763437 33.88 
Q 192.763437 31.88 190.763437 31.88 
L 52.29 31.88 
Q 50.29 31.88 50.29 33.88 
L 50.29 120.94875 
Q 50.29 122.94875 52.29 122.94875 
z
" style="fill:#ffffff;opacity:0.8;stroke:#cccccc;stroke-linejoin:miter;"/>
    </g>
    <g id="line2d_15">
     <path d="M 54.29 39.978438 
L 74.29 39.978438 
" style="fill:none;stroke:#1f77b4;stroke-dasharray:5.55,2.4;stroke-dashoffset:0;stroke-width:1.5;"/>
    </g>
    <g id="line2d_16"/>
    <g id="text_17">
     <!-- Ground truth -->
     <g transform="translate(82.29 43.478438)scale(0.1 -0.1)">
      <defs>
       <path d="M 59.515625 10.40625 
L 59.515625 29.984375 
L 43.40625 29.984375 
L 43.40625 38.09375 
L 69.28125 38.09375 
L 69.28125 6.78125 
Q 63.578125 2.734375 56.6875 0.65625 
Q 49.8125 -1.421875 42 -1.421875 
Q 24.90625 -1.421875 15.25 8.5625 
Q 5.609375 18.5625 5.609375 36.375 
Q 5.609375 54.25 15.25 64.234375 
Q 24.90625 74.21875 42 74.21875 
Q 49.125 74.21875 55.546875 72.453125 
Q 61.96875 70.703125 67.390625 67.28125 
L 67.390625 56.78125 
Q 61.921875 61.421875 55.765625 63.765625 
Q 49.609375 66.109375 42.828125 66.109375 
Q 29.4375 66.109375 22.71875 58.640625 
Q 16.015625 51.171875 16.015625 36.375 
Q 16.015625 21.625 22.71875 14.15625 
Q 29.4375 6.6875 42.828125 6.6875 
Q 48.046875 6.6875 52.140625 7.59375 
Q 56.25 8.5 59.515625 10.40625 
z
" id="DejaVuSans-71"/>
      </defs>
      <use xlink:href="#DejaVuSans-71"/>
      <use x="77.490234" xlink:href="#DejaVuSans-114"/>
      <use x="116.353516" xlink:href="#DejaVuSans-111"/>
      <use x="177.535156" xlink:href="#DejaVuSans-117"/>
      <use x="240.914062" xlink:href="#DejaVuSans-110"/>
      <use x="304.292969" xlink:href="#DejaVuSans-100"/>
      <use x="367.769531" xlink:href="#DejaVuSans-32"/>
      <use x="399.556641" xlink:href="#DejaVuSans-116"/>
      <use x="438.765625" xlink:href="#DejaVuSans-114"/>
      <use x="479.878906" xlink:href="#DejaVuSans-117"/>
      <use x="543.257812" xlink:href="#DejaVuSans-116"/>
      <use x="582.466797" xlink:href="#DejaVuSans-104"/>
     </g>
    </g>
    <g id="patch_73">
     <path d="M 54.29 58.156563 
L 74.29 58.156563 
L 74.29 51.156563 
L 54.29 51.156563 
z
" style="fill:#ff0000;opacity:0.2;stroke:#ff0000;stroke-linejoin:miter;"/>
    </g>
    <g id="text_18">
     <!-- Posterior AIS -->
     <g transform="translate(82.29 58.156563)scale(0.1 -0.1)">
      <defs>
       <path d="M 19.671875 64.796875 
L 19.671875 37.40625 
L 32.078125 37.40625 
Q 38.96875 37.40625 42.71875 40.96875 
Q 46.484375 44.53125 46.484375 51.125 
Q 46.484375 57.671875 42.71875 61.234375 
Q 38.96875 64.796875 32.078125 64.796875 
z
M 9.8125 72.90625 
L 32.078125 72.90625 
Q 44.34375 72.90625 50.609375 67.359375 
Q 56.890625 61.8125 56.890625 51.125 
Q 56.890625 40.328125 50.609375 34.8125 
Q 44.34375 29.296875 32.078125 29.296875 
L 19.671875 29.296875 
L 19.671875 0 
L 9.8125 0 
z
" id="DejaVuSans-80"/>
       <path d="M 34.1875 63.1875 
L 20.796875 26.90625 
L 47.609375 26.90625 
z
M 28.609375 72.90625 
L 39.796875 72.90625 
L 67.578125 0 
L 57.328125 0 
L 50.6875 18.703125 
L 17.828125 18.703125 
L 11.1875 0 
L 0.78125 0 
z
" id="DejaVuSans-65"/>
       <path d="M 9.8125 72.90625 
L 19.671875 72.90625 
L 19.671875 0 
L 9.8125 0 
z
" id="DejaVuSans-73"/>
       <path d="M 53.515625 70.515625 
L 53.515625 60.890625 
Q 47.90625 63.578125 42.921875 64.890625 
Q 37.9375 66.21875 33.296875 66.21875 
Q 25.25 66.21875 20.875 63.09375 
Q 16.5 59.96875 16.5 54.203125 
Q 16.5 49.359375 19.40625 46.890625 
Q 22.3125 44.4375 30.421875 42.921875 
L 36.375 41.703125 
Q 47.40625 39.59375 52.65625 34.296875 
Q 57.90625 29 57.90625 20.125 
Q 57.90625 9.515625 50.796875 4.046875 
Q 43.703125 -1.421875 29.984375 -1.421875 
Q 24.8125 -1.421875 18.96875 -0.25 
Q 13.140625 0.921875 6.890625 3.21875 
L 6.890625 13.375 
Q 12.890625 10.015625 18.65625 8.296875 
Q 24.421875 6.59375 29.984375 6.59375 
Q 38.421875 6.59375 43.015625 9.90625 
Q 47.609375 13.234375 47.609375 19.390625 
Q 47.609375 24.75 44.3125 27.78125 
Q 41.015625 30.8125 33.5 32.328125 
L 27.484375 33.5 
Q 16.453125 35.6875 11.515625 40.375 
Q 6.59375 45.0625 6.59375 53.421875 
Q 6.59375 63.09375 13.40625 68.65625 
Q 20.21875 74.21875 32.171875 74.21875 
Q 37.3125 74.21875 42.625 73.28125 
Q 47.953125 72.359375 53.515625 70.515625 
z
" id="DejaVuSans-83"/>
      </defs>
      <use xlink:href="#DejaVuSans-80"/>
      <use x="56.677734" xlink:href="#DejaVuSans-111"/>
      <use x="117.859375" xlink:href="#DejaVuSans-115"/>
      <use x="169.958984" xlink:href="#DejaVuSans-116"/>
      <use x="209.167969" xlink:href="#DejaVuSans-101"/>
      <use x="270.691406" xlink:href="#DejaVuSans-114"/>
      <use x="311.804688" xlink:href="#DejaVuSans-105"/>
      <use x="339.587891" xlink:href="#DejaVuSans-111"/>
      <use x="400.769531" xlink:href="#DejaVuSans-114"/>
      <use x="441.882812" xlink:href="#DejaVuSans-32"/>
      <use x="473.669922" xlink:href="#DejaVuSans-65"/>
      <use x="542.078125" xlink:href="#DejaVuSans-73"/>
      <use x="571.570312" xlink:href="#DejaVuSans-83"/>
     </g>
    </g>
    <g id="patch_74">
     <path d="M 54.29 72.834688 
L 74.29 72.834688 
L 74.29 65.834688 
L 54.29 65.834688 
z
" style="fill:#0000ff;opacity:0.2;stroke:#0000ff;stroke-linejoin:miter;"/>
    </g>
    <g id="text_19">
     <!-- Posterior Radar -->
     <g transform="translate(82.29 72.834688)scale(0.1 -0.1)">
      <defs>
       <path d="M 44.390625 34.1875 
Q 47.5625 33.109375 50.5625 29.59375 
Q 53.5625 26.078125 56.59375 19.921875 
L 66.609375 0 
L 56 0 
L 46.6875 18.703125 
Q 43.0625 26.03125 39.671875 28.421875 
Q 36.28125 30.8125 30.421875 30.8125 
L 19.671875 30.8125 
L 19.671875 0 
L 9.8125 0 
L 9.8125 72.90625 
L 32.078125 72.90625 
Q 44.578125 72.90625 50.734375 67.671875 
Q 56.890625 62.453125 56.890625 51.90625 
Q 56.890625 45.015625 53.6875 40.46875 
Q 50.484375 35.9375 44.390625 34.1875 
z
M 19.671875 64.796875 
L 19.671875 38.921875 
L 32.078125 38.921875 
Q 39.203125 38.921875 42.84375 42.21875 
Q 46.484375 45.515625 46.484375 51.90625 
Q 46.484375 58.296875 42.84375 61.546875 
Q 39.203125 64.796875 32.078125 64.796875 
z
" id="DejaVuSans-82"/>
      </defs>
      <use xlink:href="#DejaVuSans-80"/>
      <use x="56.677734" xlink:href="#DejaVuSans-111"/>
      <use x="117.859375" xlink:href="#DejaVuSans-115"/>
      <use x="169.958984" xlink:href="#DejaVuSans-116"/>
      <use x="209.167969" xlink:href="#DejaVuSans-101"/>
      <use x="270.691406" xlink:href="#DejaVuSans-114"/>
      <use x="311.804688" xlink:href="#DejaVuSans-105"/>
      <use x="339.587891" xlink:href="#DejaVuSans-111"/>
      <use x="400.769531" xlink:href="#DejaVuSans-114"/>
      <use x="441.882812" xlink:href="#DejaVuSans-32"/>
      <use x="473.669922" xlink:href="#DejaVuSans-82"/>
      <use x="540.902344" xlink:href="#DejaVuSans-97"/>
      <use x="602.181641" xlink:href="#DejaVuSans-100"/>
      <use x="665.658203" xlink:href="#DejaVuSans-97"/>
      <use x="726.9375" xlink:href="#DejaVuSans-114"/>
     </g>
    </g>
    <g id="patch_75">
     <path d="M 54.29 87.512813 
L 74.29 87.512813 
L 74.29 80.512813 
L 54.29 80.512813 
z
" style="fill:#008000;opacity:0.5;stroke:#008000;stroke-linejoin:miter;"/>
    </g>
    <g id="text_20">
     <!-- Posterior Fused -->
     <g transform="translate(82.29 87.512813)scale(0.1 -0.1)">
      <defs>
       <path d="M 9.8125 72.90625 
L 51.703125 72.90625 
L 51.703125 64.59375 
L 19.671875 64.59375 
L 19.671875 43.109375 
L 48.578125 43.109375 
L 48.578125 34.8125 
L 19.671875 34.8125 
L 19.671875 0 
L 9.8125 0 
z
" id="DejaVuSans-70"/>
      </defs>
      <use xlink:href="#DejaVuSans-80"/>
      <use x="56.677734" xlink:href="#DejaVuSans-111"/>
      <use x="117.859375" xlink:href="#DejaVuSans-115"/>
      <use x="169.958984" xlink:href="#DejaVuSans-116"/>
      <use x="209.167969" xlink:href="#DejaVuSans-101"/>
      <use x="270.691406" xlink:href="#DejaVuSans-114"/>
      <use x="311.804688" xlink:href="#DejaVuSans-105"/>
      <use x="339.587891" xlink:href="#DejaVuSans-111"/>
      <use x="400.769531" xlink:href="#DejaVuSans-114"/>
      <use x="441.882812" xlink:href="#DejaVuSans-32"/>
      <use x="473.669922" xlink:href="#DejaVuSans-70"/>
      <use x="525.689453" xlink:href="#DejaVuSans-117"/>
      <use x="589.068359" xlink:href="#DejaVuSans-115"/>
      <use x="641.167969" xlink:href="#DejaVuSans-101"/>
      <use x="702.691406" xlink:href="#DejaVuSans-100"/>
     </g>
    </g>
    <g id="PathCollection_3">
     <g>
      <use style="fill:#0000ff;stroke:#0000ff;" x="64.29" xlink:href="#me5cc1baeda" y="99.565938"/>
     </g>
    </g>
    <g id="text_21">
     <!-- Measurements Radar -->
     <g transform="translate(82.29 102.190938)scale(0.1 -0.1)">
      <defs>
       <path d="M 9.8125 72.90625 
L 24.515625 72.90625 
L 43.109375 23.296875 
L 61.8125 72.90625 
L 76.515625 72.90625 
L 76.515625 0 
L 66.890625 0 
L 66.890625 64.015625 
L 48.09375 14.015625 
L 38.1875 14.015625 
L 19.390625 64.015625 
L 19.390625 0 
L 9.8125 0 
z
" id="DejaVuSans-77"/>
      </defs>
      <use xlink:href="#DejaVuSans-77"/>
      <use x="86.279297" xlink:href="#DejaVuSans-101"/>
      <use x="147.802734" xlink:href="#DejaVuSans-97"/>
      <use x="209.082031" xlink:href="#DejaVuSans-115"/>
      <use x="261.181641" xlink:href="#DejaVuSans-117"/>
      <use x="324.560547" xlink:href="#DejaVuSans-114"/>
      <use x="363.423828" xlink:href="#DejaVuSans-101"/>
      <use x="424.947266" xlink:href="#DejaVuSans-109"/>
      <use x="522.359375" xlink:href="#DejaVuSans-101"/>
      <use x="583.882812" xlink:href="#DejaVuSans-110"/>
      <use x="647.261719" xlink:href="#DejaVuSans-116"/>
      <use x="686.470703" xlink:href="#DejaVuSans-115"/>
      <use x="738.570312" xlink:href="#DejaVuSans-32"/>
      <use x="770.357422" xlink:href="#DejaVuSans-82"/>
      <use x="837.589844" xlink:href="#DejaVuSans-97"/>
      <use x="898.869141" xlink:href="#DejaVuSans-100"/>
      <use x="962.345703" xlink:href="#DejaVuSans-97"/>
      <use x="1023.625" xlink:href="#DejaVuSans-114"/>
     </g>
    </g>
    <g id="PathCollection_4">
     <g>
      <use style="fill:#ff0000;stroke:#ff0000;" x="64.29" xlink:href="#mb7615fa8df" y="114.244063"/>
     </g>
    </g>
    <g id="text_22">
     <!-- Measurements AIS -->
     <g transform="translate(82.29 116.869063)scale(0.1 -0.1)">
      <use xlink:href="#DejaVuSans-77"/>
      <use x="86.279297" xlink:href="#DejaVuSans-101"/>
      <use x="147.802734" xlink:href="#DejaVuSans-97"/>
      <use x="209.082031" xlink:href="#DejaVuSans-115"/>
      <use x="261.181641" xlink:href="#DejaVuSans-117"/>
      <use x="324.560547" xlink:href="#DejaVuSans-114"/>
      <use x="363.423828" xlink:href="#DejaVuSans-101"/>
      <use x="424.947266" xlink:href="#DejaVuSans-109"/>
      <use x="522.359375" xlink:href="#DejaVuSans-101"/>
      <use x="583.882812" xlink:href="#DejaVuSans-110"/>
      <use x="647.261719" xlink:href="#DejaVuSans-116"/>
      <use x="686.470703" xlink:href="#DejaVuSans-115"/>
      <use x="738.570312" xlink:href="#DejaVuSans-32"/>
      <use x="770.357422" xlink:href="#DejaVuSans-65"/>
      <use x="838.765625" xlink:href="#DejaVuSans-73"/>
      <use x="868.257812" xlink:href="#DejaVuSans-83"/>
     </g>
    </g>
   </g>
  </g>
 </g>
 <defs>
  <clipPath id="p3875d12673">
   <rect height="363.16" width="663.91" x="45.29" y="26.88"/>
  </clipPath>
 </defs>
</svg>
