<?xml version="1.0" encoding="utf-8" standalone="no"?>
<!DOCTYPE svg PUBLIC "-//W3C//DTD SVG 1.1//EN"
  "http://www.w3.org/Graphics/SVG/1.1/DTD/svg11.dtd">
<!-- Created with matplotlib (https://matplotlib.org/) -->
<svg height="432pt" version="1.1" viewBox="0 0 720 432" width="720pt" xmlns="http://www.w3.org/2000/svg" xmlns:xlink="http://www.w3.org/1999/xlink">
 <metadata>
  <rdf:RDF xmlns:cc="http://creativecommons.org/ns#" xmlns:dc="http://purl.org/dc/elements/1.1/" xmlns:rdf="http://www.w3.org/1999/02/22-rdf-syntax-ns#">
   <cc:Work>
    <dc:type rdf:resource="http://purl.org/dc/dcmitype/StillImage"/>
    <dc:date>2020-09-30T17:19:34.943778</dc:date>
    <dc:format>image/svg+xml</dc:format>
    <dc:creator>
     <cc:Agent>
      <dc:title>Matplotlib v3.3.1, https://matplotlib.org/</dc:title>
     </cc:Agent>
    </dc:creator>
   </cc:Work>
  </rdf:RDF>
 </metadata>
 <defs>
  <style type="text/css">*{stroke-linecap:butt;stroke-linejoin:round;}</style>
 </defs>
 <g id="figure_1">
  <g id="patch_1">
   <path d="M 0 432 
L 720 432 
L 720 0 
L 0 0 
z
" style="fill:#ffffff;"/>
  </g>
  <g id="axes_1">
   <g id="patch_2">
    <path d="M 45.29 390.04 
L 709.2 390.04 
L 709.2 26.88 
L 45.29 26.88 
z
" style="fill:#ffffff;"/>
   </g>
   <g id="PathCollection_1">
    <defs>
     <path d="M 0 3 
C 0.795609 3 1.55874 2.683901 2.12132 2.12132 
C 2.683901 1.55874 3 0.795609 3 0 
C 3 -0.795609 2.683901 -1.55874 2.12132 -2.12132 
C 1.55874 -2.683901 0.795609 -3 0 -3 
C -0.795609 -3 -1.55874 -2.683901 -2.12132 -2.12132 
C -2.683901 -1.55874 -3 -0.795609 -3 0 
C -3 0.795609 -2.683901 1.55874 -2.12132 2.12132 
C -1.55874 2.683901 -0.795609 3 0 3 
z
" id="mf1ad44333c" style="stroke:#0000ff;"/>
    </defs>
    <g clip-path="url(#p3654e3a678)">
     <use style="fill:#0000ff;stroke:#0000ff;" x="159.271906" xlink:href="#mf1ad44333c" y="373.532727"/>
     <use style="fill:#0000ff;stroke:#0000ff;" x="138.11775" xlink:href="#mf1ad44333c" y="373.456567"/>
     <use style="fill:#0000ff;stroke:#0000ff;" x="206.577319" xlink:href="#mf1ad44333c" y="333.510984"/>
     <use style="fill:#0000ff;stroke:#0000ff;" x="265.267535" xlink:href="#mf1ad44333c" y="320.438887"/>
     <use style="fill:#0000ff;stroke:#0000ff;" x="233.452923" xlink:href="#mf1ad44333c" y="262.654437"/>
     <use style="fill:#0000ff;stroke:#0000ff;" x="272.522623" xlink:href="#mf1ad44333c" y="324.090522"/>
     <use style="fill:#0000ff;stroke:#0000ff;" x="270.490436" xlink:href="#mf1ad44333c" y="271.528402"/>
     <use style="fill:#0000ff;stroke:#0000ff;" x="260.058663" xlink:href="#mf1ad44333c" y="291.107319"/>
     <use style="fill:#0000ff;stroke:#0000ff;" x="354.559796" xlink:href="#mf1ad44333c" y="243.098203"/>
     <use style="fill:#0000ff;stroke:#0000ff;" x="366.757211" xlink:href="#mf1ad44333c" y="178.762033"/>
     <use style="fill:#0000ff;stroke:#0000ff;" x="356.250617" xlink:href="#mf1ad44333c" y="215.648937"/>
     <use style="fill:#0000ff;stroke:#0000ff;" x="431.765185" xlink:href="#mf1ad44333c" y="100.861144"/>
     <use style="fill:#0000ff;stroke:#0000ff;" x="387.951444" xlink:href="#mf1ad44333c" y="207.261785"/>
     <use style="fill:#0000ff;stroke:#0000ff;" x="370.72284" xlink:href="#mf1ad44333c" y="131.276019"/>
     <use style="fill:#0000ff;stroke:#0000ff;" x="477.249707" xlink:href="#mf1ad44333c" y="171.063707"/>
     <use style="fill:#0000ff;stroke:#0000ff;" x="443.609084" xlink:href="#mf1ad44333c" y="157.788532"/>
     <use style="fill:#0000ff;stroke:#0000ff;" x="501.086605" xlink:href="#mf1ad44333c" y="132.005329"/>
     <use style="fill:#0000ff;stroke:#0000ff;" x="556.812892" xlink:href="#mf1ad44333c" y="122.144231"/>
     <use style="fill:#0000ff;stroke:#0000ff;" x="558.079602" xlink:href="#mf1ad44333c" y="105.414764"/>
     <use style="fill:#0000ff;stroke:#0000ff;" x="582.497176" xlink:href="#mf1ad44333c" y="109.100026"/>
     <use style="fill:#0000ff;stroke:#0000ff;" x="616.37225" xlink:href="#mf1ad44333c" y="44.887268"/>
    </g>
   </g>
   <g id="PathCollection_2">
    <defs>
     <path d="M 0 3 
C 0.795609 3 1.55874 2.683901 2.12132 2.12132 
C 2.683901 1.55874 3 0.795609 3 0 
C 3 -0.795609 2.683901 -1.55874 2.12132 -2.12132 
C 1.55874 -2.683901 0.795609 -3 0 -3 
C -0.795609 -3 -1.55874 -2.683901 -2.12132 -2.12132 
C -2.683901 -1.55874 -3 -0.795609 -3 0 
C -3 0.795609 -2.683901 1.55874 -2.12132 2.12132 
C -1.55874 2.683901 -0.795609 3 0 3 
z
" id="mdfa9b3c947" style="stroke:#ff0000;"/>
    </defs>
    <g clip-path="url(#p3654e3a678)">
     <use style="fill:#ff0000;stroke:#ff0000;" x="184.960181" xlink:href="#mdfa9b3c947" y="342.266426"/>
     <use style="fill:#ff0000;stroke:#ff0000;" x="187.622577" xlink:href="#mdfa9b3c947" y="361.923534"/>
     <use style="fill:#ff0000;stroke:#ff0000;" x="231.620611" xlink:href="#mdfa9b3c947" y="314.633965"/>
     <use style="fill:#ff0000;stroke:#ff0000;" x="221.549165" xlink:href="#mdfa9b3c947" y="294.258179"/>
     <use style="fill:#ff0000;stroke:#ff0000;" x="210.038655" xlink:href="#mdfa9b3c947" y="329.935438"/>
     <use style="fill:#ff0000;stroke:#ff0000;" x="229.559177" xlink:href="#mdfa9b3c947" y="282.267815"/>
     <use style="fill:#ff0000;stroke:#ff0000;" x="266.157871" xlink:href="#mdfa9b3c947" y="290.226986"/>
     <use style="fill:#ff0000;stroke:#ff0000;" x="302.757952" xlink:href="#mdfa9b3c947" y="252.257483"/>
     <use style="fill:#ff0000;stroke:#ff0000;" x="316.138663" xlink:href="#mdfa9b3c947" y="199.867241"/>
     <use style="fill:#ff0000;stroke:#ff0000;" x="323.154313" xlink:href="#mdfa9b3c947" y="246.360813"/>
     <use style="fill:#ff0000;stroke:#ff0000;" x="393.201907" xlink:href="#mdfa9b3c947" y="212.66463"/>
     <use style="fill:#ff0000;stroke:#ff0000;" x="406.450785" xlink:href="#mdfa9b3c947" y="205.805729"/>
     <use style="fill:#ff0000;stroke:#ff0000;" x="411.923088" xlink:href="#mdfa9b3c947" y="185.193664"/>
     <use style="fill:#ff0000;stroke:#ff0000;" x="414.744387" xlink:href="#mdfa9b3c947" y="176.961399"/>
     <use style="fill:#ff0000;stroke:#ff0000;" x="454.825469" xlink:href="#mdfa9b3c947" y="156.576908"/>
     <use style="fill:#ff0000;stroke:#ff0000;" x="494.532553" xlink:href="#mdfa9b3c947" y="154.098542"/>
     <use style="fill:#ff0000;stroke:#ff0000;" x="524.845131" xlink:href="#mdfa9b3c947" y="113.919288"/>
     <use style="fill:#ff0000;stroke:#ff0000;" x="542.475084" xlink:href="#mdfa9b3c947" y="121.158725"/>
     <use style="fill:#ff0000;stroke:#ff0000;" x="551.651374" xlink:href="#mdfa9b3c947" y="54.05586"/>
     <use style="fill:#ff0000;stroke:#ff0000;" x="593.732936" xlink:href="#mdfa9b3c947" y="68.421609"/>
     <use style="fill:#ff0000;stroke:#ff0000;" x="584.745081" xlink:href="#mdfa9b3c947" y="60.540934"/>
    </g>
   </g>
   <g id="patch_3">
    <path clip-path="url(#p3654e3a678)" d="M 177.040793 364.673494 
C 180.862413 364.673494 184.528024 363.155148 187.230318 360.452855 
C 189.932612 357.750561 191.450958 354.084949 191.450958 350.263329 
C 191.450958 346.441708 189.932612 342.776097 187.230318 340.073803 
C 184.528024 337.37151 180.862413 335.853164 177.040793 335.853164 
C 173.219172 335.853164 169.553561 337.37151 166.851267 340.073803 
C 164.148973 342.776097 162.630627 346.441708 162.630627 350.263329 
C 162.630627 354.084949 164.148973 357.750561 166.851267 360.452855 
C 169.553561 363.155148 173.219172 364.673494 177.040793 364.673494 
z
" style="fill:#ff0000;opacity:0.2;stroke:#ff0000;stroke-linejoin:miter;"/>
   </g>
   <g id="patch_4">
    <path clip-path="url(#p3654e3a678)" d="M 190.51727 359.050663 
C 193.748697 359.050663 196.848207 357.766803 199.133171 355.48184 
C 201.418134 353.196876 202.701994 350.097366 202.701994 346.865939 
C 202.701994 343.634513 201.418134 340.535002 199.133171 338.250039 
C 196.848207 335.965075 193.748697 334.681216 190.51727 334.681216 
C 187.285844 334.681216 184.186333 335.965075 181.90137 338.250039 
C 179.616406 340.535002 178.332547 343.634513 178.332547 346.865939 
C 178.332547 350.097366 179.616406 353.196876 181.90137 355.48184 
C 184.186333 357.766803 187.285844 359.050663 190.51727 359.050663 
z
" style="fill:#ff0000;opacity:0.2;stroke:#ff0000;stroke-linejoin:miter;"/>
   </g>
   <g id="patch_5">
    <path clip-path="url(#p3654e3a678)" d="M 217.670924 337.342541 
C 220.923931 337.342541 224.044141 336.050108 226.344364 333.749884 
C 228.644587 331.449661 229.937021 328.329451 229.937021 325.076444 
C 229.937021 321.823437 228.644587 318.703227 226.344364 316.403004 
C 224.044141 314.102781 220.923931 312.810347 217.670924 312.810347 
C 214.417917 312.810347 211.297707 314.102781 208.997483 316.403004 
C 206.69726 318.703227 205.404827 321.823437 205.404827 325.076444 
C 205.404827 328.329451 206.69726 331.449661 208.997483 333.749884 
C 211.297707 336.050108 214.417917 337.342541 217.670924 337.342541 
z
" style="fill:#ff0000;opacity:0.2;stroke:#ff0000;stroke-linejoin:miter;"/>
   </g>
   <g id="patch_6">
    <path clip-path="url(#p3654e3a678)" d="M 229.623383 314.532866 
C 232.943115 314.532866 236.127326 313.213922 238.474731 310.866517 
C 240.822136 308.519112 242.14108 305.334901 242.14108 302.015169 
C 242.14108 298.695437 240.822136 295.511225 238.474731 293.16382 
C 236.127326 290.816415 232.943115 289.497472 229.623383 289.497472 
C 226.303651 289.497472 223.119439 290.816415 220.772034 293.16382 
C 218.424629 295.511225 217.105686 298.695437 217.105686 302.015169 
C 217.105686 305.334901 218.424629 308.519112 220.772034 310.866517 
C 223.119439 313.213922 226.303651 314.532866 229.623383 314.532866 
z
" style="fill:#ff0000;opacity:0.2;stroke:#ff0000;stroke-linejoin:miter;"/>
   </g>
   <g id="patch_7">
    <path clip-path="url(#p3654e3a678)" d="M 229.279115 318.023152 
C 232.580128 318.023152 235.746384 316.711646 238.080552 314.377478 
C 240.414721 312.043309 241.726227 308.877053 241.726227 305.576041 
C 241.726227 302.275028 240.414721 299.108772 238.080552 296.774604 
C 235.746384 294.440435 232.580128 293.128929 229.279115 293.128929 
C 225.978103 293.128929 222.811846 294.440435 220.477678 296.774604 
C 218.14351 299.108772 216.832003 302.275028 216.832003 305.576041 
C 216.832003 308.877053 218.14351 312.043309 220.477678 314.377478 
C 222.811846 316.711646 225.978103 318.023152 229.279115 318.023152 
z
" style="fill:#ff0000;opacity:0.2;stroke:#ff0000;stroke-linejoin:miter;"/>
   </g>
   <g id="patch_8">
    <path clip-path="url(#p3654e3a678)" d="M 235.906242 300.691829 
C 239.133704 300.691829 242.229412 299.409545 244.511572 297.127385 
C 246.793731 294.845225 248.076016 291.749518 248.076016 288.522056 
C 248.076016 285.294595 246.793731 282.198887 244.511572 279.916727 
C 242.229412 277.634567 239.133704 276.352283 235.906242 276.352283 
C 232.678781 276.352283 229.583073 277.634567 227.300913 279.916727 
C 225.018753 282.198887 223.736469 285.294595 223.736469 288.522056 
C 223.736469 291.749518 225.018753 294.845225 227.300913 297.127385 
C 229.583073 299.409545 232.678781 300.691829 235.906242 300.691829 
z
" style="fill:#ff0000;opacity:0.2;stroke:#ff0000;stroke-linejoin:miter;"/>
   </g>
   <g id="patch_9">
    <path clip-path="url(#p3654e3a678)" d="M 254.839418 293.491798 
C 257.976152 293.491798 260.984836 292.24556 263.202842 290.027554 
C 265.420848 287.809548 266.667086 284.800864 266.667086 281.66413 
C 266.667086 278.527396 265.420848 275.518712 263.202842 273.300706 
C 260.984836 271.0827 257.976152 269.836462 254.839418 269.836462 
C 251.702683 269.836462 248.693999 271.0827 246.475993 273.300706 
C 244.257987 275.518712 243.01175 278.527396 243.01175 281.66413 
C 243.01175 284.800864 244.257987 287.809548 246.475993 290.027554 
C 248.693999 292.24556 251.702683 293.491798 254.839418 293.491798 
z
" style="fill:#ff0000;opacity:0.2;stroke:#ff0000;stroke-linejoin:miter;"/>
   </g>
   <g id="patch_10">
    <path clip-path="url(#p3654e3a678)" d="M 281.634294 274.301219 
C 284.684021 274.301219 287.609249 273.08955 289.765731 270.933068 
C 291.922214 268.776585 293.133883 265.851357 293.133883 262.801631 
C 293.133883 259.751904 291.922214 256.826676 289.765731 254.670193 
C 287.609249 252.513711 284.684021 251.302042 281.634294 251.302042 
C 278.584568 251.302042 275.659339 252.513711 273.502857 254.670193 
C 271.346375 256.826676 270.134706 259.751904 270.134706 262.801631 
C 270.134706 265.851357 271.346375 268.776585 273.502857 270.933068 
C 275.659339 273.08955 278.584568 274.301219 281.634294 274.301219 
z
" style="fill:#ff0000;opacity:0.2;stroke:#ff0000;stroke-linejoin:miter;"/>
   </g>
   <g id="patch_11">
    <path clip-path="url(#p3654e3a678)" d="M 304.538428 241.644903 
C 307.514135 241.644903 310.368365 240.462642 312.472508 238.3585 
C 314.576651 236.254357 315.758912 233.400126 315.758912 230.424419 
C 315.758912 227.448712 314.576651 224.594482 312.472508 222.490339 
C 310.368365 220.386196 307.514135 219.203935 304.538428 219.203935 
C 301.562721 219.203935 298.70849 220.386196 296.604348 222.490339 
C 294.500205 224.594482 293.317944 227.448712 293.317944 230.424419 
C 293.317944 233.400126 294.500205 236.254357 296.604348 238.3585 
C 298.70849 240.462642 301.562721 241.644903 304.538428 241.644903 
z
" style="fill:#ff0000;opacity:0.2;stroke:#ff0000;stroke-linejoin:miter;"/>
   </g>
   <g id="patch_12">
    <path clip-path="url(#p3654e3a678)" d="M 322.261429 236.372244 
C 325.179095 236.372244 327.977654 235.213043 330.040756 233.149941 
C 332.103857 231.086839 333.263058 228.288281 333.263058 225.370614 
C 333.263058 222.452948 332.103857 219.654389 330.040756 217.591288 
C 327.977654 215.528186 325.179095 214.368985 322.261429 214.368985 
C 319.343763 214.368985 316.545204 215.528186 314.482102 217.591288 
C 312.419 219.654389 311.259799 222.452948 311.259799 225.370614 
C 311.259799 228.288281 312.419 231.086839 314.482102 233.149941 
C 316.545204 235.213043 319.343763 236.372244 322.261429 236.372244 
z
" style="fill:#ff0000;opacity:0.2;stroke:#ff0000;stroke-linejoin:miter;"/>
   </g>
   <g id="patch_13">
    <path clip-path="url(#p3654e3a678)" d="M 358.811168 222.161347 
C 361.686426 222.161347 364.444308 221.018995 366.477422 218.985881 
C 368.510536 216.952767 369.652888 214.194885 369.652888 211.319627 
C 369.652888 208.444369 368.510536 205.686488 366.477422 203.653373 
C 364.444308 201.620259 361.686426 200.477907 358.811168 200.477907 
C 355.935911 200.477907 353.178029 201.620259 351.144915 203.653373 
C 349.1118 205.686488 347.969448 208.444369 347.969448 211.319627 
C 347.969448 214.194885 349.1118 216.952767 351.144915 218.985881 
C 353.178029 221.018995 355.935911 222.161347 358.811168 222.161347 
z
" style="fill:#ff0000;opacity:0.2;stroke:#ff0000;stroke-linejoin:miter;"/>
   </g>
   <g id="patch_14">
    <path clip-path="url(#p3654e3a678)" d="M 389.344079 210.615264 
C 392.190457 210.615264 394.920638 209.484386 396.933332 207.471692 
C 398.946025 205.458999 400.076903 202.728818 400.076903 199.88244 
C 400.076903 197.036061 398.946025 194.30588 396.933332 192.293187 
C 394.920638 190.280493 392.190457 189.149615 389.344079 189.149615 
C 386.497701 189.149615 383.767519 190.280493 381.754826 192.293187 
C 379.742133 194.30588 378.611255 197.036061 378.611255 199.88244 
C 378.611255 202.728818 379.742133 205.458999 381.754826 207.471692 
C 383.767519 209.484386 386.497701 210.615264 389.344079 210.615264 
z
" style="fill:#ff0000;opacity:0.2;stroke:#ff0000;stroke-linejoin:miter;"/>
   </g>
   <g id="patch_15">
    <path clip-path="url(#p3654e3a678)" d="M 412.301157 196.313476 
C 415.129305 196.313476 417.842001 195.18984 419.841803 193.190038 
C 421.841606 191.190235 422.965241 188.477539 422.965241 185.649391 
C 422.965241 182.821243 421.841606 180.108548 419.841803 178.108745 
C 417.842001 176.108942 415.129305 174.985307 412.301157 174.985307 
C 409.473009 174.985307 406.760313 176.108942 404.760511 178.108745 
C 402.760708 180.108548 401.637073 182.821243 401.637073 185.649391 
C 401.637073 188.477539 402.760708 191.190235 404.760511 193.190038 
C 406.760313 195.18984 409.473009 196.313476 412.301157 196.313476 
z
" style="fill:#ff0000;opacity:0.2;stroke:#ff0000;stroke-linejoin:miter;"/>
   </g>
   <g id="patch_16">
    <path clip-path="url(#p3654e3a678)" d="M 428.295457 184.077189 
C 431.11305 184.077189 433.815621 182.957747 435.807961 180.965408 
C 437.8003 178.973068 438.919742 176.270497 438.919742 173.452904 
C 438.919742 170.63531 437.8003 167.932739 435.807961 165.9404 
C 433.815621 163.94806 431.11305 162.828619 428.295457 162.828619 
C 425.477864 162.828619 422.775292 163.94806 420.782953 165.9404 
C 418.790614 167.932739 417.671172 170.63531 417.671172 173.452904 
C 417.671172 176.270497 418.790614 178.973068 420.782953 180.965408 
C 422.775292 182.957747 425.477864 184.077189 428.295457 184.077189 
z
" style="fill:#ff0000;opacity:0.2;stroke:#ff0000;stroke-linejoin:miter;"/>
   </g>
   <g id="patch_17">
    <path clip-path="url(#p3654e3a678)" d="M 451.618402 169.29272 
C 454.430494 169.29272 457.127789 168.175464 459.116238 166.187015 
C 461.104688 164.198566 462.221944 161.501271 462.221944 158.689179 
C 462.221944 155.877087 461.104688 153.179793 459.116238 151.191343 
C 457.127789 149.202894 454.430494 148.085638 451.618402 148.085638 
C 448.80631 148.085638 446.109016 149.202894 444.120567 151.191343 
C 442.132117 153.179793 441.014861 155.877087 441.014861 158.689179 
C 441.014861 161.501271 442.132117 164.198566 444.120567 166.187015 
C 446.109016 168.175464 448.80631 169.29272 451.618402 169.29272 
z
" style="fill:#ff0000;opacity:0.2;stroke:#ff0000;stroke-linejoin:miter;"/>
   </g>
   <g id="patch_18">
    <path clip-path="url(#p3654e3a678)" d="M 480.779142 158.579951 
C 483.588745 158.579951 486.283652 157.463684 488.270341 155.476995 
C 490.25703 153.490306 491.373297 150.795399 491.373297 147.985796 
C 491.373297 145.176194 490.25703 142.481287 488.270341 140.494598 
C 486.283652 138.507909 483.588745 137.391642 480.779142 137.391642 
C 477.96954 137.391642 475.274633 138.507909 473.287944 140.494598 
C 471.301255 142.481287 470.184988 145.176194 470.184988 147.985796 
C 470.184988 150.795399 471.301255 153.490306 473.287944 155.476995 
C 475.274633 157.463684 477.96954 158.579951 480.779142 158.579951 
z
" style="fill:#ff0000;opacity:0.2;stroke:#ff0000;stroke-linejoin:miter;"/>
   </g>
   <g id="patch_19">
    <path clip-path="url(#p3654e3a678)" d="M 511.307705 138.214771 
C 514.116409 138.214771 516.810454 137.098861 518.796508 135.112807 
C 520.782561 133.126754 521.898471 130.432709 521.898471 127.624005 
C 521.898471 124.815301 520.782561 122.121256 518.796508 120.135203 
C 516.810454 118.149149 514.116409 117.033239 511.307705 117.033239 
C 508.499002 117.033239 505.804957 118.149149 503.818903 120.135203 
C 501.83285 122.121256 500.71694 124.815301 500.71694 127.624005 
C 500.71694 130.432709 501.83285 133.126754 503.818903 135.112807 
C 505.804957 137.098861 508.499002 138.214771 511.307705 138.214771 
z
" style="fill:#ff0000;opacity:0.2;stroke:#ff0000;stroke-linejoin:miter;"/>
   </g>
   <g id="patch_20">
    <path clip-path="url(#p3654e3a678)" d="M 538.383317 126.326083 
C 541.191829 126.326083 543.885691 125.210249 545.871609 123.22433 
C 547.857528 121.238412 548.973362 118.54455 548.973362 115.736038 
C 548.973362 112.927525 547.857528 110.233663 545.871609 108.247745 
C 543.885691 106.261826 541.191829 105.145992 538.383317 105.145992 
C 535.574804 105.145992 532.880942 106.261826 530.895024 108.247745 
C 528.909105 110.233663 527.793271 112.927525 527.793271 115.736038 
C 527.793271 118.54455 528.909105 121.238412 530.895024 123.22433 
C 532.880942 125.210249 535.574804 126.326083 538.383317 126.326083 
z
" style="fill:#ff0000;opacity:0.2;stroke:#ff0000;stroke-linejoin:miter;"/>
   </g>
   <g id="patch_21">
    <path clip-path="url(#p3654e3a678)" d="M 559.623107 95.923601 
C 562.431655 95.923601 565.125551 94.807753 567.111494 92.821809 
C 569.097438 90.835866 570.213286 88.14197 570.213286 85.333422 
C 570.213286 82.524874 569.097438 79.830978 567.111494 77.845035 
C 565.125551 75.859091 562.431655 74.743243 559.623107 74.743243 
C 556.814559 74.743243 554.120663 75.859091 552.134719 77.845035 
C 550.148776 79.830978 549.032928 82.524874 549.032928 85.333422 
C 549.032928 88.14197 550.148776 90.835866 552.134719 92.821809 
C 554.120663 94.807753 556.814559 95.923601 559.623107 95.923601 
z
" style="fill:#ff0000;opacity:0.2;stroke:#ff0000;stroke-linejoin:miter;"/>
   </g>
   <g id="patch_22">
    <path clip-path="url(#p3654e3a678)" d="M 587.429763 78.618774 
C 590.238356 78.618774 592.932293 77.502909 594.918268 75.516934 
C 596.904243 73.530959 598.020108 70.837022 598.020108 68.028429 
C 598.020108 65.219837 596.904243 62.525899 594.918268 60.539924 
C 592.932293 58.55395 590.238356 57.438084 587.429763 57.438084 
C 584.621171 57.438084 581.927233 58.55395 579.941258 60.539924 
C 577.955284 62.525899 576.839418 65.219837 576.839418 68.028429 
C 576.839418 70.837022 577.955284 73.530959 579.941258 75.516934 
C 581.927233 77.502909 584.621171 78.618774 587.429763 78.618774 
z
" style="fill:#ff0000;opacity:0.2;stroke:#ff0000;stroke-linejoin:miter;"/>
   </g>
   <g id="patch_23">
    <path clip-path="url(#p3654e3a678)" d="M 603.089726 64.567842 
C 605.898302 64.567842 608.592224 63.451983 610.578188 61.46602 
C 612.564151 59.480056 613.68001 56.786134 613.68001 53.977558 
C 613.68001 51.168981 612.564151 48.475059 610.578188 46.489095 
C 608.592224 44.503132 605.898302 43.387273 603.089726 43.387273 
C 600.281149 43.387273 597.587227 44.503132 595.601263 46.489095 
C 593.6153 48.475059 592.499441 51.168981 592.499441 53.977558 
C 592.499441 56.786134 593.6153 59.480056 595.601263 61.46602 
C 597.587227 63.451983 600.281149 64.567842 603.089726 64.567842 
z
" style="fill:#ff0000;opacity:0.2;stroke:#ff0000;stroke-linejoin:miter;"/>
   </g>
   <g id="patch_24">
    <path clip-path="url(#p3654e3a678)" d="M 181.941025 360.522972 
C 184.549133 360.522972 187.050771 359.48676 188.894982 357.642549 
C 190.739193 355.798338 191.775405 353.296701 191.775405 350.688593 
C 191.775405 348.080485 190.739193 345.578847 188.894982 343.734636 
C 187.050771 341.890425 184.549133 340.854213 181.941025 340.854213 
C 179.332917 340.854213 176.831279 341.890425 174.987069 343.734636 
C 173.142858 345.578847 172.106645 348.080485 172.106645 350.688593 
C 172.106645 353.296701 173.142858 355.798338 174.987069 357.642549 
C 176.831279 359.48676 179.332917 360.522972 181.941025 360.522972 
z
" style="fill:#008000;opacity:0.5;stroke:#008000;stroke-linejoin:miter;"/>
   </g>
   <g id="patch_25">
    <path clip-path="url(#p3654e3a678)" d="M 192.855753 347.908693 
C 195.018174 347.908693 197.092319 347.049554 198.621381 345.520491 
C 200.150444 343.991429 201.009582 341.917284 201.009582 339.754863 
C 201.009582 337.592443 200.150444 335.518298 198.621381 333.989235 
C 197.092319 332.460173 195.018174 331.601034 192.855753 331.601034 
C 190.693332 331.601034 188.619187 332.460173 187.090125 333.989235 
C 185.561063 335.518298 184.701924 337.592443 184.701924 339.754863 
C 184.701924 341.917284 185.561063 343.991429 187.090125 345.520491 
C 188.619187 347.049554 190.693332 347.908693 192.855753 347.908693 
z
" style="fill:#008000;opacity:0.5;stroke:#008000;stroke-linejoin:miter;"/>
   </g>
   <g id="patch_26">
    <path clip-path="url(#p3654e3a678)" d="M 221.361231 325.42375 
C 223.884382 325.42375 226.304532 324.421291 228.088669 322.637154 
C 229.872807 320.853016 230.875266 318.432866 230.875266 315.909715 
C 230.875266 313.386563 229.872807 310.966413 228.088669 309.182276 
C 226.304532 307.398138 223.884382 306.395679 221.361231 306.395679 
C 218.838079 306.395679 216.417929 307.398138 214.633792 309.182276 
C 212.849654 310.966413 211.847195 313.386563 211.847195 315.909715 
C 211.847195 318.432866 212.849654 320.853016 214.633792 322.637154 
C 216.417929 324.421291 218.838079 325.42375 221.361231 325.42375 
z
" style="fill:#008000;opacity:0.5;stroke:#008000;stroke-linejoin:miter;"/>
   </g>
   <g id="patch_27">
    <path clip-path="url(#p3654e3a678)" d="M 227.999255 314.824614 
C 230.594624 314.824614 233.084043 313.793463 234.919246 311.95826 
C 236.754449 310.123057 237.7856 307.633638 237.7856 305.038269 
C 237.7856 302.4429 236.754449 299.953481 234.919246 298.118278 
C 233.084043 296.283075 230.594624 295.251924 227.999255 295.251924 
C 225.403886 295.251924 222.914467 296.283075 221.079264 298.118278 
C 219.244061 299.953481 218.21291 302.4429 218.21291 305.038269 
C 218.21291 307.633638 219.244061 310.123057 221.079264 311.95826 
C 222.914467 313.793463 225.403886 314.824614 227.999255 314.824614 
z
" style="fill:#008000;opacity:0.5;stroke:#008000;stroke-linejoin:miter;"/>
   </g>
   <g id="patch_28">
    <path clip-path="url(#p3654e3a678)" d="M 241.785286 303.024823 
C 244.359435 303.024823 246.828499 302.002103 248.648697 300.181905 
C 250.468894 298.361708 251.491614 295.892643 251.491614 293.318495 
C 251.491614 290.744347 250.468894 288.275282 248.648697 286.455085 
C 246.828499 284.634887 244.359435 283.612167 241.785286 283.612167 
C 239.211138 283.612167 236.742074 284.634887 234.921876 286.455085 
C 233.101678 288.275282 232.078958 290.744347 232.078958 293.318495 
C 232.078958 295.892643 233.101678 298.361708 234.921876 300.181905 
C 236.742074 302.002103 239.211138 303.024823 241.785286 303.024823 
z
" style="fill:#008000;opacity:0.5;stroke:#008000;stroke-linejoin:miter;"/>
   </g>
   <g id="patch_29">
    <path clip-path="url(#p3654e3a678)" d="M 260.763831 292.429984 
C 263.278049 292.429984 265.68963 291.431075 267.467451 289.653254 
C 269.245271 287.875433 270.244181 285.463853 270.244181 282.949635 
C 270.244181 280.435416 269.245271 278.023836 267.467451 276.246015 
C 265.68963 274.468194 263.278049 273.469285 260.763831 273.469285 
C 258.249613 273.469285 255.838032 274.468194 254.060212 276.246015 
C 252.282391 278.023836 251.283482 280.435416 251.283482 282.949635 
C 251.283482 285.463853 252.282391 287.875433 254.060212 289.653254 
C 255.838032 291.431075 258.249613 292.429984 260.763831 292.429984 
z
" style="fill:#008000;opacity:0.5;stroke:#008000;stroke-linejoin:miter;"/>
   </g>
   <g id="patch_30">
    <path clip-path="url(#p3654e3a678)" d="M 282.304197 277.091812 
C 284.74668 277.091812 287.089453 276.121404 288.816549 274.394308 
C 290.543645 272.667212 291.514054 270.324438 291.514054 267.881955 
C 291.514054 265.439473 290.543645 263.096699 288.816549 261.369603 
C 287.089453 259.642507 284.74668 258.672098 282.304197 258.672098 
C 279.861714 258.672098 277.518941 259.642507 275.791845 261.369603 
C 274.064749 263.096699 273.09434 265.439473 273.09434 267.881955 
C 273.09434 270.324438 274.064749 272.667212 275.791845 274.394308 
C 277.518941 276.121404 279.861714 277.091812 282.304197 277.091812 
z
" style="fill:#008000;opacity:0.5;stroke:#008000;stroke-linejoin:miter;"/>
   </g>
   <g id="patch_31">
    <path clip-path="url(#p3654e3a678)" d="M 309.375329 247.448823 
C 311.747762 247.448823 314.023345 246.506245 315.700909 244.828682 
C 317.378472 243.151118 318.32105 240.875535 318.32105 238.503102 
C 318.32105 236.130669 317.378472 233.855086 315.700909 232.177522 
C 314.023345 230.499959 311.747762 229.557381 309.375329 229.557381 
C 307.002896 229.557381 304.727313 230.499959 303.049749 232.177522 
C 301.372186 233.855086 300.429608 236.130669 300.429608 238.503102 
C 300.429608 240.875535 301.372186 243.151118 303.049749 244.828682 
C 304.727313 246.506245 307.002896 247.448823 309.375329 247.448823 
z
" style="fill:#008000;opacity:0.5;stroke:#008000;stroke-linejoin:miter;"/>
   </g>
   <g id="patch_32">
    <path clip-path="url(#p3654e3a678)" d="M 330.834507 235.404727 
C 333.146384 235.404727 335.363884 234.486208 336.998628 232.851464 
C 338.633372 231.21672 339.55189 228.999221 339.55189 226.687344 
C 339.55189 224.375466 338.633372 222.157967 336.998628 220.523223 
C 335.363884 218.888479 333.146384 217.96996 330.834507 217.96996 
C 328.52263 217.96996 326.30513 218.888479 324.670386 220.523223 
C 323.035642 222.157967 322.117124 224.375466 322.117124 226.687344 
C 322.117124 228.999221 323.035642 231.21672 324.670386 232.851464 
C 326.30513 234.486208 328.52263 235.404727 330.834507 235.404727 
z
" style="fill:#008000;opacity:0.5;stroke:#008000;stroke-linejoin:miter;"/>
   </g>
   <g id="patch_33">
    <path clip-path="url(#p3654e3a678)" d="M 364.582536 220.808152 
C 366.848776 220.808152 369.022501 219.907766 370.624974 218.305292 
C 372.227448 216.702819 373.127834 214.529093 373.127834 212.262854 
C 373.127834 209.996614 372.227448 207.822889 370.624974 206.220416 
C 369.022501 204.617942 366.848776 203.717556 364.582536 203.717556 
C 362.316297 203.717556 360.142571 204.617942 358.540098 206.220416 
C 356.937624 207.822889 356.037238 209.996614 356.037238 212.262854 
C 356.037238 214.529093 356.937624 216.702819 358.540098 218.305292 
C 360.142571 219.907766 362.316297 220.808152 364.582536 220.808152 
z
" style="fill:#008000;opacity:0.5;stroke:#008000;stroke-linejoin:miter;"/>
   </g>
   <g id="patch_34">
    <path clip-path="url(#p3654e3a678)" d="M 396.894597 199.909177 
C 399.133528 199.909177 401.28106 199.01964 402.864223 197.436477 
C 404.447386 195.853313 405.336923 193.705782 405.336923 191.466851 
C 405.336923 189.22792 404.447386 187.080388 402.864223 185.497225 
C 401.28106 183.914061 399.133528 183.024525 396.894597 183.024525 
C 394.655666 183.024525 392.508134 183.914061 390.924971 185.497225 
C 389.341808 187.080388 388.452271 189.22792 388.452271 191.466851 
C 388.452271 193.705782 389.341808 195.853313 390.924971 197.436477 
C 392.508134 199.01964 394.655666 199.909177 396.894597 199.909177 
z
" style="fill:#008000;opacity:0.5;stroke:#008000;stroke-linejoin:miter;"/>
   </g>
   <g id="patch_35">
    <path clip-path="url(#p3654e3a678)" d="M 416.787264 186.67387 
C 419.017693 186.67387 421.15707 185.787712 422.734221 184.21056 
C 424.311372 182.633409 425.197531 180.494032 425.197531 178.263604 
C 425.197531 176.033175 424.311372 173.893799 422.734221 172.316647 
C 421.15707 170.739496 419.017693 169.853337 416.787264 169.853337 
C 414.556836 169.853337 412.417459 170.739496 410.840308 172.316647 
C 409.263157 173.893799 408.376998 176.033175 408.376998 178.263604 
C 408.376998 180.494032 409.263157 182.633409 410.840308 184.21056 
C 412.417459 185.787712 414.556836 186.67387 416.787264 186.67387 
z
" style="fill:#008000;opacity:0.5;stroke:#008000;stroke-linejoin:miter;"/>
   </g>
   <g id="patch_36">
    <path clip-path="url(#p3654e3a678)" d="M 427.553969 170.540508 
C 429.791928 170.540508 431.938527 169.651357 433.521003 168.068881 
C 435.103479 166.486405 435.99263 164.339806 435.99263 162.101847 
C 435.99263 159.863888 435.103479 157.717289 433.521003 156.134813 
C 431.938527 154.552337 429.791928 153.663186 427.553969 153.663186 
C 425.31601 153.663186 423.169411 154.552337 421.586935 156.134813 
C 420.004459 157.717289 419.115309 159.863888 419.115309 162.101847 
C 419.115309 164.339806 420.004459 166.486405 421.586935 168.068881 
C 423.169411 169.651357 425.31601 170.540508 427.553969 170.540508 
z
" style="fill:#008000;opacity:0.5;stroke:#008000;stroke-linejoin:miter;"/>
   </g>
   <g id="patch_37">
    <path clip-path="url(#p3654e3a678)" d="M 451.937476 157.093782 
C 454.194206 157.093782 456.358809 156.197174 457.954558 154.601425 
C 459.550306 153.005676 460.446915 150.841073 460.446915 148.584343 
C 460.446915 146.327614 459.550306 144.163011 457.954558 142.567262 
C 456.358809 140.971513 454.194206 140.074905 451.937476 140.074905 
C 449.680747 140.074905 447.516143 140.971513 445.920395 142.567262 
C 444.324646 144.163011 443.428038 146.327614 443.428038 148.584343 
C 443.428038 150.841073 444.324646 153.005676 445.920395 154.601425 
C 447.516143 156.197174 449.680747 157.093782 451.937476 157.093782 
z
" style="fill:#008000;opacity:0.5;stroke:#008000;stroke-linejoin:miter;"/>
   </g>
   <g id="patch_38">
    <path clip-path="url(#p3654e3a678)" d="M 476.326592 147.685935 
C 478.60856 147.685935 480.797371 146.779299 482.410966 145.165704 
C 484.024561 143.552109 484.931197 141.363298 484.931197 139.08133 
C 484.931197 136.799362 484.024561 134.61055 482.410966 132.996955 
C 480.797371 131.38336 478.60856 130.476725 476.326592 130.476725 
C 474.044624 130.476725 471.855812 131.38336 470.242217 132.996955 
C 468.628622 134.61055 467.721987 136.799362 467.721987 139.08133 
C 467.721987 141.363298 468.628622 143.552109 470.242217 145.165704 
C 471.855812 146.779299 474.044624 147.685935 476.326592 147.685935 
z
" style="fill:#008000;opacity:0.5;stroke:#008000;stroke-linejoin:miter;"/>
   </g>
   <g id="patch_39">
    <path clip-path="url(#p3654e3a678)" d="M 504.294949 129.879904 
C 506.605416 129.879904 508.821564 128.961946 510.455311 127.328199 
C 512.089058 125.694452 513.007017 123.478304 513.007017 121.167836 
C 513.007017 118.857369 512.089058 116.641221 510.455311 115.007474 
C 508.821564 113.373727 506.605416 112.455768 504.294949 112.455768 
C 501.984481 112.455768 499.768333 113.373727 498.134586 115.007474 
C 496.500839 116.641221 495.582881 118.857369 495.582881 121.167836 
C 495.582881 123.478304 496.500839 125.694452 498.134586 127.328199 
C 499.768333 128.961946 501.984481 129.879904 504.294949 129.879904 
z
" style="fill:#008000;opacity:0.5;stroke:#008000;stroke-linejoin:miter;"/>
   </g>
   <g id="patch_40">
    <path clip-path="url(#p3654e3a678)" d="M 532.400727 119.714757 
C 534.7419 119.714757 536.987499 118.784599 538.642958 117.12914 
C 540.298417 115.473681 541.228575 113.228081 541.228575 110.886909 
C 541.228575 108.545736 540.298417 106.300137 538.642958 104.644678 
C 536.987499 102.989219 534.7419 102.059061 532.400727 102.059061 
C 530.059554 102.059061 527.813955 102.989219 526.158496 104.644678 
C 524.503037 106.300137 523.572879 108.545736 523.572879 110.886909 
C 523.572879 113.228081 524.503037 115.473681 526.158496 117.12914 
C 527.813955 118.784599 530.059554 119.714757 532.400727 119.714757 
z
" style="fill:#008000;opacity:0.5;stroke:#008000;stroke-linejoin:miter;"/>
   </g>
   <g id="patch_41">
    <path clip-path="url(#p3654e3a678)" d="M 554.415829 95.286544 
C 556.791049 95.286544 559.069306 94.342859 560.748841 92.663325 
C 562.428375 90.983791 563.37206 88.705534 563.37206 86.330313 
C 563.37206 83.955093 562.428375 81.676836 560.748841 79.997301 
C 559.069306 78.317767 556.791049 77.374082 554.415829 77.374082 
C 552.040608 77.374082 549.762351 78.317767 548.082817 79.997301 
C 546.403282 81.676836 545.459597 83.955093 545.459597 86.330313 
C 545.459597 88.705534 546.403282 90.983791 548.082817 92.663325 
C 549.762351 94.342859 552.040608 95.286544 554.415829 95.286544 
z
" style="fill:#008000;opacity:0.5;stroke:#008000;stroke-linejoin:miter;"/>
   </g>
   <g id="patch_42">
    <path clip-path="url(#p3654e3a678)" d="M 581.896128 83.344169 
C 584.312327 83.344169 586.62989 82.384203 588.338401 80.675692 
C 590.046911 78.967182 591.006877 76.649619 591.006877 74.23342 
C 591.006877 71.817221 590.046911 69.499659 588.338401 67.791148 
C 586.62989 66.082637 584.312327 65.122671 581.896128 65.122671 
C 579.47993 65.122671 577.162367 66.082637 575.453856 67.791148 
C 573.745346 69.499659 572.78538 71.817221 572.78538 74.23342 
C 572.78538 76.649619 573.745346 78.967182 575.453856 80.675692 
C 577.162367 82.384203 579.47993 83.344169 581.896128 83.344169 
z
" style="fill:#008000;opacity:0.5;stroke:#008000;stroke-linejoin:miter;"/>
   </g>
   <g id="patch_43">
    <path clip-path="url(#p3654e3a678)" d="M 601.656047 68.582345 
C 604.127849 68.582345 606.498745 67.600288 608.246572 65.85246 
C 609.9944 64.104633 610.976457 61.733737 610.976457 59.261935 
C 610.976457 56.790134 609.9944 54.419238 608.246572 52.671411 
C 606.498745 50.923583 604.127849 49.941526 601.656047 49.941526 
C 599.184246 49.941526 596.81335 50.923583 595.065523 52.671411 
C 593.317695 54.419238 592.335638 56.790134 592.335638 59.261935 
C 592.335638 61.733737 593.317695 64.104633 595.065523 65.85246 
C 596.81335 67.600288 599.184246 68.582345 601.656047 68.582345 
z
" style="fill:#008000;opacity:0.5;stroke:#008000;stroke-linejoin:miter;"/>
   </g>
   <g id="patch_44">
    <path clip-path="url(#p3654e3a678)" d="M 163.334159 364.104123 
C 163.334159 364.104123 163.334159 364.104123 163.334159 364.104123 
C 163.334159 364.104123 163.334159 364.104123 163.334159 364.104123 
C 163.334159 364.104123 163.334159 364.104123 163.334159 364.104123 
C 163.334159 364.104123 163.334159 364.104123 163.334159 364.104123 
C 163.334159 364.104123 163.334159 364.104123 163.334159 364.104123 
C 163.334159 364.104123 163.334159 364.104123 163.334159 364.104123 
C 163.334159 364.104123 163.334159 364.104123 163.334159 364.104123 
C 163.334159 364.104123 163.334159 364.104123 163.334159 364.104123 
z
" style="fill:#ff0000;opacity:0.2;stroke:#ff0000;stroke-linejoin:miter;"/>
   </g>
   <g id="patch_45">
    <path clip-path="url(#p3654e3a678)" d="M 163.334159 364.104123 
C 163.334159 364.104123 163.334159 364.104123 163.334159 364.104123 
C 163.334159 364.104123 163.334159 364.104123 163.334159 364.104123 
C 163.334159 364.104123 163.334159 364.104123 163.334159 364.104123 
C 163.334159 364.104123 163.334159 364.104123 163.334159 364.104123 
C 163.334159 364.104123 163.334159 364.104123 163.334159 364.104123 
C 163.334159 364.104123 163.334159 364.104123 163.334159 364.104123 
C 163.334159 364.104123 163.334159 364.104123 163.334159 364.104123 
C 163.334159 364.104123 163.334159 364.104123 163.334159 364.104123 
z
" style="fill:#0000ff;opacity:0.2;stroke:#0000ff;stroke-linejoin:miter;"/>
   </g>
   <g id="patch_46">
    <path clip-path="url(#p3654e3a678)" d="M 163.334159 364.104123 
C 163.334159 364.104123 163.334159 364.104123 163.334159 364.104123 
C 163.334159 364.104123 163.334159 364.104123 163.334159 364.104123 
C 163.334159 364.104123 163.334159 364.104123 163.334159 364.104123 
C 163.334159 364.104123 163.334159 364.104123 163.334159 364.104123 
C 163.334159 364.104123 163.334159 364.104123 163.334159 364.104123 
C 163.334159 364.104123 163.334159 364.104123 163.334159 364.104123 
C 163.334159 364.104123 163.334159 364.104123 163.334159 364.104123 
C 163.334159 364.104123 163.334159 364.104123 163.334159 364.104123 
z
" style="fill:#008000;opacity:0.5;stroke:#008000;stroke-linejoin:miter;"/>
   </g>
   <g id="patch_47">
    <path clip-path="url(#p3654e3a678)" d="M 161.744581 386.372116 
C 166.671668 386.372116 171.397616 384.414564 174.881593 380.930588 
C 178.365569 377.446612 180.323121 372.720663 180.323121 367.793577 
C 180.323121 362.86649 178.365569 358.140542 174.881593 354.656566 
C 171.397616 351.172589 166.671668 349.215037 161.744581 349.215037 
C 156.817495 349.215037 152.091547 351.172589 148.60757 354.656566 
C 145.123594 358.140542 143.166042 362.86649 143.166042 367.793577 
C 143.166042 372.720663 145.123594 377.446612 148.60757 380.930588 
C 152.091547 384.414564 156.817495 386.372116 161.744581 386.372116 
z
" style="fill:#0000ff;opacity:0.2;stroke:#0000ff;stroke-linejoin:miter;"/>
   </g>
   <g id="patch_48">
    <path clip-path="url(#p3654e3a678)" d="M 165.105838 375.457873 
C 169.539072 375.457873 173.791329 373.69653 176.926098 370.561761 
C 180.060868 367.426991 181.82221 363.174734 181.82221 358.7415 
C 181.82221 354.308267 180.060868 350.05601 176.926098 346.92124 
C 173.791329 343.786471 169.539072 342.025128 165.105838 342.025128 
C 160.672604 342.025128 156.420348 343.786471 153.285578 346.92124 
C 150.150808 350.05601 148.389466 354.308267 148.389466 358.7415 
C 148.389466 363.174734 150.150808 367.426991 153.285578 370.561761 
C 156.420348 373.69653 160.672604 375.457873 165.105838 375.457873 
z
" style="fill:#0000ff;opacity:0.2;stroke:#0000ff;stroke-linejoin:miter;"/>
   </g>
   <g id="patch_49">
    <path clip-path="url(#p3654e3a678)" d="M 188.053592 357.526702 
C 192.564133 357.526702 196.89054 355.734645 200.079974 352.545212 
C 203.269408 349.355778 205.061464 345.029371 205.061464 340.51883 
C 205.061464 336.00829 203.269408 331.681882 200.079974 328.492448 
C 196.89054 325.303015 192.564133 323.510958 188.053592 323.510958 
C 183.543052 323.510958 179.216644 325.303015 176.027211 328.492448 
C 172.837777 331.681882 171.04572 336.00829 171.04572 340.51883 
C 171.04572 345.029371 172.837777 349.355778 176.027211 352.545212 
C 179.216644 355.734645 183.543052 357.526702 188.053592 357.526702 
z
" style="fill:#0000ff;opacity:0.2;stroke:#0000ff;stroke-linejoin:miter;"/>
   </g>
   <g id="patch_50">
    <path clip-path="url(#p3654e3a678)" d="M 226.039566 341.036828 
C 230.748496 341.036828 235.265195 339.16595 238.594911 335.836234 
C 241.924628 332.506518 243.795505 327.989819 243.795505 323.280889 
C 243.795505 318.571959 241.924628 314.055261 238.594911 310.725544 
C 235.265195 307.395828 230.748496 305.52495 226.039566 305.52495 
C 221.330636 305.52495 216.813938 307.395828 213.484222 310.725544 
C 210.154505 314.055261 208.283627 318.571959 208.283627 323.280889 
C 208.283627 327.989819 210.154505 332.506518 213.484222 335.836234 
C 216.813938 339.16595 221.330636 341.036828 226.039566 341.036828 
z
" style="fill:#0000ff;opacity:0.2;stroke:#0000ff;stroke-linejoin:miter;"/>
   </g>
   <g id="patch_51">
    <path clip-path="url(#p3654e3a678)" d="M 242.526273 308.689534 
C 247.348738 308.689534 251.974338 306.773548 255.384336 303.36355 
C 258.794334 299.953552 260.71032 295.327953 260.71032 290.505487 
C 260.71032 285.683021 258.794334 281.057422 255.384336 277.647424 
C 251.974338 274.237426 247.348738 272.32144 242.526273 272.32144 
C 237.703807 272.32144 233.078208 274.237426 229.66821 277.647424 
C 226.258212 281.057422 224.342226 285.683021 224.342226 290.505487 
C 224.342226 295.327953 226.258212 299.953552 229.66821 303.36355 
C 233.078208 306.773548 237.703807 308.689534 242.526273 308.689534 
z
" style="fill:#0000ff;opacity:0.2;stroke:#0000ff;stroke-linejoin:miter;"/>
   </g>
   <g id="patch_52">
    <path clip-path="url(#p3654e3a678)" d="M 266.649113 308.747103 
C 271.479746 308.747103 276.11318 306.827872 279.528953 303.412099 
C 282.944727 299.996325 284.863958 295.362892 284.863958 290.532258 
C 284.863958 285.701625 282.944727 281.068192 279.528953 277.652418 
C 276.11318 274.236645 271.479746 272.317414 266.649113 272.317414 
C 261.81848 272.317414 257.185046 274.236645 253.769273 277.652418 
C 250.353499 281.068192 248.434268 285.701625 248.434268 290.532258 
C 248.434268 295.362892 250.353499 299.996325 253.769273 303.412099 
C 257.185046 306.827872 261.81848 308.747103 266.649113 308.747103 
z
" style="fill:#0000ff;opacity:0.2;stroke:#0000ff;stroke-linejoin:miter;"/>
   </g>
   <g id="patch_53">
    <path clip-path="url(#p3654e3a678)" d="M 281.59384 291.642163 
C 286.364753 291.642163 290.940904 289.74666 294.314449 286.373115 
C 297.687994 282.99957 299.583497 278.423419 299.583497 273.652506 
C 299.583497 268.881593 297.687994 264.305443 294.314449 260.931898 
C 290.940904 257.558353 286.364753 255.662849 281.59384 255.662849 
C 276.822927 255.662849 272.246776 257.558353 268.873232 260.931898 
C 265.499687 264.305443 263.604183 268.881593 263.604183 273.652506 
C 263.604183 278.423419 265.499687 282.99957 268.873232 286.373115 
C 272.246776 289.74666 276.822927 291.642163 281.59384 291.642163 
z
" style="fill:#0000ff;opacity:0.2;stroke:#0000ff;stroke-linejoin:miter;"/>
   </g>
   <g id="patch_54">
    <path clip-path="url(#p3654e3a678)" d="M 286.969187 287.170312 
C 291.648792 287.170312 296.137362 285.311085 299.446342 282.002105 
C 302.755322 278.693125 304.614549 274.204554 304.614549 269.524949 
C 304.614549 264.845345 302.755322 260.356774 299.446342 257.047794 
C 296.137362 253.738814 291.648792 251.879587 286.969187 251.879587 
C 282.289582 251.879587 277.801011 253.738814 274.492031 257.047794 
C 271.183051 260.356774 269.323824 264.845345 269.323824 269.524949 
C 269.323824 274.204554 271.183051 278.693125 274.492031 282.002105 
C 277.801011 285.311085 282.289582 287.170312 286.969187 287.170312 
z
" style="fill:#0000ff;opacity:0.2;stroke:#0000ff;stroke-linejoin:miter;"/>
   </g>
   <g id="patch_55">
    <path clip-path="url(#p3654e3a678)" d="M 321.251755 268.816129 
C 325.83194 268.816129 330.225149 266.996402 333.463829 263.757722 
C 336.702509 260.519042 338.522236 256.125833 338.522236 251.545648 
C 338.522236 246.965463 336.702509 242.572254 333.463829 239.333574 
C 330.225149 236.094894 325.83194 234.275167 321.251755 234.275167 
C 316.67157 234.275167 312.27836 236.094894 309.03968 239.333574 
C 305.801001 242.572254 303.981274 246.965463 303.981274 251.545648 
C 303.981274 256.125833 305.801001 260.519042 309.03968 263.757722 
C 312.27836 266.996402 316.67157 268.816129 321.251755 268.816129 
z
" style="fill:#0000ff;opacity:0.2;stroke:#0000ff;stroke-linejoin:miter;"/>
   </g>
   <g id="patch_56">
    <path clip-path="url(#p3654e3a678)" d="M 349.731092 235.100368 
C 354.216828 235.100368 358.519445 233.318166 361.691339 230.146271 
C 364.863234 226.974376 366.645436 222.67176 366.645436 218.186024 
C 366.645436 213.700287 364.863234 209.397671 361.691339 206.225776 
C 358.519445 203.053882 354.216828 201.27168 349.731092 201.27168 
C 345.245356 201.27168 340.942739 203.053882 337.770845 206.225776 
C 334.59895 209.397671 332.816748 213.700287 332.816748 218.186024 
C 332.816748 222.67176 334.59895 226.974376 337.770845 230.146271 
C 340.942739 233.318166 345.245356 235.100368 349.731092 235.100368 
z
" style="fill:#0000ff;opacity:0.2;stroke:#0000ff;stroke-linejoin:miter;"/>
   </g>
   <g id="patch_57">
    <path clip-path="url(#p3654e3a678)" d="M 366.688867 221.849066 
C 371.091644 221.849066 375.314687 220.099824 378.427921 216.986591 
C 381.541154 213.873357 383.290396 209.650314 383.290396 205.247537 
C 383.290396 200.84476 381.541154 196.621717 378.427921 193.508484 
C 375.314687 190.395251 371.091644 188.646009 366.688867 188.646009 
C 362.28609 188.646009 358.063047 190.395251 354.949814 193.508484 
C 351.836581 196.621717 350.087339 200.84476 350.087339 205.247537 
C 350.087339 209.650314 351.836581 213.873357 354.949814 216.986591 
C 358.063047 220.099824 362.28609 221.849066 366.688867 221.849066 
z
" style="fill:#0000ff;opacity:0.2;stroke:#0000ff;stroke-linejoin:miter;"/>
   </g>
   <g id="patch_58">
    <path clip-path="url(#p3654e3a678)" d="M 400.97499 178.214012 
C 405.308909 178.214012 409.465906 176.492127 412.53045 173.427584 
C 415.594994 170.36304 417.316879 166.206043 417.316879 161.872123 
C 417.316879 157.538204 415.594994 153.381207 412.53045 150.316663 
C 409.465906 147.252119 405.308909 145.530235 400.97499 145.530235 
C 396.64107 145.530235 392.484073 147.252119 389.41953 150.316663 
C 386.354986 153.381207 384.633101 157.538204 384.633101 161.872123 
C 384.633101 166.206043 386.354986 170.36304 389.41953 173.427584 
C 392.484073 176.492127 396.64107 178.214012 400.97499 178.214012 
z
" style="fill:#0000ff;opacity:0.2;stroke:#0000ff;stroke-linejoin:miter;"/>
   </g>
   <g id="patch_59">
    <path clip-path="url(#p3654e3a678)" d="M 413.402898 176.475563 
C 417.68236 176.475563 421.787122 174.775314 424.813159 171.749278 
C 427.839195 168.723241 429.539443 164.618479 429.539443 160.339017 
C 429.539443 156.059555 427.839195 151.954793 424.813159 148.928756 
C 421.787122 145.90272 417.68236 144.202471 413.402898 144.202471 
C 409.123436 144.202471 405.018673 145.90272 401.992637 148.928756 
C 398.9666 151.954793 397.266352 156.059555 397.266352 160.339017 
C 397.266352 164.618479 398.9666 168.723241 401.992637 171.749278 
C 405.018673 174.775314 409.123436 176.475563 413.402898 176.475563 
z
" style="fill:#0000ff;opacity:0.2;stroke:#0000ff;stroke-linejoin:miter;"/>
   </g>
   <g id="patch_60">
    <path clip-path="url(#p3654e3a678)" d="M 416.229305 155.099784 
C 420.467639 155.099784 424.532952 153.415876 427.529907 150.418922 
C 430.526861 147.421967 432.210769 143.356654 432.210769 139.11832 
C 432.210769 134.879986 430.526861 130.814672 427.529907 127.817718 
C 424.532952 124.820763 420.467639 123.136855 416.229305 123.136855 
C 411.990971 123.136855 407.925657 124.820763 404.928703 127.817718 
C 401.931748 130.814672 400.24784 134.879986 400.24784 139.11832 
C 400.24784 143.356654 401.931748 147.421967 404.928703 150.418922 
C 407.925657 153.415876 411.990971 155.099784 416.229305 155.099784 
z
" style="fill:#0000ff;opacity:0.2;stroke:#0000ff;stroke-linejoin:miter;"/>
   </g>
   <g id="patch_61">
    <path clip-path="url(#p3654e3a678)" d="M 446.797581 150.864678 
C 451.00629 150.864678 455.043188 149.19254 458.019194 146.216533 
C 460.995201 143.240526 462.667339 139.203629 462.667339 134.99492 
C 462.667339 130.78621 460.995201 126.749313 458.019194 123.773306 
C 455.043188 120.797299 451.00629 119.125161 446.797581 119.125161 
C 442.588872 119.125161 438.551974 120.797299 435.575967 123.773306 
C 432.59996 126.749313 430.927823 130.78621 430.927823 134.99492 
C 430.927823 139.203629 432.59996 143.240526 435.575967 146.216533 
C 438.551974 149.19254 442.588872 150.864678 446.797581 150.864678 
z
" style="fill:#0000ff;opacity:0.2;stroke:#0000ff;stroke-linejoin:miter;"/>
   </g>
   <g id="patch_62">
    <path clip-path="url(#p3654e3a678)" d="M 460.492626 145.59694 
C 464.681059 145.59694 468.698509 143.932858 471.660178 140.971188 
C 474.621848 138.009519 476.28593 133.992069 476.28593 129.803636 
C 476.28593 125.615203 474.621848 121.597753 471.660178 118.636084 
C 468.698509 115.674414 464.681059 114.010332 460.492626 114.010332 
C 456.304193 114.010332 452.286743 115.674414 449.325073 118.636084 
C 446.363404 121.597753 444.699322 125.615203 444.699322 129.803636 
C 444.699322 133.992069 446.363404 138.009519 449.325073 140.971188 
C 452.286743 143.932858 456.304193 145.59694 460.492626 145.59694 
z
" style="fill:#0000ff;opacity:0.2;stroke:#0000ff;stroke-linejoin:miter;"/>
   </g>
   <g id="patch_63">
    <path clip-path="url(#p3654e3a678)" d="M 485.762663 135.776777 
C 489.937997 135.776777 493.942883 134.117899 496.89529 131.165492 
C 499.847697 128.213085 501.506575 124.208199 501.506575 120.032865 
C 501.506575 115.85753 499.847697 111.852645 496.89529 108.900237 
C 493.942883 105.94783 489.937997 104.288952 485.762663 104.288952 
C 481.587328 104.288952 477.582443 105.94783 474.630035 108.900237 
C 471.677628 111.852645 470.01875 115.85753 470.01875 120.032865 
C 470.01875 124.208199 471.677628 128.213085 474.630035 131.165492 
C 477.582443 134.117899 481.587328 135.776777 485.762663 135.776777 
z
" style="fill:#0000ff;opacity:0.2;stroke:#0000ff;stroke-linejoin:miter;"/>
   </g>
   <g id="patch_64">
    <path clip-path="url(#p3654e3a678)" d="M 520.231901 126.476852 
C 524.399337 126.476852 528.396645 124.821112 531.343467 121.874291 
C 534.290288 118.927469 535.946028 114.93016 535.946028 110.762725 
C 535.946028 106.59529 534.290288 102.597982 531.343467 99.65116 
C 528.396645 96.704338 524.399337 95.048599 520.231901 95.048599 
C 516.064466 95.048599 512.067158 96.704338 509.120336 99.65116 
C 506.173515 102.597982 504.517775 106.59529 504.517775 110.762725 
C 504.517775 114.93016 506.173515 118.927469 509.120336 121.874291 
C 512.067158 124.821112 516.064466 126.476852 520.231901 126.476852 
z
" style="fill:#0000ff;opacity:0.2;stroke:#0000ff;stroke-linejoin:miter;"/>
   </g>
   <g id="patch_65">
    <path clip-path="url(#p3654e3a678)" d="M 547.054478 115.6132 
C 551.217553 115.6132 555.210679 113.959193 558.154417 111.015455 
C 561.098155 108.071717 562.752162 104.07859 562.752162 99.915516 
C 562.752162 95.752441 561.098155 91.759315 558.154417 88.815577 
C 555.210679 85.871838 551.217553 84.217831 547.054478 84.217831 
C 542.891403 84.217831 538.898277 85.871838 535.954539 88.815577 
C 533.010801 91.759315 531.356794 95.752441 531.356794 99.915516 
C 531.356794 104.07859 533.010801 108.071717 535.954539 111.015455 
C 538.898277 113.959193 542.891403 115.6132 547.054478 115.6132 
z
" style="fill:#0000ff;opacity:0.2;stroke:#0000ff;stroke-linejoin:miter;"/>
   </g>
   <g id="patch_66">
    <path clip-path="url(#p3654e3a678)" d="M 573.701352 109.060791 
C 577.862308 109.060791 581.853403 107.407626 584.795644 104.465385 
C 587.737885 101.523144 589.391051 97.532049 589.391051 93.371092 
C 589.391051 89.210135 587.737885 85.21904 584.795644 82.2768 
C 581.853403 79.334559 577.862308 77.681393 573.701352 77.681393 
C 569.540395 77.681393 565.5493 79.334559 562.607059 82.2768 
C 559.664818 85.21904 558.011653 89.210135 558.011653 93.371092 
C 558.011653 97.532049 559.664818 101.523144 562.607059 104.465385 
C 565.5493 107.407626 569.540395 109.060791 573.701352 109.060791 
z
" style="fill:#0000ff;opacity:0.2;stroke:#0000ff;stroke-linejoin:miter;"/>
   </g>
   <g id="patch_67">
    <path clip-path="url(#p3654e3a678)" d="M 602.762266 87.136867 
C 606.922405 87.136867 610.912716 85.484026 613.854378 82.542364 
C 616.796041 79.600701 618.448882 75.610391 618.448882 71.450251 
C 618.448882 67.290112 616.796041 63.299802 613.854378 60.358139 
C 610.912716 57.416477 606.922405 55.763636 602.762266 55.763636 
C 598.602127 55.763636 594.611816 57.416477 591.670154 60.358139 
C 588.728491 63.299802 587.07565 67.290112 587.07565 71.450251 
C 587.07565 75.610391 588.728491 79.600701 591.670154 82.542364 
C 594.611816 85.484026 598.602127 87.136867 602.762266 87.136867 
z
" style="fill:#0000ff;opacity:0.2;stroke:#0000ff;stroke-linejoin:miter;"/>
   </g>
   <g id="matplotlib.axis_1">
    <g id="xtick_1">
     <g id="line2d_1">
      <defs>
       <path d="M 0 0 
L 0 3.5 
" id="m002061182e" style="stroke:#000000;stroke-width:0.8;"/>
      </defs>
      <g>
       <use style="stroke:#000000;stroke-width:0.8;" x="83.957976" xlink:href="#m002061182e" y="390.04"/>
      </g>
     </g>
     <g id="text_1">
      <!-- 5 -->
      <g transform="translate(76.586883 404.638438)scale(0.1 -0.1)">
       <defs>
        <path d="M 10.59375 35.5 
L 73.1875 35.5 
L 73.1875 27.203125 
L 10.59375 27.203125 
z
" id="DejaVuSans-8722"/>
        <path d="M 10.796875 72.90625 
L 49.515625 72.90625 
L 49.515625 64.59375 
L 19.828125 64.59375 
L 19.828125 46.734375 
Q 21.96875 47.46875 24.109375 47.828125 
Q 26.265625 48.1875 28.421875 48.1875 
Q 40.625 48.1875 47.75 41.5 
Q 54.890625 34.8125 54.890625 23.390625 
Q 54.890625 11.625 47.5625 5.09375 
Q 40.234375 -1.421875 26.90625 -1.421875 
Q 22.3125 -1.421875 17.546875 -0.640625 
Q 12.796875 0.140625 7.71875 1.703125 
L 7.71875 11.625 
Q 12.109375 9.234375 16.796875 8.0625 
Q 21.484375 6.890625 26.703125 6.890625 
Q 35.15625 6.890625 40.078125 11.328125 
Q 45.015625 15.765625 45.015625 23.390625 
Q 45.015625 31 40.078125 35.4375 
Q 35.15625 39.890625 26.703125 39.890625 
Q 22.75 39.890625 18.8125 39.015625 
Q 14.890625 38.140625 10.796875 36.28125 
z
" id="DejaVuSans-53"/>
       </defs>
       <use xlink:href="#DejaVuSans-8722"/>
       <use x="83.789062" xlink:href="#DejaVuSans-53"/>
      </g>
     </g>
    </g>
    <g id="xtick_2">
     <g id="line2d_2">
      <g>
       <use style="stroke:#000000;stroke-width:0.8;" x="163.334159" xlink:href="#m002061182e" y="390.04"/>
      </g>
     </g>
     <g id="text_2">
      <!-- 0 -->
      <g transform="translate(160.152909 404.638438)scale(0.1 -0.1)">
       <defs>
        <path d="M 31.78125 66.40625 
Q 24.171875 66.40625 20.328125 58.90625 
Q 16.5 51.421875 16.5 36.375 
Q 16.5 21.390625 20.328125 13.890625 
Q 24.171875 6.390625 31.78125 6.390625 
Q 39.453125 6.390625 43.28125 13.890625 
Q 47.125 21.390625 47.125 36.375 
Q 47.125 51.421875 43.28125 58.90625 
Q 39.453125 66.40625 31.78125 66.40625 
z
M 31.78125 74.21875 
Q 44.046875 74.21875 50.515625 64.515625 
Q 56.984375 54.828125 56.984375 36.375 
Q 56.984375 17.96875 50.515625 8.265625 
Q 44.046875 -1.421875 31.78125 -1.421875 
Q 19.53125 -1.421875 13.0625 8.265625 
Q 6.59375 17.96875 6.59375 36.375 
Q 6.59375 54.828125 13.0625 64.515625 
Q 19.53125 74.21875 31.78125 74.21875 
z
" id="DejaVuSans-48"/>
       </defs>
       <use xlink:href="#DejaVuSans-48"/>
      </g>
     </g>
    </g>
    <g id="xtick_3">
     <g id="line2d_3">
      <g>
       <use style="stroke:#000000;stroke-width:0.8;" x="242.710341" xlink:href="#m002061182e" y="390.04"/>
      </g>
     </g>
     <g id="text_3">
      <!-- 5 -->
      <g transform="translate(239.529091 404.638438)scale(0.1 -0.1)">
       <use xlink:href="#DejaVuSans-53"/>
      </g>
     </g>
    </g>
    <g id="xtick_4">
     <g id="line2d_4">
      <g>
       <use style="stroke:#000000;stroke-width:0.8;" x="322.086524" xlink:href="#m002061182e" y="390.04"/>
      </g>
     </g>
     <g id="text_4">
      <!-- 10 -->
      <g transform="translate(315.724024 404.638438)scale(0.1 -0.1)">
       <defs>
        <path d="M 12.40625 8.296875 
L 28.515625 8.296875 
L 28.515625 63.921875 
L 10.984375 60.40625 
L 10.984375 69.390625 
L 28.421875 72.90625 
L 38.28125 72.90625 
L 38.28125 8.296875 
L 54.390625 8.296875 
L 54.390625 0 
L 12.40625 0 
z
" id="DejaVuSans-49"/>
       </defs>
       <use xlink:href="#DejaVuSans-49"/>
       <use x="63.623047" xlink:href="#DejaVuSans-48"/>
      </g>
     </g>
    </g>
    <g id="xtick_5">
     <g id="line2d_5">
      <g>
       <use style="stroke:#000000;stroke-width:0.8;" x="401.462706" xlink:href="#m002061182e" y="390.04"/>
      </g>
     </g>
     <g id="text_5">
      <!-- 15 -->
      <g transform="translate(395.100206 404.638438)scale(0.1 -0.1)">
       <use xlink:href="#DejaVuSans-49"/>
       <use x="63.623047" xlink:href="#DejaVuSans-53"/>
      </g>
     </g>
    </g>
    <g id="xtick_6">
     <g id="line2d_6">
      <g>
       <use style="stroke:#000000;stroke-width:0.8;" x="480.838889" xlink:href="#m002061182e" y="390.04"/>
      </g>
     </g>
     <g id="text_6">
      <!-- 20 -->
      <g transform="translate(474.476389 404.638438)scale(0.1 -0.1)">
       <defs>
        <path d="M 19.1875 8.296875 
L 53.609375 8.296875 
L 53.609375 0 
L 7.328125 0 
L 7.328125 8.296875 
Q 12.9375 14.109375 22.625 23.890625 
Q 32.328125 33.6875 34.8125 36.53125 
Q 39.546875 41.84375 41.421875 45.53125 
Q 43.3125 49.21875 43.3125 52.78125 
Q 43.3125 58.59375 39.234375 62.25 
Q 35.15625 65.921875 28.609375 65.921875 
Q 23.96875 65.921875 18.8125 64.3125 
Q 13.671875 62.703125 7.8125 59.421875 
L 7.8125 69.390625 
Q 13.765625 71.78125 18.9375 73 
Q 24.125 74.21875 28.421875 74.21875 
Q 39.75 74.21875 46.484375 68.546875 
Q 53.21875 62.890625 53.21875 53.421875 
Q 53.21875 48.921875 51.53125 44.890625 
Q 49.859375 40.875 45.40625 35.40625 
Q 44.1875 33.984375 37.640625 27.21875 
Q 31.109375 20.453125 19.1875 8.296875 
z
" id="DejaVuSans-50"/>
       </defs>
       <use xlink:href="#DejaVuSans-50"/>
       <use x="63.623047" xlink:href="#DejaVuSans-48"/>
      </g>
     </g>
    </g>
    <g id="xtick_7">
     <g id="line2d_7">
      <g>
       <use style="stroke:#000000;stroke-width:0.8;" x="560.215071" xlink:href="#m002061182e" y="390.04"/>
      </g>
     </g>
     <g id="text_7">
      <!-- 25 -->
      <g transform="translate(553.852571 404.638438)scale(0.1 -0.1)">
       <use xlink:href="#DejaVuSans-50"/>
       <use x="63.623047" xlink:href="#DejaVuSans-53"/>
      </g>
     </g>
    </g>
    <g id="xtick_8">
     <g id="line2d_8">
      <g>
       <use style="stroke:#000000;stroke-width:0.8;" x="639.591253" xlink:href="#m002061182e" y="390.04"/>
      </g>
     </g>
     <g id="text_8">
      <!-- 30 -->
      <g transform="translate(633.228753 404.638438)scale(0.1 -0.1)">
       <defs>
        <path d="M 40.578125 39.3125 
Q 47.65625 37.796875 51.625 33 
Q 55.609375 28.21875 55.609375 21.1875 
Q 55.609375 10.40625 48.1875 4.484375 
Q 40.765625 -1.421875 27.09375 -1.421875 
Q 22.515625 -1.421875 17.65625 -0.515625 
Q 12.796875 0.390625 7.625 2.203125 
L 7.625 11.71875 
Q 11.71875 9.328125 16.59375 8.109375 
Q 21.484375 6.890625 26.8125 6.890625 
Q 36.078125 6.890625 40.9375 10.546875 
Q 45.796875 14.203125 45.796875 21.1875 
Q 45.796875 27.640625 41.28125 31.265625 
Q 36.765625 34.90625 28.71875 34.90625 
L 20.21875 34.90625 
L 20.21875 43.015625 
L 29.109375 43.015625 
Q 36.375 43.015625 40.234375 45.921875 
Q 44.09375 48.828125 44.09375 54.296875 
Q 44.09375 59.90625 40.109375 62.90625 
Q 36.140625 65.921875 28.71875 65.921875 
Q 24.65625 65.921875 20.015625 65.03125 
Q 15.375 64.15625 9.8125 62.3125 
L 9.8125 71.09375 
Q 15.4375 72.65625 20.34375 73.4375 
Q 25.25 74.21875 29.59375 74.21875 
Q 40.828125 74.21875 47.359375 69.109375 
Q 53.90625 64.015625 53.90625 55.328125 
Q 53.90625 49.265625 50.4375 45.09375 
Q 46.96875 40.921875 40.578125 39.3125 
z
" id="DejaVuSans-51"/>
       </defs>
       <use xlink:href="#DejaVuSans-51"/>
       <use x="63.623047" xlink:href="#DejaVuSans-48"/>
      </g>
     </g>
    </g>
    <g id="text_9">
     <!-- $x$ -->
     <g transform="translate(374.245 418.316562)scale(0.1 -0.1)">
      <defs>
       <path d="M 60.015625 54.6875 
L 34.90625 27.875 
L 50.296875 0 
L 39.984375 0 
L 28.421875 21.6875 
L 8.296875 0 
L -2.59375 0 
L 24.3125 28.8125 
L 10.015625 54.6875 
L 20.3125 54.6875 
L 30.8125 34.90625 
L 49.125 54.6875 
z
" id="DejaVuSans-Oblique-120"/>
      </defs>
      <use transform="translate(0 0.3125)" xlink:href="#DejaVuSans-Oblique-120"/>
     </g>
    </g>
   </g>
   <g id="matplotlib.axis_2">
    <g id="ytick_1">
     <g id="line2d_9">
      <defs>
       <path d="M 0 0 
L -3.5 0 
" id="m0fc4f418dd" style="stroke:#000000;stroke-width:0.8;"/>
      </defs>
      <g>
       <use style="stroke:#000000;stroke-width:0.8;" x="45.29" xlink:href="#m0fc4f418dd" y="364.104123"/>
      </g>
     </g>
     <g id="text_10">
      <!-- 0 -->
      <g transform="translate(31.9275 367.903341)scale(0.1 -0.1)">
       <use xlink:href="#DejaVuSans-48"/>
      </g>
     </g>
    </g>
    <g id="ytick_2">
     <g id="line2d_10">
      <g>
       <use style="stroke:#000000;stroke-width:0.8;" x="45.29" xlink:href="#m0fc4f418dd" y="284.72794"/>
      </g>
     </g>
     <g id="text_11">
      <!-- 5 -->
      <g transform="translate(31.9275 288.527159)scale(0.1 -0.1)">
       <use xlink:href="#DejaVuSans-53"/>
      </g>
     </g>
    </g>
    <g id="ytick_3">
     <g id="line2d_11">
      <g>
       <use style="stroke:#000000;stroke-width:0.8;" x="45.29" xlink:href="#m0fc4f418dd" y="205.351758"/>
      </g>
     </g>
     <g id="text_12">
      <!-- 10 -->
      <g transform="translate(25.565 209.150976)scale(0.1 -0.1)">
       <use xlink:href="#DejaVuSans-49"/>
       <use x="63.623047" xlink:href="#DejaVuSans-48"/>
      </g>
     </g>
    </g>
    <g id="ytick_4">
     <g id="line2d_12">
      <g>
       <use style="stroke:#000000;stroke-width:0.8;" x="45.29" xlink:href="#m0fc4f418dd" y="125.975575"/>
      </g>
     </g>
     <g id="text_13">
      <!-- 15 -->
      <g transform="translate(25.565 129.774794)scale(0.1 -0.1)">
       <use xlink:href="#DejaVuSans-49"/>
       <use x="63.623047" xlink:href="#DejaVuSans-53"/>
      </g>
     </g>
    </g>
    <g id="ytick_5">
     <g id="line2d_13">
      <g>
       <use style="stroke:#000000;stroke-width:0.8;" x="45.29" xlink:href="#m0fc4f418dd" y="46.599393"/>
      </g>
     </g>
     <g id="text_14">
      <!-- 20 -->
      <g transform="translate(25.565 50.398612)scale(0.1 -0.1)">
       <use xlink:href="#DejaVuSans-50"/>
       <use x="63.623047" xlink:href="#DejaVuSans-48"/>
      </g>
     </g>
    </g>
    <g id="text_15">
     <!-- $y$ -->
     <g transform="translate(19.465 211.46)rotate(-90)scale(0.1 -0.1)">
      <defs>
       <path d="M 24.8125 -5.078125 
Q 18.5625 -15.578125 14.625 -18.1875 
Q 10.6875 -20.796875 4.59375 -20.796875 
L -2.484375 -20.796875 
L -0.984375 -13.28125 
L 4.203125 -13.28125 
Q 7.953125 -13.28125 10.59375 -11.234375 
Q 13.234375 -9.1875 16.5 -3.21875 
L 19.28125 2 
L 7.171875 54.6875 
L 16.703125 54.6875 
L 25.78125 12.796875 
L 50.875 54.6875 
L 60.296875 54.6875 
z
" id="DejaVuSans-Oblique-121"/>
      </defs>
      <use transform="translate(0 0.3125)" xlink:href="#DejaVuSans-Oblique-121"/>
     </g>
    </g>
   </g>
   <g id="line2d_14">
    <path clip-path="url(#p3654e3a678)" d="M 163.334159 364.104123 
L 179.014384 348.139015 
L 195.839799 332.28255 
L 213.579186 315.907099 
L 233.157262 299.540032 
L 254.824232 282.855472 
L 275.759437 267.569079 
L 296.421555 254.571207 
L 318.468626 239.168551 
L 340.568421 223.392595 
L 364.419233 208.163406 
L 386.80876 194.864095 
L 407.94869 182.432603 
L 429.761861 170.6192 
L 454.591213 157.710492 
L 480.3927 144.079045 
L 506.174494 129.793307 
L 529.440682 115.035357 
L 553.010261 98.759223 
L 578.140376 81.822172 
L 604.136126 65.707325 
" style="fill:none;stroke:#1f77b4;stroke-dasharray:5.55,2.4;stroke-dashoffset:0;stroke-width:1.5;"/>
   </g>
   <g id="patch_68">
    <path d="M 45.29 390.04 
L 45.29 26.88 
" style="fill:none;stroke:#000000;stroke-linecap:square;stroke-linejoin:miter;stroke-width:0.8;"/>
   </g>
   <g id="patch_69">
    <path d="M 709.2 390.04 
L 709.2 26.88 
" style="fill:none;stroke:#000000;stroke-linecap:square;stroke-linejoin:miter;stroke-width:0.8;"/>
   </g>
   <g id="patch_70">
    <path d="M 45.29 390.04 
L 709.2 390.04 
" style="fill:none;stroke:#000000;stroke-linecap:square;stroke-linejoin:miter;stroke-width:0.8;"/>
   </g>
   <g id="patch_71">
    <path d="M 45.29 26.88 
L 709.2 26.88 
" style="fill:none;stroke:#000000;stroke-linecap:square;stroke-linejoin:miter;stroke-width:0.8;"/>
   </g>
   <g id="text_16">
    <!-- Kalman filter tracking and fusion accounting for the dependence -->
    <g transform="translate(183.142188 20.88)scale(0.12 -0.12)">
     <defs>
      <path d="M 9.8125 72.90625 
L 19.671875 72.90625 
L 19.671875 42.09375 
L 52.390625 72.90625 
L 65.09375 72.90625 
L 28.90625 38.921875 
L 67.671875 0 
L 54.6875 0 
L 19.671875 35.109375 
L 19.671875 0 
L 9.8125 0 
z
" id="DejaVuSans-75"/>
      <path d="M 34.28125 27.484375 
Q 23.390625 27.484375 19.1875 25 
Q 14.984375 22.515625 14.984375 16.5 
Q 14.984375 11.71875 18.140625 8.90625 
Q 21.296875 6.109375 26.703125 6.109375 
Q 34.1875 6.109375 38.703125 11.40625 
Q 43.21875 16.703125 43.21875 25.484375 
L 43.21875 27.484375 
z
M 52.203125 31.203125 
L 52.203125 0 
L 43.21875 0 
L 43.21875 8.296875 
Q 40.140625 3.328125 35.546875 0.953125 
Q 30.953125 -1.421875 24.3125 -1.421875 
Q 15.921875 -1.421875 10.953125 3.296875 
Q 6 8.015625 6 15.921875 
Q 6 25.140625 12.171875 29.828125 
Q 18.359375 34.515625 30.609375 34.515625 
L 43.21875 34.515625 
L 43.21875 35.40625 
Q 43.21875 41.609375 39.140625 45 
Q 35.0625 48.390625 27.6875 48.390625 
Q 23 48.390625 18.546875 47.265625 
Q 14.109375 46.140625 10.015625 43.890625 
L 10.015625 52.203125 
Q 14.9375 54.109375 19.578125 55.046875 
Q 24.21875 56 28.609375 56 
Q 40.484375 56 46.34375 49.84375 
Q 52.203125 43.703125 52.203125 31.203125 
z
" id="DejaVuSans-97"/>
      <path d="M 9.421875 75.984375 
L 18.40625 75.984375 
L 18.40625 0 
L 9.421875 0 
z
" id="DejaVuSans-108"/>
      <path d="M 52 44.1875 
Q 55.375 50.25 60.0625 53.125 
Q 64.75 56 71.09375 56 
Q 79.640625 56 84.28125 50.015625 
Q 88.921875 44.046875 88.921875 33.015625 
L 88.921875 0 
L 79.890625 0 
L 79.890625 32.71875 
Q 79.890625 40.578125 77.09375 44.375 
Q 74.3125 48.1875 68.609375 48.1875 
Q 61.625 48.1875 57.5625 43.546875 
Q 53.515625 38.921875 53.515625 30.90625 
L 53.515625 0 
L 44.484375 0 
L 44.484375 32.71875 
Q 44.484375 40.625 41.703125 44.40625 
Q 38.921875 48.1875 33.109375 48.1875 
Q 26.21875 48.1875 22.15625 43.53125 
Q 18.109375 38.875 18.109375 30.90625 
L 18.109375 0 
L 9.078125 0 
L 9.078125 54.6875 
L 18.109375 54.6875 
L 18.109375 46.1875 
Q 21.1875 51.21875 25.484375 53.609375 
Q 29.78125 56 35.6875 56 
Q 41.65625 56 45.828125 52.96875 
Q 50 49.953125 52 44.1875 
z
" id="DejaVuSans-109"/>
      <path d="M 54.890625 33.015625 
L 54.890625 0 
L 45.90625 0 
L 45.90625 32.71875 
Q 45.90625 40.484375 42.875 44.328125 
Q 39.84375 48.1875 33.796875 48.1875 
Q 26.515625 48.1875 22.3125 43.546875 
Q 18.109375 38.921875 18.109375 30.90625 
L 18.109375 0 
L 9.078125 0 
L 9.078125 54.6875 
L 18.109375 54.6875 
L 18.109375 46.1875 
Q 21.34375 51.125 25.703125 53.5625 
Q 30.078125 56 35.796875 56 
Q 45.21875 56 50.046875 50.171875 
Q 54.890625 44.34375 54.890625 33.015625 
z
" id="DejaVuSans-110"/>
      <path id="DejaVuSans-32"/>
      <path d="M 37.109375 75.984375 
L 37.109375 68.5 
L 28.515625 68.5 
Q 23.6875 68.5 21.796875 66.546875 
Q 19.921875 64.59375 19.921875 59.515625 
L 19.921875 54.6875 
L 34.71875 54.6875 
L 34.71875 47.703125 
L 19.921875 47.703125 
L 19.921875 0 
L 10.890625 0 
L 10.890625 47.703125 
L 2.296875 47.703125 
L 2.296875 54.6875 
L 10.890625 54.6875 
L 10.890625 58.5 
Q 10.890625 67.625 15.140625 71.796875 
Q 19.390625 75.984375 28.609375 75.984375 
z
" id="DejaVuSans-102"/>
      <path d="M 9.421875 54.6875 
L 18.40625 54.6875 
L 18.40625 0 
L 9.421875 0 
z
M 9.421875 75.984375 
L 18.40625 75.984375 
L 18.40625 64.59375 
L 9.421875 64.59375 
z
" id="DejaVuSans-105"/>
      <path d="M 18.3125 70.21875 
L 18.3125 54.6875 
L 36.8125 54.6875 
L 36.8125 47.703125 
L 18.3125 47.703125 
L 18.3125 18.015625 
Q 18.3125 11.328125 20.140625 9.421875 
Q 21.96875 7.515625 27.59375 7.515625 
L 36.8125 7.515625 
L 36.8125 0 
L 27.59375 0 
Q 17.1875 0 13.234375 3.875 
Q 9.28125 7.765625 9.28125 18.015625 
L 9.28125 47.703125 
L 2.6875 47.703125 
L 2.6875 54.6875 
L 9.28125 54.6875 
L 9.28125 70.21875 
z
" id="DejaVuSans-116"/>
      <path d="M 56.203125 29.59375 
L 56.203125 25.203125 
L 14.890625 25.203125 
Q 15.484375 15.921875 20.484375 11.0625 
Q 25.484375 6.203125 34.421875 6.203125 
Q 39.59375 6.203125 44.453125 7.46875 
Q 49.3125 8.734375 54.109375 11.28125 
L 54.109375 2.78125 
Q 49.265625 0.734375 44.1875 -0.34375 
Q 39.109375 -1.421875 33.890625 -1.421875 
Q 20.796875 -1.421875 13.15625 6.1875 
Q 5.515625 13.8125 5.515625 26.8125 
Q 5.515625 40.234375 12.765625 48.109375 
Q 20.015625 56 32.328125 56 
Q 43.359375 56 49.78125 48.890625 
Q 56.203125 41.796875 56.203125 29.59375 
z
M 47.21875 32.234375 
Q 47.125 39.59375 43.09375 43.984375 
Q 39.0625 48.390625 32.421875 48.390625 
Q 24.90625 48.390625 20.390625 44.140625 
Q 15.875 39.890625 15.1875 32.171875 
z
" id="DejaVuSans-101"/>
      <path d="M 41.109375 46.296875 
Q 39.59375 47.171875 37.8125 47.578125 
Q 36.03125 48 33.890625 48 
Q 26.265625 48 22.1875 43.046875 
Q 18.109375 38.09375 18.109375 28.8125 
L 18.109375 0 
L 9.078125 0 
L 9.078125 54.6875 
L 18.109375 54.6875 
L 18.109375 46.1875 
Q 20.953125 51.171875 25.484375 53.578125 
Q 30.03125 56 36.53125 56 
Q 37.453125 56 38.578125 55.875 
Q 39.703125 55.765625 41.0625 55.515625 
z
" id="DejaVuSans-114"/>
      <path d="M 48.78125 52.59375 
L 48.78125 44.1875 
Q 44.96875 46.296875 41.140625 47.34375 
Q 37.3125 48.390625 33.40625 48.390625 
Q 24.65625 48.390625 19.8125 42.84375 
Q 14.984375 37.3125 14.984375 27.296875 
Q 14.984375 17.28125 19.8125 11.734375 
Q 24.65625 6.203125 33.40625 6.203125 
Q 37.3125 6.203125 41.140625 7.25 
Q 44.96875 8.296875 48.78125 10.40625 
L 48.78125 2.09375 
Q 45.015625 0.34375 40.984375 -0.53125 
Q 36.96875 -1.421875 32.421875 -1.421875 
Q 20.0625 -1.421875 12.78125 6.34375 
Q 5.515625 14.109375 5.515625 27.296875 
Q 5.515625 40.671875 12.859375 48.328125 
Q 20.21875 56 33.015625 56 
Q 37.15625 56 41.109375 55.140625 
Q 45.0625 54.296875 48.78125 52.59375 
z
" id="DejaVuSans-99"/>
      <path d="M 9.078125 75.984375 
L 18.109375 75.984375 
L 18.109375 31.109375 
L 44.921875 54.6875 
L 56.390625 54.6875 
L 27.390625 29.109375 
L 57.625 0 
L 45.90625 0 
L 18.109375 26.703125 
L 18.109375 0 
L 9.078125 0 
z
" id="DejaVuSans-107"/>
      <path d="M 45.40625 27.984375 
Q 45.40625 37.75 41.375 43.109375 
Q 37.359375 48.484375 30.078125 48.484375 
Q 22.859375 48.484375 18.828125 43.109375 
Q 14.796875 37.75 14.796875 27.984375 
Q 14.796875 18.265625 18.828125 12.890625 
Q 22.859375 7.515625 30.078125 7.515625 
Q 37.359375 7.515625 41.375 12.890625 
Q 45.40625 18.265625 45.40625 27.984375 
z
M 54.390625 6.78125 
Q 54.390625 -7.171875 48.1875 -13.984375 
Q 42 -20.796875 29.203125 -20.796875 
Q 24.46875 -20.796875 20.265625 -20.09375 
Q 16.0625 -19.390625 12.109375 -17.921875 
L 12.109375 -9.1875 
Q 16.0625 -11.328125 19.921875 -12.34375 
Q 23.78125 -13.375 27.78125 -13.375 
Q 36.625 -13.375 41.015625 -8.765625 
Q 45.40625 -4.15625 45.40625 5.171875 
L 45.40625 9.625 
Q 42.625 4.78125 38.28125 2.390625 
Q 33.9375 0 27.875 0 
Q 17.828125 0 11.671875 7.65625 
Q 5.515625 15.328125 5.515625 27.984375 
Q 5.515625 40.671875 11.671875 48.328125 
Q 17.828125 56 27.875 56 
Q 33.9375 56 38.28125 53.609375 
Q 42.625 51.21875 45.40625 46.390625 
L 45.40625 54.6875 
L 54.390625 54.6875 
z
" id="DejaVuSans-103"/>
      <path d="M 45.40625 46.390625 
L 45.40625 75.984375 
L 54.390625 75.984375 
L 54.390625 0 
L 45.40625 0 
L 45.40625 8.203125 
Q 42.578125 3.328125 38.25 0.953125 
Q 33.9375 -1.421875 27.875 -1.421875 
Q 17.96875 -1.421875 11.734375 6.484375 
Q 5.515625 14.40625 5.515625 27.296875 
Q 5.515625 40.1875 11.734375 48.09375 
Q 17.96875 56 27.875 56 
Q 33.9375 56 38.25 53.625 
Q 42.578125 51.265625 45.40625 46.390625 
z
M 14.796875 27.296875 
Q 14.796875 17.390625 18.875 11.75 
Q 22.953125 6.109375 30.078125 6.109375 
Q 37.203125 6.109375 41.296875 11.75 
Q 45.40625 17.390625 45.40625 27.296875 
Q 45.40625 37.203125 41.296875 42.84375 
Q 37.203125 48.484375 30.078125 48.484375 
Q 22.953125 48.484375 18.875 42.84375 
Q 14.796875 37.203125 14.796875 27.296875 
z
" id="DejaVuSans-100"/>
      <path d="M 8.5 21.578125 
L 8.5 54.6875 
L 17.484375 54.6875 
L 17.484375 21.921875 
Q 17.484375 14.15625 20.5 10.265625 
Q 23.53125 6.390625 29.59375 6.390625 
Q 36.859375 6.390625 41.078125 11.03125 
Q 45.3125 15.671875 45.3125 23.6875 
L 45.3125 54.6875 
L 54.296875 54.6875 
L 54.296875 0 
L 45.3125 0 
L 45.3125 8.40625 
Q 42.046875 3.421875 37.71875 1 
Q 33.40625 -1.421875 27.6875 -1.421875 
Q 18.265625 -1.421875 13.375 4.4375 
Q 8.5 10.296875 8.5 21.578125 
z
M 31.109375 56 
z
" id="DejaVuSans-117"/>
      <path d="M 44.28125 53.078125 
L 44.28125 44.578125 
Q 40.484375 46.53125 36.375 47.5 
Q 32.28125 48.484375 27.875 48.484375 
Q 21.1875 48.484375 17.84375 46.4375 
Q 14.5 44.390625 14.5 40.28125 
Q 14.5 37.15625 16.890625 35.375 
Q 19.28125 33.59375 26.515625 31.984375 
L 29.59375 31.296875 
Q 39.15625 29.25 43.1875 25.515625 
Q 47.21875 21.78125 47.21875 15.09375 
Q 47.21875 7.46875 41.1875 3.015625 
Q 35.15625 -1.421875 24.609375 -1.421875 
Q 20.21875 -1.421875 15.453125 -0.5625 
Q 10.6875 0.296875 5.421875 2 
L 5.421875 11.28125 
Q 10.40625 8.6875 15.234375 7.390625 
Q 20.0625 6.109375 24.8125 6.109375 
Q 31.15625 6.109375 34.5625 8.28125 
Q 37.984375 10.453125 37.984375 14.40625 
Q 37.984375 18.0625 35.515625 20.015625 
Q 33.0625 21.96875 24.703125 23.78125 
L 21.578125 24.515625 
Q 13.234375 26.265625 9.515625 29.90625 
Q 5.8125 33.546875 5.8125 39.890625 
Q 5.8125 47.609375 11.28125 51.796875 
Q 16.75 56 26.8125 56 
Q 31.78125 56 36.171875 55.265625 
Q 40.578125 54.546875 44.28125 53.078125 
z
" id="DejaVuSans-115"/>
      <path d="M 30.609375 48.390625 
Q 23.390625 48.390625 19.1875 42.75 
Q 14.984375 37.109375 14.984375 27.296875 
Q 14.984375 17.484375 19.15625 11.84375 
Q 23.34375 6.203125 30.609375 6.203125 
Q 37.796875 6.203125 41.984375 11.859375 
Q 46.1875 17.53125 46.1875 27.296875 
Q 46.1875 37.015625 41.984375 42.703125 
Q 37.796875 48.390625 30.609375 48.390625 
z
M 30.609375 56 
Q 42.328125 56 49.015625 48.375 
Q 55.71875 40.765625 55.71875 27.296875 
Q 55.71875 13.875 49.015625 6.21875 
Q 42.328125 -1.421875 30.609375 -1.421875 
Q 18.84375 -1.421875 12.171875 6.21875 
Q 5.515625 13.875 5.515625 27.296875 
Q 5.515625 40.765625 12.171875 48.375 
Q 18.84375 56 30.609375 56 
z
" id="DejaVuSans-111"/>
      <path d="M 54.890625 33.015625 
L 54.890625 0 
L 45.90625 0 
L 45.90625 32.71875 
Q 45.90625 40.484375 42.875 44.328125 
Q 39.84375 48.1875 33.796875 48.1875 
Q 26.515625 48.1875 22.3125 43.546875 
Q 18.109375 38.921875 18.109375 30.90625 
L 18.109375 0 
L 9.078125 0 
L 9.078125 75.984375 
L 18.109375 75.984375 
L 18.109375 46.1875 
Q 21.34375 51.125 25.703125 53.5625 
Q 30.078125 56 35.796875 56 
Q 45.21875 56 50.046875 50.171875 
Q 54.890625 44.34375 54.890625 33.015625 
z
" id="DejaVuSans-104"/>
      <path d="M 18.109375 8.203125 
L 18.109375 -20.796875 
L 9.078125 -20.796875 
L 9.078125 54.6875 
L 18.109375 54.6875 
L 18.109375 46.390625 
Q 20.953125 51.265625 25.265625 53.625 
Q 29.59375 56 35.59375 56 
Q 45.5625 56 51.78125 48.09375 
Q 58.015625 40.1875 58.015625 27.296875 
Q 58.015625 14.40625 51.78125 6.484375 
Q 45.5625 -1.421875 35.59375 -1.421875 
Q 29.59375 -1.421875 25.265625 0.953125 
Q 20.953125 3.328125 18.109375 8.203125 
z
M 48.6875 27.296875 
Q 48.6875 37.203125 44.609375 42.84375 
Q 40.53125 48.484375 33.40625 48.484375 
Q 26.265625 48.484375 22.1875 42.84375 
Q 18.109375 37.203125 18.109375 27.296875 
Q 18.109375 17.390625 22.1875 11.75 
Q 26.265625 6.109375 33.40625 6.109375 
Q 40.53125 6.109375 44.609375 11.75 
Q 48.6875 17.390625 48.6875 27.296875 
z
" id="DejaVuSans-112"/>
     </defs>
     <use xlink:href="#DejaVuSans-75"/>
     <use x="63.826172" xlink:href="#DejaVuSans-97"/>
     <use x="125.105469" xlink:href="#DejaVuSans-108"/>
     <use x="152.888672" xlink:href="#DejaVuSans-109"/>
     <use x="250.300781" xlink:href="#DejaVuSans-97"/>
     <use x="311.580078" xlink:href="#DejaVuSans-110"/>
     <use x="374.958984" xlink:href="#DejaVuSans-32"/>
     <use x="406.746094" xlink:href="#DejaVuSans-102"/>
     <use x="441.951172" xlink:href="#DejaVuSans-105"/>
     <use x="469.734375" xlink:href="#DejaVuSans-108"/>
     <use x="497.517578" xlink:href="#DejaVuSans-116"/>
     <use x="536.726562" xlink:href="#DejaVuSans-101"/>
     <use x="598.25" xlink:href="#DejaVuSans-114"/>
     <use x="639.363281" xlink:href="#DejaVuSans-32"/>
     <use x="671.150391" xlink:href="#DejaVuSans-116"/>
     <use x="710.359375" xlink:href="#DejaVuSans-114"/>
     <use x="751.472656" xlink:href="#DejaVuSans-97"/>
     <use x="812.751953" xlink:href="#DejaVuSans-99"/>
     <use x="867.732422" xlink:href="#DejaVuSans-107"/>
     <use x="925.642578" xlink:href="#DejaVuSans-105"/>
     <use x="953.425781" xlink:href="#DejaVuSans-110"/>
     <use x="1016.804688" xlink:href="#DejaVuSans-103"/>
     <use x="1080.28125" xlink:href="#DejaVuSans-32"/>
     <use x="1112.068359" xlink:href="#DejaVuSans-97"/>
     <use x="1173.347656" xlink:href="#DejaVuSans-110"/>
     <use x="1236.726562" xlink:href="#DejaVuSans-100"/>
     <use x="1300.203125" xlink:href="#DejaVuSans-32"/>
     <use x="1331.990234" xlink:href="#DejaVuSans-102"/>
     <use x="1367.195312" xlink:href="#DejaVuSans-117"/>
     <use x="1430.574219" xlink:href="#DejaVuSans-115"/>
     <use x="1482.673828" xlink:href="#DejaVuSans-105"/>
     <use x="1510.457031" xlink:href="#DejaVuSans-111"/>
     <use x="1571.638672" xlink:href="#DejaVuSans-110"/>
     <use x="1635.017578" xlink:href="#DejaVuSans-32"/>
     <use x="1666.804688" xlink:href="#DejaVuSans-97"/>
     <use x="1728.083984" xlink:href="#DejaVuSans-99"/>
     <use x="1783.064453" xlink:href="#DejaVuSans-99"/>
     <use x="1838.044922" xlink:href="#DejaVuSans-111"/>
     <use x="1899.226562" xlink:href="#DejaVuSans-117"/>
     <use x="1962.605469" xlink:href="#DejaVuSans-110"/>
     <use x="2025.984375" xlink:href="#DejaVuSans-116"/>
     <use x="2065.193359" xlink:href="#DejaVuSans-105"/>
     <use x="2092.976562" xlink:href="#DejaVuSans-110"/>
     <use x="2156.355469" xlink:href="#DejaVuSans-103"/>
     <use x="2219.832031" xlink:href="#DejaVuSans-32"/>
     <use x="2251.619141" xlink:href="#DejaVuSans-102"/>
     <use x="2286.824219" xlink:href="#DejaVuSans-111"/>
     <use x="2348.005859" xlink:href="#DejaVuSans-114"/>
     <use x="2389.119141" xlink:href="#DejaVuSans-32"/>
     <use x="2420.90625" xlink:href="#DejaVuSans-116"/>
     <use x="2460.115234" xlink:href="#DejaVuSans-104"/>
     <use x="2523.494141" xlink:href="#DejaVuSans-101"/>
     <use x="2585.017578" xlink:href="#DejaVuSans-32"/>
     <use x="2616.804688" xlink:href="#DejaVuSans-100"/>
     <use x="2680.28125" xlink:href="#DejaVuSans-101"/>
     <use x="2741.804688" xlink:href="#DejaVuSans-112"/>
     <use x="2805.28125" xlink:href="#DejaVuSans-101"/>
     <use x="2866.804688" xlink:href="#DejaVuSans-110"/>
     <use x="2930.183594" xlink:href="#DejaVuSans-100"/>
     <use x="2993.660156" xlink:href="#DejaVuSans-101"/>
     <use x="3055.183594" xlink:href="#DejaVuSans-110"/>
     <use x="3118.5625" xlink:href="#DejaVuSans-99"/>
     <use x="3173.542969" xlink:href="#DejaVuSans-101"/>
    </g>
   </g>
   <g id="legend_1">
    <g id="patch_72">
     <path d="M 52.29 122.94875 
L 190.763437 122.94875 
Q 192.763437 122.94875 192.763437 120.94875 
L 192.763437 33.88 
Q 192.763437 31.88 190.763437 31.88 
L 52.29 31.88 
Q 50.29 31.88 50.29 33.88 
L 50.29 120.94875 
Q 50.29 122.94875 52.29 122.94875 
z
" style="fill:#ffffff;opacity:0.8;stroke:#cccccc;stroke-linejoin:miter;"/>
    </g>
    <g id="line2d_15">
     <path d="M 54.29 39.978438 
L 74.29 39.978438 
" style="fill:none;stroke:#1f77b4;stroke-dasharray:5.55,2.4;stroke-dashoffset:0;stroke-width:1.5;"/>
    </g>
    <g id="line2d_16"/>
    <g id="text_17">
     <!-- Ground truth -->
     <g transform="translate(82.29 43.478438)scale(0.1 -0.1)">
      <defs>
       <path d="M 59.515625 10.40625 
L 59.515625 29.984375 
L 43.40625 29.984375 
L 43.40625 38.09375 
L 69.28125 38.09375 
L 69.28125 6.78125 
Q 63.578125 2.734375 56.6875 0.65625 
Q 49.8125 -1.421875 42 -1.421875 
Q 24.90625 -1.421875 15.25 8.5625 
Q 5.609375 18.5625 5.609375 36.375 
Q 5.609375 54.25 15.25 64.234375 
Q 24.90625 74.21875 42 74.21875 
Q 49.125 74.21875 55.546875 72.453125 
Q 61.96875 70.703125 67.390625 67.28125 
L 67.390625 56.78125 
Q 61.921875 61.421875 55.765625 63.765625 
Q 49.609375 66.109375 42.828125 66.109375 
Q 29.4375 66.109375 22.71875 58.640625 
Q 16.015625 51.171875 16.015625 36.375 
Q 16.015625 21.625 22.71875 14.15625 
Q 29.4375 6.6875 42.828125 6.6875 
Q 48.046875 6.6875 52.140625 7.59375 
Q 56.25 8.5 59.515625 10.40625 
z
" id="DejaVuSans-71"/>
      </defs>
      <use xlink:href="#DejaVuSans-71"/>
      <use x="77.490234" xlink:href="#DejaVuSans-114"/>
      <use x="116.353516" xlink:href="#DejaVuSans-111"/>
      <use x="177.535156" xlink:href="#DejaVuSans-117"/>
      <use x="240.914062" xlink:href="#DejaVuSans-110"/>
      <use x="304.292969" xlink:href="#DejaVuSans-100"/>
      <use x="367.769531" xlink:href="#DejaVuSans-32"/>
      <use x="399.556641" xlink:href="#DejaVuSans-116"/>
      <use x="438.765625" xlink:href="#DejaVuSans-114"/>
      <use x="479.878906" xlink:href="#DejaVuSans-117"/>
      <use x="543.257812" xlink:href="#DejaVuSans-116"/>
      <use x="582.466797" xlink:href="#DejaVuSans-104"/>
     </g>
    </g>
    <g id="patch_73">
     <path d="M 54.29 58.156563 
L 74.29 58.156563 
L 74.29 51.156563 
L 54.29 51.156563 
z
" style="fill:#ff0000;opacity:0.2;stroke:#ff0000;stroke-linejoin:miter;"/>
    </g>
    <g id="text_18">
     <!-- Posterior AIS -->
     <g transform="translate(82.29 58.156563)scale(0.1 -0.1)">
      <defs>
       <path d="M 19.671875 64.796875 
L 19.671875 37.40625 
L 32.078125 37.40625 
Q 38.96875 37.40625 42.71875 40.96875 
Q 46.484375 44.53125 46.484375 51.125 
Q 46.484375 57.671875 42.71875 61.234375 
Q 38.96875 64.796875 32.078125 64.796875 
z
M 9.8125 72.90625 
L 32.078125 72.90625 
Q 44.34375 72.90625 50.609375 67.359375 
Q 56.890625 61.8125 56.890625 51.125 
Q 56.890625 40.328125 50.609375 34.8125 
Q 44.34375 29.296875 32.078125 29.296875 
L 19.671875 29.296875 
L 19.671875 0 
L 9.8125 0 
z
" id="DejaVuSans-80"/>
       <path d="M 34.1875 63.1875 
L 20.796875 26.90625 
L 47.609375 26.90625 
z
M 28.609375 72.90625 
L 39.796875 72.90625 
L 67.578125 0 
L 57.328125 0 
L 50.6875 18.703125 
L 17.828125 18.703125 
L 11.1875 0 
L 0.78125 0 
z
" id="DejaVuSans-65"/>
       <path d="M 9.8125 72.90625 
L 19.671875 72.90625 
L 19.671875 0 
L 9.8125 0 
z
" id="DejaVuSans-73"/>
       <path d="M 53.515625 70.515625 
L 53.515625 60.890625 
Q 47.90625 63.578125 42.921875 64.890625 
Q 37.9375 66.21875 33.296875 66.21875 
Q 25.25 66.21875 20.875 63.09375 
Q 16.5 59.96875 16.5 54.203125 
Q 16.5 49.359375 19.40625 46.890625 
Q 22.3125 44.4375 30.421875 42.921875 
L 36.375 41.703125 
Q 47.40625 39.59375 52.65625 34.296875 
Q 57.90625 29 57.90625 20.125 
Q 57.90625 9.515625 50.796875 4.046875 
Q 43.703125 -1.421875 29.984375 -1.421875 
Q 24.8125 -1.421875 18.96875 -0.25 
Q 13.140625 0.921875 6.890625 3.21875 
L 6.890625 13.375 
Q 12.890625 10.015625 18.65625 8.296875 
Q 24.421875 6.59375 29.984375 6.59375 
Q 38.421875 6.59375 43.015625 9.90625 
Q 47.609375 13.234375 47.609375 19.390625 
Q 47.609375 24.75 44.3125 27.78125 
Q 41.015625 30.8125 33.5 32.328125 
L 27.484375 33.5 
Q 16.453125 35.6875 11.515625 40.375 
Q 6.59375 45.0625 6.59375 53.421875 
Q 6.59375 63.09375 13.40625 68.65625 
Q 20.21875 74.21875 32.171875 74.21875 
Q 37.3125 74.21875 42.625 73.28125 
Q 47.953125 72.359375 53.515625 70.515625 
z
" id="DejaVuSans-83"/>
      </defs>
      <use xlink:href="#DejaVuSans-80"/>
      <use x="56.677734" xlink:href="#DejaVuSans-111"/>
      <use x="117.859375" xlink:href="#DejaVuSans-115"/>
      <use x="169.958984" xlink:href="#DejaVuSans-116"/>
      <use x="209.167969" xlink:href="#DejaVuSans-101"/>
      <use x="270.691406" xlink:href="#DejaVuSans-114"/>
      <use x="311.804688" xlink:href="#DejaVuSans-105"/>
      <use x="339.587891" xlink:href="#DejaVuSans-111"/>
      <use x="400.769531" xlink:href="#DejaVuSans-114"/>
      <use x="441.882812" xlink:href="#DejaVuSans-32"/>
      <use x="473.669922" xlink:href="#DejaVuSans-65"/>
      <use x="542.078125" xlink:href="#DejaVuSans-73"/>
      <use x="571.570312" xlink:href="#DejaVuSans-83"/>
     </g>
    </g>
    <g id="patch_74">
     <path d="M 54.29 72.834688 
L 74.29 72.834688 
L 74.29 65.834688 
L 54.29 65.834688 
z
" style="fill:#0000ff;opacity:0.2;stroke:#0000ff;stroke-linejoin:miter;"/>
    </g>
    <g id="text_19">
     <!-- Posterior Radar -->
     <g transform="translate(82.29 72.834688)scale(0.1 -0.1)">
      <defs>
       <path d="M 44.390625 34.1875 
Q 47.5625 33.109375 50.5625 29.59375 
Q 53.5625 26.078125 56.59375 19.921875 
L 66.609375 0 
L 56 0 
L 46.6875 18.703125 
Q 43.0625 26.03125 39.671875 28.421875 
Q 36.28125 30.8125 30.421875 30.8125 
L 19.671875 30.8125 
L 19.671875 0 
L 9.8125 0 
L 9.8125 72.90625 
L 32.078125 72.90625 
Q 44.578125 72.90625 50.734375 67.671875 
Q 56.890625 62.453125 56.890625 51.90625 
Q 56.890625 45.015625 53.6875 40.46875 
Q 50.484375 35.9375 44.390625 34.1875 
z
M 19.671875 64.796875 
L 19.671875 38.921875 
L 32.078125 38.921875 
Q 39.203125 38.921875 42.84375 42.21875 
Q 46.484375 45.515625 46.484375 51.90625 
Q 46.484375 58.296875 42.84375 61.546875 
Q 39.203125 64.796875 32.078125 64.796875 
z
" id="DejaVuSans-82"/>
      </defs>
      <use xlink:href="#DejaVuSans-80"/>
      <use x="56.677734" xlink:href="#DejaVuSans-111"/>
      <use x="117.859375" xlink:href="#DejaVuSans-115"/>
      <use x="169.958984" xlink:href="#DejaVuSans-116"/>
      <use x="209.167969" xlink:href="#DejaVuSans-101"/>
      <use x="270.691406" xlink:href="#DejaVuSans-114"/>
      <use x="311.804688" xlink:href="#DejaVuSans-105"/>
      <use x="339.587891" xlink:href="#DejaVuSans-111"/>
      <use x="400.769531" xlink:href="#DejaVuSans-114"/>
      <use x="441.882812" xlink:href="#DejaVuSans-32"/>
      <use x="473.669922" xlink:href="#DejaVuSans-82"/>
      <use x="540.902344" xlink:href="#DejaVuSans-97"/>
      <use x="602.181641" xlink:href="#DejaVuSans-100"/>
      <use x="665.658203" xlink:href="#DejaVuSans-97"/>
      <use x="726.9375" xlink:href="#DejaVuSans-114"/>
     </g>
    </g>
    <g id="patch_75">
     <path d="M 54.29 87.512813 
L 74.29 87.512813 
L 74.29 80.512813 
L 54.29 80.512813 
z
" style="fill:#008000;opacity:0.5;stroke:#008000;stroke-linejoin:miter;"/>
    </g>
    <g id="text_20">
     <!-- Posterior Fused -->
     <g transform="translate(82.29 87.512813)scale(0.1 -0.1)">
      <defs>
       <path d="M 9.8125 72.90625 
L 51.703125 72.90625 
L 51.703125 64.59375 
L 19.671875 64.59375 
L 19.671875 43.109375 
L 48.578125 43.109375 
L 48.578125 34.8125 
L 19.671875 34.8125 
L 19.671875 0 
L 9.8125 0 
z
" id="DejaVuSans-70"/>
      </defs>
      <use xlink:href="#DejaVuSans-80"/>
      <use x="56.677734" xlink:href="#DejaVuSans-111"/>
      <use x="117.859375" xlink:href="#DejaVuSans-115"/>
      <use x="169.958984" xlink:href="#DejaVuSans-116"/>
      <use x="209.167969" xlink:href="#DejaVuSans-101"/>
      <use x="270.691406" xlink:href="#DejaVuSans-114"/>
      <use x="311.804688" xlink:href="#DejaVuSans-105"/>
      <use x="339.587891" xlink:href="#DejaVuSans-111"/>
      <use x="400.769531" xlink:href="#DejaVuSans-114"/>
      <use x="441.882812" xlink:href="#DejaVuSans-32"/>
      <use x="473.669922" xlink:href="#DejaVuSans-70"/>
      <use x="525.689453" xlink:href="#DejaVuSans-117"/>
      <use x="589.068359" xlink:href="#DejaVuSans-115"/>
      <use x="641.167969" xlink:href="#DejaVuSans-101"/>
      <use x="702.691406" xlink:href="#DejaVuSans-100"/>
     </g>
    </g>
    <g id="PathCollection_3">
     <g>
      <use style="fill:#0000ff;stroke:#0000ff;" x="64.29" xlink:href="#mf1ad44333c" y="99.565938"/>
     </g>
    </g>
    <g id="text_21">
     <!-- Measurements Radar -->
     <g transform="translate(82.29 102.190938)scale(0.1 -0.1)">
      <defs>
       <path d="M 9.8125 72.90625 
L 24.515625 72.90625 
L 43.109375 23.296875 
L 61.8125 72.90625 
L 76.515625 72.90625 
L 76.515625 0 
L 66.890625 0 
L 66.890625 64.015625 
L 48.09375 14.015625 
L 38.1875 14.015625 
L 19.390625 64.015625 
L 19.390625 0 
L 9.8125 0 
z
" id="DejaVuSans-77"/>
      </defs>
      <use xlink:href="#DejaVuSans-77"/>
      <use x="86.279297" xlink:href="#DejaVuSans-101"/>
      <use x="147.802734" xlink:href="#DejaVuSans-97"/>
      <use x="209.082031" xlink:href="#DejaVuSans-115"/>
      <use x="261.181641" xlink:href="#DejaVuSans-117"/>
      <use x="324.560547" xlink:href="#DejaVuSans-114"/>
      <use x="363.423828" xlink:href="#DejaVuSans-101"/>
      <use x="424.947266" xlink:href="#DejaVuSans-109"/>
      <use x="522.359375" xlink:href="#DejaVuSans-101"/>
      <use x="583.882812" xlink:href="#DejaVuSans-110"/>
      <use x="647.261719" xlink:href="#DejaVuSans-116"/>
      <use x="686.470703" xlink:href="#DejaVuSans-115"/>
      <use x="738.570312" xlink:href="#DejaVuSans-32"/>
      <use x="770.357422" xlink:href="#DejaVuSans-82"/>
      <use x="837.589844" xlink:href="#DejaVuSans-97"/>
      <use x="898.869141" xlink:href="#DejaVuSans-100"/>
      <use x="962.345703" xlink:href="#DejaVuSans-97"/>
      <use x="1023.625" xlink:href="#DejaVuSans-114"/>
     </g>
    </g>
    <g id="PathCollection_4">
     <g>
      <use style="fill:#ff0000;stroke:#ff0000;" x="64.29" xlink:href="#mdfa9b3c947" y="114.244063"/>
     </g>
    </g>
    <g id="text_22">
     <!-- Measurements AIS -->
     <g transform="translate(82.29 116.869063)scale(0.1 -0.1)">
      <use xlink:href="#DejaVuSans-77"/>
      <use x="86.279297" xlink:href="#DejaVuSans-101"/>
      <use x="147.802734" xlink:href="#DejaVuSans-97"/>
      <use x="209.082031" xlink:href="#DejaVuSans-115"/>
      <use x="261.181641" xlink:href="#DejaVuSans-117"/>
      <use x="324.560547" xlink:href="#DejaVuSans-114"/>
      <use x="363.423828" xlink:href="#DejaVuSans-101"/>
      <use x="424.947266" xlink:href="#DejaVuSans-109"/>
      <use x="522.359375" xlink:href="#DejaVuSans-101"/>
      <use x="583.882812" xlink:href="#DejaVuSans-110"/>
      <use x="647.261719" xlink:href="#DejaVuSans-116"/>
      <use x="686.470703" xlink:href="#DejaVuSans-115"/>
      <use x="738.570312" xlink:href="#DejaVuSans-32"/>
      <use x="770.357422" xlink:href="#DejaVuSans-65"/>
      <use x="838.765625" xlink:href="#DejaVuSans-73"/>
      <use x="868.257812" xlink:href="#DejaVuSans-83"/>
     </g>
    </g>
   </g>
  </g>
 </g>
 <defs>
  <clipPath id="p3654e3a678">
   <rect height="363.16" width="663.91" x="45.29" y="26.88"/>
  </clipPath>
 </defs>
</svg>
