<?xml version="1.0" encoding="utf-8" standalone="no"?>
<!DOCTYPE svg PUBLIC "-//W3C//DTD SVG 1.1//EN"
  "http://www.w3.org/Graphics/SVG/1.1/DTD/svg11.dtd">
<!-- Created with matplotlib (https://matplotlib.org/) -->
<svg height="432pt" version="1.1" viewBox="0 0 720 432" width="720pt" xmlns="http://www.w3.org/2000/svg" xmlns:xlink="http://www.w3.org/1999/xlink">
 <metadata>
  <rdf:RDF xmlns:cc="http://creativecommons.org/ns#" xmlns:dc="http://purl.org/dc/elements/1.1/" xmlns:rdf="http://www.w3.org/1999/02/22-rdf-syntax-ns#">
   <cc:Work>
    <dc:type rdf:resource="http://purl.org/dc/dcmitype/StillImage"/>
    <dc:date>2020-09-30T18:21:06.960208</dc:date>
    <dc:format>image/svg+xml</dc:format>
    <dc:creator>
     <cc:Agent>
      <dc:title>Matplotlib v3.3.1, https://matplotlib.org/</dc:title>
     </cc:Agent>
    </dc:creator>
   </cc:Work>
  </rdf:RDF>
 </metadata>
 <defs>
  <style type="text/css">*{stroke-linecap:butt;stroke-linejoin:round;}</style>
 </defs>
 <g id="figure_1">
  <g id="patch_1">
   <path d="M 0 432 
L 720 432 
L 720 0 
L 0 0 
z
" style="fill:#ffffff;"/>
  </g>
  <g id="axes_1">
   <g id="patch_2">
    <path d="M 45.29 390.04 
L 709.2 390.04 
L 709.2 26.88 
L 45.29 26.88 
z
" style="fill:#ffffff;"/>
   </g>
   <g id="PathCollection_1">
    <defs>
     <path d="M 0 3 
C 0.795609 3 1.55874 2.683901 2.12132 2.12132 
C 2.683901 1.55874 3 0.795609 3 0 
C 3 -0.795609 2.683901 -1.55874 2.12132 -2.12132 
C 1.55874 -2.683901 0.795609 -3 0 -3 
C -0.795609 -3 -1.55874 -2.683901 -2.12132 -2.12132 
C -2.683901 -1.55874 -3 -0.795609 -3 0 
C -3 0.795609 -2.683901 1.55874 -2.12132 2.12132 
C -1.55874 2.683901 -0.795609 3 0 3 
z
" id="mbf58ea5056" style="stroke:#0000ff;"/>
    </defs>
    <g clip-path="url(#pe146278997)">
     <use style="fill:#0000ff;stroke:#0000ff;" x="165.506113" xlink:href="#mbf58ea5056" y="361.119685"/>
     <use style="fill:#0000ff;stroke:#0000ff;" x="145.054405" xlink:href="#mbf58ea5056" y="361.046054"/>
     <use style="fill:#0000ff;stroke:#0000ff;" x="211.240697" xlink:href="#mbf58ea5056" y="322.42691"/>
     <use style="fill:#0000ff;stroke:#0000ff;" x="267.982037" xlink:href="#mbf58ea5056" y="309.788887"/>
     <use style="fill:#0000ff;stroke:#0000ff;" x="237.223866" xlink:href="#mbf58ea5056" y="253.923235"/>
     <use style="fill:#0000ff;stroke:#0000ff;" x="274.996211" xlink:href="#mbf58ea5056" y="313.319265"/>
     <use style="fill:#0000ff;stroke:#0000ff;" x="273.031505" xlink:href="#mbf58ea5056" y="262.50253"/>
     <use style="fill:#0000ff;stroke:#0000ff;" x="262.946131" xlink:href="#mbf58ea5056" y="281.431307"/>
     <use style="fill:#0000ff;stroke:#0000ff;" x="354.309247" xlink:href="#mbf58ea5056" y="235.016388"/>
     <use style="fill:#0000ff;stroke:#0000ff;" x="366.101633" xlink:href="#mbf58ea5056" y="172.816574"/>
     <use style="fill:#0000ff;stroke:#0000ff;" x="355.943922" xlink:href="#mbf58ea5056" y="208.478606"/>
     <use style="fill:#0000ff;stroke:#0000ff;" x="428.950943" xlink:href="#mbf58ea5056" y="97.502472"/>
     <use style="fill:#0000ff;stroke:#0000ff;" x="386.592087" xlink:href="#mbf58ea5056" y="200.369959"/>
     <use style="fill:#0000ff;stroke:#0000ff;" x="369.935579" xlink:href="#mbf58ea5056" y="126.907386"/>
     <use style="fill:#0000ff;stroke:#0000ff;" x="472.925099" xlink:href="#mbf58ea5056" y="165.373879"/>
     <use style="fill:#0000ff;stroke:#0000ff;" x="440.401552" xlink:href="#mbf58ea5056" y="152.539521"/>
     <use style="fill:#0000ff;stroke:#0000ff;" x="495.970466" xlink:href="#mbf58ea5056" y="127.612479"/>
     <use style="fill:#0000ff;stroke:#0000ff;" x="549.846299" xlink:href="#mbf58ea5056" y="118.078831"/>
     <use style="fill:#0000ff;stroke:#0000ff;" x="551.070946" xlink:href="#mbf58ea5056" y="101.904885"/>
     <use style="fill:#0000ff;stroke:#0000ff;" x="574.677706" xlink:href="#mbf58ea5056" y="105.467773"/>
     <use style="fill:#0000ff;stroke:#0000ff;" x="607.427921" xlink:href="#mbf58ea5056" y="43.387273"/>
    </g>
   </g>
   <g id="PathCollection_2">
    <defs>
     <path d="M 0 3 
C 0.795609 3 1.55874 2.683901 2.12132 2.12132 
C 2.683901 1.55874 3 0.795609 3 0 
C 3 -0.795609 2.683901 -1.55874 2.12132 -2.12132 
C 1.55874 -2.683901 0.795609 -3 0 -3 
C -0.795609 -3 -1.55874 -2.683901 -2.12132 -2.12132 
C -2.683901 -1.55874 -3 -0.795609 -3 0 
C -3 0.795609 -2.683901 1.55874 -2.12132 2.12132 
C -1.55874 2.683901 -0.795609 3 0 3 
z
" id="me9e7e490eb" style="stroke:#ff0000;"/>
    </defs>
    <g clip-path="url(#pe146278997)">
     <use style="fill:#ff0000;stroke:#ff0000;" x="190.34138" xlink:href="#me9e7e490eb" y="330.891617"/>
     <use style="fill:#ff0000;stroke:#ff0000;" x="192.915368" xlink:href="#me9e7e490eb" y="349.895989"/>
     <use style="fill:#ff0000;stroke:#ff0000;" x="235.452398" xlink:href="#me9e7e490eb" y="304.176723"/>
     <use style="fill:#ff0000;stroke:#ff0000;" x="225.715385" xlink:href="#me9e7e490eb" y="284.477539"/>
     <use style="fill:#ff0000;stroke:#ff0000;" x="214.587095" xlink:href="#me9e7e490eb" y="318.970094"/>
     <use style="fill:#ff0000;stroke:#ff0000;" x="233.459416" xlink:href="#me9e7e490eb" y="272.885328"/>
     <use style="fill:#ff0000;stroke:#ff0000;" x="268.842808" xlink:href="#me9e7e490eb" y="280.580206"/>
     <use style="fill:#ff0000;stroke:#ff0000;" x="304.227542" xlink:href="#me9e7e490eb" y="243.871524"/>
     <use style="fill:#ff0000;stroke:#ff0000;" x="317.163931" xlink:href="#me9e7e490eb" y="193.220959"/>
     <use style="fill:#ff0000;stroke:#ff0000;" x="323.946619" xlink:href="#me9e7e490eb" y="238.17066"/>
     <use style="fill:#ff0000;stroke:#ff0000;" x="391.668202" xlink:href="#me9e7e490eb" y="205.593397"/>
     <use style="fill:#ff0000;stroke:#ff0000;" x="404.477137" xlink:href="#me9e7e490eb" y="198.962253"/>
     <use style="fill:#ff0000;stroke:#ff0000;" x="409.767726" xlink:href="#me9e7e490eb" y="179.034635"/>
     <use style="fill:#ff0000;stroke:#ff0000;" x="412.49534" xlink:href="#me9e7e490eb" y="171.075732"/>
     <use style="fill:#ff0000;stroke:#ff0000;" x="451.245484" xlink:href="#me9e7e490eb" y="151.368131"/>
     <use style="fill:#ff0000;stroke:#ff0000;" x="489.634049" xlink:href="#me9e7e490eb" y="148.972062"/>
     <use style="fill:#ff0000;stroke:#ff0000;" x="518.940064" xlink:href="#me9e7e490eb" y="110.127005"/>
     <use style="fill:#ff0000;stroke:#ff0000;" x="535.984593" xlink:href="#me9e7e490eb" y="117.126049"/>
     <use style="fill:#ff0000;stroke:#ff0000;" x="544.856175" xlink:href="#me9e7e490eb" y="52.251411"/>
     <use style="fill:#ff0000;stroke:#ff0000;" x="585.54037" xlink:href="#me9e7e490eb" y="66.140129"/>
     <use style="fill:#ff0000;stroke:#ff0000;" x="576.850967" xlink:href="#me9e7e490eb" y="58.521141"/>
    </g>
   </g>
   <g id="patch_3">
    <path clip-path="url(#pe146278997)" d="M 167.896681 373.532727 
C 172.660158 373.532727 177.229176 371.640178 180.597463 368.271891 
C 183.965749 364.903605 185.858299 360.334586 185.858299 355.57111 
C 185.858299 350.807633 183.965749 346.238615 180.597463 342.870328 
C 177.229176 339.502041 172.660158 337.609492 167.896681 337.609492 
C 163.133204 337.609492 158.564186 339.502041 155.195899 342.870328 
C 151.827613 346.238615 149.935063 350.807633 149.935063 355.57111 
C 149.935063 360.334586 151.827613 364.903605 155.195899 368.271891 
C 158.564186 371.640178 163.133204 373.532727 167.896681 373.532727 
z
" style="fill:#ff0000;opacity:0.2;stroke:#ff0000;stroke-linejoin:miter;"/>
   </g>
   <g id="patch_4">
    <path clip-path="url(#pe146278997)" d="M 171.146323 362.980904 
C 175.432346 362.980904 179.543402 361.278049 182.574078 358.247373 
C 185.604754 355.216697 187.307609 351.105641 187.307609 346.819618 
C 187.307609 342.533595 185.604754 338.422539 182.574078 335.391863 
C 179.543402 332.361187 175.432346 330.658332 171.146323 330.658332 
C 166.8603 330.658332 162.749244 332.361187 159.718568 335.391863 
C 156.687892 338.422539 154.985037 342.533595 154.985037 346.819618 
C 154.985037 351.105641 156.687892 355.216697 159.718568 358.247373 
C 162.749244 361.278049 166.8603 362.980904 171.146323 362.980904 
z
" style="fill:#ff0000;opacity:0.2;stroke:#ff0000;stroke-linejoin:miter;"/>
   </g>
   <g id="patch_5">
    <path clip-path="url(#pe146278997)" d="M 193.332071 345.645159 
C 197.692834 345.645159 201.875578 343.912609 204.959103 340.829084 
C 208.042628 337.745559 209.775177 333.562815 209.775177 329.202052 
C 209.775177 324.841289 208.042628 320.658545 204.959103 317.57502 
C 201.875578 314.491495 197.692834 312.758946 193.332071 312.758946 
C 188.971308 312.758946 184.788564 314.491495 181.705039 317.57502 
C 178.621514 320.658545 176.888965 324.841289 176.888965 329.202052 
C 176.888965 333.562815 178.621514 337.745559 181.705039 340.829084 
C 184.788564 343.912609 188.971308 345.645159 193.332071 345.645159 
z
" style="fill:#ff0000;opacity:0.2;stroke:#ff0000;stroke-linejoin:miter;"/>
   </g>
   <g id="patch_6">
    <path clip-path="url(#pe146278997)" d="M 230.056678 329.702849 
C 234.609242 329.702849 238.975959 327.894096 242.195108 324.674947 
C 245.414257 321.455798 247.223011 317.089081 247.223011 312.536517 
C 247.223011 307.983952 245.414257 303.617236 242.195108 300.398086 
C 238.975959 297.178937 234.609242 295.370184 230.056678 295.370184 
C 225.504113 295.370184 221.137397 297.178937 217.918247 300.398086 
C 214.699098 303.617236 212.890345 307.983952 212.890345 312.536517 
C 212.890345 317.089081 214.699098 321.455798 217.918247 324.674947 
C 221.137397 327.894096 225.504113 329.702849 230.056678 329.702849 
z
" style="fill:#ff0000;opacity:0.2;stroke:#ff0000;stroke-linejoin:miter;"/>
   </g>
   <g id="patch_7">
    <path clip-path="url(#pe146278997)" d="M 245.995924 298.429684 
C 250.658254 298.429684 255.130255 296.577321 258.427021 293.280556 
C 261.723786 289.98379 263.576149 285.511789 263.576149 280.849459 
C 263.576149 276.187129 261.723786 271.715128 258.427021 268.418363 
C 255.130255 265.121598 250.658254 263.269234 245.995924 263.269234 
C 241.333594 263.269234 236.861593 265.121598 233.564828 268.418363 
C 230.268063 271.715128 228.415699 276.187129 228.415699 280.849459 
C 228.415699 285.511789 230.268063 289.98379 233.564828 293.280556 
C 236.861593 296.577321 241.333594 298.429684 245.995924 298.429684 
z
" style="fill:#ff0000;opacity:0.2;stroke:#ff0000;stroke-linejoin:miter;"/>
   </g>
   <g id="patch_8">
    <path clip-path="url(#pe146278997)" d="M 269.317738 298.485342 
C 273.987965 298.485342 278.46754 296.629841 281.769889 293.327492 
C 285.072238 290.025143 286.927738 285.545568 286.927738 280.875342 
C 286.927738 276.205115 285.072238 271.72554 281.769889 268.423191 
C 278.46754 265.120842 273.987965 263.265341 269.317738 263.265341 
C 264.647511 263.265341 260.167936 265.120842 256.865588 268.423191 
C 253.563239 271.72554 251.707738 276.205115 251.707738 280.875342 
C 251.707738 285.545568 253.563239 290.025143 256.865588 293.327492 
C 260.167936 296.629841 264.647511 298.485342 269.317738 298.485342 
z
" style="fill:#ff0000;opacity:0.2;stroke:#ff0000;stroke-linejoin:miter;"/>
   </g>
   <g id="patch_9">
    <path clip-path="url(#pe146278997)" d="M 283.766209 281.948391 
C 288.378698 281.948391 292.802892 280.115829 296.064415 276.854307 
C 299.325937 273.592785 301.158499 269.16859 301.158499 264.556101 
C 301.158499 259.943612 299.325937 255.519417 296.064415 252.257895 
C 292.802892 248.996372 288.378698 247.163811 283.766209 247.163811 
C 279.153719 247.163811 274.729525 248.996372 271.468002 252.257895 
C 268.20648 255.519417 266.373918 259.943612 266.373918 264.556101 
C 266.373918 269.16859 268.20648 273.592785 271.468002 276.854307 
C 274.729525 280.115829 279.153719 281.948391 283.766209 281.948391 
z
" style="fill:#ff0000;opacity:0.2;stroke:#ff0000;stroke-linejoin:miter;"/>
   </g>
   <g id="patch_10">
    <path clip-path="url(#pe146278997)" d="M 288.963061 277.625032 
C 293.487274 277.625032 297.826796 275.827543 301.025898 272.628441 
C 304.225 269.42934 306.022489 265.089817 306.022489 260.565604 
C 306.022489 256.041391 304.225 251.701869 301.025898 248.502767 
C 297.826796 245.303665 293.487274 243.506176 288.963061 243.506176 
C 284.438847 243.506176 280.099325 245.303665 276.900223 248.502767 
C 273.701121 251.701869 271.903632 256.041391 271.903632 260.565604 
C 271.903632 265.089817 273.701121 269.42934 276.900223 272.628441 
C 280.099325 275.827543 284.438847 277.625032 288.963061 277.625032 
z
" style="fill:#ff0000;opacity:0.2;stroke:#ff0000;stroke-linejoin:miter;"/>
   </g>
   <g id="patch_11">
    <path clip-path="url(#pe146278997)" d="M 322.107237 259.880321 
C 326.535332 259.880321 330.782659 258.12102 333.913795 254.989884 
C 337.044931 251.858749 338.804232 247.611421 338.804232 243.183326 
C 338.804232 238.755231 337.044931 234.507904 333.913795 231.376768 
C 330.782659 228.245632 326.535332 226.486331 322.107237 226.486331 
C 317.679142 226.486331 313.431814 228.245632 310.300679 231.376768 
C 307.169543 234.507904 305.410242 238.755231 305.410242 243.183326 
C 305.410242 247.611421 307.169543 251.858749 310.300679 254.989884 
C 313.431814 258.12102 317.679142 259.880321 322.107237 259.880321 
z
" style="fill:#ff0000;opacity:0.2;stroke:#ff0000;stroke-linejoin:miter;"/>
   </g>
   <g id="patch_12">
    <path clip-path="url(#pe146278997)" d="M 349.640885 227.28413 
C 353.977668 227.28413 358.137411 225.561108 361.203979 222.49454 
C 364.270547 219.427971 365.993569 215.268228 365.993569 210.931446 
C 365.993569 206.594663 364.270547 202.43492 361.203979 199.368352 
C 358.137411 196.301784 353.977668 194.578762 349.640885 194.578762 
C 345.304103 194.578762 341.14436 196.301784 338.077792 199.368352 
C 335.011223 202.43492 333.288201 206.594663 333.288201 210.931446 
C 333.288201 215.268228 335.011223 219.427971 338.077792 222.49454 
C 341.14436 225.561108 345.304103 227.28413 349.640885 227.28413 
z
" style="fill:#ff0000;opacity:0.2;stroke:#ff0000;stroke-linejoin:miter;"/>
   </g>
   <g id="patch_13">
    <path clip-path="url(#pe146278997)" d="M 366.035558 214.472852 
C 370.292136 214.472852 374.374948 212.781696 377.384803 209.771841 
C 380.394658 206.761986 382.085814 202.679174 382.085814 198.422597 
C 382.085814 194.166019 380.394658 190.083207 377.384803 187.073352 
C 374.374948 184.063497 370.292136 182.372341 366.035558 182.372341 
C 361.778981 182.372341 357.696169 184.063497 354.686314 187.073352 
C 351.676459 190.083207 349.985303 194.166019 349.985303 198.422597 
C 349.985303 202.679174 351.676459 206.761986 354.686314 209.771841 
C 357.696169 212.781696 361.778981 214.472852 366.035558 214.472852 
z
" style="fill:#ff0000;opacity:0.2;stroke:#ff0000;stroke-linejoin:miter;"/>
   </g>
   <g id="patch_14">
    <path clip-path="url(#pe146278997)" d="M 399.183171 172.28675 
C 403.373178 172.28675 407.392137 170.622043 410.354919 167.659261 
C 413.317702 164.696478 414.982409 160.677519 414.982409 156.487513 
C 414.982409 152.297506 413.317702 148.278547 410.354919 145.315764 
C 407.392137 142.352982 403.373178 140.688275 399.183171 140.688275 
C 394.993165 140.688275 390.974205 142.352982 388.011423 145.315764 
C 385.048641 148.278547 383.383934 152.297506 383.383934 156.487513 
C 383.383934 160.677519 385.048641 164.696478 388.011423 167.659261 
C 390.974205 170.622043 394.993165 172.28675 399.183171 172.28675 
z
" style="fill:#ff0000;opacity:0.2;stroke:#ff0000;stroke-linejoin:miter;"/>
   </g>
   <g id="patch_15">
    <path clip-path="url(#pe146278997)" d="M 411.198396 170.606028 
C 415.335754 170.606028 419.304213 168.962239 422.229767 166.036685 
C 425.15532 163.111131 426.79911 159.142672 426.79911 155.005315 
C 426.79911 150.867957 425.15532 146.899498 422.229767 143.973945 
C 419.304213 141.048391 415.335754 139.404602 411.198396 139.404602 
C 407.061039 139.404602 403.09258 141.048391 400.167026 143.973945 
C 397.241473 146.899498 395.597683 150.867957 395.597683 155.005315 
C 395.597683 159.142672 397.241473 163.111131 400.167026 166.036685 
C 403.09258 168.962239 407.061039 170.606028 411.198396 170.606028 
z
" style="fill:#ff0000;opacity:0.2;stroke:#ff0000;stroke-linejoin:miter;"/>
   </g>
   <g id="patch_16">
    <path clip-path="url(#pe146278997)" d="M 413.930949 149.940057 
C 418.028544 149.940057 421.958864 148.312065 424.856302 145.414627 
C 427.753739 142.51719 429.381731 138.58687 429.381731 134.489275 
C 429.381731 130.39168 427.753739 126.46136 424.856302 123.563922 
C 421.958864 120.666485 418.028544 119.038493 413.930949 119.038493 
C 409.833354 119.038493 405.903034 120.666485 403.005597 123.563922 
C 400.108159 126.46136 398.480167 130.39168 398.480167 134.489275 
C 398.480167 138.58687 400.108159 142.51719 403.005597 145.414627 
C 405.903034 148.312065 409.833354 149.940057 413.930949 149.940057 
z
" style="fill:#ff0000;opacity:0.2;stroke:#ff0000;stroke-linejoin:miter;"/>
   </g>
   <g id="patch_17">
    <path clip-path="url(#pe146278997)" d="M 443.484171 145.845582 
C 447.553125 145.845582 451.455973 144.228969 454.333158 141.351784 
C 457.210343 138.474599 458.826956 134.571751 458.826956 130.502797 
C 458.826956 126.433843 457.210343 122.530995 454.333158 119.65381 
C 451.455973 116.776625 447.553125 115.160012 443.484171 115.160012 
C 439.415217 115.160012 435.512369 116.776625 432.635184 119.65381 
C 429.757999 122.530995 428.141386 126.433843 428.141386 130.502797 
C 428.141386 134.571751 429.757999 138.474599 432.635184 141.351784 
C 435.512369 144.228969 439.415217 145.845582 443.484171 145.845582 
z
" style="fill:#ff0000;opacity:0.2;stroke:#ff0000;stroke-linejoin:miter;"/>
   </g>
   <g id="patch_18">
    <path clip-path="url(#pe146278997)" d="M 456.724456 140.752765 
C 460.773808 140.752765 464.657854 139.143941 467.521177 136.280617 
C 470.384501 133.417293 471.993326 129.533247 471.993326 125.483896 
C 471.993326 121.434544 470.384501 117.550499 467.521177 114.687175 
C 464.657854 111.823851 460.773808 110.215027 456.724456 110.215027 
C 452.675105 110.215027 448.791059 111.823851 445.927735 114.687175 
C 443.064412 117.550499 441.455587 121.434544 441.455587 125.483896 
C 441.455587 129.533247 443.064412 133.417293 445.927735 136.280617 
C 448.791059 139.143941 452.675105 140.752765 456.724456 140.752765 
z
" style="fill:#ff0000;opacity:0.2;stroke:#ff0000;stroke-linejoin:miter;"/>
   </g>
   <g id="patch_19">
    <path clip-path="url(#pe146278997)" d="M 481.155373 131.258692 
C 485.192061 131.258692 489.06396 129.654899 491.918329 126.80053 
C 494.772698 123.946161 496.376491 120.074262 496.376491 116.037574 
C 496.376491 112.000886 494.772698 108.128988 491.918329 105.274618 
C 489.06396 102.420249 485.192061 100.816456 481.155373 100.816456 
C 477.118685 100.816456 473.246786 102.420249 470.392417 105.274618 
C 467.538048 108.128988 465.934255 112.000886 465.934255 116.037574 
C 465.934255 120.074262 467.538048 123.946161 470.392417 126.80053 
C 473.246786 129.654899 477.118685 131.258692 481.155373 131.258692 
z
" style="fill:#ff0000;opacity:0.2;stroke:#ff0000;stroke-linejoin:miter;"/>
   </g>
   <g id="patch_20">
    <path clip-path="url(#pe146278997)" d="M 514.480021 122.267581 
C 518.509072 122.267581 522.373646 120.666823 525.222615 117.817854 
C 528.071584 114.968885 529.672342 111.104311 529.672342 107.07526 
C 529.672342 103.04621 528.071584 99.181636 525.222615 96.332667 
C 522.373646 93.483698 518.509072 91.882939 514.480021 91.882939 
C 510.450971 91.882939 506.586397 93.483698 503.737428 96.332667 
C 500.888459 99.181636 499.2877 103.04621 499.2877 107.07526 
C 499.2877 111.104311 500.888459 114.968885 503.737428 117.817854 
C 506.586397 120.666823 510.450971 122.267581 514.480021 122.267581 
z
" style="fill:#ff0000;opacity:0.2;stroke:#ff0000;stroke-linejoin:miter;"/>
   </g>
   <g id="patch_21">
    <path clip-path="url(#pe146278997)" d="M 540.411924 111.76467 
C 544.436759 111.76467 548.297289 110.165586 551.143277 107.319598 
C 553.989265 104.47361 555.588349 100.61308 555.588349 96.588245 
C 555.588349 92.56341 553.989265 88.70288 551.143277 85.856892 
C 548.297289 83.010904 544.436759 81.41182 540.411924 81.41182 
C 536.387089 81.41182 532.526559 83.010904 529.680571 85.856892 
C 526.834583 88.70288 525.235499 92.56341 525.235499 96.588245 
C 525.235499 100.61308 526.834583 104.47361 529.680571 107.319598 
C 532.526559 110.165586 536.387089 111.76467 540.411924 111.76467 
z
" style="fill:#ff0000;opacity:0.2;stroke:#ff0000;stroke-linejoin:miter;"/>
   </g>
   <g id="patch_22">
    <path clip-path="url(#pe146278997)" d="M 566.173958 105.429841 
C 570.196745 105.429841 574.055311 103.831571 576.899852 100.98703 
C 579.744392 98.14249 581.342662 94.283924 581.342662 90.261136 
C 581.342662 86.238349 579.744392 82.379783 576.899852 79.535242 
C 574.055311 76.690702 570.196745 75.092432 566.173958 75.092432 
C 562.15117 75.092432 558.292604 76.690702 555.448064 79.535242 
C 552.603523 82.379783 551.005253 86.238349 551.005253 90.261136 
C 551.005253 94.283924 552.603523 98.14249 555.448064 100.98703 
C 558.292604 103.831571 562.15117 105.429841 566.173958 105.429841 
z
" style="fill:#ff0000;opacity:0.2;stroke:#ff0000;stroke-linejoin:miter;"/>
   </g>
   <g id="patch_23">
    <path clip-path="url(#pe146278997)" d="M 594.269871 84.233926 
C 598.291868 84.233926 602.149676 82.635969 604.993657 79.791988 
C 607.837639 76.948007 609.435595 73.090199 609.435595 69.068202 
C 609.435595 65.046205 607.837639 61.188397 604.993657 58.344416 
C 602.149676 55.500435 598.291868 53.902478 594.269871 53.902478 
C 590.247874 53.902478 586.390066 55.500435 583.546085 58.344416 
C 580.702104 61.188397 579.104148 65.046205 579.104148 69.068202 
C 579.104148 73.090199 580.702104 76.948007 583.546085 79.791988 
C 586.390066 82.635969 590.247874 84.233926 594.269871 84.233926 
z
" style="fill:#ff0000;opacity:0.2;stroke:#ff0000;stroke-linejoin:miter;"/>
   </g>
   <g id="patch_24">
    <path clip-path="url(#pe146278997)" d="M 177.130069 355.997578 
C 180.049533 355.997578 182.849816 354.837663 184.914188 352.77329 
C 186.978561 350.708918 188.138476 347.908634 188.138476 344.989171 
C 188.138476 342.069707 186.978561 339.269424 184.914188 337.205051 
C 182.849816 335.140678 180.049533 333.980763 177.130069 333.980763 
C 174.210605 333.980763 171.410322 335.140678 169.345949 337.205051 
C 167.281576 339.269424 166.121661 342.069707 166.121661 344.989171 
C 166.121661 347.908634 167.281576 350.708918 169.345949 352.77329 
C 171.410322 354.837663 174.210605 355.997578 177.130069 355.997578 
z
" style="fill:#008000;opacity:0.5;stroke:#008000;stroke-linejoin:miter;"/>
   </g>
   <g id="patch_25">
    <path clip-path="url(#pe146278997)" d="M 187.421036 348.528197 
C 189.938361 348.528197 192.352923 347.528053 194.132941 345.748034 
C 195.912959 343.968016 196.913103 341.553455 196.913103 339.036129 
C 196.913103 336.518804 195.912959 334.104242 194.132941 332.324224 
C 192.352923 330.544206 189.938361 329.544062 187.421036 329.544062 
C 184.90371 329.544062 182.489149 330.544206 180.709131 332.324224 
C 178.929113 334.104242 177.928968 336.518804 177.928968 339.036129 
C 177.928968 341.553455 178.929113 343.968016 180.709131 345.748034 
C 182.489149 347.528053 184.90371 348.528197 187.421036 348.528197 
z
" style="fill:#008000;opacity:0.5;stroke:#008000;stroke-linejoin:miter;"/>
   </g>
   <g id="patch_26">
    <path clip-path="url(#pe146278997)" d="M 212.837387 328.412663 
C 215.372383 328.412663 217.803894 327.405498 219.596408 325.612985 
C 221.388921 323.820472 222.396086 321.388961 222.396086 318.853964 
C 222.396086 316.318967 221.388921 313.887456 219.596408 312.094943 
C 217.803894 310.302429 215.372383 309.295264 212.837387 309.295264 
C 210.30239 309.295264 207.870879 310.302429 206.078365 312.094943 
C 204.285852 313.887456 203.278687 316.318967 203.278687 318.853964 
C 203.278687 321.388961 204.285852 323.820472 206.078365 325.612985 
C 207.870879 327.405498 210.30239 328.412663 212.837387 328.412663 
z
" style="fill:#008000;opacity:0.5;stroke:#008000;stroke-linejoin:miter;"/>
   </g>
   <g id="patch_27">
    <path clip-path="url(#pe146278997)" d="M 233.343209 308.018538 
C 235.952071 308.018538 238.454433 306.982025 240.299177 305.137281 
C 242.143921 303.292537 243.180433 300.790175 243.180433 298.181313 
C 243.180433 295.57245 242.143921 293.070089 240.299177 291.225344 
C 238.454433 289.3806 235.952071 288.344088 233.343209 288.344088 
C 230.734346 288.344088 228.231985 289.3806 226.38724 291.225344 
C 224.542496 293.070089 223.505984 295.57245 223.505984 298.181313 
C 223.505984 300.790175 224.542496 303.292537 226.38724 305.137281 
C 228.231985 306.982025 230.734346 308.018538 233.343209 308.018538 
z
" style="fill:#008000;opacity:0.5;stroke:#008000;stroke-linejoin:miter;"/>
   </g>
   <g id="patch_28">
    <path clip-path="url(#pe146278997)" d="M 238.167599 299.91908 
C 240.790584 299.91908 243.306492 298.876957 245.161223 297.022226 
C 247.015954 295.167495 248.058077 292.651588 248.058077 290.028602 
C 248.058077 287.405617 247.015954 284.889709 245.161223 283.034978 
C 243.306492 281.180247 240.790584 280.138124 238.167599 280.138124 
C 235.544614 280.138124 233.028706 281.180247 231.173975 283.034978 
C 229.319244 284.889709 228.277121 287.405617 228.277121 290.028602 
C 228.277121 292.651588 229.319244 295.167495 231.173975 297.022226 
C 233.028706 298.876957 235.544614 299.91908 238.167599 299.91908 
z
" style="fill:#008000;opacity:0.5;stroke:#008000;stroke-linejoin:miter;"/>
   </g>
   <g id="patch_29">
    <path clip-path="url(#pe146278997)" d="M 249.389787 288.789174 
C 251.976142 288.789174 254.456916 287.761604 256.285745 285.932775 
C 258.114574 284.103945 259.142144 281.623172 259.142144 279.036817 
C 259.142144 276.450461 258.114574 273.969688 256.285745 272.140859 
C 254.456916 270.312029 251.976142 269.28446 249.389787 269.28446 
C 246.803432 269.28446 244.322659 270.312029 242.493829 272.140859 
C 240.665 273.969688 239.63743 276.450461 239.63743 279.036817 
C 239.63743 281.623172 240.665 284.103945 242.493829 285.932775 
C 244.322659 287.761604 246.803432 288.789174 249.389787 288.789174 
z
" style="fill:#008000;opacity:0.5;stroke:#008000;stroke-linejoin:miter;"/>
   </g>
   <g id="patch_30">
    <path clip-path="url(#pe146278997)" d="M 266.023086 279.061408 
C 268.549805 279.061408 270.973376 278.057532 272.760036 276.270872 
C 274.546696 274.484212 275.550572 272.060641 275.550572 269.533922 
C 275.550572 267.007203 274.546696 264.583632 272.760036 262.796972 
C 270.973376 261.010312 268.549805 260.006436 266.023086 260.006436 
C 263.496367 260.006436 261.072796 261.010312 259.286136 262.796972 
C 257.499477 264.583632 256.495601 267.007203 256.495601 269.533922 
C 256.495601 272.060641 257.499477 274.484212 259.286136 276.270872 
C 261.072796 278.057532 263.496367 279.061408 266.023086 279.061408 
z
" style="fill:#008000;opacity:0.5;stroke:#008000;stroke-linejoin:miter;"/>
   </g>
   <g id="patch_31">
    <path clip-path="url(#pe146278997)" d="M 285.441991 264.976261 
C 287.904773 264.976261 290.267017 263.997788 292.008467 262.256338 
C 293.749916 260.514888 294.72839 258.152644 294.72839 255.689863 
C 294.72839 253.227081 293.749916 250.864837 292.008467 249.123387 
C 290.267017 247.381937 287.904773 246.403464 285.441991 246.403464 
C 282.979209 246.403464 280.616965 247.381937 278.875515 249.123387 
C 277.134066 250.864837 276.155592 253.227081 276.155592 255.689863 
C 276.155592 258.152644 277.134066 260.514888 278.875515 262.256338 
C 280.616965 263.997788 282.979209 264.976261 285.441991 264.976261 
z
" style="fill:#008000;opacity:0.5;stroke:#008000;stroke-linejoin:miter;"/>
   </g>
   <g id="patch_32">
    <path clip-path="url(#pe146278997)" d="M 310.735851 237.678719 
C 313.140046 237.678719 315.446095 236.723522 317.146117 235.0235 
C 318.84614 233.323477 319.801336 231.017429 319.801336 228.613234 
C 319.801336 226.209039 318.84614 223.90299 317.146117 222.202968 
C 315.446095 220.502945 313.140046 219.547749 310.735851 219.547749 
C 308.331657 219.547749 306.025608 220.502945 304.325585 222.202968 
C 302.625563 223.90299 301.670366 226.209039 301.670366 228.613234 
C 301.670366 231.017429 302.625563 233.323477 304.325585 235.0235 
C 306.025608 236.723522 308.331657 237.678719 310.735851 237.678719 
z
" style="fill:#008000;opacity:0.5;stroke:#008000;stroke-linejoin:miter;"/>
   </g>
   <g id="patch_33">
    <path clip-path="url(#pe146278997)" d="M 330.852439 224.361912 
C 333.207545 224.361912 335.46651 223.426218 337.131822 221.760906 
C 338.797133 220.095594 339.732827 217.836629 339.732827 215.481523 
C 339.732827 213.126416 338.797133 210.867452 337.131822 209.20214 
C 335.46651 207.536828 333.207545 206.601134 330.852439 206.601134 
C 328.497332 206.601134 326.238367 207.536828 324.573056 209.20214 
C 322.907744 210.867452 321.97205 213.126416 321.97205 215.481523 
C 321.97205 217.836629 322.907744 220.095594 324.573056 221.760906 
C 326.238367 223.426218 328.497332 224.361912 330.852439 224.361912 
z
" style="fill:#008000;opacity:0.5;stroke:#008000;stroke-linejoin:miter;"/>
   </g>
   <g id="patch_34">
    <path clip-path="url(#pe146278997)" d="M 360.303826 211.011794 
C 362.620439 211.011794 364.842482 210.091393 366.480575 208.4533 
C 368.118668 206.815207 369.039068 204.593165 369.039068 202.276551 
C 369.039068 199.959938 368.118668 197.737895 366.480575 196.099802 
C 364.842482 194.461709 362.620439 193.541309 360.303826 193.541309 
C 357.987212 193.541309 355.765169 194.461709 354.127076 196.099802 
C 352.488983 197.737895 351.568583 199.959938 351.568583 202.276551 
C 351.568583 204.593165 352.488983 206.815207 354.127076 208.4533 
C 355.765169 210.091393 357.987212 211.011794 360.303826 211.011794 
z
" style="fill:#008000;opacity:0.5;stroke:#008000;stroke-linejoin:miter;"/>
   </g>
   <g id="patch_35">
    <path clip-path="url(#pe146278997)" d="M 390.828178 190.662824 
C 393.116314 190.662824 395.311041 189.753739 396.928997 188.135783 
C 398.546953 186.517827 399.456039 184.323099 399.456039 182.034964 
C 399.456039 179.746829 398.546953 177.552101 396.928997 175.934145 
C 395.311041 174.316189 393.116314 173.407104 390.828178 173.407104 
C 388.540043 173.407104 386.345316 174.316189 384.72736 175.934145 
C 383.109404 177.552101 382.200318 179.746829 382.200318 182.034964 
C 382.200318 184.323099 383.109404 186.517827 384.72736 188.135783 
C 386.345316 189.753739 388.540043 190.662824 390.828178 190.662824 
z
" style="fill:#008000;opacity:0.5;stroke:#008000;stroke-linejoin:miter;"/>
   </g>
   <g id="patch_36">
    <path clip-path="url(#pe146278997)" d="M 409.984669 180.694853 
C 412.25289 180.694853 414.428517 179.793679 416.032392 178.189804 
C 417.636267 176.585929 418.537442 174.410302 418.537442 172.14208 
C 418.537442 169.873858 417.636267 167.698232 416.032392 166.094357 
C 414.428517 164.490481 412.25289 163.589307 409.984669 163.589307 
C 407.716447 163.589307 405.54082 164.490481 403.936945 166.094357 
C 402.33307 167.698232 401.431896 169.873858 401.431896 172.14208 
C 401.431896 174.410302 402.33307 176.585929 403.936945 178.189804 
C 405.54082 179.793679 407.716447 180.694853 409.984669 180.694853 
z
" style="fill:#008000;opacity:0.5;stroke:#008000;stroke-linejoin:miter;"/>
   </g>
   <g id="patch_37">
    <path clip-path="url(#pe146278997)" d="M 421.73739 166.289064 
C 423.992467 166.289064 426.155486 165.393112 427.750066 163.798532 
C 429.344646 162.203952 430.240598 160.040933 430.240598 157.785856 
C 430.240598 155.530779 429.344646 153.36776 427.750066 151.77318 
C 426.155486 150.1786 423.992467 149.282648 421.73739 149.282648 
C 419.482313 149.282648 417.319294 150.1786 415.724714 151.77318 
C 414.130133 153.36776 413.234182 155.530779 413.234182 157.785856 
C 413.234182 160.040933 414.130133 162.203952 415.724714 163.798532 
C 417.319294 165.393112 419.482313 166.289064 421.73739 166.289064 
z
" style="fill:#008000;opacity:0.5;stroke:#008000;stroke-linejoin:miter;"/>
   </g>
   <g id="patch_38">
    <path clip-path="url(#pe146278997)" d="M 446.50676 155.263088 
C 448.753675 155.263088 450.908864 154.370379 452.497673 152.781571 
C 454.086482 151.192762 454.97919 149.037573 454.97919 146.790658 
C 454.97919 144.543743 454.086482 142.388554 452.497673 140.799745 
C 450.908864 139.210937 448.753675 138.318228 446.50676 138.318228 
C 444.259846 138.318228 442.104656 139.210937 440.515848 140.799745 
C 438.927039 142.388554 438.03433 144.543743 438.03433 146.790658 
C 438.03433 149.037573 438.927039 151.192762 440.515848 152.781571 
C 442.104656 154.370379 444.259846 155.263088 446.50676 155.263088 
z
" style="fill:#008000;opacity:0.5;stroke:#008000;stroke-linejoin:miter;"/>
   </g>
   <g id="patch_39">
    <path clip-path="url(#pe146278997)" d="M 470.090408 146.551455 
C 472.332585 146.551455 474.48323 145.660629 476.068689 144.07517 
C 477.654147 142.489712 478.544973 140.339067 478.544973 138.09689 
C 478.544973 135.854713 477.654147 133.704068 476.068689 132.11861 
C 474.48323 130.533151 472.332585 129.642325 470.090408 129.642325 
C 467.848231 129.642325 465.697586 130.533151 464.112128 132.11861 
C 462.526669 133.704068 461.635843 135.854713 461.635843 138.09689 
C 461.635843 140.339067 462.526669 142.489712 464.112128 144.07517 
C 465.697586 145.660629 467.848231 146.551455 470.090408 146.551455 
z
" style="fill:#008000;opacity:0.5;stroke:#008000;stroke-linejoin:miter;"/>
   </g>
   <g id="patch_40">
    <path clip-path="url(#pe146278997)" d="M 498.1068 130.117539 
C 500.346435 130.117539 502.494642 129.227723 504.078303 127.644062 
C 505.661964 126.060401 506.55178 123.912195 506.55178 121.67256 
C 506.55178 119.432925 505.661964 117.284718 504.078303 115.701057 
C 502.494642 114.117396 500.346435 113.22758 498.1068 113.22758 
C 495.867165 113.22758 493.718959 114.117396 492.135298 115.701057 
C 490.551637 117.284718 489.661821 119.432925 489.661821 121.67256 
C 489.661821 123.912195 490.551637 126.060401 492.135298 127.644062 
C 493.718959 129.227723 495.867165 130.117539 498.1068 130.117539 
z
" style="fill:#008000;opacity:0.5;stroke:#008000;stroke-linejoin:miter;"/>
   </g>
   <g id="patch_41">
    <path clip-path="url(#pe146278997)" d="M 526.636134 119.319292 
C 528.874534 119.319292 531.021555 118.429967 532.604342 116.847179 
C 534.18713 115.264392 535.076455 113.117371 535.076455 110.878971 
C 535.076455 108.640572 534.18713 106.493551 532.604342 104.910763 
C 531.021555 103.327976 528.874534 102.438651 526.636134 102.438651 
C 524.397735 102.438651 522.250714 103.327976 520.667927 104.910763 
C 519.085139 106.493551 518.195814 108.640572 518.195814 110.878971 
C 518.195814 113.117371 519.085139 115.264392 520.667927 116.847179 
C 522.250714 118.429967 524.397735 119.319292 526.636134 119.319292 
z
" style="fill:#008000;opacity:0.5;stroke:#008000;stroke-linejoin:miter;"/>
   </g>
   <g id="patch_42">
    <path clip-path="url(#pe146278997)" d="M 548.991096 95.900857 
C 551.228972 95.900857 553.375492 95.011739 554.95791 93.429322 
C 556.540327 91.846904 557.429445 89.700384 557.429445 87.462508 
C 557.429445 85.224632 556.540327 83.078112 554.95791 81.495695 
C 553.375492 79.913277 551.228972 79.024159 548.991096 79.024159 
C 546.75322 79.024159 544.6067 79.913277 543.024282 81.495695 
C 541.441865 83.078112 540.552747 85.224632 540.552747 87.462508 
C 540.552747 89.700384 541.441865 91.846904 543.024282 93.429322 
C 544.6067 95.011739 546.75322 95.900857 548.991096 95.900857 
z
" style="fill:#008000;opacity:0.5;stroke:#008000;stroke-linejoin:miter;"/>
   </g>
   <g id="patch_43">
    <path clip-path="url(#pe146278997)" d="M 575.538539 82.193325 
C 577.776239 82.193325 579.92259 81.304278 581.504883 79.721985 
C 583.087176 78.139692 583.976223 75.993341 583.976223 73.755641 
C 583.976223 71.517941 583.087176 69.37159 581.504883 67.789297 
C 579.92259 66.207004 577.776239 65.317956 575.538539 65.317956 
C 573.300839 65.317956 571.154488 66.207004 569.572195 67.789297 
C 567.989902 69.37159 567.100854 71.517941 567.100854 73.755641 
C 567.100854 75.993341 567.989902 78.139692 569.572195 79.721985 
C 571.154488 81.304278 573.300839 82.193325 575.538539 82.193325 
z
" style="fill:#008000;opacity:0.5;stroke:#008000;stroke-linejoin:miter;"/>
   </g>
   <g id="patch_44">
    <path clip-path="url(#pe146278997)" d="M 594.847559 65.986893 
C 597.085224 65.986893 599.231541 65.097859 600.813808 63.515591 
C 602.396076 61.933323 603.28511 59.787006 603.28511 57.549342 
C 603.28511 55.311677 602.396076 53.16536 600.813808 51.583092 
C 599.231541 50.000824 597.085224 49.111791 594.847559 49.111791 
C 592.609894 49.111791 590.463577 50.000824 588.881309 51.583092 
C 587.299041 53.16536 586.410008 55.311677 586.410008 57.549342 
C 586.410008 59.787006 587.299041 61.933323 588.881309 63.515591 
C 590.463577 65.097859 592.609894 65.986893 594.847559 65.986893 
z
" style="fill:#008000;opacity:0.5;stroke:#008000;stroke-linejoin:miter;"/>
   </g>
   <g id="patch_45">
    <path clip-path="url(#pe146278997)" d="M 169.433475 352.004168 
C 169.433475 352.004168 169.433475 352.004168 169.433475 352.004168 
C 169.433475 352.004168 169.433475 352.004168 169.433475 352.004168 
C 169.433475 352.004168 169.433475 352.004168 169.433475 352.004168 
C 169.433475 352.004168 169.433475 352.004168 169.433475 352.004168 
C 169.433475 352.004168 169.433475 352.004168 169.433475 352.004168 
C 169.433475 352.004168 169.433475 352.004168 169.433475 352.004168 
C 169.433475 352.004168 169.433475 352.004168 169.433475 352.004168 
C 169.433475 352.004168 169.433475 352.004168 169.433475 352.004168 
z
" style="fill:#ff0000;opacity:0.2;stroke:#ff0000;stroke-linejoin:miter;"/>
   </g>
   <g id="patch_46">
    <path clip-path="url(#pe146278997)" d="M 169.433475 352.004168 
C 169.433475 352.004168 169.433475 352.004168 169.433475 352.004168 
C 169.433475 352.004168 169.433475 352.004168 169.433475 352.004168 
C 169.433475 352.004168 169.433475 352.004168 169.433475 352.004168 
C 169.433475 352.004168 169.433475 352.004168 169.433475 352.004168 
C 169.433475 352.004168 169.433475 352.004168 169.433475 352.004168 
C 169.433475 352.004168 169.433475 352.004168 169.433475 352.004168 
C 169.433475 352.004168 169.433475 352.004168 169.433475 352.004168 
C 169.433475 352.004168 169.433475 352.004168 169.433475 352.004168 
z
" style="fill:#0000ff;opacity:0.2;stroke:#0000ff;stroke-linejoin:miter;"/>
   </g>
   <g id="patch_47">
    <path clip-path="url(#pe146278997)" d="M 169.433475 352.004168 
C 169.433475 352.004168 169.433475 352.004168 169.433475 352.004168 
C 169.433475 352.004168 169.433475 352.004168 169.433475 352.004168 
C 169.433475 352.004168 169.433475 352.004168 169.433475 352.004168 
C 169.433475 352.004168 169.433475 352.004168 169.433475 352.004168 
C 169.433475 352.004168 169.433475 352.004168 169.433475 352.004168 
C 169.433475 352.004168 169.433475 352.004168 169.433475 352.004168 
C 169.433475 352.004168 169.433475 352.004168 169.433475 352.004168 
C 169.433475 352.004168 169.433475 352.004168 169.433475 352.004168 
z
" style="fill:#008000;opacity:0.5;stroke:#008000;stroke-linejoin:miter;"/>
   </g>
   <g id="patch_48">
    <path clip-path="url(#pe146278997)" d="M 182.684964 352.554633 
C 186.379683 352.554633 189.923574 351.086706 192.536135 348.474145 
C 195.148696 345.861584 196.616623 342.317693 196.616623 338.622974 
C 196.616623 334.928255 195.148696 331.384364 192.536135 328.771803 
C 189.923574 326.159242 186.379683 324.691315 182.684964 324.691315 
C 178.990245 324.691315 175.446354 326.159242 172.833793 328.771803 
C 170.221232 331.384364 168.753305 334.928255 168.753305 338.622974 
C 168.753305 342.317693 170.221232 345.861584 172.833793 348.474145 
C 175.446354 351.086706 178.990245 352.554633 182.684964 352.554633 
z
" style="fill:#0000ff;opacity:0.2;stroke:#0000ff;stroke-linejoin:miter;"/>
   </g>
   <g id="patch_49">
    <path clip-path="url(#pe146278997)" d="M 195.71394 347.118514 
C 198.838063 347.118514 201.834651 345.877287 204.04374 343.668198 
C 206.252828 341.459109 207.494056 338.462522 207.494056 335.338398 
C 207.494056 332.214275 206.252828 329.217687 204.04374 327.008598 
C 201.834651 324.79951 198.838063 323.558282 195.71394 323.558282 
C 192.589817 323.558282 189.593229 324.79951 187.38414 327.008598 
C 185.175051 329.217687 183.933824 332.214275 183.933824 335.338398 
C 183.933824 338.462522 185.175051 341.459109 187.38414 343.668198 
C 189.593229 345.877287 192.589817 347.118514 195.71394 347.118514 
z
" style="fill:#0000ff;opacity:0.2;stroke:#0000ff;stroke-linejoin:miter;"/>
   </g>
   <g id="patch_50">
    <path clip-path="url(#pe146278997)" d="M 221.965925 326.131235 
C 225.110912 326.131235 228.127512 324.881719 230.351354 322.657877 
C 232.575196 320.434035 233.824712 317.417435 233.824712 314.272448 
C 233.824712 311.127461 232.575196 308.110861 230.351354 305.887019 
C 228.127512 303.663178 225.110912 302.413661 221.965925 302.413661 
C 218.820938 302.413661 215.804338 303.663178 213.580496 305.887019 
C 211.356655 308.110861 210.107138 311.127461 210.107138 314.272448 
C 210.107138 317.417435 211.356655 320.434035 213.580496 322.657877 
C 215.804338 324.881719 218.820938 326.131235 221.965925 326.131235 
z
" style="fill:#0000ff;opacity:0.2;stroke:#0000ff;stroke-linejoin:miter;"/>
   </g>
   <g id="patch_51">
    <path clip-path="url(#pe146278997)" d="M 233.521489 304.078981 
C 236.730986 304.078981 239.809462 302.803835 242.078918 300.534378 
C 244.348375 298.264921 245.623522 295.186445 245.623522 291.976949 
C 245.623522 288.767452 244.348375 285.688976 242.078918 283.419519 
C 239.809462 281.150063 236.730986 279.874916 233.521489 279.874916 
C 230.311993 279.874916 227.233517 281.150063 224.96406 283.419519 
C 222.694603 285.688976 221.419457 288.767452 221.419457 291.976949 
C 221.419457 295.186445 222.694603 298.264921 224.96406 300.534378 
C 227.233517 302.803835 230.311993 304.078981 233.521489 304.078981 
z
" style="fill:#0000ff;opacity:0.2;stroke:#0000ff;stroke-linejoin:miter;"/>
   </g>
   <g id="patch_52">
    <path clip-path="url(#pe146278997)" d="M 233.188654 307.453369 
C 236.380052 307.453369 239.441169 306.185413 241.697829 303.928753 
C 243.954489 301.672094 245.222445 298.610977 245.222445 295.419578 
C 245.222445 292.228179 243.954489 289.167062 241.697829 286.910402 
C 239.441169 284.653743 236.380052 283.385787 233.188654 283.385787 
C 229.997255 283.385787 226.936138 284.653743 224.679478 286.910402 
C 222.422818 289.167062 221.154862 292.228179 221.154862 295.419578 
C 221.154862 298.610977 222.422818 301.672094 224.679478 303.928753 
C 226.936138 306.185413 229.997255 307.453369 233.188654 307.453369 
z
" style="fill:#0000ff;opacity:0.2;stroke:#0000ff;stroke-linejoin:miter;"/>
   </g>
   <g id="patch_53">
    <path clip-path="url(#pe146278997)" d="M 239.59572 290.697552 
C 242.71601 290.697552 245.708921 289.457848 247.915299 287.25147 
C 250.121677 285.045091 251.361381 282.05218 251.361381 278.93189 
C 251.361381 275.8116 250.121677 272.818689 247.915299 270.612311 
C 245.708921 268.405933 242.71601 267.166228 239.59572 267.166228 
C 236.47543 267.166228 233.482518 268.405933 231.27614 270.612311 
C 229.069762 272.818689 227.830058 275.8116 227.830058 278.93189 
C 227.830058 282.05218 229.069762 285.045091 231.27614 287.25147 
C 233.482518 289.457848 236.47543 290.697552 239.59572 290.697552 
z
" style="fill:#0000ff;opacity:0.2;stroke:#0000ff;stroke-linejoin:miter;"/>
   </g>
   <g id="patch_54">
    <path clip-path="url(#pe146278997)" d="M 257.900197 283.736606 
C 260.932772 283.736606 263.84155 282.531751 265.985904 280.387397 
C 268.130259 278.243042 269.335114 275.334265 269.335114 272.301689 
C 269.335114 269.269114 268.130259 266.360337 265.985904 264.215982 
C 263.84155 262.071628 260.932772 260.866773 257.900197 260.866773 
C 254.867622 260.866773 251.958845 262.071628 249.81449 264.215982 
C 247.670135 266.360337 246.46528 269.269114 246.46528 272.301689 
C 246.46528 275.334265 247.670135 278.243042 249.81449 280.387397 
C 251.958845 282.531751 254.867622 283.736606 257.900197 283.736606 
z
" style="fill:#0000ff;opacity:0.2;stroke:#0000ff;stroke-linejoin:miter;"/>
   </g>
   <g id="patch_55">
    <path clip-path="url(#pe146278997)" d="M 283.805319 265.183272 
C 286.753776 265.183272 289.581869 264.011838 291.666743 261.926964 
C 293.751617 259.84209 294.923051 257.013998 294.923051 254.065541 
C 294.923051 251.117084 293.751617 248.288991 291.666743 246.204117 
C 289.581869 244.119243 286.753776 242.947809 283.805319 242.947809 
C 280.856862 242.947809 278.02877 244.119243 275.943896 246.204117 
C 273.859022 248.288991 272.687588 251.117084 272.687588 254.065541 
C 272.687588 257.013998 273.859022 259.84209 275.943896 261.926964 
C 278.02877 264.011838 280.856862 265.183272 283.805319 265.183272 
z
" style="fill:#0000ff;opacity:0.2;stroke:#0000ff;stroke-linejoin:miter;"/>
   </g>
   <g id="patch_56">
    <path clip-path="url(#pe146278997)" d="M 305.948895 233.611347 
C 308.825791 233.611347 311.585243 232.468344 313.619515 230.434072 
C 315.653787 228.399799 316.79679 225.640347 316.79679 222.763452 
C 316.79679 219.886556 315.653787 217.127104 313.619515 215.092831 
C 311.585243 213.058559 308.825791 211.915557 305.948895 211.915557 
C 303.072 211.915557 300.312547 213.058559 298.278275 215.092831 
C 296.244003 217.127104 295.101 219.886556 295.101 222.763452 
C 295.101 225.640347 296.244003 228.399799 298.278275 230.434072 
C 300.312547 232.468344 303.072 233.611347 305.948895 233.611347 
z
" style="fill:#0000ff;opacity:0.2;stroke:#0000ff;stroke-linejoin:miter;"/>
   </g>
   <g id="patch_57">
    <path clip-path="url(#pe146278997)" d="M 323.083384 228.513772 
C 325.904165 228.513772 328.609795 227.393063 330.604389 225.398469 
C 332.598983 223.403875 333.719691 220.698246 333.719691 217.877464 
C 333.719691 215.056682 332.598983 212.351052 330.604389 210.356459 
C 328.609795 208.361865 325.904165 207.241156 323.083384 207.241156 
C 320.262602 207.241156 317.556972 208.361865 315.562378 210.356459 
C 313.567784 212.351052 312.447076 215.056682 312.447076 217.877464 
C 312.447076 220.698246 313.567784 223.403875 315.562378 225.398469 
C 317.556972 227.393063 320.262602 228.513772 323.083384 228.513772 
z
" style="fill:#0000ff;opacity:0.2;stroke:#0000ff;stroke-linejoin:miter;"/>
   </g>
   <g id="patch_58">
    <path clip-path="url(#pe146278997)" d="M 358.419448 214.774764 
C 361.199229 214.774764 363.865532 213.670345 365.831135 211.704743 
C 367.796737 209.73914 368.901156 207.072837 368.901156 204.293056 
C 368.901156 201.513274 367.796737 198.846971 365.831135 196.881369 
C 363.865532 194.915766 361.199229 193.811347 358.419448 193.811347 
C 355.639666 193.811347 352.973363 194.915766 351.007761 196.881369 
C 349.042158 198.846971 347.937739 201.513274 347.937739 204.293056 
C 347.937739 207.072837 349.042158 209.73914 351.007761 211.704743 
C 352.973363 213.670345 355.639666 214.774764 358.419448 214.774764 
z
" style="fill:#0000ff;opacity:0.2;stroke:#0000ff;stroke-linejoin:miter;"/>
   </g>
   <g id="patch_59">
    <path clip-path="url(#pe146278997)" d="M 387.938478 203.612082 
C 390.690339 203.612082 393.329861 202.518756 395.275721 200.572896 
C 397.221581 198.627037 398.314907 195.987514 398.314907 193.235653 
C 398.314907 190.483792 397.221581 187.84427 395.275721 185.89841 
C 393.329861 183.952551 390.690339 182.859225 387.938478 182.859225 
C 385.186617 182.859225 382.547094 183.952551 380.601235 185.89841 
C 378.655375 187.84427 377.562049 190.483792 377.562049 193.235653 
C 377.562049 195.987514 378.655375 198.627037 380.601235 200.572896 
C 382.547094 202.518756 385.186617 203.612082 387.938478 203.612082 
z
" style="fill:#0000ff;opacity:0.2;stroke:#0000ff;stroke-linejoin:miter;"/>
   </g>
   <g id="patch_60">
    <path clip-path="url(#pe146278997)" d="M 410.13324 189.785201 
C 412.867477 189.785201 415.490094 188.698877 417.423491 186.76548 
C 419.356888 184.832083 420.443212 182.209466 420.443212 179.475229 
C 420.443212 176.740993 419.356888 174.118376 417.423491 172.184979 
C 415.490094 170.251581 412.867477 169.165258 410.13324 169.165258 
C 407.399004 169.165258 404.776387 170.251581 402.84299 172.184979 
C 400.909592 174.118376 399.823269 176.740993 399.823269 179.475229 
C 399.823269 182.209466 400.909592 184.832083 402.84299 186.76548 
C 404.776387 188.698877 407.399004 189.785201 410.13324 189.785201 
z
" style="fill:#0000ff;opacity:0.2;stroke:#0000ff;stroke-linejoin:miter;"/>
   </g>
   <g id="patch_61">
    <path clip-path="url(#pe146278997)" d="M 425.596431 177.955233 
C 428.320463 177.955233 430.933292 176.872964 432.859474 174.946783 
C 434.785655 173.020601 435.867924 170.407772 435.867924 167.68374 
C 435.867924 164.959708 434.785655 162.346879 432.859474 160.420697 
C 430.933292 158.494516 428.320463 157.412247 425.596431 157.412247 
C 422.872399 157.412247 420.25957 158.494516 418.333388 160.420697 
C 416.407207 162.346879 415.324938 164.959708 415.324938 167.68374 
C 415.324938 170.407772 416.407207 173.020601 418.333388 174.946783 
C 420.25957 176.872964 422.872399 177.955233 425.596431 177.955233 
z
" style="fill:#0000ff;opacity:0.2;stroke:#0000ff;stroke-linejoin:miter;"/>
   </g>
   <g id="patch_62">
    <path clip-path="url(#pe146278997)" d="M 448.144912 163.6617 
C 450.863625 163.6617 453.471353 162.581544 455.393773 160.659123 
C 457.316194 158.736703 458.39635 156.128975 458.39635 153.410262 
C 458.39635 150.691548 457.316194 148.083821 455.393773 146.1614 
C 453.471353 144.238979 450.863625 143.158823 448.144912 143.158823 
C 445.426198 143.158823 442.818471 144.238979 440.89605 146.1614 
C 438.97363 148.083821 437.893473 150.691548 437.893473 153.410262 
C 437.893473 156.128975 438.97363 158.736703 440.89605 160.659123 
C 442.818471 162.581544 445.426198 163.6617 448.144912 163.6617 
z
" style="fill:#0000ff;opacity:0.2;stroke:#0000ff;stroke-linejoin:miter;"/>
   </g>
   <g id="patch_63">
    <path clip-path="url(#pe146278997)" d="M 476.337336 153.30466 
C 479.053643 153.30466 481.659062 152.22546 483.579781 150.304742 
C 485.5005 148.384023 486.5797 145.778603 486.5797 143.062297 
C 486.5797 140.34599 485.5005 137.740571 483.579781 135.819852 
C 481.659062 133.899133 479.053643 132.819933 476.337336 132.819933 
C 473.62103 132.819933 471.01561 133.899133 469.094892 135.819852 
C 467.174173 137.740571 466.094973 140.34599 466.094973 143.062297 
C 466.094973 145.778603 467.174173 148.384023 469.094892 150.304742 
C 471.01561 152.22546 473.62103 153.30466 476.337336 153.30466 
z
" style="fill:#0000ff;opacity:0.2;stroke:#0000ff;stroke-linejoin:miter;"/>
   </g>
   <g id="patch_64">
    <path clip-path="url(#pe146278997)" d="M 505.852163 133.615729 
C 508.567601 133.615729 511.172187 132.536875 513.092291 130.61677 
C 515.012396 128.696666 516.091251 126.09208 516.091251 123.376642 
C 516.091251 120.661205 515.012396 118.056619 513.092291 116.136514 
C 511.172187 114.21641 508.567601 113.137555 505.852163 113.137555 
C 503.136726 113.137555 500.53214 114.21641 498.612035 116.136514 
C 496.691931 118.056619 495.613076 120.661205 495.613076 123.376642 
C 495.613076 126.09208 496.691931 128.696666 498.612035 130.61677 
C 500.53214 132.536875 503.136726 133.615729 505.852163 133.615729 
z
" style="fill:#0000ff;opacity:0.2;stroke:#0000ff;stroke-linejoin:miter;"/>
   </g>
   <g id="patch_65">
    <path clip-path="url(#pe146278997)" d="M 532.028698 122.121819 
C 534.743951 122.121819 537.34836 121.043037 539.268334 119.123064 
C 541.188307 117.20309 542.267089 114.598681 542.267089 111.883428 
C 542.267089 109.168175 541.188307 106.563766 539.268334 104.643793 
C 537.34836 102.723819 534.743951 101.645037 532.028698 101.645037 
C 529.313445 101.645037 526.709037 102.723819 524.789063 104.643793 
C 522.869089 106.563766 521.790308 109.168175 521.790308 111.883428 
C 521.790308 114.598681 522.869089 117.20309 524.789063 119.123064 
C 526.709037 121.043037 529.313445 122.121819 532.028698 122.121819 
z
" style="fill:#0000ff;opacity:0.2;stroke:#0000ff;stroke-linejoin:miter;"/>
   </g>
   <g id="patch_66">
    <path clip-path="url(#pe146278997)" d="M 552.563197 92.728886 
C 555.278484 92.728886 557.882926 91.650091 559.802924 89.730093 
C 561.722922 87.810095 562.801717 85.205653 562.801717 82.490366 
C 562.801717 79.775079 561.722922 77.170637 559.802924 75.250639 
C 557.882926 73.330641 555.278484 72.251846 552.563197 72.251846 
C 549.84791 72.251846 547.243468 73.330641 545.32347 75.250639 
C 543.403472 77.170637 542.324677 79.775079 542.324677 82.490366 
C 542.324677 85.205653 543.403472 87.810095 545.32347 89.730093 
C 547.243468 91.650091 549.84791 92.728886 552.563197 92.728886 
z
" style="fill:#0000ff;opacity:0.2;stroke:#0000ff;stroke-linejoin:miter;"/>
   </g>
   <g id="patch_67">
    <path clip-path="url(#pe146278997)" d="M 579.446502 75.998686 
C 582.161832 75.998686 584.766314 74.919874 586.686342 72.999846 
C 588.60637 71.079818 589.685182 68.475335 589.685182 65.760005 
C 589.685182 63.044675 588.60637 60.440193 586.686342 58.520165 
C 584.766314 56.600137 582.161832 55.521325 579.446502 55.521325 
C 576.731172 55.521325 574.126689 56.600137 572.206661 58.520165 
C 570.286633 60.440193 569.207821 63.044675 569.207821 65.760005 
C 569.207821 68.475335 570.286633 71.079818 572.206661 72.999846 
C 574.126689 74.919874 576.731172 75.998686 579.446502 75.998686 
z
" style="fill:#0000ff;opacity:0.2;stroke:#0000ff;stroke-linejoin:miter;"/>
   </g>
   <g id="patch_68">
    <path clip-path="url(#pe146278997)" d="M 594.586457 62.414331 
C 597.301772 62.414331 599.906239 61.335525 601.826257 59.415508 
C 603.746274 57.495491 604.82508 54.891023 604.82508 52.175709 
C 604.82508 49.460394 603.746274 46.855927 601.826257 44.935909 
C 599.906239 43.015892 597.301772 41.937086 594.586457 41.937086 
C 591.871143 41.937086 589.266675 43.015892 587.346658 44.935909 
C 585.426641 46.855927 584.347835 49.460394 584.347835 52.175709 
C 584.347835 54.891023 585.426641 57.495491 587.346658 59.415508 
C 589.266675 61.335525 591.871143 62.414331 594.586457 62.414331 
z
" style="fill:#0000ff;opacity:0.2;stroke:#0000ff;stroke-linejoin:miter;"/>
   </g>
   <g id="matplotlib.axis_1">
    <g id="xtick_1">
     <g id="line2d_1">
      <defs>
       <path d="M 0 0 
L 0 3.5 
" id="m4e4a2cf5f7" style="stroke:#000000;stroke-width:0.8;"/>
      </defs>
      <g>
       <use style="stroke:#000000;stroke-width:0.8;" x="92.693069" xlink:href="#m4e4a2cf5f7" y="390.04"/>
      </g>
     </g>
     <g id="text_1">
      <!-- 5 -->
      <g transform="translate(85.321975 404.638438)scale(0.1 -0.1)">
       <defs>
        <path d="M 10.59375 35.5 
L 73.1875 35.5 
L 73.1875 27.203125 
L 10.59375 27.203125 
z
" id="DejaVuSans-8722"/>
        <path d="M 10.796875 72.90625 
L 49.515625 72.90625 
L 49.515625 64.59375 
L 19.828125 64.59375 
L 19.828125 46.734375 
Q 21.96875 47.46875 24.109375 47.828125 
Q 26.265625 48.1875 28.421875 48.1875 
Q 40.625 48.1875 47.75 41.5 
Q 54.890625 34.8125 54.890625 23.390625 
Q 54.890625 11.625 47.5625 5.09375 
Q 40.234375 -1.421875 26.90625 -1.421875 
Q 22.3125 -1.421875 17.546875 -0.640625 
Q 12.796875 0.140625 7.71875 1.703125 
L 7.71875 11.625 
Q 12.109375 9.234375 16.796875 8.0625 
Q 21.484375 6.890625 26.703125 6.890625 
Q 35.15625 6.890625 40.078125 11.328125 
Q 45.015625 15.765625 45.015625 23.390625 
Q 45.015625 31 40.078125 35.4375 
Q 35.15625 39.890625 26.703125 39.890625 
Q 22.75 39.890625 18.8125 39.015625 
Q 14.890625 38.140625 10.796875 36.28125 
z
" id="DejaVuSans-53"/>
       </defs>
       <use xlink:href="#DejaVuSans-8722"/>
       <use x="83.789062" xlink:href="#DejaVuSans-53"/>
      </g>
     </g>
    </g>
    <g id="xtick_2">
     <g id="line2d_2">
      <g>
       <use style="stroke:#000000;stroke-width:0.8;" x="169.433475" xlink:href="#m4e4a2cf5f7" y="390.04"/>
      </g>
     </g>
     <g id="text_2">
      <!-- 0 -->
      <g transform="translate(166.252225 404.638438)scale(0.1 -0.1)">
       <defs>
        <path d="M 31.78125 66.40625 
Q 24.171875 66.40625 20.328125 58.90625 
Q 16.5 51.421875 16.5 36.375 
Q 16.5 21.390625 20.328125 13.890625 
Q 24.171875 6.390625 31.78125 6.390625 
Q 39.453125 6.390625 43.28125 13.890625 
Q 47.125 21.390625 47.125 36.375 
Q 47.125 51.421875 43.28125 58.90625 
Q 39.453125 66.40625 31.78125 66.40625 
z
M 31.78125 74.21875 
Q 44.046875 74.21875 50.515625 64.515625 
Q 56.984375 54.828125 56.984375 36.375 
Q 56.984375 17.96875 50.515625 8.265625 
Q 44.046875 -1.421875 31.78125 -1.421875 
Q 19.53125 -1.421875 13.0625 8.265625 
Q 6.59375 17.96875 6.59375 36.375 
Q 6.59375 54.828125 13.0625 64.515625 
Q 19.53125 74.21875 31.78125 74.21875 
z
" id="DejaVuSans-48"/>
       </defs>
       <use xlink:href="#DejaVuSans-48"/>
      </g>
     </g>
    </g>
    <g id="xtick_3">
     <g id="line2d_3">
      <g>
       <use style="stroke:#000000;stroke-width:0.8;" x="246.17388" xlink:href="#m4e4a2cf5f7" y="390.04"/>
      </g>
     </g>
     <g id="text_3">
      <!-- 5 -->
      <g transform="translate(242.99263 404.638438)scale(0.1 -0.1)">
       <use xlink:href="#DejaVuSans-53"/>
      </g>
     </g>
    </g>
    <g id="xtick_4">
     <g id="line2d_4">
      <g>
       <use style="stroke:#000000;stroke-width:0.8;" x="322.914286" xlink:href="#m4e4a2cf5f7" y="390.04"/>
      </g>
     </g>
     <g id="text_4">
      <!-- 10 -->
      <g transform="translate(316.551786 404.638438)scale(0.1 -0.1)">
       <defs>
        <path d="M 12.40625 8.296875 
L 28.515625 8.296875 
L 28.515625 63.921875 
L 10.984375 60.40625 
L 10.984375 69.390625 
L 28.421875 72.90625 
L 38.28125 72.90625 
L 38.28125 8.296875 
L 54.390625 8.296875 
L 54.390625 0 
L 12.40625 0 
z
" id="DejaVuSans-49"/>
       </defs>
       <use xlink:href="#DejaVuSans-49"/>
       <use x="63.623047" xlink:href="#DejaVuSans-48"/>
      </g>
     </g>
    </g>
    <g id="xtick_5">
     <g id="line2d_5">
      <g>
       <use style="stroke:#000000;stroke-width:0.8;" x="399.654692" xlink:href="#m4e4a2cf5f7" y="390.04"/>
      </g>
     </g>
     <g id="text_5">
      <!-- 15 -->
      <g transform="translate(393.292192 404.638438)scale(0.1 -0.1)">
       <use xlink:href="#DejaVuSans-49"/>
       <use x="63.623047" xlink:href="#DejaVuSans-53"/>
      </g>
     </g>
    </g>
    <g id="xtick_6">
     <g id="line2d_6">
      <g>
       <use style="stroke:#000000;stroke-width:0.8;" x="476.395098" xlink:href="#m4e4a2cf5f7" y="390.04"/>
      </g>
     </g>
     <g id="text_6">
      <!-- 20 -->
      <g transform="translate(470.032598 404.638438)scale(0.1 -0.1)">
       <defs>
        <path d="M 19.1875 8.296875 
L 53.609375 8.296875 
L 53.609375 0 
L 7.328125 0 
L 7.328125 8.296875 
Q 12.9375 14.109375 22.625 23.890625 
Q 32.328125 33.6875 34.8125 36.53125 
Q 39.546875 41.84375 41.421875 45.53125 
Q 43.3125 49.21875 43.3125 52.78125 
Q 43.3125 58.59375 39.234375 62.25 
Q 35.15625 65.921875 28.609375 65.921875 
Q 23.96875 65.921875 18.8125 64.3125 
Q 13.671875 62.703125 7.8125 59.421875 
L 7.8125 69.390625 
Q 13.765625 71.78125 18.9375 73 
Q 24.125 74.21875 28.421875 74.21875 
Q 39.75 74.21875 46.484375 68.546875 
Q 53.21875 62.890625 53.21875 53.421875 
Q 53.21875 48.921875 51.53125 44.890625 
Q 49.859375 40.875 45.40625 35.40625 
Q 44.1875 33.984375 37.640625 27.21875 
Q 31.109375 20.453125 19.1875 8.296875 
z
" id="DejaVuSans-50"/>
       </defs>
       <use xlink:href="#DejaVuSans-50"/>
       <use x="63.623047" xlink:href="#DejaVuSans-48"/>
      </g>
     </g>
    </g>
    <g id="xtick_7">
     <g id="line2d_7">
      <g>
       <use style="stroke:#000000;stroke-width:0.8;" x="553.135504" xlink:href="#m4e4a2cf5f7" y="390.04"/>
      </g>
     </g>
     <g id="text_7">
      <!-- 25 -->
      <g transform="translate(546.773004 404.638438)scale(0.1 -0.1)">
       <use xlink:href="#DejaVuSans-50"/>
       <use x="63.623047" xlink:href="#DejaVuSans-53"/>
      </g>
     </g>
    </g>
    <g id="xtick_8">
     <g id="line2d_8">
      <g>
       <use style="stroke:#000000;stroke-width:0.8;" x="629.87591" xlink:href="#m4e4a2cf5f7" y="390.04"/>
      </g>
     </g>
     <g id="text_8">
      <!-- 30 -->
      <g transform="translate(623.51341 404.638438)scale(0.1 -0.1)">
       <defs>
        <path d="M 40.578125 39.3125 
Q 47.65625 37.796875 51.625 33 
Q 55.609375 28.21875 55.609375 21.1875 
Q 55.609375 10.40625 48.1875 4.484375 
Q 40.765625 -1.421875 27.09375 -1.421875 
Q 22.515625 -1.421875 17.65625 -0.515625 
Q 12.796875 0.390625 7.625 2.203125 
L 7.625 11.71875 
Q 11.71875 9.328125 16.59375 8.109375 
Q 21.484375 6.890625 26.8125 6.890625 
Q 36.078125 6.890625 40.9375 10.546875 
Q 45.796875 14.203125 45.796875 21.1875 
Q 45.796875 27.640625 41.28125 31.265625 
Q 36.765625 34.90625 28.71875 34.90625 
L 20.21875 34.90625 
L 20.21875 43.015625 
L 29.109375 43.015625 
Q 36.375 43.015625 40.234375 45.921875 
Q 44.09375 48.828125 44.09375 54.296875 
Q 44.09375 59.90625 40.109375 62.90625 
Q 36.140625 65.921875 28.71875 65.921875 
Q 24.65625 65.921875 20.015625 65.03125 
Q 15.375 64.15625 9.8125 62.3125 
L 9.8125 71.09375 
Q 15.4375 72.65625 20.34375 73.4375 
Q 25.25 74.21875 29.59375 74.21875 
Q 40.828125 74.21875 47.359375 69.109375 
Q 53.90625 64.015625 53.90625 55.328125 
Q 53.90625 49.265625 50.4375 45.09375 
Q 46.96875 40.921875 40.578125 39.3125 
z
" id="DejaVuSans-51"/>
       </defs>
       <use xlink:href="#DejaVuSans-51"/>
       <use x="63.623047" xlink:href="#DejaVuSans-48"/>
      </g>
     </g>
    </g>
    <g id="xtick_9">
     <g id="line2d_9">
      <g>
       <use style="stroke:#000000;stroke-width:0.8;" x="706.616316" xlink:href="#m4e4a2cf5f7" y="390.04"/>
      </g>
     </g>
     <g id="text_9">
      <!-- 35 -->
      <g transform="translate(700.253816 404.638438)scale(0.1 -0.1)">
       <use xlink:href="#DejaVuSans-51"/>
       <use x="63.623047" xlink:href="#DejaVuSans-53"/>
      </g>
     </g>
    </g>
    <g id="text_10">
     <!-- $x$ -->
     <g transform="translate(374.245 418.316562)scale(0.1 -0.1)">
      <defs>
       <path d="M 60.015625 54.6875 
L 34.90625 27.875 
L 50.296875 0 
L 39.984375 0 
L 28.421875 21.6875 
L 8.296875 0 
L -2.59375 0 
L 24.3125 28.8125 
L 10.015625 54.6875 
L 20.3125 54.6875 
L 30.8125 34.90625 
L 49.125 54.6875 
z
" id="DejaVuSans-Oblique-120"/>
      </defs>
      <use transform="translate(0 0.3125)" xlink:href="#DejaVuSans-Oblique-120"/>
     </g>
    </g>
   </g>
   <g id="matplotlib.axis_2">
    <g id="ytick_1">
     <g id="line2d_10">
      <defs>
       <path d="M 0 0 
L -3.5 0 
" id="m58d834a8fd" style="stroke:#000000;stroke-width:0.8;"/>
      </defs>
      <g>
       <use style="stroke:#000000;stroke-width:0.8;" x="45.29" xlink:href="#m58d834a8fd" y="352.004168"/>
      </g>
     </g>
     <g id="text_11">
      <!-- 0 -->
      <g transform="translate(31.9275 355.803387)scale(0.1 -0.1)">
       <use xlink:href="#DejaVuSans-48"/>
      </g>
     </g>
    </g>
    <g id="ytick_2">
     <g id="line2d_11">
      <g>
       <use style="stroke:#000000;stroke-width:0.8;" x="45.29" xlink:href="#m58d834a8fd" y="275.263762"/>
      </g>
     </g>
     <g id="text_12">
      <!-- 5 -->
      <g transform="translate(31.9275 279.062981)scale(0.1 -0.1)">
       <use xlink:href="#DejaVuSans-53"/>
      </g>
     </g>
    </g>
    <g id="ytick_3">
     <g id="line2d_12">
      <g>
       <use style="stroke:#000000;stroke-width:0.8;" x="45.29" xlink:href="#m58d834a8fd" y="198.523356"/>
      </g>
     </g>
     <g id="text_13">
      <!-- 10 -->
      <g transform="translate(25.565 202.322575)scale(0.1 -0.1)">
       <use xlink:href="#DejaVuSans-49"/>
       <use x="63.623047" xlink:href="#DejaVuSans-48"/>
      </g>
     </g>
    </g>
    <g id="ytick_4">
     <g id="line2d_13">
      <g>
       <use style="stroke:#000000;stroke-width:0.8;" x="45.29" xlink:href="#m58d834a8fd" y="121.78295"/>
      </g>
     </g>
     <g id="text_14">
      <!-- 15 -->
      <g transform="translate(25.565 125.582169)scale(0.1 -0.1)">
       <use xlink:href="#DejaVuSans-49"/>
       <use x="63.623047" xlink:href="#DejaVuSans-53"/>
      </g>
     </g>
    </g>
    <g id="ytick_5">
     <g id="line2d_14">
      <g>
       <use style="stroke:#000000;stroke-width:0.8;" x="45.29" xlink:href="#m58d834a8fd" y="45.042544"/>
      </g>
     </g>
     <g id="text_15">
      <!-- 20 -->
      <g transform="translate(25.565 48.841763)scale(0.1 -0.1)">
       <use xlink:href="#DejaVuSans-50"/>
       <use x="63.623047" xlink:href="#DejaVuSans-48"/>
      </g>
     </g>
    </g>
    <g id="text_16">
     <!-- $y$ -->
     <g transform="translate(19.465 211.46)rotate(-90)scale(0.1 -0.1)">
      <defs>
       <path d="M 24.8125 -5.078125 
Q 18.5625 -15.578125 14.625 -18.1875 
Q 10.6875 -20.796875 4.59375 -20.796875 
L -2.484375 -20.796875 
L -0.984375 -13.28125 
L 4.203125 -13.28125 
Q 7.953125 -13.28125 10.59375 -11.234375 
Q 13.234375 -9.1875 16.5 -3.21875 
L 19.28125 2 
L 7.171875 54.6875 
L 16.703125 54.6875 
L 25.78125 12.796875 
L 50.875 54.6875 
L 60.296875 54.6875 
z
" id="DejaVuSans-Oblique-121"/>
      </defs>
      <use transform="translate(0 0.3125)" xlink:href="#DejaVuSans-Oblique-121"/>
     </g>
    </g>
   </g>
   <g id="line2d_15">
    <path clip-path="url(#pe146278997)" d="M 169.433475 352.004168 
L 184.59302 336.569201 
L 200.859728 321.239267 
L 218.010059 305.407582 
L 236.938023 289.584002 
L 257.885515 273.453471 
L 278.125543 258.674681 
L 298.101552 246.108418 
L 319.416525 231.217224 
L 340.782472 215.965127 
L 363.84129 201.241641 
L 385.487347 188.383948 
L 405.925301 176.365258 
L 427.014141 164.944133 
L 451.019007 152.464073 
L 475.963726 139.285274 
L 500.889406 125.47391 
L 523.383014 111.206014 
L 546.169938 95.470348 
L 570.465579 79.095711 
L 595.598111 63.515976 
" style="fill:none;stroke:#1f77b4;stroke-dasharray:5.55,2.4;stroke-dashoffset:0;stroke-width:1.5;"/>
   </g>
   <g id="patch_69">
    <path d="M 45.29 390.04 
L 45.29 26.88 
" style="fill:none;stroke:#000000;stroke-linecap:square;stroke-linejoin:miter;stroke-width:0.8;"/>
   </g>
   <g id="patch_70">
    <path d="M 709.2 390.04 
L 709.2 26.88 
" style="fill:none;stroke:#000000;stroke-linecap:square;stroke-linejoin:miter;stroke-width:0.8;"/>
   </g>
   <g id="patch_71">
    <path d="M 45.29 390.04 
L 709.2 390.04 
" style="fill:none;stroke:#000000;stroke-linecap:square;stroke-linejoin:miter;stroke-width:0.8;"/>
   </g>
   <g id="patch_72">
    <path d="M 45.29 26.88 
L 709.2 26.88 
" style="fill:none;stroke:#000000;stroke-linecap:square;stroke-linejoin:miter;stroke-width:0.8;"/>
   </g>
   <g id="text_17">
    <!-- Kalman filter tracking and fusion under the error independence assumption -->
    <g transform="translate(150.225625 20.88)scale(0.12 -0.12)">
     <defs>
      <path d="M 9.8125 72.90625 
L 19.671875 72.90625 
L 19.671875 42.09375 
L 52.390625 72.90625 
L 65.09375 72.90625 
L 28.90625 38.921875 
L 67.671875 0 
L 54.6875 0 
L 19.671875 35.109375 
L 19.671875 0 
L 9.8125 0 
z
" id="DejaVuSans-75"/>
      <path d="M 34.28125 27.484375 
Q 23.390625 27.484375 19.1875 25 
Q 14.984375 22.515625 14.984375 16.5 
Q 14.984375 11.71875 18.140625 8.90625 
Q 21.296875 6.109375 26.703125 6.109375 
Q 34.1875 6.109375 38.703125 11.40625 
Q 43.21875 16.703125 43.21875 25.484375 
L 43.21875 27.484375 
z
M 52.203125 31.203125 
L 52.203125 0 
L 43.21875 0 
L 43.21875 8.296875 
Q 40.140625 3.328125 35.546875 0.953125 
Q 30.953125 -1.421875 24.3125 -1.421875 
Q 15.921875 -1.421875 10.953125 3.296875 
Q 6 8.015625 6 15.921875 
Q 6 25.140625 12.171875 29.828125 
Q 18.359375 34.515625 30.609375 34.515625 
L 43.21875 34.515625 
L 43.21875 35.40625 
Q 43.21875 41.609375 39.140625 45 
Q 35.0625 48.390625 27.6875 48.390625 
Q 23 48.390625 18.546875 47.265625 
Q 14.109375 46.140625 10.015625 43.890625 
L 10.015625 52.203125 
Q 14.9375 54.109375 19.578125 55.046875 
Q 24.21875 56 28.609375 56 
Q 40.484375 56 46.34375 49.84375 
Q 52.203125 43.703125 52.203125 31.203125 
z
" id="DejaVuSans-97"/>
      <path d="M 9.421875 75.984375 
L 18.40625 75.984375 
L 18.40625 0 
L 9.421875 0 
z
" id="DejaVuSans-108"/>
      <path d="M 52 44.1875 
Q 55.375 50.25 60.0625 53.125 
Q 64.75 56 71.09375 56 
Q 79.640625 56 84.28125 50.015625 
Q 88.921875 44.046875 88.921875 33.015625 
L 88.921875 0 
L 79.890625 0 
L 79.890625 32.71875 
Q 79.890625 40.578125 77.09375 44.375 
Q 74.3125 48.1875 68.609375 48.1875 
Q 61.625 48.1875 57.5625 43.546875 
Q 53.515625 38.921875 53.515625 30.90625 
L 53.515625 0 
L 44.484375 0 
L 44.484375 32.71875 
Q 44.484375 40.625 41.703125 44.40625 
Q 38.921875 48.1875 33.109375 48.1875 
Q 26.21875 48.1875 22.15625 43.53125 
Q 18.109375 38.875 18.109375 30.90625 
L 18.109375 0 
L 9.078125 0 
L 9.078125 54.6875 
L 18.109375 54.6875 
L 18.109375 46.1875 
Q 21.1875 51.21875 25.484375 53.609375 
Q 29.78125 56 35.6875 56 
Q 41.65625 56 45.828125 52.96875 
Q 50 49.953125 52 44.1875 
z
" id="DejaVuSans-109"/>
      <path d="M 54.890625 33.015625 
L 54.890625 0 
L 45.90625 0 
L 45.90625 32.71875 
Q 45.90625 40.484375 42.875 44.328125 
Q 39.84375 48.1875 33.796875 48.1875 
Q 26.515625 48.1875 22.3125 43.546875 
Q 18.109375 38.921875 18.109375 30.90625 
L 18.109375 0 
L 9.078125 0 
L 9.078125 54.6875 
L 18.109375 54.6875 
L 18.109375 46.1875 
Q 21.34375 51.125 25.703125 53.5625 
Q 30.078125 56 35.796875 56 
Q 45.21875 56 50.046875 50.171875 
Q 54.890625 44.34375 54.890625 33.015625 
z
" id="DejaVuSans-110"/>
      <path id="DejaVuSans-32"/>
      <path d="M 37.109375 75.984375 
L 37.109375 68.5 
L 28.515625 68.5 
Q 23.6875 68.5 21.796875 66.546875 
Q 19.921875 64.59375 19.921875 59.515625 
L 19.921875 54.6875 
L 34.71875 54.6875 
L 34.71875 47.703125 
L 19.921875 47.703125 
L 19.921875 0 
L 10.890625 0 
L 10.890625 47.703125 
L 2.296875 47.703125 
L 2.296875 54.6875 
L 10.890625 54.6875 
L 10.890625 58.5 
Q 10.890625 67.625 15.140625 71.796875 
Q 19.390625 75.984375 28.609375 75.984375 
z
" id="DejaVuSans-102"/>
      <path d="M 9.421875 54.6875 
L 18.40625 54.6875 
L 18.40625 0 
L 9.421875 0 
z
M 9.421875 75.984375 
L 18.40625 75.984375 
L 18.40625 64.59375 
L 9.421875 64.59375 
z
" id="DejaVuSans-105"/>
      <path d="M 18.3125 70.21875 
L 18.3125 54.6875 
L 36.8125 54.6875 
L 36.8125 47.703125 
L 18.3125 47.703125 
L 18.3125 18.015625 
Q 18.3125 11.328125 20.140625 9.421875 
Q 21.96875 7.515625 27.59375 7.515625 
L 36.8125 7.515625 
L 36.8125 0 
L 27.59375 0 
Q 17.1875 0 13.234375 3.875 
Q 9.28125 7.765625 9.28125 18.015625 
L 9.28125 47.703125 
L 2.6875 47.703125 
L 2.6875 54.6875 
L 9.28125 54.6875 
L 9.28125 70.21875 
z
" id="DejaVuSans-116"/>
      <path d="M 56.203125 29.59375 
L 56.203125 25.203125 
L 14.890625 25.203125 
Q 15.484375 15.921875 20.484375 11.0625 
Q 25.484375 6.203125 34.421875 6.203125 
Q 39.59375 6.203125 44.453125 7.46875 
Q 49.3125 8.734375 54.109375 11.28125 
L 54.109375 2.78125 
Q 49.265625 0.734375 44.1875 -0.34375 
Q 39.109375 -1.421875 33.890625 -1.421875 
Q 20.796875 -1.421875 13.15625 6.1875 
Q 5.515625 13.8125 5.515625 26.8125 
Q 5.515625 40.234375 12.765625 48.109375 
Q 20.015625 56 32.328125 56 
Q 43.359375 56 49.78125 48.890625 
Q 56.203125 41.796875 56.203125 29.59375 
z
M 47.21875 32.234375 
Q 47.125 39.59375 43.09375 43.984375 
Q 39.0625 48.390625 32.421875 48.390625 
Q 24.90625 48.390625 20.390625 44.140625 
Q 15.875 39.890625 15.1875 32.171875 
z
" id="DejaVuSans-101"/>
      <path d="M 41.109375 46.296875 
Q 39.59375 47.171875 37.8125 47.578125 
Q 36.03125 48 33.890625 48 
Q 26.265625 48 22.1875 43.046875 
Q 18.109375 38.09375 18.109375 28.8125 
L 18.109375 0 
L 9.078125 0 
L 9.078125 54.6875 
L 18.109375 54.6875 
L 18.109375 46.1875 
Q 20.953125 51.171875 25.484375 53.578125 
Q 30.03125 56 36.53125 56 
Q 37.453125 56 38.578125 55.875 
Q 39.703125 55.765625 41.0625 55.515625 
z
" id="DejaVuSans-114"/>
      <path d="M 48.78125 52.59375 
L 48.78125 44.1875 
Q 44.96875 46.296875 41.140625 47.34375 
Q 37.3125 48.390625 33.40625 48.390625 
Q 24.65625 48.390625 19.8125 42.84375 
Q 14.984375 37.3125 14.984375 27.296875 
Q 14.984375 17.28125 19.8125 11.734375 
Q 24.65625 6.203125 33.40625 6.203125 
Q 37.3125 6.203125 41.140625 7.25 
Q 44.96875 8.296875 48.78125 10.40625 
L 48.78125 2.09375 
Q 45.015625 0.34375 40.984375 -0.53125 
Q 36.96875 -1.421875 32.421875 -1.421875 
Q 20.0625 -1.421875 12.78125 6.34375 
Q 5.515625 14.109375 5.515625 27.296875 
Q 5.515625 40.671875 12.859375 48.328125 
Q 20.21875 56 33.015625 56 
Q 37.15625 56 41.109375 55.140625 
Q 45.0625 54.296875 48.78125 52.59375 
z
" id="DejaVuSans-99"/>
      <path d="M 9.078125 75.984375 
L 18.109375 75.984375 
L 18.109375 31.109375 
L 44.921875 54.6875 
L 56.390625 54.6875 
L 27.390625 29.109375 
L 57.625 0 
L 45.90625 0 
L 18.109375 26.703125 
L 18.109375 0 
L 9.078125 0 
z
" id="DejaVuSans-107"/>
      <path d="M 45.40625 27.984375 
Q 45.40625 37.75 41.375 43.109375 
Q 37.359375 48.484375 30.078125 48.484375 
Q 22.859375 48.484375 18.828125 43.109375 
Q 14.796875 37.75 14.796875 27.984375 
Q 14.796875 18.265625 18.828125 12.890625 
Q 22.859375 7.515625 30.078125 7.515625 
Q 37.359375 7.515625 41.375 12.890625 
Q 45.40625 18.265625 45.40625 27.984375 
z
M 54.390625 6.78125 
Q 54.390625 -7.171875 48.1875 -13.984375 
Q 42 -20.796875 29.203125 -20.796875 
Q 24.46875 -20.796875 20.265625 -20.09375 
Q 16.0625 -19.390625 12.109375 -17.921875 
L 12.109375 -9.1875 
Q 16.0625 -11.328125 19.921875 -12.34375 
Q 23.78125 -13.375 27.78125 -13.375 
Q 36.625 -13.375 41.015625 -8.765625 
Q 45.40625 -4.15625 45.40625 5.171875 
L 45.40625 9.625 
Q 42.625 4.78125 38.28125 2.390625 
Q 33.9375 0 27.875 0 
Q 17.828125 0 11.671875 7.65625 
Q 5.515625 15.328125 5.515625 27.984375 
Q 5.515625 40.671875 11.671875 48.328125 
Q 17.828125 56 27.875 56 
Q 33.9375 56 38.28125 53.609375 
Q 42.625 51.21875 45.40625 46.390625 
L 45.40625 54.6875 
L 54.390625 54.6875 
z
" id="DejaVuSans-103"/>
      <path d="M 45.40625 46.390625 
L 45.40625 75.984375 
L 54.390625 75.984375 
L 54.390625 0 
L 45.40625 0 
L 45.40625 8.203125 
Q 42.578125 3.328125 38.25 0.953125 
Q 33.9375 -1.421875 27.875 -1.421875 
Q 17.96875 -1.421875 11.734375 6.484375 
Q 5.515625 14.40625 5.515625 27.296875 
Q 5.515625 40.1875 11.734375 48.09375 
Q 17.96875 56 27.875 56 
Q 33.9375 56 38.25 53.625 
Q 42.578125 51.265625 45.40625 46.390625 
z
M 14.796875 27.296875 
Q 14.796875 17.390625 18.875 11.75 
Q 22.953125 6.109375 30.078125 6.109375 
Q 37.203125 6.109375 41.296875 11.75 
Q 45.40625 17.390625 45.40625 27.296875 
Q 45.40625 37.203125 41.296875 42.84375 
Q 37.203125 48.484375 30.078125 48.484375 
Q 22.953125 48.484375 18.875 42.84375 
Q 14.796875 37.203125 14.796875 27.296875 
z
" id="DejaVuSans-100"/>
      <path d="M 8.5 21.578125 
L 8.5 54.6875 
L 17.484375 54.6875 
L 17.484375 21.921875 
Q 17.484375 14.15625 20.5 10.265625 
Q 23.53125 6.390625 29.59375 6.390625 
Q 36.859375 6.390625 41.078125 11.03125 
Q 45.3125 15.671875 45.3125 23.6875 
L 45.3125 54.6875 
L 54.296875 54.6875 
L 54.296875 0 
L 45.3125 0 
L 45.3125 8.40625 
Q 42.046875 3.421875 37.71875 1 
Q 33.40625 -1.421875 27.6875 -1.421875 
Q 18.265625 -1.421875 13.375 4.4375 
Q 8.5 10.296875 8.5 21.578125 
z
M 31.109375 56 
z
" id="DejaVuSans-117"/>
      <path d="M 44.28125 53.078125 
L 44.28125 44.578125 
Q 40.484375 46.53125 36.375 47.5 
Q 32.28125 48.484375 27.875 48.484375 
Q 21.1875 48.484375 17.84375 46.4375 
Q 14.5 44.390625 14.5 40.28125 
Q 14.5 37.15625 16.890625 35.375 
Q 19.28125 33.59375 26.515625 31.984375 
L 29.59375 31.296875 
Q 39.15625 29.25 43.1875 25.515625 
Q 47.21875 21.78125 47.21875 15.09375 
Q 47.21875 7.46875 41.1875 3.015625 
Q 35.15625 -1.421875 24.609375 -1.421875 
Q 20.21875 -1.421875 15.453125 -0.5625 
Q 10.6875 0.296875 5.421875 2 
L 5.421875 11.28125 
Q 10.40625 8.6875 15.234375 7.390625 
Q 20.0625 6.109375 24.8125 6.109375 
Q 31.15625 6.109375 34.5625 8.28125 
Q 37.984375 10.453125 37.984375 14.40625 
Q 37.984375 18.0625 35.515625 20.015625 
Q 33.0625 21.96875 24.703125 23.78125 
L 21.578125 24.515625 
Q 13.234375 26.265625 9.515625 29.90625 
Q 5.8125 33.546875 5.8125 39.890625 
Q 5.8125 47.609375 11.28125 51.796875 
Q 16.75 56 26.8125 56 
Q 31.78125 56 36.171875 55.265625 
Q 40.578125 54.546875 44.28125 53.078125 
z
" id="DejaVuSans-115"/>
      <path d="M 30.609375 48.390625 
Q 23.390625 48.390625 19.1875 42.75 
Q 14.984375 37.109375 14.984375 27.296875 
Q 14.984375 17.484375 19.15625 11.84375 
Q 23.34375 6.203125 30.609375 6.203125 
Q 37.796875 6.203125 41.984375 11.859375 
Q 46.1875 17.53125 46.1875 27.296875 
Q 46.1875 37.015625 41.984375 42.703125 
Q 37.796875 48.390625 30.609375 48.390625 
z
M 30.609375 56 
Q 42.328125 56 49.015625 48.375 
Q 55.71875 40.765625 55.71875 27.296875 
Q 55.71875 13.875 49.015625 6.21875 
Q 42.328125 -1.421875 30.609375 -1.421875 
Q 18.84375 -1.421875 12.171875 6.21875 
Q 5.515625 13.875 5.515625 27.296875 
Q 5.515625 40.765625 12.171875 48.375 
Q 18.84375 56 30.609375 56 
z
" id="DejaVuSans-111"/>
      <path d="M 54.890625 33.015625 
L 54.890625 0 
L 45.90625 0 
L 45.90625 32.71875 
Q 45.90625 40.484375 42.875 44.328125 
Q 39.84375 48.1875 33.796875 48.1875 
Q 26.515625 48.1875 22.3125 43.546875 
Q 18.109375 38.921875 18.109375 30.90625 
L 18.109375 0 
L 9.078125 0 
L 9.078125 75.984375 
L 18.109375 75.984375 
L 18.109375 46.1875 
Q 21.34375 51.125 25.703125 53.5625 
Q 30.078125 56 35.796875 56 
Q 45.21875 56 50.046875 50.171875 
Q 54.890625 44.34375 54.890625 33.015625 
z
" id="DejaVuSans-104"/>
      <path d="M 18.109375 8.203125 
L 18.109375 -20.796875 
L 9.078125 -20.796875 
L 9.078125 54.6875 
L 18.109375 54.6875 
L 18.109375 46.390625 
Q 20.953125 51.265625 25.265625 53.625 
Q 29.59375 56 35.59375 56 
Q 45.5625 56 51.78125 48.09375 
Q 58.015625 40.1875 58.015625 27.296875 
Q 58.015625 14.40625 51.78125 6.484375 
Q 45.5625 -1.421875 35.59375 -1.421875 
Q 29.59375 -1.421875 25.265625 0.953125 
Q 20.953125 3.328125 18.109375 8.203125 
z
M 48.6875 27.296875 
Q 48.6875 37.203125 44.609375 42.84375 
Q 40.53125 48.484375 33.40625 48.484375 
Q 26.265625 48.484375 22.1875 42.84375 
Q 18.109375 37.203125 18.109375 27.296875 
Q 18.109375 17.390625 22.1875 11.75 
Q 26.265625 6.109375 33.40625 6.109375 
Q 40.53125 6.109375 44.609375 11.75 
Q 48.6875 17.390625 48.6875 27.296875 
z
" id="DejaVuSans-112"/>
     </defs>
     <use xlink:href="#DejaVuSans-75"/>
     <use x="63.826172" xlink:href="#DejaVuSans-97"/>
     <use x="125.105469" xlink:href="#DejaVuSans-108"/>
     <use x="152.888672" xlink:href="#DejaVuSans-109"/>
     <use x="250.300781" xlink:href="#DejaVuSans-97"/>
     <use x="311.580078" xlink:href="#DejaVuSans-110"/>
     <use x="374.958984" xlink:href="#DejaVuSans-32"/>
     <use x="406.746094" xlink:href="#DejaVuSans-102"/>
     <use x="441.951172" xlink:href="#DejaVuSans-105"/>
     <use x="469.734375" xlink:href="#DejaVuSans-108"/>
     <use x="497.517578" xlink:href="#DejaVuSans-116"/>
     <use x="536.726562" xlink:href="#DejaVuSans-101"/>
     <use x="598.25" xlink:href="#DejaVuSans-114"/>
     <use x="639.363281" xlink:href="#DejaVuSans-32"/>
     <use x="671.150391" xlink:href="#DejaVuSans-116"/>
     <use x="710.359375" xlink:href="#DejaVuSans-114"/>
     <use x="751.472656" xlink:href="#DejaVuSans-97"/>
     <use x="812.751953" xlink:href="#DejaVuSans-99"/>
     <use x="867.732422" xlink:href="#DejaVuSans-107"/>
     <use x="925.642578" xlink:href="#DejaVuSans-105"/>
     <use x="953.425781" xlink:href="#DejaVuSans-110"/>
     <use x="1016.804688" xlink:href="#DejaVuSans-103"/>
     <use x="1080.28125" xlink:href="#DejaVuSans-32"/>
     <use x="1112.068359" xlink:href="#DejaVuSans-97"/>
     <use x="1173.347656" xlink:href="#DejaVuSans-110"/>
     <use x="1236.726562" xlink:href="#DejaVuSans-100"/>
     <use x="1300.203125" xlink:href="#DejaVuSans-32"/>
     <use x="1331.990234" xlink:href="#DejaVuSans-102"/>
     <use x="1367.195312" xlink:href="#DejaVuSans-117"/>
     <use x="1430.574219" xlink:href="#DejaVuSans-115"/>
     <use x="1482.673828" xlink:href="#DejaVuSans-105"/>
     <use x="1510.457031" xlink:href="#DejaVuSans-111"/>
     <use x="1571.638672" xlink:href="#DejaVuSans-110"/>
     <use x="1635.017578" xlink:href="#DejaVuSans-32"/>
     <use x="1666.804688" xlink:href="#DejaVuSans-117"/>
     <use x="1730.183594" xlink:href="#DejaVuSans-110"/>
     <use x="1793.5625" xlink:href="#DejaVuSans-100"/>
     <use x="1857.039062" xlink:href="#DejaVuSans-101"/>
     <use x="1918.5625" xlink:href="#DejaVuSans-114"/>
     <use x="1959.675781" xlink:href="#DejaVuSans-32"/>
     <use x="1991.462891" xlink:href="#DejaVuSans-116"/>
     <use x="2030.671875" xlink:href="#DejaVuSans-104"/>
     <use x="2094.050781" xlink:href="#DejaVuSans-101"/>
     <use x="2155.574219" xlink:href="#DejaVuSans-32"/>
     <use x="2187.361328" xlink:href="#DejaVuSans-101"/>
     <use x="2248.884766" xlink:href="#DejaVuSans-114"/>
     <use x="2288.248047" xlink:href="#DejaVuSans-114"/>
     <use x="2327.111328" xlink:href="#DejaVuSans-111"/>
     <use x="2388.292969" xlink:href="#DejaVuSans-114"/>
     <use x="2429.40625" xlink:href="#DejaVuSans-32"/>
     <use x="2461.193359" xlink:href="#DejaVuSans-105"/>
     <use x="2488.976562" xlink:href="#DejaVuSans-110"/>
     <use x="2552.355469" xlink:href="#DejaVuSans-100"/>
     <use x="2615.832031" xlink:href="#DejaVuSans-101"/>
     <use x="2677.355469" xlink:href="#DejaVuSans-112"/>
     <use x="2740.832031" xlink:href="#DejaVuSans-101"/>
     <use x="2802.355469" xlink:href="#DejaVuSans-110"/>
     <use x="2865.734375" xlink:href="#DejaVuSans-100"/>
     <use x="2929.210938" xlink:href="#DejaVuSans-101"/>
     <use x="2990.734375" xlink:href="#DejaVuSans-110"/>
     <use x="3054.113281" xlink:href="#DejaVuSans-99"/>
     <use x="3109.09375" xlink:href="#DejaVuSans-101"/>
     <use x="3170.617188" xlink:href="#DejaVuSans-32"/>
     <use x="3202.404297" xlink:href="#DejaVuSans-97"/>
     <use x="3263.683594" xlink:href="#DejaVuSans-115"/>
     <use x="3315.783203" xlink:href="#DejaVuSans-115"/>
     <use x="3367.882812" xlink:href="#DejaVuSans-117"/>
     <use x="3431.261719" xlink:href="#DejaVuSans-109"/>
     <use x="3528.673828" xlink:href="#DejaVuSans-112"/>
     <use x="3592.150391" xlink:href="#DejaVuSans-116"/>
     <use x="3631.359375" xlink:href="#DejaVuSans-105"/>
     <use x="3659.142578" xlink:href="#DejaVuSans-111"/>
     <use x="3720.324219" xlink:href="#DejaVuSans-110"/>
    </g>
   </g>
   <g id="legend_1">
    <g id="patch_73">
     <path d="M 52.29 122.94875 
L 190.763437 122.94875 
Q 192.763437 122.94875 192.763437 120.94875 
L 192.763437 33.88 
Q 192.763437 31.88 190.763437 31.88 
L 52.29 31.88 
Q 50.29 31.88 50.29 33.88 
L 50.29 120.94875 
Q 50.29 122.94875 52.29 122.94875 
z
" style="fill:#ffffff;opacity:0.8;stroke:#cccccc;stroke-linejoin:miter;"/>
    </g>
    <g id="line2d_16">
     <path d="M 54.29 39.978438 
L 74.29 39.978438 
" style="fill:none;stroke:#1f77b4;stroke-dasharray:5.55,2.4;stroke-dashoffset:0;stroke-width:1.5;"/>
    </g>
    <g id="line2d_17"/>
    <g id="text_18">
     <!-- Ground truth -->
     <g transform="translate(82.29 43.478438)scale(0.1 -0.1)">
      <defs>
       <path d="M 59.515625 10.40625 
L 59.515625 29.984375 
L 43.40625 29.984375 
L 43.40625 38.09375 
L 69.28125 38.09375 
L 69.28125 6.78125 
Q 63.578125 2.734375 56.6875 0.65625 
Q 49.8125 -1.421875 42 -1.421875 
Q 24.90625 -1.421875 15.25 8.5625 
Q 5.609375 18.5625 5.609375 36.375 
Q 5.609375 54.25 15.25 64.234375 
Q 24.90625 74.21875 42 74.21875 
Q 49.125 74.21875 55.546875 72.453125 
Q 61.96875 70.703125 67.390625 67.28125 
L 67.390625 56.78125 
Q 61.921875 61.421875 55.765625 63.765625 
Q 49.609375 66.109375 42.828125 66.109375 
Q 29.4375 66.109375 22.71875 58.640625 
Q 16.015625 51.171875 16.015625 36.375 
Q 16.015625 21.625 22.71875 14.15625 
Q 29.4375 6.6875 42.828125 6.6875 
Q 48.046875 6.6875 52.140625 7.59375 
Q 56.25 8.5 59.515625 10.40625 
z
" id="DejaVuSans-71"/>
      </defs>
      <use xlink:href="#DejaVuSans-71"/>
      <use x="77.490234" xlink:href="#DejaVuSans-114"/>
      <use x="116.353516" xlink:href="#DejaVuSans-111"/>
      <use x="177.535156" xlink:href="#DejaVuSans-117"/>
      <use x="240.914062" xlink:href="#DejaVuSans-110"/>
      <use x="304.292969" xlink:href="#DejaVuSans-100"/>
      <use x="367.769531" xlink:href="#DejaVuSans-32"/>
      <use x="399.556641" xlink:href="#DejaVuSans-116"/>
      <use x="438.765625" xlink:href="#DejaVuSans-114"/>
      <use x="479.878906" xlink:href="#DejaVuSans-117"/>
      <use x="543.257812" xlink:href="#DejaVuSans-116"/>
      <use x="582.466797" xlink:href="#DejaVuSans-104"/>
     </g>
    </g>
    <g id="patch_74">
     <path d="M 54.29 58.156563 
L 74.29 58.156563 
L 74.29 51.156563 
L 54.29 51.156563 
z
" style="fill:#ff0000;opacity:0.2;stroke:#ff0000;stroke-linejoin:miter;"/>
    </g>
    <g id="text_19">
     <!-- Posterior AIS -->
     <g transform="translate(82.29 58.156563)scale(0.1 -0.1)">
      <defs>
       <path d="M 19.671875 64.796875 
L 19.671875 37.40625 
L 32.078125 37.40625 
Q 38.96875 37.40625 42.71875 40.96875 
Q 46.484375 44.53125 46.484375 51.125 
Q 46.484375 57.671875 42.71875 61.234375 
Q 38.96875 64.796875 32.078125 64.796875 
z
M 9.8125 72.90625 
L 32.078125 72.90625 
Q 44.34375 72.90625 50.609375 67.359375 
Q 56.890625 61.8125 56.890625 51.125 
Q 56.890625 40.328125 50.609375 34.8125 
Q 44.34375 29.296875 32.078125 29.296875 
L 19.671875 29.296875 
L 19.671875 0 
L 9.8125 0 
z
" id="DejaVuSans-80"/>
       <path d="M 34.1875 63.1875 
L 20.796875 26.90625 
L 47.609375 26.90625 
z
M 28.609375 72.90625 
L 39.796875 72.90625 
L 67.578125 0 
L 57.328125 0 
L 50.6875 18.703125 
L 17.828125 18.703125 
L 11.1875 0 
L 0.78125 0 
z
" id="DejaVuSans-65"/>
       <path d="M 9.8125 72.90625 
L 19.671875 72.90625 
L 19.671875 0 
L 9.8125 0 
z
" id="DejaVuSans-73"/>
       <path d="M 53.515625 70.515625 
L 53.515625 60.890625 
Q 47.90625 63.578125 42.921875 64.890625 
Q 37.9375 66.21875 33.296875 66.21875 
Q 25.25 66.21875 20.875 63.09375 
Q 16.5 59.96875 16.5 54.203125 
Q 16.5 49.359375 19.40625 46.890625 
Q 22.3125 44.4375 30.421875 42.921875 
L 36.375 41.703125 
Q 47.40625 39.59375 52.65625 34.296875 
Q 57.90625 29 57.90625 20.125 
Q 57.90625 9.515625 50.796875 4.046875 
Q 43.703125 -1.421875 29.984375 -1.421875 
Q 24.8125 -1.421875 18.96875 -0.25 
Q 13.140625 0.921875 6.890625 3.21875 
L 6.890625 13.375 
Q 12.890625 10.015625 18.65625 8.296875 
Q 24.421875 6.59375 29.984375 6.59375 
Q 38.421875 6.59375 43.015625 9.90625 
Q 47.609375 13.234375 47.609375 19.390625 
Q 47.609375 24.75 44.3125 27.78125 
Q 41.015625 30.8125 33.5 32.328125 
L 27.484375 33.5 
Q 16.453125 35.6875 11.515625 40.375 
Q 6.59375 45.0625 6.59375 53.421875 
Q 6.59375 63.09375 13.40625 68.65625 
Q 20.21875 74.21875 32.171875 74.21875 
Q 37.3125 74.21875 42.625 73.28125 
Q 47.953125 72.359375 53.515625 70.515625 
z
" id="DejaVuSans-83"/>
      </defs>
      <use xlink:href="#DejaVuSans-80"/>
      <use x="56.677734" xlink:href="#DejaVuSans-111"/>
      <use x="117.859375" xlink:href="#DejaVuSans-115"/>
      <use x="169.958984" xlink:href="#DejaVuSans-116"/>
      <use x="209.167969" xlink:href="#DejaVuSans-101"/>
      <use x="270.691406" xlink:href="#DejaVuSans-114"/>
      <use x="311.804688" xlink:href="#DejaVuSans-105"/>
      <use x="339.587891" xlink:href="#DejaVuSans-111"/>
      <use x="400.769531" xlink:href="#DejaVuSans-114"/>
      <use x="441.882812" xlink:href="#DejaVuSans-32"/>
      <use x="473.669922" xlink:href="#DejaVuSans-65"/>
      <use x="542.078125" xlink:href="#DejaVuSans-73"/>
      <use x="571.570312" xlink:href="#DejaVuSans-83"/>
     </g>
    </g>
    <g id="patch_75">
     <path d="M 54.29 72.834688 
L 74.29 72.834688 
L 74.29 65.834688 
L 54.29 65.834688 
z
" style="fill:#0000ff;opacity:0.2;stroke:#0000ff;stroke-linejoin:miter;"/>
    </g>
    <g id="text_20">
     <!-- Posterior Radar -->
     <g transform="translate(82.29 72.834688)scale(0.1 -0.1)">
      <defs>
       <path d="M 44.390625 34.1875 
Q 47.5625 33.109375 50.5625 29.59375 
Q 53.5625 26.078125 56.59375 19.921875 
L 66.609375 0 
L 56 0 
L 46.6875 18.703125 
Q 43.0625 26.03125 39.671875 28.421875 
Q 36.28125 30.8125 30.421875 30.8125 
L 19.671875 30.8125 
L 19.671875 0 
L 9.8125 0 
L 9.8125 72.90625 
L 32.078125 72.90625 
Q 44.578125 72.90625 50.734375 67.671875 
Q 56.890625 62.453125 56.890625 51.90625 
Q 56.890625 45.015625 53.6875 40.46875 
Q 50.484375 35.9375 44.390625 34.1875 
z
M 19.671875 64.796875 
L 19.671875 38.921875 
L 32.078125 38.921875 
Q 39.203125 38.921875 42.84375 42.21875 
Q 46.484375 45.515625 46.484375 51.90625 
Q 46.484375 58.296875 42.84375 61.546875 
Q 39.203125 64.796875 32.078125 64.796875 
z
" id="DejaVuSans-82"/>
      </defs>
      <use xlink:href="#DejaVuSans-80"/>
      <use x="56.677734" xlink:href="#DejaVuSans-111"/>
      <use x="117.859375" xlink:href="#DejaVuSans-115"/>
      <use x="169.958984" xlink:href="#DejaVuSans-116"/>
      <use x="209.167969" xlink:href="#DejaVuSans-101"/>
      <use x="270.691406" xlink:href="#DejaVuSans-114"/>
      <use x="311.804688" xlink:href="#DejaVuSans-105"/>
      <use x="339.587891" xlink:href="#DejaVuSans-111"/>
      <use x="400.769531" xlink:href="#DejaVuSans-114"/>
      <use x="441.882812" xlink:href="#DejaVuSans-32"/>
      <use x="473.669922" xlink:href="#DejaVuSans-82"/>
      <use x="540.902344" xlink:href="#DejaVuSans-97"/>
      <use x="602.181641" xlink:href="#DejaVuSans-100"/>
      <use x="665.658203" xlink:href="#DejaVuSans-97"/>
      <use x="726.9375" xlink:href="#DejaVuSans-114"/>
     </g>
    </g>
    <g id="patch_76">
     <path d="M 54.29 87.512813 
L 74.29 87.512813 
L 74.29 80.512813 
L 54.29 80.512813 
z
" style="fill:#008000;opacity:0.5;stroke:#008000;stroke-linejoin:miter;"/>
    </g>
    <g id="text_21">
     <!-- Posterior Fused -->
     <g transform="translate(82.29 87.512813)scale(0.1 -0.1)">
      <defs>
       <path d="M 9.8125 72.90625 
L 51.703125 72.90625 
L 51.703125 64.59375 
L 19.671875 64.59375 
L 19.671875 43.109375 
L 48.578125 43.109375 
L 48.578125 34.8125 
L 19.671875 34.8125 
L 19.671875 0 
L 9.8125 0 
z
" id="DejaVuSans-70"/>
      </defs>
      <use xlink:href="#DejaVuSans-80"/>
      <use x="56.677734" xlink:href="#DejaVuSans-111"/>
      <use x="117.859375" xlink:href="#DejaVuSans-115"/>
      <use x="169.958984" xlink:href="#DejaVuSans-116"/>
      <use x="209.167969" xlink:href="#DejaVuSans-101"/>
      <use x="270.691406" xlink:href="#DejaVuSans-114"/>
      <use x="311.804688" xlink:href="#DejaVuSans-105"/>
      <use x="339.587891" xlink:href="#DejaVuSans-111"/>
      <use x="400.769531" xlink:href="#DejaVuSans-114"/>
      <use x="441.882812" xlink:href="#DejaVuSans-32"/>
      <use x="473.669922" xlink:href="#DejaVuSans-70"/>
      <use x="525.689453" xlink:href="#DejaVuSans-117"/>
      <use x="589.068359" xlink:href="#DejaVuSans-115"/>
      <use x="641.167969" xlink:href="#DejaVuSans-101"/>
      <use x="702.691406" xlink:href="#DejaVuSans-100"/>
     </g>
    </g>
    <g id="PathCollection_3">
     <g>
      <use style="fill:#0000ff;stroke:#0000ff;" x="64.29" xlink:href="#mbf58ea5056" y="99.565938"/>
     </g>
    </g>
    <g id="text_22">
     <!-- Measurements Radar -->
     <g transform="translate(82.29 102.190938)scale(0.1 -0.1)">
      <defs>
       <path d="M 9.8125 72.90625 
L 24.515625 72.90625 
L 43.109375 23.296875 
L 61.8125 72.90625 
L 76.515625 72.90625 
L 76.515625 0 
L 66.890625 0 
L 66.890625 64.015625 
L 48.09375 14.015625 
L 38.1875 14.015625 
L 19.390625 64.015625 
L 19.390625 0 
L 9.8125 0 
z
" id="DejaVuSans-77"/>
      </defs>
      <use xlink:href="#DejaVuSans-77"/>
      <use x="86.279297" xlink:href="#DejaVuSans-101"/>
      <use x="147.802734" xlink:href="#DejaVuSans-97"/>
      <use x="209.082031" xlink:href="#DejaVuSans-115"/>
      <use x="261.181641" xlink:href="#DejaVuSans-117"/>
      <use x="324.560547" xlink:href="#DejaVuSans-114"/>
      <use x="363.423828" xlink:href="#DejaVuSans-101"/>
      <use x="424.947266" xlink:href="#DejaVuSans-109"/>
      <use x="522.359375" xlink:href="#DejaVuSans-101"/>
      <use x="583.882812" xlink:href="#DejaVuSans-110"/>
      <use x="647.261719" xlink:href="#DejaVuSans-116"/>
      <use x="686.470703" xlink:href="#DejaVuSans-115"/>
      <use x="738.570312" xlink:href="#DejaVuSans-32"/>
      <use x="770.357422" xlink:href="#DejaVuSans-82"/>
      <use x="837.589844" xlink:href="#DejaVuSans-97"/>
      <use x="898.869141" xlink:href="#DejaVuSans-100"/>
      <use x="962.345703" xlink:href="#DejaVuSans-97"/>
      <use x="1023.625" xlink:href="#DejaVuSans-114"/>
     </g>
    </g>
    <g id="PathCollection_4">
     <g>
      <use style="fill:#ff0000;stroke:#ff0000;" x="64.29" xlink:href="#me9e7e490eb" y="114.244063"/>
     </g>
    </g>
    <g id="text_23">
     <!-- Measurements AIS -->
     <g transform="translate(82.29 116.869063)scale(0.1 -0.1)">
      <use xlink:href="#DejaVuSans-77"/>
      <use x="86.279297" xlink:href="#DejaVuSans-101"/>
      <use x="147.802734" xlink:href="#DejaVuSans-97"/>
      <use x="209.082031" xlink:href="#DejaVuSans-115"/>
      <use x="261.181641" xlink:href="#DejaVuSans-117"/>
      <use x="324.560547" xlink:href="#DejaVuSans-114"/>
      <use x="363.423828" xlink:href="#DejaVuSans-101"/>
      <use x="424.947266" xlink:href="#DejaVuSans-109"/>
      <use x="522.359375" xlink:href="#DejaVuSans-101"/>
      <use x="583.882812" xlink:href="#DejaVuSans-110"/>
      <use x="647.261719" xlink:href="#DejaVuSans-116"/>
      <use x="686.470703" xlink:href="#DejaVuSans-115"/>
      <use x="738.570312" xlink:href="#DejaVuSans-32"/>
      <use x="770.357422" xlink:href="#DejaVuSans-65"/>
      <use x="838.765625" xlink:href="#DejaVuSans-73"/>
      <use x="868.257812" xlink:href="#DejaVuSans-83"/>
     </g>
    </g>
   </g>
  </g>
 </g>
 <defs>
  <clipPath id="pe146278997">
   <rect height="363.16" width="663.91" x="45.29" y="26.88"/>
  </clipPath>
 </defs>
</svg>
