<?xml version="1.0" encoding="utf-8" standalone="no"?>
<!DOCTYPE svg PUBLIC "-//W3C//DTD SVG 1.1//EN"
  "http://www.w3.org/Graphics/SVG/1.1/DTD/svg11.dtd">
<!-- Created with matplotlib (https://matplotlib.org/) -->
<svg height="432pt" version="1.1" viewBox="0 0 720 432" width="720pt" xmlns="http://www.w3.org/2000/svg" xmlns:xlink="http://www.w3.org/1999/xlink">
 <metadata>
  <rdf:RDF xmlns:cc="http://creativecommons.org/ns#" xmlns:dc="http://purl.org/dc/elements/1.1/" xmlns:rdf="http://www.w3.org/1999/02/22-rdf-syntax-ns#">
   <cc:Work>
    <dc:type rdf:resource="http://purl.org/dc/dcmitype/StillImage"/>
    <dc:date>2020-10-14T10:37:16.822935</dc:date>
    <dc:format>image/svg+xml</dc:format>
    <dc:creator>
     <cc:Agent>
      <dc:title>Matplotlib v3.3.1, https://matplotlib.org/</dc:title>
     </cc:Agent>
    </dc:creator>
   </cc:Work>
  </rdf:RDF>
 </metadata>
 <defs>
  <style type="text/css">*{stroke-linecap:butt;stroke-linejoin:round;}</style>
 </defs>
 <g id="figure_1">
  <g id="patch_1">
   <path d="M 0 432 
L 720 432 
L 720 0 
L 0 0 
z
" style="fill:#ffffff;"/>
  </g>
  <g id="axes_1">
   <g id="patch_2">
    <path d="M 47.63 390.04 
L 709.2 390.04 
L 709.2 10.8 
L 47.63 10.8 
z
" style="fill:#ffffff;"/>
   </g>
   <g id="matplotlib.axis_1">
    <g id="xtick_1">
     <g id="line2d_1">
      <defs>
       <path d="M 0 0 
L 0 3.5 
" id="m48af07bbf0" style="stroke:#000000;stroke-width:0.8;"/>
      </defs>
      <g>
       <use style="stroke:#000000;stroke-width:0.8;" x="77.701364" xlink:href="#m48af07bbf0" y="390.04"/>
      </g>
     </g>
     <g id="text_1">
      <!-- 0 -->
      <g transform="translate(74.520114 404.638438)scale(0.1 -0.1)">
       <defs>
        <path d="M 31.78125 66.40625 
Q 24.171875 66.40625 20.328125 58.90625 
Q 16.5 51.421875 16.5 36.375 
Q 16.5 21.390625 20.328125 13.890625 
Q 24.171875 6.390625 31.78125 6.390625 
Q 39.453125 6.390625 43.28125 13.890625 
Q 47.125 21.390625 47.125 36.375 
Q 47.125 51.421875 43.28125 58.90625 
Q 39.453125 66.40625 31.78125 66.40625 
z
M 31.78125 74.21875 
Q 44.046875 74.21875 50.515625 64.515625 
Q 56.984375 54.828125 56.984375 36.375 
Q 56.984375 17.96875 50.515625 8.265625 
Q 44.046875 -1.421875 31.78125 -1.421875 
Q 19.53125 -1.421875 13.0625 8.265625 
Q 6.59375 17.96875 6.59375 36.375 
Q 6.59375 54.828125 13.0625 64.515625 
Q 19.53125 74.21875 31.78125 74.21875 
z
" id="DejaVuSans-48"/>
       </defs>
       <use xlink:href="#DejaVuSans-48"/>
      </g>
     </g>
    </g>
    <g id="xtick_2">
     <g id="line2d_2">
      <g>
       <use style="stroke:#000000;stroke-width:0.8;" x="198.227871" xlink:href="#m48af07bbf0" y="390.04"/>
      </g>
     </g>
     <g id="text_2">
      <!-- 100 -->
      <g transform="translate(188.684121 404.638438)scale(0.1 -0.1)">
       <defs>
        <path d="M 12.40625 8.296875 
L 28.515625 8.296875 
L 28.515625 63.921875 
L 10.984375 60.40625 
L 10.984375 69.390625 
L 28.421875 72.90625 
L 38.28125 72.90625 
L 38.28125 8.296875 
L 54.390625 8.296875 
L 54.390625 0 
L 12.40625 0 
z
" id="DejaVuSans-49"/>
       </defs>
       <use xlink:href="#DejaVuSans-49"/>
       <use x="63.623047" xlink:href="#DejaVuSans-48"/>
       <use x="127.246094" xlink:href="#DejaVuSans-48"/>
      </g>
     </g>
    </g>
    <g id="xtick_3">
     <g id="line2d_3">
      <g>
       <use style="stroke:#000000;stroke-width:0.8;" x="318.754379" xlink:href="#m48af07bbf0" y="390.04"/>
      </g>
     </g>
     <g id="text_3">
      <!-- 200 -->
      <g transform="translate(309.210629 404.638438)scale(0.1 -0.1)">
       <defs>
        <path d="M 19.1875 8.296875 
L 53.609375 8.296875 
L 53.609375 0 
L 7.328125 0 
L 7.328125 8.296875 
Q 12.9375 14.109375 22.625 23.890625 
Q 32.328125 33.6875 34.8125 36.53125 
Q 39.546875 41.84375 41.421875 45.53125 
Q 43.3125 49.21875 43.3125 52.78125 
Q 43.3125 58.59375 39.234375 62.25 
Q 35.15625 65.921875 28.609375 65.921875 
Q 23.96875 65.921875 18.8125 64.3125 
Q 13.671875 62.703125 7.8125 59.421875 
L 7.8125 69.390625 
Q 13.765625 71.78125 18.9375 73 
Q 24.125 74.21875 28.421875 74.21875 
Q 39.75 74.21875 46.484375 68.546875 
Q 53.21875 62.890625 53.21875 53.421875 
Q 53.21875 48.921875 51.53125 44.890625 
Q 49.859375 40.875 45.40625 35.40625 
Q 44.1875 33.984375 37.640625 27.21875 
Q 31.109375 20.453125 19.1875 8.296875 
z
" id="DejaVuSans-50"/>
       </defs>
       <use xlink:href="#DejaVuSans-50"/>
       <use x="63.623047" xlink:href="#DejaVuSans-48"/>
       <use x="127.246094" xlink:href="#DejaVuSans-48"/>
      </g>
     </g>
    </g>
    <g id="xtick_4">
     <g id="line2d_4">
      <g>
       <use style="stroke:#000000;stroke-width:0.8;" x="439.280886" xlink:href="#m48af07bbf0" y="390.04"/>
      </g>
     </g>
     <g id="text_4">
      <!-- 300 -->
      <g transform="translate(429.737136 404.638438)scale(0.1 -0.1)">
       <defs>
        <path d="M 40.578125 39.3125 
Q 47.65625 37.796875 51.625 33 
Q 55.609375 28.21875 55.609375 21.1875 
Q 55.609375 10.40625 48.1875 4.484375 
Q 40.765625 -1.421875 27.09375 -1.421875 
Q 22.515625 -1.421875 17.65625 -0.515625 
Q 12.796875 0.390625 7.625 2.203125 
L 7.625 11.71875 
Q 11.71875 9.328125 16.59375 8.109375 
Q 21.484375 6.890625 26.8125 6.890625 
Q 36.078125 6.890625 40.9375 10.546875 
Q 45.796875 14.203125 45.796875 21.1875 
Q 45.796875 27.640625 41.28125 31.265625 
Q 36.765625 34.90625 28.71875 34.90625 
L 20.21875 34.90625 
L 20.21875 43.015625 
L 29.109375 43.015625 
Q 36.375 43.015625 40.234375 45.921875 
Q 44.09375 48.828125 44.09375 54.296875 
Q 44.09375 59.90625 40.109375 62.90625 
Q 36.140625 65.921875 28.71875 65.921875 
Q 24.65625 65.921875 20.015625 65.03125 
Q 15.375 64.15625 9.8125 62.3125 
L 9.8125 71.09375 
Q 15.4375 72.65625 20.34375 73.4375 
Q 25.25 74.21875 29.59375 74.21875 
Q 40.828125 74.21875 47.359375 69.109375 
Q 53.90625 64.015625 53.90625 55.328125 
Q 53.90625 49.265625 50.4375 45.09375 
Q 46.96875 40.921875 40.578125 39.3125 
z
" id="DejaVuSans-51"/>
       </defs>
       <use xlink:href="#DejaVuSans-51"/>
       <use x="63.623047" xlink:href="#DejaVuSans-48"/>
       <use x="127.246094" xlink:href="#DejaVuSans-48"/>
      </g>
     </g>
    </g>
    <g id="xtick_5">
     <g id="line2d_5">
      <g>
       <use style="stroke:#000000;stroke-width:0.8;" x="559.807394" xlink:href="#m48af07bbf0" y="390.04"/>
      </g>
     </g>
     <g id="text_5">
      <!-- 400 -->
      <g transform="translate(550.263644 404.638438)scale(0.1 -0.1)">
       <defs>
        <path d="M 37.796875 64.3125 
L 12.890625 25.390625 
L 37.796875 25.390625 
z
M 35.203125 72.90625 
L 47.609375 72.90625 
L 47.609375 25.390625 
L 58.015625 25.390625 
L 58.015625 17.1875 
L 47.609375 17.1875 
L 47.609375 0 
L 37.796875 0 
L 37.796875 17.1875 
L 4.890625 17.1875 
L 4.890625 26.703125 
z
" id="DejaVuSans-52"/>
       </defs>
       <use xlink:href="#DejaVuSans-52"/>
       <use x="63.623047" xlink:href="#DejaVuSans-48"/>
       <use x="127.246094" xlink:href="#DejaVuSans-48"/>
      </g>
     </g>
    </g>
    <g id="xtick_6">
     <g id="line2d_6">
      <g>
       <use style="stroke:#000000;stroke-width:0.8;" x="680.333901" xlink:href="#m48af07bbf0" y="390.04"/>
      </g>
     </g>
     <g id="text_6">
      <!-- 500 -->
      <g transform="translate(670.790151 404.638438)scale(0.1 -0.1)">
       <defs>
        <path d="M 10.796875 72.90625 
L 49.515625 72.90625 
L 49.515625 64.59375 
L 19.828125 64.59375 
L 19.828125 46.734375 
Q 21.96875 47.46875 24.109375 47.828125 
Q 26.265625 48.1875 28.421875 48.1875 
Q 40.625 48.1875 47.75 41.5 
Q 54.890625 34.8125 54.890625 23.390625 
Q 54.890625 11.625 47.5625 5.09375 
Q 40.234375 -1.421875 26.90625 -1.421875 
Q 22.3125 -1.421875 17.546875 -0.640625 
Q 12.796875 0.140625 7.71875 1.703125 
L 7.71875 11.625 
Q 12.109375 9.234375 16.796875 8.0625 
Q 21.484375 6.890625 26.703125 6.890625 
Q 35.15625 6.890625 40.078125 11.328125 
Q 45.015625 15.765625 45.015625 23.390625 
Q 45.015625 31 40.078125 35.4375 
Q 35.15625 39.890625 26.703125 39.890625 
Q 22.75 39.890625 18.8125 39.015625 
Q 14.890625 38.140625 10.796875 36.28125 
z
" id="DejaVuSans-53"/>
       </defs>
       <use xlink:href="#DejaVuSans-53"/>
       <use x="63.623047" xlink:href="#DejaVuSans-48"/>
       <use x="127.246094" xlink:href="#DejaVuSans-48"/>
      </g>
     </g>
    </g>
    <g id="text_7">
     <!-- MC iterations -->
     <g transform="translate(345.293125 418.316562)scale(0.1 -0.1)">
      <defs>
       <path d="M 9.8125 72.90625 
L 24.515625 72.90625 
L 43.109375 23.296875 
L 61.8125 72.90625 
L 76.515625 72.90625 
L 76.515625 0 
L 66.890625 0 
L 66.890625 64.015625 
L 48.09375 14.015625 
L 38.1875 14.015625 
L 19.390625 64.015625 
L 19.390625 0 
L 9.8125 0 
z
" id="DejaVuSans-77"/>
       <path d="M 64.40625 67.28125 
L 64.40625 56.890625 
Q 59.421875 61.53125 53.78125 63.8125 
Q 48.140625 66.109375 41.796875 66.109375 
Q 29.296875 66.109375 22.65625 58.46875 
Q 16.015625 50.828125 16.015625 36.375 
Q 16.015625 21.96875 22.65625 14.328125 
Q 29.296875 6.6875 41.796875 6.6875 
Q 48.140625 6.6875 53.78125 8.984375 
Q 59.421875 11.28125 64.40625 15.921875 
L 64.40625 5.609375 
Q 59.234375 2.09375 53.4375 0.328125 
Q 47.65625 -1.421875 41.21875 -1.421875 
Q 24.65625 -1.421875 15.125 8.703125 
Q 5.609375 18.84375 5.609375 36.375 
Q 5.609375 53.953125 15.125 64.078125 
Q 24.65625 74.21875 41.21875 74.21875 
Q 47.75 74.21875 53.53125 72.484375 
Q 59.328125 70.75 64.40625 67.28125 
z
" id="DejaVuSans-67"/>
       <path id="DejaVuSans-32"/>
       <path d="M 9.421875 54.6875 
L 18.40625 54.6875 
L 18.40625 0 
L 9.421875 0 
z
M 9.421875 75.984375 
L 18.40625 75.984375 
L 18.40625 64.59375 
L 9.421875 64.59375 
z
" id="DejaVuSans-105"/>
       <path d="M 18.3125 70.21875 
L 18.3125 54.6875 
L 36.8125 54.6875 
L 36.8125 47.703125 
L 18.3125 47.703125 
L 18.3125 18.015625 
Q 18.3125 11.328125 20.140625 9.421875 
Q 21.96875 7.515625 27.59375 7.515625 
L 36.8125 7.515625 
L 36.8125 0 
L 27.59375 0 
Q 17.1875 0 13.234375 3.875 
Q 9.28125 7.765625 9.28125 18.015625 
L 9.28125 47.703125 
L 2.6875 47.703125 
L 2.6875 54.6875 
L 9.28125 54.6875 
L 9.28125 70.21875 
z
" id="DejaVuSans-116"/>
       <path d="M 56.203125 29.59375 
L 56.203125 25.203125 
L 14.890625 25.203125 
Q 15.484375 15.921875 20.484375 11.0625 
Q 25.484375 6.203125 34.421875 6.203125 
Q 39.59375 6.203125 44.453125 7.46875 
Q 49.3125 8.734375 54.109375 11.28125 
L 54.109375 2.78125 
Q 49.265625 0.734375 44.1875 -0.34375 
Q 39.109375 -1.421875 33.890625 -1.421875 
Q 20.796875 -1.421875 13.15625 6.1875 
Q 5.515625 13.8125 5.515625 26.8125 
Q 5.515625 40.234375 12.765625 48.109375 
Q 20.015625 56 32.328125 56 
Q 43.359375 56 49.78125 48.890625 
Q 56.203125 41.796875 56.203125 29.59375 
z
M 47.21875 32.234375 
Q 47.125 39.59375 43.09375 43.984375 
Q 39.0625 48.390625 32.421875 48.390625 
Q 24.90625 48.390625 20.390625 44.140625 
Q 15.875 39.890625 15.1875 32.171875 
z
" id="DejaVuSans-101"/>
       <path d="M 41.109375 46.296875 
Q 39.59375 47.171875 37.8125 47.578125 
Q 36.03125 48 33.890625 48 
Q 26.265625 48 22.1875 43.046875 
Q 18.109375 38.09375 18.109375 28.8125 
L 18.109375 0 
L 9.078125 0 
L 9.078125 54.6875 
L 18.109375 54.6875 
L 18.109375 46.1875 
Q 20.953125 51.171875 25.484375 53.578125 
Q 30.03125 56 36.53125 56 
Q 37.453125 56 38.578125 55.875 
Q 39.703125 55.765625 41.0625 55.515625 
z
" id="DejaVuSans-114"/>
       <path d="M 34.28125 27.484375 
Q 23.390625 27.484375 19.1875 25 
Q 14.984375 22.515625 14.984375 16.5 
Q 14.984375 11.71875 18.140625 8.90625 
Q 21.296875 6.109375 26.703125 6.109375 
Q 34.1875 6.109375 38.703125 11.40625 
Q 43.21875 16.703125 43.21875 25.484375 
L 43.21875 27.484375 
z
M 52.203125 31.203125 
L 52.203125 0 
L 43.21875 0 
L 43.21875 8.296875 
Q 40.140625 3.328125 35.546875 0.953125 
Q 30.953125 -1.421875 24.3125 -1.421875 
Q 15.921875 -1.421875 10.953125 3.296875 
Q 6 8.015625 6 15.921875 
Q 6 25.140625 12.171875 29.828125 
Q 18.359375 34.515625 30.609375 34.515625 
L 43.21875 34.515625 
L 43.21875 35.40625 
Q 43.21875 41.609375 39.140625 45 
Q 35.0625 48.390625 27.6875 48.390625 
Q 23 48.390625 18.546875 47.265625 
Q 14.109375 46.140625 10.015625 43.890625 
L 10.015625 52.203125 
Q 14.9375 54.109375 19.578125 55.046875 
Q 24.21875 56 28.609375 56 
Q 40.484375 56 46.34375 49.84375 
Q 52.203125 43.703125 52.203125 31.203125 
z
" id="DejaVuSans-97"/>
       <path d="M 30.609375 48.390625 
Q 23.390625 48.390625 19.1875 42.75 
Q 14.984375 37.109375 14.984375 27.296875 
Q 14.984375 17.484375 19.15625 11.84375 
Q 23.34375 6.203125 30.609375 6.203125 
Q 37.796875 6.203125 41.984375 11.859375 
Q 46.1875 17.53125 46.1875 27.296875 
Q 46.1875 37.015625 41.984375 42.703125 
Q 37.796875 48.390625 30.609375 48.390625 
z
M 30.609375 56 
Q 42.328125 56 49.015625 48.375 
Q 55.71875 40.765625 55.71875 27.296875 
Q 55.71875 13.875 49.015625 6.21875 
Q 42.328125 -1.421875 30.609375 -1.421875 
Q 18.84375 -1.421875 12.171875 6.21875 
Q 5.515625 13.875 5.515625 27.296875 
Q 5.515625 40.765625 12.171875 48.375 
Q 18.84375 56 30.609375 56 
z
" id="DejaVuSans-111"/>
       <path d="M 54.890625 33.015625 
L 54.890625 0 
L 45.90625 0 
L 45.90625 32.71875 
Q 45.90625 40.484375 42.875 44.328125 
Q 39.84375 48.1875 33.796875 48.1875 
Q 26.515625 48.1875 22.3125 43.546875 
Q 18.109375 38.921875 18.109375 30.90625 
L 18.109375 0 
L 9.078125 0 
L 9.078125 54.6875 
L 18.109375 54.6875 
L 18.109375 46.1875 
Q 21.34375 51.125 25.703125 53.5625 
Q 30.078125 56 35.796875 56 
Q 45.21875 56 50.046875 50.171875 
Q 54.890625 44.34375 54.890625 33.015625 
z
" id="DejaVuSans-110"/>
       <path d="M 44.28125 53.078125 
L 44.28125 44.578125 
Q 40.484375 46.53125 36.375 47.5 
Q 32.28125 48.484375 27.875 48.484375 
Q 21.1875 48.484375 17.84375 46.4375 
Q 14.5 44.390625 14.5 40.28125 
Q 14.5 37.15625 16.890625 35.375 
Q 19.28125 33.59375 26.515625 31.984375 
L 29.59375 31.296875 
Q 39.15625 29.25 43.1875 25.515625 
Q 47.21875 21.78125 47.21875 15.09375 
Q 47.21875 7.46875 41.1875 3.015625 
Q 35.15625 -1.421875 24.609375 -1.421875 
Q 20.21875 -1.421875 15.453125 -0.5625 
Q 10.6875 0.296875 5.421875 2 
L 5.421875 11.28125 
Q 10.40625 8.6875 15.234375 7.390625 
Q 20.0625 6.109375 24.8125 6.109375 
Q 31.15625 6.109375 34.5625 8.28125 
Q 37.984375 10.453125 37.984375 14.40625 
Q 37.984375 18.0625 35.515625 20.015625 
Q 33.0625 21.96875 24.703125 23.78125 
L 21.578125 24.515625 
Q 13.234375 26.265625 9.515625 29.90625 
Q 5.8125 33.546875 5.8125 39.890625 
Q 5.8125 47.609375 11.28125 51.796875 
Q 16.75 56 26.8125 56 
Q 31.78125 56 36.171875 55.265625 
Q 40.578125 54.546875 44.28125 53.078125 
z
" id="DejaVuSans-115"/>
      </defs>
      <use xlink:href="#DejaVuSans-77"/>
      <use x="86.279297" xlink:href="#DejaVuSans-67"/>
      <use x="156.103516" xlink:href="#DejaVuSans-32"/>
      <use x="187.890625" xlink:href="#DejaVuSans-105"/>
      <use x="215.673828" xlink:href="#DejaVuSans-116"/>
      <use x="254.882812" xlink:href="#DejaVuSans-101"/>
      <use x="316.40625" xlink:href="#DejaVuSans-114"/>
      <use x="357.519531" xlink:href="#DejaVuSans-97"/>
      <use x="418.798828" xlink:href="#DejaVuSans-116"/>
      <use x="458.007812" xlink:href="#DejaVuSans-105"/>
      <use x="485.791016" xlink:href="#DejaVuSans-111"/>
      <use x="546.972656" xlink:href="#DejaVuSans-110"/>
      <use x="610.351562" xlink:href="#DejaVuSans-115"/>
     </g>
    </g>
   </g>
   <g id="matplotlib.axis_2">
    <g id="ytick_1">
     <g id="line2d_7">
      <defs>
       <path d="M 0 0 
L -3.5 0 
" id="mac65c01a7d" style="stroke:#000000;stroke-width:0.8;"/>
      </defs>
      <g>
       <use style="stroke:#000000;stroke-width:0.8;" x="47.63" xlink:href="#mac65c01a7d" y="356.252865"/>
      </g>
     </g>
     <g id="text_8">
      <!-- 3.0 -->
      <g transform="translate(24.726875 360.052084)scale(0.1 -0.1)">
       <defs>
        <path d="M 10.6875 12.40625 
L 21 12.40625 
L 21 0 
L 10.6875 0 
z
" id="DejaVuSans-46"/>
       </defs>
       <use xlink:href="#DejaVuSans-51"/>
       <use x="63.623047" xlink:href="#DejaVuSans-46"/>
       <use x="95.410156" xlink:href="#DejaVuSans-48"/>
      </g>
     </g>
    </g>
    <g id="ytick_2">
     <g id="line2d_8">
      <g>
       <use style="stroke:#000000;stroke-width:0.8;" x="47.63" xlink:href="#mac65c01a7d" y="298.121648"/>
      </g>
     </g>
     <g id="text_9">
      <!-- 3.5 -->
      <g transform="translate(24.726875 301.920866)scale(0.1 -0.1)">
       <use xlink:href="#DejaVuSans-51"/>
       <use x="63.623047" xlink:href="#DejaVuSans-46"/>
       <use x="95.410156" xlink:href="#DejaVuSans-53"/>
      </g>
     </g>
    </g>
    <g id="ytick_3">
     <g id="line2d_9">
      <g>
       <use style="stroke:#000000;stroke-width:0.8;" x="47.63" xlink:href="#mac65c01a7d" y="239.99043"/>
      </g>
     </g>
     <g id="text_10">
      <!-- 4.0 -->
      <g transform="translate(24.726875 243.789649)scale(0.1 -0.1)">
       <use xlink:href="#DejaVuSans-52"/>
       <use x="63.623047" xlink:href="#DejaVuSans-46"/>
       <use x="95.410156" xlink:href="#DejaVuSans-48"/>
      </g>
     </g>
    </g>
    <g id="ytick_4">
     <g id="line2d_10">
      <g>
       <use style="stroke:#000000;stroke-width:0.8;" x="47.63" xlink:href="#mac65c01a7d" y="181.859212"/>
      </g>
     </g>
     <g id="text_11">
      <!-- 4.5 -->
      <g transform="translate(24.726875 185.658431)scale(0.1 -0.1)">
       <use xlink:href="#DejaVuSans-52"/>
       <use x="63.623047" xlink:href="#DejaVuSans-46"/>
       <use x="95.410156" xlink:href="#DejaVuSans-53"/>
      </g>
     </g>
    </g>
    <g id="ytick_5">
     <g id="line2d_11">
      <g>
       <use style="stroke:#000000;stroke-width:0.8;" x="47.63" xlink:href="#mac65c01a7d" y="123.727995"/>
      </g>
     </g>
     <g id="text_12">
      <!-- 5.0 -->
      <g transform="translate(24.726875 127.527213)scale(0.1 -0.1)">
       <use xlink:href="#DejaVuSans-53"/>
       <use x="63.623047" xlink:href="#DejaVuSans-46"/>
       <use x="95.410156" xlink:href="#DejaVuSans-48"/>
      </g>
     </g>
    </g>
    <g id="ytick_6">
     <g id="line2d_12">
      <g>
       <use style="stroke:#000000;stroke-width:0.8;" x="47.63" xlink:href="#mac65c01a7d" y="65.596777"/>
      </g>
     </g>
     <g id="text_13">
      <!-- 5.5 -->
      <g transform="translate(24.726875 69.395996)scale(0.1 -0.1)">
       <use xlink:href="#DejaVuSans-53"/>
       <use x="63.623047" xlink:href="#DejaVuSans-46"/>
       <use x="95.410156" xlink:href="#DejaVuSans-53"/>
      </g>
     </g>
    </g>
    <g id="text_14">
     <!-- ANEES -->
     <g transform="translate(18.647187 217.073906)rotate(-90)scale(0.1 -0.1)">
      <defs>
       <path d="M 34.1875 63.1875 
L 20.796875 26.90625 
L 47.609375 26.90625 
z
M 28.609375 72.90625 
L 39.796875 72.90625 
L 67.578125 0 
L 57.328125 0 
L 50.6875 18.703125 
L 17.828125 18.703125 
L 11.1875 0 
L 0.78125 0 
z
" id="DejaVuSans-65"/>
       <path d="M 9.8125 72.90625 
L 23.09375 72.90625 
L 55.421875 11.921875 
L 55.421875 72.90625 
L 64.984375 72.90625 
L 64.984375 0 
L 51.703125 0 
L 19.390625 60.984375 
L 19.390625 0 
L 9.8125 0 
z
" id="DejaVuSans-78"/>
       <path d="M 9.8125 72.90625 
L 55.90625 72.90625 
L 55.90625 64.59375 
L 19.671875 64.59375 
L 19.671875 43.015625 
L 54.390625 43.015625 
L 54.390625 34.71875 
L 19.671875 34.71875 
L 19.671875 8.296875 
L 56.78125 8.296875 
L 56.78125 0 
L 9.8125 0 
z
" id="DejaVuSans-69"/>
       <path d="M 53.515625 70.515625 
L 53.515625 60.890625 
Q 47.90625 63.578125 42.921875 64.890625 
Q 37.9375 66.21875 33.296875 66.21875 
Q 25.25 66.21875 20.875 63.09375 
Q 16.5 59.96875 16.5 54.203125 
Q 16.5 49.359375 19.40625 46.890625 
Q 22.3125 44.4375 30.421875 42.921875 
L 36.375 41.703125 
Q 47.40625 39.59375 52.65625 34.296875 
Q 57.90625 29 57.90625 20.125 
Q 57.90625 9.515625 50.796875 4.046875 
Q 43.703125 -1.421875 29.984375 -1.421875 
Q 24.8125 -1.421875 18.96875 -0.25 
Q 13.140625 0.921875 6.890625 3.21875 
L 6.890625 13.375 
Q 12.890625 10.015625 18.65625 8.296875 
Q 24.421875 6.59375 29.984375 6.59375 
Q 38.421875 6.59375 43.015625 9.90625 
Q 47.609375 13.234375 47.609375 19.390625 
Q 47.609375 24.75 44.3125 27.78125 
Q 41.015625 30.8125 33.5 32.328125 
L 27.484375 33.5 
Q 16.453125 35.6875 11.515625 40.375 
Q 6.59375 45.0625 6.59375 53.421875 
Q 6.59375 63.09375 13.40625 68.65625 
Q 20.21875 74.21875 32.171875 74.21875 
Q 37.3125 74.21875 42.625 73.28125 
Q 47.953125 72.359375 53.515625 70.515625 
z
" id="DejaVuSans-83"/>
      </defs>
      <use xlink:href="#DejaVuSans-65"/>
      <use x="68.408203" xlink:href="#DejaVuSans-78"/>
      <use x="143.212891" xlink:href="#DejaVuSans-69"/>
      <use x="206.396484" xlink:href="#DejaVuSans-69"/>
      <use x="269.580078" xlink:href="#DejaVuSans-83"/>
     </g>
    </g>
   </g>
   <g id="line2d_13">
    <path clip-path="url(#p724711bda4)" d="M 77.701364 372.801818 
L 78.906629 336.284649 
L 80.111894 319.467719 
L 81.317159 309.258128 
L 82.522424 302.212033 
L 83.727689 296.970014 
L 84.932954 292.872053 
L 86.138219 289.553622 
L 87.343484 286.79469 
L 88.548749 284.453491 
L 89.754014 282.433997 
L 90.959279 280.668527 
L 93.36981 277.715031 
L 95.78034 275.32677 
L 98.19087 273.343466 
L 100.6014 271.662065 
L 103.01193 270.21288 
L 106.627725 268.371012 
L 110.243521 266.830739 
L 113.859316 265.517713 
L 118.680376 264.034644 
L 123.501437 262.784101 
L 129.527762 261.465658 
L 136.759352 260.150636 
L 145.196208 258.885375 
L 154.838328 257.696027 
L 165.685714 256.594478 
L 178.94363 255.492244 
L 194.612076 254.435833 
L 212.691052 253.450177 
L 234.385823 252.497788 
L 260.901655 251.569521 
L 292.238547 250.700647 
L 330.80703 249.859614 
L 379.017633 249.043111 
L 438.075621 248.274306 
L 512.802056 247.534626 
L 606.812732 246.835914 
L 679.128636 246.41352 
L 679.128636 246.41352 
" style="fill:none;stroke:#000000;stroke-linecap:square;stroke-width:1.5;"/>
   </g>
   <g id="line2d_14">
    <path clip-path="url(#p724711bda4)" d="M 77.701364 85.195323 
L 78.906629 132.694321 
L 80.111894 153.176332 
L 81.317159 165.219297 
L 82.522424 173.365681 
L 83.727689 179.341337 
L 84.932954 183.963379 
L 86.138219 187.6749 
L 87.343484 190.739586 
L 88.548749 193.325399 
L 89.754014 195.545039 
L 90.959279 197.477303 
L 93.36981 200.692913 
L 95.78034 203.277766 
L 98.19087 205.413979 
L 100.6014 207.217711 
L 103.01193 208.766986 
L 105.42246 210.116412 
L 109.038256 211.849389 
L 112.654051 213.313132 
L 116.269846 214.570742 
L 121.090906 216.001418 
L 125.911967 217.215652 
L 131.938292 218.50306 
L 139.169882 219.793977 
L 147.606738 221.041958 
L 157.248859 222.219868 
L 168.096244 223.314577 
L 181.35416 224.413204 
L 197.022606 225.468854 
L 215.101582 226.455882 
L 236.796354 227.411247 
L 263.312185 228.343734 
L 294.649077 229.217533 
L 333.21756 230.064047 
L 380.222898 230.868246 
L 439.280886 231.647097 
L 512.802056 232.385395 
L 605.607467 233.087015 
L 679.128636 233.523293 
L 679.128636 233.523293 
" style="fill:none;stroke:#000000;stroke-linecap:square;stroke-width:1.5;"/>
   </g>
   <g id="line2d_15">
    <path clip-path="url(#p724711bda4)" d="M 77.701364 28.038182 
L 78.906629 165.304103 
L 80.111894 126.984919 
L 81.317159 111.565215 
L 82.522424 116.727907 
L 83.727689 95.46626 
L 84.932954 109.195456 
L 86.138219 135.294843 
L 87.343484 133.50988 
L 88.548749 116.946998 
L 89.754014 120.256983 
L 90.959279 145.103371 
L 92.164545 136.310006 
L 93.36981 146.582561 
L 94.575075 133.189886 
L 95.78034 140.078942 
L 96.985605 144.07867 
L 98.19087 119.163986 
L 99.396135 128.765102 
L 100.6014 142.591029 
L 101.806665 147.486286 
L 103.01193 148.930309 
L 104.217195 143.921623 
L 105.42246 147.887322 
L 106.627725 148.275902 
L 107.832991 142.47666 
L 109.038256 140.531762 
L 110.243521 145.602353 
L 111.448786 148.817041 
L 112.654051 135.861873 
L 113.859316 131.305487 
L 115.064581 122.278882 
L 116.269846 123.912668 
L 117.475111 127.12235 
L 118.680376 133.422999 
L 119.885641 129.01704 
L 121.090906 128.191238 
L 122.296171 132.387091 
L 123.501437 126.054076 
L 124.706702 127.037182 
L 125.911967 130.835427 
L 127.117232 129.087305 
L 128.322497 132.419885 
L 129.527762 136.293938 
L 130.733027 135.732733 
L 131.938292 137.096898 
L 133.143557 129.552998 
L 134.348822 130.748583 
L 135.554087 133.817104 
L 136.759352 133.219959 
L 137.964617 132.198519 
L 139.169882 135.753286 
L 140.375148 141.768634 
L 142.785678 143.078467 
L 143.990943 139.119606 
L 145.196208 140.455314 
L 146.401473 135.692399 
L 147.606738 137.480633 
L 148.812003 136.157216 
L 150.017268 134.082329 
L 151.222533 128.525559 
L 153.633063 127.208736 
L 154.838328 126.235893 
L 156.043594 126.785691 
L 157.248859 128.388185 
L 158.454124 129.755542 
L 159.659389 127.824533 
L 160.864654 127.124373 
L 162.069919 128.749139 
L 163.275184 130.848583 
L 165.685714 132.144843 
L 166.890979 134.110464 
L 168.096244 134.346857 
L 169.301509 135.40431 
L 170.506774 133.473886 
L 172.917305 131.062552 
L 174.12257 128.531848 
L 175.327835 131.642674 
L 176.5331 133.341288 
L 177.738365 136.751791 
L 178.94363 135.256827 
L 180.148895 137.045024 
L 181.35416 137.509428 
L 182.559425 140.313414 
L 183.76469 138.13074 
L 184.969955 137.726416 
L 187.380486 129.88858 
L 188.585751 131.379821 
L 189.791016 131.365976 
L 190.996281 133.835438 
L 192.201546 135.260514 
L 194.612076 141.012133 
L 195.817341 141.534778 
L 197.022606 144.028665 
L 198.227871 145.021274 
L 199.433136 146.213314 
L 200.638401 141.371424 
L 201.843666 141.948634 
L 203.048931 142.897589 
L 204.254197 143.504862 
L 205.459462 142.239772 
L 206.664727 137.834705 
L 209.075257 136.413471 
L 210.280522 137.666422 
L 211.485787 138.450612 
L 212.691052 140.932231 
L 213.896317 139.589301 
L 215.101582 139.675403 
L 216.306847 138.882243 
L 217.512112 138.347498 
L 218.717377 139.339423 
L 219.922643 134.458734 
L 221.127908 133.684583 
L 222.333173 134.417186 
L 224.743703 131.815444 
L 225.948968 132.900814 
L 227.154233 135.186571 
L 228.359498 136.57315 
L 229.564763 136.964942 
L 231.975293 140.814905 
L 233.180558 138.830305 
L 235.591089 140.050908 
L 236.796354 140.160512 
L 239.206884 142.212327 
L 240.412149 143.814322 
L 242.822679 145.368377 
L 244.027944 140.185798 
L 245.233209 137.582018 
L 246.438474 138.033764 
L 247.643739 137.96114 
L 248.849004 133.383514 
L 250.054269 131.967943 
L 252.4648 134.827354 
L 253.670065 136.359982 
L 254.87533 136.830083 
L 256.080595 134.586004 
L 257.28586 133.826044 
L 258.491125 133.95706 
L 260.901655 134.022539 
L 262.10692 135.615621 
L 263.312185 135.914716 
L 264.51745 135.535736 
L 265.722715 134.060143 
L 266.927981 134.562029 
L 268.133246 134.405077 
L 269.338511 133.892697 
L 270.543776 134.682646 
L 271.749041 134.657206 
L 272.954306 135.035081 
L 274.159571 136.015776 
L 275.364836 136.576108 
L 278.980631 136.912579 
L 280.185896 136.749692 
L 281.391161 136.425416 
L 282.596426 135.651165 
L 283.801692 137.219319 
L 285.006957 136.150107 
L 286.212222 135.352095 
L 287.417487 136.60486 
L 288.622752 136.099345 
L 289.828017 136.585693 
L 291.033282 136.563334 
L 292.238547 137.267572 
L 293.443812 135.015736 
L 294.649077 134.696898 
L 295.854342 136.002749 
L 297.059607 136.744796 
L 298.264872 136.951412 
L 299.470138 132.060039 
L 300.675403 131.876148 
L 301.880668 132.666949 
L 303.085933 133.72434 
L 304.291198 134.169433 
L 305.496463 134.139739 
L 306.701728 133.107874 
L 307.906993 132.40429 
L 309.112258 131.229162 
L 310.317523 131.850045 
L 311.522788 132.316052 
L 312.728053 131.067414 
L 313.933318 131.264752 
L 315.138584 129.842899 
L 316.343849 129.906683 
L 317.549114 131.283738 
L 318.754379 130.459861 
L 319.959644 130.72719 
L 321.164909 131.246433 
L 323.575439 128.893159 
L 324.780704 129.190122 
L 325.985969 129.175218 
L 327.191234 129.966065 
L 328.396499 130.238362 
L 329.601764 130.091933 
L 330.80703 129.077459 
L 332.012295 130.280857 
L 333.21756 131.279512 
L 334.422825 131.654601 
L 336.833355 132.051447 
L 338.03862 132.08181 
L 339.243885 131.782264 
L 340.44915 131.919964 
L 341.654415 132.170479 
L 342.85968 131.722711 
L 344.064945 128.088375 
L 345.27021 128.120395 
L 346.475475 127.934065 
L 347.680741 126.372949 
L 348.886006 125.826794 
L 350.091271 125.974182 
L 351.296536 126.381245 
L 352.501801 127.128962 
L 353.707066 127.415777 
L 354.912331 126.011617 
L 356.117596 124.835317 
L 357.322861 125.811597 
L 358.528126 125.703769 
L 359.733391 124.495616 
L 360.938656 125.332379 
L 362.143921 125.109706 
L 363.349187 126.374618 
L 364.554452 126.392075 
L 365.759717 124.810872 
L 366.964982 123.603808 
L 368.170247 123.092704 
L 369.375512 122.272684 
L 370.580777 122.889647 
L 371.786042 122.754757 
L 372.991307 121.730235 
L 374.196572 119.614533 
L 375.401837 120.252311 
L 376.607102 120.492384 
L 377.812367 120.93575 
L 379.017633 120.409125 
L 380.222898 118.850283 
L 381.428163 118.895099 
L 382.633428 119.901615 
L 383.838693 119.4923 
L 385.043958 120.192888 
L 386.249223 120.045774 
L 387.454488 119.412874 
L 388.659753 118.340817 
L 389.865018 119.410339 
L 391.070283 119.972134 
L 392.275548 120.041832 
L 393.480813 121.230655 
L 394.686079 121.462902 
L 395.891344 120.760825 
L 397.096609 119.327421 
L 399.507139 121.02754 
L 401.917669 121.421654 
L 403.122934 122.250682 
L 404.328199 122.658079 
L 406.738729 121.512854 
L 407.943994 122.135744 
L 409.149259 120.978777 
L 410.354525 121.716851 
L 411.55979 121.247723 
L 412.765055 121.267855 
L 413.97032 120.333847 
L 415.175585 120.320349 
L 416.38085 119.136273 
L 417.586115 119.925335 
L 418.79138 120.112307 
L 419.996645 119.77068 
L 421.20191 118.104077 
L 422.407175 117.485375 
L 424.817705 117.829953 
L 426.02297 118.85212 
L 427.228236 118.515839 
L 428.433501 118.788761 
L 429.638766 117.24098 
L 430.844031 118.311706 
L 432.049296 118.188096 
L 433.254561 115.963267 
L 434.459826 115.838703 
L 435.665091 114.990884 
L 438.075621 114.976892 
L 439.280886 115.260057 
L 441.691416 115.026196 
L 442.896682 115.602784 
L 444.101947 115.545279 
L 445.307212 115.736655 
L 446.512477 115.000288 
L 447.717742 114.865075 
L 448.923007 116.009735 
L 450.128272 115.371538 
L 452.538802 116.172728 
L 453.744067 114.970863 
L 454.949332 115.734659 
L 456.154597 115.618363 
L 457.359862 114.180651 
L 458.565128 114.822618 
L 460.975658 113.933856 
L 464.591453 115.946799 
L 465.796718 115.714189 
L 468.207248 116.963793 
L 469.412513 117.34447 
L 470.617778 117.158585 
L 471.823043 117.711946 
L 473.028308 117.851812 
L 474.233574 117.826937 
L 476.644104 119.437844 
L 481.465164 121.313858 
L 483.875694 121.130374 
L 485.080959 121.45098 
L 486.286224 121.453717 
L 489.902019 119.956901 
L 491.107285 120.734197 
L 492.31255 120.8154 
L 493.517815 121.381181 
L 494.72308 121.11644 
L 495.928345 121.190493 
L 497.13361 121.539505 
L 498.338875 121.343209 
L 499.54414 121.26754 
L 500.749405 121.309917 
L 501.95467 121.697214 
L 503.159935 121.13363 
L 504.3652 121.837371 
L 505.570465 122.088156 
L 506.775731 122.475738 
L 507.980996 121.356714 
L 509.186261 121.658669 
L 510.391526 121.731479 
L 511.596791 121.66565 
L 512.802056 120.989257 
L 514.007321 120.9347 
L 515.212586 121.407748 
L 516.417851 121.621886 
L 517.623116 122.228038 
L 518.828381 120.173428 
L 520.033646 119.71703 
L 521.238911 119.899423 
L 522.444177 119.009017 
L 523.649442 118.810212 
L 524.854707 118.410835 
L 526.059972 118.678914 
L 527.265237 118.824248 
L 529.675767 118.452399 
L 530.881032 118.001766 
L 532.086297 116.598739 
L 533.291562 116.272891 
L 535.702092 117.101556 
L 536.907357 116.791967 
L 538.112623 116.960791 
L 539.317888 117.456077 
L 540.523153 117.236698 
L 541.728418 117.246806 
L 542.933683 117.378437 
L 544.138948 116.840166 
L 545.344213 116.446929 
L 546.549478 116.301393 
L 547.754743 116.641652 
L 548.960008 116.738664 
L 550.165273 117.35231 
L 551.370538 117.188978 
L 552.575803 117.320675 
L 553.781069 116.995358 
L 554.986334 117.200919 
L 556.191599 117.545878 
L 557.396864 118.147313 
L 558.602129 117.392159 
L 559.807394 117.080843 
L 561.012659 117.307911 
L 562.217924 116.85828 
L 563.423189 116.742068 
L 564.628454 116.238814 
L 567.038984 117.511726 
L 568.244249 116.783262 
L 570.65478 117.297648 
L 571.860045 116.897609 
L 573.06531 117.283708 
L 574.270575 116.485158 
L 575.47584 115.482611 
L 576.681105 115.89522 
L 577.88637 115.648449 
L 581.502165 115.780901 
L 583.912695 116.670412 
L 585.11796 116.842435 
L 587.528491 116.273707 
L 588.733756 116.217123 
L 589.939021 116.574214 
L 591.144286 116.096788 
L 592.349551 116.290888 
L 593.554816 116.691457 
L 595.965346 117.247397 
L 597.170611 117.7412 
L 599.581141 118.155626 
L 600.786406 118.549627 
L 601.991672 119.164001 
L 603.196937 119.425711 
L 604.402202 119.550858 
L 605.607467 120.047605 
L 606.812732 120.722669 
L 608.017997 121.059624 
L 609.223262 120.338783 
L 611.633792 119.370645 
L 616.454852 120.139551 
L 617.660118 120.868485 
L 618.865383 120.254565 
L 620.070648 120.675358 
L 621.275913 120.305727 
L 622.481178 120.130862 
L 623.686443 120.100701 
L 624.891708 119.723937 
L 626.096973 120.300848 
L 627.302238 120.546237 
L 629.712768 120.460254 
L 630.918033 120.953648 
L 632.123298 119.731251 
L 633.328563 120.223878 
L 634.533829 120.563485 
L 635.739094 120.134908 
L 636.944359 120.076027 
L 638.149624 119.233827 
L 639.354889 119.142371 
L 640.560154 118.75493 
L 641.765419 119.484287 
L 642.970684 119.349014 
L 644.175949 119.552028 
L 645.381214 119.310771 
L 646.586479 119.847486 
L 647.791744 119.63889 
L 648.997009 119.946572 
L 650.202275 119.357725 
L 651.40754 119.300743 
L 655.023335 120.107785 
L 656.2286 120.794067 
L 657.433865 121.074209 
L 658.63913 120.683649 
L 659.844395 120.665028 
L 661.04966 121.106647 
L 663.46019 121.443578 
L 664.665455 121.735662 
L 665.870721 121.308181 
L 667.075986 121.476496 
L 668.281251 121.77268 
L 669.486516 121.165154 
L 670.691781 121.312728 
L 671.897046 121.028053 
L 673.102311 121.477834 
L 674.307576 121.711908 
L 675.512841 121.378268 
L 676.718106 121.598823 
L 677.923371 120.887057 
L 679.128636 121.212202 
L 679.128636 121.212202 
" style="fill:none;stroke:#0000ff;stroke-linecap:square;stroke-width:1.5;"/>
   </g>
   <g id="line2d_16">
    <path clip-path="url(#p724711bda4)" d="M 77.701364 251.186876 
L 78.906629 328.824088 
L 80.111894 299.70712 
L 81.317159 287.701421 
L 82.522424 293.275033 
L 83.727689 259.598719 
L 84.932954 268.441499 
L 86.138219 291.173876 
L 87.343484 286.626991 
L 88.548749 274.083138 
L 89.754014 272.846439 
L 90.959279 291.82235 
L 92.164545 285.631655 
L 93.36981 294.488745 
L 94.575075 283.818666 
L 95.78034 288.850238 
L 96.985605 288.442845 
L 98.19087 273.334557 
L 99.396135 280.566661 
L 100.6014 289.499461 
L 101.806665 294.785784 
L 103.01193 295.147756 
L 104.217195 290.246723 
L 105.42246 291.112458 
L 106.627725 291.217282 
L 107.832991 285.836976 
L 109.038256 284.850139 
L 110.243521 288.123985 
L 111.448786 290.498947 
L 112.654051 284.346855 
L 113.859316 283.231579 
L 115.064581 275.395326 
L 116.269846 277.500726 
L 117.475111 279.268711 
L 118.680376 283.586604 
L 119.885641 280.719403 
L 121.090906 280.738921 
L 122.296171 283.521744 
L 123.501437 280.17692 
L 124.706702 280.566648 
L 125.911967 282.826554 
L 127.117232 282.313765 
L 128.322497 284.620805 
L 129.527762 287.333235 
L 130.733027 287.319307 
L 131.938292 288.202025 
L 133.143557 284.744355 
L 134.348822 286.780054 
L 135.554087 289.584317 
L 136.759352 290.040118 
L 137.964617 289.67131 
L 139.169882 292.277196 
L 140.375148 296.656686 
L 141.580413 295.793061 
L 142.785678 295.981174 
L 143.990943 292.257474 
L 145.196208 293.1763 
L 146.401473 289.009155 
L 147.606738 290.022178 
L 148.812003 288.801624 
L 150.017268 287.797425 
L 151.222533 283.878928 
L 152.427798 283.226303 
L 153.633063 283.223071 
L 154.838328 282.019489 
L 156.043594 282.052351 
L 157.248859 282.951286 
L 158.454124 284.156832 
L 159.659389 283.483691 
L 160.864654 283.315428 
L 162.069919 284.566442 
L 163.275184 286.014521 
L 164.480449 287.25183 
L 165.685714 287.914623 
L 166.890979 289.069667 
L 169.301509 289.424245 
L 170.506774 287.538 
L 171.71204 287.050774 
L 172.917305 285.635713 
L 174.12257 283.12503 
L 175.327835 285.412695 
L 176.5331 286.909163 
L 177.738365 289.130495 
L 178.94363 287.770293 
L 180.148895 288.755674 
L 181.35416 288.696305 
L 182.559425 290.851548 
L 183.76469 289.794229 
L 184.969955 289.18964 
L 186.17522 286.056209 
L 187.380486 283.446712 
L 188.585751 284.169874 
L 189.791016 284.50177 
L 190.996281 286.573199 
L 192.201546 287.509047 
L 194.612076 291.798983 
L 195.817341 292.121306 
L 197.022606 293.643527 
L 198.227871 294.15822 
L 199.433136 295.245452 
L 200.638401 291.60203 
L 201.843666 292.187901 
L 203.048931 293.655021 
L 204.254197 293.927785 
L 205.459462 292.198237 
L 206.664727 289.585994 
L 207.869992 288.876449 
L 209.075257 287.954772 
L 211.485787 289.468638 
L 212.691052 291.074893 
L 213.896317 289.708229 
L 215.101582 290.03446 
L 216.306847 289.334262 
L 217.512112 288.816565 
L 218.717377 289.740134 
L 219.922643 287.186949 
L 221.127908 286.243771 
L 222.333173 286.89027 
L 223.538438 286.412029 
L 224.743703 285.784365 
L 225.948968 286.703714 
L 227.154233 288.188743 
L 228.359498 289.333822 
L 229.564763 289.757822 
L 231.975293 292.432639 
L 233.180558 290.483048 
L 234.385823 290.74039 
L 235.591089 291.150489 
L 236.796354 291.254756 
L 238.001619 292.095189 
L 239.206884 292.646701 
L 240.412149 293.541166 
L 241.617414 293.714013 
L 242.822679 294.111814 
L 244.027944 290.446135 
L 245.233209 288.379808 
L 246.438474 288.621735 
L 247.643739 288.666618 
L 248.849004 284.991288 
L 250.054269 283.971279 
L 253.670065 286.987773 
L 254.87533 287.33811 
L 256.080595 285.475976 
L 257.28586 284.918017 
L 260.901655 284.868346 
L 262.10692 285.973124 
L 263.312185 286.068396 
L 264.51745 285.289804 
L 265.722715 283.944328 
L 266.927981 284.133041 
L 268.133246 284.440819 
L 269.338511 284.027483 
L 270.543776 284.523632 
L 271.749041 284.434745 
L 274.159571 285.564046 
L 275.364836 285.772511 
L 278.980631 285.658107 
L 280.185896 285.667133 
L 281.391161 285.321202 
L 282.596426 285.130594 
L 283.801692 286.270083 
L 285.006957 285.442821 
L 286.212222 285.014186 
L 287.417487 285.848652 
L 288.622752 285.663112 
L 289.828017 286.121134 
L 291.033282 286.287212 
L 292.238547 287.038324 
L 293.443812 285.911307 
L 294.649077 285.449892 
L 295.854342 286.351432 
L 297.059607 286.881222 
L 298.264872 287.141742 
L 299.470138 283.831296 
L 300.675403 283.549007 
L 301.880668 284.166176 
L 303.085933 285.098167 
L 304.291198 285.526467 
L 305.496463 285.423157 
L 307.906993 283.864457 
L 309.112258 282.839934 
L 311.522788 283.53578 
L 312.728053 282.441342 
L 313.933318 282.760419 
L 315.138584 282.059453 
L 316.343849 281.909511 
L 317.549114 283.009266 
L 318.754379 282.238616 
L 319.959644 282.487036 
L 321.164909 282.919888 
L 322.370174 282.282909 
L 323.575439 281.482538 
L 324.780704 281.823165 
L 325.985969 281.880804 
L 327.191234 282.531046 
L 328.396499 282.710917 
L 329.601764 282.762613 
L 330.80703 281.927189 
L 333.21756 283.230844 
L 334.422825 283.297605 
L 335.62809 283.569146 
L 336.833355 283.55232 
L 338.03862 283.730234 
L 339.243885 283.463112 
L 341.654415 283.433567 
L 342.85968 282.918757 
L 344.064945 280.392218 
L 346.475475 279.959715 
L 347.680741 279.145627 
L 348.886006 278.85604 
L 353.707066 280.07955 
L 354.912331 279.104667 
L 356.117596 277.968137 
L 357.322861 278.580944 
L 358.528126 278.358826 
L 359.733391 277.674202 
L 360.938656 278.274257 
L 362.143921 278.255033 
L 363.349187 279.218643 
L 364.554452 279.276413 
L 365.759717 278.08687 
L 368.170247 276.707145 
L 369.375512 276.325386 
L 370.580777 276.790202 
L 371.786042 276.852914 
L 372.991307 276.220128 
L 374.196572 275.084105 
L 375.401837 275.59568 
L 376.607102 275.698476 
L 377.812367 276.214091 
L 379.017633 275.486211 
L 380.222898 274.024704 
L 381.428163 274.01148 
L 382.633428 274.707316 
L 383.838693 274.364868 
L 385.043958 274.858454 
L 386.249223 274.842918 
L 388.659753 273.492644 
L 389.865018 274.276998 
L 391.070283 274.659783 
L 392.275548 274.838462 
L 393.480813 275.723605 
L 394.686079 276.013919 
L 395.891344 275.915046 
L 397.096609 275.282268 
L 399.507139 276.442271 
L 400.712404 276.730354 
L 401.917669 276.648692 
L 403.122934 277.118867 
L 404.328199 277.376867 
L 405.533464 276.97902 
L 406.738729 276.297505 
L 407.943994 276.71386 
L 409.149259 275.951699 
L 410.354525 276.391347 
L 412.765055 275.777678 
L 413.97032 275.046872 
L 415.175585 275.055464 
L 416.38085 274.038456 
L 417.586115 274.454191 
L 418.79138 274.662565 
L 419.996645 274.657203 
L 421.20191 273.215856 
L 422.407175 272.916939 
L 424.817705 273.436657 
L 426.02297 274.08805 
L 427.228236 273.655661 
L 428.433501 273.801184 
L 429.638766 272.928788 
L 430.844031 273.628518 
L 432.049296 273.584411 
L 433.254561 272.213846 
L 434.459826 272.37318 
L 435.665091 271.947832 
L 438.075621 271.80454 
L 439.280886 272.044217 
L 441.691416 271.874999 
L 442.896682 272.303775 
L 445.307212 272.481223 
L 446.512477 272.034048 
L 447.717742 272.010421 
L 448.923007 272.809443 
L 450.128272 272.238286 
L 452.538802 272.840332 
L 453.744067 272.46683 
L 454.949332 273.078029 
L 456.154597 272.857672 
L 457.359862 272.068019 
L 458.565128 272.551072 
L 460.975658 272.406151 
L 463.386188 273.391973 
L 464.591453 273.78658 
L 465.796718 273.499125 
L 468.207248 274.490559 
L 469.412513 274.649632 
L 470.617778 274.583811 
L 471.823043 274.986712 
L 473.028308 275.044481 
L 474.233574 274.932363 
L 476.644104 276.094501 
L 481.465164 277.576301 
L 482.670429 277.524716 
L 485.080959 277.815203 
L 486.286224 277.768986 
L 488.696754 277.048196 
L 489.902019 276.631606 
L 491.107285 277.126694 
L 493.517815 277.799658 
L 494.72308 277.660305 
L 495.928345 277.726219 
L 497.13361 277.989143 
L 498.338875 277.680138 
L 500.749405 277.645355 
L 501.95467 277.949439 
L 503.159935 277.514396 
L 504.3652 278.011916 
L 505.570465 278.207569 
L 506.775731 278.541696 
L 507.980996 277.647121 
L 509.186261 278.001321 
L 510.391526 277.997962 
L 511.596791 277.877146 
L 512.802056 277.435894 
L 514.007321 277.428878 
L 517.623116 278.181954 
L 518.828381 277.176598 
L 520.033646 276.985779 
L 521.238911 277.028408 
L 522.444177 276.629434 
L 524.854707 276.213293 
L 528.470502 276.462747 
L 529.675767 276.258639 
L 530.881032 275.760835 
L 532.086297 274.626032 
L 533.291562 274.307746 
L 535.702092 274.820491 
L 536.907357 274.76019 
L 540.523153 275.174228 
L 542.933683 274.959606 
L 544.138948 274.496696 
L 546.549478 274.104716 
L 547.754743 274.333126 
L 548.960008 274.397035 
L 550.165273 274.844457 
L 551.370538 274.694013 
L 552.575803 274.77044 
L 553.781069 274.570601 
L 556.191599 275.127502 
L 557.396864 275.467808 
L 558.602129 275.058121 
L 559.807394 274.942924 
L 561.012659 275.128228 
L 563.423189 274.732482 
L 564.628454 274.190778 
L 565.833719 274.557594 
L 567.038984 275.096533 
L 568.244249 274.64707 
L 573.06531 275.125996 
L 575.47584 273.975923 
L 576.681105 274.20516 
L 579.091635 274.167578 
L 580.2969 274.275849 
L 581.502165 274.236078 
L 582.70743 274.426559 
L 583.912695 274.778812 
L 585.11796 274.863884 
L 587.528491 274.614645 
L 588.733756 274.627865 
L 589.939021 274.856098 
L 591.144286 274.660706 
L 592.349551 274.769683 
L 593.554816 275.066553 
L 595.965346 275.372384 
L 597.170611 275.727561 
L 598.375876 275.752803 
L 599.581141 275.958451 
L 603.196937 277.008873 
L 604.402202 277.1304 
L 605.607467 277.443767 
L 606.812732 277.936903 
L 608.017997 278.210465 
L 610.428527 277.282266 
L 611.633792 276.852795 
L 614.044322 277.168781 
L 615.249587 277.208638 
L 616.454852 277.42807 
L 617.660118 277.975765 
L 618.865383 277.554142 
L 620.070648 277.903135 
L 622.481178 277.567653 
L 623.686443 277.525742 
L 624.891708 277.264375 
L 626.096973 277.670051 
L 628.507503 277.826868 
L 629.712768 277.620437 
L 630.918033 277.921505 
L 632.123298 277.223094 
L 633.328563 277.546144 
L 634.533829 277.717876 
L 635.739094 277.399747 
L 636.944359 277.475633 
L 638.149624 276.908201 
L 639.354889 276.921748 
L 640.560154 276.602379 
L 641.765419 277.083797 
L 642.970684 277.027038 
L 644.175949 277.143408 
L 645.381214 277.063259 
L 646.586479 277.465563 
L 647.791744 277.252367 
L 648.997009 277.50728 
L 650.202275 277.258117 
L 651.40754 277.308938 
L 653.81807 277.68549 
L 655.023335 277.834606 
L 656.2286 278.272723 
L 657.433865 278.467733 
L 658.63913 278.187865 
L 659.844395 278.25868 
L 661.04966 278.598627 
L 664.665455 279.087958 
L 665.870721 278.639144 
L 667.075986 278.805771 
L 668.281251 279.09939 
L 669.486516 278.766645 
L 670.691781 278.874854 
L 671.897046 278.484131 
L 673.102311 278.891504 
L 674.307576 279.010584 
L 675.512841 278.602533 
L 676.718106 278.669903 
L 677.923371 278.094523 
L 679.128636 278.402018 
L 679.128636 278.402018 
" style="fill:none;stroke:#ff0000;stroke-linecap:square;stroke-width:1.5;"/>
   </g>
   <g id="line2d_17">
    <path clip-path="url(#p724711bda4)" d="M 77.701364 259.591563 
L 78.906629 323.228334 
L 80.111894 287.344011 
L 81.317159 291.324627 
L 82.522424 301.169081 
L 83.727689 268.167253 
L 84.932954 269.59554 
L 86.138219 290.147921 
L 87.343484 284.949692 
L 88.548749 271.117157 
L 89.754014 264.811048 
L 90.959279 284.793169 
L 92.164545 281.847456 
L 93.36981 289.381995 
L 94.575075 280.93223 
L 95.78034 283.487254 
L 96.985605 284.931754 
L 98.19087 270.280114 
L 99.396135 278.430162 
L 100.6014 287.512928 
L 101.806665 291.92792 
L 103.01193 290.479038 
L 104.217195 284.397303 
L 105.42246 284.684496 
L 106.627725 284.650718 
L 107.832991 278.424411 
L 109.038256 278.556592 
L 110.243521 280.993563 
L 111.448786 283.042594 
L 112.654051 277.717546 
L 113.859316 277.551695 
L 115.064581 269.687538 
L 116.269846 272.957351 
L 117.475111 273.730262 
L 118.680376 278.086344 
L 119.885641 275.121185 
L 121.090906 274.503843 
L 122.296171 276.781238 
L 123.501437 274.137319 
L 124.706702 274.309216 
L 125.911967 276.449078 
L 127.117232 276.895101 
L 128.322497 279.205281 
L 129.527762 281.768515 
L 130.733027 282.132937 
L 131.938292 282.079813 
L 133.143557 278.211947 
L 134.348822 280.232844 
L 135.554087 283.2197 
L 136.759352 283.888932 
L 137.964617 282.886707 
L 139.169882 285.610884 
L 140.375148 289.735436 
L 141.580413 288.149097 
L 142.785678 287.831119 
L 143.990943 283.068607 
L 145.196208 284.247857 
L 146.401473 279.493272 
L 147.606738 280.439224 
L 148.812003 278.387679 
L 150.017268 277.717622 
L 151.222533 273.879526 
L 152.427798 273.069629 
L 153.633063 273.862313 
L 154.838328 272.811527 
L 156.043594 273.005645 
L 157.248859 273.680784 
L 158.454124 274.960021 
L 159.659389 273.699628 
L 160.864654 273.468984 
L 162.069919 274.263516 
L 164.480449 277.06234 
L 165.685714 277.969779 
L 166.890979 279.289327 
L 169.301509 279.583191 
L 170.506774 277.408616 
L 171.71204 276.618384 
L 172.917305 275.202578 
L 174.12257 272.274756 
L 175.327835 274.613757 
L 176.5331 275.88035 
L 177.738365 277.930297 
L 178.94363 277.07982 
L 180.148895 278.136958 
L 181.35416 277.98729 
L 182.559425 279.938037 
L 183.76469 279.213272 
L 184.969955 279.14477 
L 186.17522 275.901082 
L 187.380486 273.301012 
L 189.791016 274.425911 
L 190.996281 276.452156 
L 192.201546 277.126501 
L 194.612076 281.33201 
L 195.817341 281.311686 
L 197.022606 283.054337 
L 198.227871 283.766278 
L 199.433136 284.977538 
L 200.638401 281.630765 
L 201.843666 282.221916 
L 203.048931 283.767359 
L 204.254197 284.140458 
L 205.459462 282.456708 
L 206.664727 279.739096 
L 209.075257 278.225702 
L 210.280522 278.915099 
L 211.485787 279.790379 
L 212.691052 281.332993 
L 213.896317 279.601507 
L 215.101582 279.954733 
L 216.306847 278.947899 
L 217.512112 278.112405 
L 218.717377 279.46201 
L 219.922643 277.485996 
L 221.127908 276.37222 
L 222.333173 277.075612 
L 223.538438 276.853351 
L 224.743703 276.27016 
L 225.948968 277.255332 
L 227.154233 278.640972 
L 228.359498 279.781678 
L 229.564763 280.167634 
L 231.975293 282.712507 
L 233.180558 281.084682 
L 234.385823 281.621568 
L 235.591089 281.904864 
L 236.796354 281.964527 
L 238.001619 282.912219 
L 239.206884 283.351988 
L 240.412149 284.157368 
L 241.617414 284.230095 
L 242.822679 284.578689 
L 244.027944 281.104961 
L 245.233209 278.978897 
L 246.438474 279.189174 
L 247.643739 279.071381 
L 248.849004 275.976565 
L 250.054269 275.004818 
L 251.259535 275.831241 
L 252.4648 277.02974 
L 253.670065 278.041059 
L 254.87533 278.604432 
L 256.080595 276.706298 
L 257.28586 276.095501 
L 258.491125 275.921366 
L 259.69639 276.055818 
L 260.901655 276.031606 
L 262.10692 277.188242 
L 263.312185 277.312625 
L 264.51745 276.41576 
L 265.722715 274.847878 
L 268.133246 275.318532 
L 269.338511 274.774483 
L 270.543776 275.418619 
L 271.749041 275.046069 
L 274.159571 276.178456 
L 275.364836 276.467297 
L 276.570101 276.37742 
L 277.775366 276.124672 
L 278.980631 276.292427 
L 280.185896 276.344589 
L 281.391161 276.039396 
L 282.596426 275.871536 
L 283.801692 276.948578 
L 285.006957 276.290411 
L 286.212222 275.875045 
L 287.417487 276.599526 
L 288.622752 276.59093 
L 289.828017 277.096014 
L 291.033282 277.353883 
L 292.238547 278.091975 
L 293.443812 277.231926 
L 294.649077 276.751928 
L 295.854342 277.591582 
L 297.059607 278.014571 
L 298.264872 278.254762 
L 299.470138 275.318738 
L 300.675403 274.846428 
L 301.880668 275.366962 
L 303.085933 276.28877 
L 304.291198 276.950574 
L 305.496463 276.737335 
L 307.906993 275.134754 
L 309.112258 274.338508 
L 311.522788 275.144539 
L 312.728053 274.030042 
L 313.933318 274.498268 
L 315.138584 273.996978 
L 316.343849 273.861355 
L 317.549114 274.9906 
L 318.754379 274.286371 
L 319.959644 274.490667 
L 321.164909 274.939356 
L 322.370174 274.371653 
L 323.575439 273.614576 
L 324.780704 274.003917 
L 325.985969 274.235195 
L 327.191234 274.820589 
L 328.396499 274.782841 
L 329.601764 274.950076 
L 330.80703 274.050286 
L 333.21756 275.288252 
L 338.03862 276.076679 
L 339.243885 275.838542 
L 340.44915 275.815385 
L 341.654415 275.666689 
L 342.85968 275.229327 
L 344.064945 272.935548 
L 345.27021 272.728482 
L 346.475475 272.647133 
L 347.680741 272.01851 
L 348.886006 271.641856 
L 350.091271 271.969686 
L 351.296536 272.102782 
L 352.501801 272.619012 
L 353.707066 272.95325 
L 354.912331 272.260199 
L 356.117596 271.232647 
L 357.322861 271.794539 
L 358.528126 271.477269 
L 359.733391 270.889605 
L 360.938656 271.372598 
L 362.143921 271.372612 
L 363.349187 272.182085 
L 364.554452 272.270303 
L 365.759717 271.008561 
L 368.170247 269.633386 
L 369.375512 269.115666 
L 370.580777 269.479707 
L 371.786042 269.561088 
L 372.991307 269.105392 
L 374.196572 268.187796 
L 375.401837 268.59729 
L 376.607102 268.609173 
L 377.812367 269.156939 
L 379.017633 268.313115 
L 380.222898 266.707205 
L 381.428163 266.680582 
L 382.633428 267.415579 
L 383.838693 267.239192 
L 385.043958 267.745573 
L 386.249223 267.62896 
L 387.454488 266.769233 
L 388.659753 266.075505 
L 389.865018 266.788383 
L 391.070283 267.145083 
L 392.275548 267.320896 
L 393.480813 268.110869 
L 394.686079 268.415683 
L 395.891344 268.387502 
L 397.096609 267.700763 
L 399.507139 268.754714 
L 400.712404 269.082502 
L 401.917669 268.938493 
L 403.122934 269.381223 
L 404.328199 269.441341 
L 405.533464 269.092225 
L 406.738729 268.225121 
L 407.943994 268.748793 
L 409.149259 267.990742 
L 410.354525 268.300552 
L 411.55979 268.272097 
L 412.765055 267.873056 
L 413.97032 267.104771 
L 415.175585 267.131728 
L 416.38085 266.242677 
L 417.586115 266.634411 
L 419.996645 266.911645 
L 421.20191 265.672371 
L 422.407175 265.332866 
L 423.61244 265.622803 
L 424.817705 265.722002 
L 426.02297 266.272163 
L 427.228236 265.849292 
L 428.433501 265.866567 
L 429.638766 265.169527 
L 430.844031 265.85826 
L 432.049296 265.712609 
L 433.254561 264.737186 
L 434.459826 265.043871 
L 435.665091 264.710313 
L 438.075621 264.559866 
L 439.280886 264.858308 
L 441.691416 264.586321 
L 442.896682 264.935917 
L 445.307212 265.076645 
L 446.512477 264.74978 
L 447.717742 264.756453 
L 448.923007 265.526171 
L 450.128272 264.904433 
L 451.333537 265.110509 
L 452.538802 265.499009 
L 453.744067 265.284745 
L 454.949332 265.886784 
L 456.154597 265.637828 
L 457.359862 264.891496 
L 458.565128 265.344955 
L 460.975658 265.464868 
L 463.386188 266.398623 
L 464.591453 266.72068 
L 465.796718 266.374643 
L 468.207248 267.327931 
L 469.412513 267.530612 
L 470.617778 267.464976 
L 471.823043 267.867908 
L 473.028308 267.846669 
L 474.233574 267.686881 
L 476.644104 268.824371 
L 480.259899 269.80938 
L 481.465164 270.133709 
L 482.670429 270.043134 
L 485.080959 270.415851 
L 486.286224 270.374443 
L 488.696754 269.803891 
L 489.902019 269.40255 
L 493.517815 270.512537 
L 494.72308 270.396888 
L 495.928345 270.406189 
L 497.13361 270.656323 
L 498.338875 270.287743 
L 500.749405 270.209444 
L 501.95467 270.498025 
L 503.159935 270.050852 
L 504.3652 270.515213 
L 505.570465 270.670977 
L 506.775731 271.133931 
L 507.980996 270.332677 
L 509.186261 270.74697 
L 511.596791 270.633218 
L 512.802056 270.218417 
L 514.007321 270.189317 
L 517.623116 270.855126 
L 518.828381 270.02718 
L 520.033646 269.838985 
L 521.238911 269.82624 
L 522.444177 269.375704 
L 524.854707 268.898211 
L 526.059972 269.042643 
L 528.470502 269.111147 
L 529.675767 268.941149 
L 530.881032 268.333329 
L 532.086297 267.16998 
L 533.291562 266.820131 
L 535.702092 267.374112 
L 536.907357 267.232099 
L 539.317888 267.50817 
L 540.523153 267.613158 
L 541.728418 267.49508 
L 542.933683 267.225553 
L 544.138948 266.673397 
L 545.344213 266.574289 
L 546.549478 266.313628 
L 547.754743 266.505161 
L 548.960008 266.563536 
L 550.165273 266.98294 
L 551.370538 266.78309 
L 552.575803 266.910823 
L 553.781069 266.721371 
L 554.986334 266.893145 
L 557.396864 267.50174 
L 558.602129 267.175631 
L 559.807394 267.111415 
L 561.012659 267.328498 
L 562.217924 267.130841 
L 563.423189 267.11936 
L 564.628454 266.60274 
L 565.833719 266.933702 
L 567.038984 267.47174 
L 568.244249 267.000286 
L 569.449514 267.046199 
L 570.65478 267.309356 
L 571.860045 267.208264 
L 573.06531 267.489068 
L 574.270575 267.012458 
L 575.47584 266.40565 
L 576.681105 266.564186 
L 577.88637 266.432902 
L 580.2969 266.538186 
L 581.502165 266.567351 
L 582.70743 266.792641 
L 583.912695 267.167528 
L 585.11796 267.277584 
L 588.733756 267.154229 
L 589.939021 267.409481 
L 591.144286 267.195384 
L 595.965346 267.979316 
L 597.170611 268.287372 
L 598.375876 268.238521 
L 599.581141 268.474663 
L 603.196937 269.544556 
L 604.402202 269.695761 
L 605.607467 269.995262 
L 606.812732 270.464921 
L 608.017997 270.689912 
L 609.223262 270.22118 
L 611.633792 269.082186 
L 615.249587 269.467777 
L 616.454852 269.704585 
L 617.660118 270.301906 
L 618.865383 269.998052 
L 620.070648 270.32834 
L 621.275913 270.03367 
L 623.686443 269.960042 
L 624.891708 269.681926 
L 626.096973 270.080668 
L 628.507503 270.219717 
L 629.712768 270.086591 
L 630.918033 270.360629 
L 632.123298 269.726545 
L 634.533829 270.216913 
L 635.739094 269.981751 
L 636.944359 269.975576 
L 638.149624 269.257812 
L 639.354889 269.278301 
L 640.560154 268.970527 
L 641.765419 269.485692 
L 642.970684 269.390807 
L 644.175949 269.479474 
L 645.381214 269.429681 
L 646.586479 269.843713 
L 647.791744 269.64059 
L 648.997009 269.845101 
L 650.202275 269.65596 
L 651.40754 269.732722 
L 652.612805 269.981702 
L 655.023335 270.228493 
L 656.2286 270.645042 
L 657.433865 270.91498 
L 658.63913 270.65747 
L 659.844395 270.700183 
L 662.254925 271.310229 
L 664.665455 271.610948 
L 665.870721 271.151381 
L 667.075986 271.313722 
L 668.281251 271.62993 
L 669.486516 271.312676 
L 670.691781 271.414511 
L 671.897046 271.000008 
L 673.102311 271.41879 
L 674.307576 271.459147 
L 675.512841 271.095306 
L 676.718106 271.114537 
L 677.923371 270.547839 
L 679.128636 270.824797 
L 679.128636 270.824797 
" style="fill:none;stroke:#008000;stroke-linecap:square;stroke-width:1.5;"/>
   </g>
   <g id="patch_3">
    <path d="M 47.63 390.04 
L 47.63 10.8 
" style="fill:none;stroke:#000000;stroke-linecap:square;stroke-linejoin:miter;stroke-width:0.8;"/>
   </g>
   <g id="patch_4">
    <path d="M 709.2 390.04 
L 709.2 10.8 
" style="fill:none;stroke:#000000;stroke-linecap:square;stroke-linejoin:miter;stroke-width:0.8;"/>
   </g>
   <g id="patch_5">
    <path d="M 47.63 390.04 
L 709.2 390.04 
" style="fill:none;stroke:#000000;stroke-linecap:square;stroke-linejoin:miter;stroke-width:0.8;"/>
   </g>
   <g id="patch_6">
    <path d="M 47.63 10.8 
L 709.2 10.8 
" style="fill:none;stroke:#000000;stroke-linecap:square;stroke-linejoin:miter;stroke-width:0.8;"/>
   </g>
   <g id="legend_1">
    <g id="patch_7">
     <path d="M 566.607812 77.5125 
L 702.2 77.5125 
Q 704.2 77.5125 704.2 75.5125 
L 704.2 17.8 
Q 704.2 15.8 702.2 15.8 
L 566.607812 15.8 
Q 564.607812 15.8 564.607812 17.8 
L 564.607812 75.5125 
Q 564.607812 77.5125 566.607812 77.5125 
z
" style="fill:#ffffff;opacity:0.8;stroke:#cccccc;stroke-linejoin:miter;"/>
    </g>
    <g id="line2d_18">
     <path d="M 568.607812 23.898438 
L 588.607812 23.898438 
" style="fill:none;stroke:#000000;stroke-linecap:square;stroke-width:1.5;"/>
    </g>
    <g id="line2d_19"/>
    <g id="text_15">
     <!-- Confidence Intervals -->
     <g transform="translate(596.607812 27.398438)scale(0.1 -0.1)">
      <defs>
       <path d="M 37.109375 75.984375 
L 37.109375 68.5 
L 28.515625 68.5 
Q 23.6875 68.5 21.796875 66.546875 
Q 19.921875 64.59375 19.921875 59.515625 
L 19.921875 54.6875 
L 34.71875 54.6875 
L 34.71875 47.703125 
L 19.921875 47.703125 
L 19.921875 0 
L 10.890625 0 
L 10.890625 47.703125 
L 2.296875 47.703125 
L 2.296875 54.6875 
L 10.890625 54.6875 
L 10.890625 58.5 
Q 10.890625 67.625 15.140625 71.796875 
Q 19.390625 75.984375 28.609375 75.984375 
z
" id="DejaVuSans-102"/>
       <path d="M 45.40625 46.390625 
L 45.40625 75.984375 
L 54.390625 75.984375 
L 54.390625 0 
L 45.40625 0 
L 45.40625 8.203125 
Q 42.578125 3.328125 38.25 0.953125 
Q 33.9375 -1.421875 27.875 -1.421875 
Q 17.96875 -1.421875 11.734375 6.484375 
Q 5.515625 14.40625 5.515625 27.296875 
Q 5.515625 40.1875 11.734375 48.09375 
Q 17.96875 56 27.875 56 
Q 33.9375 56 38.25 53.625 
Q 42.578125 51.265625 45.40625 46.390625 
z
M 14.796875 27.296875 
Q 14.796875 17.390625 18.875 11.75 
Q 22.953125 6.109375 30.078125 6.109375 
Q 37.203125 6.109375 41.296875 11.75 
Q 45.40625 17.390625 45.40625 27.296875 
Q 45.40625 37.203125 41.296875 42.84375 
Q 37.203125 48.484375 30.078125 48.484375 
Q 22.953125 48.484375 18.875 42.84375 
Q 14.796875 37.203125 14.796875 27.296875 
z
" id="DejaVuSans-100"/>
       <path d="M 48.78125 52.59375 
L 48.78125 44.1875 
Q 44.96875 46.296875 41.140625 47.34375 
Q 37.3125 48.390625 33.40625 48.390625 
Q 24.65625 48.390625 19.8125 42.84375 
Q 14.984375 37.3125 14.984375 27.296875 
Q 14.984375 17.28125 19.8125 11.734375 
Q 24.65625 6.203125 33.40625 6.203125 
Q 37.3125 6.203125 41.140625 7.25 
Q 44.96875 8.296875 48.78125 10.40625 
L 48.78125 2.09375 
Q 45.015625 0.34375 40.984375 -0.53125 
Q 36.96875 -1.421875 32.421875 -1.421875 
Q 20.0625 -1.421875 12.78125 6.34375 
Q 5.515625 14.109375 5.515625 27.296875 
Q 5.515625 40.671875 12.859375 48.328125 
Q 20.21875 56 33.015625 56 
Q 37.15625 56 41.109375 55.140625 
Q 45.0625 54.296875 48.78125 52.59375 
z
" id="DejaVuSans-99"/>
       <path d="M 9.8125 72.90625 
L 19.671875 72.90625 
L 19.671875 0 
L 9.8125 0 
z
" id="DejaVuSans-73"/>
       <path d="M 2.984375 54.6875 
L 12.5 54.6875 
L 29.59375 8.796875 
L 46.6875 54.6875 
L 56.203125 54.6875 
L 35.6875 0 
L 23.484375 0 
z
" id="DejaVuSans-118"/>
       <path d="M 9.421875 75.984375 
L 18.40625 75.984375 
L 18.40625 0 
L 9.421875 0 
z
" id="DejaVuSans-108"/>
      </defs>
      <use xlink:href="#DejaVuSans-67"/>
      <use x="69.824219" xlink:href="#DejaVuSans-111"/>
      <use x="131.005859" xlink:href="#DejaVuSans-110"/>
      <use x="194.384766" xlink:href="#DejaVuSans-102"/>
      <use x="229.589844" xlink:href="#DejaVuSans-105"/>
      <use x="257.373047" xlink:href="#DejaVuSans-100"/>
      <use x="320.849609" xlink:href="#DejaVuSans-101"/>
      <use x="382.373047" xlink:href="#DejaVuSans-110"/>
      <use x="445.751953" xlink:href="#DejaVuSans-99"/>
      <use x="500.732422" xlink:href="#DejaVuSans-101"/>
      <use x="562.255859" xlink:href="#DejaVuSans-32"/>
      <use x="594.042969" xlink:href="#DejaVuSans-73"/>
      <use x="623.535156" xlink:href="#DejaVuSans-110"/>
      <use x="686.914062" xlink:href="#DejaVuSans-116"/>
      <use x="726.123047" xlink:href="#DejaVuSans-101"/>
      <use x="787.646484" xlink:href="#DejaVuSans-114"/>
      <use x="828.759766" xlink:href="#DejaVuSans-118"/>
      <use x="887.939453" xlink:href="#DejaVuSans-97"/>
      <use x="949.21875" xlink:href="#DejaVuSans-108"/>
      <use x="977.001953" xlink:href="#DejaVuSans-115"/>
     </g>
    </g>
    <g id="line2d_20">
     <path d="M 568.607812 38.576563 
L 588.607812 38.576563 
" style="fill:none;stroke:#0000ff;stroke-linecap:square;stroke-width:1.5;"/>
    </g>
    <g id="line2d_21"/>
    <g id="text_16">
     <!-- Independent -->
     <g transform="translate(596.607812 42.076563)scale(0.1 -0.1)">
      <defs>
       <path d="M 18.109375 8.203125 
L 18.109375 -20.796875 
L 9.078125 -20.796875 
L 9.078125 54.6875 
L 18.109375 54.6875 
L 18.109375 46.390625 
Q 20.953125 51.265625 25.265625 53.625 
Q 29.59375 56 35.59375 56 
Q 45.5625 56 51.78125 48.09375 
Q 58.015625 40.1875 58.015625 27.296875 
Q 58.015625 14.40625 51.78125 6.484375 
Q 45.5625 -1.421875 35.59375 -1.421875 
Q 29.59375 -1.421875 25.265625 0.953125 
Q 20.953125 3.328125 18.109375 8.203125 
z
M 48.6875 27.296875 
Q 48.6875 37.203125 44.609375 42.84375 
Q 40.53125 48.484375 33.40625 48.484375 
Q 26.265625 48.484375 22.1875 42.84375 
Q 18.109375 37.203125 18.109375 27.296875 
Q 18.109375 17.390625 22.1875 11.75 
Q 26.265625 6.109375 33.40625 6.109375 
Q 40.53125 6.109375 44.609375 11.75 
Q 48.6875 17.390625 48.6875 27.296875 
z
" id="DejaVuSans-112"/>
      </defs>
      <use xlink:href="#DejaVuSans-73"/>
      <use x="29.492188" xlink:href="#DejaVuSans-110"/>
      <use x="92.871094" xlink:href="#DejaVuSans-100"/>
      <use x="156.347656" xlink:href="#DejaVuSans-101"/>
      <use x="217.871094" xlink:href="#DejaVuSans-112"/>
      <use x="281.347656" xlink:href="#DejaVuSans-101"/>
      <use x="342.871094" xlink:href="#DejaVuSans-110"/>
      <use x="406.25" xlink:href="#DejaVuSans-100"/>
      <use x="469.726562" xlink:href="#DejaVuSans-101"/>
      <use x="531.25" xlink:href="#DejaVuSans-110"/>
      <use x="594.628906" xlink:href="#DejaVuSans-116"/>
     </g>
    </g>
    <g id="line2d_22">
     <path d="M 568.607812 53.254688 
L 588.607812 53.254688 
" style="fill:none;stroke:#ff0000;stroke-linecap:square;stroke-width:1.5;"/>
    </g>
    <g id="line2d_23"/>
    <g id="text_17">
     <!-- Dependent -->
     <g transform="translate(596.607812 56.754688)scale(0.1 -0.1)">
      <defs>
       <path d="M 19.671875 64.796875 
L 19.671875 8.109375 
L 31.59375 8.109375 
Q 46.6875 8.109375 53.6875 14.9375 
Q 60.6875 21.78125 60.6875 36.53125 
Q 60.6875 51.171875 53.6875 57.984375 
Q 46.6875 64.796875 31.59375 64.796875 
z
M 9.8125 72.90625 
L 30.078125 72.90625 
Q 51.265625 72.90625 61.171875 64.09375 
Q 71.09375 55.28125 71.09375 36.53125 
Q 71.09375 17.671875 61.125 8.828125 
Q 51.171875 0 30.078125 0 
L 9.8125 0 
z
" id="DejaVuSans-68"/>
      </defs>
      <use xlink:href="#DejaVuSans-68"/>
      <use x="77.001953" xlink:href="#DejaVuSans-101"/>
      <use x="138.525391" xlink:href="#DejaVuSans-112"/>
      <use x="202.001953" xlink:href="#DejaVuSans-101"/>
      <use x="263.525391" xlink:href="#DejaVuSans-110"/>
      <use x="326.904297" xlink:href="#DejaVuSans-100"/>
      <use x="390.380859" xlink:href="#DejaVuSans-101"/>
      <use x="451.904297" xlink:href="#DejaVuSans-110"/>
      <use x="515.283203" xlink:href="#DejaVuSans-116"/>
     </g>
    </g>
    <g id="line2d_24">
     <path d="M 568.607812 67.932813 
L 588.607812 67.932813 
" style="fill:none;stroke:#008000;stroke-linecap:square;stroke-width:1.5;"/>
    </g>
    <g id="line2d_25"/>
    <g id="text_18">
     <!-- AIS as measurement -->
     <g transform="translate(596.607812 71.432813)scale(0.1 -0.1)">
      <defs>
       <path d="M 52 44.1875 
Q 55.375 50.25 60.0625 53.125 
Q 64.75 56 71.09375 56 
Q 79.640625 56 84.28125 50.015625 
Q 88.921875 44.046875 88.921875 33.015625 
L 88.921875 0 
L 79.890625 0 
L 79.890625 32.71875 
Q 79.890625 40.578125 77.09375 44.375 
Q 74.3125 48.1875 68.609375 48.1875 
Q 61.625 48.1875 57.5625 43.546875 
Q 53.515625 38.921875 53.515625 30.90625 
L 53.515625 0 
L 44.484375 0 
L 44.484375 32.71875 
Q 44.484375 40.625 41.703125 44.40625 
Q 38.921875 48.1875 33.109375 48.1875 
Q 26.21875 48.1875 22.15625 43.53125 
Q 18.109375 38.875 18.109375 30.90625 
L 18.109375 0 
L 9.078125 0 
L 9.078125 54.6875 
L 18.109375 54.6875 
L 18.109375 46.1875 
Q 21.1875 51.21875 25.484375 53.609375 
Q 29.78125 56 35.6875 56 
Q 41.65625 56 45.828125 52.96875 
Q 50 49.953125 52 44.1875 
z
" id="DejaVuSans-109"/>
       <path d="M 8.5 21.578125 
L 8.5 54.6875 
L 17.484375 54.6875 
L 17.484375 21.921875 
Q 17.484375 14.15625 20.5 10.265625 
Q 23.53125 6.390625 29.59375 6.390625 
Q 36.859375 6.390625 41.078125 11.03125 
Q 45.3125 15.671875 45.3125 23.6875 
L 45.3125 54.6875 
L 54.296875 54.6875 
L 54.296875 0 
L 45.3125 0 
L 45.3125 8.40625 
Q 42.046875 3.421875 37.71875 1 
Q 33.40625 -1.421875 27.6875 -1.421875 
Q 18.265625 -1.421875 13.375 4.4375 
Q 8.5 10.296875 8.5 21.578125 
z
M 31.109375 56 
z
" id="DejaVuSans-117"/>
      </defs>
      <use xlink:href="#DejaVuSans-65"/>
      <use x="68.408203" xlink:href="#DejaVuSans-73"/>
      <use x="97.900391" xlink:href="#DejaVuSans-83"/>
      <use x="161.376953" xlink:href="#DejaVuSans-32"/>
      <use x="193.164062" xlink:href="#DejaVuSans-97"/>
      <use x="254.443359" xlink:href="#DejaVuSans-115"/>
      <use x="306.542969" xlink:href="#DejaVuSans-32"/>
      <use x="338.330078" xlink:href="#DejaVuSans-109"/>
      <use x="435.742188" xlink:href="#DejaVuSans-101"/>
      <use x="497.265625" xlink:href="#DejaVuSans-97"/>
      <use x="558.544922" xlink:href="#DejaVuSans-115"/>
      <use x="610.644531" xlink:href="#DejaVuSans-117"/>
      <use x="674.023438" xlink:href="#DejaVuSans-114"/>
      <use x="712.886719" xlink:href="#DejaVuSans-101"/>
      <use x="774.410156" xlink:href="#DejaVuSans-109"/>
      <use x="871.822266" xlink:href="#DejaVuSans-101"/>
      <use x="933.345703" xlink:href="#DejaVuSans-110"/>
      <use x="996.724609" xlink:href="#DejaVuSans-116"/>
     </g>
    </g>
   </g>
  </g>
 </g>
 <defs>
  <clipPath id="p724711bda4">
   <rect height="379.24" width="661.57" x="47.63" y="10.8"/>
  </clipPath>
 </defs>
</svg>
