<?xml version="1.0" encoding="utf-8" standalone="no"?>
<!DOCTYPE svg PUBLIC "-//W3C//DTD SVG 1.1//EN"
  "http://www.w3.org/Graphics/SVG/1.1/DTD/svg11.dtd">
<!-- Created with matplotlib (https://matplotlib.org/) -->
<svg height="432pt" version="1.1" viewBox="0 0 720 432" width="720pt" xmlns="http://www.w3.org/2000/svg" xmlns:xlink="http://www.w3.org/1999/xlink">
 <metadata>
  <rdf:RDF xmlns:cc="http://creativecommons.org/ns#" xmlns:dc="http://purl.org/dc/elements/1.1/" xmlns:rdf="http://www.w3.org/1999/02/22-rdf-syntax-ns#">
   <cc:Work>
    <dc:type rdf:resource="http://purl.org/dc/dcmitype/StillImage"/>
    <dc:date>2020-09-10T14:56:06.782688</dc:date>
    <dc:format>image/svg+xml</dc:format>
    <dc:creator>
     <cc:Agent>
      <dc:title>Matplotlib v3.3.1, https://matplotlib.org/</dc:title>
     </cc:Agent>
    </dc:creator>
   </cc:Work>
  </rdf:RDF>
 </metadata>
 <defs>
  <style type="text/css">*{stroke-linecap:butt;stroke-linejoin:round;}</style>
 </defs>
 <g id="figure_1">
  <g id="patch_1">
   <path d="M 0 432 
L 720 432 
L 720 0 
L 0 0 
z
" style="fill:#ffffff;"/>
  </g>
  <g id="axes_1">
   <g id="patch_2">
    <path d="M 45.29 390.04 
L 709.2 390.04 
L 709.2 26.88 
L 45.29 26.88 
z
" style="fill:#ffffff;"/>
   </g>
   <g id="PathCollection_1">
    <defs>
     <path d="M 0 3 
C 0.795609 3 1.55874 2.683901 2.12132 2.12132 
C 2.683901 1.55874 3 0.795609 3 0 
C 3 -0.795609 2.683901 -1.55874 2.12132 -2.12132 
C 1.55874 -2.683901 0.795609 -3 0 -3 
C -0.795609 -3 -1.55874 -2.683901 -2.12132 -2.12132 
C -2.683901 -1.55874 -3 -0.795609 -3 0 
C -3 0.795609 -2.683901 1.55874 -2.12132 2.12132 
C -1.55874 2.683901 -0.795609 3 0 3 
z
" id="m8781b57cdc" style="stroke:#0000ff;"/>
    </defs>
    <g clip-path="url(#p0ab7d0c316)">
     <use style="fill:#0000ff;stroke:#0000ff;" x="158.277038" xlink:href="#m8781b57cdc" y="373.532727"/>
     <use style="fill:#0000ff;stroke:#0000ff;" x="137.026331" xlink:href="#m8781b57cdc" y="373.45622"/>
     <use style="fill:#0000ff;stroke:#0000ff;" x="205.798362" xlink:href="#m8781b57cdc" y="333.328318"/>
     <use style="fill:#0000ff;stroke:#0000ff;" x="264.75645" xlink:href="#m8781b57cdc" y="320.196558"/>
     <use style="fill:#0000ff;stroke:#0000ff;" x="232.796631" xlink:href="#m8781b57cdc" y="262.148369"/>
     <use style="fill:#0000ff;stroke:#0000ff;" x="272.044651" xlink:href="#m8781b57cdc" y="323.864859"/>
     <use style="fill:#0000ff;stroke:#0000ff;" x="270.003189" xlink:href="#m8781b57cdc" y="271.062837"/>
     <use style="fill:#0000ff;stroke:#0000ff;" x="259.523804" xlink:href="#m8781b57cdc" y="290.731115"/>
     <use style="fill:#0000ff;stroke:#0000ff;" x="354.456257" xlink:href="#m8781b57cdc" y="242.502877"/>
     <use style="fill:#0000ff;stroke:#0000ff;" x="366.709343" xlink:href="#m8781b57cdc" y="177.873065"/>
     <use style="fill:#0000ff;stroke:#0000ff;" x="356.154795" xlink:href="#m8781b57cdc" y="214.928328"/>
     <use style="fill:#0000ff;stroke:#0000ff;" x="432.014024" xlink:href="#m8781b57cdc" y="99.616623"/>
     <use style="fill:#0000ff;stroke:#0000ff;" x="388.00031" xlink:href="#m8781b57cdc" y="206.502895"/>
     <use style="fill:#0000ff;stroke:#0000ff;" x="370.693072" xlink:href="#m8781b57cdc" y="130.170317"/>
     <use style="fill:#0000ff;stroke:#0000ff;" x="477.706146" xlink:href="#m8781b57cdc" y="170.139603"/>
     <use style="fill:#0000ff;stroke:#0000ff;" x="443.911981" xlink:href="#m8781b57cdc" y="156.803837"/>
     <use style="fill:#0000ff;stroke:#0000ff;" x="501.651839" xlink:href="#m8781b57cdc" y="130.902956"/>
     <use style="fill:#0000ff;stroke:#0000ff;" x="557.632472" xlink:href="#m8781b57cdc" y="120.99685"/>
     <use style="fill:#0000ff;stroke:#0000ff;" x="558.904963" xlink:href="#m8781b57cdc" y="104.191027"/>
     <use style="fill:#0000ff;stroke:#0000ff;" x="583.433983" xlink:href="#m8781b57cdc" y="107.893109"/>
     <use style="fill:#0000ff;stroke:#0000ff;" x="617.463669" xlink:href="#m8781b57cdc" y="43.387273"/>
    </g>
   </g>
   <g id="PathCollection_2">
    <defs>
     <path d="M 0 3 
C 0.795609 3 1.55874 2.683901 2.12132 2.12132 
C 2.683901 1.55874 3 0.795609 3 0 
C 3 -0.795609 2.683901 -1.55874 2.12132 -2.12132 
C 1.55874 -2.683901 0.795609 -3 0 -3 
C -0.795609 -3 -1.55874 -2.683901 -2.12132 -2.12132 
C -2.683901 -1.55874 -3 -0.795609 -3 0 
C -3 0.795609 -2.683901 1.55874 -2.12132 2.12132 
C -1.55874 2.683901 -0.795609 3 0 3 
z
" id="m22dd32bcf3" style="stroke:#ff0000;"/>
    </defs>
    <g clip-path="url(#p0ab7d0c316)">
     <use style="fill:#ff0000;stroke:#ff0000;" x="199.834352" xlink:href="#m22dd32bcf3" y="326.085746"/>
     <use style="fill:#ff0000;stroke:#ff0000;" x="221.479669" xlink:href="#m22dd32bcf3" y="329.49152"/>
     <use style="fill:#ff0000;stroke:#ff0000;" x="290.209604" xlink:href="#m22dd32bcf3" y="264.712469"/>
     <use style="fill:#ff0000;stroke:#ff0000;" x="304.059017" xlink:href="#m22dd32bcf3" y="232.280516"/>
     <use style="fill:#ff0000;stroke:#ff0000;" x="317.176898" xlink:href="#m22dd32bcf3" y="253.241465"/>
     <use style="fill:#ff0000;stroke:#ff0000;" x="361.472042" xlink:href="#m22dd32bcf3" y="193.458281"/>
     <use style="fill:#ff0000;stroke:#ff0000;" x="420.356168" xlink:href="#m22dd32bcf3" y="192.45439"/>
     <use style="fill:#ff0000;stroke:#ff0000;" x="487.228801" xlink:href="#m22dd32bcf3" y="140.707494"/>
     <use style="fill:#ff0000;stroke:#ff0000;" x="527.794733" xlink:href="#m22dd32bcf3" y="74.374841"/>
     <use style="fill:#ff0000;stroke:#ff0000;" x="561.563708" xlink:href="#m22dd32bcf3" y="103.563804"/>
    </g>
   </g>
   <g id="patch_3">
    <path clip-path="url(#p0ab7d0c316)" d="M 192.666041 346.444997 
C 196.120272 346.444997 199.433491 345.072616 201.876001 342.630106 
C 204.318511 340.187596 205.690891 336.874377 205.690891 333.420147 
C 205.690891 329.965916 204.318511 326.652697 201.876001 324.210187 
C 199.433491 321.767677 196.120272 320.395297 192.666041 320.395297 
C 189.211811 320.395297 185.898592 321.767677 183.456082 324.210187 
C 181.013572 326.652697 179.641191 329.965916 179.641191 333.420147 
C 179.641191 336.874377 181.013572 340.187596 183.456082 342.630106 
C 185.898592 345.072616 189.211811 346.444997 192.666041 346.444997 
z
" style="fill:#ff0000;opacity:0.2;stroke:#ff0000;stroke-linejoin:miter;"/>
   </g>
   <g id="patch_4">
    <path clip-path="url(#p0ab7d0c316)" d="M 224.017826 334.641573 
C 227.690564 334.641573 231.21337 333.182379 233.810388 330.585361 
C 236.407405 327.988344 237.866599 324.465537 237.866599 320.7928 
C 237.866599 317.120062 236.407405 313.597256 233.810388 311.000238 
C 231.21337 308.40322 227.690564 306.944026 224.017826 306.944026 
C 220.345088 306.944026 216.822282 308.40322 214.225265 311.000238 
C 211.628247 313.597256 210.169053 317.120062 210.169053 320.7928 
C 210.169053 324.465537 211.628247 327.988344 214.225265 330.585361 
C 216.822282 333.182379 220.345088 334.641573 224.017826 334.641573 
z
" style="fill:#ff0000;opacity:0.2;stroke:#ff0000;stroke-linejoin:miter;"/>
   </g>
   <g id="patch_5">
    <path clip-path="url(#p0ab7d0c316)" d="M 281.030875 288.100086 
C 284.609809 288.100086 288.042641 286.678161 290.573329 284.147472 
C 293.104018 281.616784 294.525943 278.183952 294.525943 274.605018 
C 294.525943 271.026084 293.104018 267.593252 290.573329 265.062564 
C 288.042641 262.531876 284.609809 261.10995 281.030875 261.10995 
C 277.451941 261.10995 274.01911 262.531876 271.488421 265.062564 
C 268.957733 267.593252 267.535807 271.026084 267.535807 274.605018 
C 267.535807 278.183952 268.957733 281.616784 271.488421 284.147472 
C 274.01911 286.678161 277.451941 288.100086 281.030875 288.100086 
z
" style="fill:#ff0000;opacity:0.2;stroke:#ff0000;stroke-linejoin:miter;"/>
   </g>
   <g id="patch_6">
    <path clip-path="url(#p0ab7d0c316)" d="M 312.077625 248.109743 
C 315.470614 248.109743 318.725091 246.761695 321.124296 244.36249 
C 323.523501 241.963284 324.87155 238.708807 324.87155 235.315819 
C 324.87155 231.92283 323.523501 228.668353 321.124296 226.269148 
C 318.725091 223.869943 315.470614 222.521894 312.077625 222.521894 
C 308.684637 222.521894 305.43016 223.869943 303.030955 226.269148 
C 300.631749 228.668353 299.283701 231.92283 299.283701 235.315819 
C 299.283701 238.708807 300.631749 241.963284 303.030955 244.36249 
C 305.43016 246.761695 308.684637 248.109743 312.077625 248.109743 
z
" style="fill:#ff0000;opacity:0.2;stroke:#ff0000;stroke-linejoin:miter;"/>
   </g>
   <g id="patch_7">
    <path clip-path="url(#p0ab7d0c316)" d="M 331.396115 243.198903 
C 334.638015 243.198903 337.747571 241.910882 340.03994 239.618513 
C 342.332309 237.326144 343.62033 234.216588 343.62033 230.974688 
C 343.62033 227.732789 342.332309 224.623232 340.03994 222.330863 
C 337.747571 220.038494 334.638015 218.750474 331.396115 218.750474 
C 328.154216 218.750474 325.044659 220.038494 322.75229 222.330863 
C 320.459921 224.623232 319.171901 227.732789 319.171901 230.974688 
C 319.171901 234.216588 320.459921 237.326144 322.75229 239.618513 
C 325.044659 241.910882 328.154216 243.198903 331.396115 243.198903 
z
" style="fill:#ff0000;opacity:0.2;stroke:#ff0000;stroke-linejoin:miter;"/>
   </g>
   <g id="patch_8">
    <path clip-path="url(#p0ab7d0c316)" d="M 362.349575 211.238836 
C 365.496682 211.238836 368.515315 209.988477 370.740655 207.763137 
C 372.965996 205.537796 374.216355 202.519163 374.216355 199.372057 
C 374.216355 196.22495 372.965996 193.206317 370.740655 190.980977 
C 368.515315 188.755636 365.496682 187.505277 362.349575 187.505277 
C 359.202469 187.505277 356.183835 188.755636 353.958495 190.980977 
C 351.733155 193.206317 350.482796 196.22495 350.482796 199.372057 
C 350.482796 202.519163 351.733155 205.537796 353.958495 207.763137 
C 356.183835 209.988477 359.202469 211.238836 362.349575 211.238836 
z
" style="fill:#ff0000;opacity:0.2;stroke:#ff0000;stroke-linejoin:miter;"/>
   </g>
   <g id="patch_9">
    <path clip-path="url(#p0ab7d0c316)" d="M 408.153963 194.883798 
C 411.253408 194.883798 414.226325 193.652375 416.417963 191.460737 
C 418.609601 189.269099 419.841024 186.296182 419.841024 183.196737 
C 419.841024 180.097292 418.609601 177.124375 416.417963 174.932737 
C 414.226325 172.741098 411.253408 171.509676 408.153963 171.509676 
C 405.054518 171.509676 402.081601 172.741098 399.889963 174.932737 
C 397.698324 177.124375 396.466902 180.097292 396.466902 183.196737 
C 396.466902 186.296182 397.698324 189.269099 399.889963 191.460737 
C 402.081601 193.652375 405.054518 194.883798 408.153963 194.883798 
z
" style="fill:#ff0000;opacity:0.2;stroke:#ff0000;stroke-linejoin:miter;"/>
   </g>
   <g id="patch_10">
    <path clip-path="url(#p0ab7d0c316)" d="M 467.374674 161.458438 
C 470.45566 161.458438 473.410872 160.234349 475.589458 158.055763 
C 477.768044 155.877177 478.992133 152.921965 478.992133 149.840979 
C 478.992133 146.759993 477.768044 143.804782 475.589458 141.626195 
C 473.410872 139.447609 470.45566 138.223521 467.374674 138.223521 
C 464.293688 138.223521 461.338477 139.447609 459.159891 141.626195 
C 456.981305 143.804782 455.757216 146.759993 455.757216 149.840979 
C 455.757216 152.921965 456.981305 155.877177 459.159891 158.055763 
C 461.338477 160.234349 464.293688 161.458438 467.374674 161.458438 
z
" style="fill:#ff0000;opacity:0.2;stroke:#ff0000;stroke-linejoin:miter;"/>
   </g>
   <g id="patch_11">
    <path clip-path="url(#p0ab7d0c316)" d="M 520.514765 108.897659 
C 523.590839 108.897659 526.54134 107.675522 528.716453 105.500409 
C 530.891566 103.325296 532.113703 100.374795 532.113703 97.298721 
C 532.113703 94.222646 530.891566 91.272146 528.716453 89.097033 
C 526.54134 86.92192 523.590839 85.699782 520.514765 85.699782 
C 517.43869 85.699782 514.48819 86.92192 512.313077 89.097033 
C 510.137964 91.272146 508.915826 94.222646 508.915826 97.298721 
C 508.915826 100.374795 510.137964 103.325296 512.313077 105.500409 
C 514.48819 107.675522 517.43869 108.897659 520.514765 108.897659 
z
" style="fill:#ff0000;opacity:0.2;stroke:#ff0000;stroke-linejoin:miter;"/>
   </g>
   <g id="patch_12">
    <path clip-path="url(#p0ab7d0c316)" d="M 564.822091 95.130723 
C 567.897632 95.130723 570.84762 93.908798 573.022355 91.734063 
C 575.197091 89.559327 576.419016 86.609339 576.419016 83.533799 
C 576.419016 80.458258 575.197091 77.50827 573.022355 75.333534 
C 570.84762 73.158799 567.897632 71.936874 564.822091 71.936874 
C 561.746551 71.936874 558.796563 73.158799 556.621827 75.333534 
C 554.447092 77.50827 553.225167 80.458258 553.225167 83.533799 
C 553.225167 86.609339 554.447092 89.559327 556.621827 91.734063 
C 558.796563 93.908798 561.746551 95.130723 564.822091 95.130723 
z
" style="fill:#ff0000;opacity:0.2;stroke:#ff0000;stroke-linejoin:miter;"/>
   </g>
   <g id="patch_13">
    <path clip-path="url(#p0ab7d0c316)" d="M 181.021985 353.655343 
C 183.692922 353.655343 186.254824 352.594168 188.143462 350.70553 
C 190.0321 348.816893 191.093275 346.25499 191.093275 343.584053 
C 191.093275 340.913116 190.0321 338.351213 188.143462 336.462576 
C 186.254824 334.573938 183.692922 333.512763 181.021985 333.512763 
C 178.351047 333.512763 175.789145 334.573938 173.900507 336.462576 
C 172.011869 338.351213 170.950695 340.913116 170.950695 343.584053 
C 170.950695 346.25499 172.011869 348.816893 173.900507 350.70553 
C 175.789145 352.594168 178.351047 353.655343 181.021985 353.655343 
z
" style="fill:#008000;opacity:0.5;stroke:#008000;stroke-linejoin:miter;"/>
   </g>
   <g id="patch_14">
    <path clip-path="url(#p0ab7d0c316)" d="M 227.026477 332.348028 
C 229.974657 332.348028 232.802483 331.176704 234.88716 329.092027 
C 236.971838 327.007349 238.143162 324.179523 238.143162 321.231344 
C 238.143162 318.283164 236.971838 315.455338 234.88716 313.370661 
C 232.802483 311.285983 229.974657 310.114659 227.026477 310.114659 
C 224.078298 310.114659 221.250472 311.285983 219.165794 313.370661 
C 217.081117 315.455338 215.909793 318.283164 215.909793 321.231344 
C 215.909793 324.179523 217.081117 327.007349 219.165794 329.092027 
C 221.250472 331.176704 224.078298 332.348028 227.026477 332.348028 
z
" style="fill:#008000;opacity:0.5;stroke:#008000;stroke-linejoin:miter;"/>
   </g>
   <g id="patch_15">
    <path clip-path="url(#p0ab7d0c316)" d="M 277.252268 290.812015 
C 280.119806 290.812015 282.870284 289.67273 284.89794 287.645074 
C 286.925596 285.617418 288.064881 282.86694 288.064881 279.999402 
C 288.064881 277.131863 286.925596 274.381385 284.89794 272.353729 
C 282.870284 270.326073 280.119806 269.186788 277.252268 269.186788 
C 274.384729 269.186788 271.634251 270.326073 269.606595 272.353729 
C 267.57894 274.381385 266.439654 277.131863 266.439654 279.999402 
C 266.439654 282.86694 267.57894 285.617418 269.606595 287.645074 
C 271.634251 289.67273 274.384729 290.812015 277.252268 290.812015 
z
" style="fill:#008000;opacity:0.5;stroke:#008000;stroke-linejoin:miter;"/>
   </g>
   <g id="patch_16">
    <path clip-path="url(#p0ab7d0c316)" d="M 303.311525 257.897382 
C 306.016441 257.897382 308.610935 256.822707 310.523599 254.910043 
C 312.436263 252.997378 313.510938 250.402885 313.510938 247.697969 
C 313.510938 244.993053 312.436263 242.398559 310.523599 240.485895 
C 308.610935 238.57323 306.016441 237.498556 303.311525 237.498556 
C 300.606609 237.498556 298.012115 238.57323 296.099451 240.485895 
C 294.186787 242.398559 293.112112 244.993053 293.112112 247.697969 
C 293.112112 250.402885 294.186787 252.997378 296.099451 254.910043 
C 298.012115 256.822707 300.606609 257.897382 303.311525 257.897382 
z
" style="fill:#008000;opacity:0.5;stroke:#008000;stroke-linejoin:miter;"/>
   </g>
   <g id="patch_17">
    <path clip-path="url(#p0ab7d0c316)" d="M 338.811226 235.363895 
C 341.384287 235.363895 343.852308 234.341607 345.671737 232.522178 
C 347.491166 230.70275 348.513454 228.234728 348.513454 225.661667 
C 348.513454 223.088606 347.491166 220.620585 345.671737 218.801156 
C 343.852308 216.981727 341.384287 215.959439 338.811226 215.959439 
C 336.238165 215.959439 333.770144 216.981727 331.950715 218.801156 
C 330.131286 220.620585 329.108998 223.088606 329.108998 225.661667 
C 329.108998 228.234728 330.131286 230.70275 331.950715 232.522178 
C 333.770144 234.341607 336.238165 235.363895 338.811226 235.363895 
z
" style="fill:#008000;opacity:0.5;stroke:#008000;stroke-linejoin:miter;"/>
   </g>
   <g id="patch_18">
    <path clip-path="url(#p0ab7d0c316)" d="M 377.238619 194.057834 
C 379.727674 194.057834 382.115119 193.068922 383.875147 191.308894 
C 385.635174 189.548866 386.624086 187.161421 386.624086 184.672366 
C 386.624086 182.183311 385.635174 179.795866 383.875147 178.035838 
C 382.115119 176.275811 379.727674 175.286899 377.238619 175.286899 
C 374.749564 175.286899 372.362119 176.275811 370.602091 178.035838 
C 368.842063 179.795866 367.853151 182.183311 367.853151 184.672366 
C 367.853151 187.161421 368.842063 189.548866 370.602091 191.308894 
C 372.362119 193.068922 374.749564 194.057834 377.238619 194.057834 
z
" style="fill:#008000;opacity:0.5;stroke:#008000;stroke-linejoin:miter;"/>
   </g>
   <g id="patch_19">
    <path clip-path="url(#p0ab7d0c316)" d="M 411.10249 175.414678 
C 413.547715 175.414678 415.89312 174.443179 417.622155 172.714144 
C 419.351191 170.985109 420.322689 168.639704 420.322689 166.194479 
C 420.322689 163.749253 419.351191 161.403849 417.622155 159.674814 
C 415.89312 157.945778 413.547715 156.97428 411.10249 156.97428 
C 408.657265 156.97428 406.31186 157.945778 404.582825 159.674814 
C 402.853789 161.403849 401.882291 163.749253 401.882291 166.194479 
C 401.882291 168.639704 402.853789 170.985109 404.582825 172.714144 
C 406.31186 174.443179 408.657265 175.414678 411.10249 175.414678 
z
" style="fill:#008000;opacity:0.5;stroke:#008000;stroke-linejoin:miter;"/>
   </g>
   <g id="patch_20">
    <path clip-path="url(#p0ab7d0c316)" d="M 464.665151 151.443954 
C 467.092288 151.443954 469.420342 150.479642 471.136587 148.763397 
C 472.852832 147.047152 473.817144 144.719098 473.817144 142.291961 
C 473.817144 139.864824 472.852832 137.53677 471.136587 135.820525 
C 469.420342 134.10428 467.092288 133.139968 464.665151 133.139968 
C 462.238014 133.139968 459.90996 134.10428 458.193715 135.820525 
C 456.47747 137.53677 455.513158 139.864824 455.513158 142.291961 
C 455.513158 144.719098 456.47747 147.047152 458.193715 148.763397 
C 459.90996 150.479642 462.238014 151.443954 464.665151 151.443954 
z
" style="fill:#008000;opacity:0.5;stroke:#008000;stroke-linejoin:miter;"/>
   </g>
   <g id="patch_21">
    <path clip-path="url(#p0ab7d0c316)" d="M 520.671382 111.666716 
C 523.093163 111.666716 525.416081 110.704532 527.128539 108.992074 
C 528.840997 107.279616 529.803181 104.956698 529.803181 102.534916 
C 529.803181 100.113135 528.840997 97.790217 527.128539 96.077759 
C 525.416081 94.365301 523.093163 93.403117 520.671382 93.403117 
C 518.2496 93.403117 515.926682 94.365301 514.214224 96.077759 
C 512.501766 97.790217 511.539582 100.113135 511.539582 102.534916 
C 511.539582 104.956698 512.501766 107.279616 514.214224 108.992074 
C 515.926682 110.704532 518.2496 111.666716 520.671382 111.666716 
z
" style="fill:#008000;opacity:0.5;stroke:#008000;stroke-linejoin:miter;"/>
   </g>
   <g id="patch_22">
    <path clip-path="url(#p0ab7d0c316)" d="M 568.645931 96.356563 
C 571.066952 96.356563 573.389141 95.394681 575.101061 93.68276 
C 576.812982 91.970839 577.774864 89.648651 577.774864 87.227629 
C 577.774864 84.806608 576.812982 82.484419 575.101061 80.772499 
C 573.389141 79.060578 571.066952 78.098696 568.645931 78.098696 
C 566.224909 78.098696 563.902721 79.060578 562.1908 80.772499 
C 560.478879 82.484419 559.516997 84.806608 559.516997 87.227629 
C 559.516997 89.648651 560.478879 91.970839 562.1908 93.68276 
C 563.902721 95.394681 566.224909 96.356563 568.645931 96.356563 
z
" style="fill:#008000;opacity:0.5;stroke:#008000;stroke-linejoin:miter;"/>
   </g>
   <g id="patch_23">
    <path clip-path="url(#p0ab7d0c316)" d="M 162.357832 364.061089 
C 162.357832 364.061089 162.357832 364.061089 162.357832 364.061089 
C 162.357832 364.061089 162.357832 364.061089 162.357832 364.061089 
C 162.357832 364.061089 162.357832 364.061089 162.357832 364.061089 
C 162.357832 364.061089 162.357832 364.061089 162.357832 364.061089 
C 162.357832 364.061089 162.357832 364.061089 162.357832 364.061089 
C 162.357832 364.061089 162.357832 364.061089 162.357832 364.061089 
C 162.357832 364.061089 162.357832 364.061089 162.357832 364.061089 
C 162.357832 364.061089 162.357832 364.061089 162.357832 364.061089 
z
" style="fill:#ff0000;opacity:0.2;stroke:#ff0000;stroke-linejoin:miter;"/>
   </g>
   <g id="patch_24">
    <path clip-path="url(#p0ab7d0c316)" d="M 162.357832 364.061089 
C 162.357832 364.061089 162.357832 364.061089 162.357832 364.061089 
C 162.357832 364.061089 162.357832 364.061089 162.357832 364.061089 
C 162.357832 364.061089 162.357832 364.061089 162.357832 364.061089 
C 162.357832 364.061089 162.357832 364.061089 162.357832 364.061089 
C 162.357832 364.061089 162.357832 364.061089 162.357832 364.061089 
C 162.357832 364.061089 162.357832 364.061089 162.357832 364.061089 
C 162.357832 364.061089 162.357832 364.061089 162.357832 364.061089 
C 162.357832 364.061089 162.357832 364.061089 162.357832 364.061089 
z
" style="fill:#0000ff;opacity:0.2;stroke:#0000ff;stroke-linejoin:miter;"/>
   </g>
   <g id="patch_25">
    <path clip-path="url(#p0ab7d0c316)" d="M 162.357832 364.061089 
C 162.357832 364.061089 162.357832 364.061089 162.357832 364.061089 
C 162.357832 364.061089 162.357832 364.061089 162.357832 364.061089 
C 162.357832 364.061089 162.357832 364.061089 162.357832 364.061089 
C 162.357832 364.061089 162.357832 364.061089 162.357832 364.061089 
C 162.357832 364.061089 162.357832 364.061089 162.357832 364.061089 
C 162.357832 364.061089 162.357832 364.061089 162.357832 364.061089 
C 162.357832 364.061089 162.357832 364.061089 162.357832 364.061089 
C 162.357832 364.061089 162.357832 364.061089 162.357832 364.061089 
z
" style="fill:#008000;opacity:0.5;stroke:#008000;stroke-linejoin:miter;"/>
   </g>
   <g id="patch_26">
    <path clip-path="url(#p0ab7d0c316)" d="M 160.997568 383.165995 
C 165.226945 383.165995 169.283668 381.485646 172.27429 378.495024 
C 175.264912 375.504402 176.945261 371.447679 176.945261 367.218302 
C 176.945261 362.988924 175.264912 358.932201 172.27429 355.941579 
C 169.283668 352.950957 165.226945 351.270608 160.997568 351.270608 
C 156.76819 351.270608 152.711467 352.950957 149.720845 355.941579 
C 146.730223 358.932201 145.049874 362.988924 145.049874 367.218302 
C 145.049874 371.447679 146.730223 375.504402 149.720845 378.495024 
C 152.711467 381.485646 156.76819 383.165995 160.997568 383.165995 
z
" style="fill:#0000ff;opacity:0.2;stroke:#0000ff;stroke-linejoin:miter;"/>
   </g>
   <g id="patch_27">
    <path clip-path="url(#p0ab7d0c316)" d="M 163.619253 374.636253 
C 167.85176 374.636253 171.911485 372.95466 174.904319 369.961826 
C 177.897154 366.968991 179.578747 362.909267 179.578747 358.676759 
C 179.578747 354.444252 177.897154 350.384528 174.904319 347.391693 
C 171.911485 344.398859 167.85176 342.717266 163.619253 342.717266 
C 159.386746 342.717266 155.327021 344.398859 152.334187 347.391693 
C 149.341352 350.384528 147.659759 354.444252 147.659759 358.676759 
C 147.659759 362.909267 149.341352 366.968991 152.334187 369.961826 
C 155.327021 372.95466 159.386746 374.636253 163.619253 374.636253 
z
" style="fill:#0000ff;opacity:0.2;stroke:#0000ff;stroke-linejoin:miter;"/>
   </g>
   <g id="patch_28">
    <path clip-path="url(#p0ab7d0c316)" d="M 187.844096 358.080592 
C 192.56504 358.080592 197.093263 356.204941 200.431475 352.866729 
C 203.769687 349.528517 205.645339 345.000294 205.645339 340.279349 
C 205.645339 335.558405 203.769687 331.030182 200.431475 327.69197 
C 197.093263 324.353758 192.56504 322.478106 187.844096 322.478106 
C 183.123151 322.478106 178.594928 324.353758 175.256716 327.69197 
C 171.918504 331.030182 170.042853 335.558405 170.042853 340.279349 
C 170.042853 345.000294 171.918504 349.528517 175.256716 352.866729 
C 178.594928 356.204941 183.123151 358.080592 187.844096 358.080592 
z
" style="fill:#0000ff;opacity:0.2;stroke:#0000ff;stroke-linejoin:miter;"/>
   </g>
   <g id="patch_29">
    <path clip-path="url(#p0ab7d0c316)" d="M 231.769424 341.456876 
C 236.718435 341.456876 241.465414 339.490613 244.964893 335.991134 
C 248.464372 332.491655 250.430635 327.744676 250.430635 322.795665 
C 250.430635 317.846654 248.464372 313.099675 244.964893 309.600196 
C 241.465414 306.100717 236.718435 304.134454 231.769424 304.134454 
C 226.820413 304.134454 222.073434 306.100717 218.573955 309.600196 
C 215.074476 313.099675 213.108213 317.846654 213.108213 322.795665 
C 213.108213 327.744676 215.074476 332.491655 218.573955 335.991134 
C 222.073434 339.490613 226.820413 341.456876 231.769424 341.456876 
z
" style="fill:#0000ff;opacity:0.2;stroke:#0000ff;stroke-linejoin:miter;"/>
   </g>
   <g id="patch_30">
    <path clip-path="url(#p0ab7d0c316)" d="M 245.982779 305.159803 
C 250.913263 305.159803 255.642471 303.200901 259.128849 299.714522 
C 262.615228 296.228143 264.57413 291.498936 264.57413 286.568452 
C 264.57413 281.637968 262.615228 276.90876 259.128849 273.422381 
C 255.642471 269.936003 250.913263 267.977101 245.982779 267.977101 
C 241.052295 267.977101 236.323087 269.936003 232.836709 273.422381 
C 229.35033 276.90876 227.391428 281.637968 227.391428 286.568452 
C 227.391428 291.498936 229.35033 296.228143 232.836709 299.714522 
C 236.323087 303.200901 241.052295 305.159803 245.982779 305.159803 
z
" style="fill:#0000ff;opacity:0.2;stroke:#0000ff;stroke-linejoin:miter;"/>
   </g>
   <g id="patch_31">
    <path clip-path="url(#p0ab7d0c316)" d="M 269.819246 308.434847 
C 274.621301 308.434847 279.227323 306.52697 282.622888 303.131405 
C 286.018454 299.735839 287.926331 295.129817 287.926331 290.327762 
C 287.926331 285.525707 286.018454 280.919685 282.622888 277.524119 
C 279.227323 274.128553 274.621301 272.220677 269.819246 272.220677 
C 265.01719 272.220677 260.411169 274.128553 257.015603 277.524119 
C 253.620037 280.919685 251.71216 285.525707 251.71216 290.327762 
C 251.71216 295.129817 253.620037 299.735839 257.015603 303.131405 
C 260.411169 306.52697 265.01719 308.434847 269.819246 308.434847 
z
" style="fill:#0000ff;opacity:0.2;stroke:#0000ff;stroke-linejoin:miter;"/>
   </g>
   <g id="patch_32">
    <path clip-path="url(#p0ab7d0c316)" d="M 283.387453 290.79128 
C 288.030429 290.79128 292.483866 288.946606 295.766945 285.663526 
C 299.050025 282.380446 300.894699 277.92701 300.894699 273.284034 
C 300.894699 268.641058 299.050025 264.187621 295.766945 260.904541 
C 292.483866 257.621461 288.030429 255.776787 283.387453 255.776787 
C 278.744477 255.776787 274.29104 257.621461 271.00796 260.904541 
C 267.72488 264.187621 265.880206 268.641058 265.880206 273.284034 
C 265.880206 277.92701 267.72488 282.380446 271.00796 285.663526 
C 274.29104 288.946606 278.744477 290.79128 283.387453 290.79128 
z
" style="fill:#0000ff;opacity:0.2;stroke:#0000ff;stroke-linejoin:miter;"/>
   </g>
   <g id="patch_33">
    <path clip-path="url(#p0ab7d0c316)" d="M 287.340605 286.845606 
C 291.828648 286.845606 296.133477 285.062488 299.307003 281.888962 
C 302.480529 278.715436 304.263647 274.410607 304.263647 269.922564 
C 304.263647 265.434521 302.480529 261.129692 299.307003 257.956166 
C 296.133477 254.78264 291.828648 252.999522 287.340605 252.999522 
C 282.852562 252.999522 278.547733 254.78264 275.374207 257.956166 
C 272.200681 261.129692 270.417563 265.434521 270.417563 269.922564 
C 270.417563 274.410607 272.200681 278.715436 275.374207 281.888962 
C 278.547733 285.062488 282.852562 286.845606 287.340605 286.845606 
z
" style="fill:#0000ff;opacity:0.2;stroke:#0000ff;stroke-linejoin:miter;"/>
   </g>
   <g id="patch_34">
    <path clip-path="url(#p0ab7d0c316)" d="M 322.316844 267.941643 
C 326.667843 267.941643 330.841222 266.212973 333.917843 263.136352 
C 336.994464 260.059731 338.723135 255.886351 338.723135 251.535352 
C 338.723135 247.184353 336.994464 243.010974 333.917843 239.934353 
C 330.841222 236.857732 326.667843 235.129061 322.316844 235.129061 
C 317.965845 235.129061 313.792465 236.857732 310.715844 239.934353 
C 307.639223 243.010974 305.910553 247.184353 305.910553 251.535352 
C 305.910553 255.886351 307.639223 260.059731 310.715844 263.136352 
C 313.792465 266.212973 317.965845 267.941643 322.316844 267.941643 
z
" style="fill:#0000ff;opacity:0.2;stroke:#0000ff;stroke-linejoin:miter;"/>
   </g>
   <g id="patch_35">
    <path clip-path="url(#p0ab7d0c316)" d="M 350.883047 233.322558 
C 355.119453 233.322558 359.182916 231.639416 362.178507 228.643825 
C 365.174097 225.648234 366.857239 221.584771 366.857239 217.348366 
C 366.857239 213.111961 365.174097 209.048497 362.178507 206.052907 
C 359.182916 203.057316 355.119453 201.374174 350.883047 201.374174 
C 346.646642 201.374174 342.583179 203.057316 339.587588 206.052907 
C 336.591997 209.048497 334.908856 213.111961 334.908856 217.348366 
C 334.908856 221.584771 336.591997 225.648234 339.587588 228.643825 
C 342.583179 231.639416 346.646642 233.322558 350.883047 233.322558 
z
" style="fill:#0000ff;opacity:0.2;stroke:#0000ff;stroke-linejoin:miter;"/>
   </g>
   <g id="patch_36">
    <path clip-path="url(#p0ab7d0c316)" d="M 367.518583 220.117584 
C 371.663279 220.117584 375.638776 218.470879 378.569519 215.540137 
C 381.500261 212.609394 383.146967 208.633896 383.146967 204.489201 
C 383.146967 200.344505 381.500261 196.369007 378.569519 193.438264 
C 375.638776 190.507522 371.663279 188.860817 367.518583 188.860817 
C 363.373887 188.860817 359.398389 190.507522 356.467647 193.438264 
C 353.536904 196.369007 351.890199 200.344505 351.890199 204.489201 
C 351.890199 208.633896 353.536904 212.609394 356.467647 215.540137 
C 359.398389 218.470879 363.373887 220.117584 367.518583 220.117584 
z
" style="fill:#0000ff;opacity:0.2;stroke:#0000ff;stroke-linejoin:miter;"/>
   </g>
   <g id="patch_37">
    <path clip-path="url(#p0ab7d0c316)" d="M 402.032458 175.706451 
C 406.106748 175.706451 410.014714 174.087719 412.895672 171.206761 
C 415.77663 168.325802 417.395363 164.417836 417.395363 160.343546 
C 417.395363 156.269256 415.77663 152.36129 412.895672 149.480332 
C 410.014714 146.599374 406.106748 144.980642 402.032458 144.980642 
C 397.958168 144.980642 394.050202 146.599374 391.169244 149.480332 
C 388.288286 152.36129 386.669553 156.269256 386.669553 160.343546 
C 386.669553 164.417836 388.288286 168.325802 391.169244 171.206761 
C 394.050202 174.087719 397.958168 175.706451 402.032458 175.706451 
z
" style="fill:#0000ff;opacity:0.2;stroke:#0000ff;stroke-linejoin:miter;"/>
   </g>
   <g id="patch_38">
    <path clip-path="url(#p0ab7d0c316)" d="M 414.088145 174.434809 
C 418.110694 174.434809 421.969031 172.836633 424.813403 169.992262 
C 427.657775 167.14789 429.255951 163.289552 429.255951 159.267003 
C 429.255951 155.244454 427.657775 151.386117 424.813403 148.541745 
C 421.969031 145.697373 418.110694 144.099198 414.088145 144.099198 
C 410.065596 144.099198 406.207258 145.697373 403.362887 148.541745 
C 400.518515 151.386117 398.920339 155.244454 398.920339 159.267003 
C 398.920339 163.289552 400.518515 167.14789 403.362887 169.992262 
C 406.207258 172.836633 410.065596 174.434809 414.088145 174.434809 
z
" style="fill:#0000ff;opacity:0.2;stroke:#0000ff;stroke-linejoin:miter;"/>
   </g>
   <g id="patch_39">
    <path clip-path="url(#p0ab7d0c316)" d="M 416.337887 152.948306 
C 420.324203 152.948306 424.147788 151.364526 426.966539 148.545774 
C 429.785291 145.727022 431.369071 141.903438 431.369071 137.917121 
C 431.369071 133.930805 429.785291 130.10722 426.966539 127.288469 
C 424.147788 124.469717 420.324203 122.885937 416.337887 122.885937 
C 412.35157 122.885937 408.527986 124.469717 405.709234 127.288469 
C 402.890482 130.10722 401.306702 133.930805 401.306702 137.917121 
C 401.306702 141.903438 402.890482 145.727022 405.709234 148.545774 
C 408.527986 151.364526 412.35157 152.948306 416.337887 152.948306 
z
" style="fill:#0000ff;opacity:0.2;stroke:#0000ff;stroke-linejoin:miter;"/>
   </g>
   <g id="patch_40">
    <path clip-path="url(#p0ab7d0c316)" d="M 447.214877 149.104387 
C 451.177182 149.104387 454.977735 147.530147 457.779507 144.728374 
C 460.58128 141.926602 462.15552 138.126049 462.15552 134.163744 
C 462.15552 130.201439 460.58128 126.400887 457.779507 123.599114 
C 454.977735 120.797341 451.177182 119.223101 447.214877 119.223101 
C 443.252572 119.223101 439.45202 120.797341 436.650247 123.599114 
C 433.848474 126.400887 432.274234 130.201439 432.274234 134.163744 
C 432.274234 138.126049 433.848474 141.926602 436.650247 144.728374 
C 439.45202 147.530147 443.252572 149.104387 447.214877 149.104387 
z
" style="fill:#0000ff;opacity:0.2;stroke:#0000ff;stroke-linejoin:miter;"/>
   </g>
   <g id="patch_41">
    <path clip-path="url(#p0ab7d0c316)" d="M 460.708971 144.158888 
C 464.656369 144.158888 468.442623 142.59057 471.233855 139.799338 
C 474.025087 137.008106 475.593405 133.221852 475.593405 129.274454 
C 475.593405 125.327056 474.025087 121.540802 471.233855 118.749571 
C 468.442623 115.958339 464.656369 114.390021 460.708971 114.390021 
C 456.761573 114.390021 452.975319 115.958339 450.184087 118.749571 
C 447.392856 121.540802 445.824538 125.327056 445.824538 129.274454 
C 445.824538 133.221852 447.392856 137.008106 450.184087 139.799338 
C 452.975319 142.59057 456.761573 144.158888 460.708971 144.158888 
z
" style="fill:#0000ff;opacity:0.2;stroke:#0000ff;stroke-linejoin:miter;"/>
   </g>
   <g id="patch_42">
    <path clip-path="url(#p0ab7d0c316)" d="M 486.207468 134.453659 
C 490.14634 134.453659 493.924416 132.888729 496.709619 130.103526 
C 499.494822 127.318323 501.059752 123.540247 501.059752 119.601375 
C 501.059752 115.662503 499.494822 111.884427 496.709619 109.099224 
C 493.924416 106.314022 490.14634 104.749091 486.207468 104.749091 
C 482.268597 104.749091 478.490521 106.314022 475.705318 109.099224 
C 472.920115 111.884427 471.355184 115.662503 471.355184 119.601375 
C 471.355184 123.540247 472.920115 127.318323 475.705318 130.103526 
C 478.490521 132.888729 482.268597 134.453659 486.207468 134.453659 
z
" style="fill:#0000ff;opacity:0.2;stroke:#0000ff;stroke-linejoin:miter;"/>
   </g>
   <g id="patch_43">
    <path clip-path="url(#p0ab7d0c316)" d="M 521.236097 125.23609 
C 525.170614 125.23609 528.944514 123.67289 531.726638 120.890766 
C 534.508762 118.108641 536.071962 114.334742 536.071962 110.400224 
C 536.071962 106.465707 534.508762 102.691807 531.726638 99.909683 
C 528.944514 97.127559 525.170614 95.564358 521.236097 95.564358 
C 517.301579 95.564358 513.527679 97.127559 510.745555 99.909683 
C 507.963431 102.691807 506.400231 106.465707 506.400231 110.400224 
C 506.400231 114.334742 507.963431 118.108641 510.745555 120.890766 
C 513.527679 123.67289 517.301579 125.23609 521.236097 125.23609 
z
" style="fill:#0000ff;opacity:0.2;stroke:#0000ff;stroke-linejoin:miter;"/>
   </g>
   <g id="patch_44">
    <path clip-path="url(#p0ab7d0c316)" d="M 548.291979 114.347507 
C 552.224651 114.347507 555.99678 112.78504 558.777599 110.004221 
C 561.558417 107.223403 563.120884 103.451274 563.120884 99.518602 
C 563.120884 95.58593 561.558417 91.813801 558.777599 89.032983 
C 555.99678 86.252164 552.224651 84.689697 548.291979 84.689697 
C 544.359308 84.689697 540.587179 86.252164 537.80636 89.032983 
C 535.025541 91.813801 533.463074 95.58593 533.463074 99.518602 
C 533.463074 103.451274 535.025541 107.223403 537.80636 110.004221 
C 540.587179 112.78504 544.359308 114.347507 548.291979 114.347507 
z
" style="fill:#0000ff;opacity:0.2;stroke:#0000ff;stroke-linejoin:miter;"/>
   </g>
   <g id="patch_45">
    <path clip-path="url(#p0ab7d0c316)" d="M 575.135256 107.892967 
C 579.067429 107.892967 582.83908 106.330699 585.619546 103.550232 
C 588.400012 100.769766 589.962281 96.998116 589.962281 93.065943 
C 589.962281 89.13377 588.400012 85.362119 585.619546 82.581653 
C 582.83908 79.801187 579.067429 78.238918 575.135256 78.238918 
C 571.203083 78.238918 567.431433 79.801187 564.650967 82.581653 
C 561.8705 85.362119 560.308231 89.13377 560.308231 93.065943 
C 560.308231 96.998116 561.8705 100.769766 564.650967 103.550232 
C 567.431433 106.330699 571.203083 107.892967 575.135256 107.892967 
z
" style="fill:#0000ff;opacity:0.2;stroke:#0000ff;stroke-linejoin:miter;"/>
   </g>
   <g id="patch_46">
    <path clip-path="url(#p0ab7d0c316)" d="M 604.45375 85.435522 
C 608.386027 85.435522 612.157778 83.873211 614.938318 81.092671 
C 617.718858 78.312131 619.281168 74.540381 619.281168 70.608103 
C 619.281168 66.675826 617.718858 62.904075 614.938318 60.123535 
C 612.157778 57.342995 608.386027 55.780685 604.45375 55.780685 
C 600.521473 55.780685 596.749722 57.342995 593.969182 60.123535 
C 591.188642 62.904075 589.626332 66.675826 589.626332 70.608103 
C 589.626332 74.540381 591.188642 78.312131 593.969182 81.092671 
C 596.749722 83.873211 600.521473 85.435522 604.45375 85.435522 
z
" style="fill:#0000ff;opacity:0.2;stroke:#0000ff;stroke-linejoin:miter;"/>
   </g>
   <g id="matplotlib.axis_1">
    <g id="xtick_1">
     <g id="line2d_1">
      <defs>
       <path d="M 0 0 
L 0 3.5 
" id="m8badf9b054" style="stroke:#000000;stroke-width:0.8;"/>
      </defs>
      <g>
       <use style="stroke:#000000;stroke-width:0.8;" x="82.619363" xlink:href="#m8badf9b054" y="390.04"/>
      </g>
     </g>
     <g id="text_1">
      <!-- −5 -->
      <g transform="translate(75.248269 404.638438)scale(0.1 -0.1)">
       <defs>
        <path d="M 10.59375 35.5 
L 73.1875 35.5 
L 73.1875 27.203125 
L 10.59375 27.203125 
z
" id="DejaVuSans-8722"/>
        <path d="M 10.796875 72.90625 
L 49.515625 72.90625 
L 49.515625 64.59375 
L 19.828125 64.59375 
L 19.828125 46.734375 
Q 21.96875 47.46875 24.109375 47.828125 
Q 26.265625 48.1875 28.421875 48.1875 
Q 40.625 48.1875 47.75 41.5 
Q 54.890625 34.8125 54.890625 23.390625 
Q 54.890625 11.625 47.5625 5.09375 
Q 40.234375 -1.421875 26.90625 -1.421875 
Q 22.3125 -1.421875 17.546875 -0.640625 
Q 12.796875 0.140625 7.71875 1.703125 
L 7.71875 11.625 
Q 12.109375 9.234375 16.796875 8.0625 
Q 21.484375 6.890625 26.703125 6.890625 
Q 35.15625 6.890625 40.078125 11.328125 
Q 45.015625 15.765625 45.015625 23.390625 
Q 45.015625 31 40.078125 35.4375 
Q 35.15625 39.890625 26.703125 39.890625 
Q 22.75 39.890625 18.8125 39.015625 
Q 14.890625 38.140625 10.796875 36.28125 
z
" id="DejaVuSans-53"/>
       </defs>
       <use xlink:href="#DejaVuSans-8722"/>
       <use x="83.789062" xlink:href="#DejaVuSans-53"/>
      </g>
     </g>
    </g>
    <g id="xtick_2">
     <g id="line2d_2">
      <g>
       <use style="stroke:#000000;stroke-width:0.8;" x="162.357832" xlink:href="#m8badf9b054" y="390.04"/>
      </g>
     </g>
     <g id="text_2">
      <!-- 0 -->
      <g transform="translate(159.176582 404.638438)scale(0.1 -0.1)">
       <defs>
        <path d="M 31.78125 66.40625 
Q 24.171875 66.40625 20.328125 58.90625 
Q 16.5 51.421875 16.5 36.375 
Q 16.5 21.390625 20.328125 13.890625 
Q 24.171875 6.390625 31.78125 6.390625 
Q 39.453125 6.390625 43.28125 13.890625 
Q 47.125 21.390625 47.125 36.375 
Q 47.125 51.421875 43.28125 58.90625 
Q 39.453125 66.40625 31.78125 66.40625 
z
M 31.78125 74.21875 
Q 44.046875 74.21875 50.515625 64.515625 
Q 56.984375 54.828125 56.984375 36.375 
Q 56.984375 17.96875 50.515625 8.265625 
Q 44.046875 -1.421875 31.78125 -1.421875 
Q 19.53125 -1.421875 13.0625 8.265625 
Q 6.59375 17.96875 6.59375 36.375 
Q 6.59375 54.828125 13.0625 64.515625 
Q 19.53125 74.21875 31.78125 74.21875 
z
" id="DejaVuSans-48"/>
       </defs>
       <use xlink:href="#DejaVuSans-48"/>
      </g>
     </g>
    </g>
    <g id="xtick_3">
     <g id="line2d_3">
      <g>
       <use style="stroke:#000000;stroke-width:0.8;" x="242.096302" xlink:href="#m8badf9b054" y="390.04"/>
      </g>
     </g>
     <g id="text_3">
      <!-- 5 -->
      <g transform="translate(238.915052 404.638438)scale(0.1 -0.1)">
       <use xlink:href="#DejaVuSans-53"/>
      </g>
     </g>
    </g>
    <g id="xtick_4">
     <g id="line2d_4">
      <g>
       <use style="stroke:#000000;stroke-width:0.8;" x="321.834771" xlink:href="#m8badf9b054" y="390.04"/>
      </g>
     </g>
     <g id="text_4">
      <!-- 10 -->
      <g transform="translate(315.472271 404.638438)scale(0.1 -0.1)">
       <defs>
        <path d="M 12.40625 8.296875 
L 28.515625 8.296875 
L 28.515625 63.921875 
L 10.984375 60.40625 
L 10.984375 69.390625 
L 28.421875 72.90625 
L 38.28125 72.90625 
L 38.28125 8.296875 
L 54.390625 8.296875 
L 54.390625 0 
L 12.40625 0 
z
" id="DejaVuSans-49"/>
       </defs>
       <use xlink:href="#DejaVuSans-49"/>
       <use x="63.623047" xlink:href="#DejaVuSans-48"/>
      </g>
     </g>
    </g>
    <g id="xtick_5">
     <g id="line2d_5">
      <g>
       <use style="stroke:#000000;stroke-width:0.8;" x="401.57324" xlink:href="#m8badf9b054" y="390.04"/>
      </g>
     </g>
     <g id="text_5">
      <!-- 15 -->
      <g transform="translate(395.21074 404.638438)scale(0.1 -0.1)">
       <use xlink:href="#DejaVuSans-49"/>
       <use x="63.623047" xlink:href="#DejaVuSans-53"/>
      </g>
     </g>
    </g>
    <g id="xtick_6">
     <g id="line2d_6">
      <g>
       <use style="stroke:#000000;stroke-width:0.8;" x="481.311709" xlink:href="#m8badf9b054" y="390.04"/>
      </g>
     </g>
     <g id="text_6">
      <!-- 20 -->
      <g transform="translate(474.949209 404.638438)scale(0.1 -0.1)">
       <defs>
        <path d="M 19.1875 8.296875 
L 53.609375 8.296875 
L 53.609375 0 
L 7.328125 0 
L 7.328125 8.296875 
Q 12.9375 14.109375 22.625 23.890625 
Q 32.328125 33.6875 34.8125 36.53125 
Q 39.546875 41.84375 41.421875 45.53125 
Q 43.3125 49.21875 43.3125 52.78125 
Q 43.3125 58.59375 39.234375 62.25 
Q 35.15625 65.921875 28.609375 65.921875 
Q 23.96875 65.921875 18.8125 64.3125 
Q 13.671875 62.703125 7.8125 59.421875 
L 7.8125 69.390625 
Q 13.765625 71.78125 18.9375 73 
Q 24.125 74.21875 28.421875 74.21875 
Q 39.75 74.21875 46.484375 68.546875 
Q 53.21875 62.890625 53.21875 53.421875 
Q 53.21875 48.921875 51.53125 44.890625 
Q 49.859375 40.875 45.40625 35.40625 
Q 44.1875 33.984375 37.640625 27.21875 
Q 31.109375 20.453125 19.1875 8.296875 
z
" id="DejaVuSans-50"/>
       </defs>
       <use xlink:href="#DejaVuSans-50"/>
       <use x="63.623047" xlink:href="#DejaVuSans-48"/>
      </g>
     </g>
    </g>
    <g id="xtick_7">
     <g id="line2d_7">
      <g>
       <use style="stroke:#000000;stroke-width:0.8;" x="561.050178" xlink:href="#m8badf9b054" y="390.04"/>
      </g>
     </g>
     <g id="text_7">
      <!-- 25 -->
      <g transform="translate(554.687678 404.638438)scale(0.1 -0.1)">
       <use xlink:href="#DejaVuSans-50"/>
       <use x="63.623047" xlink:href="#DejaVuSans-53"/>
      </g>
     </g>
    </g>
    <g id="xtick_8">
     <g id="line2d_8">
      <g>
       <use style="stroke:#000000;stroke-width:0.8;" x="640.788648" xlink:href="#m8badf9b054" y="390.04"/>
      </g>
     </g>
     <g id="text_8">
      <!-- 30 -->
      <g transform="translate(634.426148 404.638438)scale(0.1 -0.1)">
       <defs>
        <path d="M 40.578125 39.3125 
Q 47.65625 37.796875 51.625 33 
Q 55.609375 28.21875 55.609375 21.1875 
Q 55.609375 10.40625 48.1875 4.484375 
Q 40.765625 -1.421875 27.09375 -1.421875 
Q 22.515625 -1.421875 17.65625 -0.515625 
Q 12.796875 0.390625 7.625 2.203125 
L 7.625 11.71875 
Q 11.71875 9.328125 16.59375 8.109375 
Q 21.484375 6.890625 26.8125 6.890625 
Q 36.078125 6.890625 40.9375 10.546875 
Q 45.796875 14.203125 45.796875 21.1875 
Q 45.796875 27.640625 41.28125 31.265625 
Q 36.765625 34.90625 28.71875 34.90625 
L 20.21875 34.90625 
L 20.21875 43.015625 
L 29.109375 43.015625 
Q 36.375 43.015625 40.234375 45.921875 
Q 44.09375 48.828125 44.09375 54.296875 
Q 44.09375 59.90625 40.109375 62.90625 
Q 36.140625 65.921875 28.71875 65.921875 
Q 24.65625 65.921875 20.015625 65.03125 
Q 15.375 64.15625 9.8125 62.3125 
L 9.8125 71.09375 
Q 15.4375 72.65625 20.34375 73.4375 
Q 25.25 74.21875 29.59375 74.21875 
Q 40.828125 74.21875 47.359375 69.109375 
Q 53.90625 64.015625 53.90625 55.328125 
Q 53.90625 49.265625 50.4375 45.09375 
Q 46.96875 40.921875 40.578125 39.3125 
z
" id="DejaVuSans-51"/>
       </defs>
       <use xlink:href="#DejaVuSans-51"/>
       <use x="63.623047" xlink:href="#DejaVuSans-48"/>
      </g>
     </g>
    </g>
    <g id="text_9">
     <!-- $x$ -->
     <g transform="translate(374.245 418.316562)scale(0.1 -0.1)">
      <defs>
       <path d="M 60.015625 54.6875 
L 34.90625 27.875 
L 50.296875 0 
L 39.984375 0 
L 28.421875 21.6875 
L 8.296875 0 
L -2.59375 0 
L 24.3125 28.8125 
L 10.015625 54.6875 
L 20.3125 54.6875 
L 30.8125 34.90625 
L 49.125 54.6875 
z
" id="DejaVuSans-Oblique-120"/>
      </defs>
      <use transform="translate(0 0.3125)" xlink:href="#DejaVuSans-Oblique-120"/>
     </g>
    </g>
   </g>
   <g id="matplotlib.axis_2">
    <g id="ytick_1">
     <g id="line2d_9">
      <defs>
       <path d="M 0 0 
L -3.5 0 
" id="m0e45450572" style="stroke:#000000;stroke-width:0.8;"/>
      </defs>
      <g>
       <use style="stroke:#000000;stroke-width:0.8;" x="45.29" xlink:href="#m0e45450572" y="364.061089"/>
      </g>
     </g>
     <g id="text_10">
      <!-- 0 -->
      <g transform="translate(31.9275 367.860307)scale(0.1 -0.1)">
       <use xlink:href="#DejaVuSans-48"/>
      </g>
     </g>
    </g>
    <g id="ytick_2">
     <g id="line2d_10">
      <g>
       <use style="stroke:#000000;stroke-width:0.8;" x="45.29" xlink:href="#m0e45450572" y="284.322619"/>
      </g>
     </g>
     <g id="text_11">
      <!-- 5 -->
      <g transform="translate(31.9275 288.121838)scale(0.1 -0.1)">
       <use xlink:href="#DejaVuSans-53"/>
      </g>
     </g>
    </g>
    <g id="ytick_3">
     <g id="line2d_11">
      <g>
       <use style="stroke:#000000;stroke-width:0.8;" x="45.29" xlink:href="#m0e45450572" y="204.58415"/>
      </g>
     </g>
     <g id="text_12">
      <!-- 10 -->
      <g transform="translate(25.565 208.383369)scale(0.1 -0.1)">
       <use xlink:href="#DejaVuSans-49"/>
       <use x="63.623047" xlink:href="#DejaVuSans-48"/>
      </g>
     </g>
    </g>
    <g id="ytick_4">
     <g id="line2d_12">
      <g>
       <use style="stroke:#000000;stroke-width:0.8;" x="45.29" xlink:href="#m0e45450572" y="124.845681"/>
      </g>
     </g>
     <g id="text_13">
      <!-- 15 -->
      <g transform="translate(25.565 128.6449)scale(0.1 -0.1)">
       <use xlink:href="#DejaVuSans-49"/>
       <use x="63.623047" xlink:href="#DejaVuSans-53"/>
      </g>
     </g>
    </g>
    <g id="ytick_5">
     <g id="line2d_13">
      <g>
       <use style="stroke:#000000;stroke-width:0.8;" x="45.29" xlink:href="#m0e45450572" y="45.107212"/>
      </g>
     </g>
     <g id="text_14">
      <!-- 20 -->
      <g transform="translate(25.565 48.906431)scale(0.1 -0.1)">
       <use xlink:href="#DejaVuSans-50"/>
       <use x="63.623047" xlink:href="#DejaVuSans-48"/>
      </g>
     </g>
    </g>
    <g id="text_15">
     <!-- $y$ -->
     <g transform="translate(19.465 211.46)rotate(-90)scale(0.1 -0.1)">
      <defs>
       <path d="M 24.8125 -5.078125 
Q 18.5625 -15.578125 14.625 -18.1875 
Q 10.6875 -20.796875 4.59375 -20.796875 
L -2.484375 -20.796875 
L -0.984375 -13.28125 
L 4.203125 -13.28125 
Q 7.953125 -13.28125 10.59375 -11.234375 
Q 13.234375 -9.1875 16.5 -3.21875 
L 19.28125 2 
L 7.171875 54.6875 
L 16.703125 54.6875 
L 25.78125 12.796875 
L 50.875 54.6875 
L 60.296875 54.6875 
z
" id="DejaVuSans-Oblique-121"/>
      </defs>
      <use transform="translate(0 0.3125)" xlink:href="#DejaVuSans-Oblique-121"/>
     </g>
    </g>
   </g>
   <g id="line2d_14">
    <path clip-path="url(#p0ab7d0c316)" d="M 162.357832 364.061089 
L 178.109625 348.023114 
L 195.011834 332.094277 
L 212.832187 315.644086 
L 232.499621 299.202317 
L 254.265482 282.441605 
L 275.296239 267.085442 
L 296.052662 254.028246 
L 318.20036 238.555289 
L 340.401023 222.707329 
L 364.360694 207.408632 
L 386.852411 194.04862 
L 408.088827 181.560388 
L 430.001557 169.693067 
L 454.944235 156.725441 
L 480.863484 143.031778 
L 506.762951 128.680837 
L 530.13533 113.855529 
L 553.812485 97.505109 
L 579.057297 80.490754 
L 605.171697 64.302356 
" style="fill:none;stroke:#1f77b4;stroke-dasharray:5.55,2.4;stroke-dashoffset:0;stroke-width:1.5;"/>
   </g>
   <g id="patch_47">
    <path d="M 45.29 390.04 
L 45.29 26.88 
" style="fill:none;stroke:#000000;stroke-linecap:square;stroke-linejoin:miter;stroke-width:0.8;"/>
   </g>
   <g id="patch_48">
    <path d="M 709.2 390.04 
L 709.2 26.88 
" style="fill:none;stroke:#000000;stroke-linecap:square;stroke-linejoin:miter;stroke-width:0.8;"/>
   </g>
   <g id="patch_49">
    <path d="M 45.29 390.04 
L 709.2 390.04 
" style="fill:none;stroke:#000000;stroke-linecap:square;stroke-linejoin:miter;stroke-width:0.8;"/>
   </g>
   <g id="patch_50">
    <path d="M 45.29 26.88 
L 709.2 26.88 
" style="fill:none;stroke:#000000;stroke-linecap:square;stroke-linejoin:miter;stroke-width:0.8;"/>
   </g>
   <g id="text_16">
    <!-- Kalman filter tracking and fusion under the error independence assumption -->
    <g transform="translate(150.225625 20.88)scale(0.12 -0.12)">
     <defs>
      <path d="M 9.8125 72.90625 
L 19.671875 72.90625 
L 19.671875 42.09375 
L 52.390625 72.90625 
L 65.09375 72.90625 
L 28.90625 38.921875 
L 67.671875 0 
L 54.6875 0 
L 19.671875 35.109375 
L 19.671875 0 
L 9.8125 0 
z
" id="DejaVuSans-75"/>
      <path d="M 34.28125 27.484375 
Q 23.390625 27.484375 19.1875 25 
Q 14.984375 22.515625 14.984375 16.5 
Q 14.984375 11.71875 18.140625 8.90625 
Q 21.296875 6.109375 26.703125 6.109375 
Q 34.1875 6.109375 38.703125 11.40625 
Q 43.21875 16.703125 43.21875 25.484375 
L 43.21875 27.484375 
z
M 52.203125 31.203125 
L 52.203125 0 
L 43.21875 0 
L 43.21875 8.296875 
Q 40.140625 3.328125 35.546875 0.953125 
Q 30.953125 -1.421875 24.3125 -1.421875 
Q 15.921875 -1.421875 10.953125 3.296875 
Q 6 8.015625 6 15.921875 
Q 6 25.140625 12.171875 29.828125 
Q 18.359375 34.515625 30.609375 34.515625 
L 43.21875 34.515625 
L 43.21875 35.40625 
Q 43.21875 41.609375 39.140625 45 
Q 35.0625 48.390625 27.6875 48.390625 
Q 23 48.390625 18.546875 47.265625 
Q 14.109375 46.140625 10.015625 43.890625 
L 10.015625 52.203125 
Q 14.9375 54.109375 19.578125 55.046875 
Q 24.21875 56 28.609375 56 
Q 40.484375 56 46.34375 49.84375 
Q 52.203125 43.703125 52.203125 31.203125 
z
" id="DejaVuSans-97"/>
      <path d="M 9.421875 75.984375 
L 18.40625 75.984375 
L 18.40625 0 
L 9.421875 0 
z
" id="DejaVuSans-108"/>
      <path d="M 52 44.1875 
Q 55.375 50.25 60.0625 53.125 
Q 64.75 56 71.09375 56 
Q 79.640625 56 84.28125 50.015625 
Q 88.921875 44.046875 88.921875 33.015625 
L 88.921875 0 
L 79.890625 0 
L 79.890625 32.71875 
Q 79.890625 40.578125 77.09375 44.375 
Q 74.3125 48.1875 68.609375 48.1875 
Q 61.625 48.1875 57.5625 43.546875 
Q 53.515625 38.921875 53.515625 30.90625 
L 53.515625 0 
L 44.484375 0 
L 44.484375 32.71875 
Q 44.484375 40.625 41.703125 44.40625 
Q 38.921875 48.1875 33.109375 48.1875 
Q 26.21875 48.1875 22.15625 43.53125 
Q 18.109375 38.875 18.109375 30.90625 
L 18.109375 0 
L 9.078125 0 
L 9.078125 54.6875 
L 18.109375 54.6875 
L 18.109375 46.1875 
Q 21.1875 51.21875 25.484375 53.609375 
Q 29.78125 56 35.6875 56 
Q 41.65625 56 45.828125 52.96875 
Q 50 49.953125 52 44.1875 
z
" id="DejaVuSans-109"/>
      <path d="M 54.890625 33.015625 
L 54.890625 0 
L 45.90625 0 
L 45.90625 32.71875 
Q 45.90625 40.484375 42.875 44.328125 
Q 39.84375 48.1875 33.796875 48.1875 
Q 26.515625 48.1875 22.3125 43.546875 
Q 18.109375 38.921875 18.109375 30.90625 
L 18.109375 0 
L 9.078125 0 
L 9.078125 54.6875 
L 18.109375 54.6875 
L 18.109375 46.1875 
Q 21.34375 51.125 25.703125 53.5625 
Q 30.078125 56 35.796875 56 
Q 45.21875 56 50.046875 50.171875 
Q 54.890625 44.34375 54.890625 33.015625 
z
" id="DejaVuSans-110"/>
      <path id="DejaVuSans-32"/>
      <path d="M 37.109375 75.984375 
L 37.109375 68.5 
L 28.515625 68.5 
Q 23.6875 68.5 21.796875 66.546875 
Q 19.921875 64.59375 19.921875 59.515625 
L 19.921875 54.6875 
L 34.71875 54.6875 
L 34.71875 47.703125 
L 19.921875 47.703125 
L 19.921875 0 
L 10.890625 0 
L 10.890625 47.703125 
L 2.296875 47.703125 
L 2.296875 54.6875 
L 10.890625 54.6875 
L 10.890625 58.5 
Q 10.890625 67.625 15.140625 71.796875 
Q 19.390625 75.984375 28.609375 75.984375 
z
" id="DejaVuSans-102"/>
      <path d="M 9.421875 54.6875 
L 18.40625 54.6875 
L 18.40625 0 
L 9.421875 0 
z
M 9.421875 75.984375 
L 18.40625 75.984375 
L 18.40625 64.59375 
L 9.421875 64.59375 
z
" id="DejaVuSans-105"/>
      <path d="M 18.3125 70.21875 
L 18.3125 54.6875 
L 36.8125 54.6875 
L 36.8125 47.703125 
L 18.3125 47.703125 
L 18.3125 18.015625 
Q 18.3125 11.328125 20.140625 9.421875 
Q 21.96875 7.515625 27.59375 7.515625 
L 36.8125 7.515625 
L 36.8125 0 
L 27.59375 0 
Q 17.1875 0 13.234375 3.875 
Q 9.28125 7.765625 9.28125 18.015625 
L 9.28125 47.703125 
L 2.6875 47.703125 
L 2.6875 54.6875 
L 9.28125 54.6875 
L 9.28125 70.21875 
z
" id="DejaVuSans-116"/>
      <path d="M 56.203125 29.59375 
L 56.203125 25.203125 
L 14.890625 25.203125 
Q 15.484375 15.921875 20.484375 11.0625 
Q 25.484375 6.203125 34.421875 6.203125 
Q 39.59375 6.203125 44.453125 7.46875 
Q 49.3125 8.734375 54.109375 11.28125 
L 54.109375 2.78125 
Q 49.265625 0.734375 44.1875 -0.34375 
Q 39.109375 -1.421875 33.890625 -1.421875 
Q 20.796875 -1.421875 13.15625 6.1875 
Q 5.515625 13.8125 5.515625 26.8125 
Q 5.515625 40.234375 12.765625 48.109375 
Q 20.015625 56 32.328125 56 
Q 43.359375 56 49.78125 48.890625 
Q 56.203125 41.796875 56.203125 29.59375 
z
M 47.21875 32.234375 
Q 47.125 39.59375 43.09375 43.984375 
Q 39.0625 48.390625 32.421875 48.390625 
Q 24.90625 48.390625 20.390625 44.140625 
Q 15.875 39.890625 15.1875 32.171875 
z
" id="DejaVuSans-101"/>
      <path d="M 41.109375 46.296875 
Q 39.59375 47.171875 37.8125 47.578125 
Q 36.03125 48 33.890625 48 
Q 26.265625 48 22.1875 43.046875 
Q 18.109375 38.09375 18.109375 28.8125 
L 18.109375 0 
L 9.078125 0 
L 9.078125 54.6875 
L 18.109375 54.6875 
L 18.109375 46.1875 
Q 20.953125 51.171875 25.484375 53.578125 
Q 30.03125 56 36.53125 56 
Q 37.453125 56 38.578125 55.875 
Q 39.703125 55.765625 41.0625 55.515625 
z
" id="DejaVuSans-114"/>
      <path d="M 48.78125 52.59375 
L 48.78125 44.1875 
Q 44.96875 46.296875 41.140625 47.34375 
Q 37.3125 48.390625 33.40625 48.390625 
Q 24.65625 48.390625 19.8125 42.84375 
Q 14.984375 37.3125 14.984375 27.296875 
Q 14.984375 17.28125 19.8125 11.734375 
Q 24.65625 6.203125 33.40625 6.203125 
Q 37.3125 6.203125 41.140625 7.25 
Q 44.96875 8.296875 48.78125 10.40625 
L 48.78125 2.09375 
Q 45.015625 0.34375 40.984375 -0.53125 
Q 36.96875 -1.421875 32.421875 -1.421875 
Q 20.0625 -1.421875 12.78125 6.34375 
Q 5.515625 14.109375 5.515625 27.296875 
Q 5.515625 40.671875 12.859375 48.328125 
Q 20.21875 56 33.015625 56 
Q 37.15625 56 41.109375 55.140625 
Q 45.0625 54.296875 48.78125 52.59375 
z
" id="DejaVuSans-99"/>
      <path d="M 9.078125 75.984375 
L 18.109375 75.984375 
L 18.109375 31.109375 
L 44.921875 54.6875 
L 56.390625 54.6875 
L 27.390625 29.109375 
L 57.625 0 
L 45.90625 0 
L 18.109375 26.703125 
L 18.109375 0 
L 9.078125 0 
z
" id="DejaVuSans-107"/>
      <path d="M 45.40625 27.984375 
Q 45.40625 37.75 41.375 43.109375 
Q 37.359375 48.484375 30.078125 48.484375 
Q 22.859375 48.484375 18.828125 43.109375 
Q 14.796875 37.75 14.796875 27.984375 
Q 14.796875 18.265625 18.828125 12.890625 
Q 22.859375 7.515625 30.078125 7.515625 
Q 37.359375 7.515625 41.375 12.890625 
Q 45.40625 18.265625 45.40625 27.984375 
z
M 54.390625 6.78125 
Q 54.390625 -7.171875 48.1875 -13.984375 
Q 42 -20.796875 29.203125 -20.796875 
Q 24.46875 -20.796875 20.265625 -20.09375 
Q 16.0625 -19.390625 12.109375 -17.921875 
L 12.109375 -9.1875 
Q 16.0625 -11.328125 19.921875 -12.34375 
Q 23.78125 -13.375 27.78125 -13.375 
Q 36.625 -13.375 41.015625 -8.765625 
Q 45.40625 -4.15625 45.40625 5.171875 
L 45.40625 9.625 
Q 42.625 4.78125 38.28125 2.390625 
Q 33.9375 0 27.875 0 
Q 17.828125 0 11.671875 7.65625 
Q 5.515625 15.328125 5.515625 27.984375 
Q 5.515625 40.671875 11.671875 48.328125 
Q 17.828125 56 27.875 56 
Q 33.9375 56 38.28125 53.609375 
Q 42.625 51.21875 45.40625 46.390625 
L 45.40625 54.6875 
L 54.390625 54.6875 
z
" id="DejaVuSans-103"/>
      <path d="M 45.40625 46.390625 
L 45.40625 75.984375 
L 54.390625 75.984375 
L 54.390625 0 
L 45.40625 0 
L 45.40625 8.203125 
Q 42.578125 3.328125 38.25 0.953125 
Q 33.9375 -1.421875 27.875 -1.421875 
Q 17.96875 -1.421875 11.734375 6.484375 
Q 5.515625 14.40625 5.515625 27.296875 
Q 5.515625 40.1875 11.734375 48.09375 
Q 17.96875 56 27.875 56 
Q 33.9375 56 38.25 53.625 
Q 42.578125 51.265625 45.40625 46.390625 
z
M 14.796875 27.296875 
Q 14.796875 17.390625 18.875 11.75 
Q 22.953125 6.109375 30.078125 6.109375 
Q 37.203125 6.109375 41.296875 11.75 
Q 45.40625 17.390625 45.40625 27.296875 
Q 45.40625 37.203125 41.296875 42.84375 
Q 37.203125 48.484375 30.078125 48.484375 
Q 22.953125 48.484375 18.875 42.84375 
Q 14.796875 37.203125 14.796875 27.296875 
z
" id="DejaVuSans-100"/>
      <path d="M 8.5 21.578125 
L 8.5 54.6875 
L 17.484375 54.6875 
L 17.484375 21.921875 
Q 17.484375 14.15625 20.5 10.265625 
Q 23.53125 6.390625 29.59375 6.390625 
Q 36.859375 6.390625 41.078125 11.03125 
Q 45.3125 15.671875 45.3125 23.6875 
L 45.3125 54.6875 
L 54.296875 54.6875 
L 54.296875 0 
L 45.3125 0 
L 45.3125 8.40625 
Q 42.046875 3.421875 37.71875 1 
Q 33.40625 -1.421875 27.6875 -1.421875 
Q 18.265625 -1.421875 13.375 4.4375 
Q 8.5 10.296875 8.5 21.578125 
z
M 31.109375 56 
z
" id="DejaVuSans-117"/>
      <path d="M 44.28125 53.078125 
L 44.28125 44.578125 
Q 40.484375 46.53125 36.375 47.5 
Q 32.28125 48.484375 27.875 48.484375 
Q 21.1875 48.484375 17.84375 46.4375 
Q 14.5 44.390625 14.5 40.28125 
Q 14.5 37.15625 16.890625 35.375 
Q 19.28125 33.59375 26.515625 31.984375 
L 29.59375 31.296875 
Q 39.15625 29.25 43.1875 25.515625 
Q 47.21875 21.78125 47.21875 15.09375 
Q 47.21875 7.46875 41.1875 3.015625 
Q 35.15625 -1.421875 24.609375 -1.421875 
Q 20.21875 -1.421875 15.453125 -0.5625 
Q 10.6875 0.296875 5.421875 2 
L 5.421875 11.28125 
Q 10.40625 8.6875 15.234375 7.390625 
Q 20.0625 6.109375 24.8125 6.109375 
Q 31.15625 6.109375 34.5625 8.28125 
Q 37.984375 10.453125 37.984375 14.40625 
Q 37.984375 18.0625 35.515625 20.015625 
Q 33.0625 21.96875 24.703125 23.78125 
L 21.578125 24.515625 
Q 13.234375 26.265625 9.515625 29.90625 
Q 5.8125 33.546875 5.8125 39.890625 
Q 5.8125 47.609375 11.28125 51.796875 
Q 16.75 56 26.8125 56 
Q 31.78125 56 36.171875 55.265625 
Q 40.578125 54.546875 44.28125 53.078125 
z
" id="DejaVuSans-115"/>
      <path d="M 30.609375 48.390625 
Q 23.390625 48.390625 19.1875 42.75 
Q 14.984375 37.109375 14.984375 27.296875 
Q 14.984375 17.484375 19.15625 11.84375 
Q 23.34375 6.203125 30.609375 6.203125 
Q 37.796875 6.203125 41.984375 11.859375 
Q 46.1875 17.53125 46.1875 27.296875 
Q 46.1875 37.015625 41.984375 42.703125 
Q 37.796875 48.390625 30.609375 48.390625 
z
M 30.609375 56 
Q 42.328125 56 49.015625 48.375 
Q 55.71875 40.765625 55.71875 27.296875 
Q 55.71875 13.875 49.015625 6.21875 
Q 42.328125 -1.421875 30.609375 -1.421875 
Q 18.84375 -1.421875 12.171875 6.21875 
Q 5.515625 13.875 5.515625 27.296875 
Q 5.515625 40.765625 12.171875 48.375 
Q 18.84375 56 30.609375 56 
z
" id="DejaVuSans-111"/>
      <path d="M 54.890625 33.015625 
L 54.890625 0 
L 45.90625 0 
L 45.90625 32.71875 
Q 45.90625 40.484375 42.875 44.328125 
Q 39.84375 48.1875 33.796875 48.1875 
Q 26.515625 48.1875 22.3125 43.546875 
Q 18.109375 38.921875 18.109375 30.90625 
L 18.109375 0 
L 9.078125 0 
L 9.078125 75.984375 
L 18.109375 75.984375 
L 18.109375 46.1875 
Q 21.34375 51.125 25.703125 53.5625 
Q 30.078125 56 35.796875 56 
Q 45.21875 56 50.046875 50.171875 
Q 54.890625 44.34375 54.890625 33.015625 
z
" id="DejaVuSans-104"/>
      <path d="M 18.109375 8.203125 
L 18.109375 -20.796875 
L 9.078125 -20.796875 
L 9.078125 54.6875 
L 18.109375 54.6875 
L 18.109375 46.390625 
Q 20.953125 51.265625 25.265625 53.625 
Q 29.59375 56 35.59375 56 
Q 45.5625 56 51.78125 48.09375 
Q 58.015625 40.1875 58.015625 27.296875 
Q 58.015625 14.40625 51.78125 6.484375 
Q 45.5625 -1.421875 35.59375 -1.421875 
Q 29.59375 -1.421875 25.265625 0.953125 
Q 20.953125 3.328125 18.109375 8.203125 
z
M 48.6875 27.296875 
Q 48.6875 37.203125 44.609375 42.84375 
Q 40.53125 48.484375 33.40625 48.484375 
Q 26.265625 48.484375 22.1875 42.84375 
Q 18.109375 37.203125 18.109375 27.296875 
Q 18.109375 17.390625 22.1875 11.75 
Q 26.265625 6.109375 33.40625 6.109375 
Q 40.53125 6.109375 44.609375 11.75 
Q 48.6875 17.390625 48.6875 27.296875 
z
" id="DejaVuSans-112"/>
     </defs>
     <use xlink:href="#DejaVuSans-75"/>
     <use x="63.826172" xlink:href="#DejaVuSans-97"/>
     <use x="125.105469" xlink:href="#DejaVuSans-108"/>
     <use x="152.888672" xlink:href="#DejaVuSans-109"/>
     <use x="250.300781" xlink:href="#DejaVuSans-97"/>
     <use x="311.580078" xlink:href="#DejaVuSans-110"/>
     <use x="374.958984" xlink:href="#DejaVuSans-32"/>
     <use x="406.746094" xlink:href="#DejaVuSans-102"/>
     <use x="441.951172" xlink:href="#DejaVuSans-105"/>
     <use x="469.734375" xlink:href="#DejaVuSans-108"/>
     <use x="497.517578" xlink:href="#DejaVuSans-116"/>
     <use x="536.726562" xlink:href="#DejaVuSans-101"/>
     <use x="598.25" xlink:href="#DejaVuSans-114"/>
     <use x="639.363281" xlink:href="#DejaVuSans-32"/>
     <use x="671.150391" xlink:href="#DejaVuSans-116"/>
     <use x="710.359375" xlink:href="#DejaVuSans-114"/>
     <use x="751.472656" xlink:href="#DejaVuSans-97"/>
     <use x="812.751953" xlink:href="#DejaVuSans-99"/>
     <use x="867.732422" xlink:href="#DejaVuSans-107"/>
     <use x="925.642578" xlink:href="#DejaVuSans-105"/>
     <use x="953.425781" xlink:href="#DejaVuSans-110"/>
     <use x="1016.804688" xlink:href="#DejaVuSans-103"/>
     <use x="1080.28125" xlink:href="#DejaVuSans-32"/>
     <use x="1112.068359" xlink:href="#DejaVuSans-97"/>
     <use x="1173.347656" xlink:href="#DejaVuSans-110"/>
     <use x="1236.726562" xlink:href="#DejaVuSans-100"/>
     <use x="1300.203125" xlink:href="#DejaVuSans-32"/>
     <use x="1331.990234" xlink:href="#DejaVuSans-102"/>
     <use x="1367.195312" xlink:href="#DejaVuSans-117"/>
     <use x="1430.574219" xlink:href="#DejaVuSans-115"/>
     <use x="1482.673828" xlink:href="#DejaVuSans-105"/>
     <use x="1510.457031" xlink:href="#DejaVuSans-111"/>
     <use x="1571.638672" xlink:href="#DejaVuSans-110"/>
     <use x="1635.017578" xlink:href="#DejaVuSans-32"/>
     <use x="1666.804688" xlink:href="#DejaVuSans-117"/>
     <use x="1730.183594" xlink:href="#DejaVuSans-110"/>
     <use x="1793.5625" xlink:href="#DejaVuSans-100"/>
     <use x="1857.039062" xlink:href="#DejaVuSans-101"/>
     <use x="1918.5625" xlink:href="#DejaVuSans-114"/>
     <use x="1959.675781" xlink:href="#DejaVuSans-32"/>
     <use x="1991.462891" xlink:href="#DejaVuSans-116"/>
     <use x="2030.671875" xlink:href="#DejaVuSans-104"/>
     <use x="2094.050781" xlink:href="#DejaVuSans-101"/>
     <use x="2155.574219" xlink:href="#DejaVuSans-32"/>
     <use x="2187.361328" xlink:href="#DejaVuSans-101"/>
     <use x="2248.884766" xlink:href="#DejaVuSans-114"/>
     <use x="2288.248047" xlink:href="#DejaVuSans-114"/>
     <use x="2327.111328" xlink:href="#DejaVuSans-111"/>
     <use x="2388.292969" xlink:href="#DejaVuSans-114"/>
     <use x="2429.40625" xlink:href="#DejaVuSans-32"/>
     <use x="2461.193359" xlink:href="#DejaVuSans-105"/>
     <use x="2488.976562" xlink:href="#DejaVuSans-110"/>
     <use x="2552.355469" xlink:href="#DejaVuSans-100"/>
     <use x="2615.832031" xlink:href="#DejaVuSans-101"/>
     <use x="2677.355469" xlink:href="#DejaVuSans-112"/>
     <use x="2740.832031" xlink:href="#DejaVuSans-101"/>
     <use x="2802.355469" xlink:href="#DejaVuSans-110"/>
     <use x="2865.734375" xlink:href="#DejaVuSans-100"/>
     <use x="2929.210938" xlink:href="#DejaVuSans-101"/>
     <use x="2990.734375" xlink:href="#DejaVuSans-110"/>
     <use x="3054.113281" xlink:href="#DejaVuSans-99"/>
     <use x="3109.09375" xlink:href="#DejaVuSans-101"/>
     <use x="3170.617188" xlink:href="#DejaVuSans-32"/>
     <use x="3202.404297" xlink:href="#DejaVuSans-97"/>
     <use x="3263.683594" xlink:href="#DejaVuSans-115"/>
     <use x="3315.783203" xlink:href="#DejaVuSans-115"/>
     <use x="3367.882812" xlink:href="#DejaVuSans-117"/>
     <use x="3431.261719" xlink:href="#DejaVuSans-109"/>
     <use x="3528.673828" xlink:href="#DejaVuSans-112"/>
     <use x="3592.150391" xlink:href="#DejaVuSans-116"/>
     <use x="3631.359375" xlink:href="#DejaVuSans-105"/>
     <use x="3659.142578" xlink:href="#DejaVuSans-111"/>
     <use x="3720.324219" xlink:href="#DejaVuSans-110"/>
    </g>
   </g>
   <g id="legend_1">
    <g id="patch_51">
     <path d="M 52.29 122.94875 
L 190.763437 122.94875 
Q 192.763437 122.94875 192.763437 120.94875 
L 192.763437 33.88 
Q 192.763437 31.88 190.763437 31.88 
L 52.29 31.88 
Q 50.29 31.88 50.29 33.88 
L 50.29 120.94875 
Q 50.29 122.94875 52.29 122.94875 
z
" style="fill:#ffffff;opacity:0.8;stroke:#cccccc;stroke-linejoin:miter;"/>
    </g>
    <g id="line2d_15">
     <path d="M 54.29 39.978438 
L 74.29 39.978438 
" style="fill:none;stroke:#1f77b4;stroke-dasharray:5.55,2.4;stroke-dashoffset:0;stroke-width:1.5;"/>
    </g>
    <g id="line2d_16"/>
    <g id="text_17">
     <!-- Ground truth -->
     <g transform="translate(82.29 43.478438)scale(0.1 -0.1)">
      <defs>
       <path d="M 59.515625 10.40625 
L 59.515625 29.984375 
L 43.40625 29.984375 
L 43.40625 38.09375 
L 69.28125 38.09375 
L 69.28125 6.78125 
Q 63.578125 2.734375 56.6875 0.65625 
Q 49.8125 -1.421875 42 -1.421875 
Q 24.90625 -1.421875 15.25 8.5625 
Q 5.609375 18.5625 5.609375 36.375 
Q 5.609375 54.25 15.25 64.234375 
Q 24.90625 74.21875 42 74.21875 
Q 49.125 74.21875 55.546875 72.453125 
Q 61.96875 70.703125 67.390625 67.28125 
L 67.390625 56.78125 
Q 61.921875 61.421875 55.765625 63.765625 
Q 49.609375 66.109375 42.828125 66.109375 
Q 29.4375 66.109375 22.71875 58.640625 
Q 16.015625 51.171875 16.015625 36.375 
Q 16.015625 21.625 22.71875 14.15625 
Q 29.4375 6.6875 42.828125 6.6875 
Q 48.046875 6.6875 52.140625 7.59375 
Q 56.25 8.5 59.515625 10.40625 
z
" id="DejaVuSans-71"/>
      </defs>
      <use xlink:href="#DejaVuSans-71"/>
      <use x="77.490234" xlink:href="#DejaVuSans-114"/>
      <use x="116.353516" xlink:href="#DejaVuSans-111"/>
      <use x="177.535156" xlink:href="#DejaVuSans-117"/>
      <use x="240.914062" xlink:href="#DejaVuSans-110"/>
      <use x="304.292969" xlink:href="#DejaVuSans-100"/>
      <use x="367.769531" xlink:href="#DejaVuSans-32"/>
      <use x="399.556641" xlink:href="#DejaVuSans-116"/>
      <use x="438.765625" xlink:href="#DejaVuSans-114"/>
      <use x="479.878906" xlink:href="#DejaVuSans-117"/>
      <use x="543.257812" xlink:href="#DejaVuSans-116"/>
      <use x="582.466797" xlink:href="#DejaVuSans-104"/>
     </g>
    </g>
    <g id="patch_52">
     <path d="M 54.29 58.156563 
L 74.29 58.156563 
L 74.29 51.156563 
L 54.29 51.156563 
z
" style="fill:#ff0000;opacity:0.2;stroke:#ff0000;stroke-linejoin:miter;"/>
    </g>
    <g id="text_18">
     <!-- Posterior AIS -->
     <g transform="translate(82.29 58.156563)scale(0.1 -0.1)">
      <defs>
       <path d="M 19.671875 64.796875 
L 19.671875 37.40625 
L 32.078125 37.40625 
Q 38.96875 37.40625 42.71875 40.96875 
Q 46.484375 44.53125 46.484375 51.125 
Q 46.484375 57.671875 42.71875 61.234375 
Q 38.96875 64.796875 32.078125 64.796875 
z
M 9.8125 72.90625 
L 32.078125 72.90625 
Q 44.34375 72.90625 50.609375 67.359375 
Q 56.890625 61.8125 56.890625 51.125 
Q 56.890625 40.328125 50.609375 34.8125 
Q 44.34375 29.296875 32.078125 29.296875 
L 19.671875 29.296875 
L 19.671875 0 
L 9.8125 0 
z
" id="DejaVuSans-80"/>
       <path d="M 34.1875 63.1875 
L 20.796875 26.90625 
L 47.609375 26.90625 
z
M 28.609375 72.90625 
L 39.796875 72.90625 
L 67.578125 0 
L 57.328125 0 
L 50.6875 18.703125 
L 17.828125 18.703125 
L 11.1875 0 
L 0.78125 0 
z
" id="DejaVuSans-65"/>
       <path d="M 9.8125 72.90625 
L 19.671875 72.90625 
L 19.671875 0 
L 9.8125 0 
z
" id="DejaVuSans-73"/>
       <path d="M 53.515625 70.515625 
L 53.515625 60.890625 
Q 47.90625 63.578125 42.921875 64.890625 
Q 37.9375 66.21875 33.296875 66.21875 
Q 25.25 66.21875 20.875 63.09375 
Q 16.5 59.96875 16.5 54.203125 
Q 16.5 49.359375 19.40625 46.890625 
Q 22.3125 44.4375 30.421875 42.921875 
L 36.375 41.703125 
Q 47.40625 39.59375 52.65625 34.296875 
Q 57.90625 29 57.90625 20.125 
Q 57.90625 9.515625 50.796875 4.046875 
Q 43.703125 -1.421875 29.984375 -1.421875 
Q 24.8125 -1.421875 18.96875 -0.25 
Q 13.140625 0.921875 6.890625 3.21875 
L 6.890625 13.375 
Q 12.890625 10.015625 18.65625 8.296875 
Q 24.421875 6.59375 29.984375 6.59375 
Q 38.421875 6.59375 43.015625 9.90625 
Q 47.609375 13.234375 47.609375 19.390625 
Q 47.609375 24.75 44.3125 27.78125 
Q 41.015625 30.8125 33.5 32.328125 
L 27.484375 33.5 
Q 16.453125 35.6875 11.515625 40.375 
Q 6.59375 45.0625 6.59375 53.421875 
Q 6.59375 63.09375 13.40625 68.65625 
Q 20.21875 74.21875 32.171875 74.21875 
Q 37.3125 74.21875 42.625 73.28125 
Q 47.953125 72.359375 53.515625 70.515625 
z
" id="DejaVuSans-83"/>
      </defs>
      <use xlink:href="#DejaVuSans-80"/>
      <use x="56.677734" xlink:href="#DejaVuSans-111"/>
      <use x="117.859375" xlink:href="#DejaVuSans-115"/>
      <use x="169.958984" xlink:href="#DejaVuSans-116"/>
      <use x="209.167969" xlink:href="#DejaVuSans-101"/>
      <use x="270.691406" xlink:href="#DejaVuSans-114"/>
      <use x="311.804688" xlink:href="#DejaVuSans-105"/>
      <use x="339.587891" xlink:href="#DejaVuSans-111"/>
      <use x="400.769531" xlink:href="#DejaVuSans-114"/>
      <use x="441.882812" xlink:href="#DejaVuSans-32"/>
      <use x="473.669922" xlink:href="#DejaVuSans-65"/>
      <use x="542.078125" xlink:href="#DejaVuSans-73"/>
      <use x="571.570312" xlink:href="#DejaVuSans-83"/>
     </g>
    </g>
    <g id="patch_53">
     <path d="M 54.29 72.834688 
L 74.29 72.834688 
L 74.29 65.834688 
L 54.29 65.834688 
z
" style="fill:#0000ff;opacity:0.2;stroke:#0000ff;stroke-linejoin:miter;"/>
    </g>
    <g id="text_19">
     <!-- Posterior Radar -->
     <g transform="translate(82.29 72.834688)scale(0.1 -0.1)">
      <defs>
       <path d="M 44.390625 34.1875 
Q 47.5625 33.109375 50.5625 29.59375 
Q 53.5625 26.078125 56.59375 19.921875 
L 66.609375 0 
L 56 0 
L 46.6875 18.703125 
Q 43.0625 26.03125 39.671875 28.421875 
Q 36.28125 30.8125 30.421875 30.8125 
L 19.671875 30.8125 
L 19.671875 0 
L 9.8125 0 
L 9.8125 72.90625 
L 32.078125 72.90625 
Q 44.578125 72.90625 50.734375 67.671875 
Q 56.890625 62.453125 56.890625 51.90625 
Q 56.890625 45.015625 53.6875 40.46875 
Q 50.484375 35.9375 44.390625 34.1875 
z
M 19.671875 64.796875 
L 19.671875 38.921875 
L 32.078125 38.921875 
Q 39.203125 38.921875 42.84375 42.21875 
Q 46.484375 45.515625 46.484375 51.90625 
Q 46.484375 58.296875 42.84375 61.546875 
Q 39.203125 64.796875 32.078125 64.796875 
z
" id="DejaVuSans-82"/>
      </defs>
      <use xlink:href="#DejaVuSans-80"/>
      <use x="56.677734" xlink:href="#DejaVuSans-111"/>
      <use x="117.859375" xlink:href="#DejaVuSans-115"/>
      <use x="169.958984" xlink:href="#DejaVuSans-116"/>
      <use x="209.167969" xlink:href="#DejaVuSans-101"/>
      <use x="270.691406" xlink:href="#DejaVuSans-114"/>
      <use x="311.804688" xlink:href="#DejaVuSans-105"/>
      <use x="339.587891" xlink:href="#DejaVuSans-111"/>
      <use x="400.769531" xlink:href="#DejaVuSans-114"/>
      <use x="441.882812" xlink:href="#DejaVuSans-32"/>
      <use x="473.669922" xlink:href="#DejaVuSans-82"/>
      <use x="540.902344" xlink:href="#DejaVuSans-97"/>
      <use x="602.181641" xlink:href="#DejaVuSans-100"/>
      <use x="665.658203" xlink:href="#DejaVuSans-97"/>
      <use x="726.9375" xlink:href="#DejaVuSans-114"/>
     </g>
    </g>
    <g id="patch_54">
     <path d="M 54.29 87.512813 
L 74.29 87.512813 
L 74.29 80.512813 
L 54.29 80.512813 
z
" style="fill:#008000;opacity:0.5;stroke:#008000;stroke-linejoin:miter;"/>
    </g>
    <g id="text_20">
     <!-- Posterior Fused -->
     <g transform="translate(82.29 87.512813)scale(0.1 -0.1)">
      <defs>
       <path d="M 9.8125 72.90625 
L 51.703125 72.90625 
L 51.703125 64.59375 
L 19.671875 64.59375 
L 19.671875 43.109375 
L 48.578125 43.109375 
L 48.578125 34.8125 
L 19.671875 34.8125 
L 19.671875 0 
L 9.8125 0 
z
" id="DejaVuSans-70"/>
      </defs>
      <use xlink:href="#DejaVuSans-80"/>
      <use x="56.677734" xlink:href="#DejaVuSans-111"/>
      <use x="117.859375" xlink:href="#DejaVuSans-115"/>
      <use x="169.958984" xlink:href="#DejaVuSans-116"/>
      <use x="209.167969" xlink:href="#DejaVuSans-101"/>
      <use x="270.691406" xlink:href="#DejaVuSans-114"/>
      <use x="311.804688" xlink:href="#DejaVuSans-105"/>
      <use x="339.587891" xlink:href="#DejaVuSans-111"/>
      <use x="400.769531" xlink:href="#DejaVuSans-114"/>
      <use x="441.882812" xlink:href="#DejaVuSans-32"/>
      <use x="473.669922" xlink:href="#DejaVuSans-70"/>
      <use x="525.689453" xlink:href="#DejaVuSans-117"/>
      <use x="589.068359" xlink:href="#DejaVuSans-115"/>
      <use x="641.167969" xlink:href="#DejaVuSans-101"/>
      <use x="702.691406" xlink:href="#DejaVuSans-100"/>
     </g>
    </g>
    <g id="PathCollection_3">
     <g>
      <use style="fill:#0000ff;stroke:#0000ff;" x="64.29" xlink:href="#m8781b57cdc" y="99.565938"/>
     </g>
    </g>
    <g id="text_21">
     <!-- Measurements Radar -->
     <g transform="translate(82.29 102.190938)scale(0.1 -0.1)">
      <defs>
       <path d="M 9.8125 72.90625 
L 24.515625 72.90625 
L 43.109375 23.296875 
L 61.8125 72.90625 
L 76.515625 72.90625 
L 76.515625 0 
L 66.890625 0 
L 66.890625 64.015625 
L 48.09375 14.015625 
L 38.1875 14.015625 
L 19.390625 64.015625 
L 19.390625 0 
L 9.8125 0 
z
" id="DejaVuSans-77"/>
      </defs>
      <use xlink:href="#DejaVuSans-77"/>
      <use x="86.279297" xlink:href="#DejaVuSans-101"/>
      <use x="147.802734" xlink:href="#DejaVuSans-97"/>
      <use x="209.082031" xlink:href="#DejaVuSans-115"/>
      <use x="261.181641" xlink:href="#DejaVuSans-117"/>
      <use x="324.560547" xlink:href="#DejaVuSans-114"/>
      <use x="363.423828" xlink:href="#DejaVuSans-101"/>
      <use x="424.947266" xlink:href="#DejaVuSans-109"/>
      <use x="522.359375" xlink:href="#DejaVuSans-101"/>
      <use x="583.882812" xlink:href="#DejaVuSans-110"/>
      <use x="647.261719" xlink:href="#DejaVuSans-116"/>
      <use x="686.470703" xlink:href="#DejaVuSans-115"/>
      <use x="738.570312" xlink:href="#DejaVuSans-32"/>
      <use x="770.357422" xlink:href="#DejaVuSans-82"/>
      <use x="837.589844" xlink:href="#DejaVuSans-97"/>
      <use x="898.869141" xlink:href="#DejaVuSans-100"/>
      <use x="962.345703" xlink:href="#DejaVuSans-97"/>
      <use x="1023.625" xlink:href="#DejaVuSans-114"/>
     </g>
    </g>
    <g id="PathCollection_4">
     <g>
      <use style="fill:#ff0000;stroke:#ff0000;" x="64.29" xlink:href="#m22dd32bcf3" y="114.244063"/>
     </g>
    </g>
    <g id="text_22">
     <!-- Measurements AIS -->
     <g transform="translate(82.29 116.869063)scale(0.1 -0.1)">
      <use xlink:href="#DejaVuSans-77"/>
      <use x="86.279297" xlink:href="#DejaVuSans-101"/>
      <use x="147.802734" xlink:href="#DejaVuSans-97"/>
      <use x="209.082031" xlink:href="#DejaVuSans-115"/>
      <use x="261.181641" xlink:href="#DejaVuSans-117"/>
      <use x="324.560547" xlink:href="#DejaVuSans-114"/>
      <use x="363.423828" xlink:href="#DejaVuSans-101"/>
      <use x="424.947266" xlink:href="#DejaVuSans-109"/>
      <use x="522.359375" xlink:href="#DejaVuSans-101"/>
      <use x="583.882812" xlink:href="#DejaVuSans-110"/>
      <use x="647.261719" xlink:href="#DejaVuSans-116"/>
      <use x="686.470703" xlink:href="#DejaVuSans-115"/>
      <use x="738.570312" xlink:href="#DejaVuSans-32"/>
      <use x="770.357422" xlink:href="#DejaVuSans-65"/>
      <use x="838.765625" xlink:href="#DejaVuSans-73"/>
      <use x="868.257812" xlink:href="#DejaVuSans-83"/>
     </g>
    </g>
   </g>
  </g>
 </g>
 <defs>
  <clipPath id="p0ab7d0c316">
   <rect height="363.16" width="663.91" x="45.29" y="26.88"/>
  </clipPath>
 </defs>
</svg>
