<?xml version="1.0" encoding="utf-8" standalone="no"?>
<!DOCTYPE svg PUBLIC "-//W3C//DTD SVG 1.1//EN"
  "http://www.w3.org/Graphics/SVG/1.1/DTD/svg11.dtd">
<!-- Created with matplotlib (https://matplotlib.org/) -->
<svg height="432pt" version="1.1" viewBox="0 0 720 432" width="720pt" xmlns="http://www.w3.org/2000/svg" xmlns:xlink="http://www.w3.org/1999/xlink">
 <metadata>
  <rdf:RDF xmlns:cc="http://creativecommons.org/ns#" xmlns:dc="http://purl.org/dc/elements/1.1/" xmlns:rdf="http://www.w3.org/1999/02/22-rdf-syntax-ns#">
   <cc:Work>
    <dc:type rdf:resource="http://purl.org/dc/dcmitype/StillImage"/>
    <dc:date>2020-09-23T15:57:38.713731</dc:date>
    <dc:format>image/svg+xml</dc:format>
    <dc:creator>
     <cc:Agent>
      <dc:title>Matplotlib v3.3.1, https://matplotlib.org/</dc:title>
     </cc:Agent>
    </dc:creator>
   </cc:Work>
  </rdf:RDF>
 </metadata>
 <defs>
  <style type="text/css">*{stroke-linecap:butt;stroke-linejoin:round;}</style>
 </defs>
 <g id="figure_1">
  <g id="patch_1">
   <path d="M 0 432 
L 720 432 
L 720 0 
L 0 0 
z
" style="fill:#ffffff;"/>
  </g>
  <g id="axes_1">
   <g id="patch_2">
    <path d="M 45.29 390.04 
L 709.2 390.04 
L 709.2 26.88 
L 45.29 26.88 
z
" style="fill:#ffffff;"/>
   </g>
   <g id="PathCollection_1">
    <defs>
     <path d="M 0 3 
C 0.795609 3 1.55874 2.683901 2.12132 2.12132 
C 2.683901 1.55874 3 0.795609 3 0 
C 3 -0.795609 2.683901 -1.55874 2.12132 -2.12132 
C 1.55874 -2.683901 0.795609 -3 0 -3 
C -0.795609 -3 -1.55874 -2.683901 -2.12132 -2.12132 
C -2.683901 -1.55874 -3 -0.795609 -3 0 
C -3 0.795609 -2.683901 1.55874 -2.12132 2.12132 
C -1.55874 2.683901 -0.795609 3 0 3 
z
" id="m514892b0ee" style="stroke:#0000ff;"/>
    </defs>
    <g clip-path="url(#pe3e5231620)">
     <use style="fill:#0000ff;stroke:#0000ff;" x="158.277038" xlink:href="#m514892b0ee" y="373.532727"/>
     <use style="fill:#0000ff;stroke:#0000ff;" x="137.026331" xlink:href="#m514892b0ee" y="373.45622"/>
     <use style="fill:#0000ff;stroke:#0000ff;" x="205.798362" xlink:href="#m514892b0ee" y="333.328318"/>
     <use style="fill:#0000ff;stroke:#0000ff;" x="264.75645" xlink:href="#m514892b0ee" y="320.196558"/>
     <use style="fill:#0000ff;stroke:#0000ff;" x="232.796631" xlink:href="#m514892b0ee" y="262.148369"/>
     <use style="fill:#0000ff;stroke:#0000ff;" x="272.044651" xlink:href="#m514892b0ee" y="323.864859"/>
     <use style="fill:#0000ff;stroke:#0000ff;" x="270.003189" xlink:href="#m514892b0ee" y="271.062837"/>
     <use style="fill:#0000ff;stroke:#0000ff;" x="259.523804" xlink:href="#m514892b0ee" y="290.731115"/>
     <use style="fill:#0000ff;stroke:#0000ff;" x="354.456257" xlink:href="#m514892b0ee" y="242.502877"/>
     <use style="fill:#0000ff;stroke:#0000ff;" x="366.709343" xlink:href="#m514892b0ee" y="177.873065"/>
     <use style="fill:#0000ff;stroke:#0000ff;" x="356.154795" xlink:href="#m514892b0ee" y="214.928328"/>
     <use style="fill:#0000ff;stroke:#0000ff;" x="432.014024" xlink:href="#m514892b0ee" y="99.616623"/>
     <use style="fill:#0000ff;stroke:#0000ff;" x="388.00031" xlink:href="#m514892b0ee" y="206.502895"/>
     <use style="fill:#0000ff;stroke:#0000ff;" x="370.693072" xlink:href="#m514892b0ee" y="130.170317"/>
     <use style="fill:#0000ff;stroke:#0000ff;" x="477.706146" xlink:href="#m514892b0ee" y="170.139603"/>
     <use style="fill:#0000ff;stroke:#0000ff;" x="443.911981" xlink:href="#m514892b0ee" y="156.803837"/>
     <use style="fill:#0000ff;stroke:#0000ff;" x="501.651839" xlink:href="#m514892b0ee" y="130.902956"/>
     <use style="fill:#0000ff;stroke:#0000ff;" x="557.632472" xlink:href="#m514892b0ee" y="120.99685"/>
     <use style="fill:#0000ff;stroke:#0000ff;" x="558.904963" xlink:href="#m514892b0ee" y="104.191027"/>
     <use style="fill:#0000ff;stroke:#0000ff;" x="583.433983" xlink:href="#m514892b0ee" y="107.893109"/>
     <use style="fill:#0000ff;stroke:#0000ff;" x="617.463669" xlink:href="#m514892b0ee" y="43.387273"/>
    </g>
   </g>
   <g id="PathCollection_2">
    <defs>
     <path d="M 0 3 
C 0.795609 3 1.55874 2.683901 2.12132 2.12132 
C 2.683901 1.55874 3 0.795609 3 0 
C 3 -0.795609 2.683901 -1.55874 2.12132 -2.12132 
C 1.55874 -2.683901 0.795609 -3 0 -3 
C -0.795609 -3 -1.55874 -2.683901 -2.12132 -2.12132 
C -2.683901 -1.55874 -3 -0.795609 -3 0 
C -3 0.795609 -2.683901 1.55874 -2.12132 2.12132 
C -1.55874 2.683901 -0.795609 3 0 3 
z
" id="m8816d82a5e" style="stroke:#ff0000;"/>
    </defs>
    <g clip-path="url(#pe3e5231620)">
     <use style="fill:#ff0000;stroke:#ff0000;" x="199.834352" xlink:href="#m8816d82a5e" y="326.085746"/>
     <use style="fill:#ff0000;stroke:#ff0000;" x="221.479669" xlink:href="#m8816d82a5e" y="329.49152"/>
     <use style="fill:#ff0000;stroke:#ff0000;" x="290.209604" xlink:href="#m8816d82a5e" y="264.712469"/>
     <use style="fill:#ff0000;stroke:#ff0000;" x="304.059017" xlink:href="#m8816d82a5e" y="232.280516"/>
     <use style="fill:#ff0000;stroke:#ff0000;" x="317.176898" xlink:href="#m8816d82a5e" y="253.241465"/>
     <use style="fill:#ff0000;stroke:#ff0000;" x="361.472042" xlink:href="#m8816d82a5e" y="193.458281"/>
     <use style="fill:#ff0000;stroke:#ff0000;" x="420.356168" xlink:href="#m8816d82a5e" y="192.45439"/>
     <use style="fill:#ff0000;stroke:#ff0000;" x="487.228801" xlink:href="#m8816d82a5e" y="140.707494"/>
     <use style="fill:#ff0000;stroke:#ff0000;" x="527.794733" xlink:href="#m8816d82a5e" y="74.374841"/>
     <use style="fill:#ff0000;stroke:#ff0000;" x="561.563708" xlink:href="#m8816d82a5e" y="103.563804"/>
    </g>
   </g>
   <g id="patch_3">
    <path clip-path="url(#pe3e5231620)" d="M 162.357832 364.061089 
C 162.357832 364.061089 162.357832 364.061089 162.357832 364.061089 
C 162.357832 364.061089 162.357832 364.061089 162.357832 364.061089 
C 162.357832 364.061089 162.357832 364.061089 162.357832 364.061089 
C 162.357832 364.061089 162.357832 364.061089 162.357832 364.061089 
C 162.357832 364.061089 162.357832 364.061089 162.357832 364.061089 
C 162.357832 364.061089 162.357832 364.061089 162.357832 364.061089 
C 162.357832 364.061089 162.357832 364.061089 162.357832 364.061089 
C 162.357832 364.061089 162.357832 364.061089 162.357832 364.061089 
z
" style="fill:#ff0000;opacity:0.2;stroke:#ff0000;stroke-linejoin:miter;"/>
   </g>
   <g id="patch_4">
    <path clip-path="url(#pe3e5231620)" d="M 162.357832 364.061089 
C 162.357832 364.061089 162.357832 364.061089 162.357832 364.061089 
C 162.357832 364.061089 162.357832 364.061089 162.357832 364.061089 
C 162.357832 364.061089 162.357832 364.061089 162.357832 364.061089 
C 162.357832 364.061089 162.357832 364.061089 162.357832 364.061089 
C 162.357832 364.061089 162.357832 364.061089 162.357832 364.061089 
C 162.357832 364.061089 162.357832 364.061089 162.357832 364.061089 
C 162.357832 364.061089 162.357832 364.061089 162.357832 364.061089 
C 162.357832 364.061089 162.357832 364.061089 162.357832 364.061089 
z
" style="fill:#0000ff;opacity:0.2;stroke:#0000ff;stroke-linejoin:miter;"/>
   </g>
   <g id="patch_5">
    <path clip-path="url(#pe3e5231620)" d="M 160.997568 383.165995 
C 165.226945 383.165995 169.283668 381.485646 172.27429 378.495024 
C 175.264912 375.504402 176.945261 371.447679 176.945261 367.218302 
C 176.945261 362.988924 175.264912 358.932201 172.27429 355.941579 
C 169.283668 352.950957 165.226945 351.270608 160.997568 351.270608 
C 156.76819 351.270608 152.711467 352.950957 149.720845 355.941579 
C 146.730223 358.932201 145.049874 362.988924 145.049874 367.218302 
C 145.049874 371.447679 146.730223 375.504402 149.720845 378.495024 
C 152.711467 381.485646 156.76819 383.165995 160.997568 383.165995 
z
" style="fill:#ff0000;opacity:0.2;stroke:#ff0000;stroke-linejoin:miter;"/>
   </g>
   <g id="patch_6">
    <path clip-path="url(#pe3e5231620)" d="M 181.740196 353.650092 
C 184.731923 353.650092 187.60152 352.461466 189.716991 350.345995 
C 191.832462 348.230525 193.021088 345.360928 193.021088 342.3692 
C 193.021088 339.377473 191.832462 336.507876 189.716991 334.392405 
C 187.60152 332.276934 184.731923 331.088308 181.740196 331.088308 
C 178.748468 331.088308 175.878871 332.276934 173.7634 334.392405 
C 171.647929 336.507876 170.459304 339.377473 170.459304 342.3692 
C 170.459304 345.360928 171.647929 348.230525 173.7634 350.345995 
C 175.878871 352.461466 178.748468 353.650092 181.740196 353.650092 
z
" style="fill:#ff0000;opacity:0.2;stroke:#ff0000;stroke-linejoin:miter;"/>
   </g>
   <g id="patch_7">
    <path clip-path="url(#pe3e5231620)" d="M 201.19589 341.243969 
C 205.153698 341.243969 208.949939 339.671515 211.748532 336.872922 
C 214.547126 334.074328 216.11958 330.278088 216.11958 326.320279 
C 216.11958 322.36247 214.547126 318.56623 211.748532 315.767637 
C 208.949939 312.969043 205.153698 311.396589 201.19589 311.396589 
C 197.238081 311.396589 193.441841 312.969043 190.643247 315.767637 
C 187.844654 318.56623 186.272199 322.36247 186.272199 326.320279 
C 186.272199 330.278088 187.844654 334.074328 190.643247 336.872922 
C 193.441841 339.671515 197.238081 341.243969 201.19589 341.243969 
z
" style="fill:#ff0000;opacity:0.2;stroke:#ff0000;stroke-linejoin:miter;"/>
   </g>
   <g id="patch_8">
    <path clip-path="url(#pe3e5231620)" d="M 228.863705 333.955669 
C 231.990756 333.955669 234.990153 332.713278 237.201312 330.502119 
C 239.412471 328.29096 240.654862 325.291563 240.654862 322.164512 
C 240.654862 319.03746 239.412471 316.038064 237.201312 313.826905 
C 234.990153 311.615745 231.990756 310.373355 228.863705 310.373355 
C 225.736653 310.373355 222.737257 311.615745 220.526098 313.826905 
C 218.314938 316.038064 217.072548 319.03746 217.072548 322.164512 
C 217.072548 325.291563 218.314938 328.29096 220.526098 330.502119 
C 222.737257 332.713278 225.736653 333.955669 228.863705 333.955669 
z
" style="fill:#ff0000;opacity:0.2;stroke:#ff0000;stroke-linejoin:miter;"/>
   </g>
   <g id="patch_9">
    <path clip-path="url(#pe3e5231620)" d="M 245.902893 311.11726 
C 249.688989 311.11726 253.320526 309.613029 255.9977 306.935855 
C 258.674873 304.258681 260.179105 300.627144 260.179105 296.841049 
C 260.179105 293.054953 258.674873 289.423416 255.9977 286.746242 
C 253.320526 284.069069 249.688989 282.564837 245.902893 282.564837 
C 242.116798 282.564837 238.485261 284.069069 235.808087 286.746242 
C 233.130913 289.423416 231.626682 293.054953 231.626682 296.841049 
C 231.626682 300.627144 233.130913 304.258681 235.808087 306.935855 
C 238.485261 309.613029 242.116798 311.11726 245.902893 311.11726 
z
" style="fill:#ff0000;opacity:0.2;stroke:#ff0000;stroke-linejoin:miter;"/>
   </g>
   <g id="patch_10">
    <path clip-path="url(#pe3e5231620)" d="M 278.995309 290.915357 
C 281.964783 290.915357 284.813034 289.735572 286.912768 287.635838 
C 289.012503 285.536103 290.192287 282.687852 290.192287 279.718379 
C 290.192287 276.748905 289.012503 273.900654 286.912768 271.80092 
C 284.813034 269.701185 281.964783 268.521401 278.995309 268.521401 
C 276.025836 268.521401 273.177585 269.701185 271.07785 271.80092 
C 268.978116 273.900654 267.798331 276.748905 267.798331 279.718379 
C 267.798331 282.687852 268.978116 285.536103 271.07785 287.635838 
C 273.177585 289.735572 276.025836 290.915357 278.995309 290.915357 
z
" style="fill:#ff0000;opacity:0.2;stroke:#ff0000;stroke-linejoin:miter;"/>
   </g>
   <g id="patch_11">
    <path clip-path="url(#pe3e5231620)" d="M 295.647969 277.492227 
C 299.050429 277.492227 302.313991 276.140416 304.719893 273.734513 
C 307.125796 271.328611 308.477607 268.065049 308.477607 264.662589 
C 308.477607 261.260129 307.125796 257.996568 304.719893 255.590665 
C 302.313991 253.184763 299.050429 251.832951 295.647969 251.832951 
C 292.245509 251.832951 288.981947 253.184763 286.576045 255.590665 
C 284.170143 257.996568 282.818331 261.260129 282.818331 264.662589 
C 282.818331 268.065049 284.170143 271.328611 286.576045 273.734513 
C 288.981947 276.140416 292.245509 277.492227 295.647969 277.492227 
z
" style="fill:#ff0000;opacity:0.2;stroke:#ff0000;stroke-linejoin:miter;"/>
   </g>
   <g id="patch_12">
    <path clip-path="url(#pe3e5231620)" d="M 303.311225 257.989215 
C 306.099459 257.989215 308.77387 256.881438 310.745449 254.909859 
C 312.717028 252.93828 313.824805 250.263869 313.824805 247.475635 
C 313.824805 244.687401 312.717028 242.012991 310.745449 240.041411 
C 308.77387 238.069832 306.099459 236.962055 303.311225 236.962055 
C 300.522991 236.962055 297.848581 238.069832 295.877001 240.041411 
C 293.905422 242.012991 292.797645 244.687401 292.797645 247.475635 
C 292.797645 250.263869 293.905422 252.93828 295.877001 254.909859 
C 297.848581 256.881438 300.522991 257.989215 303.311225 257.989215 
z
" style="fill:#ff0000;opacity:0.2;stroke:#ff0000;stroke-linejoin:miter;"/>
   </g>
   <g id="patch_13">
    <path clip-path="url(#pe3e5231620)" d="M 328.065323 244.89591 
C 331.207898 244.89591 334.222184 243.647352 336.44432 241.425216 
C 338.666456 239.20308 339.915015 236.188793 339.915015 233.046219 
C 339.915015 229.903644 338.666456 226.889358 336.44432 224.667222 
C 334.222184 222.445086 331.207898 221.196527 328.065323 221.196527 
C 324.922749 221.196527 321.908462 222.445086 319.686326 224.667222 
C 317.46419 226.889358 316.215632 229.903644 316.215632 233.046219 
C 316.215632 236.188793 317.46419 239.20308 319.686326 241.425216 
C 321.908462 243.647352 324.922749 244.89591 328.065323 244.89591 
z
" style="fill:#ff0000;opacity:0.2;stroke:#ff0000;stroke-linejoin:miter;"/>
   </g>
   <g id="patch_14">
    <path clip-path="url(#pe3e5231620)" d="M 338.302946 236.25262 
C 340.969527 236.25262 343.527251 235.193176 345.412809 233.307619 
C 347.298366 231.422061 348.35781 228.864337 348.35781 226.197756 
C 348.35781 223.531175 347.298366 220.973451 345.412809 219.087893 
C 343.527251 217.202335 340.969527 216.142891 338.302946 216.142891 
C 335.636364 216.142891 333.078641 217.202335 331.193083 219.087893 
C 329.307525 220.973451 328.248081 223.531175 328.248081 226.197756 
C 328.248081 228.864337 329.307525 231.422061 331.193083 233.307619 
C 333.078641 235.193176 335.636364 236.25262 338.302946 236.25262 
z
" style="fill:#ff0000;opacity:0.2;stroke:#ff0000;stroke-linejoin:miter;"/>
   </g>
   <g id="patch_15">
    <path clip-path="url(#pe3e5231620)" d="M 356.323979 223.83139 
C 359.327665 223.83139 362.208732 222.638013 364.332658 220.514087 
C 366.456585 218.39016 367.649962 215.509093 367.649962 212.505407 
C 367.649962 209.501722 366.456585 206.620655 364.332658 204.496728 
C 362.208732 202.372801 359.327665 201.179424 356.323979 201.179424 
C 353.320293 201.179424 350.439226 202.372801 348.3153 204.496728 
C 346.191373 206.620655 344.997996 209.501722 344.997996 212.505407 
C 344.997996 215.509093 346.191373 218.39016 348.3153 220.514087 
C 350.439226 222.638013 353.320293 223.83139 356.323979 223.83139 
z
" style="fill:#ff0000;opacity:0.2;stroke:#ff0000;stroke-linejoin:miter;"/>
   </g>
   <g id="patch_16">
    <path clip-path="url(#pe3e5231620)" d="M 376.766453 193.872932 
C 379.370965 193.872932 381.869155 192.838148 383.710823 190.996479 
C 385.552492 189.154811 386.587276 186.656621 386.587276 184.052109 
C 386.587276 181.447596 385.552492 178.949407 383.710823 177.107738 
C 381.869155 175.26607 379.370965 174.231286 376.766453 174.231286 
C 374.16194 174.231286 371.663751 175.26607 369.822082 177.107738 
C 367.980413 178.949407 366.94563 181.447596 366.94563 184.052109 
C 366.94563 186.656621 367.980413 189.154811 369.822082 190.996479 
C 371.663751 192.838148 374.16194 193.872932 376.766453 193.872932 
z
" style="fill:#ff0000;opacity:0.2;stroke:#ff0000;stroke-linejoin:miter;"/>
   </g>
   <g id="patch_17">
    <path clip-path="url(#pe3e5231620)" d="M 394.126005 184.504155 
C 397.071163 184.504155 399.896092 183.334032 401.978633 181.251491 
C 404.061174 179.168949 405.231298 176.344021 405.231298 173.398863 
C 405.231298 170.453705 404.061174 167.628776 401.978633 165.546235 
C 399.896092 163.463694 397.071163 162.29357 394.126005 162.29357 
C 391.180847 162.29357 388.355919 163.463694 386.273377 165.546235 
C 384.190836 167.628776 383.020713 170.453705 383.020713 173.398863 
C 383.020713 176.344021 384.190836 179.168949 386.273377 181.251491 
C 388.355919 183.334032 391.180847 184.504155 394.126005 184.504155 
z
" style="fill:#ff0000;opacity:0.2;stroke:#ff0000;stroke-linejoin:miter;"/>
   </g>
   <g id="patch_18">
    <path clip-path="url(#pe3e5231620)" d="M 410.193426 176.9677 
C 412.774494 176.9677 415.250195 175.942231 417.075286 174.11714 
C 418.900377 172.292049 419.925846 169.816348 419.925846 167.23528 
C 419.925846 164.654211 418.900377 162.17851 417.075286 160.353419 
C 415.250195 158.528328 412.774494 157.502859 410.193426 157.502859 
C 407.612358 157.502859 405.136656 158.528328 403.311565 160.353419 
C 401.486474 162.17851 400.461005 164.654211 400.461005 167.23528 
C 400.461005 169.816348 401.486474 172.292049 403.311565 174.11714 
C 405.136656 175.942231 407.612358 176.9677 410.193426 176.9677 
z
" style="fill:#ff0000;opacity:0.2;stroke:#ff0000;stroke-linejoin:miter;"/>
   </g>
   <g id="patch_19">
    <path clip-path="url(#pe3e5231620)" d="M 435.956479 167.221489 
C 438.883934 167.221489 441.691881 166.058399 443.761904 163.988376 
C 445.831927 161.918353 446.995017 159.110406 446.995017 156.182951 
C 446.995017 153.255497 445.831927 150.447549 443.761904 148.377527 
C 441.691881 146.307504 438.883934 145.144414 435.956479 145.144414 
C 433.029025 145.144414 430.221077 146.307504 428.151055 148.377527 
C 426.081032 150.447549 424.917942 153.255497 424.917942 156.182951 
C 424.917942 159.110406 426.081032 161.918353 428.151055 163.988376 
C 430.221077 166.058399 433.029025 167.221489 435.956479 167.221489 
z
" style="fill:#ff0000;opacity:0.2;stroke:#ff0000;stroke-linejoin:miter;"/>
   </g>
   <g id="patch_20">
    <path clip-path="url(#pe3e5231620)" d="M 465.823211 153.589711 
C 468.398449 153.589711 470.868558 152.566559 472.689526 150.745591 
C 474.510493 148.924623 475.533646 146.454514 475.533646 143.879276 
C 475.533646 141.304039 474.510493 138.83393 472.689526 137.012962 
C 470.868558 135.191994 468.398449 134.168841 465.823211 134.168841 
C 463.247974 134.168841 460.777864 135.191994 458.956896 137.012962 
C 457.135929 138.83393 456.112776 141.304039 456.112776 143.879276 
C 456.112776 146.454514 457.135929 148.924623 458.956896 150.745591 
C 460.777864 152.566559 463.247974 153.589711 465.823211 153.589711 
z
" style="fill:#ff0000;opacity:0.2;stroke:#ff0000;stroke-linejoin:miter;"/>
   </g>
   <g id="patch_21">
    <path clip-path="url(#pe3e5231620)" d="M 489.764365 141.941552 
C 492.688822 141.941552 495.493896 140.779653 497.5618 138.711749 
C 499.629704 136.643845 500.791603 133.838771 500.791603 130.914314 
C 500.791603 127.989856 499.629704 125.184782 497.5618 123.116879 
C 495.493896 121.048975 492.688822 119.887075 489.764365 119.887075 
C 486.839907 119.887075 484.034834 121.048975 481.96693 123.116879 
C 479.899026 125.184782 478.737126 127.989856 478.737126 130.914314 
C 478.737126 133.838771 479.899026 136.643845 481.96693 138.711749 
C 484.034834 140.779653 486.839907 141.941552 489.764365 141.941552 
z
" style="fill:#ff0000;opacity:0.2;stroke:#ff0000;stroke-linejoin:miter;"/>
   </g>
   <g id="patch_22">
    <path clip-path="url(#pe3e5231620)" d="M 523.457815 111.886924 
C 526.032471 111.886924 528.502023 110.864002 530.32258 109.043445 
C 532.143137 107.222888 533.166059 104.753336 533.166059 102.17868 
C 533.166059 99.604023 532.143137 97.134471 530.32258 95.313914 
C 528.502023 93.493357 526.032471 92.470435 523.457815 92.470435 
C 520.883158 92.470435 518.413607 93.493357 516.59305 95.313914 
C 514.772492 97.134471 513.749571 99.604023 513.749571 102.17868 
C 513.749571 104.753336 514.772492 107.222888 516.59305 109.043445 
C 518.413607 110.864002 520.883158 111.886924 523.457815 111.886924 
z
" style="fill:#ff0000;opacity:0.2;stroke:#ff0000;stroke-linejoin:miter;"/>
   </g>
   <g id="patch_23">
    <path clip-path="url(#pe3e5231620)" d="M 549.772722 99.854279 
C 552.697219 99.854279 555.50233 98.692364 557.570261 96.624432 
C 559.638193 94.556501 560.800108 91.75139 560.800108 88.826892 
C 560.800108 85.902395 559.638193 83.097284 557.570261 81.029353 
C 555.50233 78.961421 552.697219 77.799506 549.772722 77.799506 
C 546.848225 77.799506 544.043114 78.961421 541.975182 81.029353 
C 539.90725 83.097284 538.745335 85.902395 538.745335 88.826892 
C 538.745335 91.75139 539.90725 94.556501 541.975182 96.624432 
C 544.043114 98.692364 546.848225 99.854279 549.772722 99.854279 
z
" style="fill:#ff0000;opacity:0.2;stroke:#ff0000;stroke-linejoin:miter;"/>
   </g>
   <g id="patch_24">
    <path clip-path="url(#pe3e5231620)" d="M 570.925003 98.441406 
C 573.49973 98.441406 575.96935 97.418456 577.789957 95.597849 
C 579.610564 93.777242 580.633513 91.307622 580.633513 88.732895 
C 580.633513 86.158168 579.610564 83.688548 577.789957 81.867941 
C 575.96935 80.047334 573.49973 79.024384 570.925003 79.024384 
C 568.350276 79.024384 565.880656 80.047334 564.060049 81.867941 
C 562.239442 83.688548 561.216492 86.158168 561.216492 88.732895 
C 561.216492 91.307622 562.239442 93.777242 564.060049 95.597849 
C 565.880656 97.418456 568.350276 98.441406 570.925003 98.441406 
z
" style="fill:#ff0000;opacity:0.2;stroke:#ff0000;stroke-linejoin:miter;"/>
   </g>
   <g id="patch_25">
    <path clip-path="url(#pe3e5231620)" d="M 598.651221 82.12222 
C 601.575652 82.12222 604.380699 80.960331 606.448584 78.892446 
C 608.516469 76.824561 609.678357 74.019514 609.678357 71.095083 
C 609.678357 68.170652 608.516469 65.365605 606.448584 63.29772 
C 604.380699 61.229835 601.575652 60.067947 598.651221 60.067947 
C 595.72679 60.067947 592.921743 61.229835 590.853858 63.29772 
C 588.785973 65.365605 587.624084 68.170652 587.624084 71.095083 
C 587.624084 74.019514 588.785973 76.824561 590.853858 78.892446 
C 592.921743 80.960331 595.72679 82.12222 598.651221 82.12222 
z
" style="fill:#ff0000;opacity:0.2;stroke:#ff0000;stroke-linejoin:miter;"/>
   </g>
   <g id="patch_26">
    <path clip-path="url(#pe3e5231620)" d="M 160.997568 383.165995 
C 165.226945 383.165995 169.283668 381.485646 172.27429 378.495024 
C 175.264912 375.504402 176.945261 371.447679 176.945261 367.218302 
C 176.945261 362.988924 175.264912 358.932201 172.27429 355.941579 
C 169.283668 352.950957 165.226945 351.270608 160.997568 351.270608 
C 156.76819 351.270608 152.711467 352.950957 149.720845 355.941579 
C 146.730223 358.932201 145.049874 362.988924 145.049874 367.218302 
C 145.049874 371.447679 146.730223 375.504402 149.720845 378.495024 
C 152.711467 381.485646 156.76819 383.165995 160.997568 383.165995 
z
" style="fill:#0000ff;opacity:0.2;stroke:#0000ff;stroke-linejoin:miter;"/>
   </g>
   <g id="patch_27">
    <path clip-path="url(#pe3e5231620)" d="M 163.619253 374.636253 
C 167.85176 374.636253 171.911485 372.95466 174.904319 369.961826 
C 177.897154 366.968991 179.578747 362.909267 179.578747 358.676759 
C 179.578747 354.444252 177.897154 350.384528 174.904319 347.391693 
C 171.911485 344.398859 167.85176 342.717266 163.619253 342.717266 
C 159.386746 342.717266 155.327021 344.398859 152.334187 347.391693 
C 149.341352 350.384528 147.659759 354.444252 147.659759 358.676759 
C 147.659759 362.909267 149.341352 366.968991 152.334187 369.961826 
C 155.327021 372.95466 159.386746 374.636253 163.619253 374.636253 
z
" style="fill:#0000ff;opacity:0.2;stroke:#0000ff;stroke-linejoin:miter;"/>
   </g>
   <g id="patch_28">
    <path clip-path="url(#pe3e5231620)" d="M 201.19589 341.243969 
C 205.153698 341.243969 208.949939 339.671515 211.748532 336.872922 
C 214.547126 334.074328 216.11958 330.278088 216.11958 326.320279 
C 216.11958 322.36247 214.547126 318.56623 211.748532 315.767637 
C 208.949939 312.969043 205.153698 311.396589 201.19589 311.396589 
C 197.238081 311.396589 193.441841 312.969043 190.643247 315.767637 
C 187.844654 318.56623 186.272199 322.36247 186.272199 326.320279 
C 186.272199 330.278088 187.844654 334.074328 190.643247 336.872922 
C 193.441841 339.671515 197.238081 341.243969 201.19589 341.243969 
z
" style="fill:#0000ff;opacity:0.2;stroke:#0000ff;stroke-linejoin:miter;"/>
   </g>
   <g id="patch_29">
    <path clip-path="url(#pe3e5231620)" d="M 237.767734 330.841594 
C 242.412062 330.841594 246.866795 328.996383 250.150831 325.712347 
C 253.434867 322.428311 255.280078 317.973578 255.280078 313.32925 
C 255.280078 308.684922 253.434867 304.230188 250.150831 300.946153 
C 246.866795 297.662117 242.412062 295.816906 237.767734 295.816906 
C 233.123406 295.816906 228.668672 297.662117 225.384637 300.946153 
C 222.100601 304.230188 220.25539 308.684922 220.25539 313.32925 
C 220.25539 317.973578 222.100601 322.428311 225.384637 325.712347 
C 228.668672 328.996383 233.123406 330.841594 237.767734 330.841594 
z
" style="fill:#0000ff;opacity:0.2;stroke:#0000ff;stroke-linejoin:miter;"/>
   </g>
   <g id="patch_30">
    <path clip-path="url(#pe3e5231620)" d="M 245.902893 311.11726 
C 249.688989 311.11726 253.320526 309.613029 255.9977 306.935855 
C 258.674873 304.258681 260.179105 300.627144 260.179105 296.841049 
C 260.179105 293.054953 258.674873 289.423416 255.9977 286.746242 
C 253.320526 284.069069 249.688989 282.564837 245.902893 282.564837 
C 242.116798 282.564837 238.485261 284.069069 235.808087 286.746242 
C 233.130913 289.423416 231.626682 293.054953 231.626682 296.841049 
C 231.626682 300.627144 233.130913 304.258681 235.808087 306.935855 
C 238.485261 309.613029 242.116798 311.11726 245.902893 311.11726 
z
" style="fill:#0000ff;opacity:0.2;stroke:#0000ff;stroke-linejoin:miter;"/>
   </g>
   <g id="patch_31">
    <path clip-path="url(#pe3e5231620)" d="M 268.092713 310.031705 
C 272.262899 310.031705 276.262847 308.374873 279.211614 305.426106 
C 282.160381 302.477338 283.817214 298.47739 283.817214 294.307204 
C 283.817214 290.137017 282.160381 286.13707 279.211614 283.188302 
C 276.262847 280.239535 272.262899 278.582703 268.092713 278.582703 
C 263.922526 278.582703 259.922578 280.239535 256.973811 283.188302 
C 254.025044 286.13707 252.368211 290.137017 252.368211 294.307204 
C 252.368211 298.47739 254.025044 302.477338 256.973811 305.426106 
C 259.922578 308.374873 263.922526 310.031705 268.092713 310.031705 
z
" style="fill:#0000ff;opacity:0.2;stroke:#0000ff;stroke-linejoin:miter;"/>
   </g>
   <g id="patch_32">
    <path clip-path="url(#pe3e5231620)" d="M 295.647969 277.492227 
C 299.050429 277.492227 302.313991 276.140416 304.719893 273.734513 
C 307.125796 271.328611 308.477607 268.065049 308.477607 264.662589 
C 308.477607 261.260129 307.125796 257.996568 304.719893 255.590665 
C 302.313991 253.184763 299.050429 251.832951 295.647969 251.832951 
C 292.245509 251.832951 288.981947 253.184763 286.576045 255.590665 
C 284.170143 257.996568 282.818331 261.260129 282.818331 264.662589 
C 282.818331 268.065049 284.170143 271.328611 286.576045 273.734513 
C 288.981947 276.140416 292.245509 277.492227 295.647969 277.492227 
z
" style="fill:#0000ff;opacity:0.2;stroke:#0000ff;stroke-linejoin:miter;"/>
   </g>
   <g id="patch_33">
    <path clip-path="url(#pe3e5231620)" d="M 302.736391 273.13856 
C 306.444542 273.13856 310.001315 271.665297 312.623374 269.043238 
C 315.245432 266.421179 316.718696 262.864406 316.718696 259.156255 
C 316.718696 255.448104 315.245432 251.891331 312.623374 249.269272 
C 310.001315 246.647214 306.444542 245.17395 302.736391 245.17395 
C 299.02824 245.17395 295.471467 246.647214 292.849408 249.269272 
C 290.22735 251.891331 288.754086 255.448104 288.754086 259.156255 
C 288.754086 262.864406 290.22735 266.421179 292.849408 269.043238 
C 295.471467 271.665297 299.02824 273.13856 302.736391 273.13856 
z
" style="fill:#0000ff;opacity:0.2;stroke:#0000ff;stroke-linejoin:miter;"/>
   </g>
   <g id="patch_34">
    <path clip-path="url(#pe3e5231620)" d="M 328.065323 244.89591 
C 331.207898 244.89591 334.222184 243.647352 336.44432 241.425216 
C 338.666456 239.20308 339.915015 236.188793 339.915015 233.046219 
C 339.915015 229.903644 338.666456 226.889358 336.44432 224.667222 
C 334.222184 222.445086 331.207898 221.196527 328.065323 221.196527 
C 324.922749 221.196527 321.908462 222.445086 319.686326 224.667222 
C 317.46419 226.889358 316.215632 229.903644 316.215632 233.046219 
C 316.215632 236.188793 317.46419 239.20308 319.686326 241.425216 
C 321.908462 243.647352 324.922749 244.89591 328.065323 244.89591 
z
" style="fill:#0000ff;opacity:0.2;stroke:#0000ff;stroke-linejoin:miter;"/>
   </g>
   <g id="patch_35">
    <path clip-path="url(#pe3e5231620)" d="M 352.241918 221.308316 
C 355.677361 221.308316 358.972559 219.9434 361.401784 217.514175 
C 363.831009 215.08495 365.195925 211.789752 365.195925 208.354309 
C 365.195925 204.918866 363.831009 201.623667 361.401784 199.194442 
C 358.972559 196.765217 355.677361 195.400301 352.241918 195.400301 
C 348.806475 195.400301 345.511276 196.765217 343.082051 199.194442 
C 340.652826 201.623667 339.28791 204.918866 339.28791 208.354309 
C 339.28791 211.789752 340.652826 215.08495 343.082051 217.514175 
C 345.511276 219.9434 348.806475 221.308316 352.241918 221.308316 
z
" style="fill:#0000ff;opacity:0.2;stroke:#0000ff;stroke-linejoin:miter;"/>
   </g>
   <g id="patch_36">
    <path clip-path="url(#pe3e5231620)" d="M 356.323979 223.83139 
C 359.327665 223.83139 362.208732 222.638013 364.332658 220.514087 
C 366.456585 218.39016 367.649962 215.509093 367.649962 212.505407 
C 367.649962 209.501722 366.456585 206.620655 364.332658 204.496728 
C 362.208732 202.372801 359.327665 201.179424 356.323979 201.179424 
C 353.320293 201.179424 350.439226 202.372801 348.3153 204.496728 
C 346.191373 206.620655 344.997996 209.501722 344.997996 212.505407 
C 344.997996 215.509093 346.191373 218.39016 348.3153 220.514087 
C 350.439226 222.638013 353.320293 223.83139 356.323979 223.83139 
z
" style="fill:#0000ff;opacity:0.2;stroke:#0000ff;stroke-linejoin:miter;"/>
   </g>
   <g id="patch_37">
    <path clip-path="url(#pe3e5231620)" d="M 386.109754 190.770607 
C 389.41543 190.770607 392.586159 189.457248 394.923625 187.119782 
C 397.261091 184.782316 398.57445 181.611587 398.57445 178.305911 
C 398.57445 175.000235 397.261091 171.829506 394.923625 169.49204 
C 392.586159 167.154574 389.41543 165.841215 386.109754 165.841215 
C 382.804078 165.841215 379.633349 167.154574 377.295883 169.49204 
C 374.958417 171.829506 373.645058 175.000235 373.645058 178.305911 
C 373.645058 181.611587 374.958417 184.782316 377.295883 187.119782 
C 379.633349 189.457248 382.804078 190.770607 386.109754 190.770607 
z
" style="fill:#0000ff;opacity:0.2;stroke:#0000ff;stroke-linejoin:miter;"/>
   </g>
   <g id="patch_38">
    <path clip-path="url(#pe3e5231620)" d="M 394.126005 184.504155 
C 397.071163 184.504155 399.896092 183.334032 401.978633 181.251491 
C 404.061174 179.168949 405.231298 176.344021 405.231298 173.398863 
C 405.231298 170.453705 404.061174 167.628776 401.978633 165.546235 
C 399.896092 163.463694 397.071163 162.29357 394.126005 162.29357 
C 391.180847 162.29357 388.355919 163.463694 386.273377 165.546235 
C 384.190836 167.628776 383.020713 170.453705 383.020713 173.398863 
C 383.020713 176.344021 384.190836 179.168949 386.273377 181.251491 
C 388.355919 183.334032 391.180847 184.504155 394.126005 184.504155 
z
" style="fill:#0000ff;opacity:0.2;stroke:#0000ff;stroke-linejoin:miter;"/>
   </g>
   <g id="patch_39">
    <path clip-path="url(#pe3e5231620)" d="M 404.162341 164.554409 
C 407.420473 164.554409 410.5456 163.25994 412.849448 160.956092 
C 415.153295 158.652244 416.447765 155.527118 416.447765 152.268985 
C 416.447765 149.010853 415.153295 145.885726 412.849448 143.581879 
C 410.5456 141.278031 407.420473 139.983561 404.162341 139.983561 
C 400.904208 139.983561 397.779082 141.278031 395.475234 143.581879 
C 393.171387 145.885726 391.876917 149.010853 391.876917 152.268985 
C 391.876917 155.527118 393.171387 158.652244 395.475234 160.956092 
C 397.779082 163.25994 400.904208 164.554409 404.162341 164.554409 
z
" style="fill:#0000ff;opacity:0.2;stroke:#0000ff;stroke-linejoin:miter;"/>
   </g>
   <g id="patch_40">
    <path clip-path="url(#pe3e5231620)" d="M 435.956479 167.221489 
C 438.883934 167.221489 441.691881 166.058399 443.761904 163.988376 
C 445.831927 161.918353 446.995017 159.110406 446.995017 156.182951 
C 446.995017 153.255497 445.831927 150.447549 443.761904 148.377527 
C 441.691881 146.307504 438.883934 145.144414 435.956479 145.144414 
C 433.029025 145.144414 430.221077 146.307504 428.151055 148.377527 
C 426.081032 150.447549 424.917942 153.255497 424.917942 156.182951 
C 424.917942 159.110406 426.081032 161.918353 428.151055 163.988376 
C 430.221077 166.058399 433.029025 167.221489 435.956479 167.221489 
z
" style="fill:#0000ff;opacity:0.2;stroke:#0000ff;stroke-linejoin:miter;"/>
   </g>
   <g id="patch_41">
    <path clip-path="url(#pe3e5231620)" d="M 453.211156 157.989364 
C 456.457585 157.989364 459.571485 156.699544 461.867056 154.403973 
C 464.162627 152.108401 465.452447 148.994501 465.452447 145.748073 
C 465.452447 142.501645 464.162627 139.387745 461.867056 137.092173 
C 459.571485 134.796602 456.457585 133.506782 453.211156 133.506782 
C 449.964728 133.506782 446.850828 134.796602 444.555257 137.092173 
C 442.259685 139.387745 440.969866 142.501645 440.969866 145.748073 
C 440.969866 148.994501 442.259685 152.108401 444.555257 154.403973 
C 446.850828 156.699544 449.964728 157.989364 453.211156 157.989364 
z
" style="fill:#0000ff;opacity:0.2;stroke:#0000ff;stroke-linejoin:miter;"/>
   </g>
   <g id="patch_42">
    <path clip-path="url(#pe3e5231620)" d="M 489.764365 141.941552 
C 492.688822 141.941552 495.493896 140.779653 497.5618 138.711749 
C 499.629704 136.643845 500.791603 133.838771 500.791603 130.914314 
C 500.791603 127.989856 499.629704 125.184782 497.5618 123.116879 
C 495.493896 121.048975 492.688822 119.887075 489.764365 119.887075 
C 486.839907 119.887075 484.034834 121.048975 481.96693 123.116879 
C 479.899026 125.184782 478.737126 127.989856 478.737126 130.914314 
C 478.737126 133.838771 479.899026 136.643845 481.96693 138.711749 
C 484.034834 140.779653 486.839907 141.941552 489.764365 141.941552 
z
" style="fill:#0000ff;opacity:0.2;stroke:#0000ff;stroke-linejoin:miter;"/>
   </g>
   <g id="patch_43">
    <path clip-path="url(#pe3e5231620)" d="M 520.904359 130.785706 
C 524.149623 130.785706 527.262407 129.496349 529.557155 127.201601 
C 531.851904 124.906852 533.141261 121.794068 533.141261 118.548804 
C 533.141261 115.303539 531.851904 112.190756 529.557155 109.896007 
C 527.262407 107.601259 524.149623 106.311901 520.904359 106.311901 
C 517.659094 106.311901 514.54631 107.601259 512.251562 109.896007 
C 509.956813 112.190756 508.667456 115.303539 508.667456 118.548804 
C 508.667456 121.794068 509.956813 124.906852 512.251562 127.201601 
C 514.54631 129.496349 517.659094 130.785706 520.904359 130.785706 
z
" style="fill:#0000ff;opacity:0.2;stroke:#0000ff;stroke-linejoin:miter;"/>
   </g>
   <g id="patch_44">
    <path clip-path="url(#pe3e5231620)" d="M 549.772722 99.854279 
C 552.697219 99.854279 555.50233 98.692364 557.570261 96.624432 
C 559.638193 94.556501 560.800108 91.75139 560.800108 88.826892 
C 560.800108 85.902395 559.638193 83.097284 557.570261 81.029353 
C 555.50233 78.961421 552.697219 77.799506 549.772722 77.799506 
C 546.848225 77.799506 544.043114 78.961421 541.975182 81.029353 
C 539.90725 83.097284 538.745335 85.902395 538.745335 88.826892 
C 538.745335 91.75139 539.90725 94.556501 541.975182 96.624432 
C 544.043114 98.692364 546.848225 99.854279 549.772722 99.854279 
z
" style="fill:#0000ff;opacity:0.2;stroke:#0000ff;stroke-linejoin:miter;"/>
   </g>
   <g id="patch_45">
    <path clip-path="url(#pe3e5231620)" d="M 576.437152 92.237545 
C 579.682558 92.237545 582.795478 90.948131 585.090326 88.653283 
C 587.385175 86.358434 588.674588 83.245515 588.674588 80.000109 
C 588.674588 76.754703 587.385175 73.641784 585.090326 71.346935 
C 582.795478 69.052087 579.682558 67.762673 576.437152 67.762673 
C 573.191747 67.762673 570.078827 69.052087 567.783979 71.346935 
C 565.48913 73.641784 564.199717 76.754703 564.199717 80.000109 
C 564.199717 83.245515 565.48913 86.358434 567.783979 88.653283 
C 570.078827 90.948131 573.191747 92.237545 576.437152 92.237545 
z
" style="fill:#0000ff;opacity:0.2;stroke:#0000ff;stroke-linejoin:miter;"/>
   </g>
   <g id="patch_46">
    <path clip-path="url(#pe3e5231620)" d="M 598.651221 82.12222 
C 601.575652 82.12222 604.380699 80.960331 606.448584 78.892446 
C 608.516469 76.824561 609.678357 74.019514 609.678357 71.095083 
C 609.678357 68.170652 608.516469 65.365605 606.448584 63.29772 
C 604.380699 61.229835 601.575652 60.067947 598.651221 60.067947 
C 595.72679 60.067947 592.921743 61.229835 590.853858 63.29772 
C 588.785973 65.365605 587.624084 68.170652 587.624084 71.095083 
C 587.624084 74.019514 588.785973 76.824561 590.853858 78.892446 
C 592.921743 80.960331 595.72679 82.12222 598.651221 82.12222 
z
" style="fill:#0000ff;opacity:0.2;stroke:#0000ff;stroke-linejoin:miter;"/>
   </g>
   <g id="matplotlib.axis_1">
    <g id="xtick_1">
     <g id="line2d_1">
      <defs>
       <path d="M 0 0 
L 0 3.5 
" id="m142ede4f66" style="stroke:#000000;stroke-width:0.8;"/>
      </defs>
      <g>
       <use style="stroke:#000000;stroke-width:0.8;" x="82.619363" xlink:href="#m142ede4f66" y="390.04"/>
      </g>
     </g>
     <g id="text_1">
      <!-- −5 -->
      <g transform="translate(75.248269 404.638438)scale(0.1 -0.1)">
       <defs>
        <path d="M 10.59375 35.5 
L 73.1875 35.5 
L 73.1875 27.203125 
L 10.59375 27.203125 
z
" id="DejaVuSans-8722"/>
        <path d="M 10.796875 72.90625 
L 49.515625 72.90625 
L 49.515625 64.59375 
L 19.828125 64.59375 
L 19.828125 46.734375 
Q 21.96875 47.46875 24.109375 47.828125 
Q 26.265625 48.1875 28.421875 48.1875 
Q 40.625 48.1875 47.75 41.5 
Q 54.890625 34.8125 54.890625 23.390625 
Q 54.890625 11.625 47.5625 5.09375 
Q 40.234375 -1.421875 26.90625 -1.421875 
Q 22.3125 -1.421875 17.546875 -0.640625 
Q 12.796875 0.140625 7.71875 1.703125 
L 7.71875 11.625 
Q 12.109375 9.234375 16.796875 8.0625 
Q 21.484375 6.890625 26.703125 6.890625 
Q 35.15625 6.890625 40.078125 11.328125 
Q 45.015625 15.765625 45.015625 23.390625 
Q 45.015625 31 40.078125 35.4375 
Q 35.15625 39.890625 26.703125 39.890625 
Q 22.75 39.890625 18.8125 39.015625 
Q 14.890625 38.140625 10.796875 36.28125 
z
" id="DejaVuSans-53"/>
       </defs>
       <use xlink:href="#DejaVuSans-8722"/>
       <use x="83.789062" xlink:href="#DejaVuSans-53"/>
      </g>
     </g>
    </g>
    <g id="xtick_2">
     <g id="line2d_2">
      <g>
       <use style="stroke:#000000;stroke-width:0.8;" x="162.357832" xlink:href="#m142ede4f66" y="390.04"/>
      </g>
     </g>
     <g id="text_2">
      <!-- 0 -->
      <g transform="translate(159.176582 404.638438)scale(0.1 -0.1)">
       <defs>
        <path d="M 31.78125 66.40625 
Q 24.171875 66.40625 20.328125 58.90625 
Q 16.5 51.421875 16.5 36.375 
Q 16.5 21.390625 20.328125 13.890625 
Q 24.171875 6.390625 31.78125 6.390625 
Q 39.453125 6.390625 43.28125 13.890625 
Q 47.125 21.390625 47.125 36.375 
Q 47.125 51.421875 43.28125 58.90625 
Q 39.453125 66.40625 31.78125 66.40625 
z
M 31.78125 74.21875 
Q 44.046875 74.21875 50.515625 64.515625 
Q 56.984375 54.828125 56.984375 36.375 
Q 56.984375 17.96875 50.515625 8.265625 
Q 44.046875 -1.421875 31.78125 -1.421875 
Q 19.53125 -1.421875 13.0625 8.265625 
Q 6.59375 17.96875 6.59375 36.375 
Q 6.59375 54.828125 13.0625 64.515625 
Q 19.53125 74.21875 31.78125 74.21875 
z
" id="DejaVuSans-48"/>
       </defs>
       <use xlink:href="#DejaVuSans-48"/>
      </g>
     </g>
    </g>
    <g id="xtick_3">
     <g id="line2d_3">
      <g>
       <use style="stroke:#000000;stroke-width:0.8;" x="242.096302" xlink:href="#m142ede4f66" y="390.04"/>
      </g>
     </g>
     <g id="text_3">
      <!-- 5 -->
      <g transform="translate(238.915052 404.638438)scale(0.1 -0.1)">
       <use xlink:href="#DejaVuSans-53"/>
      </g>
     </g>
    </g>
    <g id="xtick_4">
     <g id="line2d_4">
      <g>
       <use style="stroke:#000000;stroke-width:0.8;" x="321.834771" xlink:href="#m142ede4f66" y="390.04"/>
      </g>
     </g>
     <g id="text_4">
      <!-- 10 -->
      <g transform="translate(315.472271 404.638438)scale(0.1 -0.1)">
       <defs>
        <path d="M 12.40625 8.296875 
L 28.515625 8.296875 
L 28.515625 63.921875 
L 10.984375 60.40625 
L 10.984375 69.390625 
L 28.421875 72.90625 
L 38.28125 72.90625 
L 38.28125 8.296875 
L 54.390625 8.296875 
L 54.390625 0 
L 12.40625 0 
z
" id="DejaVuSans-49"/>
       </defs>
       <use xlink:href="#DejaVuSans-49"/>
       <use x="63.623047" xlink:href="#DejaVuSans-48"/>
      </g>
     </g>
    </g>
    <g id="xtick_5">
     <g id="line2d_5">
      <g>
       <use style="stroke:#000000;stroke-width:0.8;" x="401.57324" xlink:href="#m142ede4f66" y="390.04"/>
      </g>
     </g>
     <g id="text_5">
      <!-- 15 -->
      <g transform="translate(395.21074 404.638438)scale(0.1 -0.1)">
       <use xlink:href="#DejaVuSans-49"/>
       <use x="63.623047" xlink:href="#DejaVuSans-53"/>
      </g>
     </g>
    </g>
    <g id="xtick_6">
     <g id="line2d_6">
      <g>
       <use style="stroke:#000000;stroke-width:0.8;" x="481.311709" xlink:href="#m142ede4f66" y="390.04"/>
      </g>
     </g>
     <g id="text_6">
      <!-- 20 -->
      <g transform="translate(474.949209 404.638438)scale(0.1 -0.1)">
       <defs>
        <path d="M 19.1875 8.296875 
L 53.609375 8.296875 
L 53.609375 0 
L 7.328125 0 
L 7.328125 8.296875 
Q 12.9375 14.109375 22.625 23.890625 
Q 32.328125 33.6875 34.8125 36.53125 
Q 39.546875 41.84375 41.421875 45.53125 
Q 43.3125 49.21875 43.3125 52.78125 
Q 43.3125 58.59375 39.234375 62.25 
Q 35.15625 65.921875 28.609375 65.921875 
Q 23.96875 65.921875 18.8125 64.3125 
Q 13.671875 62.703125 7.8125 59.421875 
L 7.8125 69.390625 
Q 13.765625 71.78125 18.9375 73 
Q 24.125 74.21875 28.421875 74.21875 
Q 39.75 74.21875 46.484375 68.546875 
Q 53.21875 62.890625 53.21875 53.421875 
Q 53.21875 48.921875 51.53125 44.890625 
Q 49.859375 40.875 45.40625 35.40625 
Q 44.1875 33.984375 37.640625 27.21875 
Q 31.109375 20.453125 19.1875 8.296875 
z
" id="DejaVuSans-50"/>
       </defs>
       <use xlink:href="#DejaVuSans-50"/>
       <use x="63.623047" xlink:href="#DejaVuSans-48"/>
      </g>
     </g>
    </g>
    <g id="xtick_7">
     <g id="line2d_7">
      <g>
       <use style="stroke:#000000;stroke-width:0.8;" x="561.050178" xlink:href="#m142ede4f66" y="390.04"/>
      </g>
     </g>
     <g id="text_7">
      <!-- 25 -->
      <g transform="translate(554.687678 404.638438)scale(0.1 -0.1)">
       <use xlink:href="#DejaVuSans-50"/>
       <use x="63.623047" xlink:href="#DejaVuSans-53"/>
      </g>
     </g>
    </g>
    <g id="xtick_8">
     <g id="line2d_8">
      <g>
       <use style="stroke:#000000;stroke-width:0.8;" x="640.788648" xlink:href="#m142ede4f66" y="390.04"/>
      </g>
     </g>
     <g id="text_8">
      <!-- 30 -->
      <g transform="translate(634.426148 404.638438)scale(0.1 -0.1)">
       <defs>
        <path d="M 40.578125 39.3125 
Q 47.65625 37.796875 51.625 33 
Q 55.609375 28.21875 55.609375 21.1875 
Q 55.609375 10.40625 48.1875 4.484375 
Q 40.765625 -1.421875 27.09375 -1.421875 
Q 22.515625 -1.421875 17.65625 -0.515625 
Q 12.796875 0.390625 7.625 2.203125 
L 7.625 11.71875 
Q 11.71875 9.328125 16.59375 8.109375 
Q 21.484375 6.890625 26.8125 6.890625 
Q 36.078125 6.890625 40.9375 10.546875 
Q 45.796875 14.203125 45.796875 21.1875 
Q 45.796875 27.640625 41.28125 31.265625 
Q 36.765625 34.90625 28.71875 34.90625 
L 20.21875 34.90625 
L 20.21875 43.015625 
L 29.109375 43.015625 
Q 36.375 43.015625 40.234375 45.921875 
Q 44.09375 48.828125 44.09375 54.296875 
Q 44.09375 59.90625 40.109375 62.90625 
Q 36.140625 65.921875 28.71875 65.921875 
Q 24.65625 65.921875 20.015625 65.03125 
Q 15.375 64.15625 9.8125 62.3125 
L 9.8125 71.09375 
Q 15.4375 72.65625 20.34375 73.4375 
Q 25.25 74.21875 29.59375 74.21875 
Q 40.828125 74.21875 47.359375 69.109375 
Q 53.90625 64.015625 53.90625 55.328125 
Q 53.90625 49.265625 50.4375 45.09375 
Q 46.96875 40.921875 40.578125 39.3125 
z
" id="DejaVuSans-51"/>
       </defs>
       <use xlink:href="#DejaVuSans-51"/>
       <use x="63.623047" xlink:href="#DejaVuSans-48"/>
      </g>
     </g>
    </g>
    <g id="text_9">
     <!-- $x$ -->
     <g transform="translate(374.245 418.316562)scale(0.1 -0.1)">
      <defs>
       <path d="M 60.015625 54.6875 
L 34.90625 27.875 
L 50.296875 0 
L 39.984375 0 
L 28.421875 21.6875 
L 8.296875 0 
L -2.59375 0 
L 24.3125 28.8125 
L 10.015625 54.6875 
L 20.3125 54.6875 
L 30.8125 34.90625 
L 49.125 54.6875 
z
" id="DejaVuSans-Oblique-120"/>
      </defs>
      <use transform="translate(0 0.3125)" xlink:href="#DejaVuSans-Oblique-120"/>
     </g>
    </g>
   </g>
   <g id="matplotlib.axis_2">
    <g id="ytick_1">
     <g id="line2d_9">
      <defs>
       <path d="M 0 0 
L -3.5 0 
" id="mb1fd68171f" style="stroke:#000000;stroke-width:0.8;"/>
      </defs>
      <g>
       <use style="stroke:#000000;stroke-width:0.8;" x="45.29" xlink:href="#mb1fd68171f" y="364.061089"/>
      </g>
     </g>
     <g id="text_10">
      <!-- 0 -->
      <g transform="translate(31.9275 367.860307)scale(0.1 -0.1)">
       <use xlink:href="#DejaVuSans-48"/>
      </g>
     </g>
    </g>
    <g id="ytick_2">
     <g id="line2d_10">
      <g>
       <use style="stroke:#000000;stroke-width:0.8;" x="45.29" xlink:href="#mb1fd68171f" y="284.322619"/>
      </g>
     </g>
     <g id="text_11">
      <!-- 5 -->
      <g transform="translate(31.9275 288.121838)scale(0.1 -0.1)">
       <use xlink:href="#DejaVuSans-53"/>
      </g>
     </g>
    </g>
    <g id="ytick_3">
     <g id="line2d_11">
      <g>
       <use style="stroke:#000000;stroke-width:0.8;" x="45.29" xlink:href="#mb1fd68171f" y="204.58415"/>
      </g>
     </g>
     <g id="text_12">
      <!-- 10 -->
      <g transform="translate(25.565 208.383369)scale(0.1 -0.1)">
       <use xlink:href="#DejaVuSans-49"/>
       <use x="63.623047" xlink:href="#DejaVuSans-48"/>
      </g>
     </g>
    </g>
    <g id="ytick_4">
     <g id="line2d_12">
      <g>
       <use style="stroke:#000000;stroke-width:0.8;" x="45.29" xlink:href="#mb1fd68171f" y="124.845681"/>
      </g>
     </g>
     <g id="text_13">
      <!-- 15 -->
      <g transform="translate(25.565 128.6449)scale(0.1 -0.1)">
       <use xlink:href="#DejaVuSans-49"/>
       <use x="63.623047" xlink:href="#DejaVuSans-53"/>
      </g>
     </g>
    </g>
    <g id="ytick_5">
     <g id="line2d_13">
      <g>
       <use style="stroke:#000000;stroke-width:0.8;" x="45.29" xlink:href="#mb1fd68171f" y="45.107212"/>
      </g>
     </g>
     <g id="text_14">
      <!-- 20 -->
      <g transform="translate(25.565 48.906431)scale(0.1 -0.1)">
       <use xlink:href="#DejaVuSans-50"/>
       <use x="63.623047" xlink:href="#DejaVuSans-48"/>
      </g>
     </g>
    </g>
    <g id="text_15">
     <!-- $y$ -->
     <g transform="translate(19.465 211.46)rotate(-90)scale(0.1 -0.1)">
      <defs>
       <path d="M 24.8125 -5.078125 
Q 18.5625 -15.578125 14.625 -18.1875 
Q 10.6875 -20.796875 4.59375 -20.796875 
L -2.484375 -20.796875 
L -0.984375 -13.28125 
L 4.203125 -13.28125 
Q 7.953125 -13.28125 10.59375 -11.234375 
Q 13.234375 -9.1875 16.5 -3.21875 
L 19.28125 2 
L 7.171875 54.6875 
L 16.703125 54.6875 
L 25.78125 12.796875 
L 50.875 54.6875 
L 60.296875 54.6875 
z
" id="DejaVuSans-Oblique-121"/>
      </defs>
      <use transform="translate(0 0.3125)" xlink:href="#DejaVuSans-Oblique-121"/>
     </g>
    </g>
   </g>
   <g id="line2d_14">
    <path clip-path="url(#pe3e5231620)" d="M 162.357832 364.061089 
L 178.109625 348.023114 
L 195.011834 332.094277 
L 212.832187 315.644086 
L 232.499621 299.202317 
L 254.265482 282.441605 
L 275.296239 267.085442 
L 296.052662 254.028246 
L 318.20036 238.555289 
L 340.401023 222.707329 
L 364.360694 207.408632 
L 386.852411 194.04862 
L 408.088827 181.560388 
L 430.001557 169.693067 
L 454.944235 156.725441 
L 480.863484 143.031778 
L 506.762951 128.680837 
L 530.13533 113.855529 
L 553.812485 97.505109 
L 579.057297 80.490754 
L 605.171697 64.302356 
" style="fill:none;stroke:#1f77b4;stroke-dasharray:5.55,2.4;stroke-dashoffset:0;stroke-width:1.5;"/>
   </g>
   <g id="patch_47">
    <path d="M 45.29 390.04 
L 45.29 26.88 
" style="fill:none;stroke:#000000;stroke-linecap:square;stroke-linejoin:miter;stroke-width:0.8;"/>
   </g>
   <g id="patch_48">
    <path d="M 709.2 390.04 
L 709.2 26.88 
" style="fill:none;stroke:#000000;stroke-linecap:square;stroke-linejoin:miter;stroke-width:0.8;"/>
   </g>
   <g id="patch_49">
    <path d="M 45.29 390.04 
L 709.2 390.04 
" style="fill:none;stroke:#000000;stroke-linecap:square;stroke-linejoin:miter;stroke-width:0.8;"/>
   </g>
   <g id="patch_50">
    <path d="M 45.29 26.88 
L 709.2 26.88 
" style="fill:none;stroke:#000000;stroke-linecap:square;stroke-linejoin:miter;stroke-width:0.8;"/>
   </g>
   <g id="text_16">
    <!-- Kalman filter tracking and fusion when AIS is viewed as a measurement -->
    <g transform="translate(161.46625 20.88)scale(0.12 -0.12)">
     <defs>
      <path d="M 9.8125 72.90625 
L 19.671875 72.90625 
L 19.671875 42.09375 
L 52.390625 72.90625 
L 65.09375 72.90625 
L 28.90625 38.921875 
L 67.671875 0 
L 54.6875 0 
L 19.671875 35.109375 
L 19.671875 0 
L 9.8125 0 
z
" id="DejaVuSans-75"/>
      <path d="M 34.28125 27.484375 
Q 23.390625 27.484375 19.1875 25 
Q 14.984375 22.515625 14.984375 16.5 
Q 14.984375 11.71875 18.140625 8.90625 
Q 21.296875 6.109375 26.703125 6.109375 
Q 34.1875 6.109375 38.703125 11.40625 
Q 43.21875 16.703125 43.21875 25.484375 
L 43.21875 27.484375 
z
M 52.203125 31.203125 
L 52.203125 0 
L 43.21875 0 
L 43.21875 8.296875 
Q 40.140625 3.328125 35.546875 0.953125 
Q 30.953125 -1.421875 24.3125 -1.421875 
Q 15.921875 -1.421875 10.953125 3.296875 
Q 6 8.015625 6 15.921875 
Q 6 25.140625 12.171875 29.828125 
Q 18.359375 34.515625 30.609375 34.515625 
L 43.21875 34.515625 
L 43.21875 35.40625 
Q 43.21875 41.609375 39.140625 45 
Q 35.0625 48.390625 27.6875 48.390625 
Q 23 48.390625 18.546875 47.265625 
Q 14.109375 46.140625 10.015625 43.890625 
L 10.015625 52.203125 
Q 14.9375 54.109375 19.578125 55.046875 
Q 24.21875 56 28.609375 56 
Q 40.484375 56 46.34375 49.84375 
Q 52.203125 43.703125 52.203125 31.203125 
z
" id="DejaVuSans-97"/>
      <path d="M 9.421875 75.984375 
L 18.40625 75.984375 
L 18.40625 0 
L 9.421875 0 
z
" id="DejaVuSans-108"/>
      <path d="M 52 44.1875 
Q 55.375 50.25 60.0625 53.125 
Q 64.75 56 71.09375 56 
Q 79.640625 56 84.28125 50.015625 
Q 88.921875 44.046875 88.921875 33.015625 
L 88.921875 0 
L 79.890625 0 
L 79.890625 32.71875 
Q 79.890625 40.578125 77.09375 44.375 
Q 74.3125 48.1875 68.609375 48.1875 
Q 61.625 48.1875 57.5625 43.546875 
Q 53.515625 38.921875 53.515625 30.90625 
L 53.515625 0 
L 44.484375 0 
L 44.484375 32.71875 
Q 44.484375 40.625 41.703125 44.40625 
Q 38.921875 48.1875 33.109375 48.1875 
Q 26.21875 48.1875 22.15625 43.53125 
Q 18.109375 38.875 18.109375 30.90625 
L 18.109375 0 
L 9.078125 0 
L 9.078125 54.6875 
L 18.109375 54.6875 
L 18.109375 46.1875 
Q 21.1875 51.21875 25.484375 53.609375 
Q 29.78125 56 35.6875 56 
Q 41.65625 56 45.828125 52.96875 
Q 50 49.953125 52 44.1875 
z
" id="DejaVuSans-109"/>
      <path d="M 54.890625 33.015625 
L 54.890625 0 
L 45.90625 0 
L 45.90625 32.71875 
Q 45.90625 40.484375 42.875 44.328125 
Q 39.84375 48.1875 33.796875 48.1875 
Q 26.515625 48.1875 22.3125 43.546875 
Q 18.109375 38.921875 18.109375 30.90625 
L 18.109375 0 
L 9.078125 0 
L 9.078125 54.6875 
L 18.109375 54.6875 
L 18.109375 46.1875 
Q 21.34375 51.125 25.703125 53.5625 
Q 30.078125 56 35.796875 56 
Q 45.21875 56 50.046875 50.171875 
Q 54.890625 44.34375 54.890625 33.015625 
z
" id="DejaVuSans-110"/>
      <path id="DejaVuSans-32"/>
      <path d="M 37.109375 75.984375 
L 37.109375 68.5 
L 28.515625 68.5 
Q 23.6875 68.5 21.796875 66.546875 
Q 19.921875 64.59375 19.921875 59.515625 
L 19.921875 54.6875 
L 34.71875 54.6875 
L 34.71875 47.703125 
L 19.921875 47.703125 
L 19.921875 0 
L 10.890625 0 
L 10.890625 47.703125 
L 2.296875 47.703125 
L 2.296875 54.6875 
L 10.890625 54.6875 
L 10.890625 58.5 
Q 10.890625 67.625 15.140625 71.796875 
Q 19.390625 75.984375 28.609375 75.984375 
z
" id="DejaVuSans-102"/>
      <path d="M 9.421875 54.6875 
L 18.40625 54.6875 
L 18.40625 0 
L 9.421875 0 
z
M 9.421875 75.984375 
L 18.40625 75.984375 
L 18.40625 64.59375 
L 9.421875 64.59375 
z
" id="DejaVuSans-105"/>
      <path d="M 18.3125 70.21875 
L 18.3125 54.6875 
L 36.8125 54.6875 
L 36.8125 47.703125 
L 18.3125 47.703125 
L 18.3125 18.015625 
Q 18.3125 11.328125 20.140625 9.421875 
Q 21.96875 7.515625 27.59375 7.515625 
L 36.8125 7.515625 
L 36.8125 0 
L 27.59375 0 
Q 17.1875 0 13.234375 3.875 
Q 9.28125 7.765625 9.28125 18.015625 
L 9.28125 47.703125 
L 2.6875 47.703125 
L 2.6875 54.6875 
L 9.28125 54.6875 
L 9.28125 70.21875 
z
" id="DejaVuSans-116"/>
      <path d="M 56.203125 29.59375 
L 56.203125 25.203125 
L 14.890625 25.203125 
Q 15.484375 15.921875 20.484375 11.0625 
Q 25.484375 6.203125 34.421875 6.203125 
Q 39.59375 6.203125 44.453125 7.46875 
Q 49.3125 8.734375 54.109375 11.28125 
L 54.109375 2.78125 
Q 49.265625 0.734375 44.1875 -0.34375 
Q 39.109375 -1.421875 33.890625 -1.421875 
Q 20.796875 -1.421875 13.15625 6.1875 
Q 5.515625 13.8125 5.515625 26.8125 
Q 5.515625 40.234375 12.765625 48.109375 
Q 20.015625 56 32.328125 56 
Q 43.359375 56 49.78125 48.890625 
Q 56.203125 41.796875 56.203125 29.59375 
z
M 47.21875 32.234375 
Q 47.125 39.59375 43.09375 43.984375 
Q 39.0625 48.390625 32.421875 48.390625 
Q 24.90625 48.390625 20.390625 44.140625 
Q 15.875 39.890625 15.1875 32.171875 
z
" id="DejaVuSans-101"/>
      <path d="M 41.109375 46.296875 
Q 39.59375 47.171875 37.8125 47.578125 
Q 36.03125 48 33.890625 48 
Q 26.265625 48 22.1875 43.046875 
Q 18.109375 38.09375 18.109375 28.8125 
L 18.109375 0 
L 9.078125 0 
L 9.078125 54.6875 
L 18.109375 54.6875 
L 18.109375 46.1875 
Q 20.953125 51.171875 25.484375 53.578125 
Q 30.03125 56 36.53125 56 
Q 37.453125 56 38.578125 55.875 
Q 39.703125 55.765625 41.0625 55.515625 
z
" id="DejaVuSans-114"/>
      <path d="M 48.78125 52.59375 
L 48.78125 44.1875 
Q 44.96875 46.296875 41.140625 47.34375 
Q 37.3125 48.390625 33.40625 48.390625 
Q 24.65625 48.390625 19.8125 42.84375 
Q 14.984375 37.3125 14.984375 27.296875 
Q 14.984375 17.28125 19.8125 11.734375 
Q 24.65625 6.203125 33.40625 6.203125 
Q 37.3125 6.203125 41.140625 7.25 
Q 44.96875 8.296875 48.78125 10.40625 
L 48.78125 2.09375 
Q 45.015625 0.34375 40.984375 -0.53125 
Q 36.96875 -1.421875 32.421875 -1.421875 
Q 20.0625 -1.421875 12.78125 6.34375 
Q 5.515625 14.109375 5.515625 27.296875 
Q 5.515625 40.671875 12.859375 48.328125 
Q 20.21875 56 33.015625 56 
Q 37.15625 56 41.109375 55.140625 
Q 45.0625 54.296875 48.78125 52.59375 
z
" id="DejaVuSans-99"/>
      <path d="M 9.078125 75.984375 
L 18.109375 75.984375 
L 18.109375 31.109375 
L 44.921875 54.6875 
L 56.390625 54.6875 
L 27.390625 29.109375 
L 57.625 0 
L 45.90625 0 
L 18.109375 26.703125 
L 18.109375 0 
L 9.078125 0 
z
" id="DejaVuSans-107"/>
      <path d="M 45.40625 27.984375 
Q 45.40625 37.75 41.375 43.109375 
Q 37.359375 48.484375 30.078125 48.484375 
Q 22.859375 48.484375 18.828125 43.109375 
Q 14.796875 37.75 14.796875 27.984375 
Q 14.796875 18.265625 18.828125 12.890625 
Q 22.859375 7.515625 30.078125 7.515625 
Q 37.359375 7.515625 41.375 12.890625 
Q 45.40625 18.265625 45.40625 27.984375 
z
M 54.390625 6.78125 
Q 54.390625 -7.171875 48.1875 -13.984375 
Q 42 -20.796875 29.203125 -20.796875 
Q 24.46875 -20.796875 20.265625 -20.09375 
Q 16.0625 -19.390625 12.109375 -17.921875 
L 12.109375 -9.1875 
Q 16.0625 -11.328125 19.921875 -12.34375 
Q 23.78125 -13.375 27.78125 -13.375 
Q 36.625 -13.375 41.015625 -8.765625 
Q 45.40625 -4.15625 45.40625 5.171875 
L 45.40625 9.625 
Q 42.625 4.78125 38.28125 2.390625 
Q 33.9375 0 27.875 0 
Q 17.828125 0 11.671875 7.65625 
Q 5.515625 15.328125 5.515625 27.984375 
Q 5.515625 40.671875 11.671875 48.328125 
Q 17.828125 56 27.875 56 
Q 33.9375 56 38.28125 53.609375 
Q 42.625 51.21875 45.40625 46.390625 
L 45.40625 54.6875 
L 54.390625 54.6875 
z
" id="DejaVuSans-103"/>
      <path d="M 45.40625 46.390625 
L 45.40625 75.984375 
L 54.390625 75.984375 
L 54.390625 0 
L 45.40625 0 
L 45.40625 8.203125 
Q 42.578125 3.328125 38.25 0.953125 
Q 33.9375 -1.421875 27.875 -1.421875 
Q 17.96875 -1.421875 11.734375 6.484375 
Q 5.515625 14.40625 5.515625 27.296875 
Q 5.515625 40.1875 11.734375 48.09375 
Q 17.96875 56 27.875 56 
Q 33.9375 56 38.25 53.625 
Q 42.578125 51.265625 45.40625 46.390625 
z
M 14.796875 27.296875 
Q 14.796875 17.390625 18.875 11.75 
Q 22.953125 6.109375 30.078125 6.109375 
Q 37.203125 6.109375 41.296875 11.75 
Q 45.40625 17.390625 45.40625 27.296875 
Q 45.40625 37.203125 41.296875 42.84375 
Q 37.203125 48.484375 30.078125 48.484375 
Q 22.953125 48.484375 18.875 42.84375 
Q 14.796875 37.203125 14.796875 27.296875 
z
" id="DejaVuSans-100"/>
      <path d="M 8.5 21.578125 
L 8.5 54.6875 
L 17.484375 54.6875 
L 17.484375 21.921875 
Q 17.484375 14.15625 20.5 10.265625 
Q 23.53125 6.390625 29.59375 6.390625 
Q 36.859375 6.390625 41.078125 11.03125 
Q 45.3125 15.671875 45.3125 23.6875 
L 45.3125 54.6875 
L 54.296875 54.6875 
L 54.296875 0 
L 45.3125 0 
L 45.3125 8.40625 
Q 42.046875 3.421875 37.71875 1 
Q 33.40625 -1.421875 27.6875 -1.421875 
Q 18.265625 -1.421875 13.375 4.4375 
Q 8.5 10.296875 8.5 21.578125 
z
M 31.109375 56 
z
" id="DejaVuSans-117"/>
      <path d="M 44.28125 53.078125 
L 44.28125 44.578125 
Q 40.484375 46.53125 36.375 47.5 
Q 32.28125 48.484375 27.875 48.484375 
Q 21.1875 48.484375 17.84375 46.4375 
Q 14.5 44.390625 14.5 40.28125 
Q 14.5 37.15625 16.890625 35.375 
Q 19.28125 33.59375 26.515625 31.984375 
L 29.59375 31.296875 
Q 39.15625 29.25 43.1875 25.515625 
Q 47.21875 21.78125 47.21875 15.09375 
Q 47.21875 7.46875 41.1875 3.015625 
Q 35.15625 -1.421875 24.609375 -1.421875 
Q 20.21875 -1.421875 15.453125 -0.5625 
Q 10.6875 0.296875 5.421875 2 
L 5.421875 11.28125 
Q 10.40625 8.6875 15.234375 7.390625 
Q 20.0625 6.109375 24.8125 6.109375 
Q 31.15625 6.109375 34.5625 8.28125 
Q 37.984375 10.453125 37.984375 14.40625 
Q 37.984375 18.0625 35.515625 20.015625 
Q 33.0625 21.96875 24.703125 23.78125 
L 21.578125 24.515625 
Q 13.234375 26.265625 9.515625 29.90625 
Q 5.8125 33.546875 5.8125 39.890625 
Q 5.8125 47.609375 11.28125 51.796875 
Q 16.75 56 26.8125 56 
Q 31.78125 56 36.171875 55.265625 
Q 40.578125 54.546875 44.28125 53.078125 
z
" id="DejaVuSans-115"/>
      <path d="M 30.609375 48.390625 
Q 23.390625 48.390625 19.1875 42.75 
Q 14.984375 37.109375 14.984375 27.296875 
Q 14.984375 17.484375 19.15625 11.84375 
Q 23.34375 6.203125 30.609375 6.203125 
Q 37.796875 6.203125 41.984375 11.859375 
Q 46.1875 17.53125 46.1875 27.296875 
Q 46.1875 37.015625 41.984375 42.703125 
Q 37.796875 48.390625 30.609375 48.390625 
z
M 30.609375 56 
Q 42.328125 56 49.015625 48.375 
Q 55.71875 40.765625 55.71875 27.296875 
Q 55.71875 13.875 49.015625 6.21875 
Q 42.328125 -1.421875 30.609375 -1.421875 
Q 18.84375 -1.421875 12.171875 6.21875 
Q 5.515625 13.875 5.515625 27.296875 
Q 5.515625 40.765625 12.171875 48.375 
Q 18.84375 56 30.609375 56 
z
" id="DejaVuSans-111"/>
      <path d="M 4.203125 54.6875 
L 13.1875 54.6875 
L 24.421875 12.015625 
L 35.59375 54.6875 
L 46.1875 54.6875 
L 57.421875 12.015625 
L 68.609375 54.6875 
L 77.59375 54.6875 
L 63.28125 0 
L 52.6875 0 
L 40.921875 44.828125 
L 29.109375 0 
L 18.5 0 
z
" id="DejaVuSans-119"/>
      <path d="M 54.890625 33.015625 
L 54.890625 0 
L 45.90625 0 
L 45.90625 32.71875 
Q 45.90625 40.484375 42.875 44.328125 
Q 39.84375 48.1875 33.796875 48.1875 
Q 26.515625 48.1875 22.3125 43.546875 
Q 18.109375 38.921875 18.109375 30.90625 
L 18.109375 0 
L 9.078125 0 
L 9.078125 75.984375 
L 18.109375 75.984375 
L 18.109375 46.1875 
Q 21.34375 51.125 25.703125 53.5625 
Q 30.078125 56 35.796875 56 
Q 45.21875 56 50.046875 50.171875 
Q 54.890625 44.34375 54.890625 33.015625 
z
" id="DejaVuSans-104"/>
      <path d="M 34.1875 63.1875 
L 20.796875 26.90625 
L 47.609375 26.90625 
z
M 28.609375 72.90625 
L 39.796875 72.90625 
L 67.578125 0 
L 57.328125 0 
L 50.6875 18.703125 
L 17.828125 18.703125 
L 11.1875 0 
L 0.78125 0 
z
" id="DejaVuSans-65"/>
      <path d="M 9.8125 72.90625 
L 19.671875 72.90625 
L 19.671875 0 
L 9.8125 0 
z
" id="DejaVuSans-73"/>
      <path d="M 53.515625 70.515625 
L 53.515625 60.890625 
Q 47.90625 63.578125 42.921875 64.890625 
Q 37.9375 66.21875 33.296875 66.21875 
Q 25.25 66.21875 20.875 63.09375 
Q 16.5 59.96875 16.5 54.203125 
Q 16.5 49.359375 19.40625 46.890625 
Q 22.3125 44.4375 30.421875 42.921875 
L 36.375 41.703125 
Q 47.40625 39.59375 52.65625 34.296875 
Q 57.90625 29 57.90625 20.125 
Q 57.90625 9.515625 50.796875 4.046875 
Q 43.703125 -1.421875 29.984375 -1.421875 
Q 24.8125 -1.421875 18.96875 -0.25 
Q 13.140625 0.921875 6.890625 3.21875 
L 6.890625 13.375 
Q 12.890625 10.015625 18.65625 8.296875 
Q 24.421875 6.59375 29.984375 6.59375 
Q 38.421875 6.59375 43.015625 9.90625 
Q 47.609375 13.234375 47.609375 19.390625 
Q 47.609375 24.75 44.3125 27.78125 
Q 41.015625 30.8125 33.5 32.328125 
L 27.484375 33.5 
Q 16.453125 35.6875 11.515625 40.375 
Q 6.59375 45.0625 6.59375 53.421875 
Q 6.59375 63.09375 13.40625 68.65625 
Q 20.21875 74.21875 32.171875 74.21875 
Q 37.3125 74.21875 42.625 73.28125 
Q 47.953125 72.359375 53.515625 70.515625 
z
" id="DejaVuSans-83"/>
      <path d="M 2.984375 54.6875 
L 12.5 54.6875 
L 29.59375 8.796875 
L 46.6875 54.6875 
L 56.203125 54.6875 
L 35.6875 0 
L 23.484375 0 
z
" id="DejaVuSans-118"/>
     </defs>
     <use xlink:href="#DejaVuSans-75"/>
     <use x="63.826172" xlink:href="#DejaVuSans-97"/>
     <use x="125.105469" xlink:href="#DejaVuSans-108"/>
     <use x="152.888672" xlink:href="#DejaVuSans-109"/>
     <use x="250.300781" xlink:href="#DejaVuSans-97"/>
     <use x="311.580078" xlink:href="#DejaVuSans-110"/>
     <use x="374.958984" xlink:href="#DejaVuSans-32"/>
     <use x="406.746094" xlink:href="#DejaVuSans-102"/>
     <use x="441.951172" xlink:href="#DejaVuSans-105"/>
     <use x="469.734375" xlink:href="#DejaVuSans-108"/>
     <use x="497.517578" xlink:href="#DejaVuSans-116"/>
     <use x="536.726562" xlink:href="#DejaVuSans-101"/>
     <use x="598.25" xlink:href="#DejaVuSans-114"/>
     <use x="639.363281" xlink:href="#DejaVuSans-32"/>
     <use x="671.150391" xlink:href="#DejaVuSans-116"/>
     <use x="710.359375" xlink:href="#DejaVuSans-114"/>
     <use x="751.472656" xlink:href="#DejaVuSans-97"/>
     <use x="812.751953" xlink:href="#DejaVuSans-99"/>
     <use x="867.732422" xlink:href="#DejaVuSans-107"/>
     <use x="925.642578" xlink:href="#DejaVuSans-105"/>
     <use x="953.425781" xlink:href="#DejaVuSans-110"/>
     <use x="1016.804688" xlink:href="#DejaVuSans-103"/>
     <use x="1080.28125" xlink:href="#DejaVuSans-32"/>
     <use x="1112.068359" xlink:href="#DejaVuSans-97"/>
     <use x="1173.347656" xlink:href="#DejaVuSans-110"/>
     <use x="1236.726562" xlink:href="#DejaVuSans-100"/>
     <use x="1300.203125" xlink:href="#DejaVuSans-32"/>
     <use x="1331.990234" xlink:href="#DejaVuSans-102"/>
     <use x="1367.195312" xlink:href="#DejaVuSans-117"/>
     <use x="1430.574219" xlink:href="#DejaVuSans-115"/>
     <use x="1482.673828" xlink:href="#DejaVuSans-105"/>
     <use x="1510.457031" xlink:href="#DejaVuSans-111"/>
     <use x="1571.638672" xlink:href="#DejaVuSans-110"/>
     <use x="1635.017578" xlink:href="#DejaVuSans-32"/>
     <use x="1666.804688" xlink:href="#DejaVuSans-119"/>
     <use x="1748.591797" xlink:href="#DejaVuSans-104"/>
     <use x="1811.970703" xlink:href="#DejaVuSans-101"/>
     <use x="1873.494141" xlink:href="#DejaVuSans-110"/>
     <use x="1936.873047" xlink:href="#DejaVuSans-32"/>
     <use x="1968.660156" xlink:href="#DejaVuSans-65"/>
     <use x="2037.068359" xlink:href="#DejaVuSans-73"/>
     <use x="2066.560547" xlink:href="#DejaVuSans-83"/>
     <use x="2130.037109" xlink:href="#DejaVuSans-32"/>
     <use x="2161.824219" xlink:href="#DejaVuSans-105"/>
     <use x="2189.607422" xlink:href="#DejaVuSans-115"/>
     <use x="2241.707031" xlink:href="#DejaVuSans-32"/>
     <use x="2273.494141" xlink:href="#DejaVuSans-118"/>
     <use x="2332.673828" xlink:href="#DejaVuSans-105"/>
     <use x="2360.457031" xlink:href="#DejaVuSans-101"/>
     <use x="2421.980469" xlink:href="#DejaVuSans-119"/>
     <use x="2503.767578" xlink:href="#DejaVuSans-101"/>
     <use x="2565.291016" xlink:href="#DejaVuSans-100"/>
     <use x="2628.767578" xlink:href="#DejaVuSans-32"/>
     <use x="2660.554688" xlink:href="#DejaVuSans-97"/>
     <use x="2721.833984" xlink:href="#DejaVuSans-115"/>
     <use x="2773.933594" xlink:href="#DejaVuSans-32"/>
     <use x="2805.720703" xlink:href="#DejaVuSans-97"/>
     <use x="2867" xlink:href="#DejaVuSans-32"/>
     <use x="2898.787109" xlink:href="#DejaVuSans-109"/>
     <use x="2996.199219" xlink:href="#DejaVuSans-101"/>
     <use x="3057.722656" xlink:href="#DejaVuSans-97"/>
     <use x="3119.001953" xlink:href="#DejaVuSans-115"/>
     <use x="3171.101562" xlink:href="#DejaVuSans-117"/>
     <use x="3234.480469" xlink:href="#DejaVuSans-114"/>
     <use x="3273.34375" xlink:href="#DejaVuSans-101"/>
     <use x="3334.867188" xlink:href="#DejaVuSans-109"/>
     <use x="3432.279297" xlink:href="#DejaVuSans-101"/>
     <use x="3493.802734" xlink:href="#DejaVuSans-110"/>
     <use x="3557.181641" xlink:href="#DejaVuSans-116"/>
    </g>
   </g>
   <g id="legend_1">
    <g id="patch_51">
     <path d="M 52.29 108.270625 
L 190.763437 108.270625 
Q 192.763437 108.270625 192.763437 106.270625 
L 192.763437 33.88 
Q 192.763437 31.88 190.763437 31.88 
L 52.29 31.88 
Q 50.29 31.88 50.29 33.88 
L 50.29 106.270625 
Q 50.29 108.270625 52.29 108.270625 
z
" style="fill:#ffffff;opacity:0.8;stroke:#cccccc;stroke-linejoin:miter;"/>
    </g>
    <g id="line2d_15">
     <path d="M 54.29 39.978437 
L 74.29 39.978437 
" style="fill:none;stroke:#1f77b4;stroke-dasharray:5.55,2.4;stroke-dashoffset:0;stroke-width:1.5;"/>
    </g>
    <g id="line2d_16"/>
    <g id="text_17">
     <!-- Ground truth -->
     <g transform="translate(82.29 43.478437)scale(0.1 -0.1)">
      <defs>
       <path d="M 59.515625 10.40625 
L 59.515625 29.984375 
L 43.40625 29.984375 
L 43.40625 38.09375 
L 69.28125 38.09375 
L 69.28125 6.78125 
Q 63.578125 2.734375 56.6875 0.65625 
Q 49.8125 -1.421875 42 -1.421875 
Q 24.90625 -1.421875 15.25 8.5625 
Q 5.609375 18.5625 5.609375 36.375 
Q 5.609375 54.25 15.25 64.234375 
Q 24.90625 74.21875 42 74.21875 
Q 49.125 74.21875 55.546875 72.453125 
Q 61.96875 70.703125 67.390625 67.28125 
L 67.390625 56.78125 
Q 61.921875 61.421875 55.765625 63.765625 
Q 49.609375 66.109375 42.828125 66.109375 
Q 29.4375 66.109375 22.71875 58.640625 
Q 16.015625 51.171875 16.015625 36.375 
Q 16.015625 21.625 22.71875 14.15625 
Q 29.4375 6.6875 42.828125 6.6875 
Q 48.046875 6.6875 52.140625 7.59375 
Q 56.25 8.5 59.515625 10.40625 
z
" id="DejaVuSans-71"/>
      </defs>
      <use xlink:href="#DejaVuSans-71"/>
      <use x="77.490234" xlink:href="#DejaVuSans-114"/>
      <use x="116.353516" xlink:href="#DejaVuSans-111"/>
      <use x="177.535156" xlink:href="#DejaVuSans-117"/>
      <use x="240.914062" xlink:href="#DejaVuSans-110"/>
      <use x="304.292969" xlink:href="#DejaVuSans-100"/>
      <use x="367.769531" xlink:href="#DejaVuSans-32"/>
      <use x="399.556641" xlink:href="#DejaVuSans-116"/>
      <use x="438.765625" xlink:href="#DejaVuSans-114"/>
      <use x="479.878906" xlink:href="#DejaVuSans-117"/>
      <use x="543.257812" xlink:href="#DejaVuSans-116"/>
      <use x="582.466797" xlink:href="#DejaVuSans-104"/>
     </g>
    </g>
    <g id="patch_52">
     <path d="M 54.29 58.156563 
L 74.29 58.156563 
L 74.29 51.156563 
L 54.29 51.156563 
z
" style="fill:#ff0000;opacity:0.2;stroke:#ff0000;stroke-linejoin:miter;"/>
    </g>
    <g id="text_18">
     <!-- Posterior Fused -->
     <g transform="translate(82.29 58.156563)scale(0.1 -0.1)">
      <defs>
       <path d="M 19.671875 64.796875 
L 19.671875 37.40625 
L 32.078125 37.40625 
Q 38.96875 37.40625 42.71875 40.96875 
Q 46.484375 44.53125 46.484375 51.125 
Q 46.484375 57.671875 42.71875 61.234375 
Q 38.96875 64.796875 32.078125 64.796875 
z
M 9.8125 72.90625 
L 32.078125 72.90625 
Q 44.34375 72.90625 50.609375 67.359375 
Q 56.890625 61.8125 56.890625 51.125 
Q 56.890625 40.328125 50.609375 34.8125 
Q 44.34375 29.296875 32.078125 29.296875 
L 19.671875 29.296875 
L 19.671875 0 
L 9.8125 0 
z
" id="DejaVuSans-80"/>
       <path d="M 9.8125 72.90625 
L 51.703125 72.90625 
L 51.703125 64.59375 
L 19.671875 64.59375 
L 19.671875 43.109375 
L 48.578125 43.109375 
L 48.578125 34.8125 
L 19.671875 34.8125 
L 19.671875 0 
L 9.8125 0 
z
" id="DejaVuSans-70"/>
      </defs>
      <use xlink:href="#DejaVuSans-80"/>
      <use x="56.677734" xlink:href="#DejaVuSans-111"/>
      <use x="117.859375" xlink:href="#DejaVuSans-115"/>
      <use x="169.958984" xlink:href="#DejaVuSans-116"/>
      <use x="209.167969" xlink:href="#DejaVuSans-101"/>
      <use x="270.691406" xlink:href="#DejaVuSans-114"/>
      <use x="311.804688" xlink:href="#DejaVuSans-105"/>
      <use x="339.587891" xlink:href="#DejaVuSans-111"/>
      <use x="400.769531" xlink:href="#DejaVuSans-114"/>
      <use x="441.882812" xlink:href="#DejaVuSans-32"/>
      <use x="473.669922" xlink:href="#DejaVuSans-70"/>
      <use x="525.689453" xlink:href="#DejaVuSans-117"/>
      <use x="589.068359" xlink:href="#DejaVuSans-115"/>
      <use x="641.167969" xlink:href="#DejaVuSans-101"/>
      <use x="702.691406" xlink:href="#DejaVuSans-100"/>
     </g>
    </g>
    <g id="patch_53">
     <path d="M 54.29 72.834687 
L 74.29 72.834687 
L 74.29 65.834687 
L 54.29 65.834687 
z
" style="fill:#0000ff;opacity:0.2;stroke:#0000ff;stroke-linejoin:miter;"/>
    </g>
    <g id="text_19">
     <!-- Posterior Radar -->
     <g transform="translate(82.29 72.834687)scale(0.1 -0.1)">
      <defs>
       <path d="M 44.390625 34.1875 
Q 47.5625 33.109375 50.5625 29.59375 
Q 53.5625 26.078125 56.59375 19.921875 
L 66.609375 0 
L 56 0 
L 46.6875 18.703125 
Q 43.0625 26.03125 39.671875 28.421875 
Q 36.28125 30.8125 30.421875 30.8125 
L 19.671875 30.8125 
L 19.671875 0 
L 9.8125 0 
L 9.8125 72.90625 
L 32.078125 72.90625 
Q 44.578125 72.90625 50.734375 67.671875 
Q 56.890625 62.453125 56.890625 51.90625 
Q 56.890625 45.015625 53.6875 40.46875 
Q 50.484375 35.9375 44.390625 34.1875 
z
M 19.671875 64.796875 
L 19.671875 38.921875 
L 32.078125 38.921875 
Q 39.203125 38.921875 42.84375 42.21875 
Q 46.484375 45.515625 46.484375 51.90625 
Q 46.484375 58.296875 42.84375 61.546875 
Q 39.203125 64.796875 32.078125 64.796875 
z
" id="DejaVuSans-82"/>
      </defs>
      <use xlink:href="#DejaVuSans-80"/>
      <use x="56.677734" xlink:href="#DejaVuSans-111"/>
      <use x="117.859375" xlink:href="#DejaVuSans-115"/>
      <use x="169.958984" xlink:href="#DejaVuSans-116"/>
      <use x="209.167969" xlink:href="#DejaVuSans-101"/>
      <use x="270.691406" xlink:href="#DejaVuSans-114"/>
      <use x="311.804688" xlink:href="#DejaVuSans-105"/>
      <use x="339.587891" xlink:href="#DejaVuSans-111"/>
      <use x="400.769531" xlink:href="#DejaVuSans-114"/>
      <use x="441.882812" xlink:href="#DejaVuSans-32"/>
      <use x="473.669922" xlink:href="#DejaVuSans-82"/>
      <use x="540.902344" xlink:href="#DejaVuSans-97"/>
      <use x="602.181641" xlink:href="#DejaVuSans-100"/>
      <use x="665.658203" xlink:href="#DejaVuSans-97"/>
      <use x="726.9375" xlink:href="#DejaVuSans-114"/>
     </g>
    </g>
    <g id="PathCollection_3">
     <g>
      <use style="fill:#0000ff;stroke:#0000ff;" x="64.29" xlink:href="#m514892b0ee" y="84.887812"/>
     </g>
    </g>
    <g id="text_20">
     <!-- Measurements Radar -->
     <g transform="translate(82.29 87.512812)scale(0.1 -0.1)">
      <defs>
       <path d="M 9.8125 72.90625 
L 24.515625 72.90625 
L 43.109375 23.296875 
L 61.8125 72.90625 
L 76.515625 72.90625 
L 76.515625 0 
L 66.890625 0 
L 66.890625 64.015625 
L 48.09375 14.015625 
L 38.1875 14.015625 
L 19.390625 64.015625 
L 19.390625 0 
L 9.8125 0 
z
" id="DejaVuSans-77"/>
      </defs>
      <use xlink:href="#DejaVuSans-77"/>
      <use x="86.279297" xlink:href="#DejaVuSans-101"/>
      <use x="147.802734" xlink:href="#DejaVuSans-97"/>
      <use x="209.082031" xlink:href="#DejaVuSans-115"/>
      <use x="261.181641" xlink:href="#DejaVuSans-117"/>
      <use x="324.560547" xlink:href="#DejaVuSans-114"/>
      <use x="363.423828" xlink:href="#DejaVuSans-101"/>
      <use x="424.947266" xlink:href="#DejaVuSans-109"/>
      <use x="522.359375" xlink:href="#DejaVuSans-101"/>
      <use x="583.882812" xlink:href="#DejaVuSans-110"/>
      <use x="647.261719" xlink:href="#DejaVuSans-116"/>
      <use x="686.470703" xlink:href="#DejaVuSans-115"/>
      <use x="738.570312" xlink:href="#DejaVuSans-32"/>
      <use x="770.357422" xlink:href="#DejaVuSans-82"/>
      <use x="837.589844" xlink:href="#DejaVuSans-97"/>
      <use x="898.869141" xlink:href="#DejaVuSans-100"/>
      <use x="962.345703" xlink:href="#DejaVuSans-97"/>
      <use x="1023.625" xlink:href="#DejaVuSans-114"/>
     </g>
    </g>
    <g id="PathCollection_4">
     <g>
      <use style="fill:#ff0000;stroke:#ff0000;" x="64.29" xlink:href="#m8816d82a5e" y="99.565938"/>
     </g>
    </g>
    <g id="text_21">
     <!-- Measurements AIS -->
     <g transform="translate(82.29 102.190938)scale(0.1 -0.1)">
      <use xlink:href="#DejaVuSans-77"/>
      <use x="86.279297" xlink:href="#DejaVuSans-101"/>
      <use x="147.802734" xlink:href="#DejaVuSans-97"/>
      <use x="209.082031" xlink:href="#DejaVuSans-115"/>
      <use x="261.181641" xlink:href="#DejaVuSans-117"/>
      <use x="324.560547" xlink:href="#DejaVuSans-114"/>
      <use x="363.423828" xlink:href="#DejaVuSans-101"/>
      <use x="424.947266" xlink:href="#DejaVuSans-109"/>
      <use x="522.359375" xlink:href="#DejaVuSans-101"/>
      <use x="583.882812" xlink:href="#DejaVuSans-110"/>
      <use x="647.261719" xlink:href="#DejaVuSans-116"/>
      <use x="686.470703" xlink:href="#DejaVuSans-115"/>
      <use x="738.570312" xlink:href="#DejaVuSans-32"/>
      <use x="770.357422" xlink:href="#DejaVuSans-65"/>
      <use x="838.765625" xlink:href="#DejaVuSans-73"/>
      <use x="868.257812" xlink:href="#DejaVuSans-83"/>
     </g>
    </g>
   </g>
  </g>
 </g>
 <defs>
  <clipPath id="pe3e5231620">
   <rect height="363.16" width="663.91" x="45.29" y="26.88"/>
  </clipPath>
 </defs>
</svg>
